<svg xmlns="http://www.w3.org/2000/svg" viewBox="0 0 23.3 23.23"><defs><style>.cls-1{fill:#fff;}.cls-2{fill:#0079c1;}</style></defs><title>Amex</title><g id="Layer_2" data-name="Layer 2"><g id="Layer_1-2" data-name="Layer 1"><polygon class="cls-1" points="23.23 23.23 11.81 23.23 0 23.23 0 11.47 0 0 11.57 0 23.23 0 23.23 11.48 23.23 23.23 23.23 23.23"/><path class="cls-2" d="M22.36,16.41H14.72l-.48-.63v.63H12.58v-1a2.2,2.2,0,0,1-.71.12H11.6v.88H9.15l-.38-.52-.36.52h-4V12.56h4l.38.52.36-.52H23.23V0H0V9.44L.81,7.56h1.6l.41,1v-1h2L5,8.32l.26-.76h8.52v.36A1.86,1.86,0,0,1,15,7.56h2.65l.41,1v-1h1.58l.47.71V7.56H21.8v3.85H20.13l-.43-.67v.67H17.33l-.22-.57H16.6l-.22.57H15a1.91,1.91,0,0,1-1.14-.33v.33H11.41l-.49-.63v.63H2.09l-.22-.57h-.5l-.22.57H0V23.23H23.23V16.16a1.51,1.51,0,0,1-.87.25Z"/><path class="cls-2" d="M22.36,15.24H20.94v.61h1.41A.86.86,0,0,0,23.3,15a.75.75,0,0,0-.85-.79H21.8a.23.23,0,1,1,0-.45H23l.27-.61H21.81a.85.85,0,0,0-.95.86.77.77,0,0,0,.85.81h.65a.23.23,0,1,1,0,.45m-2.51,0H18.43v.61h1.42a.85.85,0,0,0,.94-.88.75.75,0,0,0-.85-.79h-.65a.23.23,0,1,1,0-.45h1.18l.27-.61H19.3a.85.85,0,0,0-.95.86.77.77,0,0,0,.86.81h.64a.23.23,0,1,1,0,.45m-1.72-1.51v-.61H15.9v2.73h2.23v-.61H16.59v-.47h1.5v-.59h-1.5v-.45Zm-3.53,0a.29.29,0,0,1,.32.28c0,.16-.11.28-.32.28h-.76v-.56Zm-.76,1.15h.27l.82,1h.86l-.89-1a.88.88,0,0,0-.23-1.74H13.15v2.73h.69v-1ZM12.15,14a.3.3,0,0,1-.32.31h-.78v-.62h.78a.3.3,0,0,1,.32.31m-1.79-.92v2.73h.69V15h.82a.9.9,0,0,0,1-.92.88.88,0,0,0-.95-.92Zm-.93,2.73h.87L9.2,14.47l1.09-1.35H9.44L8.8,14l-.65-.84H7.28l1.09,1.37L7.28,15.85h.85L8.78,15l.65.84Zm-2.2-2.12v-.61H5v2.73H7.23v-.61H5.69v-.47h1.5v-.59H5.69v-.45Z"/><path class="cls-2" d="M20.38,10.85h.84V8.11h-.69v1.7l-1.09-1.7h-.88v2.74h.69V9.09l1.13,1.76ZM16.47,9.7l.38-.94.38.94Zm1.23,1.15h.79L17.32,8.11h-.91l-1.17,2.74H16l.22-.56h1.25l.22.56Zm-2.81,0h0l.29-.61H15a.66.66,0,0,1-.69-.74v0A.64.64,0,0,1,15,8.75h.74V8.11h-.79a1.25,1.25,0,0,0-1.32,1.35v0a1.21,1.21,0,0,0,1.27,1.35m-2.31,0h.7V8.11h-.7v2.74Zm-1.3-2.12c.22,0,.33.13.33.28s-.11.28-.33.28h-.75V8.73Zm-.75,1.15h.27l.82,1h.85l-.88-1a.88.88,0,0,0-.23-1.75H9.83v2.74h.7v-1ZM9.44,8.73V8.11H7.21v2.74H9.44v-.61H7.91V9.77h1.5v-.6H7.91V8.73ZM4.73,10.85h.61l.72-2v2h.69V8.11H5.66L5.05,9.86,4.43,8.11H3.32v2.74H4v-2l.72,2ZM1.24,9.7l.38-.94L2,9.7Zm1.23,1.15h.78L2.08,8.11h-.9L0,10.85H.77L1,10.29H2.24l.23.56Z"/></g></g></svg>