<svg xmlns="http://www.w3.org/2000/svg" viewBox="0 0 32.04 23.48"><defs><style>.cls-1{fill:#fff;}.cls-2{fill:#004a98;}.cls-3{fill:#231f20;}</style></defs><title>DinersClub</title><g id="Layer_2" data-name="Layer 2"><g id="Layer_1-2" data-name="Layer 1"><path class="cls-1" d="M31.86,21.2a2.12,2.12,0,0,1-2.15,2.1H2.33A2.12,2.12,0,0,1,.18,21.2V2.28A2.12,2.12,0,0,1,2.33.18H29.71a2.12,2.12,0,0,1,2.15,2.1Z"/><path class="cls-2" d="M.36,2.28V21.2a2,2,0,0,0,2,1.92H29.71a2,2,0,0,0,2-1.92V2.28a2,2,0,0,0-2-1.92H2.33a2,2,0,0,0-2,1.92m2,21.2A2.3,2.3,0,0,1,0,21.2V2.28A2.31,2.31,0,0,1,2.33,0H29.71A2.31,2.31,0,0,1,32,2.28V21.2a2.3,2.3,0,0,1-2.33,2.28Z"/><path class="cls-3" d="M3.66,16.88c0,.44.32.49.6.49a1.61,1.61,0,0,0,1.65-1.8,1.73,1.73,0,0,0-1.8-1.85,4,4,0,0,0-.45,0Zm-.57-2.71c0-.52-.27-.48-.53-.49v-.15H4.24a2.11,2.11,0,0,1,2.31,2c0,.57-.34,2-2.38,2H2.56v-.15c.35,0,.52-.05.53-.44Z"/><path class="cls-3" d="M7.37,14a.28.28,0,1,1,0-.56.28.28,0,0,1,.28.28.29.29,0,0,1-.28.28m-.62,3.38h.11c.16,0,.27,0,.27-.19V15.65c0-.25-.08-.28-.3-.4v-.09A4.88,4.88,0,0,0,7.45,15l.11,0s0,0,0,.08v2.22c0,.19.12.19.28.19H8v.15H6.75Z"/><path class="cls-3" d="M8.53,15.69c0-.21-.06-.27-.33-.38V15.2c.24-.08.48-.16.76-.28,0,0,0,0,0,.06v.37a1.72,1.72,0,0,1,1-.43c.49,0,.66.36.66.81v1.49c0,.19.13.19.29.19H11v.15H9.81v-.15h.1c.17,0,.28,0,.28-.19v-1.5c0-.33-.2-.49-.53-.49a1.53,1.53,0,0,0-.67.28v1.71c0,.19.13.19.29.19h.1v.15H8.15v-.15h.1c.17,0,.28,0,.28-.19Z"/><path class="cls-3" d="M12.5,15.78c.15,0,.16-.07.16-.14a.48.48,0,0,0-.5-.53c-.35,0-.59.26-.66.67Zm-1,.19a1.61,1.61,0,0,0,0,.33,1,1,0,0,0,.85,1,1.11,1.11,0,0,0,.78-.39l.08.08a1.36,1.36,0,0,1-1.07.65A1.16,1.16,0,0,1,11,16.39c0-1.13.76-1.47,1.17-1.47a.92.92,0,0,1,1,.91.34.34,0,0,1,0,.1l-.05,0Z"/><path class="cls-3" d="M13.29,17.41h.16c.16,0,.28,0,.28-.19V15.6c0-.18-.22-.22-.3-.26v-.09c.42-.18.65-.33.7-.33s0,0,0,.08v.52h0c.15-.23.39-.6.74-.6a.32.32,0,0,1,.33.31.28.28,0,0,1-.27.29c-.18,0-.18-.14-.38-.14a.49.49,0,0,0-.42.48v1.36c0,.19.11.19.27.19h.33v.15h-1.5Z"/><path class="cls-3" d="M15.51,16.76a.76.76,0,0,0,.73.7.41.41,0,0,0,.47-.41c0-.68-1.26-.46-1.26-1.39a.79.79,0,0,1,.89-.74,1.44,1.44,0,0,1,.66.17l0,.59h-.13a.59.59,0,0,0-.63-.57.4.4,0,0,0-.45.38c0,.67,1.34.46,1.34,1.37,0,.38-.31.78-1,.78a1.6,1.6,0,0,1-.71-.19l-.06-.67Z"/><path class="cls-3" d="M22.37,14.58h-.14A1.1,1.1,0,0,0,21,13.63a1.64,1.64,0,0,0-1.63,1.83,1.88,1.88,0,0,0,1.72,2,1.18,1.18,0,0,0,1.16-1l.13,0-.13.84a3.26,3.26,0,0,1-1.28.3,2,2,0,0,1-2.2-2.16,2.12,2.12,0,0,1,2.19-2,4.38,4.38,0,0,1,1.36.3Z"/><path class="cls-3" d="M22.58,17.41h.11c.16,0,.28,0,.28-.19V14c0-.38-.09-.39-.31-.45v-.1a4.35,4.35,0,0,0,.6-.24l.12-.07s.05,0,.05.08v4c0,.19.13.19.29.19h.1v.15H22.58Z"/><path class="cls-3" d="M26.28,17.24c0,.1.07.11.17.11h.23v.13a6.23,6.23,0,0,0-.83.17h0v-.47a1.57,1.57,0,0,1-1,.48.62.62,0,0,1-.64-.68V15.48c0-.15,0-.29-.34-.32v-.11l.74,0c.06,0,.06,0,.06.17v1.48c0,.18,0,.67.51.67a1.29,1.29,0,0,0,.69-.35V15.43c0-.12-.27-.18-.48-.24v-.1l.9-.08s0,0,0,.1Z"/><path class="cls-3" d="M27.43,16.91a.62.62,0,0,0,.6.58c.61,0,.87-.6.87-1.12A1.1,1.1,0,0,0,28,15.23a.93.93,0,0,0-.55.27Zm0-1.57a1.43,1.43,0,0,1,.86-.42,1.12,1.12,0,0,1,1.07,1.21A1.45,1.45,0,0,1,28,17.64a1.64,1.64,0,0,1-.8-.2l-.17.13-.12-.06a6.93,6.93,0,0,0,.08-1V14c0-.38-.09-.39-.31-.45v-.1a3.88,3.88,0,0,0,.6-.24.42.42,0,0,1,.13-.07s0,0,0,.08Z"/><path class="cls-3" d="M2.56,20.91h0c.11,0,.23,0,.23-.18V19.09c0-.17-.12-.18-.23-.18h0v-.1l.46,0,.49,0v.1h0c-.11,0-.23,0-.23.18v1.64c0,.16.12.18.23.18h0V21H2.56Z"/><path class="cls-3" d="M3.5,21v-.07h0c-.11,0-.25,0-.25-.19V19.09c0-.18.14-.2.25-.2h0v-.06H2.57v.06h0c.11,0,.25,0,.25.2v1.64c0,.17-.14.19-.25.19h0V21H3.5m0,0h-1v-.11H2.6c.11,0,.22,0,.22-.17V19.09c0-.16-.11-.17-.22-.17H2.54V18.8h1v.11H3.47c-.11,0-.22,0-.22.17v1.64c0,.15.11.16.22.17h.06V21Z"/><path class="cls-3" d="M5.67,20.39h0V19.2a.25.25,0,0,0-.27-.29H5.33v-.1l.44,0,.39,0v.1h0c-.13,0-.28,0-.28.4v1.42a1.67,1.67,0,0,0,0,.32H5.73l-1.61-1.8v1.29c0,.28,0,.37.29.37h0V21H3.63v-.09h.05c.21,0,.28-.15.28-.4V19.19a.28.28,0,0,0-.29-.28h0v-.1l.36,0,.28,0Z"/><path class="cls-3" d="M5.66,20.38Zm0,0h0Zm.06.65h.1c0-.1,0-.2,0-.31V19.31c0-.38.16-.42.29-.42h0v-.06H5.35v.06H5.4a.28.28,0,0,1,.29.31v1.19h0l-1.4-1.58H3.65v.06h0a.3.3,0,0,1,.3.3v1.32c0,.25-.07.41-.29.41h0V21h.8v-.07h0c-.25,0-.31-.1-.31-.38V19.21Zm.12,0H5.72L4.13,19.29v1.25c0,.28,0,.35.28.36h.07V21H3.62V20.9h.06c.2,0,.26-.14.26-.39V19.19a.26.26,0,0,0-.27-.27h0V18.8h.66l1.38,1.55V19.2c0-.25-.17-.28-.26-.28H5.32V18.8h.85v.11H6.11c-.13,0-.26,0-.27.39v1.42c0,.11,0,.22,0,.32h0Z"/><path class="cls-3" d="M6.63,19c-.24,0-.25.06-.29.29h-.1c0-.09,0-.18,0-.27a2.45,2.45,0,0,0,0-.27h.07c0,.1.11.09.19.09H8.18c.09,0,.16,0,.17-.09h.08a2.17,2.17,0,0,0,0,.25v.26l-.1,0c0-.11,0-.3-.23-.3H7.54v1.67c0,.24.11.27.26.27h.06V21h-1v-.09h.06c.18,0,.26,0,.26-.26V19Z"/><path class="cls-3" d="M7.86,21H6.81V20.9h.07c.18,0,.24,0,.25-.25V19h0v1.69c0,.25-.11.27-.28.27h0V21h1v-.07h0c-.15,0-.27,0-.27-.28V19h.53c.21,0,.24.18.24.29l.07,0a2.09,2.09,0,0,1,0-.25l0-.24H8.36c0,.09-.1.1-.18.1H6.55c-.08,0-.16,0-.19-.09H6.31a1.06,1.06,0,0,1,0,.25l0,.25h.07c0-.22.06-.29.3-.28h0c-.23,0-.23.05-.28.28H6.23v0c0-.08,0-.17,0-.26a2.44,2.44,0,0,0,0-.27h.11c0,.08.08.08.16.08H8.18c.09,0,.15,0,.16-.08v0h0l.09,0h0c0,.09,0,.17,0,.25v.26h0l-.11,0v0c0-.11,0-.29-.22-.29h-.5v1.66c0,.24.09.25.24.26h.08V21Z"/><path class="cls-3" d="M8.53,20.91h0c.11,0,.23,0,.23-.18V19.09c0-.17-.12-.18-.23-.18h0v-.1l.78,0,.8,0a3.81,3.81,0,0,0,0,.48l-.1,0c0-.2,0-.37-.38-.37H9.2v.82h.38c.18,0,.23-.1.24-.27h.1c0,.12,0,.24,0,.37s0,.23,0,.35l-.1,0c0-.19,0-.31-.24-.31H9.2v.73c0,.21.19.21.39.21.37,0,.54,0,.63-.39l.09,0c0,.16-.08.33-.11.49H8.53Z"/><path class="cls-3" d="M10.19,21c0-.16.07-.32.1-.47l-.06,0c-.09.35-.27.38-.64.38-.2,0-.4,0-.4-.22v-.74h.39c.22,0,.24.13.26.31l.06,0v-.7H9.84c0,.17-.07.28-.26.28H9.19v-.85h.45c.33,0,.38.16.39.36l.07,0c0-.08,0-.2,0-.3a.66.66,0,0,1,0-.15H8.54v.06h0c.11,0,.24,0,.25.2v1.64c0,.17-.14.19-.25.19h0V21h1.65m0,0-.84,0-.83,0h0v-.11h.06c.11,0,.22,0,.22-.17V19.09c0-.16-.11-.17-.22-.17H8.51V18.8h1.61V19a3,3,0,0,0,0,.31h0l-.11,0v0c0-.2,0-.35-.37-.35H9.22v.79h.36c.18,0,.21-.09.23-.26v0h.12v0c0,.12,0,.24,0,.37s0,.23,0,.35h0l-.11,0v0c0-.19,0-.29-.23-.3H9.22v.72c0,.19.16.19.37.19.37,0,.53,0,.62-.37h0l.1,0h0c0,.16-.07.33-.1.5h0Z"/><path class="cls-3" d="M11.14,19.87h.15c.31,0,.48-.11.48-.49a.43.43,0,0,0-.46-.45h-.17Zm-.41-.72c0-.23-.12-.24-.22-.24h-.06v-.1l.49,0,.51,0c.39,0,.74.11.74.56a.6.6,0,0,1-.43.55l.53.8a.36.36,0,0,0,.31.19V21H12a8,8,0,0,1-.66-1h-.2v.67c0,.24.11.25.25.25h.06V21h-1v-.09h.06c.12,0,.22-.05.22-.17Z"/><path class="cls-3" d="M11.29,19.86c.31,0,.47-.11.47-.47a.42.42,0,0,0-.45-.45h-.16v.91Zm-.15,0h0v-1h0a.74.74,0,0,1,.18,0,.45.45,0,0,1,.48.48c0,.37-.18.5-.5.5Zm0,.08h.21A9.2,9.2,0,0,0,12,21h.58v-.07a.37.37,0,0,1-.3-.19l-.54-.82h0a.58.58,0,0,0,.43-.54c0-.44-.34-.54-.73-.54h-1v.06h0c.1,0,.24,0,.24.26v1.59c0,.13-.12.18-.24.18h0V21h1v-.07h0c-.14,0-.27,0-.27-.26V20ZM12.6,21H12a9.2,9.2,0,0,1-.65-1h-.18v.66c0,.23.1.23.24.24h.07V21h-1V20.9h.07c.11,0,.21,0,.21-.16V19.15c0-.23-.11-.22-.21-.23h-.07V18.8h1c.39,0,.76.11.76.57a.59.59,0,0,1-.43.55l.52.79a.36.36,0,0,0,.3.19h0V21Z"/><path class="cls-3" d="M14.73,20.39h0V19.2a.26.26,0,0,0-.27-.29h-.07v-.1l.44,0,.39,0v.1h-.05c-.13,0-.28,0-.28.4v1.42a1.67,1.67,0,0,0,0,.32h-.12l-1.61-1.8v1.29c0,.28.05.37.29.37h0V21h-.83v-.09h.05c.21,0,.28-.15.28-.4V19.19a.28.28,0,0,0-.29-.28h0v-.1l.36,0,.28,0Z"/><path class="cls-3" d="M14.72,20.38Zm0,0h0Zm.06.65h.1c0-.1,0-.2,0-.31V19.31c0-.38.16-.41.29-.42h0v-.06h-.79v.06h.05a.29.29,0,0,1,.29.31v1.19h0l-1.4-1.58H12.7v.06h0a.31.31,0,0,1,.3.3v1.32c0,.25-.07.41-.29.41h0V21h.81v-.07h0c-.25,0-.31-.1-.31-.38V19.22Zm.12,0h-.13l-1.59-1.77v1.25c0,.28,0,.35.28.36h.07V21h0l-.4,0-.43,0h0V20.9h.06c.2,0,.26-.14.26-.39V19.19a.26.26,0,0,0-.27-.27h-.05V18.8h.66l1.38,1.56V19.2c0-.25-.17-.28-.26-.28h-.08V18.8h.85v.11h-.06c-.13,0-.26,0-.27.39v1.42c0,.11,0,.22,0,.32h0Z"/><path class="cls-3" d="M16.18,19.17h0l-.29.88h.59Zm-.46,1.39a1.16,1.16,0,0,0-.07.24c0,.09.13.11.24.11h0V21H15.2v-.09h0a.29.29,0,0,0,.28-.2l.5-1.44a2.09,2.09,0,0,0,.11-.39,2,2,0,0,0,.29-.14h.05a.19.19,0,0,1,0,.07l.58,1.64c0,.11.08.23.12.32a.2.2,0,0,0,.21.13h0V21h-.9v-.09h0c.08,0,.2,0,.2-.09a1.3,1.3,0,0,0-.06-.23l-.13-.36h-.71Z"/><path class="cls-3" d="M16.17,19.17ZM15.9,20h.55l-.27-.84Zm0,0,.3-.92h0v0h0v0h0l.3.92Zm.64.92h.88v-.07h0a.21.21,0,0,1-.22-.13,2.38,2.38,0,0,1-.12-.32l-.58-1.64a.31.31,0,0,1,0-.08h0a1.46,1.46,0,0,1-.28.13,2.91,2.91,0,0,1-.12.39l-.5,1.44a.3.3,0,0,1-.29.21h0V21h.69v-.07h0c-.1,0-.25,0-.25-.12a1.42,1.42,0,0,1,.07-.25h0l.1-.33h.73l.13.37a1.12,1.12,0,0,1,.06.23c0,.1-.13.1-.21.1h0Zm.89,0L17,21l-.47,0h0V20.9h0c.08,0,.19,0,.19-.08a.85.85,0,0,0-.07-.22l-.12-.36h-.69l-.1.32a.81.81,0,0,0-.06.24c0,.08.11.1.22.1h0V21h0l-.38,0-.34,0h0V20.9h0a.26.26,0,0,0,.26-.2l.5-1.44a2.34,2.34,0,0,0,.13-.4,1.22,1.22,0,0,0,.28-.13h0a0,0,0,0,1,0,0l0,.08.58,1.64a2.39,2.39,0,0,0,.11.32.19.19,0,0,0,.2.12h0V21Z"/><path class="cls-3" d="M17.53,19c-.23,0-.24.06-.29.29h-.09l0-.27a1.23,1.23,0,0,0,0-.27h.08c0,.1.1.09.19.09h1.62c.08,0,.16,0,.16-.09h.08a2.13,2.13,0,0,0,0,.25,2.26,2.26,0,0,0,0,.26l-.1,0c0-.11,0-.3-.23-.3h-.51v1.67c0,.24.11.27.26.27h.06V21h-1v-.09h.06c.17,0,.26,0,.26-.26V19Z"/><path class="cls-3" d="M18.77,21H17.71V20.9h.08c.17,0,.24,0,.24-.25V19h0v1.69c0,.25-.1.27-.27.27h-.05V21h1v-.07h0c-.15,0-.28,0-.28-.28V19H19c.21,0,.24.18.25.29l.06,0c0-.08,0-.17,0-.25l0-.24h0c0,.09-.11.1-.18.1H17.45c-.07,0-.15,0-.18-.09h-.05a2.11,2.11,0,0,1,0,.25c0,.09,0,.17,0,.25h.07c0-.22.07-.29.3-.28h0c-.23,0-.23.05-.28.28h-.12v0a2,2,0,0,0,0-.26,2.45,2.45,0,0,0,0-.27h.1c0,.08.08.08.16.08h1.64c.08,0,.15,0,.15-.08v0h0l.08,0h0l0,.25a2.26,2.26,0,0,0,0,.26h0l-.11,0v0c0-.11,0-.29-.22-.29h-.5v1.66c0,.24.1.25.25.26h.07V21Z"/><path class="cls-3" d="M19.45,20.91h0c.11,0,.23,0,.23-.18V19.09c0-.17-.12-.18-.23-.18h0v-.1l.46,0,.49,0v.1h0c-.12,0-.23,0-.23.18v1.64c0,.16.11.18.23.18h0V21h-.95Z"/><path class="cls-3" d="M20.39,21v-.07h0c-.11,0-.25,0-.25-.19V19.09c0-.18.14-.2.25-.2h0v-.06h-.93v.06h0c.11,0,.24,0,.24.2v1.64c0,.17-.13.19-.24.19h0V21h.93m0,0-.49,0-.46,0h0v-.11h.06c.11,0,.22,0,.22-.17V19.09c0-.16-.11-.17-.22-.17h-.06V18.8h1v.11h-.06c-.12,0-.22,0-.22.17v1.64c0,.15.1.16.22.17h.06V21Z"/><path class="cls-3" d="M21.7,20.91c.61,0,.72-.53.72-1s-.25-1-.77-1-.71.48-.71.9c0,.57.25,1.1.76,1.1m-.05-2.14a1.1,1.1,0,0,1,1.21,1.08,1.15,1.15,0,0,1-1.19,1.2,1.1,1.1,0,0,1-1.17-1.13,1.13,1.13,0,0,1,1.15-1.15"/><path class="cls-3" d="M20.92,19.81c0-.42.17-.92.73-.92s.78.57.78,1-.11,1-.73,1v0h0c.6,0,.7-.52.7-1s-.24-1-.75-1-.7.48-.7.89c0,.56.25,1.09.75,1.09h0v0c-.52,0-.78-.55-.78-1.12m-.44.11a1.15,1.15,0,0,1,1.17-1.17v0h0a1.13,1.13,0,0,0-1.14,1.14A1.1,1.1,0,0,0,21.67,21a1.14,1.14,0,0,0,1.17-1.19,1.08,1.08,0,0,0-1.19-1.07h0v0a1.12,1.12,0,0,1,1.22,1.1,1.16,1.16,0,0,1-1.2,1.21,1.12,1.12,0,0,1-1.19-1.14"/><path class="cls-3" d="M25,20.39h0V19.2a.26.26,0,0,0-.28-.29h-.07v-.1l.44,0,.39,0v.1h-.05c-.13,0-.28,0-.28.4v1.42c0,.11,0,.22,0,.32H25l-1.61-1.8v1.29c0,.28,0,.37.29.37h.05V21h-.83v-.09H23c.21,0,.28-.15.28-.4V19.19a.28.28,0,0,0-.29-.28h0v-.1l.36,0,.28,0Z"/><path class="cls-3" d="M25,20.38Zm0,0h0ZM25,21h.11a1.56,1.56,0,0,1,0-.31V19.31c0-.38.16-.41.29-.42h0v-.06h-.8v.06h.05a.29.29,0,0,1,.29.31v1.19h0l-1.4-1.58H23v.06h0a.31.31,0,0,1,.3.3v1.32c0,.25-.07.41-.29.41h0V21h.8v-.07h0c-.25,0-.31-.1-.31-.38V19.21Zm.12,0H25l-1.59-1.77v1.25c0,.28.05.35.28.36h.07V21h-.86V20.9H23c.2,0,.26-.14.27-.39V19.19a.27.27,0,0,0-.28-.27h0V18.8h.66L25,20.36V19.2c0-.25-.17-.28-.26-.28h-.08V18.8h.85v.11h-.06c-.13,0-.26,0-.26.39v1.42c0,.11,0,.22,0,.32h0Z"/><path class="cls-3" d="M26.42,19.17h0l-.3.88h.59ZM26,20.56a1.16,1.16,0,0,0-.07.24c0,.09.14.11.24.11h0V21h-.71v-.09h0a.29.29,0,0,0,.28-.2l.5-1.44a3.43,3.43,0,0,0,.12-.39,1.82,1.82,0,0,0,.28-.14h.05l0,.07.57,1.64c0,.11.08.23.12.32a.2.2,0,0,0,.21.13h0V21h-.91v-.09h0c.07,0,.19,0,.19-.09a1.3,1.3,0,0,0-.06-.23l-.12-.36h-.72Z"/><path class="cls-3" d="M26.41,19.17h0Zm-.27.87h.55l-.27-.84Zm0,0,.31-.92h0v0h0v0h0l.3.92Zm.65.92h.87v-.07h0a.21.21,0,0,1-.22-.13c0-.09-.08-.21-.12-.32l-.58-1.64a.31.31,0,0,1,0-.08h0a1.46,1.46,0,0,1-.28.13,2.91,2.91,0,0,1-.12.39l-.5,1.44a.3.3,0,0,1-.29.21h0V21h.69v-.07h0c-.1,0-.25,0-.25-.12a1.42,1.42,0,0,1,.07-.25h0l.1-.33h.74l.12.37a.7.7,0,0,1,.06.23c0,.1-.13.1-.2.1h0Zm.88,0h-.91V20.9h.05c.07,0,.18,0,.18-.08a1.26,1.26,0,0,0-.06-.22l-.12-.36h-.7l-.09.32a.93.93,0,0,0-.07.24c0,.08.12.1.22.1h.05V21h-.75V20.9h0a.28.28,0,0,0,.27-.2l.5-1.44a3.79,3.79,0,0,0,.12-.4,1.32,1.32,0,0,0,.29-.13h0a0,0,0,0,1,0,0l0,.08.58,1.64a2.39,2.39,0,0,0,.11.32.2.2,0,0,0,.2.12h0V21Z"/><path class="cls-3" d="M28.43,20.7c0,.12.08.16.18.17H29a.47.47,0,0,0,.3-.17.77.77,0,0,0,.1-.23h.09L29.4,21H27.75v-.09h0c.11,0,.24,0,.24-.21V19.09c0-.17-.13-.18-.24-.18h0v-.1l.49,0,.48,0v.1h-.08c-.12,0-.21,0-.21.17Z"/><path class="cls-3" d="M29.39,21c0-.17.08-.34.11-.51h-.06a.62.62,0,0,1-.1.22.44.44,0,0,1-.31.18h-.42c-.1,0-.2-.06-.2-.19V19.08c0-.18.11-.19.23-.19h.06v-.06h-.94v.06h0c.11,0,.25,0,.25.2V20.7c0,.2-.14.22-.25.22h0V21h1.63m0,0H27.73V20.9h.06c.11,0,.22,0,.22-.2V19.09c0-.16-.11-.17-.22-.17h-.06V18.8h1v.11h-.09c-.12,0-.2,0-.2.16V20.7c0,.11.08.15.18.16h.17l.24,0a.46.46,0,0,0,.29-.16.68.68,0,0,0,.09-.22h.12c0,.18-.08.36-.12.54h0Z"/><path class="cls-3" d="M29.43,19.06h0s.06,0,.06-.09a.06.06,0,0,0-.07-.07h0Zm-.11.17v0s0,0,0,0v-.24s0-.05,0,0v0h.17a.1.1,0,0,1,.11.09.11.11,0,0,1-.08.1l.05.07a.29.29,0,0,0,.08.08h-.07s-.06-.06-.12-.15h0v.11s0,0,.05,0v0Zm.16.09a.27.27,0,1,0-.26-.26.26.26,0,0,0,.26.26m0-.59a.32.32,0,0,1,.33.33.33.33,0,1,1-.66,0,.32.32,0,0,1,.33-.33"/><path class="cls-1" d="M9.88,7.74a5.32,5.32,0,1,1,5.32,5.31A5.32,5.32,0,0,1,9.88,7.74Z"/><path class="cls-2" d="M15.2,13.15A5.53,5.53,0,0,1,9.65,7.69,5.43,5.43,0,0,1,15.2,2.14h1.43a5.63,5.63,0,0,1,5.76,5.55,5.74,5.74,0,0,1-5.76,5.46Zm0-10.56a5,5,0,1,0,5,5A5,5,0,0,0,15.22,2.59Zm-1.15,8v-6a3.19,3.19,0,0,0,0,6Zm4.34-3a3.19,3.19,0,0,0-2.05-3v6A3.19,3.19,0,0,0,18.41,7.63Z"/></g></g></svg>