<svg xmlns="http://www.w3.org/2000/svg" viewBox="0 0 30.2 23.49"><defs><style>.cls-1{fill:#221f1f;}.cls-2{fill:#f06022;}.cls-3{fill:#e91d25;}.cls-4{fill:#f59d1e;}</style></defs><title>Mastercard</title><g id="Layer_2" data-name="Layer 2"><g id="Layer_1-2" data-name="Layer 1"><g id="Layer_1-2-2" data-name="Layer 1-2"><path class="cls-1" d="M5.5,23.36V21.81a.93.93,0,0,0-.86-1H4.52a1,1,0,0,0-.87.44.93.93,0,0,0-.82-.44.85.85,0,0,0-.73.37v-.31H1.56v2.48h.55V22a.59.59,0,0,1,.5-.66h.11c.35,0,.54.23.54.65v1.38H3.8V22a.59.59,0,0,1,.5-.66h.11c.36,0,.54.23.54.65v1.38Zm8.05-2.48h-.89v-.75h-.54v.75h-.49v.5h.5v1.14c0,.57.22.92.86.92a1.22,1.22,0,0,0,.67-.2l-.15-.46a.92.92,0,0,1-.48.14c-.26,0-.36-.16-.36-.41V21.38h.89Zm4.6-.06a.71.71,0,0,0-.65.36v-.3H17v2.48h.54V22c0-.41.18-.63.52-.63a.66.66,0,0,1,.34.06l.16-.52a1,1,0,0,0-.38-.07Zm-6.95.26a1.91,1.91,0,0,0-1-.26c-.63,0-1,.3-1,.8s.3.65.85.73l.26,0c.3,0,.44.12.44.26s-.2.3-.57.3a1.29,1.29,0,0,1-.82-.26l-.26.42a1.71,1.71,0,0,0,1.07.32c.72,0,1.13-.33,1.13-.8s-.32-.67-.86-.75l-.26,0c-.23,0-.42-.08-.42-.25s.17-.29.47-.29a1.67,1.67,0,0,1,.78.22Zm14.44-.26a.71.71,0,0,0-.65.36v-.3h-.54v2.48H25V22c0-.41.18-.63.52-.63a.66.66,0,0,1,.34.06l.16-.52a1,1,0,0,0-.38-.07Zm-6.95,1.3a1.27,1.27,0,0,0,1.21,1.3H20a1.27,1.27,0,0,0,.9-.29l-.26-.44a1.12,1.12,0,0,1-.65.23.8.8,0,0,1,0-1.59,1.11,1.11,0,0,1,.65.22l.26-.43a1.28,1.28,0,0,0-.9-.3A1.25,1.25,0,0,0,18.69,22v.12Zm5,0V20.88H23.2v.3a1,1,0,0,0-.77-.36,1.3,1.3,0,1,0,0,2.59.89.89,0,0,0,.77-.36v.3h.54Zm-2,0a.66.66,0,1,1,0,.06A.13.13,0,0,1,21.74,22.12Zm-6.51-1.3a1.3,1.3,0,1,0,0,2.59h0a1.52,1.52,0,0,0,1-.33l-.26-.4a1.22,1.22,0,0,1-.72.26.69.69,0,0,1-.74-.61h1.84v-.21a1.17,1.17,0,0,0-1.17-1.29Zm0,.48a.63.63,0,0,1,.63.61h-1.3a.64.64,0,0,1,.66-.61Zm13.51.82V19.89h-.52v1.29a1,1,0,0,0-.78-.36,1.3,1.3,0,0,0,0,2.59.92.92,0,0,0,.78-.36v.3h.52Zm.9.88.1,0,.08.05a.22.22,0,0,1,.05.08.21.21,0,0,1,0,.19.22.22,0,0,1-.05.08l-.08,0a.18.18,0,0,1-.1,0,.28.28,0,0,1-.24-.15.31.31,0,0,1,0-.19l.06-.08.08-.05.11,0Zm0,.44a.1.1,0,0,0,.07,0,.09.09,0,0,0,.06,0,.19.19,0,0,0,0-.26l-.06,0h-.15l-.06,0a.19.19,0,0,0,0,.26s0,0,.06,0a.15.15,0,0,0,.09,0Zm0-.31.07,0s0,0,0,.06,0,0,0,0a.09.09,0,0,1-.06,0l.08.08h-.06l-.07-.08h0v.08h-.05v-.23Zm0,.05v.06h.08a0,0,0,0,0,0,0s0,0,0,0H29.6Zm-2.86-1.06a.76.76,0,0,1,.8-.7.74.74,0,0,1,.7.79.75.75,0,0,1-.74.71.76.76,0,0,1-.76-.74Zm-18.2,0V20.88H8v.3a1,1,0,0,0-.78-.36,1.3,1.3,0,1,0,0,2.59A.92.92,0,0,0,8,23.05v.3h.54Zm-2,0a.75.75,0,0,1,1.5.09.76.76,0,0,1-.75.71.75.75,0,0,1-.76-.73v-.07Z"/><g id="_Group_" data-name=" Group "><rect class="cls-2" x="11.02" y="2" width="8.17" height="14.68"/><path id="_Path_" data-name=" Path " class="cls-3" d="M11.54,9.34A9.3,9.3,0,0,1,15.1,2a9.33,9.33,0,1,0,0,14.67A9.28,9.28,0,0,1,11.54,9.34Z"/><path class="cls-4" d="M30.2,9.34a9.33,9.33,0,0,1-15.1,7.33,9.32,9.32,0,0,0,1.57-13.1A9,9,0,0,0,15.1,2,9.33,9.33,0,0,1,30.2,9.33Z"/><path class="cls-4" d="M29.31,15.12v-.3h.12v-.07h-.31v.07h.14v.3Zm.6,0v-.37h-.09l-.11.26-.11-.26h-.08v.37h.06v-.27l.1.23h.07l.11-.23v.27Z"/></g></g></g></g></svg>