<svg xmlns="http://www.w3.org/2000/svg" viewBox="0 0 37.3 23.33"><defs><style>.cls-1{fill:#fff;}.cls-2{fill:#0058a0;}.cls-3{fill:#faa61a;}</style></defs><title>Visa</title><g id="Layer_2" data-name="Layer 2"><g id="Layer_1-2" data-name="Layer 1"><polygon class="cls-1" points="0 0.58 0 22.7 37.3 22.7 37.3 0.58 0 0.58 0 0.58"/><polygon class="cls-2" points="6.18 8.2 8.35 16.41 10.88 16.41 14.81 6.91 12.24 6.91 9.77 13.36 8.75 8.31 6.18 8.2 6.18 8.2"/><polygon class="cls-2" points="15.76 6.87 14.25 16.41 16.64 16.41 18.18 6.87 15.76 6.87 15.76 6.87"/><path class="cls-2" d="M25.2,9.15l.35-2a7,7,0,0,0-2.32-.42c-1.26,0-4,.81-4,3.16s3.41,2.45,3.41,3.75-3.05,1.16-4,.32L18.29,16a8.63,8.63,0,0,0,2.59.52c1.23,0,4.28-.28,4.28-3.33,0-2.67-3.4-2.14-3.4-3.75,0,0,.35-1.62,3.44-.32Z"/><path class="cls-2" d="M25,16.41h2.63L28.11,15h3.23l.26,1.36h2.29L31.79,7h-2.1a1.46,1.46,0,0,0-1.12,1c-.34.89-3.55,8.42-3.55,8.42Z"/><polygon class="cls-1" points="30.95 13.08 28.81 13.08 30.14 9.57 30.95 13.08 30.95 13.08"/><path class="cls-2" d="M9.5,12,8.75,8.31s-.1-1.4-1.1-1.4H3.58V7.1A8.53,8.53,0,0,1,9.5,12Z"/><rect class="cls-3" y="17.81" width="37.3" height="5.53"/><rect class="cls-2" width="37.3" height="5.53"/></g></g></svg>