<svg xmlns="http://www.w3.org/2000/svg" viewBox="0 0 70 70"><defs><style>.cls-1{fill:#1eeb00;}.cls-2{isolation:isolate;}.cls-3{fill:#004b40;}</style></defs><title>Header_Info</title><g id="Layer_2" data-name="Layer 2"><g id="_2_Cofres" data-name="2_Cofres"><g id="Header_Info"><circle id="Ellipse_680" data-name="Ellipse 680" class="cls-1" cx="35" cy="35" r="35"/><g id="_" data-name=" " class="cls-2"><g class="cls-2"><path class="cls-3" d="M31.55,36.26a25.11,25.11,0,0,1,3.75-4.11A22.1,22.1,0,0,0,38,29.38a4.11,4.11,0,0,0,.85-2.54,3.77,3.77,0,0,0-1.62-3.21,7.18,7.18,0,0,0-4.3-1.18,9.55,9.55,0,0,0-4.57,1.07,9.74,9.74,0,0,0-3.37,3l-6.63-3.89a15.22,15.22,0,0,1,6.21-5.42,20.93,20.93,0,0,1,9.29-1.92q6.3,0,10.11,2.68a8.62,8.62,0,0,1,3.81,7.45A9.87,9.87,0,0,1,47,29.36a10.58,10.58,0,0,1-1.81,2.87c-.71.79-1.64,1.69-2.77,2.72a22.28,22.28,0,0,0-3,3,4.79,4.79,0,0,0-.93,3H30.26A8.08,8.08,0,0,1,31.55,36.26Zm-.88,17a4.75,4.75,0,0,1-1.51-3.53,4.61,4.61,0,0,1,1.48-3.48,5.3,5.3,0,0,1,3.78-1.4,5.27,5.27,0,0,1,3.78,1.4,4.57,4.57,0,0,1,1.48,3.48,4.74,4.74,0,0,1-1.5,3.53,5.59,5.59,0,0,1-7.51,0Z"/></g></g></g></g></g></svg>