<svg xmlns="http://www.w3.org/2000/svg" width="12" height="12" viewBox="0 0 12 12"><defs><style>.a{fill:#ffb71b;}</style></defs><g transform="translate(0 -0.003)"><path class="a" d="M16.848.651a.491.491,0,0,0-.7,0L15.129,1.659A6.051,6.051,0,0,0,13.215.437,5.9,5.9,0,0,0,11,0a5.769,5.769,0,0,0-3.75,1.3A6.093,6.093,0,0,0,5.137,4.7v.055a.253.253,0,0,0,.25.25H6.942a.234.234,0,0,0,.234-.18,9.446,9.446,0,0,1,.414-.914A3.985,3.985,0,0,1,11,2a3.882,3.882,0,0,1,2.727,1.07L12.645,4.151A.5.5,0,0,0,13,5h3.5a.507.507,0,0,0,.5-.5V1A.48.48,0,0,0,16.848.651Z" transform="translate(-4.996 0)"/><path class="a" d="M11.555,255.8h-1.5a.234.234,0,0,0-.234.18,9.456,9.456,0,0,1-.414.914A3.984,3.984,0,0,1,6,258.8a3.9,3.9,0,0,1-1.461-.281,4.034,4.034,0,0,1-1.258-.8l1.07-1.07A.5.5,0,0,0,4,255.8H.5a.48.48,0,0,0-.352.149A.48.48,0,0,0,0,256.3v3.5a.48.48,0,0,0,.148.352A.482.482,0,0,0,.5,260.3a.481.481,0,0,0,.352-.149l1.008-1.008a5.967,5.967,0,0,0,1.9,1.227,5.851,5.851,0,0,0,2.207.43A5.728,5.728,0,0,0,9.7,259.5a6.072,6.072,0,0,0,2.094-3.395.134.134,0,0,0,.008-.055.253.253,0,0,0-.25-.25Z" transform="translate(0 -248.798)"/></g></svg>