<svg xmlns="http://www.w3.org/2000/svg" width="435.382" height="529" viewBox="0 0 435.382 529"><defs><style>.a{fill:#161616;opacity:0.16;}.b{fill:#8bed8c;}.c{fill:#004a3d;}.d{fill:#7fff5d;}.e{fill:#012d25;}.f{fill:#ffb95c;}.g{fill:#fbb040;}.h{fill:#fff;}.i{fill:none;stroke:#fff;stroke-miterlimit:10;stroke-width:2px;}.j{fill:#eaf6f8;}.k{fill:#d2dadb;}.l{fill:#003f33;}</style></defs><ellipse class="a" cx="186" cy="15.5" rx="186" ry="15.5" transform="translate(34.382 498)"/><g transform="translate(0 0)"><g transform="translate(0 47.089)"><path class="b" d="M287.113,446.565l-17.4,13.247-3.9-3.914a79.505,79.505,0,0,1-17.139-26.322,243.642,243.642,0,0,1-113.205,0A79.509,79.509,0,0,1,118.333,455.9l-3.9,3.914-17.4-13.247-22.2,14.107-2.528-6.8A550.473,550.473,0,0,1,32.851,252.893c0-33.117,6.256-73.59,18.6-120.427-18.81-18.967-25.238-40.9-32.008-64.127l-3.3-11.01A306.527,306.527,0,0,0,4.914,26.834L2,20.426l6.641-2.15A115.3,115.3,0,0,1,44.334,12.34,104.721,104.721,0,0,1,115.42,40.511a229.06,229.06,0,0,1,76.827-12.9,229.485,229.485,0,0,1,76.87,12.9A104.465,104.465,0,0,1,340.159,12.34a114.954,114.954,0,0,1,35.693,5.935l6.641,2.15-2.828,6.408A288.415,288.415,0,0,0,368.4,57.328c-1.114,3.742-2.228,7.441-3.256,11.053-6.813,23.182-13.24,45.16-32.008,64.127,12.34,46.321,18.553,86.793,18.553,120.427a551.983,551.983,0,0,1-39.378,200.941l-3,6.623Z" transform="translate(6.656 -6.021)"/><path class="c" d="M384.6,17.118a121.307,121.307,0,0,0-37.68-6.238,111.224,111.224,0,0,0-72.574,27.274,243.136,243.136,0,0,0-150.891,0A111.224,111.224,0,0,0,50.926,10.88a121.522,121.522,0,0,0-37.637,6.238L0,21.42,5.744,34.325A297.509,297.509,0,0,1,16.718,64.051c1.115,3.657,2.186,7.356,3.258,10.97,6.73,22.929,13.117,44.739,31.078,64.141-11.874,45.9-17.918,85.779-17.918,118.6A546.813,546.813,0,0,0,73.174,461.5l5.916,13.336,12.26-7.829,12.431-7.872,9.516,7.27,8.788,6.711,7.759-7.872A91.159,91.159,0,0,0,146.176,441.8a249.862,249.862,0,0,0,105.538,0,91.163,91.163,0,0,0,16.332,23.445l7.759,7.872,8.573-6.711,9.516-7.27,12.431,7.872,12.26,7.829L324.5,461.5a546.814,546.814,0,0,0,40.038-203.737c0-33.3-6-73.132-17.918-118.6,17.961-19.4,24.348-41.212,31.078-64.141,1.072-3.614,2.143-7.313,3.258-10.97a297.5,297.5,0,0,1,10.974-29.812l5.744-12.906Zm-25.72,58.419c-5.444,19.186-9.731,34.8-22.805,49.3-7.33-25.811-14.318-45.729-16.847-52.7,2.4-4.087,9.9-14.282,28.849-23.23l-5.144-11.4c-29.407,13.9-35.965,31.4-36.222,32.135l-.772,2.194.814,2.151c.386,1.075,39.352,105.7,39.352,185.238a546.148,546.148,0,0,1-35.579,189.282L293.38,437.625l-15.346,11.7a60.568,60.568,0,0,1-10.074-16.605c5.315-1.592,10.588-3.269,15.775-5.162l-4.287-11.83a232.166,232.166,0,0,1-160.579,0l-4.287,11.83c5.187,1.893,10.459,3.57,15.775,5.162a60.562,60.562,0,0,1-10.331,16.605l-15.3-11.7L87.577,448.509A545.412,545.412,0,0,1,52,259.227C52,179.685,90.963,75.064,91.349,73.988l.814-2.151-.772-2.194c-.257-.731-6.773-18.24-36.222-32.135l-5.358,11.4C68.8,57.9,76.3,68.095,78.661,72.139c-2.529,6.969-9.474,26.672-16.847,52.7C48.74,110.3,44.453,94.723,39.18,75.537c-1.372-4.99-2.829-10.2-4.287-15.573-3.386-10.5-6.859-19.573-9.173-25.338a91.384,91.384,0,0,1,90.02,23.66l2.829,3.269,4.072-1.549a217.246,217.246,0,0,1,76.3-13.422,217.673,217.673,0,0,1,76.346,13.422l4.029,1.549,2.872-3.269a92.5,92.5,0,0,1,90.02-23.66c-2.315,5.765-5.744,14.841-9,25.338-1.672,5.377-3.129,10.583-4.5,15.573Z" transform="translate(0 -10.88)"/><path class="c" d="M89.448,71.81,76.854,73.455c3.073,23.328,4.588,41.159,5.323,51.2l-17.528-5.583L51.665,133.008C46.514,123.7,37.209,106,26.519,81.938l-11.6,5.15A610.705,610.705,0,0,0,44.956,146.9l4.328,7.228,19.13-20.515,27.353,8.656-.39-9.046C95.377,132.315,94.339,109.29,89.448,71.81Z" transform="translate(48.882 189.962)"/><path class="c" d="M39.5,60.679A13.979,13.979,0,1,0,25.561,46.916,13.979,13.979,0,0,0,39.5,60.679Z" transform="translate(83.927 61.196)"/><path class="c" d="M74.584,60.678A13.979,13.979,0,1,0,60.821,46.915,13.98,13.98,0,0,0,74.584,60.678Z" transform="translate(199.707 61.197)"/><path class="c" d="M90.255,119.072l-17.312,5.583c.692-10.041,2.251-27.872,5.323-51.2L65.672,71.81c-4.934,37.48-5.929,60.592-5.973,61.458l-.389,9.046,27.353-8.656,18.913,20.471L109.9,146.9A587.866,587.866,0,0,0,139.94,87.088l-11.556-5.15C117.695,106,108.346,123.7,103.239,133.224Z" transform="translate(194.317 189.962)"/><path class="d" d="M88.472,112.508c13.893,0,41.073-15.754,51.936-39.644s-12.465-31.248-21.64-32.936a230.426,230.426,0,0,0-30.3-2.207,230.423,230.423,0,0,0-30.3,2.207c-9.219,1.688-32.33,9.132-21.64,32.936S74.58,112.508,88.472,112.508Z" transform="translate(110.472 77.608)"/><path class="c" d="M151.324,55.273c-6.232-11.815-21.034-15.711-26.963-16.749A236.268,236.268,0,0,0,93.069,36.23a236.131,236.131,0,0,0-31.2,2.294c-6.016,1.039-20.731,4.934-26.79,16.749a27.483,27.483,0,0,0,.649,25.016c12.032,26.877,41.635,43.28,57.562,43.28s45.531-16.49,57.562-43.28A27.483,27.483,0,0,0,151.324,55.273ZM138.946,75.1c-10,22.246-35.446,35.879-46.007,35.879S56.93,97.341,46.933,75.1A15.927,15.927,0,0,1,46.11,61.2c2.986-5.626,11.253-8.959,18.048-10.214a223.917,223.917,0,0,1,28.911-2.077,224.055,224.055,0,0,1,29,2.077c6.795,1.255,15.061,4.588,18.048,10.214A15.754,15.754,0,0,1,138.946,75.1Z" transform="translate(105.83 72.67)"/><path class="c" d="M58.47,40.891a10.734,10.734,0,0,0-10.82,9.695v5.67a10.863,10.863,0,0,0,21.64,0v-5.67a10.734,10.734,0,0,0-10.82-9.695Z" transform="translate(156.498 88.164)"/><path class="c" d="M49.354,40.89A8.656,8.656,0,0,0,40.7,50.585v5.67a8.656,8.656,0,1,0,17.312,0v-5.67a8.656,8.656,0,0,0-8.656-9.695Z" transform="translate(133.48 88.166)"/></g><path class="c" d="M27.11,21.62H186.64l-1.9,8.656H29.014Z" transform="translate(88.614 71.951)"/><path class="c" d="M27.11,21.62H186.64l-1.9,8.656H29.014Z" transform="translate(88.614 71.951)"/><path class="c" d="M230.809,42.835v10.43L216.4,56.6c-.866.216-2.424.952-2.683,1.818l-7.271,26.66H43.06L36.049,58.589a2.424,2.424,0,0,0-1.6-1.861L21.68,53.266V42.835c0-22.549,48-41.635,104.478-41.635S230.809,20.286,230.809,42.835Z" transform="translate(70.588 3.994)"/><path class="c" d="M230.809,42.835v10.43L216.4,56.6c-.866.216-2.424.952-2.683,1.818l-7.271,26.66H43.06L36.049,58.589a2.424,2.424,0,0,0-1.6-1.861L21.68,53.266V42.835c0-22.549,48-41.635,104.478-41.635S230.809,20.286,230.809,42.835Z" transform="translate(70.588 3.994)"/><g transform="translate(87.825)"><path class="e" d="M129.5,0C68.171,0,20.65,20.6,20.65,46.829V59.25c0,1.212,0,2.121,1,2.424L34.629,65.18l6.622,24.064,4.328,15.8,1.6,5.843c4.544,15.754,43.886,24.237,81.366,24.237s76.865-8.656,81.41-24.237l5.5-21.64,6.665-23.891,14.023-3.592a2.986,2.986,0,0,0,2.38-2.51V46.829C238.565,20.6,190.957,0,129.5,0ZM50.513,102.227l-1.9-8.656h159.66l-1.9,8.656ZM234.237,57.259l-14.412,3.333c-.865.216-2.424.952-2.683,1.818L209.87,89.07H46.488L39.477,62.583a2.424,2.424,0,0,0-1.6-1.861L25.108,57.259V46.829c0-22.549,48-41.635,104.478-41.635S234.237,24.28,234.237,46.829Z" transform="translate(-20.65)"/></g><path class="f" d="M72.772,14.035A31.161,31.161,0,0,1,57.105,41.258,31.162,31.162,0,0,1,41.394,14.121a16.991,16.991,0,0,1,0-2.077A36.744,36.744,0,0,0,57.105,7.11a37.135,37.135,0,0,0,15.581,4.847A17.015,17.015,0,0,1,72.772,14.035Z" transform="translate(135.972 23.662)"/><path class="g" d="M57.105,7.11V41.258A31.162,31.162,0,0,1,41.394,14.121a16.991,16.991,0,0,1,0-2.077A36.744,36.744,0,0,0,57.105,7.11Z" transform="translate(136.035 23.662)"/><path class="h" d="M57.383,42.23h0A31.854,31.854,0,0,1,41.327,14.574a11.855,11.855,0,0,1,0-2.121v-.476h.3A37.653,37.653,0,0,0,57.383,7h0a37.264,37.264,0,0,0,15.538,4.847h.346v.346a17.718,17.718,0,0,1,0,2.121A31.9,31.9,0,0,1,57.383,42.1ZM41.976,12.756v1.688A30.989,30.989,0,0,0,57.383,41.278,31.032,31.032,0,0,0,72.834,14.444a11.055,11.055,0,0,0,0-1.688,38.606,38.606,0,0,1-15.451-4.8A38.389,38.389,0,0,1,41.976,12.756Z" transform="translate(135.695 23.296)"/><path class="f" d="M285.625,90.292c3.419,98.722-25.189,202.983-117.505,245.311C72.254,294.573,46.07,193.644,46.07,90.292V82.328h1.385A259.248,259.248,0,0,0,165.7,53.85,259.68,259.68,0,0,0,284.153,82.242h1.082C285.538,85.012,285.495,87.608,285.625,90.292Z" transform="translate(149.488 176.395)"/><path class="g" d="M165.984,53.9l1.9,281.753C71.807,294.1,45.839,194,46.142,90.472V82.378h1.385a260.156,260.156,0,0,0,118.5-28.392Z" transform="translate(151.141 176.561)"/><path class="i" d="M257.647,89.721c2.943,85.694-21.64,176.193-101.968,212.937C72.539,267,49.73,179.441,49.73,89.721V82.8H50.9A226.139,226.139,0,0,0,153.732,58.17,225.965,225.965,0,0,0,256.565,82.8h.952C257.56,85.133,257.56,87.384,257.647,89.721Z" transform="translate(161.668 190.772)"/><path class="j" d="M107.651,129.929h12.075V98.118a25.968,25.968,0,0,0-51.936,0v30.3H79.865v-30.3a13.85,13.85,0,0,1,27.656,0Z" transform="translate(222.701 238.191)"/><path class="k" d="M67.79,98.095v30.3H79.865v-30.3A13.806,13.806,0,0,1,93.671,84.418V72.17A25.968,25.968,0,0,0,67.79,98.095Z" transform="translate(222.884 238.263)"/><rect class="l" width="65.396" height="65.396" rx="1.83" transform="translate(349.057 416.046) rotate(180)"/><path class="c" d="M73.77,81.53v65.4h27.18a5.54,5.54,0,0,0,5.54-5.54V87.027a5.5,5.5,0,0,0-5.54-5.5Z" transform="translate(242.496 269.12)"/><circle class="j" cx="10.647" cy="10.647" r="10.647" transform="translate(305.799 367.415)"/><rect class="j" width="10.604" height="24.973" rx="0.78" transform="translate(321.792 402.958) rotate(180)"/></g></svg>