<svg xmlns="http://www.w3.org/2000/svg" width="524.3" height="555.574" viewBox="0 0 524.3 555.574"><defs><style>.a{fill:#161616;opacity:0.16;}.b{fill:#455a64;}.c{fill:#263238;}.d,.e{opacity:0.4;}.e,.h{isolation:isolate;}.f,.h{fill:#fafafa;}.g{fill:#92e3a9;}.h,.i{opacity:0.7;}.j{fill:#1eeb00;}.k{fill:#00372d;}.l{fill:#004a3d;}.m{fill:#7fff5d;}</style></defs><g transform="translate(-2082 187.236)"><ellipse class="a" cx="155" cy="12.5" rx="155" ry="12.5" transform="translate(2084 343.338)"/><ellipse class="a" cx="86" cy="9" rx="86" ry="9" transform="translate(2346 325.338)"/><g transform="translate(2300.594 -187.236)"><g transform="translate(30.268 192.745)"><path class="b" d="M241.422,207.78l-2.932,329.5H369.014V212.273Z" transform="translate(-191.399 -207.78)"/><path class="c" d="M243.62,247.75v46.193h61.824v-44Z" transform="translate(-189.502 -192.995)"/><path class="c" d="M292.274,209.59,291.11,536.612h58.44V211.6Z" transform="translate(-171.935 -207.11)"/><path class="c" d="M243.62,210.75v46.193h61.824V212.928Z" transform="translate(-189.502 -206.681)"/><path class="c" d="M259.18,220.187v6.822H278.1V219.57Z" transform="translate(-183.746 -203.419)"/><rect class="c" width="19.535" height="2.795" transform="translate(75.434 29.33)"/><g class="d" transform="translate(75.434 16.151)"><path d="M259.18,220.187v6.822H278.1V219.57Z" transform="translate(-259.18 -219.57)"/><rect width="19.535" height="2.795" transform="translate(0 13.178)"/></g><path class="c" d="M243.62,328.9v46.179h61.824v-44Z" transform="translate(-189.502 -162.978)"/><path class="c" d="M259.18,338.336v6.822H278.1V337.72Z" transform="translate(-183.746 -159.715)"/><rect class="c" width="19.535" height="2.795" transform="translate(75.434 191.183)"/><g class="d" transform="translate(75.434 178.005)"><path d="M259.18,338.336v6.822H278.1V337.72Z" transform="translate(-259.18 -337.72)"/><rect width="19.535" height="2.795" transform="translate(0 13.178)"/></g><path class="c" d="M243.62,366.9v46.179h61.824v-44Z" transform="translate(-189.502 -148.922)"/><path class="c" d="M259.18,376.336v6.822H278.1V375.72Z" transform="translate(-183.746 -145.659)"/><rect class="c" width="19.535" height="2.795" transform="translate(75.434 243.239)"/><g class="d" transform="translate(75.434 230.061)"><path d="M259.18,376.336v6.822H278.1V375.72Z" transform="translate(-259.18 -375.72)"/><rect width="19.535" height="2.795" transform="translate(0 13.178)"/></g><path class="c" d="M243.14,404.9v46.179h61.823v-44Z" transform="translate(-189.679 -134.866)"/><path class="c" d="M258.69,414.336v6.822h18.918V413.72Z" transform="translate(-183.928 -131.603)"/><rect class="c" width="19.535" height="2.795" transform="translate(74.762 295.296)"/><g class="d" transform="translate(74.762 282.117)"><path d="M258.69,414.336v6.822h18.918V413.72Z" transform="translate(-258.69 -413.72)"/><rect width="19.535" height="2.795" transform="translate(0 13.178)"/></g><rect class="b" width="61.824" height="46.193" transform="translate(0 109.208)"/><path class="c" d="M213.49,302.845v6.411h17.781V302.27Z" transform="translate(-200.647 -172.828)"/><rect class="c" width="18.357" height="2.617" transform="translate(12.843 141.826)"/><g class="d" transform="translate(21.727 129.442)"><path d="M213.49,302.845v6.411h17.781V302.27Z" transform="translate(-213.49 -302.27)"/><rect width="18.357" height="2.617" transform="translate(0 12.384)"/></g><path class="c" d="M242.76,287.622l53.351-.452-.971,46.631H242.76Z" transform="translate(-182.224 -178.414)"/><path class="e" d="M242.76,287.622l53.351-.452-.971,46.631H242.76Z" transform="translate(-182.224 -178.414)"/><rect class="f" width="60.933" height="41.481" transform="translate(50.789 67.262)"/><path class="c" d="M230.4,262.977l3.069,35.248,72.6-.37-4.3-34.48a4.11,4.11,0,0,0-4.6-3.507l-29.3,2.548-4.986-3.7a2.4,2.4,0,0,0-1.562-.425l-28.932,2.548A2.1,2.1,0,0,0,230.4,262.977Z" transform="translate(-194.392 -189.098)"/><path class="g" d="M230.4,262.977l3.069,35.248,72.6-.37-4.3-34.48a4.11,4.11,0,0,0-4.6-3.507l-29.3,2.548-4.986-3.7a2.4,2.4,0,0,0-1.562-.425l-28.932,2.548A2.1,2.1,0,0,0,230.4,262.977Z" transform="translate(-194.392 -189.098)"/><path class="f" d="M215.6,284.417l-1.534-9.178,67.166-4.439,5.9,22.781-70.207-.356Z" transform="translate(-200.432 -184.469)"/><path class="g" d="M208.93,278.755l1.192,13.7H281.96l-1.7-13.329a4.111,4.111,0,0,0-4.589-3.507l-29.3,2.548-5-3.7a2.326,2.326,0,0,0-1.548-.425L210.889,276.6A2.069,2.069,0,0,0,208.93,278.755Z" transform="translate(-202.334 -183.273)"/><path class="h" d="M208.93,278.755l1.192,13.7H281.96l-1.7-13.329a4.111,4.111,0,0,0-4.589-3.507l-29.3,2.548-5-3.7a2.326,2.326,0,0,0-1.548-.425L210.889,276.6A2.069,2.069,0,0,0,208.93,278.755Z" transform="translate(-202.334 -183.273)"/><path class="c" d="M264.27,275.29h9.589a2.411,2.411,0,0,1,2.343,2.959l-3.1,13.3h-4.48Z" transform="translate(-181.863 -182.808)"/></g><g transform="translate(0 0)"><path class="g" d="M369.959,150.63l-42.618,9.137a2.741,2.741,0,0,1-3.243-2.122c-.005-.033-.012-.064-.018-.1l-5.754-28.768a2.834,2.834,0,0,1,2.137-3.37l42.6-9.165a2.741,2.741,0,0,1,3.243,2.122c.005.033.012.064.018.1l5.767,28.768A2.876,2.876,0,0,1,369.959,150.63Z" transform="translate(-131.624 -48.915)"/><path class="f" d="M340.551,130.31l6.521,2.26-5.151,4.726-5.151,4.726-1.37-6.987-1.37-6.986Z" transform="translate(-125.792 -44.527)"/><path class="c" d="M312.008,153.726l.425-.562c.3-.356.726-.89,1.274-1.616a39.657,39.657,0,0,0,4.11-6.767,37.5,37.5,0,0,0,2.055-5.329c.589-2,1.055-4.233,1.644-6.6,1.151-4.767,2.466-10.178,3.9-16.165s3.055-12.548,4.754-19.576a45.037,45.037,0,0,1,1.507-5.356,29.9,29.9,0,0,1,2.521-5.165,28.914,28.914,0,0,1,3.644-4.685,26.22,26.22,0,0,1,2.206-2.069h.068c.288,1.123,0,.3.11.548h-.178l-.37-.1-.74-.178-1.479-.356L312.638,73.7,299.5,70.477l-6.712-1.644-3.4-.822h-.164l-.4.151-.808.315c-.507.26-1.055.466-1.548.753a21.534,21.534,0,0,0-9.356,9.685,26.014,26.014,0,0,0-2.027,6.411c-.507,2.192-1.014,4.37-1.507,6.534-2,8.63-3.918,16.959-5.754,24.9l-1.37,5.877A44.023,44.023,0,0,1,259.1,138.1c-.548.726-1.109,1.37-1.685,2.11l-.219.26-.11.137c-.288-.945,0-.26-.11-.466h.123l.644.164,1.274.315,4.986,1.233,9.4,2.329,28.3,7.041,7.7,1.959,1.986.521.685.206-.7-.137-2.014-.452-7.712-1.822-28.371-6.849-9.4-2.274-5-1.219-1.274-.3-.644-.164h-.123c-.082-.205.11.466-.192-.479l.11-.123.206-.26c.575-.671,1.123-1.37,1.658-2.1a43.609,43.609,0,0,0,5.411-9.713,70.056,70.056,0,0,0,3.151-11.411c1.822-7.945,3.74-16.274,5.713-24.918.507-2.164,1-4.343,1.507-6.534a26.538,26.538,0,0,1,2.069-6.548,22.24,22.24,0,0,1,9.589-10.261c.521-.3,1.082-.521,1.617-.767l.836-.329.411-.164h.575l3.384.836L299.6,69.71l13.137,3.219,24.809,6.1,1.479.37.74.178.37.1h.178c.069.26-.082-.562.164.575h-.068c-.754.644-1.48,1.37-2.165,2.027a27.968,27.968,0,0,0-6.055,9.589,45.17,45.17,0,0,0-1.493,5.274L325.857,116.7l-4,16.137c-.616,2.37-1.109,4.589-1.726,6.6a37.7,37.7,0,0,1-2.11,5.356,36.817,36.817,0,0,1-4.219,6.726A24.279,24.279,0,0,1,312.008,153.726Z" transform="translate(-154.415 -67.08)"/><path class="c" d="M313.958,90.107a5.435,5.435,0,0,1-1.534-.233c-.973-.192-2.384-.493-4.11-.877-3.466-.781-8.219-1.9-13.507-3.247s-10-2.74-13.411-3.7c-1.712-.507-3.082-.945-4.027-1.26a5.771,5.771,0,0,1-1.438-.562,7.547,7.547,0,0,1,1.521.3l4.11,1.041L295,85.052,308.465,88.5l4.11,1.11A7.3,7.3,0,0,1,313.958,90.107Z" transform="translate(-147.283 -62.216)"/><path class="c" d="M313.25,94.3a7.177,7.177,0,0,1-1.534-.233c-.986-.192-2.384-.493-4.11-.89-3.466-.781-8.219-1.9-13.521-3.247s-9.987-2.74-13.4-3.685c-1.712-.521-3.082-.945-4.028-1.26a6.518,6.518,0,0,1-1.37-.562,6.759,6.759,0,0,1,1.52.288l4.11,1.041,13.439,3.493,13.411,3.452,4.11,1.1A6.61,6.61,0,0,1,313.25,94.3Z" transform="translate(-147.52 -60.666)"/><path class="c" d="M312.268,98.473a5.7,5.7,0,0,1-1.534-.219c-.986-.192-2.384-.507-4.11-.89-3.466-.781-8.219-1.9-13.521-3.247s-9.987-2.671-13.4-3.7c-1.712-.507-3.082-.932-4.027-1.247a7.532,7.532,0,0,1-1.438-.562,5.861,5.861,0,0,1,1.521.288l4.11,1.041,13.439,3.48,13.48,3.452,4.11,1.11A7.708,7.708,0,0,1,312.268,98.473Z" transform="translate(-147.908 -59.116)"/><path class="c" d="M311.4,102.667a6.257,6.257,0,0,1-1.534-.233c-.973-.192-2.384-.493-4.11-.877-3.466-.781-8.219-1.9-13.507-3.26s-10-2.658-13.411-3.685c-1.7-.507-3.069-.945-4.014-1.26a6.076,6.076,0,0,1-1.452-.562,7.365,7.365,0,0,1,1.521.3L279,94.119l13.452,3.493,13.452,3.452,4.11,1.11A6.8,6.8,0,0,1,311.4,102.667Z" transform="translate(-148.23 -57.57)"/><path class="c" d="M310.056,106.85a7.177,7.177,0,0,1-1.534-.233c-.986-.192-2.384-.493-4.11-.89-3.466-.781-8.219-1.9-13.521-3.247s-9.987-2.74-13.4-3.7c-1.712-.507-3.082-.932-4.027-1.247A6.567,6.567,0,0,1,272,97a5.863,5.863,0,0,1,1.521.288l4.11,1.041,13.439,3.493,13.466,3.438,4.11,1.11A6.19,6.19,0,0,1,310.056,106.85Z" transform="translate(-148.737 -56.013)"/><path class="c" d="M309.068,111.037a5.436,5.436,0,0,1-1.534-.233c-.973-.192-2.384-.493-4.11-.877-3.466-.781-8.219-1.9-13.507-3.247s-10-2.74-13.411-3.7c-1.7-.507-3.082-.945-4.028-1.26a5.772,5.772,0,0,1-1.438-.562,7.545,7.545,0,0,1,1.52.3l4.11,1.041,13.452,3.479,13.452,3.452,4.11,1.11A7.3,7.3,0,0,1,309.068,111.037Z" transform="translate(-149.092 -54.474)"/><path class="c" d="M307.81,115.373a5.7,5.7,0,0,1-1.534-.219c-.973-.192-2.384-.493-4.11-.89-3.466-.781-8.219-1.9-13.521-3.247s-9.987-2.74-13.4-3.7c-1.7-.507-3.082-.932-4.028-1.247a6.518,6.518,0,0,1-1.37-.562,5.863,5.863,0,0,1,1.52.288l4.11,1.041,13.439,3.493,13.466,3.438,4.11,1.11A7.277,7.277,0,0,1,307.81,115.373Z" transform="translate(-149.532 -52.865)"/><path class="c" d="M302.573,118.423a16.208,16.208,0,0,1-3.288-.534c-2.014-.425-4.781-1.041-7.822-1.822s-5.754-1.63-7.726-2.219a14.688,14.688,0,0,1-3.137-1.137,17.2,17.2,0,0,1,3.274.644c2,.479,4.74,1.233,7.767,2.027s5.781,1.466,7.767,2.014A15.564,15.564,0,0,1,302.573,118.423Z" transform="translate(-145.555 -50.201)"/><path class="f" d="M250.667,232.321l-46.809,18.384A219.427,219.427,0,0,0,182.35,185.5l28.768-12.329a20.919,20.919,0,0,1,27.471,10.98q.257.6.475,1.212A228.752,228.752,0,0,1,250.667,232.321Z" transform="translate(-181.898 -28.466)"/><path class="c" d="M250.789,232.418a2.41,2.41,0,0,0-.11-.589c-.11-.384-.164-.973-.274-1.685-.247-1.48-.6-3.685-1.123-6.507a239.852,239.852,0,0,0-5.644-23.658c-.74-2.466-1.521-5.055-2.411-7.713s-1.781-5.48-2.959-8.219a20.54,20.54,0,0,0-5.48-7.329,21.4,21.4,0,0,0-8.713-4.343,20.55,20.55,0,0,0-10.192.288c-.863.219-1.671.589-2.507.877l-2.493,1.082L203.8,176.8l-21.165,9.11.178-.479c.37.74.767,1.548,1.178,2.356a229.154,229.154,0,0,1,13.247,32.878,211.471,211.471,0,0,1,7.055,30.138l-.384-.219,34-13.192,9.507-3.658,2.521-.945c.562-.219.877-.315.877-.315s-.26.137-.808.356l-2.438,1-9.411,3.726-34.042,13.521-.329.137v-.37a216.3,216.3,0,0,0-7.123-30.028,231.47,231.47,0,0,0-13.3-32.713l-1.164-2.356-.178-.342.356-.137,21.165-9.1,5.082-2.192,2.493-1.068c.877-.3,1.712-.671,2.589-.9a21.318,21.318,0,0,1,10.535-.26,21.92,21.92,0,0,1,8.959,4.493,20.927,20.927,0,0,1,5.644,7.575c1.206,2.822,2.041,5.617,2.945,8.288s1.644,5.26,2.37,7.726a224.534,224.534,0,0,1,5.48,23.754c.466,2.849.795,5.041.986,6.562.082.726.151,1.288.205,1.712A2.969,2.969,0,0,1,250.789,232.418Z" transform="translate(-182.02 -28.563)"/><path class="c" d="M204.49,172.5s6.986,14.329,6.37,14.836,17.343-6.7,17.562-6.849C228.477,180.526,219.134,168.06,204.49,172.5Z" transform="translate(-173.708 -28.439)"/><path class="c" d="M206.075,186.34a34.187,34.187,0,0,1-6.343,3.069,36.074,36.074,0,0,1-6.6,2.411,33.236,33.236,0,0,1,6.329-3.069A35.643,35.643,0,0,1,206.075,186.34Z" transform="translate(-177.91 -22.966)"/><path class="c" d="M228.773,184.842c.082.178-7.507,3.863-16.946,8.219s-17.165,7.74-17.247,7.562,7.507-3.849,16.946-8.219S228.691,184.664,228.773,184.842Z" transform="translate(-177.374 -23.523)"/><path class="c" d="M231.073,191c.082.178-7.507,3.849-16.946,8.219s-17.165,7.754-17.247,7.576,7.507-3.849,16.946-8.219S230.991,190.81,231.073,191Z" transform="translate(-176.523 -21.244)"/><path class="c" d="M233.423,197.111c.082.178-7.507,3.849-16.946,8.219s-17.165,7.74-17.247,7.562,7.507-3.849,16.946-8.219S233.341,196.961,233.423,197.111Z" transform="translate(-175.654 -18.983)"/><path class="c" d="M223.484,208.46a18.644,18.644,0,0,1-3.178,1.671c-2,.945-4.781,2.219-7.877,3.576-4.849,2.137-9.014,3.877-10.589,4.411l-.219.082v-.206c.11-.507.192-.74.233-.74a3.721,3.721,0,0,1,0,.781l-.164-.137c1.452-.795,5.48-2.74,10.4-4.836,3.1-1.37,5.918-2.562,7.973-3.4A16.951,16.951,0,0,1,223.484,208.46Z" transform="translate(-174.77 -14.784)"/><path class="g" d="M389.89,238.9l-51.96-22.466h0A43.454,43.454,0,0,0,350.4,199.6l15.165-36.412a21.779,21.779,0,0,1,16.3-12.809h0l48.193,20.877h0a28.166,28.166,0,0,0-11.713,13.178l-17.3,39.905A38.123,38.123,0,0,1,389.89,238.9Z" transform="translate(-124.349 -36.267)"/><path class="h" d="M389.89,238.9l-51.96-22.466h0A43.454,43.454,0,0,0,350.4,199.6l15.165-36.412a21.779,21.779,0,0,1,16.3-12.809h0l48.193,20.877h0a28.166,28.166,0,0,0-11.713,13.178l-17.3,39.905A38.123,38.123,0,0,1,389.89,238.9Z" transform="translate(-124.349 -36.267)"/><path class="c" d="M399.721,181.1c-.082.178-8.589-3.37-19.014-7.945s-18.809-8.411-18.727-8.589,8.589,3.37,19.014,7.945S399.8,180.918,399.721,181.1Z" transform="translate(-115.453 -31.024)"/><path class="c" d="M398.535,186.478c-.082.178-8.877-3.507-19.658-8.219s-19.439-8.7-19.357-8.877,8.877,3.493,19.644,8.219S398.535,186.3,398.535,186.478Z" transform="translate(-116.363 -29.241)"/><path class="c" d="M396.535,191.094c-.069.178-8.877-3.507-19.644-8.219s-19.439-8.685-19.37-8.863,8.877,3.493,19.658,8.219S396.535,190.9,396.535,191.094Z" transform="translate(-117.103 -27.528)"/><path class="c" d="M394.465,195.718c-.082.178-8.877-3.507-19.658-8.219s-19.439-8.685-19.357-8.877,8.877,3.507,19.644,8.219S394.561,195.581,394.465,195.718Z" transform="translate(-117.869 -25.823)"/><path class="c" d="M392.431,200.328c0,.192-8.877-3.493-19.645-8.219s-19.439-8.685-19.357-8.877,8.863,3.507,19.644,8.219S392.568,200.15,392.431,200.328Z" transform="translate(-118.616 -24.118)"/><path class="c" d="M371.661,196.727a13.677,13.677,0,0,1-3.069-1.069c-1.863-.74-4.411-1.808-7.206-3.041s-5.315-2.37-7.124-3.233a14.113,14.113,0,0,1-2.863-1.534,15.691,15.691,0,0,1,3.069,1.069c1.863.753,4.411,1.822,7.206,3.041s5.315,2.384,7.124,3.247A15.091,15.091,0,0,1,371.661,196.727Z" transform="translate(-119.367 -22.407)"/><path class="c" d="M378.847,207.268c-.069,0,.151-.493.274-1.37a5.924,5.924,0,0,0-.74-3.644,5.479,5.479,0,1,0-3.562,8.123A5.8,5.8,0,0,0,378,208.446c.575-.7.795-1.178.849-1.151a2.959,2.959,0,0,1-.63,1.37,5.711,5.711,0,0,1-3.274,2.247,6.055,6.055,0,0,1-5.671-1.438,6.137,6.137,0,0,1,4.644-10.589,6.042,6.042,0,0,1,4.9,3.192,5.8,5.8,0,0,1,.562,3.932A3.022,3.022,0,0,1,378.847,207.268Z" transform="translate(-113.47 -18.332)"/><rect class="c" width="2.37" height="16.439" transform="translate(248.71 128.589) rotate(-66.34)"/><path class="g" d="M369.057,269.951l-56.1-1.315,20.877-27.946h54.728Z" transform="translate(-133.585 -2.862)"/><path class="g" d="M319.04,262.325l44.371,1.356-6.165-9.069-8.726,3.74-6.9-11.932Z" transform="translate(-131.337 -0.742)"/><path class="g" d="M347.624,247.137a2.877,2.877,0,1,1-2.877-2.877,2.876,2.876,0,0,1,2.877,2.877Z" transform="translate(-122.892 -1.541)"/><g class="i" transform="translate(187.704 242.719)"><path class="f" d="M319.04,262.325l44.371,1.356-6.165-9.069-8.726,3.74-6.9-11.932Z" transform="translate(-319.04 -243.461)"/><path class="f" d="M347.624,247.137a2.877,2.877,0,1,1-2.877-2.877,2.876,2.876,0,0,1,2.877,2.877Z" transform="translate(-310.595 -244.26)"/></g><path class="g" d="M256.51,152.678,207.1,174.624l-1.178-37.645,49.357-23.329Z" transform="translate(-173.179 -49.854)"/><path class="h" d="M256.51,152.678,207.1,174.624l-1.178-37.645,49.357-23.329Z" transform="translate(-173.179 -49.854)"/><path class="g" d="M208.38,161.261l44.837-20.9-14.576-8.466-5.6,9.863-16.453-7.9Z" transform="translate(-172.269 -43.107)"/><path class="g" d="M228.229,132.545a2.425,2.425,0,1,1-2.425-2.425h.014a2.411,2.411,0,0,1,2.411,2.411Z" transform="translate(-166.721 -43.762)"/><path class="c" d="M229.119,134.782a33.892,33.892,0,0,0-.671-4.11A17.127,17.127,0,0,0,222.2,121.4a16.876,16.876,0,0,0-15.932-2.356,15.812,15.812,0,0,0-4.247,2.288,16,16,0,0,0-3.548,3.575,16.756,16.756,0,0,0,0,19.822,16,16,0,0,0,3.548,3.575,15.809,15.809,0,0,0,4.247,2.288,16.965,16.965,0,0,0,8.822.753,16.794,16.794,0,0,0,7.11-3.123,17.1,17.1,0,0,0,6.247-9.261,33.351,33.351,0,0,0,.671-4.11,8.606,8.606,0,0,1,0,1.1,8.181,8.181,0,0,1-.1,1.37,11.407,11.407,0,0,1-.329,1.795,16.9,16.9,0,0,1-22.576,12.014,17.426,17.426,0,0,1-8.137-26.727,16.682,16.682,0,0,1,3.712-3.7,16.446,16.446,0,0,1,4.425-2.356,17.248,17.248,0,0,1,16.439,2.644,17,17,0,0,1,6.206,9.589,11.079,11.079,0,0,1,.329,1.795,14.18,14.18,0,0,1,.082,2.411Z" transform="translate(-177.378 -48.492)"/><path class="c" d="M205.233,139.311c.137.151-4.932,4.849-11.3,10.493s-11.658,10.11-11.781,9.973,4.932-4.849,11.3-10.507S205.124,139.16,205.233,139.311Z" transform="translate(-181.973 -40.363)"/></g></g><g transform="translate(2082 -35.832)"><path class="j" d="M245.829,383.69l-14.877,11.329-3.335-3.347a67.993,67.993,0,0,1-14.658-22.511,208.363,208.363,0,0,1-96.813,0,68,68,0,0,1-14.658,22.511l-3.335,3.347L83.276,383.69,64.295,395.755l-2.162-5.811A470.766,470.766,0,0,1,28.384,218.061c0-28.322,5.35-62.934,15.9-102.989C28.2,98.851,22.7,80.092,16.914,60.23l-2.822-9.416a262.142,262.142,0,0,0-9.6-26.078L2,19.255l5.68-1.839A98.6,98.6,0,0,1,38.2,12.34,89.558,89.558,0,0,1,99,36.432,195.892,195.892,0,0,1,164.7,25.4a196.256,196.256,0,0,1,65.739,11.035A89.338,89.338,0,0,1,291.194,12.34a98.309,98.309,0,0,1,30.525,5.076l5.68,1.839-2.418,5.481a246.65,246.65,0,0,0-9.637,26.078c-.953,3.2-1.905,6.363-2.785,9.453-5.826,19.825-11.323,38.621-27.373,54.842,10.553,39.614,15.867,74.226,15.867,102.989a472.059,472.059,0,0,1-33.676,171.845l-2.565,5.664Z" transform="translate(5.403 -6.936)"/><path class="k" d="M328.911,16.215a103.742,103.742,0,0,0-32.224-5.335A95.119,95.119,0,0,0,234.622,34.2a207.93,207.93,0,0,0-129.042,0A95.119,95.119,0,0,0,43.552,10.88a103.926,103.926,0,0,0-32.187,5.335L0,19.893,4.912,30.93A254.432,254.432,0,0,1,14.3,56.352c.953,3.127,1.87,6.291,2.786,9.381,5.756,19.609,11.218,38.261,26.578,54.853-10.155,39.255-15.324,73.359-15.324,101.429a467.636,467.636,0,0,0,34.24,174.236l5.059,11.4,10.485-6.7,10.631-6.733,8.138,6.217,7.515,5.739,6.635-6.733A77.961,77.961,0,0,0,125.01,379.4a213.683,213.683,0,0,0,90.256,0,77.964,77.964,0,0,0,13.967,20.05l6.635,6.733,7.332-5.739,8.138-6.217,10.631,6.733,10.485,6.7,5.059-11.4a467.636,467.636,0,0,0,34.24-174.236c0-28.475-5.132-62.542-15.324-101.429,15.36-16.592,20.823-35.244,26.578-54.853.917-3.09,1.833-6.254,2.786-9.381a254.425,254.425,0,0,1,9.385-25.5l4.912-11.037Zm-22,49.96c-4.656,16.408-8.322,29.763-19.5,42.161-6.269-22.074-12.244-39.107-14.407-45.067,2.053-3.5,8.468-12.214,24.672-19.866l-4.4-9.749C268.129,45.536,262.52,60.509,262.3,61.135l-.66,1.876.7,1.839c.33.92,33.654,90.392,33.654,158.416a467.067,467.067,0,0,1-30.428,161.875L250.9,375.833,237.775,385.84a51.8,51.8,0,0,1-8.615-14.2c4.546-1.361,9.055-2.8,13.491-4.415l-3.666-10.117a198.549,198.549,0,0,1-137.327,0l-3.666,10.117c4.436,1.619,8.945,3.053,13.491,4.415a51.793,51.793,0,0,1-8.835,14.2L89.56,375.833,74.9,385.141A466.438,466.438,0,0,1,44.468,223.267c0-68.024,33.324-157.5,33.654-158.416l.7-1.839-.66-1.876c-.22-.625-5.792-15.6-30.977-27.482L42.6,43.4c16.24,7.689,22.656,16.408,24.672,19.866-2.163,5.96-8.1,22.81-14.407,45.067C41.682,95.9,38.016,82.583,33.507,66.175c-1.173-4.268-2.42-8.719-3.666-13.318C26.945,43.88,23.975,36.118,22,31.188A78.152,78.152,0,0,1,98.981,51.422l2.42,2.8,3.483-1.324a185.789,185.789,0,0,1,65.254-11.478,186.154,186.154,0,0,1,65.291,11.478l3.446,1.324,2.456-2.8a79.1,79.1,0,0,1,76.985-20.234c-1.98,4.93-4.912,12.692-7.7,21.669-1.43,4.6-2.676,9.05-3.849,13.318Z" transform="translate(0 -10.88)"/><path class="l" d="M78.657,71.81,67.886,73.217c2.628,19.95,3.923,35.2,4.553,43.786l-14.99-4.775-11.1,11.918c-4.4-7.958-12.362-23.1-21.5-43.676l-9.92,4.4a522.27,522.27,0,0,0,25.687,51.152l3.7,6.181,16.36-17.544,23.392,7.4-.333-7.736C83.727,123.554,82.839,103.863,78.657,71.81Z" transform="translate(39.643 152.058)"/><path class="l" d="M37.479,56.631a11.955,11.955,0,1,0-11.918-11.77A11.955,11.955,0,0,0,37.479,56.631Z" transform="translate(68.074 47.597)"/><path class="l" d="M72.591,56.63a11.955,11.955,0,1,0-11.77-11.77A11.955,11.955,0,0,0,72.591,56.63Z" transform="translate(161.983 47.598)"/><path class="l" d="M85.774,112.228,70.969,117c.592-8.587,1.925-23.837,4.553-43.787L64.751,71.81c-4.219,32.053-5.071,51.818-5.108,52.559L59.31,132.1,82.7,124.7l16.175,17.507,3.7-6.181a502.736,502.736,0,0,0,25.687-51.152l-9.882-4.4c-9.142,20.579-17.137,35.718-21.5,43.86Z" transform="translate(157.592 152.058)"/><path class="m" d="M80.552,101.679c11.881,0,35.125-13.473,44.416-33.9s-10.66-26.723-18.507-28.167A197.061,197.061,0,0,0,80.552,37.72a197.059,197.059,0,0,0-25.909,1.888c-7.884,1.444-27.649,7.81-18.507,28.167S68.671,101.679,80.552,101.679Z" transform="translate(89.586 60.909)"/><path class="l" d="M134.1,52.516c-5.33-10.1-17.988-13.436-23.059-14.324a202.054,202.054,0,0,0-26.76-1.962,201.94,201.94,0,0,0-26.687,1.962c-5.145.888-17.729,4.22-22.911,14.324a23.5,23.5,0,0,0,.555,21.394c10.29,22.985,35.607,37.013,49.227,37.013s38.938-14.1,49.227-37.013A23.5,23.5,0,0,0,134.1,52.516ZM123.515,69.468c-8.55,19.025-30.314,30.684-39.345,30.684S53.375,88.493,44.825,69.468a13.621,13.621,0,0,1-.7-11.881c2.554-4.812,9.623-7.662,15.434-8.735a191.5,191.5,0,0,1,24.725-1.777,191.612,191.612,0,0,1,24.8,1.777c5.811,1.073,12.881,3.923,15.434,8.735A13.473,13.473,0,0,1,123.515,69.468Z" transform="translate(85.818 56.901)"/><path class="l" d="M56.9,40.891a9.179,9.179,0,0,0-9.253,8.291V54.03a9.29,9.29,0,0,0,18.507,0V49.182A9.179,9.179,0,0,0,56.9,40.891Z" transform="translate(126.938 69.477)"/><path class="l" d="M48.092,40.89a7.4,7.4,0,0,0-7.4,8.291V54.03a7.4,7.4,0,1,0,14.805,0V49.181a7.4,7.4,0,0,0-7.4-8.291Z" transform="translate(108.268 69.479)"/></g></g></svg>