<svg xmlns="http://www.w3.org/2000/svg" xmlns:xlink="http://www.w3.org/1999/xlink" width="941.464" height="662.503" viewBox="0 0 941.464 662.503"><defs><style>.a{opacity:0.3;}.b{fill:url(#a);}.c{fill:url(#b);}.d{fill:url(#c);}.e{fill:url(#d);}.f{fill:url(#e);}.g{fill:url(#f);}.h{opacity:0.51;}.i{fill:#1eea00;}.j{fill:#fbb040;}.k{fill:#004b40;}.l{opacity:0.34;}.m{opacity:0.72;}.n{fill:url(#o);}.o{fill:#afff6a;}.p{filter:url(#p);}.q{filter:url(#m);}.r{filter:url(#k);}.s{filter:url(#i);}.t{filter:url(#g);}</style><linearGradient id="a" x1="0.5" y1="19.944" x2="0.5" y2="-1.019" gradientUnits="objectBoundingBox"><stop offset="0" stop-color="#fff"/><stop offset="0.147" stop-color="#fbfcfc" stop-opacity="0.988"/><stop offset="0.275" stop-color="#f1f5f6" stop-opacity="0.945"/><stop offset="0.397" stop-color="#e0e8eb" stop-opacity="0.875"/><stop offset="0.514" stop-color="#c8d7db" stop-opacity="0.776"/><stop offset="0.629" stop-color="#a9c1c7" stop-opacity="0.647"/><stop offset="0.741" stop-color="#83a5ae" stop-opacity="0.49"/><stop offset="0.851" stop-color="#578590" stop-opacity="0.302"/><stop offset="0.957" stop-color="#24606f" stop-opacity="0.094"/><stop offset="1" stop-color="#0e5061" stop-opacity="0"/></linearGradient><linearGradient id="b" x1="0.5" y1="13.335" x2="0.5" y2="-0.184" xlink:href="#a"/><linearGradient id="c" x1="0.5" y1="6.379" x2="0.5" y2="-6.461" xlink:href="#a"/><linearGradient id="d" x1="0.5" y1="32.55" x2="0.5" y2="0.298" xlink:href="#a"/><linearGradient id="e" x1="0.5" y1="698.091" x2="0.5" y2="-1337.519" xlink:href="#a"/><linearGradient id="f" x1="0.5" y1="0.989" x2="0.5" y2="-0.006" xlink:href="#a"/><filter id="g" x="225.656" y="84.767" width="99.737" height="128.881" filterUnits="userSpaceOnUse"><feOffset dy="4" input="SourceAlpha"/><feGaussianBlur stdDeviation="10" result="h"/><feFlood flood-opacity="0.639"/><feComposite operator="in" in2="h"/><feComposite in="SourceGraphic"/></filter><filter id="i" x="445.545" y="0" width="83.664" height="101.021" filterUnits="userSpaceOnUse"><feOffset dy="4" input="SourceAlpha"/><feGaussianBlur stdDeviation="10" result="j"/><feFlood flood-opacity="0.639"/><feComposite operator="in" in2="j"/><feComposite in="SourceGraphic"/></filter><filter id="k" x="741.804" y="123.872" width="110.418" height="147.397" filterUnits="userSpaceOnUse"><feOffset dy="4" input="SourceAlpha"/><feGaussianBlur stdDeviation="10" result="l"/><feFlood flood-opacity="0.639"/><feComposite operator="in" in2="l"/><feComposite in="SourceGraphic"/></filter><filter id="m" x="228.397" y="315.869" width="225.355" height="346.634" filterUnits="userSpaceOnUse"><feOffset dy="4" input="SourceAlpha"/><feGaussianBlur stdDeviation="10" result="n"/><feFlood flood-opacity="0.639"/><feComposite operator="in" in2="n"/><feComposite in="SourceGraphic"/></filter><linearGradient id="o" x1="0.5" y1="0.328" x2="0.5" y2="0.942" gradientUnits="objectBoundingBox"><stop offset="0.279" stop-color="#1eeb00"/><stop offset="0.506" stop-color="#1ee700"/><stop offset="0.729" stop-color="#1edb00"/><stop offset="0.95" stop-color="#1ec700"/><stop offset="1" stop-color="#1ec200"/></linearGradient><filter id="p" x="350.753" y="252.68" width="348.371" height="403.685" filterUnits="userSpaceOnUse"><feOffset dy="3" input="SourceAlpha"/><feGaussianBlur stdDeviation="5" result="q"/><feFlood flood-opacity="0.349"/><feComposite operator="in" in2="q"/><feComposite in="SourceGraphic"/></filter></defs><g transform="translate(0.18 22.435)"><g transform="translate(0 0)"><g class="a"><path class="b" d="M329.448,235.709l2.164.06a7.675,7.675,0,0,0,3.414-5.154l2.9-15.506,15.4.024.192-1.27-17.291-.029-3.205,16.778C332.443,233.621,329.47,235.695,329.448,235.709Z" transform="translate(50.619 -187.249)"/><path class="c" d="M472.937,238.966l-12.144-33.989-1.858.025,12,33.987Z" transform="translate(156.024 -194.459)"/><path class="d" d="M203.467,345.388l8.7-16.317-2.929.023-8.3,15.412-10.045,1.4-8.435,18.978,3.151-.082,7.916-18.029Z" transform="translate(-69.033 -93.444)"/><path class="e" d="M279.921,209.933l5.207,1.415,60.573,2.088.908-2.539-59.473-2.006-4.48-1.195-16.289-8.517-2.925,2.166Z" transform="translate(-3.111 -199.179)"/><path class="f" d="M242.321,368.1l-.487-.034,1.159.226Z" transform="translate(-20.701 -61.697)"/><path class="g" d="M1005.31,566.116l-10.474-17.289,66.56.1-1.863-2.574-66.254-.1-26.392-43.566c9.85-.189,37.659.236,61.994.686l-2.413-3.438c-23.824-.439-51.032-.853-61.66-.68l-10.191-16.82,44.473-1.58,14.068-.04-.887-1.282-14.227.038-44.2,1.575L938.723,456.2l-7.929-14.478-29.549-54.49,36.618-2.024a15.09,15.09,0,0,0,.252,2.679c.621,3.341,6.5,11.673,6.752,12.029l13.224,18.167,2.808-.042-13.31-18.165c-.022-.033-.958-1.352-2.121-3.127l36.946,2.356-.566-1.274-37.269-2.462c-1.618-2.563-3.349-5.576-3.663-7.211a17.146,17.146,0,0,1-.254-3.764,12.459,12.459,0,0,0-.492-4.243c-.689-2.2-2.922-7.207-4.083-9.772l3.717-.018-2.179-3.427-49.278.261-8.588-12.945,49.673-.287-2.152-3.427-49.791.294-.257-.388-14.842-24.78,49.224-.374-2.1-3.427-49.173.381-9.31-15.541,49.042-.348-2.068-3.425-22.354.161-10.85-17.36,14.824-.669,19.593.056-.791-1.283-19.635-.056-17.609.8-22.855.923-4.032-6.73,40.85-1.154,25.293-.385L898.3,273.81l-25.351.388-40.7,1.163-.357-.6-18.322-33.7,22.3-.292c1.039,2.309,2.522,4.847,4.479,6.2a28.535,28.535,0,0,1,2.266,1.845,54.369,54.369,0,0,0,14.536,9.2c10.4,4.615,27.889,10.316,28.633,10.556l1.408-2.846c-.178-.06-17.658-5.769-27.548-10.164a46.559,46.559,0,0,1-12.616-7.994,34.607,34.607,0,0,0-2.886-2.307c-1.378-.943-3.358-5.068-4.352-8.323l-.042-.129L821.729,203.17l-4.936.029L834.3,236.573c.21.689.6,1.87,1.143,3.2l-22.41.294-17.4-32-4.06,0,16.938,32.065-29.311.426-15.773-34.08-1.845.058L777.2,240.589,601.38,243.145c-.421-17.44-.749-29.465-.876-33.824l-2.4,0c.085,4.219.3,16.308.559,33.861l-23.971.35-.829-23.789-33.726.785.959-11.991-2.391.014L535.534,244.1l-10.844.156,3.187-41.1-1.856.06-3.359,41.073-98.309,1.422,5.56-26.347,94.7-.272.149-1.27-157.935.459-.591,1.266,20.569-.058-20.99,53.349-19.145-.2-1.273,2.532,19.421.209-25.338,64.4.744-.069c-.506.239-.961.459-1.288.613-2.748,1.308-10.931,3.584-13.866,4.354l-38.795,12.5,8.854-15.3,21.11-16.711L320.2,319l-1.642-.043-4.312,6.792-21.465,16.892-9,15.343-2.108.678,1.072,1.088-4.813,8.207L244.8,428.482l-3.371-.27-1.067,1.043c36.233,2.894,48.906,3.791,53.661,3.813a15.99,15.99,0,0,0,2.217-.1c.92-.134,2.933-.276,5.983-.423l2.17-.1-47.275,86.473-61.57-.165,7.86-12.631-3.322,0L191.365,520l65.058.176-1.952,3.574-16.849,26.613c-3.155.254-6.881.637-10.739,1.034-5.464.562-11.118,1.143-13.322,1.128-2.532-.016-10.331.219-19.367.491-10.61.317-22.65.679-27.04.65-6.881-.045-9.3-1.838-10.784-4.515-1.121-2.045,4.551-8.062,6.813-10.209l-3.352-.174c-.352.33-8.589,8.1-7.075,10.884,1.495,2.7,4.183,5.214,13.513,5.277,4.588.029,16.751-.334,27.472-.655,8.58-.256,16.676-.5,19.026-.484,2.786.018,8.223-.539,14.5-1.185,3.084-.318,6.541-.675,9.522-.93l-9.027,14.256c-11.57,1.114-22.1,2.166-25.291,2.6-8.261,1.125-27.6,4.947-35.892,6.842-4.241.965-12.6,3.6-21.522,6.394-9.453,2.935-20.259,6.26-25.128,7.258l1.507,1.025c1.56-.319,3.583-.831,5.9-1.464l16.674,2.146-7.808,22.9.245-.009-1.417,1.966a304.927,304.927,0,0,1,34-2.3c2.313.016,5.585.1,9.348.187,8.368.2,18.371.441,26.481.267l-16.451,43.06,7.585.058,15.972-43.391c6.926-.319,18.65-.6,29.108-.856,8.069-.2,15.031-.365,18.472-.521,2.453-.112,7.312-.071,12.453-.029,7.643.064,15.96.131,22.632-.178l-10.523,43.542,8.426-.121,10.131-44.139c.129-.022.27-.04.4-.06,2.217-.388,5.291-.9,8.764-1.468,10.382-1.723,23.23-3.866,29.621-5.469,1.736-.443,3.962-.923,6.534-1.486,9.054-1.979,21.366-4.693,26.84-8.762,3.311-2.476,8.577-4.265,14.639-6.342a131.31,131.31,0,0,0,14.861-5.821c10.784-5.315,22.634-12.841,23.016-13.092l16.332-9.393.332-.247c4.005-3.964,9.226-8.667,10.578-9.288,2.186-.706,9.38-1.381,24.81-2.324,7.145-.441,15.72-.831,23.544-1.144,2.327,10.53,9.027,16.9,14.093,21.663l1.4,1.31a19.276,19.276,0,0,1,5.9,10.941l.278,0-5.15,42.74-9.242,15.006A193.444,193.444,0,0,1,499.5,656.26c-2.8,3.971-3.164,6.169-3.2,8.687l7.686-.062c0-2.536.346-4.9,3.176-8.987a192.46,192.46,0,0,0,10.427-18.257l8.646-14.369,22.423-.4,0,.015c-.136,1.527,6.367,7.835,8.336,9.676l16.228,17.453,7.949-.7L564.7,631.806c-3.913-3.646-8.083-8.071-8.08-8.86.005-.065.029-.147.04-.218l42.078-.757,17.781-.361,1.326,26.659,7.43.042-1.707-26.842,26.461-.537,48.576-.778,70.07-1.326,59.763.018,95.494.847s23.72.036,26.8.06c3.22.022,17.112-.394,18.686-.443.624-.018,15.37-.466,19.323-.737,3.3-.221,10.708-1.126,13.719-1.5l22.693,2.4.288.506,5.388,8.713q6.011.114,12.036.263l-5.17-8.072Zm3.806,25.208-93.227,1.495-6.2-14.563,2.413,0c.129,0,12.889.232,21.108.57,6.112.249,23.88,1.388,38.2,2.306,5.272.334,10.233.651,14.285.9l-.265-2.527c-4.027-.252-8.958-.568-14.191-.9-15.134-.971-32.241-2.073-38.59-2.331-8.437-.346-21-.575-21.739-.586l-2.3,0-6.088-14.548,89.945,1.036,1.752,2.995Zm-168.008-2.612L737.54,591.959l-2.253,5.654-41.735.5-2.008-17.826c11.028-.374,24.257-.59,29.242-.662,6.583-.1,40.335-.82,41.6-.847l74.613-.392ZM374.436,498.264l99.171-12.3,33.144-.64-1.861,14.4c-.074.566-.232,1.789-.435,3.465l-121.1,3.61Zm9.431-67.444-1.886.007c-20.382.08-33.251.12-41.316.136l9.935-21.581,42.5.452-.3.827-7.641,19.5,2.9.023,7.543-19.508,11.927-33.51,30.532-.437,13.8-.245c-.254,1.8-1.02,7-1.979,11.18-.767,3.345-1.482,9.34,2.389,11.933,3.022,2.008,12.089,4.513,12.475,4.62l1.605-1.112c-.091-.022-9.007-2.489-11.746-4.307-2.511-1.676-3.242-5.738-2.026-11.147.936-4.189,1.678-9.384,1.93-11.212l66.816-1.183c-3.608,5.878-12.593,9.1-17.322,10.784l-2.669.938c-8.511,2.977-17.353,6.053-21.834,8.894-3.6,2.26-10.739,6.405-15.026,8.881-1.714.989-3.2,1.841-3.394,1.966l-31.005,21.249,3.494.475,31.657-21.832c.054-.038.53-.316,1.33-.775,3.169-1.83,12.763-7.4,16.9-10,4.6-2.931,13.683-6.558,23.118-9.237,18.311-5.279,19.956-16.985,19.971-17.1l.036-.3.207-.254a17.1,17.1,0,0,0,.248-1.772l15.1-.27-3.438,4.669-12.7,10.518c-.385.247-9.511,6.019-13.322,8.94-3.178,2.413-12.221,5.328-16.6,6.728-.7.225-1.3.415-1.752.562-3.374,1.11-9.057,4.176-19.771,10.581-4.987,2.933-8.041,4.475-10.28,5.6a41.348,41.348,0,0,0-6.006,3.421c-3.47,2.424-3.557,3.423-3.732,5.224-.038.41-.08.871-.172,1.408a22.27,22.27,0,0,0-.065,5.079c-15.728-.782-34.855-1.674-36.1-1.776l-1.743,3.32c.5.042,51.239,2.444,55.937,2.884a54.724,54.724,0,0,0,5.763.134l-12.84,51.518-92.058,11.423-7.76-7.423-11.927-4.6-1.353.537c2.425-12.452,6.213-33.839,8.141-44.812.64-3.659,1.127-6.441,1.373-7.809l.207-1.161,20.745-.076,32.839-1.772.562-.853Zm4.1-158.085c2.852-.336,5.535-.606,6.688-.6,2.019.005,15.118-.167,20.789-.243l-7.63,25.079-2.627,18.289-34.729.174c1.536-1.716,4.149-4.635,4.983-5.562.713-.793,1.865-3.454,3.541-7.434.909-2.169,1.771-4.223,2.181-4.891a6.866,6.866,0,0,0,.4-.8,83.116,83.116,0,0,0,2.627-8.268c.392-3.875,1.261-10.052,1.961-11.229C386.311,276.977,386.973,275.321,387.963,272.736Zm113.206,10.752-1.257,17.081-46.423.189-.337,1.27,46.668-.187-.927,12.6-24.939.386-52.044.35-14.365.071,2.541-18.349,7.2-24.01.613,0-.007.053c4.936-.352,11.037-.55,12.178-.31,1.883.626,4.074,1.814,4.715,3.055a10.86,10.86,0,0,1,.553,1.449c.7,2.064,1.591,4.637,4.927,5.712,2.529.813,7.864,1.237,15.849,1.259.448,0,.927-.013,1.834-.038C460.914,283.986,469.326,283.754,501.169,283.487Zm11.893-.091c6.365-.047,12.546-.1,18.49-.161L529.042,307.8c-.154,1.888-.314,3.962-.481,6.175l-27.325.423,2.137-30.931C506.4,283.446,509.613,283.42,513.062,283.4Zm23.383-19.659,20.411-1.134,15.158-.6-.673,17.308c-10.329.167-22.683.345-36.382.493Zm226.592,15.993,9.819,24.484-86.159.706-30.682.1.161,6.645-53.3.97c-.2-10.735-.408-20.952-.611-30.5,1.19-.025,1.836-.042,1.881-.042l82.786-1.506ZM599.479,312.693l-31.413.571.005-.058.553-30.452c14.05-.221,24.718-.435,30.543-.561C599.275,291.758,599.382,301.974,599.479,312.693Zm45.639,15.664,1.342,14.162c-5.061.12-24.58.6-28.636.876-3.2.225-9.9,2.327-14.342,3.819-.1-6.287-.207-12.475-.314-18.53Zm11.265,46.512-.232-.022c-.76,2.743-2.784,5.837-4.722,6.052-1.76.192-4.99.238-8.414.288-4.014.058-8.169.12-11.124.417-5.262.526-15.187.711-19.328.695a74.917,74.917,0,0,0-8.5.689c-.123-5.272-.223-11.02-.3-17.177l50.918-.548ZM608.5,437.525l.093.256c.214.581.372,1.02.441,1.261l.078.278-.007.025,2.275,5.15-9.841.131-15.709-.762-55.809,2.649-16.422-.085-20.667-.562-.122.394-1.417-7.4,1.77-5.379c2.151-.125,4.238-.243,6.113-.328,3.8-.172,54.072-.368,107.583-.528C607.438,434.568,608.079,436.357,608.5,437.525Zm244.763,36.89c.131.21,13.068,21.015,13.75,22.57.138.314.582,1.694.847,2.61-2.148-.185-4.345-.37-6.667-.557-16.48-1.312-57.564-4.325-74.585-5.52-8.575-.6-15.953-.863-23.764-1.141-6.447-.227-13.1-.464-20.758-.912L727.75,444.878l15.387-.051L842.857,444Zm36.7,16.787a15.672,15.672,0,0,1,2.373-2.69c.6-.606,1.217-1.246,1.811-1.9l55.623,2.6,6.01,10.273c-12.154.339-25.663.826-37.884,1.264-4.468.161-8.754.317-12.723.453-4.911.171-9.317.163-13.538.036C890.755,497.68,889.345,492.521,889.967,491.2ZM830.476,544.4c7.013.267,35.018,1.326,39.328,1.355,3.334.022,13.892.316,19.412.473L901.227,575.7l-57.878.087Zm-317.6-66.051c7.945-.332,26.831-.929,44.326-.058,5.535.276,13.028.591,21.5.949,11.728.492,25.32,1.063,38.109,1.709l-.172,11.349-20.043.633-12.526,2.217-12.383.811-61.024,1.321ZM687.3,487.471c3.184.319,6.284.633,9.346.958l2.975,20.1-77.638-.475.073-26.835c15.3.816,28.837,1.743,35.738,2.783C668.087,485.541,677.842,486.52,687.3,487.471ZM621.925,529.8l.056-20.48,51.125.312,6.326,30.887-.183,0-51.631-.051-5.509.06Zm57.846-20.127,23.341.143L699.9,488.782c3.1.345,6.157.706,9.19,1.116a78.161,78.161,0,0,1,11.457,2.2,67.975,67.975,0,0,0,13.767,2.237l14.1,48.055c-.929,0-1.615-.005-1.979-.009-1.047-.006-7.149-.308-12.524-.573-10.166-.5-21.665-1.072-26.089-1.1l-21.376-.14Zm129.012-11.187,4.793,15.118-32.417.172-5.857-12.09-30,.223-2.151-6.993c7.338.41,13.741.637,19.96.856,7.646.268,14.88.522,23.107,1.1C791.754,497.263,799.836,497.842,808.782,498.491Zm-51.016,43.927L745.7,503.191l26.936-.2,5.8,12.085,35.548-.19,8.555,26.984c-9.217.151-27.089.446-31.37.521C787.328,542.463,769.8,542.443,757.767,542.418Zm138.591,4,88.229,2.291,7.127,12.177-89.731-1.032Zm33.763-1.66-20.7-40.2c3.534-.125,7.278-.257,11.183-.4,12-.432,25.246-.9,37.193-1.239l25.289,43.216Zm-23.945-40.108,20.39,40.016-31.281-.814-16.745-40A251.805,251.805,0,0,0,906.176,504.653Zm-34.454-1.366,16.45,40.369c-5.627-.163-15.969-.45-19.452-.472-3.624-.024-28.711-.961-39.2-1.362l-14.053-42.845c17.043,1.244,35.653,2.628,45.488,3.409,3.151.25,6.117.5,8.965.749C870.53,503.188,871.12,503.238,871.722,503.287ZM719.808,444.9l13.471,45.92a44.453,44.453,0,0,1-8.4-1.5,96.255,96.255,0,0,0-13.665-2.643c-3.949-.537-7.878-.992-11.855-1.422L693.2,444.99Zm-29.589.1,5.908,39.918c-2.406-.25-4.831-.5-7.305-.747-6.774-.682-13.707-1.384-20.805-2.295l-4.069-36.79Zm-29.249.12,3.826,36.313c-1.462-.2-2.915-.39-4.39-.611-7.646-1.157-22.186-2.159-38.339-3.019l.054-20.152-5.4-11.956Zm-43.814,12.451,0,.208-.3,19.753c-12.6-.639-25.819-1.194-37.276-1.678-8.357-.354-15.753-.666-21.213-.938-17.776-.891-36.395-.343-45.095.014l1.526-13.041-5.016,0-2.864,22.155-33.432.647-4.907.61,12.488-51.2c2.814-.1,5.939-.276,9.172-.462l-1.785,5.257,1.818,9.95,10.98,11.561,2.855-.533-10.851-11.307-.272-1.43,20.346.551,16.722.085,55.776-2.652,15.624.766,10.489-.136ZM502.1,423.156l56.153-1.558,28.4-1.33,14.851-.109c.658,5.591,1.473,8.022,2.378,9.068-50.9.158-100.78.357-104.907.548-1.455.067-3.037.154-4.673.248l.022-.067C495.021,429.35,498.735,426.075,502.1,423.156Zm108.185,6.052a3.537,3.537,0,0,0-1.337-.4L607.9,428.7l-.446-.816c-.726-1.963-1.346-5.961-1.867-11.882l41.325-1.335,13.632-.5,7.4.034,2.378,14.84C652.628,429.088,631.536,429.145,610.283,429.208Zm-8.923-10.322-14.88.112-28.4,1.33-54.464,1.518c1.7-1.466,3.153-2.7,3.837-3.223.849-.66,2.268-1.906,3.828-3.287.64-.568,1.315-1.168,1.99-1.765.454.009,7.269.14,13.578-.281,2.977-.2,6.9-.637,10.685-1.061,4.307-.484,8.756-.985,11.483-1.09,5.816-.223,17.576-3.839,20.566-5.05,3.987-1.622,4.725-6.313,4.834-8.705.014-.372.016-.689.013-.931-.049-3.579-2.512-8.092-3.245-9.359a40.807,40.807,0,0,0,5.074-.37,38.6,38.6,0,0,1,4.316-.348c5.348-.2,12.714-.62,16.246-1.083.571-.076,1.3-.176,2.128-.294.312-.042.664-.091,1-.14C600.168,401.7,600.667,412.272,601.36,418.886Zm-29.668-22.409c.027,4.21-1.54,7.688-3.942,8.664-3.258,1.321-14.32,4.553-18.888,4.729-2.948.112-7.3.6-11.9,1.123-3.713.417-7.559.849-10.391,1.039-4.6.307-9.642.3-11.864.285a30.606,30.606,0,0,1,3.6-2.83c2.385-1.357,9.068-7.875,11.811-11.093,2.975-3.53,8.947-11.947,10.222-14.886.241-.561.455-1.117.664-1.656.794-2.068,1.54-4.022,3.234-4.588a20.954,20.954,0,0,0,1.948-.807,11.127,11.127,0,0,1,4.5-1.339,5.564,5.564,0,0,1,2.676.844,14.9,14.9,0,0,1,5.179,5.6c.689,1.127,1.019,1.638,1.6,1.93a3.9,3.9,0,0,1,.566.537c.974,1.036,2.786,2.877,7.936,3.053l-.25.036C568.424,387.175,571.655,392.537,571.691,396.478Zm26.478-12.7c-.811.111-1.524.212-2.083.285-3.207.423-10.327.844-15.7,1.043a44.729,44.729,0,0,0-4.822.388,40.8,40.8,0,0,1-5.863.354c-4.261.056-5.585-1.339-6.549-2.358a3.751,3.751,0,0,0-1.029-.869,6.861,6.861,0,0,1-1.027-1.444,16.07,16.07,0,0,0-5.68-6.041,9.241,9.241,0,0,0-4.522-1.288,14.474,14.474,0,0,0-6.472,1.7c-.588.265-1.134.515-1.634.684-2.641.882-3.458,2.995-4.406,5.44-.21.532-.423,1.081-.664,1.631-1.223,2.792-7.2,11.193-10.155,14.677-2.892,3.376-9.422,9.616-11.414,10.75a64.887,64.887,0,0,0-7.379,6.09c-1.537,1.353-2.928,2.574-3.768,3.223-.809.622-2.61,2.152-4.635,3.895l-.97.027-.011.82c-3.586,3.1-7.483,6.532-7.757,6.768l-.216.639-.12.007c-6.151.359-13.819.809-16.633.544-1.662-.158-8.771-.535-17.415-.967a22.593,22.593,0,0,1,0-5.263c.091-.553.134-1.027.172-1.451.152-1.671.212-2.438,3.22-4.544a38.375,38.375,0,0,1,5.669-3.229c2.271-1.141,5.368-2.7,10.422-5.681,10.353-6.2,16.016-9.271,19.073-10.275.443-.147,1.027-.332,1.714-.551,4.9-1.567,13.952-4.483,17.453-7.146,3.726-2.863,13.045-8.765,13.224-8.887l12.86-10.688,3.831-5.212,54.949-.987q.008,9.779.1,17.669Zm-159.562-9.585-30.135.435,2.512-6.311,22.247-.392,39.08-.294-1.125,5.979Zm-12.292-55.669,46.981-.31,8.918-.138-3.779,18.157-34.973.8-.256,1.268,34.964-.795-1.95,9.373-3.269,17.367-38.9.3-21.721.383Zm102-1.152q-.131,1.755-.265,3.592c-.343,4.618-.715,9.553-1.123,14.558l-32.487.347-13.545.306,3.688-18.135Zm-2.5,30.72-47.253-.341.163-.887,1.914-9.418,13.647-.308,32.54-.345C526.506,340.564,526.17,344.362,525.807,348.092Zm5.863-30.778,33.714-.606L563.5,335.447c-2-.047-3.325-.094-3.681-.14a90,90,0,0,0-9.2-.582l-20.39.756C530.767,329.056,531.264,322.685,531.67,317.314Zm-56.759,50.3,47.5-.359,1.081-.02c-.243,1.576-.5,3.1-.76,4.533A10.276,10.276,0,0,1,521.49,375l.114-2.287-47.785.854Zm47.743-3.752-47.123.363,2.79-15.2,47.359.345c-.5,5.065-1.063,9.973-1.689,14.47Zm4.865-.742c.825-6.344,1.76-16.339,2.6-26.365l20.419-.758c2.857.076,7.314.281,8.277.49.357.076,2.026.149,4.548.216l-1.078,10.69-11.182.64-.934,15.33-22.737.412C527.465,363.551,527.489,363.353,527.52,363.118Zm72.229-14.135q.041,6.672.073,13.478l-47.07.853.793-14.146,11.125-.635,1.134-11.775c9,.194,24.531.341,33.87.415q.041,5.611.074,11.332l-.443.158Zm-.083-13.083c-11.238-.092-25.658-.245-33.741-.4l1.814-18.833,31.771-.571Q599.594,325.76,599.665,335.9Zm-33.239-53.113-.691,30.412-.009.107-33.8.615c.183-2.453.341-4.606.464-6.325l2.257-24.393C546.357,283.077,557.083,282.932,566.427,282.787ZM420.839,318.56l3.115-.02-8.413,27.468-25.476.23-.444,1.268,25.532-.228-5.419,17.694-60.345,1.068,19.229-47.223Zm-72.822,50.86,60.351-1.059-2.54,6.306-2.182.033-57.989.642Zm32.061,8.065,22.826-.252,1.979-.029-11.32,31.363-24.665-.261,8.872-16.751ZM508.4,542.973c-.581-4.517-.615-11.352-.109-20.323l.094-1.192q.068-1.113.145-2.213l106.659-1.79-.225-1.275-106.344,1.792c.651-8.92,1.56-16.695,1.761-18.367l.123-1.058,61.515-1.331,12.8-.831,12.35-2.2,19.443-.615-.43,28.435.015,1.252-.122,6.545.044,10.79-21.873.234c-2.471.073-24.35.722-30.006,1.27-3.688.356-10.643.559-14.211.646-.082-.134-.165-.288-.245-.415-1.975-3.162-4.154-12.152-4.174-12.243l-6.868.267c.083.372,2.1,9.079,4.127,12.475l-17.282.111c-.143.005-7.474.219-17.094.581C508.465,543.334,508.425,543.16,508.4,542.973Zm43,2.287c4.056-.105,10.681-.325,14.619-.7,4.287-.412,22.305-1,28.7-1.186l21.411-.225.062,15.539-63.1.546a12.462,12.462,0,0,0,1.339-4.972C554.28,552.072,552.914,548.346,551.4,545.26Zm-2.558,21.9a73.063,73.063,0,0,0,3.668-6.65l63.687-.546.073,18.732-71.516-1.783A31.275,31.275,0,0,1,548.84,567.161Zm-.114,24.357c-.044-.08-4.254-7.92-4.287-11.74,0-.1.016-.212.018-.314l71.821,1.783.062,15.862-34.653-.637-31.365-.036C549.4,593.611,548.758,591.612,548.726,591.518Zm73.426-48.434,5.776-.06,51.68.053.346,0,.143.7L683.858,578c-2.494.112-4.753.238-6.607.372-6.558.477-15.5.49-22.686.5-4.178.005-7.791.009-10.445.1-5.119.171-16.361-.022-21.356-.121Zm64.982.717-.145-.675,21.248.14c4.027.026,16.35.635,25.362,1.08,7.848.384,12.007.588,13.411.6,3.486.024,39.362.118,45.387.009,4.232-.073,21.708-.359,31.067-.512l12.508,31.384-74.653.4c-.348.009-34.967.756-41.449.849-6.15.091-18.158.3-28.622.646Zm215.145,34.466,8.9,21.487-58.085-.218-8.691-21.19Zm9.427,22.77,6.645,16.052-58.277-.517-6.458-15.753ZM933.475,370.4c1.161,2.589,3.3,7.454,3.947,9.551a11.648,11.648,0,0,1,.444,3.924l-37.324,2.072-1.085-2L890.62,370.62ZM892.09,383.165l.122.234-168.5,3.365,1.15,3.409,169.149-3.345L922.29,440.84l7.657,14.492,19.071,32.591-53.81-2.529c1.386-1.7,2.317-3.385,1.7-4.626-1.341-2.7-10.411-23.3-10.5-23.506l-3.062-.047c.091.21,9.055,20.82,10.389,23.537.82,1.667-2.226,4.805-4.479,7.1a15.316,15.316,0,0,0-2.525,2.881c-.8,1.674,1.023,7.813,1.612,10.376-5.629-.256-11.089-.706-17.119-1.225-.274-.94-.8-2.529-.952-2.877-.711-1.6-13.382-21.81-13.876-22.586l-19.357-55.758,17.052.314-.5-1.281-18.6-.316-26.352-3.866-40.587-4.281-41.458-5.079-.426,1.235,41.586,5.083,40.582,4.27,25.806,3.78,8.277,24.192-99.681.835-79.422.261-47.163.622-2.307-5.112a16.846,16.846,0,0,0-.584-1.674c-.434-1.165-1.123-3.028-1.74-5.039,37.9-.111,76.8-.2,101.438-.256a10,10,0,0,0,6.012,4.374c4.774,1.475,12.437,2.226,16.587,2.541l.494-3.358c-4.414-.337-10.133-1.01-12.961-1.888a5.063,5.063,0,0,1-3.073-3.36l-.366-1.732-3.926.009c-2.336.005-19.169.042-42.5.1l-2.665-16.1-10.278-.047-54.805,1.832c-.6-7.372-1.057-17.549-1.375-30.423a76.851,76.851,0,0,1,8.5-.731c3.819.016,14.146-.14,19.94-.72,2.734-.274,6.779-.334,10.688-.39,3.563-.051,6.928-.1,8.94-.319a7.264,7.264,0,0,0,5.38-4.094l53.608.415-.66-3.407-47.147-.363-4.076-21.478,48.411.029-.758-3.409-48.046-.024-1.136-15.06,37.862-.731-.7-2.552-42.2.818,1.161,17.523h-1.916l2.133,12.049-50.363.55q-.1-6.9-.21-13.66c4.624-1.578,11.876-3.893,14.719-4.091,4.47-.312,29.405-.887,29.656-.891l1.17-.029-1.531-15.4,45.637-.357-.586-2.554-89.45.706q-.093-5.116-.185-10.1l59.569-1.07-.236-6.558,25.144-.078,92.624-.746,17.9-.229,7.211,15.321-111.836.867.778,3.407,91.657-.7,4.824,9.961-86.424,1.458.724,2.554,102.714-1.716,55.908-.814,6.933,11.909ZM862,335.129l-55.636.814L793,336.168l-4.86-9.937,68.378-.521Zm-7.476-12.838-47.007.365-7.285-15.334,45.079-.575.159,0Zm7.517-36.433.6-.029,10.724,17.282-24.388.176-9.886-16.5Zm-18.559,17.469h-.011l-64.831.84-3.5.029-9.93-24.489,59.547-.664,4.512-.129Zm-66.508-27.179L762.458,241.8l20.758-.3,16.836,34.387Zm49.407-2.188.9,1.544-4.35.123-20.723.234-16.988-34.39,23.818-.345Zm-65.929-32.132,14.362,34.343-88.7,1-82.277,1.515c-.045,0-.624.014-1.653.038-.278-12.985-.548-24.643-.787-34.6ZM599.126,278.793c-5.039.109-13.917.29-25.6.486l1.2-34.769,23.954-.347C598.818,254.138,598.976,265.812,599.126,278.793ZM540.033,221.8l31.943-.74.689,22.5-34.414.5Zm-.628,23.216,33.287-.481-.629,16.194-15.281.6-20.219,1.126,1.611-17.425Zm-5.749,17.605-.065,0,.016.483L531.9,279.841c-5.9.06-12.043.116-18.367.163l-2.65.018,5.311-34.476-2.03.007L508.7,280.041c-5.863.045-11.051.091-15.624.134.421-1.649,1.136-4.53,1.673-7.109a27.711,27.711,0,0,0,.691-4.6l-.009-.582c-.035-2.723-.087-7.788-1.283-10.826s.811-11.287.834-11.368l-1.161-.018,41.632-.6Zm-40.71-16.938c-.122.5-2.09,8.568-.847,11.809,1.132,2.9,1.161,7.88,1.185,10.552l.005.584c.022,1.923-1.676,8.722-2.409,11.564-22.918.227-29.692.415-32.288.488-.751.02-1.146.033-1.515.033-9.819-.027-12.631-.689-13.257-.891-1.509-.49-2.209-2.471-2.714-3.915a13.059,13.059,0,0,0-.689-1.729c-1.361-2.607-5.527-4.161-6.772-4.575-2.262-.756-9.571-.417-14.318-.094l4.82-22.839Zm-77.891,24.945c-5.988.082-18,.238-19.876.232-1.3,0-4.013.267-6.723.582,5.128-13.46,17.037-45.973,19.245-52.017l18.365-.051Zm-9.268-51.2c-3.378,9.143-14.772,39.751-19.588,52.28-2.249.279-4.207.544-4.949.646-1.6.218-8.058.192-12.319.121l20.312-53Zm-37.342,54.319c2.5.038,10.547.14,12.782-.163,1.253-.171,2.832-.379,4.473-.584-.92,2.382-1.524,3.893-1.654,4.107-1.023,1.692-2.037,10.585-2.132,11.53-.675,2.473-2.142,7.479-2.948,8.769-.455.736-1.3,2.726-2.275,5.03-1.152,2.707-2.736,6.414-3.365,7.111-.893.989-3.817,4.241-5.3,5.89l-8.724.043-1.531,3.381,6.111-.031L358.9,330.8c-1.408.673-9.437,4.5-15.075,7.194Zm-26.5,68.189c2.4-1.148,10.213-4.878,15.37-7.341l-14.269,34.24-13.583,33.24-5.634-.591c-4.981-.686-12.083-1.705-16.655-2.423l1.081-.029,9.959-27.972,10.761-24.876C332.588,345.2,339.014,343.339,341.947,341.944Zm-61.5,25.322,3.962-6.848,41.735-13.436-10.563,24.147-10,27.686c-1.446-.238-2.454-.423-2.775-.519-1.966-.6-16.457-1.741-19.446-1.968l-18.249-.649Zm15.336,64.84-.5.016c-4.68-.023-27.181-1.776-46.214-3.3l-1.761-.142,17.128-31.74,17.908.637c8.267.637,17.471,1.491,18.534,1.814,1.961.6,19.608,3.039,21.7,3.325l6.364.668-.065.158,1.411-.016,3.532.37.394-.419.238,0,.174-.435.357-.381-.2-.02,9.874-24.767,32.77-.361-2.362,14.066-8.93,16.669,1.415.042-19.147-.2-.29.633h0l-10.354,22.249c-5.038.009-7.677.007-8.972,0C321.96,430.937,301.641,431.383,295.778,432.107Zm13.282.167,1.152-.036c6.614-.209,13.094-.321,17.338-.3,3.378.016,13.756,0,30.017-.056l1.609-.006-.644,3.541c-7.057,38.515-10.94,58.207-11.8,60.2a41.33,41.33,0,0,1-4.14,6.991l.013,0c-.111.294-.256.673-.415,1.1l-71.329.1ZM243.024,551.332c.087,0,.185,0,.261.007,3.412.178,9.765-.363,15.9-.891,3.664-.314,7.456-.639,8.905-.63,4.16.027,23.069-1.014,24.254-1.094,1.361-.18,33.18-4.385,38.953-5.311a44.969,44.969,0,0,1,12.408-.071c.365.076.981.23.992.417a35.659,35.659,0,0,1-1.172,5.954l6,7.265,3.488-.5-5.879-6.93a33.538,33.538,0,0,0,1.121-5.977c-.02-.388-.466-.934-2.482-1.35-3.635-.749-10.744-.729-15.548.045-5.636.905-38.254,5.224-38.261,5.241-5.362.3-20,1.063-23.189,1.043-1.925-.013-5.593.3-9.847.669-5.228.448-11.749,1.007-14.476.865-.19-.011-.435-.007-.651-.013l16.684-26.9,1.533-2.808,7.49-14.024,71.7-.1c-1.546,3.965-3.764,9.485-4.989,11.726-.423,1.259-2.217,18.244-2.7,23.372l3.742-.149c.424-4.849,2.044-22.724,2.585-23.749,1.339-2.48,4.089-9.513,6.208-15.269l.151-.279a39.285,39.285,0,0,0,3.926-6.748c.294-.695,1-3.991,1.926-8.715l10.476,3.978,23.66,22.706L428.67,552.5l-3.768-.176-41.356,2.69L345.39,557.7l-40.342,2.445-39.468,2.239c-1.163.107-16.074,1.479-31.219,2.921ZM180.446,610.97c-3.909-.1-7.314-.181-9.716-.2a260.185,260.185,0,0,0-30.173,1.722l7.6-22.675-17.27-2.224c4.956-1.43,10.786-3.231,16.484-5,8.375-2.621,16.972-5.333,20.874-6.22,8.976-2.054,27.535-5.66,35.005-6.676,2.935-.4,12.738-1.381,23.735-2.44L205.85,611.235C198.283,611.4,188.177,611.157,180.446,610.97Zm240.594-43.42c-.118.078-12.2,7.713-22.764,12.9a124.253,124.253,0,0,1-13.988,5.457c-6.382,2.18-12.448,4.239-16.417,7.193-4.486,3.309-15.111,5.652-23.7,7.535-2.6.566-5.054,1.1-7.042,1.605-5.73,1.442-18.674,3.6-28.177,5.183-3.541.584-6.677,1.1-8.941,1.5-4.582.8-17.883.689-26.682.619-5.7-.049-10.617-.089-13.725.053-3.173.143-10.315.319-17.885.5-10.158.248-21.514.524-28.807.845l20.694-44.32c15.913-1.513,31.981-2.99,32.17-3.01l39.362-2.224,40.482-2.443,38.245-2.685L424.7,553.61l5.439.254.123.114.506-.085,10.592.492c-1.233,1.135-2.565,2.4-4.016,3.826Zm57.53-22.628c-20.248,1.244-25.346,1.959-28.566,3-1.482.481-3.929,2.257-7.28,5.237l-9.9-.461-43.466-40.159-4.724-4.517L504.3,504.463c-.528,4.452-1.27,11.265-1.765,18.215l-.1,1.141c-.548,8.437-.575,14.884-.076,19.176.033.259.08.5.118.758C494.544,544.072,485.841,544.471,478.57,544.921Zm44.9,23.239c-4.9-4.559-12.02-11.258-14.5-22.113,9.509-.356,16.733-.566,16.762-.57l18.521-.116c1.571,3.176,2.9,7.006,3.011,8.983.114,1.959-1.948,6.558-5.565,12.3-2.258,3.547-4.695,8.862-4.722,13.168-.005,4.042,4.1,11.849,4.232,12.081.27.914,6.946,22.4,8.049,24.823a5.224,5.224,0,0,1,.074,3.588l-22.463.406L531,581.35a18.621,18.621,0,0,0-6.1-11.867Zm74.645,51.268-40.8.738a5.87,5.87,0,0,0-.258-3.829c-.731-1.571-4.1-11.8-6.324-18.628l30.873.035,34.737.639.08,20.672Zm51.123-1.043-25.788.526-.64-37.512c5.33.105,16.742.292,22.341.109,2.316-.078,5.779-.082,9.788-.087,7.555-.011,16.948-.024,24.268-.553,1.4-.1,3.073-.2,4.914-.285l3.753,37.179Zm178.279-2.1-59.874-.009-70,1.332-1.894.031L693.7,599.391l45.015-.541,2.237-5.672L841.622,590l10.565,26.5Zm158.08-.227c-2.946.2-14.325.571-18.461.7-5.75.176-15.655.446-17.73.432-2.328-.016-16.43-.04-23.165-.051l-9.8-23.025,61.006-.976,14.648,22.256C989.5,615.686,986.961,615.96,985.6,616.055Zm15.029-1.711-1.2.154c-.858.111-2.189.276-3.7.459l-14.534-21.886,28.665-.459,13.774,24.176Z" transform="translate(-120.112 -195.94)"/></g><g class="h" transform="translate(253.698 84.199)"><g class="t" transform="matrix(1, 0, 0, 1, -253.88, -106.63)"><path class="i" d="M39.269,7.671a30.729,30.729,0,0,1,1.168-3.117l.3-.659-.684-.22a12.331,12.331,0,0,0-3.733-.6A11.062,11.062,0,0,0,28.9,5.94a25.4,25.4,0,0,0-16.071,0A11.062,11.062,0,0,0,5.4,3.07a12.331,12.331,0,0,0-3.733.6L1,3.894l.3.659A28.733,28.733,0,0,1,2.425,7.671c.171.563.313,1.071.442,1.566a10.671,10.671,0,0,0,2.194,4.642A18.371,18.371,0,0,0,2.745,29.714,19.213,19.213,0,0,0,13.823,41.619l2.166,13.2,2.436,14.928a2.695,2.695,0,0,0,5.3,0l4.616-28.126A19.215,19.215,0,0,0,39.429,29.558,18.392,18.392,0,0,0,36.89,13.631a10.6,10.6,0,0,0,1.98-4.395A13.2,13.2,0,0,1,39.269,7.671Z" transform="translate(254.66 107.7)"/></g><path class="j" d="M19.007,3.974a3.216,3.216,0,0,1,0,.522,26.245,26.245,0,0,0-6.112,0,2.171,2.171,0,0,1,0-.522,3.108,3.108,0,0,1,6.212,0Z" transform="translate(5.823 0.283)"/><path class="k" d="M40.819,9.083a28.344,28.344,0,0,1,1.126-2.994l.8-1.744L40.9,3.754A13.73,13.73,0,0,0,36.83,3.1a12.119,12.119,0,0,0-7.679,2.747,23.5,23.5,0,0,0-3.434-.824,3.9,3.9,0,0,0,.071-.7,4.42,4.42,0,0,0-8.833,0,3.893,3.893,0,0,0,0,.7,23.5,23.5,0,0,0-3.434.824A12.119,12.119,0,0,0,5.841,3.1a13.568,13.568,0,0,0-4.061.659L0,4.345.8,6.089A28.345,28.345,0,0,1,1.923,9.083c.171.549.313,1.057.442,1.538a12.213,12.213,0,0,0,1.909,4.463,21,21,0,0,0-1.04,1.909A19.5,19.5,0,0,0,4.858,36.508a20.177,20.177,0,0,0,8.463,6.963L17.838,71.02a3.783,3.783,0,0,0,7.451,0l4.5-27.549A20.026,20.026,0,0,0,40.036,33.377a19.515,19.515,0,0,0-1.425-18.609,12.6,12.6,0,0,0,1.71-4.12C40.506,10.126,40.648,9.591,40.819,9.083ZM21.371,1.269a3.077,3.077,0,0,1,3.106,3.049,3.217,3.217,0,0,1,0,.522,26.363,26.363,0,0,0-6.126,0,3.217,3.217,0,0,1,0-.522,3.073,3.073,0,0,1,3.02-3.049ZM39.309,6.844c-.171.481-.37,1.03-.57,1.634s-.271,1.112-.456,1.579a9.76,9.76,0,0,1-1.781,4.01l-.5.618.456.645a17.314,17.314,0,0,1,2.418,15.023A18.089,18.089,0,0,1,28.41,41.727l-.57.233-4.7,28.716a1.606,1.606,0,0,1-3.149,0L15.273,41.96l-.556-.233A17.975,17.975,0,0,1,6.654,35.3,17.436,17.436,0,0,1,5.229,17.858,19.709,19.709,0,0,1,6.54,15.565L7,14.892l-.527-.6a9.457,9.457,0,0,1-2.009-4.23C4.274,9.591,4.189,9.042,4,8.451A24.258,24.258,0,0,0,2.963,5.7a11.073,11.073,0,0,1,2.949-.412,9.992,9.992,0,0,1,6.682,2.527l.484.4L13.706,8A22.841,22.841,0,0,1,17.98,6.982c.541-.027,1.111-.137,1.681-.137h3.419a12.232,12.232,0,0,1,1.724.179,22.841,22.841,0,0,1,4.274,1.016l.627.22.484-.453a9.987,9.987,0,0,1,6.682-2.582,11.073,11.073,0,0,1,2.949.412A8.434,8.434,0,0,0,39.309,6.844Z" transform="translate(0 -0.06)"/></g><g class="l" transform="translate(474.306 1.104)"><g class="s" transform="matrix(1, 0, 0, 1, -474.49, -23.54)"><path class="i" d="M23.79,5.81a18.3,18.3,0,0,1,.7-1.857l.178-.393-.407-.131a7.343,7.343,0,0,0-2.223-.36,6.588,6.588,0,0,0-4.421,1.709,15.129,15.129,0,0,0-9.571,0A6.588,6.588,0,0,0,3.622,3.07,7.343,7.343,0,0,0,1.4,3.43L1,3.561l.178.393a17.111,17.111,0,0,1,.67,1.857c.1.335.187.638.263.932A6.355,6.355,0,0,0,3.418,9.507a10.94,10.94,0,0,0-1.379,9.431,11.442,11.442,0,0,0,6.6,7.09l1.29,7.86,1.451,8.89a1.6,1.6,0,0,0,3.156,0l2.749-16.75a11.443,11.443,0,0,0,6.6-7.183,10.953,10.953,0,0,0-1.512-9.485,6.313,6.313,0,0,0,1.179-2.617A7.859,7.859,0,0,1,23.79,5.81Z" transform="translate(474.54 22.93)"/></g><path class="j" d="M16.528,2.763a1.916,1.916,0,0,1,0,.311,15.629,15.629,0,0,0-3.64,0,1.293,1.293,0,0,1,0-.311,1.851,1.851,0,0,1,3.7,0Z" transform="translate(-1.741 -0.228)"/><path class="k" d="M24.309,5.433a16.88,16.88,0,0,1,.67-1.783l.475-1.039L24.36,2.26a8.177,8.177,0,0,0-2.427-.393A7.217,7.217,0,0,0,17.36,3.5a14,14,0,0,0-2.045-.491,2.32,2.32,0,0,0,.042-.417,2.632,2.632,0,0,0-5.261,0,2.318,2.318,0,0,0,0,.417A14,14,0,0,0,8.052,3.5,7.217,7.217,0,0,0,3.479,1.867a8.08,8.08,0,0,0-2.418.393L0,2.612.475,3.65a16.88,16.88,0,0,1,.67,1.783c.1.327.187.63.263.916A7.273,7.273,0,0,0,2.545,9.007a12.507,12.507,0,0,0-.619,1.137,11.612,11.612,0,0,0,.967,11.622,12.016,12.016,0,0,0,5.04,4.147l2.69,16.406a2.253,2.253,0,0,0,4.438,0l2.681-16.406a11.926,11.926,0,0,0,6.1-6.011,11.622,11.622,0,0,0-.848-11.082,7.507,7.507,0,0,0,1.018-2.454C24.122,6.055,24.207,5.736,24.309,5.433ZM12.727.78A1.832,1.832,0,0,1,14.577,2.6a1.917,1.917,0,0,1,0,.311,15.7,15.7,0,0,0-3.648,0,1.916,1.916,0,0,1,0-.311A1.83,1.83,0,0,1,12.727.78ZM23.41,4.1c-.1.286-.221.613-.339.973s-.161.662-.272.941A5.813,5.813,0,0,1,21.738,8.4l-.3.368.272.384a10.311,10.311,0,0,1,1.44,8.947,10.773,10.773,0,0,1-6.234,6.772l-.339.139-2.8,17.1a.957.957,0,0,1-1.875,0L9.1,25.013l-.331-.139a10.7,10.7,0,0,1-4.8-3.828,10.383,10.383,0,0,1-.848-10.387,11.737,11.737,0,0,1,.781-1.366l.272-.4-.314-.36a5.632,5.632,0,0,1-1.2-2.519c-.11-.278-.161-.605-.272-.957a14.447,14.447,0,0,0-.619-1.636,6.594,6.594,0,0,1,1.756-.245A5.951,5.951,0,0,1,7.5,4.681l.288.237.373-.131a13.6,13.6,0,0,1,2.545-.605c.322-.016.662-.082,1-.082h2.036a7.285,7.285,0,0,1,1.027.106,13.6,13.6,0,0,1,2.545.605l.373.131.288-.27a5.948,5.948,0,0,1,3.979-1.538,6.594,6.594,0,0,1,1.756.245A5.023,5.023,0,0,0,23.41,4.1Z" transform="translate(0 -0.06)"/></g><g class="m" transform="translate(769.368 122.192)"><g class="r" transform="matrix(1, 0, 0, 1, -769.55, -144.63)"><path class="i" d="M49.556,8.907a38.989,38.989,0,0,1,1.482-3.955l.38-.836-.868-.279a15.645,15.645,0,0,0-4.736-.767A14.036,14.036,0,0,0,36.4,6.712,32.232,32.232,0,0,0,16,6.712,14.036,14.036,0,0,0,6.586,3.07a15.645,15.645,0,0,0-4.736.767L1,4.115l.38.836A36.457,36.457,0,0,1,2.808,8.907c.217.714.4,1.359.56,1.986a13.54,13.54,0,0,0,2.784,5.89A23.309,23.309,0,0,0,3.214,36.876,24.377,24.377,0,0,0,17.27,51.982l2.748,16.745,3.091,18.941a3.419,3.419,0,0,0,6.725,0l5.857-35.686a24.38,24.38,0,0,0,14.068-15.3A23.336,23.336,0,0,0,46.537,16.47a13.451,13.451,0,0,0,2.513-5.576A16.742,16.742,0,0,1,49.556,8.907Z" transform="translate(770.8 146.8)"/></g><path class="j" d="M20.654,4.779a4.082,4.082,0,0,1,0,.662,33.3,33.3,0,0,0-7.755,0,2.756,2.756,0,0,1,0-.662,3.944,3.944,0,0,1,7.882,0Z" transform="translate(10.851 0.623)"/><path class="k" d="M51.792,11.508a35.964,35.964,0,0,1,1.428-3.8L54.233,5.5,51.9,4.747a17.421,17.421,0,0,0-5.17-.836A15.377,15.377,0,0,0,36.987,7.4,29.819,29.819,0,0,0,32.63,6.35a4.943,4.943,0,0,0,.09-.889,5.608,5.608,0,0,0-11.208,0,4.939,4.939,0,0,0,0,.889A29.819,29.819,0,0,0,17.156,7.4,15.377,15.377,0,0,0,7.412,3.911a17.215,17.215,0,0,0-5.152.836L0,5.5,1.012,7.71a35.964,35.964,0,0,1,1.428,3.8c.217.7.4,1.342.56,1.952a15.5,15.5,0,0,0,2.422,5.663A26.648,26.648,0,0,0,4.1,21.545,24.741,24.741,0,0,0,6.164,46.306,25.6,25.6,0,0,0,16.9,55.14l5.731,34.954a4.8,4.8,0,0,0,9.455,0L37.8,55.14a25.41,25.41,0,0,0,13-12.807A24.761,24.761,0,0,0,48.99,18.722a15.993,15.993,0,0,0,2.169-5.227C51.394,12.832,51.575,12.153,51.792,11.508ZM27.116,1.593a3.9,3.9,0,0,1,3.941,3.868,4.083,4.083,0,0,1,0,.662,33.45,33.45,0,0,0-7.773,0,4.082,4.082,0,0,1,0-.662A3.9,3.9,0,0,1,27.116,1.593Zm22.76,7.075c-.217.61-.47,1.307-.723,2.074s-.343,1.411-.578,2a12.384,12.384,0,0,1-2.26,5.088l-.633.784.578.819A21.969,21.969,0,0,1,49.328,38.5,22.952,22.952,0,0,1,36.047,52.927l-.723.3L29.358,89.659a2.038,2.038,0,0,1-4,0L19.379,53.223l-.705-.3A22.807,22.807,0,0,1,8.442,44.772a22.123,22.123,0,0,1-1.808-22.13A25.008,25.008,0,0,1,8.3,19.733l.578-.854-.669-.767a12,12,0,0,1-2.549-5.367c-.235-.592-.343-1.289-.578-2.039A30.78,30.78,0,0,0,3.76,7.222,14.049,14.049,0,0,1,7.5,6.7a12.678,12.678,0,0,1,8.478,3.206l.615.505.8-.279a28.981,28.981,0,0,1,5.423-1.289c.687-.035,1.41-.174,2.133-.174h4.339a15.52,15.52,0,0,1,2.187.227A28.981,28.981,0,0,1,36.9,10.184l.8.279.615-.575a12.672,12.672,0,0,1,8.478-3.276,14.049,14.049,0,0,1,3.742.523A10.7,10.7,0,0,0,49.876,8.668Z" transform="translate(0 -0.06)"/></g></g><g transform="translate(250.82 235.773)"><g transform="translate(0 66.459)"><g class="q" transform="matrix(1, 0, 0, 1, -251, -324.67)"><path class="i" d="M160.248,22.215A127.88,127.88,0,0,1,165.11,9.242L166.355,6.5l-2.846-.914A51.312,51.312,0,0,0,147.976,3.07a46.034,46.034,0,0,0-30.889,11.944,105.711,105.711,0,0,0-66.877,0A46.034,46.034,0,0,0,19.32,3.07,51.311,51.311,0,0,0,3.787,5.585L1,6.5,2.245,9.242A119.566,119.566,0,0,1,6.929,22.215c.711,2.343,1.3,4.458,1.838,6.515A44.406,44.406,0,0,0,17.9,48.045a76.446,76.446,0,0,0-9.636,65.9,79.949,79.949,0,0,0,46.1,49.541L63.371,218.4l10.138,62.12a11.213,11.213,0,0,0,22.055,0l19.209-117.039A79.958,79.958,0,0,0,160.913,113.3a76.534,76.534,0,0,0-10.566-66.279,44.114,44.114,0,0,0,8.241-18.287A54.916,54.916,0,0,1,160.248,22.215Z" transform="translate(257.4 338.8)"/></g><path class="j" d="M38.379,13.438a13.388,13.388,0,0,1,0,2.172,109.211,109.211,0,0,0-25.435,0,9.037,9.037,0,0,1,0-2.172A12.7,12.7,0,0,1,25.869.98,12.7,12.7,0,0,1,38.794,13.438Z" transform="translate(64.946 4.278)"/><path class="k" d="M169.861,37.606a117.945,117.945,0,0,1,4.684-12.458l3.32-7.258-7.648-2.457A57.135,57.135,0,0,0,153.26,12.69,50.432,50.432,0,0,0,121.3,24.119a97.8,97.8,0,0,0-14.288-3.429,16.213,16.213,0,0,0,.3-2.915C107.312,7.992,99.083.06,88.932.06S70.553,7.992,70.553,17.776a16.2,16.2,0,0,0,0,2.915,97.794,97.794,0,0,0-14.288,3.429A50.432,50.432,0,0,0,24.308,12.69a56.46,56.46,0,0,0-16.9,2.743L0,17.89l3.32,7.258A117.951,117.951,0,0,1,8,37.606c.711,2.286,1.3,4.4,1.838,6.4A50.82,50.82,0,0,0,17.786,62.58a87.4,87.4,0,0,0-4.328,7.944,81.142,81.142,0,0,0,6.759,81.207A83.963,83.963,0,0,0,55.435,180.7L74.229,295.343a15.742,15.742,0,0,0,31.008,0L123.972,180.7a83.334,83.334,0,0,0,42.628-42,81.206,81.206,0,0,0-5.929-77.435,52.452,52.452,0,0,0,7.115-17.144C168.556,41.949,169.149,39.721,169.861,37.606ZM88.932,5.089a12.8,12.8,0,0,1,12.925,12.687,13.393,13.393,0,0,1,0,2.172,109.7,109.7,0,0,0-25.494,0,13.391,13.391,0,0,1,0-2.172A12.788,12.788,0,0,1,88.932,5.089Zm74.644,23.2c-.711,2-1.542,4.286-2.372,6.8s-1.126,4.629-1.9,6.572A40.616,40.616,0,0,1,151.9,58.351l-2.075,2.572,1.9,2.686a72.05,72.05,0,0,1,10.062,62.516,75.273,75.273,0,0,1-43.56,47.322l-2.372.972-19.565,119.5a6.685,6.685,0,0,1-13.1,0l-19.624-119.5-2.312-.972A74.8,74.8,0,0,1,27.688,146.7a72.555,72.555,0,0,1-5.929-72.578,82.016,82.016,0,0,1,5.454-9.544l1.9-2.8-2.194-2.514a39.354,39.354,0,0,1-8.36-17.6c-.771-1.943-1.126-4.229-1.9-6.686a100.947,100.947,0,0,0-4.328-11.43A46.077,46.077,0,0,1,24.6,21.833,41.581,41.581,0,0,1,52.411,32.349l2.016,1.657,2.609-.914a95.048,95.048,0,0,1,17.786-4.229c2.253-.114,4.624-.571,7-.571H96.047a50.9,50.9,0,0,1,7.174.743,95.049,95.049,0,0,1,17.786,4.229l2.609.914,2.016-1.886a41.559,41.559,0,0,1,27.806-10.744,46.077,46.077,0,0,1,12.273,1.714A35.1,35.1,0,0,0,163.576,28.291Z" transform="translate(0 -0.06)"/></g><g transform="translate(107.546)"><g class="p" transform="matrix(1, 0, 0, 1, -358.55, -258.21)"><path class="n" d="M491.268,662.784l-14.553,11.064-3.243-3.275c-.471-.477-10.436-10.641-14.182-21.934a204.664,204.664,0,0,1-94.7,0c-3.743,11.293-13.71,21.457-14.179,21.934l-3.243,3.275-14.553-11.064-18.594,11.778-2.477-5.541c-.329-.737-33.015-74.889-33.015-167.668,0-27.572,5.235-61.313,15.562-100.326-15.716-15.8-21.1-34.112-26.789-53.446-.892-3.026-1.794-6.1-2.752-9.207a246.723,246.723,0,0,0-9.4-25.42l-2.4-5.335,5.561-1.815a96.383,96.383,0,0,1,29.878-4.929,87.645,87.645,0,0,1,59.45,23.454,198.263,198.263,0,0,1,128.595,0,87.632,87.632,0,0,1,59.45-23.454,96.382,96.382,0,0,1,29.878,4.929l5.56,1.812-2.4,5.338a246.283,246.283,0,0,0-9.4,25.42c-.954,3.109-1.86,6.181-2.749,9.207-5.686,19.331-11.073,37.636-26.783,53.441,10.324,38.624,15.556,72.362,15.556,100.331,0,92.779-32.687,166.931-33.015,167.668l-2.48,5.541Z" transform="translate(112.99 -36.2)"/></g><path class="k" d="M571.87,303.8a101.709,101.709,0,0,0-31.506-5.189A93.2,93.2,0,0,0,479.7,321.355a203.978,203.978,0,0,0-126.175,0,93.217,93.217,0,0,0-60.661-22.743A101.652,101.652,0,0,0,261.36,303.8l-11.124,3.629,4.8,10.67a241.565,241.565,0,0,1,9.17,24.814c.946,3.063,1.852,6.152,2.732,9.138,5.629,19.139,10.976,37.31,26,53.486-9.944,38.244-14.985,71.46-14.985,98.805,0,93.9,32.107,166.756,33.475,169.814l4.955,11.081,10.258-6.5,10.378-6.575,7.975,6.066,7.341,5.581,6.486-6.555c1.114-1.129,9.007-9.3,13.67-19.517a209.7,209.7,0,0,0,88.25,0c4.663,10.213,12.556,18.388,13.67,19.517l6.486,6.555,7.341-5.581,7.975-6.066,10.381,6.575,10.255,6.5,4.955-11.081c1.369-3.057,33.475-75.917,33.475-169.814,0-27.726-5.035-60.947-14.973-98.82,15.013-16.17,20.357-34.333,25.986-53.466.88-2.989,1.789-6.078,2.732-9.144A241.661,241.661,0,0,1,578.2,318.1l4.789-10.667ZM550.236,352.51c-4.412,15.985-8.018,28.966-18.925,41.059-6.158-21.677-11.973-38.087-14.093-43.888,2-3.412,8.264-11.91,24.117-19.371l-4.475-9.5c-24.614,11.584-30.081,26.177-30.3,26.795l-.654,1.817.683,1.809c.329.874,32.932,88.064,32.932,154.363,0,75.94-22.4,139.027-29.781,157.741l-14.347-9.09-12.827,9.753c-2.926-3.563-6.6-8.8-8.407-13.847,4.432-1.3,8.841-2.7,13.2-4.295l-3.615-9.864a194.752,194.752,0,0,1-134.261,0l-3.615,9.864c4.361,1.6,8.772,3,13.2,4.295-1.806,5.046-5.484,10.287-8.41,13.847l-12.827-9.753-14.35,9.09c-7.378-18.691-29.775-81.706-29.775-157.741,0-66.3,32.6-153.489,32.93-154.363l.683-1.809-.651-1.817c-.22-.617-5.689-15.21-30.3-26.795l-4.475,9.5c15.893,7.481,22.148,16,24.12,19.362-2.117,5.8-7.935,22.214-14.1,43.9-10.907-12.093-14.513-25.074-18.925-41.059-1.152-4.178-2.343-8.5-3.726-12.987-2.7-8.761-5.575-16.3-7.521-21.105,46.154-12.076,74.066,18.376,75.269,19.719l2.389,2.7,3.38-1.26a187.243,187.243,0,0,1,127.66,0l3.38,1.26,2.392-2.7c.291-.331,28.84-31.8,75.266-19.716-1.946,4.8-4.824,12.344-7.521,21.1C552.579,344.014,551.388,348.332,550.236,352.51Z" transform="translate(-250.236 -298.612)"/><path class="k" d="M330.665,375.053l-10.416,1.372c2.538,19.305,3.806,34.1,4.4,42.422l-14.525-4.638-10.75,11.53c-4.243-7.692-11.962-22.354-20.817-42.293l-9.6,4.263c13.673,30.792,24.426,48.8,24.877,49.546l3.589,5.981,15.848-16.993,22.651,7.232-.315-7.51C335.577,425.17,334.745,406.1,330.665,375.053Z" transform="translate(-215.46 -156.625)"/><path class="k" d="M293.859,337.581c6.384,0,11.559,6.384,11.559,0a11.56,11.56,0,0,0-23.12,0C282.3,343.965,287.473,337.581,293.859,337.581Z" transform="translate(-190.682 -247.697)"/><path class="k" d="M338.1,337.581c6.384,0,11.558,6.384,11.558,0a11.56,11.56,0,0,0-23.12,0C326.535,343.965,331.713,337.581,338.1,337.581Z" transform="translate(-108.513 -247.697)"/><path class="k" d="M350.383,414.209l-14.522,4.638c.591-8.321,1.86-23.114,4.4-42.422l-10.415-1.372c-4.08,31.049-4.909,50.117-4.943,50.911l-.311,7.51,22.651-7.232,15.848,16.993,3.589-5.981c.449-.749,11.2-18.754,24.877-49.546l-9.6-4.263c-8.853,19.939-16.573,34.6-20.814,42.293Z" transform="translate(-112.128 -156.625)"/><g transform="translate(115.932 90.876)"><path class="o" d="M337.829,394.18c11.5,0,34.024-13.05,42.893-32.818,8.844-19.711-10.313-25.894-17.956-27.289-9.155-1.672-24.937-1.82-24.937-1.82s-15.782.148-24.937,1.82c-7.644,1.394-26.8,7.578-17.956,27.289C303.8,381.13,326.325,394.18,337.829,394.18Z" transform="translate(-287.383 -327.001)"/><path class="k" d="M389.471,346.2c-5.149-9.79-17.336-12.97-22.337-13.884-9.49-1.732-25.169-1.9-25.929-1.9-.663.006-16.342.171-25.832,1.9-5,.914-17.188,4.095-22.337,13.882-3.14,5.972-2.963,12.941.529,20.725,9.987,22.257,34.5,35.924,47.688,35.924s37.7-13.667,47.688-35.924C392.432,359.141,392.612,352.172,389.471,346.2Zm-10.115,16.422c-8.27,18.434-29.369,29.718-38.1,29.718s-29.832-11.284-38.1-29.718c-2.1-4.686-2.378-8.567-.817-11.533,2.449-4.658,9.315-7.412,14.925-8.438,8.6-1.569,23.891-1.732,23.943-1.734.154,0,15.445.166,24.046,1.734,5.606,1.026,12.473,3.78,14.924,8.438C381.733,354.058,381.459,357.938,379.356,362.624Z" transform="translate(-290.808 -330.415)"/><path class="k" d="M318.473,336.259a8.082,8.082,0,0,0-8.058,8.058v4.695a8.06,8.06,0,0,0,16.119,0v-4.695A8.082,8.082,0,0,0,318.473,336.259Z" transform="translate(-254.388 -319.56)"/><path class="k" d="M308.927,336.259a8.082,8.082,0,0,0-8.058,8.058v4.695a8.058,8.058,0,0,0,16.116,0v-4.695A8.082,8.082,0,0,0,308.927,336.259Z" transform="translate(-272.119 -319.56)"/></g></g><g transform="translate(59.074 149.719)"><path class="o" d="M319.842,369.524c6.924,0,20.477-7.854,25.816-19.751,5.323-11.863-6.207-15.585-10.807-16.424a103.363,103.363,0,0,0-30.017,0c-4.6.839-16.13,4.561-10.807,16.424C299.363,361.67,312.918,369.524,319.842,369.524Z" transform="translate(-289.481 -329.092)"/><path class="k" d="M350.189,339.917c-3.1-5.892-10.434-7.806-13.443-8.356a106.476,106.476,0,0,0-31.152,0c-3.01.55-10.344,2.464-13.443,8.355-1.89,3.594-1.783,7.789.318,12.474,6.011,13.4,20.766,21.621,28.7,21.621s22.691-8.226,28.7-21.621C351.97,347.7,352.079,343.509,350.189,339.917ZM344.1,349.8c-4.977,11.094-17.676,17.886-22.932,17.886s-17.954-6.791-22.931-17.886c-1.266-2.82-1.431-5.156-.492-6.941,1.474-2.8,5.607-4.461,8.983-5.079a100.416,100.416,0,0,1,28.882,0c3.374.617,7.507,2.275,8.982,5.079C345.531,344.644,345.366,346.98,344.1,349.8Z" transform="translate(-290.808 -330.415)"/><path class="k" d="M315.265,336.259a4.864,4.864,0,0,0-4.85,4.85v2.826a4.851,4.851,0,0,0,9.7,0v-2.826A4.864,4.864,0,0,0,315.265,336.259Z" transform="translate(-276.695 -326.209)"/><path class="k" d="M305.719,336.259a4.864,4.864,0,0,0-4.85,4.85v2.826a4.85,4.85,0,0,0,9.7,0v-2.826A4.864,4.864,0,0,0,305.719,336.259Z" transform="translate(-283.566 -326.209)"/></g></g></g></svg>