<svg xmlns="http://www.w3.org/2000/svg" xmlns:xlink="http://www.w3.org/1999/xlink" width="676.117" height="458.203" viewBox="0 0 676.117 458.203"><defs><style>.a{fill:none;}.b{fill:#161616;opacity:0.16;}.c{clip-path:url(#a);}.d{clip-path:url(#b);}.e{fill:url(#c);}.f{fill:#fab0b1;}.g{fill:#090909;}.h{opacity:0.33;}.i{clip-path:url(#d);}.j{fill:#07e5e5;}.k{fill:#f2f200;}.l{clip-path:url(#e);}.m{fill:#1e1e1e;}.n{fill:#0a0a0a;}.o{fill:#930000;}.p{clip-path:url(#f);}.q{fill:#fff200;}.r{clip-path:url(#g);}.s{fill:#fce886;}.t{fill:#710096;}.u{clip-path:url(#h);}.v{fill:url(#i);}.w{clip-path:url(#j);}.x{fill:#afff6a;}.y{fill:#004b40;}.z{fill:#ef0000;}.aa{fill:#a50000;}.ab{fill:#c80000;}.ac{fill:#840000;}.ad{fill:url(#k);}.ae{filter:url(#l);}</style><clipPath id="a"><rect class="a" width="253.293" height="365.599"/></clipPath><clipPath id="b"><path class="a" d="M172.55,52.444a149.085,149.085,0,0,0-97.923,0A66.8,66.8,0,0,0,29.365,34.6,73.551,73.551,0,0,0,6.735,38.3L2.6,39.6l1.741,4.135a189.1,189.1,0,0,1,7.181,19.367L13.7,70.07c4.352,14.8,8.487,28.724,20.455,40.692C26.319,140.574,22.4,166.251,22.4,187.142A348.6,348.6,0,0,0,47.644,314.876l1.958,4.134,14.144-8.922,11.1,8.487,2.394-2.394a50.485,50.485,0,0,0,10.88-16.756,155.8,155.8,0,0,0,72.027,0,50.484,50.484,0,0,0,10.88,16.756l2.394,2.394,11.1-8.487,14.144,8.922,1.958-4.134a348.822,348.822,0,0,0,25.242-127.735c0-21.325-3.917-47-11.751-76.38,11.968-11.968,16.1-25.9,20.455-40.692l2.176-6.963a188.878,188.878,0,0,1,7.181-19.367l1.741-4.134L241.531,38.3a73.55,73.55,0,0,0-22.849-3.7A66.805,66.805,0,0,0,173.42,52.444" transform="translate(-2.6 -34.6)"/></clipPath><linearGradient id="c" x1="-0.022" y1="1.021" x2="-0.013" y2="1.021" gradientUnits="objectBoundingBox"><stop offset="0" stop-color="#fee9e5"/><stop offset="0.33" stop-color="#fee9e5"/><stop offset="1" stop-color="#fdcbbc"/></linearGradient><clipPath id="d"><rect class="a" width="44.392" height="44.413"/></clipPath><clipPath id="e"><rect class="a" width="44.174" height="19.672"/></clipPath><clipPath id="f"><path class="a" d="M179.258,20.348a152.681,152.681,0,0,0-50.894-8.369A152.681,152.681,0,0,0,77.47,20.348,69.442,69.442,0,0,0,30.422,1.8,76.227,76.227,0,0,0,6.9,5.871L2.6,7.229l1.81,4.3a195.208,195.208,0,0,1,7.238,20.131l2.714,9.048c4.071,14.024,7.691,27.369,19.453,39.132-7.238,26.465-11.084,50.215-11.084,71.025,0,73.739,25.334,116.264,26.465,117.847l2.262,3.619,14.25-9.048L77.244,272.1l2.488-2.488A52.477,52.477,0,0,0,91.042,252.2a162.635,162.635,0,0,0,37.548,4.3,179.149,179.149,0,0,0,37.774-3.167,54.06,54.06,0,0,0,10.857,16.286l2.488,2.488,11.536-8.822,14.25,9.048,2.262-3.619c1.131-1.81,26.465-44.108,26.465-117.847,0-20.81-3.845-44.56-11.083-70.8,11.762-11.988,15.607-25.108,19.453-39.132l2.714-9.274a196.548,196.548,0,0,1,7.464-20.131l1.81-4.3-4.524-1.357a76.228,76.228,0,0,0-23.75-3.845,69.442,69.442,0,0,0-47.048,18.322" transform="translate(-2.6 -1.8)"/></clipPath><clipPath id="g"><rect class="a" width="263.29" height="280.481"/></clipPath><clipPath id="h"><path class="a" d="M146.382,36.6a124.268,124.268,0,0,0-41.423-6.812A124.268,124.268,0,0,0,63.537,36.6,56.335,56.335,0,0,0,25.244,21.5,62.042,62.042,0,0,0,6.1,24.814l-3.5,1.1,1.473,3.5A159.427,159.427,0,0,1,10.148,45.8c.92,2.946,1.657,5.707,2.393,8.285,2.577,9.757,4.787,17.674,13.071,26.326a134.945,134.945,0,0,0-6.444,41.054c0,60.569,21.356,78.979,22.092,79.715l1.841,1.657,10.678-6.812,9.573,7.18,2.025-2.393a52.1,52.1,0,0,0,8.653-13.992,131.632,131.632,0,0,0,61.49,0,52.284,52.284,0,0,0,8.653,13.992l2.025,2.393,9.573-7.18,10.678,6.812,1.841-1.657c.921-.736,22.092-19.146,22.092-79.715a134.947,134.947,0,0,0-6.444-41.054c8.285-8.653,10.31-16.569,13.071-26.326.736-2.577,1.473-5.339,2.393-8.285a159.252,159.252,0,0,1,6.075-16.385l1.473-3.5-3.5-1.1a62.042,62.042,0,0,0-19.146-3.13,56.519,56.519,0,0,0-38.293,15.1" transform="translate(-2.6 -21.5)"/></clipPath><linearGradient id="i" x1="-0.022" y1="1.026" x2="-0.013" y2="1.026" gradientUnits="objectBoundingBox"><stop offset="0" stop-color="#1eeb00"/><stop offset="0.28" stop-color="#1eeb00"/><stop offset="0.51" stop-color="#1ee700"/><stop offset="0.73" stop-color="#1edb00"/><stop offset="0.95" stop-color="#1ec700"/><stop offset="1" stop-color="#1ec200"/></linearGradient><clipPath id="j"><rect class="a" width="214.293" height="225.818"/></clipPath><linearGradient id="k" x1="0.5" y1="0.328" x2="0.5" y2="0.942" gradientUnits="objectBoundingBox"><stop offset="0.279" stop-color="#1eeb00"/><stop offset="0.506" stop-color="#1ee700"/><stop offset="0.729" stop-color="#1edb00"/><stop offset="0.95" stop-color="#1ec700"/><stop offset="1" stop-color="#1ec200"/></linearGradient><filter id="l" x="135.006" y="0" width="393.833" height="457.046" filterUnits="userSpaceOnUse"><feOffset dy="3" input="SourceAlpha"/><feGaussianBlur stdDeviation="5" result="m"/><feFlood flood-opacity="0.349"/><feComposite operator="in" in2="m"/><feComposite in="SourceGraphic"/></filter></defs><g transform="translate(0 4.604)"><ellipse class="b" cx="142" cy="12.5" rx="142" ry="12.5" transform="translate(252 428.6)"/><g transform="translate(0)"><ellipse class="b" cx="86.663" cy="15.757" rx="86.663" ry="15.757" transform="translate(34.623 403.061)"/><ellipse class="b" cx="86.663" cy="15.757" rx="86.663" ry="15.757" transform="translate(422.241 396.759)"/><ellipse class="b" cx="86.663" cy="15.757" rx="86.663" ry="15.757" transform="translate(482.117 365.245)"/><g transform="translate(126.646 239.211)"><g class="c" transform="translate(-126.646 -182.8)"><g class="d" transform="translate(5.658 75.292)"><rect class="e" width="242.413" height="284.585" transform="translate(-0.218 -0.218)"/></g><path class="f" d="M76.666,113.4c8.7,0,25.9-10.01,32.641-25.025s-7.834-19.585-13.492-20.673A146.673,146.673,0,0,0,76.884,66.4a146.447,146.447,0,0,0-18.932,1.306C52.077,68.794,37.5,73.581,44.243,88.378S67.962,113.4,76.666,113.4" transform="translate(49.98 78.09)"/><path class="g" d="M245.024,36.617A77.467,77.467,0,0,0,221.087,32.7a70.939,70.939,0,0,0-46.132,17.408,155.37,155.37,0,0,0-96.182,0A70.939,70.939,0,0,0,32.641,32.7,77.467,77.467,0,0,0,8.7,36.617L0,39.446,3.7,47.5a184.529,184.529,0,0,1,6.963,18.932l2.176,6.963c4.352,14.58,8.269,28.506,19.8,40.692-7.616,29.159-11.315,54.4-11.315,75.292a346.212,346.212,0,0,0,25.46,129.258l3.7,8.487,7.834-5,7.834-5,6.093,4.57,5.658,4.352,5-5a57.229,57.229,0,0,0,10.445-14.8,159.722,159.722,0,0,0,67.24,0,57.23,57.23,0,0,0,10.445,14.8l5,5,5.658-4.352,6.093-4.57,7.834,5,7.834,5,3.7-8.487a346.211,346.211,0,0,0,25.46-129.258c0-21.108-3.917-46.35-11.315-75.292,11.533-12.4,15.45-26.113,19.8-40.692l2.176-6.963A183.66,183.66,0,0,1,250.246,47.5l3.7-8.051ZM228.486,73.61c-3.264,12.186-6.093,21.978-14.362,31.335C209.337,88.407,204.985,76,203.461,71.434s6.311-9.139,18.279-14.8l-3.482-7.181c-18.714,8.922-22.849,20.02-23.066,20.455l-.435,1.306.435,1.306c.218.653,25.025,67.023,25.025,117.507a344.906,344.906,0,0,1-22.631,120.118l-10.88-6.963-9.792,7.4a38.952,38.952,0,0,1-6.311-10.445l10.01-3.264-2.829-7.616a148.407,148.407,0,0,1-102.275,0l-2.829,7.616,10.01,3.264a38.734,38.734,0,0,1-6.311,10.445l-9.792-7.4-10.88,6.963A344.47,344.47,0,0,1,33.076,190.029c0-50.484,24.807-116.854,25.025-117.507l.435-1.306L58.1,69.911c-.218-.435-4.352-11.533-23.066-20.455l-3.482,7.181c12.186,5.658,16.973,12.186,18.279,14.8s-6.093,16.973-10.663,33.511C30.9,95.806,28.071,85.8,24.807,73.61c-.87-3.264-1.741-6.528-2.829-9.792s-4.135-12.4-5.658-16.1A58.318,58.318,0,0,1,73.551,62.73l1.741,1.958,2.611-.87a138.615,138.615,0,0,1,48.526-8.487,138.615,138.615,0,0,1,48.961,8.487l2.611.87,1.741-1.958a58.971,58.971,0,0,1,57.23-15.015,159.3,159.3,0,0,0-5.658,16.1c-1.958,6.746-1.958,6.746-2.829,9.792" transform="translate(0 38.457)"/><path class="g" d="M65.82,109.2l-7.834,1.088c1.958,14.8,2.829,25.9,3.264,32.206l-11.1-3.482-8.269,8.7C38.62,141.841,32.744,130.743,26,115.511l-7.4,3.264A377.327,377.327,0,0,0,37.532,156.42l2.829,4.57,11.968-12.839,17.191,5.44v-5.658c0-.653-.653-15.232-3.7-38.734" transform="translate(21.875 128.425)"/><path class="g" d="M40.8,77.608a8.7,8.7,0,1,0-8.7-8.7,8.7,8.7,0,0,0,8.7,8.7" transform="translate(37.751 70.799)"/><path class="g" d="M85,77.608a8.7,8.7,0,1,0-8.7-8.7,8.7,8.7,0,0,0,8.7,8.7" transform="translate(89.733 70.799)"/><path class="g" d="M115.974,76.586C112.057,69.187,102.7,66.794,99,65.923A148.191,148.191,0,0,0,79.2,64.4a147.973,147.973,0,0,0-19.584,1.523c-3.7.653-13.056,3.046-16.973,10.663s-2.176,9.792.435,15.885c7.4,16.973,26.113,27.418,36.123,27.418s28.724-10.445,36.34-27.418c2.611-5.875,2.829-11.315.435-15.885m-7.616,12.4c-6.311,14.144-22.413,22.631-28.942,22.631s-22.849-8.487-29.159-22.413c-1.523-3.482-1.741-6.528-.653-8.7s7.181-5.658,11.315-6.528A143.83,143.83,0,0,1,79.2,72.669a143.838,143.838,0,0,1,18.279,1.306c4.352.87,9.575,2.829,11.315,6.528s.87,5.223-.653,8.7" transform="translate(47.448 75.738)"/><path class="g" d="M93.867,139.012l-11.1,3.482c.435-6.311,1.523-17.626,3.264-32.206L78.2,109.2c-3.046,23.719-3.7,38.081-3.7,38.734v5.658l17.191-5.44,11.968,12.839,2.829-4.57a377.317,377.317,0,0,0,18.932-37.646l-7.4-3.264c-6.746,15.232-12.621,26.33-15.885,32.206Z" transform="translate(87.616 128.425)"/><path class="g" d="M66.293,70.4A6.093,6.093,0,0,0,60.2,76.493v3.482a6.093,6.093,0,1,0,12.186,0V76.493A6.093,6.093,0,0,0,66.293,70.4" transform="translate(70.799 82.794)"/><path class="g" d="M56.793,70.4A6.093,6.093,0,0,0,50.7,76.493v3.482a6.093,6.093,0,0,0,12.186,0V76.493A6.093,6.093,0,0,0,56.793,70.4" transform="translate(59.626 82.794)"/><g class="h" transform="translate(152.977 117.942)"><g class="i"><path class="j" d="M79.631,94.562a22.2,22.2,0,1,0-5.223-30.9,22.2,22.2,0,0,0,5.223,30.9" transform="translate(-70.274 -54.088)"/></g></g><path d="M110.056,57.289a26.33,26.33,0,1,0,6.093,36.558,26.33,26.33,0,0,0-6.093-36.558m2.829,34.382a22.2,22.2,0,1,1-5.223-30.9,22.2,22.2,0,0,1,5.223,30.9" transform="translate(80.349 61.523)"/><path class="k" d="M107.156,68h1.306a80.078,80.078,0,0,0-.653,9.575,74.431,74.431,0,0,0,.435,8.269c.218,2.394.653,5,1.088,7.4s.87,4.352,1.306,6.528l2.611,10.88c.218,1.306.653,2.829.87,4.135a8.419,8.419,0,0,1,.218,1.958,12.4,12.4,0,0,1,0,2.829,6.528,6.528,0,0,1-.653,2.176l-1.306,1.523-1.523.87-1.958.653a11.316,11.316,0,0,1-4.352-.218,14.144,14.144,0,0,1-4.57-1.958L97.8,120.878l-1.088-1.523a11.751,11.751,0,0,1-1.306-2.611,18.061,18.061,0,0,1-.87-3.482,37.647,37.647,0,0,1-.435-4.787c0-1.523,0-3.264,0-4.787s.435-5.44.653-8.269.87-7.616,1.306-11.533S97.582,73.223,98.452,68h1.306c-3.482,22.2-4.352,32.423-4.352,39.169s1.088,10.01,2.829,12.186a12.621,12.621,0,0,0,7.181,4.135,7.616,7.616,0,0,0,5.875-1.088c1.523-1.088,2.176-2.829,1.523-6.963s-2.394-10.445-4.135-18.279A81.385,81.385,0,0,1,106.939,68" transform="translate(110.667 79.972)"/><path class="k" d="M107.627,125.348l-2.829-.435a14.362,14.362,0,0,1-4.787-1.958l-2.176-1.741-1.306-1.523a12.187,12.187,0,0,1-1.523-2.829,18.5,18.5,0,0,1-.87-3.7,37.857,37.857,0,0,1-.435-4.787v-4.787a71.662,71.662,0,0,1,.653-8.269c.435-3.264.87-7.181,1.306-11.533s1.306-9.792,2.394-15.885h1.741c-3.046,19.8-4.352,31.553-4.352,39.169s.87,9.575,2.829,11.968a12.186,12.186,0,0,0,6.963,3.917,7.616,7.616,0,0,0,5.875-.87c1.088-.87,2.176-2.176,1.523-6.746a92.417,92.417,0,0,0-1.958-9.575c-.87-3.917-1.306-5.658-1.958-8.7a82.038,82.038,0,0,1-1.306-28.942h1.741a80.734,80.734,0,0,0-.653,9.575,73.989,73.989,0,0,0,.435,8.269c.218,2.176.653,4.57,1.088,7.4s.87,4.135,1.306,6.528l1.088,5,1.306,5.875c.218,1.306.653,2.829.87,4.135v1.958a12.622,12.622,0,0,1,0,2.829,6.747,6.747,0,0,1-.653,2.176l-1.306,1.523-1.523.87-1.958.653h-1.741m-8.7-56.8c-.87,6.093-1.741,11.1-2.394,15.668s-1.088,8.051-1.306,11.533-.435,5.875-.653,8.269a34.494,34.494,0,0,0,0,4.787,35.9,35.9,0,0,0,.435,4.787,17.845,17.845,0,0,0,.87,3.482,11.752,11.752,0,0,0,1.306,2.611l1.088,1.306,1.958,1.741a13.926,13.926,0,0,0,4.57,1.958,11.1,11.1,0,0,0,4.352.218l1.958-.435,1.306-.87,1.306-1.523a6.311,6.311,0,0,0,.653-1.958,11.968,11.968,0,0,0,0-2.829V114.9a23.113,23.113,0,0,0-.87-4.135l-1.306-5.875-1.088-5-1.306-6.528c-.435-2.611-.87-5-1.088-7.4a74.2,74.2,0,0,1-.435-8.269,80.519,80.519,0,0,1,.653-9.357h-.653A81.6,81.6,0,0,0,109.8,97.277l1.958,8.7a83.322,83.322,0,0,1,1.958,9.575c.218,2.394,0,5.875-1.741,7.181a7.834,7.834,0,0,1-6.311,1.088,12.621,12.621,0,0,1-7.4-4.135c-2.176-2.611-3.046-6.093-3.046-12.4s1.306-19.149,4.352-38.951Z" transform="translate(110.196 79.854)"/><path d="M92.606,78.232A26.113,26.113,0,0,0,91.3,59.3h26.33V78.232Z" transform="translate(107.374 69.74)"/><g class="h" transform="translate(153.194 117.942)"><g class="l"><path class="j" d="M114.474,74.109a22.2,22.2,0,0,0-44.174,0Z" transform="translate(-70.518 -54.307)"/></g></g><path class="m" d="M145.376,35.528a115.983,115.983,0,0,1,21.761.653,37.646,37.646,0,0,1,8.922,2.176,33.511,33.511,0,0,1,8.051,4.352c8.269,7.834.653,14.8-7.4,18.714a93.788,93.788,0,0,1-23.5,7.616,240.673,240.673,0,0,1-49.4,4.57,241.54,241.54,0,0,1-49.4-4.57A94.877,94.877,0,0,1,30.7,61.423c-7.834-3.917-15.885-10.663-7.616-18.714a33.512,33.512,0,0,1,8.269-4.352,37.646,37.646,0,0,1,8.922-2.176,115.985,115.985,0,0,1,21.761-.653L103.6,56.418l41.78-20.89" transform="translate(23.05 41.504)"/><path class="n" d="M35.5,3.3h98.793l-3.917,87.913a145.8,145.8,0,0,1-90.742,0L35.5,3.3" transform="translate(41.75 3.881)"/><path class="m" d="M134.293,7.181c0,4.135-21.761,6.093-23.937,6.311-8.487.653-16.973,1.088-25.46,1.088a249.077,249.077,0,0,1-25.46-1.088C57.261,13.274,35.5,11.315,35.5,7.181S57.261,1.306,59.437,1.088A249.077,249.077,0,0,1,84.9,0a249.077,249.077,0,0,1,25.46,1.088c2.176.218,23.937,2.176,23.937,6.311" transform="translate(41.75)"/><path class="o" d="M37.1,37a147.972,147.972,0,0,0,92.047,0l-.435,7.616V51.8h-.435a144.923,144.923,0,0,1-14.58,3.917,144.49,144.49,0,0,1-30.682,3.046A144.707,144.707,0,0,1,52.768,55.5a145.36,145.36,0,0,1-14.58-3.917h-.435V44.4L37.1,37" transform="translate(43.632 43.514)"/></g></g><g transform="translate(412.827 103.682)"><g transform="translate(0 0)"><g class="p" transform="translate(5.881 4.071)"><rect class="q" width="251.98" height="270.551" transform="translate(-0.226 0)"/></g><g class="r"><path class="s" d="M78.141,81.858c9.048,0,26.917-10.4,33.929-26.012s-8.143-20.584-14.25-21.488A152.456,152.456,0,0,0,78.141,33a152.462,152.462,0,0,0-19.679,1.357c-6.107,1.131-21.262,6.107-14.25,21.488S69.093,81.858,78.141,81.858" transform="translate(53.504 41.644)"/><path class="t" d="M254.695,4.072A80.525,80.525,0,0,0,229.813,0h0a73.739,73.739,0,0,0-48.179,18.1,161.5,161.5,0,0,0-99.978,0A73.739,73.739,0,0,0,33.7,0,80.525,80.525,0,0,0,8.822,4.072L0,7.012l3.845,8.369A191.136,191.136,0,0,1,11.084,35.06L13.8,44.108c3.845,13.8,7.691,27.143,19,39.132q-10.857,39.018-10.857,69.894c0,74.87,25.786,118.3,26.917,120.109l4.3,7.238,7.238-4.524,8.143-5.2,6.333,4.75,5.881,4.524,5.2-5.2a59.715,59.715,0,0,0,10.857-15.381,166.478,166.478,0,0,0,34.834,3.619,193.847,193.847,0,0,0,35.286-2.714,60.394,60.394,0,0,0,10.4,14.476l5.2,5.2,5.881-4.524,6.333-4.75,8.143,5.2,7.238,4.524,4.3-7.238c1.131-1.81,26.917-45.239,26.917-120.109,0-20.584-3.619-43.882-10.631-69.668,11.31-12.214,14.929-25.334,19-39.132l2.714-9.048a191.6,191.6,0,0,1,7.238-19.679l3.845-8.369ZM237.278,44.334c-2.941,11.31-5.429,20.584-13.572,29.631-5.2-16.738-10.179-29.179-12.214-33.929,1.583-2.714,6.56-9.5,19-15.155l-3.619-7.464c-19.453,9.274-23.75,20.81-23.977,21.262l-.452,1.583.679,1.583c.226.679,26.012,59.941,26.012,112.192,0,59.037-17.191,98.168-23.072,109.93L194.3,256.5l-10.179,7.691a40.263,40.263,0,0,1-6.56-10.857l10.4-3.393-3.167-7.917a154.264,154.264,0,0,1-106.311,0l-2.941,7.917,10.4,3.393a40.264,40.264,0,0,1-6.56,10.857L69.215,256.5l-11.762,7.464c-5.881-11.762-23.072-50.667-23.072-109.93,0-52.251,25.786-111.74,26.012-112.192l.679-1.583-.452-1.583c-.226-.452-4.524-11.988-23.977-21.262l-3.619,7.464c12.441,5.881,17.417,12.441,19,15.155-1.81,4.524-7.012,17.191-12.214,33.929-8.369-9.048-10.631-18.322-13.572-29.631-.9-3.845-2.036-7.917-3.393-11.988s-4.524-12.893-5.881-16.738A60.62,60.62,0,0,1,76.454,31.215l1.81,2.036,2.714-.9a144.086,144.086,0,0,1,50.441-8.822,144.086,144.086,0,0,1,50.441,8.822l2.714.9,1.81-2.036a61.3,61.3,0,0,1,59.489-15.607,165.587,165.587,0,0,0-5.881,16.738c-2.036,7.012-2.262,8.143-3.393,11.988" transform="translate(0 0)"/><path class="t" d="M41.148,44.9A9.048,9.048,0,1,0,32.1,35.848,9.048,9.048,0,0,0,41.148,44.9" transform="translate(40.508 33.82)"/><path class="t" d="M85.348,44.9A9.048,9.048,0,1,0,76.3,35.848,9.048,9.048,0,0,0,85.348,44.9" transform="translate(96.286 33.82)"/><path class="t" d="M57.033,37A6.333,6.333,0,0,0,50.7,43.333v3.619a6.333,6.333,0,1,0,12.667,0V43.333A6.333,6.333,0,0,0,57.033,37" transform="translate(63.98 46.692)"/><path class="t" d="M118.959,43.667c-4.072-7.691-13.8-10.179-17.643-11.084A154.044,154.044,0,0,0,80.732,31a153.812,153.812,0,0,0-20.357,1.583c-3.845.679-13.572,3.167-17.643,11.084s-2.262,10.179.452,16.512c7.691,17.643,27.143,28.5,37.548,28.5s29.858-10.857,37.774-28.5c2.714-6.107,2.941-11.762.452-16.512M111.042,56.56c-6.56,14.7-23.3,23.524-30.084,23.524s-23.75-8.822-30.31-23.3c-1.583-3.619-1.81-6.786-.679-9.048s7.464-5.881,11.762-6.786a149.512,149.512,0,0,1,19-1.357,149.519,149.519,0,0,1,19,1.357c4.524.9,9.953,2.941,11.762,6.786s.9,5.429-.679,9.048" transform="translate(50.913 39.12)"/><path class="t" d="M66.533,37A6.333,6.333,0,0,0,60.2,43.333v3.619a6.333,6.333,0,0,0,12.667,0V43.333A6.333,6.333,0,0,0,66.533,37" transform="translate(75.969 46.692)"/></g></g></g><g transform="translate(507.328 304.838)"><g transform="translate(-107.146 -112.909)"><g class="u" transform="translate(4.787 39.582)"><rect class="v" width="204.904" height="181.541" transform="translate(-0.184 0)"/></g><g class="w"><path class="x" d="M71.49,92.066c7.364,0,21.908-8.469,27.615-21.172s-6.628-16.753-11.6-17.49A124.081,124.081,0,0,0,71.49,52.3a124.084,124.084,0,0,0-16.017,1.1c-4.971.921-17.305,4.971-11.6,17.49S64.125,92.066,71.49,92.066" transform="translate(35.657 43.984)"/><path class="y" d="M123.715,77.508a125.74,125.74,0,0,0-16.753-1.289,125.738,125.738,0,0,0-16.569,1.289c-3.13.552-11.046,2.577-14.36,9.021s-1.841,8.285.368,13.255c6.444,14.36,22.276,23.2,30.745,23.2s24.3-8.837,30.745-23.2c2.209-4.971,2.393-9.573.368-13.255s-11.23-8.285-14.36-9.021m7.916,19.515c-5.339,11.782-18.962,19.146-24.485,19.146S88,108.989,82.661,97.022c-1.289-2.946-1.473-5.523-.552-7.364s6.075-4.787,9.573-5.523a120.955,120.955,0,0,1,15.464-1.1,121.134,121.134,0,0,1,15.464,1.1c3.682.736,8.1,2.393,9.573,5.523s.736,4.418-.552,7.364m75.481-74.008A65.54,65.54,0,0,0,186.862,19.7a60.017,60.017,0,0,0-39.029,14.728,131.263,131.263,0,0,0-81.188,0A60.017,60.017,0,0,0,27.615,19.7,65.356,65.356,0,0,0,7.364,23.014L0,25.407l3.13,6.812A156.674,156.674,0,0,1,9.021,48.236c.92,2.946,1.657,5.523,2.393,8.1,2.577,9.389,4.787,17.49,12.519,26.326A138.259,138.259,0,0,0,17.858,122.8c0,25.774,3.682,47.13,11.046,63.7,5.707,12.887,11.6,18.042,12.335,18.594l3.866,3.13,4.234-2.577,6.628-4.234,5.155,3.866,4.971,3.866,4.234-4.787a58.36,58.36,0,0,0,8.1-12.335,134.945,134.945,0,0,0,57.623,0,58.358,58.358,0,0,0,8.1,12.335l4.234,4.787,4.971-3.866,5.155-3.866,6.628,4.234,4.234,2.577,3.866-3.13c.736-.552,6.628-5.707,12.335-18.594,7.364-16.569,11.046-37.925,11.046-63.7a138.259,138.259,0,0,0-5.891-40.318c7.732-8.837,9.941-16.937,12.519-26.326.736-2.577,1.473-5.155,2.393-8.1a156.842,156.842,0,0,1,5.891-16.017l3.13-6.812Zm-11.6,22.276c-.921,3.13-1.657,5.707-2.393,8.469-2.209,8.285-3.866,14.36-9.021,20.619a111.933,111.933,0,0,0-11.967-23.013c1.473-2.393,5.707-7.548,15.28-11.967l-2.946-6.259c-15.833,7.548-19.331,16.937-19.515,17.305l-.552,1.841,1.1,1.473c.184.184,20.619,27.063,20.619,69.222,0,47.13-13.439,67.2-18.042,72.9l-10.31-6.444-8.285,6.259a32.769,32.769,0,0,1-5.339-8.837l8.469-2.762-2.393-6.444a125.372,125.372,0,0,1-86.527,0L61.305,184.1l8.469,2.762a32.586,32.586,0,0,1-5.339,8.837l-8.285-6.259L46.025,195.7c-4.787-5.523-18.042-25.406-18.042-72.9,0-41.975,20.435-68.854,20.619-69.222l1.1-1.473-.552-1.841c-.184-.368-3.682-9.757-19.515-17.305l-2.946,6.075C36.268,43.449,40.318,48.6,41.975,51A112.117,112.117,0,0,0,30.008,74.01C24.854,67.566,23.2,61.491,20.987,53.39c-.736-2.577-1.473-5.339-2.393-8.469S15.1,34.428,13.808,31.3A49.339,49.339,0,0,1,62.226,44L63.7,45.658l2.209-.736a117.088,117.088,0,0,1,41.054-7.18,117.088,117.088,0,0,1,41.054,7.18l2.209.736L151.7,44a49.339,49.339,0,0,1,48.418-12.7,134.779,134.779,0,0,0-4.787,13.623M103.28,91.867v2.946a5.155,5.155,0,1,1-10.31,0V92.236a5.155,5.155,0,0,1,10.31,0M73.64,75.667A7.364,7.364,0,1,1,66.276,68.3a7.364,7.364,0,0,1,7.364,7.364m47.13,16.569v2.946a5.155,5.155,0,1,1-10.31,0V92.236a5.155,5.155,0,0,1,10.31,0m34.243-16.569a7.364,7.364,0,1,1-7.364-7.364,7.364,7.364,0,0,1,7.364,7.364" transform="translate(0 16.568)"/><path class="z" d="M87.305,22.078h0a3.738,3.738,0,0,0,1.289-7.364A3.682,3.682,0,0,0,85.833,7.9a3.7,3.7,0,1,0-6.075-4.234A3.687,3.687,0,1,0,72.393,3.3,3.757,3.757,0,1,0,65.95,7.166a3.7,3.7,0,0,0-3.314,6.628h0A72.168,72.168,0,0,1,74.05,16.555l1.289.368,1.289.368a72.351,72.351,0,0,1,10.862,4.6" transform="translate(50.954 -0.17)"/><path class="aa" d="M80.571,42.915h48.971c0-19.7-21.356-35.715-47.682-35.715H79.282C52.956,7.2,31.6,23.217,31.6,42.915Z" transform="translate(26.576 6.055)"/><path class="ab" d="M84.776,16.4h1.289c31.481,0,56.887,8.837,56.887,19.515v16.2s-16.937-9.573-56.887-9.573H83.487c-39.95,0-56.887,9.573-56.887,9.573v-16.2C26.6,25.237,52.006,16.4,83.487,16.4h1.289" transform="translate(22.371 13.792)"/><path class="ac" d="M85.459,34.39a204.54,204.54,0,0,1,30.929,2.025,123.713,123.713,0,0,1,15.28,3.314,59.648,59.648,0,0,1,9.389,3.314l1.473.736c.552.368,1.1.736,1.657,0a2.946,2.946,0,0,0,.736-2.025,2.577,2.577,0,0,0-1.657-2.762,56.7,56.7,0,0,0-11.782-4.234,130.707,130.707,0,0,0-15.1-3.13A208.955,208.955,0,0,0,85.459,29.6,208.774,208.774,0,0,0,54.53,31.629a130.712,130.712,0,0,0-15.28,3.13,56.7,56.7,0,0,0-11.782,4.234,2.577,2.577,0,0,0-1.657,2.762,2.946,2.946,0,0,0,.736,2.025c.552.736,1.1.184,1.657,0l1.473-.736a59.832,59.832,0,0,1,9.389-3.314,123.533,123.533,0,0,1,15.28-3.13A204.537,204.537,0,0,1,85.275,34.39" transform="translate(21.687 24.89)"/><path class="ac" d="M90.809,27.173V44.294L88.6,43.19V25.7h1.841l.368,1.473" transform="translate(74.513 21.614)"/><path class="ac" d="M86.1,42.878V24.1h2.209V43.615L86.1,42.878" transform="translate(72.41 20.268)"/><path class="ac" d="M83.6,42.835V22.4h2.209V43.572L83.6,42.835" transform="translate(70.308 18.838)"/><path class="ac" d="M26.7,27.173V44.294l2.209-1.1V25.7H27.068L26.7,27.173" transform="translate(22.455 21.614)"/><path class="ac" d="M31.493,42.878V24.1H29.1V43.615l2.209-.736" transform="translate(24.473 20.268)"/><path class="ac" d="M33.809,42.835V22.4H31.6V43.572l2.209-.736" transform="translate(26.576 18.838)"/><path class="ac" d="M81.1,42.556V21.2h2.209V43.292L81.1,42.74" transform="translate(68.205 17.829)"/><path class="ac" d="M38.809,42.392V20.3H36.6V42.944l2.209-.552" transform="translate(30.781 17.072)"/><path class="ac" d="M41.393,42.244V19.6H39V42.613l2.209-.368" transform="translate(32.799 16.484)"/><path class="ac" d="M41.5,42.381l2.209-.368V19H41.5Z" transform="translate(34.902 15.979)"/><path class="ac" d="M44,42.065h2.209V18.5H44Z" transform="translate(37.004 15.559)"/><path class="ac" d="M48.709,41.765V18.2H46.5V41.949h2.209" transform="translate(39.107 15.306)"/><path class="ac" d="M49,41.833h2.209V17.9H49Z" transform="translate(41.209 15.054)"/><rect class="ac" width="2.209" height="24.025" transform="translate(94.628 32.586)"/><rect class="ac" width="2.209" height="24.117" transform="translate(99.23 32.218)"/><rect class="ac" width="2.209" height="24.136" transform="translate(103.833 32.218)"/><path class="ac" d="M78.6,42.392V20.3h2.209V42.944L78.6,42.392" transform="translate(66.103 17.072)"/><path class="ac" d="M76.1,42.244V19.6h2.209V42.613L76.1,42.244" transform="translate(64 16.484)"/><path class="ac" d="M75.909,42.381,73.7,42.013V19h2.209Z" transform="translate(61.982 15.979)"/><path class="ac" d="M73.409,42.065H71.2V18.5h2.209Z" transform="translate(59.879 15.559)"/><path class="ac" d="M68.7,41.765V18.2h2.209V41.949H68.7" transform="translate(57.777 15.306)"/><path class="ac" d="M68.593,41.833H66.2V17.9h2.209Z" transform="translate(55.674 15.054)"/><rect class="ac" width="2.209" height="24.025" transform="translate(117.272 32.586)"/><rect class="ac" width="2.209" height="24.117" transform="translate(112.854 32.218)"/><rect class="ac" width="2.209" height="24.136" transform="translate(108.251 32.218)"/><path class="ac" d="M36.309,42.556V21.2H34.1V43.292l2.209-.552" transform="translate(28.678 17.829)"/></g></g></g><g transform="translate(141.77)"><g class="ae" transform="matrix(1, 0, 0, 1, -141.77, -4.6)"><path class="ad" d="M525.326,714.463,508.7,727.107l-3.706-3.742c-.539-.545-11.926-12.161-16.207-25.066a233.893,233.893,0,0,1-108.219,0c-4.278,12.905-15.668,24.521-16.2,25.066l-3.706,3.742-16.631-12.644-21.249,13.46-2.831-6.332c-.376-.843-37.73-85.582-37.73-191.61,0-31.509,5.982-70.068,17.784-114.652-17.96-18.062-24.113-38.983-30.614-61.078-1.019-3.458-2.051-6.968-3.145-10.521a281.973,281.973,0,0,0-10.74-29.05l-2.74-6.1,6.355-2.074a110.146,110.146,0,0,1,34.144-5.633,100.16,100.16,0,0,1,67.939,26.8,226.575,226.575,0,0,1,146.958,0,100.145,100.145,0,0,1,67.939-26.8,110.145,110.145,0,0,1,34.144,5.633l6.355,2.07-2.74,6.1a281.458,281.458,0,0,0-10.744,29.05c-1.091,3.553-2.126,7.063-3.141,10.521-6.5,22.091-12.654,43.01-30.608,61.072,11.8,44.14,17.777,82.7,17.777,114.658,0,106.028-37.354,190.767-37.729,191.61l-2.835,6.332Z" transform="translate(-102.75 -288.88)"/></g><g transform="translate(0)"><path class="y" d="M617.8,304.542a116.232,116.232,0,0,0-36.005-5.93c-34.627,0-58.724,16.791-69.323,25.99a233.105,233.105,0,0,0-144.192,0c-10.6-9.2-34.7-25.99-69.323-25.99a116.169,116.169,0,0,0-36.005,5.93l-12.713,4.147,5.486,12.193A276.074,276.074,0,0,1,266.2,349.24c1.081,3.5,2.116,7.031,3.122,10.443,6.433,21.872,12.543,42.638,29.71,61.124-11.364,43.705-17.124,81.664-17.124,112.915,0,107.3,36.691,190.568,38.255,194.063l5.662,12.663,11.723-7.426,11.86-7.514,9.114,6.933,8.389,6.378,7.413-7.491c1.274-1.29,10.293-10.629,15.622-22.3a239.65,239.65,0,0,0,100.852,0c5.329,11.671,14.349,21.014,15.622,22.3l7.413,7.491,8.389-6.378,9.114-6.933,11.864,7.514,11.72,7.426,5.662-12.663c1.564-3.494,38.255-86.758,38.255-194.062,0-31.685-5.754-69.65-17.111-112.931,17.157-18.479,23.264-39.235,29.7-61.1,1.006-3.416,2.044-6.946,3.122-10.45a276.179,276.179,0,0,1,10.482-28.361l5.473-12.19Zm-24.723,55.664c-5.042,18.267-9.163,33.1-21.627,46.922-7.037-24.772-13.682-43.526-16.106-50.155,2.286-3.9,9.444-13.611,27.561-22.137l-5.114-10.861c-28.129,13.238-34.376,29.915-34.627,30.621l-.748,2.077.78,2.067c.376,1,37.635,100.64,37.635,176.406,0,86.784-25.6,158.88-34.033,180.266l-16.4-10.388-14.659,11.145c-3.344-4.072-7.547-10.061-9.607-15.825,5.065-1.483,10.1-3.083,15.087-4.908l-4.131-11.273a222.559,222.559,0,0,1-153.433,0l-4.131,11.273c4.983,1.825,10.025,3.426,15.09,4.908-2.064,5.767-6.267,11.756-9.61,15.825l-14.659-11.145-16.4,10.388c-8.432-21.36-34.027-93.374-34.027-180.266,0-75.766,37.256-175.407,37.632-176.406l.78-2.067-.744-2.077c-.251-.705-6.5-17.382-34.631-30.621l-5.114,10.861c18.163,8.549,25.311,18.287,27.564,22.127-2.42,6.626-9.068,25.386-16.109,50.165-12.464-13.82-16.586-28.655-21.627-46.922-1.316-4.774-2.678-9.708-4.258-14.842-3.083-10.012-6.371-18.633-8.595-24.119,52.744-13.8,84.642,21,86.017,22.535l2.73,3.086,3.863-1.44a213.982,213.982,0,0,1,145.89,0l3.863,1.44,2.733-3.086c.333-.379,32.959-36.342,86.013-22.532-2.224,5.489-5.512,14.107-8.595,24.116C595.753,350.5,594.391,355.432,593.075,360.206Z" transform="translate(-250.236 -298.612)"/><path class="y" d="M339.477,375.053l-11.9,1.567c2.9,22.062,4.35,38.971,5.029,48.48L316,419.8l-12.285,13.176c-4.849-8.791-13.67-25.546-23.789-48.333l-10.972,4.872c15.625,35.189,27.914,55.765,28.429,56.621l4.1,6.835,18.11-19.42,25.886,8.265-.359-8.582C345.09,432.327,344.14,410.536,339.477,375.053Z" transform="translate(-207.821 -125.435)"/><path class="y" d="M295.51,339.232c7.3,0,13.209,7.3,13.209,0a13.211,13.211,0,0,0-26.421,0C282.3,346.527,288.212,339.232,295.51,339.232Z" transform="translate(-177.599 -236.512)"/><path class="y" d="M339.747,339.232c7.3,0,13.209,7.3,13.209,0a13.211,13.211,0,0,0-26.421,0C326.535,346.527,332.452,339.232,339.747,339.232Z" transform="translate(-77.38 -236.512)"/><path class="y" d="M354.067,419.8l-16.6,5.3c.676-9.509,2.126-26.415,5.026-48.48l-11.9-1.567c-4.663,35.483-5.61,57.274-5.649,58.181l-.356,8.582,25.886-8.265,18.111,19.42,4.1-6.835c.513-.856,12.8-21.432,28.429-56.621l-10.975-4.872c-10.116,22.787-18.94,39.542-23.786,48.333Z" transform="translate(-81.789 -125.435)"/></g><g transform="translate(132.487 103.853)"><path class="x" d="M344.281,403.023c13.147,0,38.882-14.913,49.018-37.5,10.107-22.526-11.785-29.592-20.52-31.186-10.463-1.91-28.5-2.08-28.5-2.08s-18.035.17-28.5,2.08c-8.735,1.594-30.627,8.66-20.52,31.186C305.4,388.109,331.134,403.023,344.281,403.023Z" transform="translate(-286.631 -326.251)"/><path class="y" d="M403.56,348.457c-5.884-11.188-19.812-14.822-25.526-15.867-10.845-1.979-28.763-2.168-29.631-2.175-.758.007-18.675.2-29.52,2.175-5.715,1.045-19.642,4.679-25.526,15.864-3.589,6.825-3.386,14.789.6,23.685,11.413,25.435,39.431,41.054,54.5,41.054s43.085-15.619,54.5-41.054C406.943,363.243,407.149,355.279,403.56,348.457ZM392,367.224c-9.45,21.066-33.563,33.961-43.542,33.961s-34.092-12.9-43.542-33.961c-2.4-5.355-2.717-9.79-.934-13.18,2.8-5.323,10.646-8.471,17.056-9.643,9.826-1.793,27.3-1.979,27.362-1.982.176,0,17.65.189,27.479,1.982,6.407,1.172,14.254,4.32,17.056,9.643C394.717,357.434,394.4,361.868,392,367.224Z" transform="translate(-290.808 -330.415)"/><path class="y" d="M319.624,336.259a9.236,9.236,0,0,0-9.209,9.209v5.365a9.21,9.21,0,0,0,18.421,0v-5.365A9.237,9.237,0,0,0,319.624,336.259Z" transform="translate(-246.387 -317.175)"/><path class="y" d="M310.078,336.259a9.236,9.236,0,0,0-9.209,9.209v5.365a9.209,9.209,0,0,0,18.417,0v-5.365A9.236,9.236,0,0,0,310.078,336.259Z" transform="translate(-268.014 -317.175)"/></g></g></g></g></svg>