<svg xmlns="http://www.w3.org/2000/svg" viewBox="0 0 24 24"><title>amigos</title><g id="Layer_2" data-name="Layer 2"><g id="Layer_2-2" data-name="Layer 2"><g id="salir"><g opacity="0"><rect width="24" height="24" fill="#fff"/></g><path d="M14.4,14.8c-1.2-.5-1.7-.9-1.7-1.8s.5-.3.6-1.2.4,0,.4-.9a.4.4,0,0,0-.2-.4,7.8,7.8,0,0,0,.1-.9c0-.5-.3-1.7-2.1-1.7s-2.1,1.3-2,1.7a5.5,5.5,0,0,0,.1.9.4.4,0,0,0-.2.4c.1.9.4.5.4.9s.6.7.6,1.2-.5,1.2-1.7,1.8l-.9.3v2h8.1V16c.4-.3-.2-.7-1.5-1.2Z" fill="#1eea00"/><path d="M22.5,9.7a1.3,1.3,0,0,0-.5-.6L19.4,6.8v-1a1.6,1.6,0,0,0-1.6-1.6H16L13.4,1.9a2.2,2.2,0,0,0-2.7,0L7.9,4H6.2A1.7,1.7,0,0,0,4.6,5.7V6.8L1.9,9.1l-.4.6a3.5,3.5,0,0,0-.1.7V20.5a2,2,0,0,0,2,2.1H20.5a2.1,2.1,0,0,0,2.1-2.1V10.4C22.7,10,22.6,9.7,22.5,9.7Zm-1.6.2-1.5,1.2V8.7Zm-9.4-7a.7.7,0,0,1,.9,0L13.8,4H10ZM6.2,5.4H17.8c.1,0,.2.1.2.3v6.5l-5.5,4.7a.6.6,0,0,1-.8,0L6.1,12.3V5.8C6,5.5,6.1,5.4,6.2,5.4ZM4.6,11.1,3.1,9.9,4.6,8.8Z" fill="#1eea00"/></g></g></g></svg>