<?xml version="1.0" encoding="utf-8"?>
<!-- Generator: Adobe Illustrator 24.1.0, SVG Export Plug-In . SVG Version: 6.00 Build 0)  -->
<svg version="1.1" id="Capa_1" xmlns="http://www.w3.org/2000/svg" xmlns:xlink="http://www.w3.org/1999/xlink" x="0px" y="0px"
	 viewBox="0 0 512 512" style="enable-background:new 0 0 512 512;" xml:space="preserve">
<g>
	<g>
		<g>
			<circle cx="256" cy="294" r="20"/>
			<path d="M461.2,214l50.8-87.6V111c0-0.6,0-1.3,0-2.1c0.2-12.9,0.8-52-24.7-77.9C472.3,15.8,451.7,8,425.9,8H86.1
				C60.3,8,39.7,15.8,24.7,31C-0.8,56.9-0.2,96,0,108.9c0,0.8,0,1.5,0,2.1v15.4L50.8,214H0.1v290H512V214H461.2z M53.2,59
				c7.3-7.4,18-11,32.8-11h339.9c14.8,0,25.6,3.6,32.8,11c8.3,8.4,11.4,21.1,12.6,32H40.6C41.8,80.2,44.9,67.5,53.2,59z M49,131h414
				l-48.1,83H97.1L49,131z M296,254v46.7c0,18.4-14.9,33.3-33.3,33.3h-13.5c-18.4,0-33.3-14.9-33.3-33.3V254H296z M472,464H40.1V254
				h136v57.4c0,34.6,28,62.6,62.6,62.6h34.7c34.6,0,62.6-28,62.6-62.6V254h136V464z"/>
		</g>
	</g>
</g>
</svg>
