<?xml version="1.0" encoding="utf-8"?>
<!-- Generator: Adobe Illustrator 24.1.0, SVG Export Plug-In . SVG Version: 6.00 Build 0)  -->
<svg version="1.1" id="Capa_1" xmlns="http://www.w3.org/2000/svg" xmlns:xlink="http://www.w3.org/1999/xlink" x="0px" y="0px"
	 viewBox="0 0 24 24" style="enable-background:new 0 0 24 24;" xml:space="preserve">
<style type="text/css">
	.st0{fill:none;}
	.st1{fill:#1EEB00;}
</style>
<rect class="st0" width="24" height="24"/>
<path class="st1" d="M20.7,10.2l2.2-3.7V5.8c0.1-1.2-0.3-2.4-1-3.3c-0.7-0.7-1.6-1-2.6-1H4.8c-1,0-1.9,0.3-2.6,1
	c-0.7,0.9-1.1,2.1-1,3.3v0.7l2.2,3.7H1.1v12.3h21.8V10.2H20.7z M3.4,3.6c0.4-0.3,0.9-0.5,1.4-0.5h14.4c0.5,0,1,0.1,1.4,0.5
	C20.9,4,21.1,4.5,21.1,5H2.8C2.9,4.5,3.1,4,3.4,3.6z M3.2,6.7h17.6l-2,3.5H5.2L3.2,6.7z M13.7,11.9v2c0,0.8-0.6,1.4-1.4,1.4
	c0,0,0,0,0,0h-0.6c-0.8,0-1.4-0.6-1.4-1.4c0,0,0,0,0,0v-2L13.7,11.9z M21.2,20.8H2.8v-8.9h5.8v2.4c0,1.5,1.2,2.7,2.7,2.6h1.5
	c1.5,0,2.7-1.2,2.7-2.7v-2.4h5.8V20.8z"/>
</svg>
