<svg xmlns="http://www.w3.org/2000/svg" viewBox="0 0 24 24"><title>ajustes</title><g id="Layer_2" data-name="Layer 2"><g id="Layer_2-2" data-name="Layer 2"><g id="ajustes"><path id="configuración" d="M19.5,13a6.7,6.7,0,0,0,0-2l2.2-1.6c.2-.1.2-.4.1-.6l-2-3.4a.4.4,0,0,0-.6-.3l-2.6,1a5.6,5.6,0,0,0-1.7-.9l-.4-2.7a.5.5,0,0,0-.5-.4H10a.5.5,0,0,0-.5.4L9.1,5.2a5.6,5.6,0,0,0-1.7.9l-2.6-1a.4.4,0,0,0-.6.3l-2,3.4c-.1.2-.1.5.1.6L4.5,11a6.7,6.7,0,0,0,0,2L2.3,14.6a.5.5,0,0,0-.1.6l2,3.4a.4.4,0,0,0,.6.3l2.6-1a9.5,9.5,0,0,0,1.7,1l.4,2.6a.5.5,0,0,0,.5.4h4a.5.5,0,0,0,.5-.4l.4-2.6a9.5,9.5,0,0,0,1.7-1l2.6,1a.4.4,0,0,0,.6-.3l2-3.4a.5.5,0,0,0-.1-.6ZM12,15.5A3.6,3.6,0,0,1,8.4,12a3.6,3.6,0,0,1,7.2,0h0A3.6,3.6,0,0,1,12,15.5Z" fill="#1eea00"/><g opacity="0"><rect width="24" height="24" fill="#fff"/></g></g></g></g></svg>