<svg xmlns="http://www.w3.org/2000/svg" viewBox="0 0 24 24"><title>historial</title><g id="Layer_2" data-name="Layer 2"><g id="Layer_2-2" data-name="Layer 2"><g id="historial"><path id="Historial-2" data-name="Historial" d="M13.7,2A10.2,10.2,0,0,0,3.4,12H0l4.4,4.3v.2L9.1,12H5.7a7.9,7.9,0,0,1,8-7.8,7.8,7.8,0,0,1,8.1,7.7A8.1,8.1,0,0,1,8.1,17.5L6.4,19.1a10.6,10.6,0,0,0,14.6,0A9.9,9.9,0,0,0,21,4.9,10.8,10.8,0,0,0,13.7,2ZM12.6,7.6v5.5l4.9,2.8.8-1.3-4-2.3V7.6Z" fill="#1eea00"/><g opacity="0"><rect width="24" height="24" fill="#fff"/></g></g></g></g></svg>