<svg xmlns="http://www.w3.org/2000/svg" viewBox="0 0 24 24"><title>mimarrano</title><g id="Layer_2" data-name="Layer 2"><g id="Layer_2-2" data-name="Layer 2"><g id="mimarrano"><g id="MiMarrano-2" data-name="MiMarrano"><path d="M24,2.3l-.5,1.2a6.4,6.4,0,0,0-.6,1.6l-.3.8a6.3,6.3,0,0,1-1.2,2.8,18.4,18.4,0,0,1,.5,4.1c0,6.6-2.3,8.8-2.6,9l-.7.6-.7-.5-.4-.3-.3.2-.9.7-.7-.8-.8-1.1a13.2,13.2,0,0,1-5.6,0,3.8,3.8,0,0,1-.8,1.1l-.7.8-.9-.7-.3-.2-.4.3-.7.5-.7-.6c-.3-.2-2.6-2.4-2.6-9a18.4,18.4,0,0,1,.5-4.1A6.3,6.3,0,0,1,1.4,5.9a1.9,1.9,0,0,1-.2-.8A9.9,9.9,0,0,0,.5,3.5L0,2.3l1.3-.4a5.9,5.9,0,0,1,2.3-.4A6.9,6.9,0,0,1,7.8,3,14.2,14.2,0,0,1,12,2.4a14.2,14.2,0,0,1,4.2.6,6.9,6.9,0,0,1,4.2-1.5,5.9,5.9,0,0,1,2.3.4Z" fill="#1eeb00"/><path d="M12,12.8a4.4,4.4,0,0,1-3.3-2.4A1.7,1.7,0,0,1,8.7,9a2.5,2.5,0,0,1,1.5-1h3.6a2.5,2.5,0,0,1,1.5,1,1.7,1.7,0,0,1,0,1.4A4.4,4.4,0,0,1,12,12.8Zm0-4.2H10.4a2,2,0,0,0-1.1.6,1.2,1.2,0,0,0,.1.8,3.9,3.9,0,0,0,2.6,2,3.9,3.9,0,0,0,2.6-2,1.2,1.2,0,0,0,.1-.8,2,2,0,0,0-1.1-.6Z" fill="#004b40"/><path d="M22.5,2.7a5.9,5.9,0,0,0-6.1,1.2A13.1,13.1,0,0,0,12,3.2a13.1,13.1,0,0,0-4.4.7A5.9,5.9,0,0,0,1.5,2.7H1.1l.2.3c0,.1.4.8.7,1.8a1.9,1.9,0,0,0,.2.8A5.7,5.7,0,0,0,3.6,8.5a13.3,13.3,0,0,0-.7,4.3c0,6.4,2.3,8.3,2.4,8.4h.2l1.1-.7,1,.8.2-.3a5.5,5.5,0,0,0,1-1.4A16.6,16.6,0,0,0,12,20a16.6,16.6,0,0,0,3.2-.3,5.5,5.5,0,0,0,1,1.4l.2.3,1-.8,1.2.7h.2c0-.1,2.3-2,2.3-8.4a13.3,13.3,0,0,0-.7-4.3,5.7,5.7,0,0,0,1.4-2.8l.3-.8c.3-1,.6-1.7.6-1.8l.2-.3Zm-1.1,2-.3.8a5.4,5.4,0,0,1-.9,2.2,14.1,14.1,0,0,0-1.3-2.4A3.8,3.8,0,0,1,20.5,4l-.3-.6a4.7,4.7,0,0,0-2.1,1.8v.2h.1a13.4,13.4,0,0,1,2.2,7.3c0,4.9-1.4,7-1.9,7.6l-1.1-.6-.9.6a2.8,2.8,0,0,1-.6-.9l.9-.3-.2-.7a12.1,12.1,0,0,1-4.6.8,12.1,12.1,0,0,1-4.6-.8l-.2.7.9.3a2.8,2.8,0,0,1-.6.9l-.9-.6-1.1.6c-.5-.5-1.9-2.6-1.9-7.6A13.4,13.4,0,0,1,5.8,5.5h.1V5.2A4,4,0,0,0,3.8,3.4L3.5,4A3.8,3.8,0,0,1,5.1,5.3,14.1,14.1,0,0,0,3.8,7.7a5.4,5.4,0,0,1-.9-2.2l-.3-.8a5.3,5.3,0,0,0-.5-1.5A5.3,5.3,0,0,1,7.3,4.6h.3A13.2,13.2,0,0,1,12,3.9a13.2,13.2,0,0,1,4.4.8h.3a5.3,5.3,0,0,1,5.2-1.4A13.1,13.1,0,0,0,21.4,4.7Z" fill="#004b40"/><rect x="10.5" y="9" width="1.1" height="1.41" rx="0.5" fill="#004a3d"/><ellipse cx="7.7" cy="7.8" rx="0.8" ry="0.8" fill="#004a3d"/><rect x="12.4" y="9" width="1.1" height="1.41" rx="0.5" transform="translate(25.9 19.5) rotate(-180)" fill="#004a3d"/><ellipse cx="16.3" cy="7.8" rx="0.8" ry="0.8" fill="#004a3d"/></g><g opacity="0"><rect width="24" height="24" fill="#fff"/></g></g></g></g></svg>