<svg xmlns="http://www.w3.org/2000/svg" viewBox="0 0 24 24"><title>miplata</title><g id="Layer_2" data-name="Layer 2"><g id="Layer_2-2" data-name="Layer 2"><g id="miplata"><path id="MiPlata-2" data-name="MiPlata" d="M17.6,19.3a6.8,6.8,0,0,1-4.2,1.8V24H11V21.2a18.6,18.6,0,0,1-3.4-.6A10.5,10.5,0,0,1,5,19.2l1.3-3.1,2.2,1.2a10.2,10.2,0,0,0,2.5.6V13.6a16.3,16.3,0,0,1-2.9-1,4.8,4.8,0,0,1-2-1.5,4.7,4.7,0,0,1-.8-2.8A4.9,4.9,0,0,1,6.8,4.7,7.5,7.5,0,0,1,11,2.8V0h2.4V2.8a11.3,11.3,0,0,1,4.9,1.5L17.1,7.5a7.9,7.9,0,0,0-3.7-1.3v4.3l2.8.9a5.3,5.3,0,0,1,2,1.6,4.6,4.6,0,0,1,.8,2.7A5.2,5.2,0,0,1,17.6,19.3ZM9.7,9.2a5,5,0,0,0,1.3.7V6.2A2.7,2.7,0,0,0,9.6,7a2.1,2.1,0,0,0-.4,1.1A1.6,1.6,0,0,0,9.7,9.2Zm5,7.9a1.5,1.5,0,0,0,.4-1.1,1.2,1.2,0,0,0-.4-1,4.9,4.9,0,0,0-1.3-.8v3.6A3.2,3.2,0,0,0,14.7,17.1Z" fill="#1eea00"/><g opacity="0"><rect width="24" height="24" fill="#fff"/></g></g></g></g></svg>