<svg xmlns="http://www.w3.org/2000/svg" viewBox="0 0 24 24"><title>referidos</title><g id="Layer_2" data-name="Layer 2"><g id="Layer_2-2" data-name="Layer 2"><g id="referidos"><g id="gift"><g id="Group_6150" data-name="Group 6150"><g id="Group_6149" data-name="Group 6149"><rect id="Rectangle_5184" data-name="Rectangle 5184" x="12.5" y="12.8" width="5.7" height="7.23" fill="#1eea00"/></g></g><g id="Group_6152" data-name="Group 6152"><g id="Group_6151" data-name="Group 6151"><rect id="Rectangle_5185" data-name="Rectangle 5185" x="5.8" y="12.8" width="5.7" height="7.23" fill="#1eea00"/></g></g><g id="Group_6154" data-name="Group 6154"><g id="Group_6153" data-name="Group 6153"><path id="Path_10230" data-name="Path 10230" d="M16.5,7a2.2,2.2,0,0,0-.8-2.8l-1-.2a3.1,3.1,0,0,0-2.3,1.2l-.4.5-.4-.5A3.1,3.1,0,0,0,9.3,4a2,2,0,0,0-2,2,3.6,3.6,0,0,0,.2,1H4.8v4.7h6.7V7h1v4.7h6.7V7ZM9.3,7a1.1,1.1,0,0,1-1-1,1.1,1.1,0,0,1,1-1,2.6,2.6,0,0,1,2.1,2Zm5.4,0H12.6a2.6,2.6,0,0,1,2.1-2,1.1,1.1,0,0,1,1,1,1.1,1.1,0,0,1-1,1Z" fill="#1eea00"/></g></g></g><path d="M12,24A12,12,0,1,1,24,12,12,12,0,0,1,12,24ZM12,.7A11.3,11.3,0,1,0,23.3,12,11.4,11.4,0,0,0,12,.7Z" fill="#1eea00"/><g opacity="0"><rect width="24" height="24" fill="#fff"/></g></g></g></g></svg>