<svg xmlns="http://www.w3.org/2000/svg" viewBox="0 0 24 24"><title>soporte</title><g id="Layer_2" data-name="Layer 2"><g id="Layer_2-2" data-name="Layer 2"><g id="soporte"><path id="SAC" d="M23.7,13.2a4.5,4.5,0,0,0,.1-1.1A11.9,11.9,0,0,0,12.1,0,11.8,11.8,0,0,0,.2,11.8v.3a4.5,4.5,0,0,0,.1,1.1,1,1,0,0,0-.3,1l.6,2.3a1.2,1.2,0,0,0,1.5.9h0l1.1-.3,1.5.8,1.1-.3a1.3,1.3,0,0,0,1.5.9A1.2,1.2,0,0,0,8.1,17L6.3,10.1a1.3,1.3,0,0,0-1.5-.9A1.2,1.2,0,0,0,4,10.7H4L2.8,11a.8.8,0,0,1-.2.4A9.4,9.4,0,0,1,12.7,2.6a9.5,9.5,0,0,1,8.7,8.8l-.2-.4L20,10.7a1.2,1.2,0,0,0-.8-1.5,1.3,1.3,0,0,0-1.5.9h0L15.9,17a1.1,1.1,0,0,0,.8,1.4,1.2,1.2,0,0,0,1.5-.8l1.1.3,1.4-.8a10,10,0,0,1-6.4,4.8v-.3A2.4,2.4,0,1,0,12,24h0a2.6,2.6,0,0,0,1.7-.7,11.6,11.6,0,0,0,8.2-5.9h0a1.3,1.3,0,0,0,1.5-.9l.6-2.3a1,1,0,0,0-.3-1Z" fill="#1eea00"/><g opacity="0"><rect width="24" height="24" fill="#fff"/></g></g></g></g></svg>