<svg xmlns="http://www.w3.org/2000/svg" xmlns:xlink="http://www.w3.org/1999/xlink" width="49.772" height="41.706" viewBox="0 0 49.772 41.706"><defs><style>.a{fill:none;}.b{clip-path:url(#a);}.c{fill:#473d00;}.d{fill:#e5e5e5;}.e{fill:#f40000;}.f{fill:#bcbc69;}</style><clipPath id="a"><rect class="a" width="49.772" height="41.706"/></clipPath></defs><g class="b"><path class="c" d="M75.9,41.522a20.466,20.466,0,0,0-13.2,4.855l-1.2-.963c2.865-5.648,8.339-8.221,14.394-8.232,6.055.01,11.529,2.584,14.394,8.232l-1.2.963A20.468,20.468,0,0,0,75.9,41.522Z" transform="translate(-51.015 -23.282)"/><path d="M116.195,21.7l2.672,1.278c1.851-2.613,3.7-5.227,5.5-8.08a4.926,4.926,0,0,0,.27-3.674,5.948,5.948,0,0,1-.381-2.943,5.945,5.945,0,0,1-2.53,1.551,4.928,4.928,0,0,0-2.69,2.517C117.939,15.534,117.067,18.615,116.195,21.7Z" transform="translate(-85.259 -5.183)"/><path d="M135.217,65.18l-.251,1.913c1.993.618,3.985,1.236,6.114,1.771a3.21,3.21,0,0,0,2.33-.575,3.874,3.874,0,0,1,1.745-.831,3.875,3.875,0,0,1-1.472-1.253,3.211,3.211,0,0,0-2.1-1.158C139.387,65.014,137.3,65.1,135.217,65.18Z" transform="translate(-97.012 -40.726)"/><path d="M134.489,55.038l.43,2.239c2.465-.047,4.93-.1,7.518-.286a3.792,3.792,0,0,0,2.4-1.512,4.577,4.577,0,0,1,1.649-1.581,4.576,4.576,0,0,1-2.117-.859,3.793,3.793,0,0,0-2.789-.517C139.1,53.3,136.8,54.17,134.489,55.038Z" transform="translate(-96.714 -32.822)"/><path d="M53.092,70.531l.684,1.422c-1.391.99-2.781,1.98-4.3,2.941a2.625,2.625,0,0,1-1.958.148,3.169,3.169,0,0,0-1.569-.2,3.166,3.166,0,0,0,.824-1.351,2.626,2.626,0,0,1,1.338-1.437C49.809,71.469,51.451,71,53.092,70.531Z" transform="translate(-41.274 -44.164)"/><path d="M47.735,65.18l.251,1.913c-1.993.618-3.985,1.236-6.114,1.771a3.209,3.209,0,0,1-2.33-.575,3.876,3.876,0,0,0-1.745-.831A3.881,3.881,0,0,0,39.269,66.2a3.21,3.21,0,0,1,2.1-1.158C43.566,65.014,45.651,65.1,47.735,65.18Z" transform="translate(-36.169 -40.726)"/><path d="M45.437,55.038l-.43,2.239c-2.465-.047-4.93-.1-7.518-.286a3.793,3.793,0,0,1-2.4-1.512A4.574,4.574,0,0,0,33.441,53.9a4.576,4.576,0,0,0,2.117-.859,3.792,3.792,0,0,1,2.788-.517C40.822,53.3,43.13,54.17,45.437,55.038Z" transform="translate(-33.441 -32.822)"/><path d="M130.95,43.215l1.323,2.274c2.666-.994,5.332-1.988,8.076-3.185a4.377,4.377,0,0,0,2.034-2.563,5.287,5.287,0,0,1,1.191-2.351,5.278,5.278,0,0,1-2.633-.126,4.378,4.378,0,0,0-3.234.5C135.312,39.561,133.131,41.388,130.95,43.215Z" transform="translate(-94.498 -23.274)"/><path d="M124.882,29.852l2.268,1.9c2.444-2.069,4.889-4.138,7.339-6.452a4.929,4.929,0,0,0,1.178-3.491,5.942,5.942,0,0,1,.365-2.945,5.946,5.946,0,0,1-2.837.871,4.929,4.929,0,0,0-3.233,1.766C128.109,24.319,126.5,27.086,124.882,29.852Z" transform="translate(-90.698 -11.814)"/><path d="M47.925,43.215,46.6,45.489c-2.666-.994-5.331-1.988-8.075-3.185a4.377,4.377,0,0,1-2.035-2.563,5.279,5.279,0,0,0-1.19-2.352,5.279,5.279,0,0,0,2.633-.126,4.378,4.378,0,0,1,3.234.5C43.563,39.561,45.744,41.388,47.925,43.215Z" transform="translate(-34.605 -23.274)"/><path d="M56.462,29.852l-2.268,1.9c-2.444-2.069-4.889-4.138-7.339-6.452a4.928,4.928,0,0,1-1.178-3.491,5.942,5.942,0,0,0-.365-2.945,5.945,5.945,0,0,0,2.837.871A4.928,4.928,0,0,1,51.381,21.5C53.235,24.319,54.848,27.086,56.462,29.852Z" transform="translate(-40.874 -11.814)"/><path d="M69.311,21.7,66.64,22.975c-1.851-2.613-3.7-5.227-5.5-8.08a4.928,4.928,0,0,1-.27-3.674,5.944,5.944,0,0,0,.381-2.943,5.947,5.947,0,0,0,2.53,1.551,4.926,4.926,0,0,1,2.69,2.517C67.567,15.534,68.439,18.615,69.311,21.7Z" transform="translate(-50.476 -5.183)"/><path d="M82.881,17.119,80,17.82c-1.274-2.939-2.547-5.877-3.716-9.038a4.927,4.927,0,0,1,.492-3.651,5.947,5.947,0,0,0,.978-2.8A5.94,5.94,0,0,0,79.911,4.37a4.93,4.93,0,0,1,2.115,3.017C82.443,10.729,82.662,13.924,82.881,17.119Z" transform="translate(-60.155 -1.458)"/><path d="M105.787,17.119l2.877.7c1.273-2.939,2.547-5.877,3.716-9.038a4.927,4.927,0,0,0-.492-3.651,5.943,5.943,0,0,1-.979-2.8,5.942,5.942,0,0,1-2.156,2.039,4.928,4.928,0,0,0-2.115,3.017C106.225,10.729,106.006,13.924,105.787,17.119Z" transform="translate(-78.742 -1.458)"/><path d="M133.82,70.531l-.684,1.422c1.39.99,2.781,1.98,4.3,2.941a2.626,2.626,0,0,0,1.958.148,3.167,3.167,0,0,1,1.569-.2,3.174,3.174,0,0,1-.824-1.351,2.625,2.625,0,0,0-1.338-1.437C137.1,71.469,135.462,71,133.82,70.531Z" transform="translate(-95.867 -44.164)"/><path class="d" d="M113.136,6.594a3.815,3.815,0,0,1-.032,2.24c-.474,1.28-.964,2.524-1.465,3.746l-2.439,1.8-.593.437-.326-.661-1.34-2.717c.117-1.316.252-2.646.42-4a3.813,3.813,0,0,1,1-2l1.4,3.53,1.865-6.549q-.676,3.336-1.353,6.673Z" transform="translate(-79.465 -1.512)"/><path class="d" d="M127.542,12.758a3.814,3.814,0,0,1-.492,2.186c-.727,1.156-1.463,2.271-2.2,3.364l-2.756,1.258-.67.306-.183-.714-.751-2.935c.385-1.263.791-2.537,1.234-3.828a3.814,3.814,0,0,1,1.393-1.756q.32,1.871.641,3.742l3.173-6.025-2.7,6.252Z" transform="translate(-87.944 -5.232)"/><path class="d" d="M140.411,23.351a3.814,3.814,0,0,1-1.022,1.994c-.992.937-1.984,1.834-2.975,2.708l-2.983.53-.725.129V24.946c.688-1.127,1.4-2.259,2.15-3.4a3.815,3.815,0,0,1,1.787-1.353l-.313,3.783,4.576-5.042-4.172,5.381Z" transform="translate(-95.597 -11.856)"/><path class="d" d="M146.493,40.953a3.387,3.387,0,0,1-1.454,1.359c-1.111.485-2.21.936-3.3,1.368l-2.653-.455-.645-.11.222-.615.915-2.531c.914-.735,1.849-1.467,2.82-2.194a3.386,3.386,0,0,1,1.9-.593l-1.4,3.068,5.341-2.838-5.106,3.243Z" transform="translate(-99.188 -23.282)"/><path class="d" d="M147.9,56.3a2.937,2.937,0,0,1-1.579.694c-1.048.078-2.076.132-3.092.171l-2.039-1.133-.5-.276.359-.44,1.475-1.807c.959-.339,1.933-.669,2.936-.985a2.933,2.933,0,0,1,1.724.061l-2.025,2.107,5.183-.788-5.106,1.186Z" transform="translate(-100.602 -32.822)"/><path class="d" d="M145.759,68.727a2.484,2.484,0,0,1-1.453.137c-.862-.217-1.7-.447-2.529-.686l-1.335-1.453-.325-.353.4-.258,1.665-1.059c.86-.017,1.731-.022,2.62-.009a2.483,2.483,0,0,1,1.369.508l-2.188,1.153,4.372.747-4.417-.407Z" transform="translate(-100.237 -40.726)"/><path class="d" d="M141.413,76.6a2.032,2.032,0,0,1-1.165-.265c-.615-.389-1.209-.783-1.79-1.179l-.667-1.471-.162-.358.381-.1,1.565-.4c.673.207,1.351.425,2.039.663a2.031,2.031,0,0,1,.934.744l-2,.336,3.207,1.7-3.329-1.446Z" transform="translate(-98.681 -45.607)"/><path class="d" d="M48.339,76.6a2.031,2.031,0,0,0,1.164-.265c.615-.389,1.209-.783,1.79-1.179l.667-1.471.162-.358-.381-.1-1.565-.4c-.673.207-1.351.425-2.039.663a2.031,2.031,0,0,0-.934.744l2,.336L46,76.27l3.329-1.446Z" transform="translate(-41.3 -45.607)"/><path class="d" d="M40.454,68.727a2.482,2.482,0,0,0,1.453.137c.862-.217,1.7-.447,2.529-.686l1.336-1.453.325-.353-.4-.258-1.665-1.059c-.86-.017-1.731-.022-2.62-.009a2.484,2.484,0,0,0-1.369.508l2.188,1.153-4.372.747,4.417-.407Z" transform="translate(-36.204 -40.726)"/><path class="d" d="M35.952,56.3a2.935,2.935,0,0,0,1.579.694c1.048.078,2.076.132,3.092.171l2.039-1.133.5-.276-.359-.44-1.475-1.807c-.959-.339-1.933-.669-2.936-.985a2.933,2.933,0,0,0-1.724.061l2.025,2.107L33.507,53.9l5.106,1.186Z" transform="translate(-33.482 -32.822)"/><path class="d" d="M37.114,40.953a3.39,3.39,0,0,0,1.454,1.359c1.111.485,2.21.936,3.3,1.368l2.652-.455.645-.11-.222-.615-.915-2.531c-.914-.735-1.849-1.467-2.82-2.194a3.389,3.389,0,0,0-1.9-.593l1.4,3.068-5.342-2.838,5.106,3.243Z" transform="translate(-34.647 -23.282)"/><path class="d" d="M45.867,23.351a3.814,3.814,0,0,0,1.022,1.994c.992.937,1.984,1.834,2.974,2.708l2.983.53.725.129V24.946c-.688-1.127-1.4-2.259-2.15-3.4a3.814,3.814,0,0,0-1.786-1.353l.313,3.783-4.576-5.042,4.172,5.381Z" transform="translate(-40.909 -11.856)"/><path class="d" d="M60.65,12.758a3.811,3.811,0,0,0,.492,2.186c.727,1.156,1.463,2.271,2.2,3.364L66.1,19.565l.67.306.183-.714.752-2.935c-.385-1.263-.791-2.537-1.234-3.828a3.813,3.813,0,0,0-1.392-1.756q-.321,1.871-.641,3.742L61.267,8.356l2.7,6.252Z" transform="translate(-50.476 -5.232)"/><path class="d" d="M76.255,6.594a3.812,3.812,0,0,0,.032,2.24c.474,1.28.964,2.524,1.465,3.746l2.438,1.8.593.437.326-.661,1.339-2.717c-.117-1.316-.252-2.646-.419-4a3.814,3.814,0,0,0-1-2l-1.4,3.53L77.766,2.414l1.353,6.673Z" transform="translate(-60.154 -1.512)"/><path class="e" d="M122.159,31.484l-3.427,1.563L117.8,29.4c-.566,1.856-1.084,3.69-1.6,5.523l2.672,1.278C119.968,34.645,121.069,33.089,122.159,31.484Z" transform="translate(-85.259 -18.409)"/><path class="e" d="M135.645,73.714l-.829-1.828,1.946-.493c-.988-.3-1.965-.583-2.942-.862l-.684,1.422C133.963,72.542,134.791,73.131,135.645,73.714Z" transform="translate(-95.867 -44.164)"/><path class="e" d="M131.515,38.121l-3.708.659q0-1.883,0-3.766c-1.01,1.656-1.97,3.3-2.93,4.948l2.268,1.9C128.6,40.635,130.059,39.4,131.515,38.121Z" transform="translate(-90.698 -21.925)"/><path class="e" d="M138.551,68.206l-1.66-1.806,2.07-1.316c-1.264.025-2.5.074-3.744.123l-.251,1.913C136.152,67.488,137.337,67.856,138.551,68.206Z" transform="translate(-97.012 -40.753)"/><path class="e" d="M57.4,38.121l3.708.659q0-1.883-.005-3.766c1.01,1.656,1.97,3.3,2.93,4.948l-2.268,1.9C60.305,40.635,58.851,39.4,57.4,38.121Z" transform="translate(-48.44 -21.925)"/><path class="e" d="M67.872,31.484,71.3,33.048l.935-3.649c.565,1.856,1.084,3.69,1.6,5.523L71.164,36.2C70.063,34.645,68.961,33.089,67.872,31.484Z" transform="translate(-55.001 -18.409)"/><path class="e" d="M139.345,58.985l-2.534-1.408,1.833-2.246c-1.409.5-2.781,1.014-4.155,1.531l.43,2.239C136.385,59.072,137.852,59.043,139.345,58.985Z" transform="translate(-96.714 -34.646)"/><path class="e" d="M58.3,73.714l.828-1.828-1.946-.493c.989-.3,1.965-.583,2.942-.862l.684,1.422C59.984,72.542,59.157,73.131,58.3,73.714Z" transform="translate(-48.309 -44.164)"/><path d="M93.549,15.582H96.51c.543-3.156,1.085-6.313,1.474-9.66a4.928,4.928,0,0,0-1.341-3.431A5.947,5.947,0,0,1,95.03,0a5.947,5.947,0,0,1-1.613,2.491,4.928,4.928,0,0,0-1.342,3.431C92.464,9.27,93.006,12.426,93.549,15.582Z" transform="translate(-70.144)"/><path class="d" d="M97.486,3.792a3.812,3.812,0,0,1,.5,2.184c-.157,1.356-.34,2.68-.538,3.986L95.5,12.286l-.473.565-.473-.565L92.613,9.963c-.2-1.306-.38-2.63-.538-3.986a3.812,3.812,0,0,1,.5-2.184l2.192,3.1.264-6.8.264,6.8Z" transform="translate(-70.144 -0.054)"/><path class="e" d="M98.379,26.5l-2.417,2.888L93.545,26.5c.29,1.918.613,3.8.936,5.674h2.961C97.766,30.3,98.088,28.422,98.379,26.5Z" transform="translate(-71.076 -16.596)"/><g transform="translate(35.712 25.301)"><path d="M133.425,67.679h-2.962c-.542,3.323-1.085,6.646-1.474,10.171a5.338,5.338,0,0,0,1.342,3.612,6.291,6.291,0,0,1,1.613,2.622,6.294,6.294,0,0,1,1.613-2.622A5.338,5.338,0,0,0,134.9,77.85C134.511,74.325,133.968,71,133.425,67.679Z" transform="translate(-128.971 -67.679)"/><path class="d" d="M129.489,85.063a4.188,4.188,0,0,1-.5-2.3c.157-1.428.34-2.822.538-4.2l1.944-2.446.473-.6.473.6,1.944,2.446c.2,1.375.381,2.769.538,4.2a4.187,4.187,0,0,1-.5,2.3L132.208,81.8l-.264,7.163L131.68,81.8Z" transform="translate(-128.971 -72.593)"/><path d="M130.46,73.653l2.417-3.041,2.417,3.041c-.29-2.02-.613-4-.936-5.974H131.4C131.073,69.656,130.75,71.633,130.46,73.653Z" transform="translate(-129.903 -67.679)"/></g><path class="e" d="M137.048,48.349l-3.3-.565,1.138-3.146c-1.343,1.08-2.641,2.167-3.938,3.254l1.323,2.274C133.859,49.574,135.445,48.983,137.048,48.349Z" transform="translate(-94.498 -27.951)"/><path class="e" d="M52.543,58.985l2.534-1.408L53.244,55.33c1.408.5,2.781,1.014,4.154,1.531l-.43,2.239C55.5,59.072,54.035,59.043,52.543,58.985Z" transform="translate(-45.402 -34.646)"/><path class="e" d="M52.759,48.349l3.3-.565-1.137-3.146c1.343,1.08,2.64,2.167,3.938,3.254l-1.323,2.274C55.947,49.574,54.362,48.983,52.759,48.349Z" transform="translate(-45.537 -27.951)"/><path class="e" d="M80.515,27.7l3.031,2.235,1.665-3.378c.172,1.932.3,3.834.432,5.735l-2.877.7C82.008,31.239,81.251,29.491,80.515,27.7Z" transform="translate(-62.917 -16.627)"/><path class="e" d="M110.916,27.7l-3.031,2.235-1.665-3.378c-.171,1.932-.3,3.834-.432,5.735l2.877.7C109.422,31.239,110.18,29.491,110.916,27.7Z" transform="translate(-78.742 -16.627)"/><path class="e" d="M54.776,68.206,56.437,66.4l-2.071-1.316c1.264.025,2.5.074,3.744.123l.251,1.913C57.176,67.488,55.99,67.856,54.776,68.206Z" transform="translate(-46.544 -40.753)"/><path class="f" d="M75.9,40.35A20.468,20.468,0,0,0,62.7,45.2l-1.2-.962c2.865-5.648,8.339-8.221,14.394-8.232,6.055.011,11.529,2.584,14.394,8.232l-1.2.962A20.47,20.47,0,0,0,75.9,40.35Z" transform="translate(-51.015 -22.548)"/><g transform="translate(10.492 13.462)"><path class="c" d="M84.449,36.011q-.226,0-.453.006l-2.03,2.393-2.331-1.794L78.089,39.35,75.6,38.293c-.129.077-.258.156-.385.237L77.9,39.673l-1.279,2.261q.273-.114.548-.22l1.073-1.9,2.211.939,1.56-1.84,1.874,1.442q.278-.008.556-.009v-.028l-2.19-1.686,2.19-2.582Zm-4.1,4.3L78.431,39.5l1.316-2.327,1.98,1.524Z" transform="translate(-70.092 -36.011)"/><path class="c" d="M127.567,48.463q-.1-.2-.21-.4l-1.162-.158-.228-1.957-1.821.077-1.161-2.908q-.267-.189-.543-.365l1.313,3.29-2.723.114q.385.161.763.338l2.1-.094.659,1.65,1.3.177q.049.427.1.855.207.167.411.339-.067-.571-.133-1.143Zm-2.745-.746-.531-1.33,1.349-.057.178,1.522Z" transform="translate(-98.78 -40.23)"/><path class="c" d="M109.221,38.493l-.327-.2-2.487,1.057-1.546-2.733L102.53,38.41l-2.03-2.393q-.245-.006-.49-.007l2.227,2.625L100.01,40.35q.3,0,.593.009l1.873-1.442,1.561,1.84,2.211-.939,1.072,1.9q.244.094.486.194l.02-.049-1.237-2.187,2.6-1.1Zm-5.078,1.818-1.374-1.619,1.98-1.524,1.316,2.327Z" transform="translate(-85.617 -36.01)"/><path class="c" d="M65.32,46.04l1.313-3.29q-.276.177-.543.365l-1.161,2.908-1.821-.077L62.88,47.9l-1.162.158q-.108.2-.21.4l1.328-.181q-.067.571-.133,1.143.2-.172.411-.339.049-.427.1-.855l1.3-.177.659-1.65,2.105.089q.378-.177.763-.338Zm-1.067,1.677-1,.135.177-1.522,1.349.057Z" transform="translate(-61.508 -40.23)"/></g><g transform="translate(8.275 25.301)"><path d="M60.031,67.679H57.07C56.527,71,55.985,74.325,55.6,77.85a5.338,5.338,0,0,0,1.342,3.612,6.294,6.294,0,0,1,1.613,2.622,6.294,6.294,0,0,1,1.613-2.622A5.338,5.338,0,0,0,61.51,77.85C61.117,74.325,60.574,71,60.031,67.679Z" transform="translate(-55.577 -67.679)"/><path class="d" d="M56.1,85.063a4.184,4.184,0,0,1-.5-2.3c.157-1.428.34-2.822.538-4.2l1.944-2.446.473-.6.473.6,1.944,2.446c.2,1.375.381,2.769.538,4.2a4.191,4.191,0,0,1-.5,2.3L58.814,81.8l-.264,7.163L58.287,81.8Z" transform="translate(-55.577 -72.593)"/><path d="M57.066,73.653l2.417-3.041L61.9,73.653c-.29-2.02-.613-4-.936-5.974H58C57.679,69.656,57.356,71.633,57.066,73.653Z" transform="translate(-56.509 -67.679)"/></g><path class="c" d="M59.9,62.153c-.843,0-1.363-.838-1.628-1.472a6.35,6.35,0,0,1,0-4.542c.265-.634.785-1.471,1.628-1.471s1.363.838,1.628,1.472a6.351,6.351,0,0,1,0,4.542C61.266,61.316,60.747,62.153,59.9,62.153Z" transform="translate(-48.729 -34.231)"/><path d="M60.78,62.8c-.628,0-1.015-.624-1.212-1.1a4.725,4.725,0,0,1,0-3.381c.2-.472.584-1.1,1.212-1.1s1.015.624,1.212,1.1a4.723,4.723,0,0,1,0,3.381C61.795,62.175,61.408,62.8,60.78,62.8Z" transform="translate(-49.605 -35.834)"/><path class="e" d="M62.618,63.7a1.733,1.733,0,0,0,.15-.366,1.962,1.962,0,0,0,0-1.081,1.741,1.741,0,0,0-.15-.366.6.6,0,0,0-.876,0,1.76,1.76,0,0,0-.15.366,1.962,1.962,0,0,0,0,1.081,1.751,1.751,0,0,0,.15.366.6.6,0,0,0,.876,0Z" transform="translate(-51.021 -38.632)"/><path class="c" d="M133.256,62.153c.843,0,1.363-.838,1.628-1.472a6.345,6.345,0,0,0,0-4.542c-.265-.634-.785-1.471-1.627-1.471s-1.363.838-1.628,1.472a6.346,6.346,0,0,0,0,4.542C131.893,61.316,132.413,62.153,133.256,62.153Z" transform="translate(-94.659 -34.231)"/><path d="M134.133,62.8c-.628,0-1.015-.624-1.212-1.1a4.724,4.724,0,0,1,0-3.381c.2-.472.584-1.1,1.212-1.1s1.015.624,1.212,1.1a4.726,4.726,0,0,1,0,3.381C135.148,62.175,134.761,62.8,134.133,62.8Z" transform="translate(-95.537 -35.834)"/><path class="e" d="M136.013,63.7a1.752,1.752,0,0,0,.15-.366,1.962,1.962,0,0,0,0-1.081,1.759,1.759,0,0,0-.15-.366.6.6,0,0,0-.876,0,1.762,1.762,0,0,0-.15.366,1.962,1.962,0,0,0,0,1.081,1.753,1.753,0,0,0,.15.366.6.6,0,0,0,.876,0Z" transform="translate(-96.978 -38.632)"/></g></svg>