<svg xmlns="http://www.w3.org/2000/svg" xmlns:xlink="http://www.w3.org/1999/xlink" width="42.156" height="44.891" viewBox="0 0 42.156 44.891"><defs><style>.a{fill:none;}.b{fill:#004b40;}.c{clip-path:url(#a);}.d{fill:url(#b);}.e{fill:#cbe880;}.f{fill:#7fff5d;}.g{fill:#fff;}.h{fill:#8ae0b0;}.i{fill:#004a3d;}.j{fill:#1eeb00;}.k{clip-path:url(#c);}.l{fill:#fded00;}</style><clipPath id="a"><rect class="a" width="42.156" height="44.891"/></clipPath><linearGradient id="b" x1="0.5" y1="0.328" x2="0.5" y2="0.942" gradientUnits="objectBoundingBox"><stop offset="0.279" stop-color="#00eb00"/><stop offset="0.506" stop-color="#00e700"/><stop offset="0.729" stop-color="#00db00"/><stop offset="0.95" stop-color="#00c700"/><stop offset="1" stop-color="#00c200"/></linearGradient><clipPath id="c"><path class="b" d="M2495.626,1792.294h-.107c-1.716,0-3.6-1.032-3.6-2.747v-.673c0-2.375,1.886-2.786,3.6-2.786h1.156c1.823,0,3.222.537,3.222,2.6v-.277a4.041,4.041,0,0,1-4.271,3.883Zm16.065,0h.106c1.716,0,3.171-1.032,3.171-2.747v-.673c0-2.375-1.455-2.786-3.171-2.786h-1.155c-1.823,0-3.653.537-3.653,2.6v-.277c0,2.289,2.411,3.883,4.7,3.883Z" transform="translate(-2491.917 -1786.088)"/></clipPath></defs><g class="c" transform="translate(0)"><path class="d" d="M2512.631,1819.87l-1.843,1.4-.412-.415a8.637,8.637,0,0,1-1.737-2.61,28.73,28.73,0,0,1-6.058.535,26.062,26.062,0,0,1-6-.7,8.4,8.4,0,0,1-1.8,2.779l-.41.415-1.844-1.4-2.278,1.443-.353-.579c-.172-.284-4.221-7.077-4.221-18.876a42.615,42.615,0,0,1,1.786-11.348c-1.894-1.91-2.494-4.033-3.128-6.274-.135-.477-.275-.971-.429-1.472a31.112,31.112,0,0,0-1.191-3.221l-.3-.677.7-.229a12.222,12.222,0,0,1,3.785-.624,11.1,11.1,0,0,1,7.532,2.972,25.109,25.109,0,0,1,16.292,0,11.1,11.1,0,0,1,7.531-2.972,12.228,12.228,0,0,1,3.786.624l.7.229-.3.677a31.485,31.485,0,0,0-1.191,3.221c-.154.5-.293.995-.429,1.472-.634,2.241-1.234,4.365-3.128,6.274a42.633,42.633,0,0,1,1.787,11.348c0,11.8-4.049,18.593-4.222,18.876l-.352.579Z" transform="translate(-2481.502 -1777.347)"/><path class="e" d="M2507.842,1808.088h5.631l-.238,7.093h-4.8Z" transform="translate(-2484.386 -1780.758)"/><path class="f" d="M2504.429,1798.566c1.458,0,4.311-1.654,5.434-4.158s-1.307-3.28-2.275-3.457a21.769,21.769,0,0,0-6.319,0c-.968.177-3.4.96-2.275,3.457S2502.971,1798.566,2504.429,1798.566Z" transform="translate(-2483.349 -1778.788)"/><path class="b" d="M2513.617,1808.975h-5.6c-.183,0-.333-.259-.333-.443s.149-.443.333-.443h5.6c.184,0,.333.26.333.443S2513.8,1808.975,2513.617,1808.975Z" transform="translate(-2484.367 -1780.758)"/><line class="g" x1="2.49" y1="14.433" transform="translate(23.456 19.055)"/><rect class="b" width="0.887" height="14.646" transform="translate(23.019 19.13) rotate(-9.787)"/><rect class="h" width="2.083" height="2.083" transform="matrix(0.583, -0.812, 0.812, 0.583, 24.492, 31.652)"/><path class="b" d="M2510.659,1814.252a.337.337,0,0,1-.194-.062l-1.692-1.216a.333.333,0,0,1-.076-.464l1.215-1.693a.336.336,0,0,1,.217-.134.33.33,0,0,1,.248.058l1.691,1.216a.331.331,0,0,1,.076.464l-1.216,1.692A.332.332,0,0,1,2510.659,1814.252Zm-1.227-1.624,1.151.827.828-1.152-1.152-.827Z" transform="translate(-2484.476 -1781.052)"/><rect class="h" width="2.083" height="2.083" transform="translate(25.198 33.722) rotate(-78.233)"/><path class="b" d="M2511.824,1815.656a.3.3,0,0,1-.068-.007l-2.04-.425a.334.334,0,0,1-.258-.394l.426-2.039a.332.332,0,0,1,.394-.258l2.039.425a.327.327,0,0,1,.21.144.331.331,0,0,1,.048.25l-.425,2.039a.332.332,0,0,1-.326.265Zm-1.646-1.015,1.387.289.289-1.388-1.388-.289Z" transform="translate(-2484.568 -1781.261)"/><path class="i" d="M2522.133,1777.919a12.869,12.869,0,0,0-3.991-.657h0a11.808,11.808,0,0,0-7.685,2.881,25.847,25.847,0,0,0-15.985,0,11.814,11.814,0,0,0-7.686-2.881,12.871,12.871,0,0,0-3.991.657l-1.41.46.608,1.352a30.7,30.7,0,0,1,1.162,3.144c.152.494.291.983.425,1.458a14,14,0,0,0,3.025,6.28,42.8,42.8,0,0,0-1.708,11.161c0,11.984,4.142,18.932,4.319,19.222l.7,1.158,1.145-.725,1.315-.833,1.011.769.93.707.822-.83a9.525,9.525,0,0,0,1.731-2.473,26.722,26.722,0,0,0,5.591.595,30.954,30.954,0,0,0,5.663-.442,9.682,9.682,0,0,0,1.66,2.319l.821.83.93-.707,1.011-.769,1.315.833,1.145.725.7-1.158c.176-.29,4.319-7.238,4.319-19.222a42.8,42.8,0,0,0-1.709-11.161,14,14,0,0,0,3.026-6.28c.134-.474.272-.964.425-1.458a30.592,30.592,0,0,1,1.161-3.145l.607-1.351Zm-2.8,6.438a9.9,9.9,0,0,1-2.174,4.751c-.823-2.677-1.633-4.684-1.941-5.416a6.766,6.766,0,0,1,3.046-2.438l-.566-1.2c-3.119,1.467-3.812,3.317-3.84,3.4l-.089.249.1.242c.042.095,4.16,9.592,4.16,17.972a39.728,39.728,0,0,1-3.706,17.586l-1.885-1.194-1.625,1.236a6.453,6.453,0,0,1-1.066-1.755c.562-.164,1.121-.341,1.673-.543l-.458-1.25a24.668,24.668,0,0,1-17.01,0l-.458,1.25c.553.2,1.112.38,1.673.543a6.464,6.464,0,0,1-1.066,1.755l-1.625-1.236-1.886,1.2c-.956-1.877-3.7-8.1-3.7-17.587,0-8.38,4.117-17.877,4.159-17.972l.106-.242-.09-.249c-.029-.078-.721-1.927-3.839-3.4l-.568,1.2a6.756,6.756,0,0,1,3.046,2.437c-.307.731-1.117,2.739-1.941,5.417a9.914,9.914,0,0,1-2.173-4.751c-.158-.615-.321-1.252-.532-1.935-.342-1.11-.706-2.066-.953-2.675a9.694,9.694,0,0,1,9.536,2.5l.3.341.427-.16a23.72,23.72,0,0,1,16.174,0l.428.16.3-.341a9.825,9.825,0,0,1,9.536-2.5c-.247.608-.611,1.564-.953,2.674-.2.674-.367,1.315-.525,1.931Z" transform="translate(-2481.385 -1777.262)"/><path class="i" d="M2496.848,1808.448l-1.32.173c.322,2.446.483,4.321.558,5.375l-1.84-.587-1.363,1.46c-.536-.973-1.513-2.828-2.636-5.358l-1.217.54a62.563,62.563,0,0,0,3.152,6.277l.455.758,2.008-2.154,2.87.917-.04-.951C2497.47,1814.8,2497.365,1812.381,2496.848,1808.448Z" transform="translate(-2482.252 -1780.799)"/><path class="i" d="M2502.8,1792.357a.917.917,0,0,0-.886,1.02v.595a.9.9,0,1,0,1.773,0v-.595a.917.917,0,0,0-.887-1.02Z" transform="translate(-2483.714 -1778.974)"/><path class="i" d="M2510.452,1791.97a4.028,4.028,0,0,0-2.83-1.759,22.408,22.408,0,0,0-6.558,0,4.028,4.028,0,0,0-2.83,1.759,2.9,2.9,0,0,0,.067,2.625c1.265,2.82,4.372,4.552,6.042,4.552s4.776-1.731,6.041-4.552A2.9,2.9,0,0,0,2510.452,1791.97Zm-1.282,2.081c-1.048,2.335-3.72,3.765-4.826,3.765s-3.78-1.43-4.827-3.765a1.661,1.661,0,0,1-.1-1.461,2.739,2.739,0,0,1,1.891-1.069,21.219,21.219,0,0,1,6.08,0,2.739,2.739,0,0,1,1.891,1.069A1.656,1.656,0,0,1,2509.17,1794.051Z" transform="translate(-2483.264 -1778.703)"/><path class="i" d="M2506.8,1792.357a.917.917,0,0,0-.887,1.02v.595a.9.9,0,1,0,1.773,0v-.595a.917.917,0,0,0-.886-1.02Z" transform="translate(-2484.167 -1778.974)"/><path class="b" d="M2513.6,1815.614h-5.692l-.739-11.526h7.17Zm-4.654-.887h3.616l.591-8.866h-4.8Z" transform="translate(-2484.31 -1780.304)"/><path class="j" d="M2516.28,1804.991c-3.233,2.326-5.083,3.923-5.083,3.923l2.169,1.206-.164,2.477a62.848,62.848,0,0,0,6.655-1.979" transform="translate(-2484.766 -1780.407)"/><path class="b" d="M2512.331,1813.366l.2-2.938-2.633-1.464.721-.622c.076-.066,1.908-1.644,5.13-3.96l.777,1.081c-2,1.441-3.479,2.608-4.3,3.274l1.688.939-.132,1.992c1.078-.276,3.1-.834,5.71-1.747l.44,1.256a62.491,62.491,0,0,1-6.734,2Z" transform="translate(-2484.618 -1780.338)"/><g transform="translate(9.337 7.825)"><path class="b" d="M2495.626,1792.294h-.107c-1.716,0-3.6-1.032-3.6-2.747v-.673c0-2.375,1.886-2.786,3.6-2.786h1.156c1.823,0,3.222.537,3.222,2.6v-.277a4.041,4.041,0,0,1-4.271,3.883Zm16.065,0h.106c1.716,0,3.171-1.032,3.171-2.747v-.673c0-2.375-1.455-2.786-3.171-2.786h-1.155c-1.823,0-3.653.537-3.653,2.6v-.277c0,2.289,2.411,3.883,4.7,3.883Z" transform="translate(-2491.917 -1786.088)"/><g class="k"><path class="l" d="M2498.281,1785.243l.531,1.636h1.72l-1.391.82.531,1.54-1.391-1.059-1.392.987.532-1.457-1.392-.832h1.72Z" transform="translate(-2492.383 -1785.992)"/><path class="l" d="M2516.208,1785.643l.416,1.281h1.347l-1.09.656.416,1.213-1.09-.826-1.09.775.416-1.153-1.09-.664h1.347Z" transform="translate(-2494.472 -1786.038)"/></g></g></g></svg>