<svg id="Layer_1" data-name="Layer 1" xmlns="http://www.w3.org/2000/svg" viewBox="0 0 71 71"><title>bot-pago</title><circle cx="35.5" cy="35.5" r="35.5" style="fill:#004b40"/><circle cx="35.5" cy="35.5" r="31" style="fill:#fff"/><path d="M39.34,11.19a.52.52,0,0,0,.12,1,7.79,7.79,0,0,1,8.62,8.62.52.52,0,0,0,1,.12,8.82,8.82,0,0,0-9.76-9.76Z" style="fill:#1eea00"/><path d="M39.65,13.93a.52.52,0,0,0,.12,1,5,5,0,0,1,5.57,5.57.52.52,0,0,0,1,.12,6.06,6.06,0,0,0-6.71-6.71Z" style="fill:#1eea00"/><path d="M44,24.83V21a4.74,4.74,0,0,0-4.73-4.73H27.93A4.74,4.74,0,0,0,23.19,21v5.29L18.9,30.63A4.7,4.7,0,0,0,17.51,34V52.29h-.95a1,1,0,0,0-.95.95v5.68a1,1,0,0,0,.95.95h18a1,1,0,0,0,.95-.95V53.24a1,1,0,0,0-.95-.95H32.66V52.2a4.72,4.72,0,0,0,2.82-1.8h3.81A4.74,4.74,0,0,0,44,45.66V41.94H42.13v.89H27.93v-.55l4.36-4.36a4.73,4.73,0,0,0,0-6.68h0l-.66-.66a1.9,1.9,0,0,0-2.68,0L25.19,34.3h-.1V23.89h17v.95ZM33.61,54.18V58H17.51V54.18Zm8.52-9.47v.95a2.84,2.84,0,0,1-2.84,2.84H27.93a2.82,2.82,0,0,1-1.43-.4,4.71,4.71,0,0,0,1.43-3.38ZM25.58,36.2a1,1,0,0,0,.67-.28l4-4,.66.66a2.89,2.89,0,0,1,.79,2.53,2.85,2.85,0,0,1-.79,1.5l-4.64,4.64a.94.94,0,0,0-.28.66v2.84a2.84,2.84,0,0,1-2.84,2.84v1.89a4.68,4.68,0,0,0,1.55-.28,4.72,4.72,0,0,0,3.18,1.23h3.79a1,1,0,0,0-.95.95v.95H19.4V34a2.86,2.86,0,0,1,.83-2l3-3V36.2ZM25.09,22V21a2.84,2.84,0,0,1,2.84-2.84H39.29A2.84,2.84,0,0,1,42.13,21V22Zm0,0" style="fill:#004b40"/><path d="M46.86,24.83a8.52,8.52,0,1,0,8.52,8.52,8.52,8.52,0,0,0-8.52-8.52Zm0,15.15a6.63,6.63,0,1,1,6.63-6.63A6.63,6.63,0,0,1,46.86,40Zm0,0" style="fill:#004b40"/><path d="M27,24.83a1,1,0,0,0-.95.95v2.84h1.89V26.73h1.89V24.83Zm0,0" style="fill:#004b40"/><path d="M49.9,34.94c0,1.28-1,2.09-2.39,2.27V38.8H46.4V37.22A5.14,5.14,0,0,1,43.62,36l.62-1.26a4.38,4.38,0,0,0,2.7,1.15c.84,0,1.34-.31,1.34-.86,0-1.63-4.19-.7-4.19-3.47,0-1.19.9-2,2.32-2.19v-1.5h1.1v1.5a5.31,5.31,0,0,1,2.32.8l-.6,1.29a5,5,0,0,0-2.34-.76c-.7,0-1.16.26-1.16.73C45.73,33,49.91,32.14,49.9,34.94Z" style="fill:#1eea00"/></svg>