<svg id="Layer_1" data-name="Layer 1" xmlns="http://www.w3.org/2000/svg" viewBox="0 0 71 71"><title>bot-envio</title><circle cx="35.5" cy="35.5" r="35.5" style="fill:#004b40"/><circle cx="35.5" cy="35.5" r="31" style="fill:#fff"/><rect x="19.4" y="35.5" width="1.89" height="3.79" style="fill:#004b40"/><path d="M56.33,25.09h-36a1,1,0,0,0-.95.95v2.84H14.67v1.89H19.4v.95H21.3V27H55.38V44H21.3v-.95H19.4V45a1,1,0,0,0,.95.95h36a1,1,0,0,0,.95-.95V26a1,1,0,0,0-.95-.95Zm0,0" style="fill:#004b40"/><path d="M38.34,28.87A6.63,6.63,0,1,0,45,35.5a6.63,6.63,0,0,0-6.63-6.63Zm0,11.36a4.73,4.73,0,1,1,4.73-4.73,4.73,4.73,0,0,1-4.73,4.73Zm0,0" style="fill:#004b40"/><path d="M27.81,30.77h4.85V28.87H27a1,1,0,0,0-.95.95,1.89,1.89,0,0,1-1.89,1.89,1,1,0,0,0-.95.95v5.68a1,1,0,0,0,.95.95A1.89,1.89,0,0,1,26,41.18a1,1,0,0,0,.95.95h5.68V40.23H27.81a3.8,3.8,0,0,0-2.72-2.72v-4a3.8,3.8,0,0,0,2.72-2.72Zm0,0" style="fill:#004b40"/><path d="M52.54,31.71a1.89,1.89,0,0,1-1.89-1.89,1,1,0,0,0-.95-.95H44v1.89h4.85a3.8,3.8,0,0,0,2.72,2.72v4a3.8,3.8,0,0,0-2.72,2.72H44v1.89H49.7a1,1,0,0,0,.95-.95,1.89,1.89,0,0,1,1.89-1.89,1,1,0,0,0,.95-.95V32.66a1,1,0,0,0-.95-.95Zm0,0" style="fill:#004b40"/><rect x="17.51" y="32.66" width="4.73" height="1.89" style="fill:#004b40"/><rect x="13.72" y="32.66" width="1.89" height="1.89" style="fill:#004b40"/><rect x="13.72" y="36.45" width="3.79" height="1.89" style="fill:#004b40"/><rect x="15.62" y="40.23" width="6.63" height="1.89" style="fill:#004b40"/><rect x="29.82" y="47.81" width="7.57" height="1.89" style="fill:#004b40"/><rect x="26.03" y="47.81" width="1.89" height="1.89" style="fill:#004b40"/><rect x="22.25" y="47.81" width="1.89" height="1.89" style="fill:#004b40"/><rect x="36.45" y="21.3" width="11.36" height="1.89" style="fill:#004b40"/><rect x="32.66" y="21.3" width="1.89" height="1.89" style="fill:#004b40"/><rect x="28.87" y="21.3" width="1.89" height="1.89" style="fill:#004b40"/><rect x="25.09" y="21.3" width="1.89" height="1.89" style="fill:#004b40"/><path d="M40.7,36.71c0,1-.75,1.58-1.8,1.71v1.2h-.83V38.43A3.87,3.87,0,0,1,36,37.51l.47-.95a3.3,3.3,0,0,0,2,.86c.63,0,1-.23,1-.65,0-1.22-3.15-.53-3.15-2.61,0-.9.68-1.52,1.74-1.65V31.39h.83v1.13a4,4,0,0,1,1.74.6l-.45,1a3.75,3.75,0,0,0-1.76-.57c-.53,0-.87.19-.87.55C37.56,35.26,40.71,34.61,40.7,36.71Z" style="fill:#1eea00"/></svg>