<svg id="Layer_1" data-name="Layer 1" xmlns="http://www.w3.org/2000/svg" viewBox="0 0 275 247.51"><title>Chat1.1</title><g id="Group_6141" data-name="Group 6141"><g id="Chat"><rect id="Rectangle_5161" data-name="Rectangle 5161" x="41" width="194" height="224" rx="13" fill="#ededed"/><path id="Rectangle_5162" data-name="Rectangle 5162" d="M63,50H175a7,7,0,0,1,7,7h0V77a7,7,0,0,1-7,7H70a7,7,0,0,1-7-7h0V50Z" fill="#fff"/><path id="Rectangle_5163" data-name="Rectangle 5163" d="M130,20h78a5,5,0,0,1,5,5V38H130a5,5,0,0,1-5-5V25A5,5,0,0,1,130,20Z" fill="#fff"/><g id="Group_6126" data-name="Group 6126"><g id="Rectangle_5164" data-name="Rectangle 5164"><path d="M63,90h78a7,7,0,0,1,7,7h0v31a7,7,0,0,1-7,7H70a7,7,0,0,1-7-7V90Z" fill="#e6e6e6"/><path d="M64,90.5h77a6.5,6.5,0,0,1,6.5,6.5v31a6.5,6.5,0,0,1-6.5,6.5H70a6.5,6.5,0,0,1-6.5-6.5V91A.5.5,0,0,1,64,90.5Z" fill="none" stroke="#e6e6e6"/></g><g id="Rectangle_5165" data-name="Rectangle 5165"><path d="M63,104h85v24a7,7,0,0,1-7,7H70a7,7,0,0,1-7-7V104Z" fill="#fff"/><path d="M64,104.5h83a.5.5,0,0,1,.5.5v23a6.5,6.5,0,0,1-6.5,6.5H70a6.5,6.5,0,0,1-6.5-6.5V105A.5.5,0,0,1,64,104.5Z" fill="none" stroke="#e6e6e6"/></g></g><g id="Group_6127" data-name="Group 6127"><g id="Rectangle_5166" data-name="Rectangle 5166"><path d="M135,144h78v38a7,7,0,0,1-7,7H135a7,7,0,0,1-7-7V151A7,7,0,0,1,135,144Z" fill="#e6e6e6"/><path d="M135,144.5h77a.5.5,0,0,1,.5.5v37a6.5,6.5,0,0,1-6.5,6.5H135a6.5,6.5,0,0,1-6.5-6.5V151A6.5,6.5,0,0,1,135,144.5Z" fill="none" stroke="#e6e6e6"/></g><g id="Rectangle_5167" data-name="Rectangle 5167"><path d="M128,159h85v24a7,7,0,0,1-7,7H135a7,7,0,0,1-7-7V159Z" fill="#fff"/><path d="M129,159.5h83a.5.5,0,0,1,.5.5v23a6.5,6.5,0,0,1-6.5,6.5H135a6.5,6.5,0,0,1-6.5-6.5V160A.5.5,0,0,1,129,159.5Z" fill="none" stroke="#e6e6e6"/></g></g><circle id="Ellipse_666" data-name="Ellipse 666" cx="217.5" cy="35.5" r="2.5" fill="#ff6337"/><circle id="Ellipse_669" data-name="Ellipse 669" cx="217.5" cy="147.5" r="2.5" fill="#ff6337"/><circle id="Ellipse_667" data-name="Ellipse 667" cx="57.5" cy="52.5" r="2.5" fill="#207dff"/><circle id="Ellipse_668" data-name="Ellipse 668" cx="57.5" cy="92.5" r="2.5" fill="#207dff"/><path id="Rectangle_5168" data-name="Rectangle 5168" d="M70.5,56h100a1.5,1.5,0,0,1,1.5,1.5h0a1.5,1.5,0,0,1-1.5,1.5H70.5A1.5,1.5,0,0,1,69,57.5h0A1.5,1.5,0,0,1,70.5,56Z" fill="#e6e6e6"/><path id="Rectangle_5173" data-name="Rectangle 5173" d="M132.5,28h75a1.5,1.5,0,0,1,1.5,1.5h0a1.5,1.5,0,0,1-1.5,1.5h-75a1.5,1.5,0,0,1-1.5-1.5h0A1.5,1.5,0,0,1,132.5,28Z" fill="#e6e6e6"/><path id="Rectangle_5169" data-name="Rectangle 5169" d="M70.5,62h36a1.5,1.5,0,0,1,1.5,1.5h0a1.5,1.5,0,0,1-1.5,1.5h-36A1.5,1.5,0,0,1,69,63.5h0A1.5,1.5,0,0,1,70.5,62Z" fill="#e6e6e6"/><path id="Rectangle_5171" data-name="Rectangle 5171" d="M107.5,68h36a1.5,1.5,0,0,1,1.5,1.5h0a1.5,1.5,0,0,1-1.5,1.5h-36a1.5,1.5,0,0,1-1.5-1.5h0A1.5,1.5,0,0,1,107.5,68Z" fill="#e6e6e6"/><path id="Rectangle_5172" data-name="Rectangle 5172" d="M70.5,74h58a1.5,1.5,0,0,1,1.5,1.5h0a1.5,1.5,0,0,1-1.5,1.5h-58A1.5,1.5,0,0,1,69,75.5h0A1.5,1.5,0,0,1,70.5,74Z" fill="#e6e6e6"/><path id="Rectangle_5170" data-name="Rectangle 5170" d="M70.5,68h28a1.5,1.5,0,0,1,1.5,1.5h0A1.5,1.5,0,0,1,98.5,71h-28A1.5,1.5,0,0,1,69,69.5h0A1.5,1.5,0,0,1,70.5,68Z" fill="#e6e6e6"/><g id="_" data-name=" " style="isolation:isolate"><g style="isolation:isolate"><path d="M105.48,125v2.9H103V125a9.87,9.87,0,0,1-4.78-2l1.35-2.72a8.44,8.44,0,0,0,4.82,2c1,0,1.67-.38,1.67-1.08,0-2.26-7-.89-7-5.6,0-2.11,1.52-3.57,4-4v-2.8h2.53v2.78a9.83,9.83,0,0,1,4.16,1.42l-1.31,2.76a10.35,10.35,0,0,0-4.29-1.43c-.84,0-1.39.31-1.39.91,0,2.21,7,1,7,5.74C109.66,123.35,107.87,124.71,105.48,125Z" fill="#c6c6c6"/></g></g><g id="_2" data-name=" 2" style="isolation:isolate"><g style="isolation:isolate"><path d="M173.48,180v2.9H171V180a9.87,9.87,0,0,1-4.78-2l1.35-2.72a8.44,8.44,0,0,0,4.82,2c1,0,1.67-.38,1.67-1.08,0-2.26-7-.89-7-5.6,0-2.11,1.52-3.57,3.95-4v-2.8h2.53v2.78a9.83,9.83,0,0,1,4.16,1.42l-1.31,2.76a10.35,10.35,0,0,0-4.29-1.43c-.84,0-1.39.31-1.39.91,0,2.21,7,.95,7,5.74C177.66,178.35,175.88,179.71,173.48,180Z" fill="#c6c6c6"/></g></g></g><g id="Burbujas"><g id="Group_6129" data-name="Group 6129"><g id="Rectangle_5174" data-name="Rectangle 5174"><path d="M0,177H123a10,10,0,0,1,10,10v50.41a10,10,0,0,1-10,10H10a10,10,0,0,1-10-10V177Z" fill="#1eea00"/><path d="M1,177.5H123a9.5,9.5,0,0,1,9.5,9.5v50.41a9.5,9.5,0,0,1-9.5,9.5H10a9.5,9.5,0,0,1-9.5-9.5V178A.5.5,0,0,1,1,177.5Z" fill="none" stroke="#1eea00"/></g><g id="Rectangle_5175" data-name="Rectangle 5175"><path d="M0,193.29H133v44.22a10,10,0,0,1-10,10H10a10,10,0,0,1-10-10V193.29Z" fill="#fff"/><path d="M2,194.29H131a1,1,0,0,1,1,1v42.22a9,9,0,0,1-9,9H10a9,9,0,0,1-9-9V195.29A1,1,0,0,1,2,194.29Z" fill="none" stroke="#1eea00" stroke-width="2"/></g><g id="ENVIAR" style="isolation:isolate"><g style="isolation:isolate"><path d="M40.47,211.68v2.78h-7V217h6.34v2.75l-6.34,0v2.51h7.21V225H30V211.68Z" fill="#1eea00"/><path d="M46,211.68l6,8v-8h3.23V225h-3l-6-8v8H42.89V211.68Z" fill="#1eea00"/><path d="M60.33,211.68l3.32,9.63L67,211.68h3.57L65.36,225H61.75l-5.16-13.32Z" fill="#1eea00"/><path d="M75.4,211.68V225H71.92V211.68Z" fill="#1eea00"/><path d="M87,222.64H81.19L80.26,225H76.69l5.72-13.32H86L91.56,225h-3.7Zm-1-2.66-1.82-4.74L82.24,220Z" fill="#1eea00"/><path d="M100.86,225l-1.94-3.69H96.33V225H92.86V211.68h6c3.54,0,5.55,1.71,5.55,4.68a4.5,4.5,0,0,1-2.38,4.29l2.78,4.35Zm-4.53-6.46h2.53a1.94,1.94,0,0,0,2.22-2.07c0-1.31-.81-2-2.22-2H96.33Z" fill="#1eea00"/></g></g></g><g id="Group_6130" data-name="Group 6130"><g id="Rectangle_5174-2" data-name="Rectangle 5174-2"><path d="M152,176H265a10,10,0,0,1,10,10v60.41H152a10,10,0,0,1-10-10V186A10,10,0,0,1,152,176Z" fill="#fcb348"/><path d="M152,176.5H265a9.5,9.5,0,0,1,9.5,9.5v59.41a.5.5,0,0,1-.5.5H152a9.5,9.5,0,0,1-9.5-9.5V186A9.5,9.5,0,0,1,152,176.5Z" fill="none" stroke="#fcb348"/></g><g id="Rectangle_5175-2" data-name="Rectangle 5175-2"><path d="M144,193.29H275v54.22H154a12,12,0,0,1-12-12V195.29A2,2,0,0,1,144,193.29Z" fill="#fff"/><path d="M144,194.29H273a1,1,0,0,1,1,1v50.22a1,1,0,0,1-1,1H154a11,11,0,0,1-11-11V195.29A1,1,0,0,1,144,194.29Z" fill="none" stroke="#fcb348" stroke-width="2"/></g><g id="SOLICITAR" style="isolation:isolate"><g style="isolation:isolate"><path d="M163.69,214.36c-.83,0-1.38.31-1.38.91,0,2.21,7,.95,7,5.74,0,2.72-2.4,4.1-5.36,4.1a10,10,0,0,1-6.14-2.12l1.35-2.72a8.49,8.49,0,0,0,4.83,2c1,0,1.67-.38,1.67-1.08,0-2.26-7-.89-7-5.6,0-2.49,2.11-4.07,5.32-4.07a10.24,10.24,0,0,1,5.32,1.5L168,215.79A10.35,10.35,0,0,0,163.69,214.36Z" fill="#fcb348"/><path d="M184.73,218.33a6.85,6.85,0,0,1-7.2,6.82c-4.13,0-7.2-2.92-7.2-6.82s3.07-6.74,7.2-6.74S184.73,214.48,184.73,218.33Zm-10.83,0a3.76,3.76,0,0,0,3.66,3.84,3.82,3.82,0,1,0-3.66-3.84Z" fill="#fcb348"/><path d="M190,211.68V222h5.64v3h-9.12V211.68Z" fill="#fcb348"/><path d="M200.82,211.68V225h-3.48V211.68Z" fill="#fcb348"/><path d="M209.82,214.53a3.77,3.77,0,0,0,0,7.53,4.93,4.93,0,0,0,3.31-1.56l2,2.18a8,8,0,0,1-5.53,2.47,6.74,6.74,0,0,1-7-6.84c0-3.83,3.06-6.72,7.13-6.72a7.62,7.62,0,0,1,5.37,2.28l-2,2.41A4.55,4.55,0,0,0,209.82,214.53Z" fill="#fcb348"/><path d="M220.22,211.68V225h-3.48V211.68Z" fill="#fcb348"/><path d="M233.16,211.68v2.87h-4V225h-3.48V214.55h-3.95v-2.87Z" fill="#fcb348"/><path d="M242.11,222.64h-5.76l-.93,2.36h-3.57l5.71-13.32h3.58L246.72,225H243Zm-1-2.66-1.82-4.74L237.39,220Z" fill="#fcb348"/><path d="M256,225l-1.93-3.69h-2.59V225H248V211.68h6c3.53,0,5.55,1.71,5.55,4.68a4.5,4.5,0,0,1-2.38,4.29L260,225Zm-4.52-6.46H254a1.94,1.94,0,0,0,2.22-2.07c0-1.31-.82-2-2.22-2h-2.53Z" fill="#fcb348"/></g></g></g></g></g></svg>