<?xml version="1.0" encoding="utf-8"?>
<!-- Generator: Adobe Illustrator 23.0.3, SVG Export Plug-In . SVG Version: 6.00 Build 0)  -->
<svg version="1.1" id="Layer_1" xmlns="http://www.w3.org/2000/svg" xmlns:xlink="http://www.w3.org/1999/xlink" x="0px" y="0px"
	 viewBox="0 0 127 55" style="enable-background:new 0 0 127 55;" xml:space="preserve">
<style type="text/css">
	.st0{fill:#004B40;}
	.st1{fill:#FFFFFF;}
	.st2{fill:#1EEA00;}
	.st3{enable-background:new    ;}
</style>
<g id="Group_6142" transform="translate(-124 -364)">
	<path id="Rectangle_5177" class="st0" d="M134,364h35c5.5,0,10,4.5,10,10v35c0,5.5-4.5,10-10,10h-35c-5.5,0-10-4.5-10-10v-35
		C124,368.5,128.5,364,134,364z"/>
	<g id="enviar_dinero" transform="translate(3 -6)">
		<g transform="matrix(1, 0, 0, 1, 121, 370)">
			<g id="Ellipse_670-2" transform="translate(9 9)">
				<circle class="st1" cx="19" cy="19" r="19"/>
				<g>
					<path class="st2" d="M19,38C8.5,38,0,29.5,0,19S8.5,0,19,0s19,8.5,19,19S29.5,38,19,38z M19,2C9.6,2,2,9.6,2,19s7.6,17,17,17
						s17-7.6,17-17S28.4,2,19,2z"/>
				</g>
			</g>
		</g>
		<g class="st3">
			<path class="st0" d="M150.8,406v3.5h-3.1V406c-2.2-0.3-4.3-1.2-5.8-2.5l1.6-3.3c1.7,1.4,4.2,2.4,5.8,2.4c1.2,0,2-0.5,2-1.3
				c0-2.7-8.5-1.1-8.5-6.8c0-2.6,1.8-4.3,4.8-4.8v-3.4h3.1v3.4c1.9,0.2,3.7,0.9,5,1.7l-1.6,3.3c-1.7-1-3.9-1.7-5.2-1.7
				c-1,0-1.7,0.4-1.7,1.1c0,2.7,8.5,1.1,8.5,6.9C155.9,404,153.7,405.7,150.8,406z"/>
		</g>
	</g>
	<path id="Rectangle_5176" class="st0" d="M206,364h35c5.5,0,10,4.5,10,10v35c0,5.5-4.5,10-10,10h-35c-5.5,0-10-4.5-10-10v-35
		C196,368.5,200.5,364,206,364z"/>
	<g id="enviar_mensaje" transform="translate(0 -7)">
		<g transform="matrix(1, 0, 0, 1, 124, 371)">
			<g id="Ellipse_671-2" transform="translate(81 9)">
				<circle class="st1" cx="19" cy="19" r="19"/>
				<g>
					<path class="st2" d="M19,38C8.5,38,0,29.5,0,19S8.5,0,19,0s19,8.5,19,19S29.5,38,19,38z M19,2C9.6,2,2,9.6,2,19s7.6,17,17,17
						s17-7.6,17-17S28.4,2,19,2z"/>
				</g>
			</g>
		</g>
		<path id="Subtraction_1" class="st0" d="M218,409c-0.3,0-0.5-0.1-0.7-0.3c-0.2-0.2-0.3-0.4-0.3-0.7v-7.4l6.5-1.1
			c0.2,0,0.4-0.2,0.4-0.5c0-0.2-0.2-0.5-0.4-0.5l-6.5-1.1V390c0-0.6,0.4-1,1-1c0.2,0,0.3,0,0.5,0.1l17,9c0.3,0.2,0.5,0.5,0.5,0.9
			c0,0.4-0.2,0.7-0.5,0.9l-17,9C218.3,409,218.2,409,218,409z"/>
	</g>
</g>
</svg>
