<svg xmlns="http://www.w3.org/2000/svg" xmlns:xlink="http://www.w3.org/1999/xlink" width="150" height="150" viewBox="0 0 150 150"><defs><style>.a{fill:none;}.b{clip-path:url(#a);}.c{fill:#1eea00;}.d{fill:#fff;}.e{fill:#004b40;}</style><clipPath id="a"><rect class="a" width="150" height="150"/></clipPath></defs><g class="b"><circle class="c" cx="75" cy="75" r="75"/><circle class="d" cx="65.863" cy="65.863" r="65.863" transform="translate(9.136 9.137)"/><g transform="translate(31.861 48.658)"><rect class="e" width="3.632" height="7.263" transform="translate(10.895 27.238)"/><path class="e" d="M4990.424,1631.169h-69a1.817,1.817,0,0,0-1.817,1.815v5.447h-9.078v3.633h9.078v1.814h3.631V1634.8h65.371v32.684h-65.371v-1.815h-3.631v3.63a1.816,1.816,0,0,0,1.816,1.817h69a1.818,1.818,0,0,0,1.816-1.817v-36.317a1.817,1.817,0,0,0-1.815-1.815Zm0,0" transform="translate(-4908.71 -1623.905)"/><path class="e" d="M4935.612,1633.918a12.711,12.711,0,1,0,12.709,12.711,12.712,12.712,0,0,0-12.709-12.711Zm0,21.792a9.08,9.08,0,1,1,9.076-9.079A9.08,9.08,0,0,1,4935.612,1655.71Zm0,0" transform="translate(-4888.4 -1619.393)"/><path class="e" d="M4925.563,1637.551h9.31v-3.632h-10.9a1.818,1.818,0,0,0-1.813,1.818,3.627,3.627,0,0,1-3.63,3.63,1.817,1.817,0,0,0-1.818,1.818v10.894a1.816,1.816,0,0,0,1.816,1.815,3.63,3.63,0,0,1,3.63,3.632,1.816,1.816,0,0,0,1.814,1.815h10.9v-3.63h-9.31a7.28,7.28,0,0,0-5.221-5.218v-7.725a7.28,7.28,0,0,0,5.221-5.217Zm0,0" transform="translate(-4898.554 -1619.393)"/><path class="e" d="M4948.177,1639.366a3.631,3.631,0,0,1-3.631-3.63,1.817,1.817,0,0,0-1.817-1.818h-10.894v3.632h9.306a7.3,7.3,0,0,0,5.222,5.217v7.725a7.3,7.3,0,0,0-5.222,5.218h-9.306v3.63h10.894a1.816,1.816,0,0,0,1.817-1.815,3.633,3.633,0,0,1,3.63-3.632,1.813,1.813,0,0,0,1.814-1.815v-10.894a1.814,1.814,0,0,0-1.813-1.818Zm0,0" transform="translate(-4873.728 -1619.393)"/><rect class="e" width="9.079" height="3.632" transform="translate(7.264 21.79)"/><rect class="e" width="3.632" height="3.632" transform="translate(0 21.79)"/><rect class="e" width="7.263" height="3.632" transform="translate(0 29.054)"/><rect class="e" width="12.711" height="3.632" transform="translate(3.631 36.317)"/><rect class="e" width="14.527" height="3.632" transform="translate(30.869 50.843)"/><rect class="e" width="3.632" height="3.632" transform="translate(23.605 50.843)"/><rect class="e" width="3.632" height="3.632" transform="translate(16.343 50.843)"/><rect class="e" width="21.79" height="3.632" transform="translate(43.58)"/><rect class="e" width="3.632" height="3.632" transform="translate(36.316)"/><rect class="e" width="3.632" height="3.632" transform="translate(29.054)"/><rect class="e" width="3.632" height="3.632" transform="translate(21.789)"/><g transform="translate(42.68 19.332)"><path class="c" d="M4935.057,1645.974c0,1.847-1.43,3.019-3.456,3.278v2.3h-1.589v-2.283A7.427,7.427,0,0,1,4926,1647.5l.9-1.817a6.316,6.316,0,0,0,3.889,1.657c1.2,0,1.929-.449,1.929-1.239,0-2.345-6.041-1.012-6.041-5.014,0-1.717,1.3-2.908,3.341-3.165v-2.168l1.589-.016v2.168a7.682,7.682,0,0,1,3.346,1.157l-.869,1.865a7.2,7.2,0,0,0-3.375-1.093c-1.014,0-1.671.37-1.671,1.059C4929.032,1643.176,4935.075,1641.939,4935.057,1645.974Z" transform="translate(-4925.995 -1635.737)"/></g></g></g></svg>