<svg id="Layer_1" data-name="Layer 1" xmlns="http://www.w3.org/2000/svg" viewBox="0 0 56.27 56.27"><title>Enviar</title><circle cx="28.13" cy="28.13" r="28.13" fill="#1eea00"/><circle cx="28.13" cy="28.13" r="24.57" fill="#fff"/><rect x="16.45" y="28.13" width="1.37" height="2.75" fill="#004b40"/><path d="M43.26,20.57H17.14a.69.69,0,0,0-.69.69v2.06H13V24.7h3.44v.69h1.37V21.95H42.57V34.32H17.82v-.69H16.45V35a.69.69,0,0,0,.69.69H43.26a.69.69,0,0,0,.69-.69V21.26a.69.69,0,0,0-.69-.69Zm0,0" fill="#004b40"/><path d="M30.2,23.32A4.81,4.81,0,1,0,35,28.13a4.81,4.81,0,0,0-4.81-4.81Zm0,8.25a3.44,3.44,0,1,1,3.44-3.44,3.44,3.44,0,0,1-3.44,3.44Zm0,0" fill="#004b40"/><path d="M22.55,24.7h3.52V23.32H21.95a.69.69,0,0,0-.69.69,1.37,1.37,0,0,1-1.37,1.37.69.69,0,0,0-.69.69V30.2a.69.69,0,0,0,.69.69,1.37,1.37,0,0,1,1.37,1.37.69.69,0,0,0,.69.69h4.12V31.57H22.55a2.76,2.76,0,0,0-2-2V26.67a2.76,2.76,0,0,0,2-2Zm0,0" fill="#004b40"/><path d="M40.51,25.38A1.37,1.37,0,0,1,39.13,24a.69.69,0,0,0-.69-.69H34.32V24.7h3.52a2.76,2.76,0,0,0,2,2V29.6a2.76,2.76,0,0,0-2,2H34.32v1.37h4.12a.69.69,0,0,0,.69-.69,1.37,1.37,0,0,1,1.37-1.37.69.69,0,0,0,.69-.69V26.07a.69.69,0,0,0-.69-.69Zm0,0" fill="#004b40"/><rect x="15.07" y="26.07" width="3.44" height="1.37" fill="#004b40"/><rect x="12.32" y="26.07" width="1.37" height="1.37" fill="#004b40"/><rect x="12.32" y="28.82" width="2.75" height="1.37" fill="#004b40"/><rect x="13.7" y="31.57" width="4.81" height="1.37" fill="#004b40"/><rect x="24.01" y="37.07" width="5.5" height="1.37" fill="#004b40"/><rect x="21.26" y="37.07" width="1.37" height="1.37" fill="#004b40"/><rect x="18.51" y="37.07" width="1.37" height="1.37" fill="#004b40"/><rect x="28.82" y="17.82" width="8.25" height="1.37" fill="#004b40"/><rect x="26.07" y="17.82" width="1.37" height="1.37" fill="#004b40"/><rect x="23.32" y="17.82" width="1.37" height="1.37" fill="#004b40"/><rect x="20.57" y="17.82" width="1.37" height="1.37" fill="#004b40"/><path d="M31.91,29c0,.7-.54,1.14-1.31,1.24v.87H30v-.86a2.81,2.81,0,0,1-1.52-.67l.34-.69a2.39,2.39,0,0,0,1.47.63c.46,0,.73-.17.73-.47,0-.89-2.29-.38-2.29-1.9,0-.65.49-1.1,1.27-1.2v-.82h.6V26a2.9,2.9,0,0,1,1.27.44l-.33.71a2.73,2.73,0,0,0-1.28-.41c-.38,0-.63.14-.63.4C29.63,28,31.92,27.49,31.91,29Z" fill="#1eea00"/></svg>