<svg id="Layer_1" data-name="Layer 1" xmlns="http://www.w3.org/2000/svg" viewBox="0 0 56.27 56.27"><title>Solicitar</title><circle cx="28.13" cy="28.13" r="28.13" fill="#1eea00"/><circle cx="28.13" cy="28.13" r="24.57" fill="#fff"/><path d="M30.53,22.16c0,1.09-.85,1.79-2,1.94v1.36h-.94V24.1a4.38,4.38,0,0,1-2.38-1L25.7,22A3.74,3.74,0,0,0,28,23c.71,0,1.14-.27,1.14-.73,0-1.39-3.57-.6-3.57-3,0-1,.77-1.72,2-1.87V16.11h.94v1.28a4.53,4.53,0,0,1,2,.68l-.51,1.1a4.26,4.26,0,0,0-2-.65c-.6,0-1,.22-1,.63C27,20.5,30.54,19.77,30.53,22.16Z" fill="#1eea00"/><path d="M43.11,29.33a3.83,3.83,0,0,0-5.41,0l-4,4-.2-.17a2.29,2.29,0,0,0-1.4-.48H27.92a3.82,3.82,0,0,0-3.51-2.3H21.35a3.83,3.83,0,0,0-2.3.77v-.77a.77.77,0,0,0-.77-.77H13.7a.77.77,0,0,0-.77.77V42.67a.77.77,0,0,0,.77.77h4.59a.77.77,0,0,0,.77-.77v-.77H31.3a.77.77,0,0,0,.54-.22L43.11,30.41a.77.77,0,0,0,0-1.08ZM17.53,41.91H14.46V31.19h3.06ZM31,40.38H19.06V34.25a2,2,0,0,1,.07-.54.06.06,0,0,1,0,0A2.29,2.29,0,0,1,21.35,32h3.06a2.29,2.29,0,0,1,2.22,1.72.77.77,0,0,0,.74.58h4.69a.77.77,0,0,1,.47.17.72.72,0,0,1,.26.38v0h0a.63.63,0,0,1,0,.2.75.75,0,0,1-.23.55.73.73,0,0,1-.53.22H23.65v1.53h8.42a2.31,2.31,0,0,0,2.3-2.3c0-.06,0-.12,0-.17l4.44-4.43A2.3,2.3,0,0,1,41.4,30Z" fill="#004b40"/><rect x="15.23" y="32.72" width="1.53" height="1.53" fill="#004b40"/><path d="M28.24,29.66a8.42,8.42,0,1,0-8.42-8.42A8.42,8.42,0,0,0,28.24,29.66Zm0-15.3a6.89,6.89,0,1,1-6.89,6.89A6.89,6.89,0,0,1,28.24,14.36Z" fill="#004b40"/><rect x="32.06" y="20.48" width="1.53" height="1.53" fill="#004b40"/><rect x="22.88" y="20.48" width="1.53" height="1.53" fill="#004b40"/></svg>