<svg id="Layer_1" data-name="Layer 1" xmlns="http://www.w3.org/2000/svg" viewBox="0 0 56.27 56.27"><title>Pagar</title><circle cx="28.13" cy="28.13" r="28.13" fill="#1eea00"/><circle cx="28.13" cy="28.13" r="24.57" fill="#fff"/><path d="M30.92,10.49a.37.37,0,0,0,.08.74,5.66,5.66,0,0,1,6.26,6.26.37.37,0,0,0,.74.08,6.41,6.41,0,0,0-7.09-7.09Z" fill="#1eea00"/><path d="M31.14,12.48a.37.37,0,0,0,.08.74,3.65,3.65,0,0,1,4,4,.37.37,0,0,0,.74.08,4.4,4.4,0,0,0-4.87-4.87Z" fill="#1eea00"/><path d="M34.32,20.39V17.64a3.44,3.44,0,0,0-3.44-3.44H22.63a3.44,3.44,0,0,0-3.44,3.44v3.84L16.08,24.6a3.41,3.41,0,0,0-1,2.43v13.3h-.69a.69.69,0,0,0-.69.69v4.12a.69.69,0,0,0,.69.69H27.45a.69.69,0,0,0,.69-.69V41a.69.69,0,0,0-.69-.69H26.07v-.07a3.43,3.43,0,0,0,2-1.31h2.77a3.44,3.44,0,0,0,3.44-3.44V32.81H32.95v.64H22.63V33l3.17-3.17a3.43,3.43,0,0,0,0-4.85h0l-.48-.48a1.38,1.38,0,0,0-1.95,0l-2.73,2.73h-.07V19.7H32.95v.69ZM26.76,41.7v2.75H15.07V41.7Zm6.19-6.87v.69a2.06,2.06,0,0,1-2.06,2.06H22.63a2,2,0,0,1-1-.29,3.42,3.42,0,0,0,1-2.46Zm-12-6.19a.69.69,0,0,0,.49-.2l2.93-2.93.48.48a2.1,2.1,0,0,1,.58,1.83,2.07,2.07,0,0,1-.57,1.09l-3.37,3.37a.69.69,0,0,0-.2.48v2.06a2.06,2.06,0,0,1-2.06,2.06v1.37a3.4,3.4,0,0,0,1.13-.21,3.43,3.43,0,0,0,2.31.89h2.75a.69.69,0,0,0-.69.69v.69H16.45V27a2.08,2.08,0,0,1,.6-1.46l2.15-2.15v5.21Zm-.36-10.31v-.69a2.06,2.06,0,0,1,2.06-2.06h8.25a2.06,2.06,0,0,1,2.06,2.06v.69Zm0,0" fill="#004b40"/><path d="M36.38,20.39a6.19,6.19,0,1,0,6.19,6.19,6.19,6.19,0,0,0-6.19-6.19Zm0,11a4.81,4.81,0,1,1,4.81-4.81,4.81,4.81,0,0,1-4.81,4.81Zm0,0" fill="#004b40"/><path d="M38.59,27.73c0,.93-.72,1.52-1.74,1.65v1.16h-.8V29.38a3.73,3.73,0,0,1-2-.89l.45-.91a3.18,3.18,0,0,0,2,.83c.61,0,1-.23,1-.62,0-1.18-3-.51-3-2.52,0-.87.65-1.46,1.68-1.59V22.59h.8v1.09a3.86,3.86,0,0,1,1.68.58l-.44.94a3.62,3.62,0,0,0-1.7-.55c-.51,0-.84.19-.84.53C35.56,26.32,38.6,25.7,38.59,27.73Z" fill="#1eea00"/></svg>