<svg xmlns="http://www.w3.org/2000/svg" xmlns:xlink="http://www.w3.org/1999/xlink" width="192" height="192" viewBox="0 0 192 192"><defs><style>.a{fill:#fff;opacity:0.787;}.b,.f{fill:#c4f6dc;}.b,.c,.d{opacity:0.3;}.c,.h{fill:#004b40;}.e{fill:#001b24;}.g{fill:#50c9a0;}.i{fill:#1eeb00;}.j{fill:none;stroke:#004b40;stroke-linecap:round;stroke-linejoin:round;stroke-width:2px;}.k{filter:url(#a);}</style><filter id="a" x="0" y="0" width="192" height="192" filterUnits="userSpaceOnUse"><feOffset dy="3" input="SourceAlpha"/><feGaussianBlur stdDeviation="3.5" result="b"/><feFlood flood-color="#e6e6e6"/><feComposite operator="in" in2="b"/><feComposite in="SourceGraphic"/></filter></defs><g transform="translate(-91.5 -105.5)"><g class="k" transform="matrix(1, 0, 0, 1, 91.5, 105.5)"><circle class="a" cx="85.5" cy="85.5" r="85.5" transform="translate(10.5 7.5)"/></g><g transform="translate(18.676 -135.393)"><g transform="translate(113.958 295)"><path class="b" d="M909.008,250.663V306.3a3.662,3.662,0,0,1-3.663,3.663H855.72V247h49.625A3.662,3.662,0,0,1,909.008,250.663Z" transform="translate(-798.532 -237.777)"/><path class="c" d="M861.307,316.049a1.049,1.049,0,0,1-1.049,1.049H855.72V315h4.537A1.049,1.049,0,0,1,861.307,316.049Z" transform="translate(-798.532 -292.802)"/><path class="c" d="M861.307,337.8a.8.8,0,0,1-.8.8H855.72V337h4.785a.8.8,0,0,1,.8.8Z" transform="translate(-798.532 -310.605)"/><path class="c" d="M867.222,385.24a1.238,1.238,0,0,1-1.24,1.24H855.72V384h10.262A1.24,1.24,0,0,1,867.222,385.24Z" transform="translate(-798.532 -348.637)"/><rect class="c" width="30.72" height="1.384" rx="0.692" transform="translate(73.27 40.085)"/><path class="c" d="M859.78,547.441a.691.691,0,0,1-.693.693H855.72V546.75h3.368A.691.691,0,0,1,859.78,547.441Z" transform="translate(-798.532 -480.333)"/><rect class="c" width="20.035" height="1.384" rx="0.692" transform="translate(65.637 66.417)"/><rect class="c" width="12.784" height="1.384" rx="0.692" transform="translate(91.778 66.417)"/><rect class="c" width="24.805" height="2.078" rx="1.039" transform="translate(69.644 18.403)"/><path class="c" d="M863.024,365.137a.567.567,0,0,1-.565.565H855.72V364.57h6.739A.566.566,0,0,1,863.024,365.137Z" transform="translate(-798.532 -332.914)"/><rect class="c" width="10.017" height="1.55" rx="0.775" transform="translate(76.99 33.527)"/><rect class="c" width="10.017" height="1.55" rx="0.775" transform="translate(76.99 36.198)"/><g class="d" transform="translate(57.188 47.355)"><rect class="e" width="6.236" height="16.247" transform="translate(34.803 0.001)"/><rect class="e" width="0.364" height="2.032" transform="translate(0)"/><rect class="e" width="0.364" height="2.032" transform="translate(0 6.092)"/><rect class="e" width="0.792" height="2.031" transform="translate(0.364 2.031)"/><rect class="e" width="0.792" height="2.031" transform="translate(0.364 12.186)"/><rect class="e" width="0.792" height="2.031" transform="translate(0.364 14.216)"/><rect class="e" width="0.792" height="2.031" transform="translate(1.156 0.001)"/><rect class="e" width="0.792" height="2.031" transform="translate(1.156 2.031)"/><rect class="e" width="0.792" height="2.031" transform="translate(1.156 4.062)"/><rect class="e" width="0.792" height="2.031" transform="translate(1.156 10.155)"/><rect class="e" width="0.792" height="2.031" transform="translate(1.156 14.216)"/><rect class="e" width="0.792" height="2.031" transform="translate(1.947 0.001)"/><rect class="e" width="0.792" height="2.031" transform="translate(1.947 12.186)"/><rect class="e" width="0.792" height="2.031" transform="translate(2.739 0.001)"/><rect class="e" width="0.792" height="2.031" transform="translate(2.739 6.093)"/><rect class="e" width="0.792" height="2.031" transform="translate(2.739 10.155)"/><rect class="e" width="0.792" height="2.031" transform="translate(3.531 0.001)"/><rect class="e" width="0.792" height="2.031" transform="translate(3.531 8.124)"/><rect class="e" width="0.792" height="2.031" transform="translate(4.323 0.001)"/><rect class="e" width="0.792" height="2.031" transform="translate(4.323 10.155)"/><rect class="e" width="0.792" height="2.031" transform="translate(4.323 12.186)"/><rect class="e" width="0.792" height="2.031" transform="translate(5.115 8.124)"/><rect class="e" width="0.792" height="2.031" transform="translate(5.115 10.155)"/><rect class="e" width="0.792" height="2.031" transform="translate(5.115 12.186)"/><rect class="e" width="0.792" height="2.031" transform="translate(5.907 8.124)"/><rect class="e" width="0.792" height="2.031" transform="translate(6.698 4.062)"/><rect class="e" width="0.792" height="2.031" transform="translate(6.698 10.155)"/><rect class="e" width="0.792" height="2.031" transform="translate(6.698 14.216)"/><rect class="e" width="0.792" height="2.031" transform="translate(7.49 14.216)"/><rect class="e" width="0.792" height="2.031" transform="translate(8.282 2.031)"/><rect class="e" width="0.792" height="2.031" transform="translate(8.282 6.093)"/><rect class="e" width="0.792" height="2.031" transform="translate(9.074 8.124)"/><rect class="e" width="0.792" height="2.031" transform="translate(9.074 10.155)"/><rect class="e" width="0.792" height="2.031" transform="translate(9.074 12.186)"/><rect class="e" width="0.792" height="2.031" transform="translate(9.074 14.216)"/><rect class="e" width="0.792" height="2.031" transform="translate(9.866 4.062)"/><rect class="e" width="0.792" height="2.031" transform="translate(9.866 8.124)"/><rect class="e" width="0.792" height="2.031" transform="translate(9.866 10.155)"/><rect class="e" width="0.792" height="2.031" transform="translate(9.866 12.186)"/><rect class="e" width="0.792" height="2.031" transform="translate(10.658 0.001)"/><rect class="e" width="0.792" height="2.031" transform="translate(10.658 6.093)"/><rect class="e" width="0.792" height="2.031" transform="translate(10.658 8.124)"/><rect class="e" width="0.792" height="2.031" transform="translate(10.658 14.216)"/><rect class="e" width="0.792" height="2.031" transform="translate(11.449 8.124)"/><rect class="e" width="0.792" height="2.031" transform="translate(11.449 12.186)"/><rect class="e" width="0.792" height="2.031" transform="translate(12.241 2.031)"/><rect class="e" width="0.792" height="2.031" transform="translate(12.241 4.062)"/><rect class="e" width="0.792" height="2.031" transform="translate(12.241 6.093)"/><rect class="e" width="0.792" height="2.031" transform="translate(12.241 8.124)"/><rect class="e" width="0.792" height="2.031" transform="translate(12.241 10.155)"/><rect class="e" width="0.792" height="2.031" transform="translate(12.241 14.216)"/><rect class="e" width="0.792" height="2.031" transform="translate(13.033 2.031)"/><rect class="e" width="0.792" height="2.031" transform="translate(13.033 6.093)"/><rect class="e" width="0.792" height="2.031" transform="translate(13.033 8.124)"/><rect class="e" width="0.792" height="2.031" transform="translate(13.033 10.155)"/><rect class="e" width="0.792" height="2.031" transform="translate(13.825 0.001)"/><rect class="e" width="0.792" height="2.031" transform="translate(13.825 6.093)"/><rect class="e" width="0.792" height="2.031" transform="translate(13.825 14.216)"/><rect class="e" width="0.792" height="2.031" transform="translate(14.617 0.001)"/><rect class="e" width="0.792" height="2.031" transform="translate(14.617 6.093)"/><rect class="e" width="0.792" height="2.031" transform="translate(14.617 10.155)"/><rect class="e" width="0.792" height="2.031" transform="translate(14.617 14.216)"/><rect class="e" width="0.792" height="2.031" transform="translate(15.408 0.001)"/><rect class="e" width="0.792" height="2.031" transform="translate(15.408 2.031)"/><rect class="e" width="0.792" height="2.031" transform="translate(15.408 4.062)"/><rect class="e" width="0.792" height="2.031" transform="translate(15.408 6.093)"/><rect class="e" width="0.792" height="2.031" transform="translate(15.408 8.124)"/><rect class="e" width="0.792" height="2.031" transform="translate(15.408 12.186)"/><rect class="e" width="0.792" height="2.031" transform="translate(16.2 0.001)"/><rect class="e" width="0.792" height="2.031" transform="translate(16.2 2.031)"/><rect class="e" width="0.792" height="2.031" transform="translate(16.2 6.093)"/><rect class="e" width="0.792" height="2.031" transform="translate(16.2 10.155)"/><rect class="e" width="0.792" height="2.031" transform="translate(16.2 14.216)"/><rect class="e" width="0.792" height="2.031" transform="translate(16.992 0.001)"/><rect class="e" width="0.792" height="2.031" transform="translate(16.992 2.031)"/><rect class="e" width="0.792" height="2.031" transform="translate(16.992 8.124)"/><rect class="e" width="0.792" height="2.031" transform="translate(17.784 0.001)"/><rect class="e" width="0.792" height="2.031" transform="translate(17.784 4.062)"/><rect class="e" width="0.792" height="2.031" transform="translate(17.784 8.124)"/><rect class="e" width="0.792" height="2.031" transform="translate(18.576 8.124)"/><rect class="e" width="0.792" height="2.031" transform="translate(18.576 10.155)"/><rect class="e" width="0.792" height="2.031" transform="translate(18.576 12.186)"/><rect class="e" width="0.792" height="2.031" transform="translate(19.368 2.031)"/><rect class="e" width="0.792" height="2.031" transform="translate(19.368 12.186)"/><rect class="e" width="0.792" height="2.031" transform="translate(20.159 0.001)"/><rect class="e" width="0.792" height="2.031" transform="translate(20.159 2.031)"/><rect class="e" width="0.792" height="2.031" transform="translate(20.159 4.062)"/><rect class="e" width="0.792" height="2.031" transform="translate(20.159 6.093)"/><rect class="e" width="0.792" height="2.031" transform="translate(20.159 8.124)"/><rect class="e" width="0.792" height="2.031" transform="translate(20.951 2.031)"/><rect class="e" width="0.792" height="2.031" transform="translate(20.951 10.155)"/><rect class="e" width="0.792" height="2.031" transform="translate(20.951 12.186)"/><rect class="e" width="0.792" height="2.031" transform="translate(21.743 2.031)"/><rect class="e" width="0.792" height="2.031" transform="translate(21.743 4.062)"/><rect class="e" width="0.792" height="2.031" transform="translate(22.535 2.031)"/><rect class="e" width="0.792" height="2.031" transform="translate(22.535 6.093)"/><rect class="e" width="0.792" height="2.031" transform="translate(22.535 10.155)"/><rect class="e" width="0.792" height="2.031" transform="translate(23.327 6.093)"/><rect class="e" width="0.792" height="2.031" transform="translate(23.327 14.216)"/><rect class="e" width="0.792" height="2.031" transform="translate(24.119 4.062)"/><rect class="e" width="0.792" height="2.031" transform="translate(24.119 6.093)"/><rect class="e" width="0.792" height="2.031" transform="translate(24.119 8.124)"/><rect class="e" width="0.792" height="2.031" transform="translate(24.119 10.155)"/><rect class="e" width="0.792" height="2.031" transform="translate(24.119 14.216)"/><rect class="e" width="0.792" height="2.031" transform="translate(24.91 0.001)"/><rect class="e" width="0.792" height="2.031" transform="translate(24.91 2.031)"/><rect class="e" width="0.792" height="2.031" transform="translate(24.91 4.062)"/><rect class="e" width="0.792" height="2.031" transform="translate(25.702 2.031)"/><rect class="e" width="0.792" height="2.031" transform="translate(25.702 8.124)"/><rect class="e" width="0.792" height="2.031" transform="translate(25.702 12.186)"/><rect class="e" width="0.792" height="2.031" transform="translate(26.494 0.001)"/><rect class="e" width="0.792" height="2.031" transform="translate(27.286 6.093)"/><rect class="e" width="0.792" height="2.031" transform="translate(27.286 8.124)"/><rect class="e" width="0.792" height="2.031" transform="translate(28.078 2.031)"/><rect class="e" width="0.792" height="2.031" transform="translate(28.078 4.062)"/><rect class="e" width="0.792" height="2.031" transform="translate(28.078 12.186)"/><rect class="e" width="0.792" height="2.031" transform="translate(28.078 14.216)"/><rect class="e" width="0.792" height="2.031" transform="translate(28.87 0.001)"/><rect class="e" width="0.792" height="2.031" transform="translate(28.87 4.062)"/><rect class="e" width="0.792" height="2.031" transform="translate(28.87 6.093)"/><rect class="e" width="0.792" height="2.031" transform="translate(28.87 14.216)"/><rect class="e" width="0.792" height="2.031" transform="translate(29.661 2.031)"/><rect class="e" width="0.792" height="2.031" transform="translate(29.661 4.062)"/><rect class="e" width="0.792" height="2.031" transform="translate(29.661 8.124)"/><rect class="e" width="0.792" height="2.031" transform="translate(29.661 12.186)"/><rect class="e" width="0.792" height="2.031" transform="translate(30.453 10.155)"/><rect class="e" width="0.792" height="2.031" transform="translate(31.245 0.001)"/><rect class="e" width="0.792" height="2.031" transform="translate(31.245 2.031)"/><rect class="e" width="0.792" height="2.031" transform="translate(31.245 4.062)"/><rect class="e" width="0.792" height="2.031" transform="translate(32.037 6.093)"/><rect class="e" width="0.792" height="2.031" transform="translate(32.037 10.155)"/><rect class="e" width="0.792" height="2.031" transform="translate(32.037 14.216)"/><rect class="e" width="0.792" height="2.031" transform="translate(32.829 4.062)"/><rect class="e" width="0.792" height="2.031" transform="translate(32.829 10.155)"/><rect class="e" width="0.792" height="16.247" transform="translate(41.831 0.001)"/><rect class="e" width="0.792" height="16.247" transform="translate(43.414 0.001)"/><rect class="e" width="0.792" height="16.247" transform="translate(46.582 0.001)"/><rect class="e" width="0.792" height="16.247" transform="translate(44.206 0.001)"/><rect class="e" width="0.792" height="16.247" transform="translate(45.79 0.001)"/></g><g transform="translate(0 9.414)"><path class="f" d="M613.188,248v62.966H559.663A3.662,3.662,0,0,1,556,307.3V251.663A3.662,3.662,0,0,1,559.663,248Z" transform="translate(-556 -248)"/><rect class="g" width="27" height="28" transform="translate(6.362 5.98)"/><path class="h" d="M774.218,316v2.1H756.049a1.049,1.049,0,1,1,0-2.1Z" transform="translate(-717.03 -303.025)"/><path class="h" d="M774.218,338v1.6H755.8a.8.8,0,0,1,0-1.6Z" transform="translate(-717.03 -320.827)"/><rect class="h" width="16.6" height="2.345" rx="1.173" transform="translate(38.257 9.008)"/><path class="h" d="M774.218,385v2.48H756.24a1.24,1.24,0,1,1,0-2.48Z" transform="translate(-717.03 -358.86)"/><path class="h" d="M639.083,547.75v1.383h-50.39a.691.691,0,0,1-.693-.693.683.683,0,0,1,.2-.488.7.7,0,0,1,.49-.2Z" transform="translate(-581.894 -490.556)"/><rect class="h" width="10.017" height="1.131" rx="0.565" transform="translate(38.257 22.434)"/><path class="h" d="M844.213,365.57V366.7h-2.148a.565.565,0,0,1-.4-.965.556.556,0,0,1,.4-.166Z" transform="translate(-787.025 -343.137)"/><g transform="translate(6.182 38.133)"><rect class="e" width="6.236" height="16.247" transform="translate(0 0.001)"/><rect class="e" width="0.792" height="16.247" transform="translate(7.027 0.001)"/><rect class="e" width="0.792" height="16.247" transform="translate(8.611 0.001)"/><rect class="e" width="0.792" height="16.247" transform="translate(10.195 0.001)"/><rect class="e" width="0.792" height="2.031" transform="translate(13.362 4.062)"/><rect class="e" width="0.792" height="2.031" transform="translate(13.362 8.124)"/><rect class="e" width="0.792" height="2.031" transform="translate(13.362 10.155)"/><rect class="e" width="0.792" height="2.031" transform="translate(13.362 14.216)"/><rect class="e" width="0.792" height="2.031" transform="translate(14.154 0.001)"/><rect class="e" width="0.792" height="2.031" transform="translate(14.154 2.031)"/><rect class="e" width="0.792" height="2.031" transform="translate(14.154 10.155)"/><rect class="e" width="0.792" height="2.031" transform="translate(14.154 12.186)"/><rect class="e" width="0.792" height="2.031" transform="translate(14.154 14.216)"/><rect class="e" width="0.792" height="2.031" transform="translate(14.946 2.031)"/><rect class="e" width="0.792" height="2.031" transform="translate(14.946 4.062)"/><rect class="e" width="0.792" height="2.031" transform="translate(14.946 6.093)"/><rect class="e" width="0.792" height="2.031" transform="translate(14.946 8.124)"/><rect class="e" width="0.792" height="2.031" transform="translate(14.946 10.155)"/><rect class="e" width="0.792" height="2.031" transform="translate(15.738 4.062)"/><rect class="e" width="0.792" height="2.031" transform="translate(16.529 4.062)"/><rect class="e" width="0.792" height="2.031" transform="translate(16.529 6.093)"/><rect class="e" width="0.792" height="2.031" transform="translate(16.529 14.216)"/><rect class="e" width="0.792" height="2.031" transform="translate(17.321 2.031)"/><rect class="e" width="0.792" height="2.031" transform="translate(17.321 6.093)"/><rect class="e" width="0.792" height="2.031" transform="translate(17.321 12.186)"/><rect class="e" width="0.792" height="2.031" transform="translate(18.113 0.001)"/><rect class="e" width="0.792" height="2.031" transform="translate(18.113 2.031)"/><rect class="e" width="0.792" height="2.031" transform="translate(18.113 10.155)"/><rect class="e" width="0.792" height="2.031" transform="translate(18.113 14.216)"/><rect class="e" width="0.792" height="2.031" transform="translate(18.905 0.001)"/><rect class="e" width="0.792" height="2.031" transform="translate(18.905 2.031)"/><rect class="e" width="0.792" height="2.031" transform="translate(18.905 6.093)"/><rect class="e" width="0.792" height="2.031" transform="translate(18.905 12.186)"/><rect class="e" width="0.792" height="2.031" transform="translate(19.697 6.093)"/><rect class="e" width="0.792" height="2.031" transform="translate(19.697 8.124)"/><rect class="e" width="0.792" height="2.031" transform="translate(19.697 14.216)"/><rect class="e" width="0.792" height="2.031" transform="translate(20.489 2.031)"/><rect class="e" width="0.792" height="2.031" transform="translate(20.489 10.155)"/><rect class="e" width="0.792" height="2.031" transform="translate(20.489 12.186)"/><rect class="e" width="0.792" height="2.031" transform="translate(21.28 4.062)"/><rect class="e" width="0.792" height="2.031" transform="translate(21.28 6.093)"/><rect class="e" width="0.792" height="2.031" transform="translate(21.28 8.124)"/><rect class="e" width="0.792" height="2.031" transform="translate(22.072 4.062)"/><rect class="e" width="0.792" height="2.031" transform="translate(22.072 6.093)"/><rect class="e" width="0.792" height="2.031" transform="translate(22.072 8.124)"/><rect class="e" width="0.792" height="2.031" transform="translate(22.072 12.186)"/><rect class="e" width="0.792" height="2.031" transform="translate(22.072 14.216)"/><rect class="e" width="0.792" height="2.031" transform="translate(22.864 0.001)"/><rect class="e" width="0.792" height="2.031" transform="translate(22.864 2.031)"/><rect class="e" width="0.792" height="2.031" transform="translate(22.864 4.062)"/><rect class="e" width="0.792" height="2.031" transform="translate(22.864 10.155)"/><rect class="e" width="0.792" height="2.031" transform="translate(22.864 14.216)"/><rect class="e" width="0.792" height="2.031" transform="translate(23.656 0.001)"/><rect class="e" width="0.792" height="2.031" transform="translate(23.656 2.031)"/><rect class="e" width="0.792" height="2.031" transform="translate(23.656 4.062)"/><rect class="e" width="0.792" height="2.031" transform="translate(23.656 6.093)"/><rect class="e" width="0.792" height="2.031" transform="translate(23.656 8.124)"/><rect class="e" width="0.792" height="2.031" transform="translate(23.656 10.155)"/><rect class="e" width="0.792" height="2.031" transform="translate(24.448 0.001)"/><rect class="e" width="0.792" height="2.031" transform="translate(24.448 4.062)"/><rect class="e" width="0.792" height="2.031" transform="translate(24.448 6.093)"/><rect class="e" width="0.792" height="2.031" transform="translate(24.448 8.124)"/><rect class="e" width="0.792" height="2.031" transform="translate(25.239 0.001)"/><rect class="e" width="0.792" height="2.031" transform="translate(25.239 8.124)"/><rect class="e" width="0.792" height="2.031" transform="translate(25.239 10.155)"/><rect class="e" width="0.792" height="2.031" transform="translate(25.239 12.186)"/><rect class="e" width="0.792" height="2.031" transform="translate(25.239 14.216)"/><rect class="e" width="0.792" height="2.031" transform="translate(26.031 8.124)"/><rect class="e" width="0.792" height="2.031" transform="translate(26.823 6.093)"/><rect class="e" width="0.792" height="2.031" transform="translate(26.823 8.124)"/><rect class="e" width="0.792" height="2.031" transform="translate(26.823 10.155)"/><rect class="e" width="0.792" height="2.031" transform="translate(26.823 14.216)"/><rect class="e" width="0.792" height="2.031" transform="translate(27.615 0.001)"/><rect class="e" width="0.792" height="2.031" transform="translate(27.615 8.124)"/><rect class="e" width="0.792" height="2.031" transform="translate(27.615 10.155)"/><rect class="e" width="0.792" height="2.031" transform="translate(28.407 4.062)"/><rect class="e" width="0.792" height="2.031" transform="translate(28.407 6.093)"/><rect class="e" width="0.792" height="2.031" transform="translate(28.407 8.124)"/><rect class="e" width="0.792" height="2.031" transform="translate(29.199 2.031)"/><rect class="e" width="0.792" height="2.031" transform="translate(29.199 4.062)"/><rect class="e" width="0.792" height="2.031" transform="translate(29.199 12.186)"/><rect class="e" width="0.792" height="2.031" transform="translate(29.199 14.216)"/><rect class="e" width="0.792" height="2.031" transform="translate(29.99 0.001)"/><rect class="e" width="0.792" height="2.031" transform="translate(29.99 2.031)"/><rect class="e" width="0.792" height="2.031" transform="translate(29.99 6.093)"/><rect class="e" width="0.792" height="2.031" transform="translate(29.99 12.186)"/><rect class="e" width="0.792" height="2.031" transform="translate(29.99 14.216)"/><rect class="e" width="0.792" height="2.031" transform="translate(30.782 0.001)"/><rect class="e" width="0.792" height="2.031" transform="translate(30.782 6.093)"/><rect class="e" width="0.792" height="2.031" transform="translate(30.782 10.155)"/><rect class="e" width="0.792" height="2.031" transform="translate(30.782 12.186)"/><rect class="e" width="0.792" height="2.031" transform="translate(30.782 14.216)"/><rect class="e" width="0.792" height="2.031" transform="translate(31.574 0.001)"/><rect class="e" width="0.792" height="2.031" transform="translate(31.574 2.031)"/><rect class="e" width="0.792" height="2.031" transform="translate(31.574 12.186)"/><rect class="e" width="0.792" height="2.031" transform="translate(32.366 4.062)"/><rect class="e" width="0.792" height="2.031" transform="translate(32.366 8.124)"/><rect class="e" width="0.792" height="2.031" transform="translate(32.366 14.216)"/><rect class="e" width="0.792" height="2.031" transform="translate(33.158 2.031)"/><rect class="e" width="0.792" height="2.031" transform="translate(33.158 12.186)"/><rect class="e" width="0.792" height="2.031" transform="translate(33.95 0.001)"/><rect class="e" width="0.792" height="2.031" transform="translate(33.95 2.031)"/><rect class="e" width="0.792" height="2.031" transform="translate(33.95 4.062)"/><rect class="e" width="0.792" height="2.031" transform="translate(33.95 8.124)"/><rect class="e" width="0.792" height="2.031" transform="translate(33.95 10.155)"/><rect class="e" width="0.792" height="2.031" transform="translate(35.533 4.062)"/><rect class="e" width="0.792" height="2.031" transform="translate(36.325 4.062)"/><rect class="e" width="0.792" height="2.031" transform="translate(36.325 8.124)"/><rect class="e" width="0.792" height="2.031" transform="translate(37.117 8.124)"/><rect class="e" width="0.792" height="2.031" transform="translate(37.117 10.155)"/><rect class="e" width="0.792" height="2.031" transform="translate(37.117 14.216)"/><rect class="e" width="0.792" height="2.031" transform="translate(37.909 4.062)"/><rect class="e" width="0.792" height="2.031" transform="translate(37.909 6.093)"/><rect class="e" width="0.792" height="2.031" transform="translate(37.909 8.124)"/><rect class="e" width="0.792" height="2.031" transform="translate(37.909 12.186)"/><rect class="e" width="0.792" height="2.031" transform="translate(37.909 14.216)"/><rect class="e" width="0.792" height="2.031" transform="translate(38.701 6.093)"/><rect class="e" width="0.792" height="2.031" transform="translate(38.701 14.216)"/><rect class="e" width="0.792" height="2.031" transform="translate(39.492 0.001)"/><rect class="e" width="0.792" height="2.031" transform="translate(39.492 8.124)"/><rect class="e" width="0.792" height="2.031" transform="translate(39.492 14.216)"/><rect class="e" width="0.792" height="2.031" transform="translate(40.284 0.001)"/><rect class="e" width="0.792" height="2.031" transform="translate(40.284 6.093)"/><rect class="e" width="0.792" height="2.031" transform="translate(40.284 8.124)"/><rect class="e" width="0.792" height="2.031" transform="translate(40.284 10.155)"/><rect class="e" width="0.792" height="2.031" transform="translate(40.284 12.186)"/><rect class="e" width="0.792" height="2.031" transform="translate(40.284 14.216)"/><rect class="e" width="0.792" height="2.031" transform="translate(41.076 0.001)"/><rect class="e" width="0.792" height="2.031" transform="translate(41.076 4.062)"/><rect class="e" width="0.792" height="2.031" transform="translate(41.076 6.093)"/><rect class="e" width="0.792" height="2.031" transform="translate(41.076 8.124)"/><rect class="e" width="0.792" height="2.031" transform="translate(41.076 10.155)"/><rect class="e" width="0.792" height="2.031" transform="translate(41.076 12.186)"/><rect class="e" width="0.792" height="2.031" transform="translate(41.868 0.001)"/><rect class="e" width="0.792" height="2.031" transform="translate(41.868 14.216)"/><rect class="e" width="0.792" height="2.031" transform="translate(42.66 10.155)"/><rect class="e" width="0.792" height="2.031" transform="translate(43.452 8.124)"/><rect class="e" width="0.792" height="2.031" transform="translate(43.452 12.186)"/><rect class="e" width="0.792" height="2.031" transform="translate(43.452 14.216)"/><rect class="e" width="0.792" height="2.031" transform="translate(44.243 2.031)"/><rect class="e" width="0.792" height="2.031" transform="translate(44.243 4.062)"/><rect class="e" width="0.792" height="2.031" transform="translate(44.243 6.093)"/><rect class="e" width="0.792" height="2.031" transform="translate(44.243 8.124)"/><rect class="e" width="0.792" height="2.031" transform="translate(44.243 14.216)"/><rect class="e" width="0.792" height="2.031" transform="translate(45.035 10.155)"/><rect class="e" width="0.792" height="2.031" transform="translate(45.035 12.186)"/><rect class="e" width="0.792" height="2.031" transform="translate(45.035 14.216)"/><rect class="e" width="0.792" height="2.031" transform="translate(45.827 0.001)"/><rect class="e" width="0.792" height="2.031" transform="translate(45.827 10.155)"/><rect class="e" width="0.792" height="2.031" transform="translate(46.619 2.031)"/><rect class="e" width="0.792" height="2.031" transform="translate(46.619 10.155)"/><rect class="e" width="0.792" height="2.031" transform="translate(47.411 2.031)"/><rect class="e" width="0.792" height="2.031" transform="translate(47.411 8.124)"/><rect class="e" width="0.792" height="2.031" transform="translate(47.411 10.155)"/><rect class="e" width="0.792" height="2.031" transform="translate(48.202 6.093)"/><rect class="e" width="0.792" height="2.031" transform="translate(48.202 8.124)"/><rect class="e" width="0.792" height="2.031" transform="translate(48.202 14.216)"/><rect class="e" width="0.792" height="2.031" transform="translate(48.994 2.031)"/><rect class="e" width="0.792" height="2.031" transform="translate(49.786 10.155)"/><rect class="e" width="0.427" height="2.032" transform="translate(50.579)"/><rect class="e" width="0.427" height="2.032" transform="translate(50.579 6.092)"/></g><g transform="translate(12.299 10.6)"><path class="e" d="M633.74,307.165a.557.557,0,0,1-.379-.147,8.811,8.811,0,0,0-11.96,0,.563.563,0,0,1-.758-.832,9.937,9.937,0,0,1,13.476,0,.562.562,0,0,1-.379.978Z" transform="translate(-620.46 -303.554)"/></g><g transform="translate(11.347 12.801)"><path class="e" d="M630.654,320.173a.56.56,0,0,1-.467-.249,8.164,8.164,0,0,0-13.687,0,.563.563,0,1,1-.934-.627,9.29,9.29,0,0,1,15.556,0,.561.561,0,0,1-.467.875Z" transform="translate(-615.47 -315.088)"/></g><g transform="translate(14.04 17.202)"><path class="e" d="M632.987,349.547a.562.562,0,0,1-.4-.167c-.123-.124-3-3.065-3-5.9a5.183,5.183,0,1,1,10.361,0,.562.562,0,0,1-1.125,0,4.059,4.059,0,1,0-8.112,0c0,2.375,2.652,5.079,2.679,5.106a.562.562,0,0,1-.4.958Z" transform="translate(-629.583 -338.152)"/></g><g transform="translate(11.908 15.001)"><path class="e" d="M627.5,340.213c-1.353,0-4.488-2.574-4.792-5.439a3.637,3.637,0,0,1,.861-2.772,2.868,2.868,0,0,1,2.139-.982h.016a3,3,0,0,1,2.122.882,3.144,3.144,0,0,1,.927,2.248v.367a1.57,1.57,0,1,0,3.138,0v-.128a6.462,6.462,0,0,0-5.775-6.631,6.022,6.022,0,0,0-4.558,1.637,6.569,6.569,0,0,0-.622,8.837.563.563,0,0,1-.88.7,7.695,7.695,0,0,1,.733-10.36,7.136,7.136,0,0,1,5.4-1.938,7.588,7.588,0,0,1,6.826,7.753v.128a2.695,2.695,0,1,1-5.388,0v-.367a2.029,2.029,0,0,0-.6-1.45,1.873,1.873,0,0,0-1.329-.555h-.01a1.739,1.739,0,0,0-1.306.607,2.494,2.494,0,0,0-.582,1.9c.248,2.338,2.935,4.434,3.674,4.434a.562.562,0,1,1,0,1.124Z" transform="translate(-618.411 -326.618)"/></g><g transform="translate(18.614 21.603)"><path class="e" d="M658.025,367.113c-2.013,0-4.47-2.459-4.47-5.331a.562.562,0,0,1,1.125,0c0,2.226,1.871,4.206,3.345,4.206a.562.562,0,0,1,0,1.125Z" transform="translate(-653.555 -361.22)"/></g></g><rect class="i" width="4" height="77" rx="2" transform="translate(55.362 0.393)"/></g><path class="j" d="M2317.27,339H2308v11.523" transform="translate(-2198.676 -39.427)"/><path class="j" d="M2308,339h9.27v11.523" transform="translate(-2089.453 -39.427)"/><path class="j" d="M2317.27,350.523H2308V339" transform="translate(-2198.676 22.199)"/><path class="j" d="M2308,350.523h9.27V339" transform="translate(-2089.453 22.199)"/></g></g></svg>