<svg xmlns="http://www.w3.org/2000/svg" xmlns:xlink="http://www.w3.org/1999/xlink" width="84" height="83" viewBox="0 0 84 83"><defs><path id="10yia" d="M221.416 108.417c0 22.874-18.542 41.417-41.416 41.417-22.874 0-41.417-18.543-41.417-41.417C138.583 85.543 157.126 67 180 67c22.874 0 41.416 18.543 41.416 41.417z"/><path id="10yib" d="M216.166 108.417c0 19.975-16.192 36.167-36.166 36.167-19.975 0-36.167-16.192-36.167-36.167S160.025 72.25 180 72.25c19.974 0 36.166 16.192 36.166 36.167z"/><path id="10yic" d="M183.434 99.843c0 1.567-1.213 2.563-2.93 2.781v1.95h-1.35v-1.936c-1.294-.15-2.521-.709-3.407-1.5l.763-1.54c.982.872 2.277 1.404 3.299 1.404 1.022 0 1.636-.382 1.636-1.05 0-1.99-5.125-.858-5.125-4.253 0-1.458 1.103-2.466 2.835-2.684v-1.84l1.349-.014v1.84c1.049.11 2.072.477 2.835.982l-.736 1.581c-1.023-.614-2.126-.927-2.862-.927-.86 0-1.418.313-1.418.9 0 1.935 5.125.885 5.11 4.306z"/><path id="10yid" d="M201.48 110.13v.001a1.099 1.099 0 0 1 0 1.553l-16.168 16.164a1.098 1.098 0 0 1-.775.322H166.98v1.097c0 .606-.492 1.098-1.098 1.098h-6.584a1.098 1.098 0 0 1-1.098-1.098v-17.559c0-.605.491-1.096 1.098-1.096h6.584c.606 0 1.098.491 1.098 1.096v1.098a5.485 5.485 0 0 1 3.291-1.098h4.39a5.475 5.475 0 0 1 5.03 3.293h5.944a3.283 3.283 0 0 1 2.285.925l5.796-5.796a5.499 5.499 0 0 1 7.764 0zm-36.7 18.04v-15.36h-4.39v15.36zm34.242-17.13a3.303 3.303 0 0 0-3.75.644l-6.365 6.36c.006.082.02.164.02.25a3.308 3.308 0 0 1-3.293 3.291h-12.072v-2.194h12.072c.286.002.56-.11.761-.315a1.075 1.075 0 0 0 .297-1.066c-.005-.012-.015-.022-.015-.034a1.042 1.042 0 0 0-.366-.542 1.117 1.117 0 0 0-.677-.238h-6.727c-.503 0-.94-.34-1.064-.827a3.278 3.278 0 0 0-3.183-2.465h-4.39a3.276 3.276 0 0 0-3.183 2.465c-.009.015-.009.03-.009.045a2.907 2.907 0 0 0-.099.782v8.78h17.104z"/><path id="10yie" d="M161.49 117.19V115h2.19v2.19z"/><path id="10yif" d="M180.148 110.612c6.667 0 12.07-5.405 12.07-12.072 0-6.666-5.403-12.071-12.07-12.071-6.667 0-12.071 5.405-12.071 12.07.008 6.665 5.407 12.065 12.07 12.073zm0-21.948c5.454 0 9.876 4.422 9.876 9.876 0 5.455-4.422 9.877-9.876 9.877-5.455 0-9.877-4.422-9.877-9.877.006-5.452 4.425-9.87 9.877-9.876z"/><path id="10yig" d="M185.63 99.63v-2.19h2.2v2.19z"/><path id="10yih" d="M172.47 99.63v-2.19h2.19v2.19z"/></defs><g><g transform="translate(-138 -67)"><use fill="#f79719" xlink:href="#10yia"/></g><g transform="translate(-138 -67)"><use fill="#fff" xlink:href="#10yib"/></g><g transform="translate(-138 -67)"><use fill="#1eea00" xlink:href="#10yic"/></g><g transform="translate(-138 -67)"><use fill="#004b40" xlink:href="#10yid"/></g><g transform="translate(-138 -67)"><use fill="#004b40" xlink:href="#10yie"/></g><g transform="translate(-138 -67)"><use fill="#004b40" xlink:href="#10yif"/></g><g transform="translate(-138 -67)"><use fill="#004b40" xlink:href="#10yig"/></g><g transform="translate(-138 -67)"><use fill="#004b40" xlink:href="#10yih"/></g></g></svg>