<svg id="Layer_1" data-name="Layer 1" xmlns="http://www.w3.org/2000/svg" viewBox="0 0 56.27 56.27"><title>Retirar</title><circle cx="28.13" cy="28.13" r="28.13" fill="#1eea00"/><circle cx="28.13" cy="28.13" r="24.57" fill="#fff"/><path d="M41.88,13.7H14.39a2.06,2.06,0,0,0-2.06,2.06V40.51a2.06,2.06,0,0,0,2.06,2.06H41.88a2.06,2.06,0,0,0,2.06-2.06V15.76a2.06,2.06,0,0,0-2.06-2.06Zm.69,26.81a.69.69,0,0,1-.69.69H14.39a.69.69,0,0,1-.69-.69V38.32a2,2,0,0,0,.69.13H41.88a2,2,0,0,0,.69-.13v2.19Zm0-4.12a.69.69,0,0,1-.69.69H14.39a.69.69,0,0,1-.69-.69V34.19a2,2,0,0,0,.69.13H41.88a2,2,0,0,0,.69-.13v2.19Zm0-4.12a.69.69,0,0,1-.69.69H14.39a.69.69,0,0,1-.69-.69V30.07a2.05,2.05,0,0,0,.69.13H41.88a2,2,0,0,0,.69-.13v2.19Zm0-4.12a.69.69,0,0,1-.69.69H14.39a.69.69,0,0,1-.69-.69V15.76a.69.69,0,0,1,.69-.69H41.88a.69.69,0,0,1,.69.69V28.13Zm0,0" fill="#004b40"/><path d="M28.13,15.76a6.19,6.19,0,1,0,6.19,6.19,6.19,6.19,0,0,0-6.19-6.19Zm0,11a4.81,4.81,0,1,1,4.81-4.81,4.81,4.81,0,0,1-4.81,4.81Zm0,0" fill="#004b40"/><path d="M40.76,18.84a4.84,4.84,0,0,1-2.65-2.65.69.69,0,0,0-.64-.43H33.63v1.37H37a6.23,6.23,0,0,0,2.79,2.79v4A6.23,6.23,0,0,0,37,26.76h-3.4v1.37h3.84a.69.69,0,0,0,.64-.43,4.84,4.84,0,0,1,2.65-2.65.69.69,0,0,0,.43-.64V19.48a.69.69,0,0,0-.43-.64Zm0,0" fill="#004b40"/><path d="M19.24,17.14h3.4V15.76H18.79a.69.69,0,0,0-.64.43,4.84,4.84,0,0,1-2.65,2.65.69.69,0,0,0-.43.64v4.93a.69.69,0,0,0,.43.64,4.84,4.84,0,0,1,2.65,2.65.69.69,0,0,0,.64.43h3.84V26.76h-3.4A6.23,6.23,0,0,0,16.45,24v-4a6.23,6.23,0,0,0,2.79-2.79Zm0,0" fill="#004b40"/><path d="M30.34,23.27c0,.93-.72,1.52-1.74,1.65v1.16h-.8V24.92a3.73,3.73,0,0,1-2-.89l.45-.91a3.18,3.18,0,0,0,2,.83c.61,0,1-.23,1-.62,0-1.18-3-.51-3-2.52,0-.87.65-1.46,1.68-1.59V18.12h.8v1.09a3.86,3.86,0,0,1,1.68.58l-.44.94a3.62,3.62,0,0,0-1.7-.55c-.51,0-.84.19-.84.53C27.31,21.86,30.35,21.24,30.34,23.27Z" fill="#1eea00"/></svg>