<svg xmlns="http://www.w3.org/2000/svg" xmlns:xlink="http://www.w3.org/1999/xlink" width="74.329" height="74.329" viewBox="0 0 74.329 74.329"><defs><style>.a{fill:none;}.b{clip-path:url(#a);}.c{fill:#004b40;}.d{opacity:0.24;}.e{fill:#fbb040;}.f{fill:#f78c00;}.g{fill:#b5b5b5;}.h{fill:#7f7f7f;}.i{fill:#ffedb5;}.j{fill:#fee187;}.k{filter:url(#b);}</style><clipPath id="a"><rect class="a" width="74.329" height="74.329"/></clipPath><filter id="b" x="0" y="0" width="74.328" height="74.328" filterUnits="userSpaceOnUse"><feOffset dy="3" input="SourceAlpha"/><feGaussianBlur stdDeviation="5" result="c"/><feFlood flood-opacity="0.161"/><feComposite operator="in" in2="c"/><feComposite in="SourceGraphic"/></filter></defs><g class="b"><g class="k" transform="matrix(1, 0, 0, 1, 0, 0)"><circle class="c" cx="22.164" cy="22.164" r="22.164" transform="translate(15 12)"/></g><path class="d" d="M2499.017,3217.615l10.894,10.893a22.185,22.185,0,0,0,16.053-18.993l-12.341-12.341-.4.672-3.151-3.151-4.622,1.325-3.659.4h-6.317l-1.494,1.493,1.494,6.8,9.294,9.294v2.2Z" transform="translate(-2466.759 -3172.998)"/><path class="e" d="M2502.36,3205.662h-5.148a2.471,2.471,0,0,1-2.4-1.873l-1.074-4.3a2.474,2.474,0,0,1,2.4-3.074h6.222v9.244Zm-6.222-8.2a1.429,1.429,0,0,0-1.387,1.776l1.074,4.3a1.426,1.426,0,0,0,1.386,1.083h4.1v-7.155Z" transform="translate(-2466.723 -3173.194)"/><g transform="translate(35.363 23.224)"><path class="f" d="M2512.067,3205.662h-5.149v-9.244h6.222a2.474,2.474,0,0,1,2.4,3.074l-1.074,4.3A2.471,2.471,0,0,1,2512.067,3205.662Zm-4.1-1.044h4.1a1.426,1.426,0,0,0,1.386-1.083l1.074-4.3a1.429,1.429,0,0,0-1.386-1.776h-5.178v7.155Z" transform="translate(-2503.589 -3196.418)"/><rect class="f" width="3.603" height="6.149" transform="translate(0 12.821)"/></g><g transform="translate(31.015 21.697)"><rect class="e" width="1.802" height="6.149" transform="translate(6.149 14.348)"/><path class="e" d="M2504.409,3211.093h0a4.644,4.644,0,0,1-4.608-4.068l-1.541-12.331h12.3l-1.541,12.331a4.645,4.645,0,0,1-4.61,4.068Z" transform="translate(-2498.26 -3194.695)"/></g><path class="f" d="M2505.2,3194.7v16.4a4.645,4.645,0,0,0,4.608-4.068l1.541-12.331Z" transform="translate(-2468.031 -3172.998)"/><path class="g" d="M2510.558,3194.7h-12.3l.331,2.65h11.636Z" transform="translate(-2467.245 -3172.999)"/><path class="h" d="M2511.344,3194.7H2505.2v2.65h5.818Z" transform="translate(-2468.031 -3172.999)"/><path class="e" d="M2509.475,3220.023h-9.813a4.1,4.1,0,0,1,4.1-4.1h1.615a4.1,4.1,0,0,1,4.1,4.1Z" transform="translate(-2467.404 -3175.406)"/><path class="f" d="M2510.1,3220.023a4.1,4.1,0,0,0-4.1-4.1h-.808v4.1Z" transform="translate(-2468.031 -3175.406)"/><path class="g" d="M2499.906,3218.971a4.081,4.081,0,0,0-.245,1.4h9.813a4.1,4.1,0,0,0-.245-1.4Z" transform="translate(-2467.404 -3175.751)"/><path class="h" d="M2509.858,3218.971H2505.2v1.4h4.907a4.107,4.107,0,0,0-.249-1.4Z" transform="translate(-2468.031 -3175.751)"/><path class="i" d="M2505.246,3201.465l.391.793a.372.372,0,0,0,.277.2l.875.127a.368.368,0,0,1,.2.628l-.633.617a.37.37,0,0,0-.106.326l.15.871a.368.368,0,0,1-.534.388l-.783-.411a.367.367,0,0,0-.343,0l-.783.411a.368.368,0,0,1-.534-.388l.15-.871a.369.369,0,0,0-.107-.326l-.633-.617a.368.368,0,0,1,.2-.628l.875-.127a.372.372,0,0,0,.277-.2l.391-.793a.369.369,0,0,1,.67,0Z" transform="translate(-2467.751 -3173.743)"/><path class="j" d="M2507.273,3203.215a.369.369,0,0,0-.2-.629l-.875-.127a.37.37,0,0,1-.277-.2l-.391-.792a.365.365,0,0,0-.331-.2v3.7a.365.365,0,0,1,.172.042l.782.411a.369.369,0,0,0,.535-.388l-.15-.871a.368.368,0,0,1,.106-.326Z" transform="translate(-2468.031 -3173.743)"/></g></svg>