<svg xmlns="http://www.w3.org/2000/svg" xmlns:xlink="http://www.w3.org/1999/xlink" width="21.65" height="38.245" viewBox="0 0 21.65 38.245"><defs><style>.a{fill:none;}.b{clip-path:url(#a);}.c{fill:#fbb040;}.d,.h{fill:#004b40;}.e{fill:#1eea00;stroke:#004b40;stroke-miterlimit:10;}.f{fill:#777;opacity:0.998;}.g{fill:#f8eacd;}.h{font-size:6px;font-family:AvenirNextLTPro-Regular, Avenir Next LT Pro;letter-spacing:0.01em;}</style><clipPath id="a"><rect class="a" width="21.65" height="38.245"/></clipPath></defs><g class="b"><g transform="translate(8.511)"><path class="c" d="M2507.286,3773.135a1.916,1.916,0,1,1-1.916-1.917,1.916,1.916,0,0,1,1.916,1.917Z" transform="translate(-2503.12 -3770.885)"/><path class="d" d="M2505.327,3775.341a2.25,2.25,0,1,1,2.249-2.249,2.25,2.25,0,0,1-2.249,2.249Zm0-3.833a1.583,1.583,0,1,0,1.582,1.583,1.583,1.583,0,0,0-1.582-1.583Z" transform="translate(-2503.077 -3770.842)"/></g><path class="e" d="M2513.78,3775.469a15.6,15.6,0,0,1,.6-1.62l.152-.34-.354-.116a6.144,6.144,0,0,0-1.9-.314,5.583,5.583,0,0,0-3.788,1.494,12.62,12.62,0,0,0-8.192,0,5.583,5.583,0,0,0-3.787-1.494,6.125,6.125,0,0,0-1.9.314l-.354.116.152.34a15.515,15.515,0,0,1,.6,1.62c.09.291.162.557.231.815a5.467,5.467,0,0,0,1.119,2.406,9.862,9.862,0,0,0-.709,1.261,9.748,9.748,0,0,0,5.144,13.136l1.1,6.856,1.247,7.749a1.368,1.368,0,0,0,2.7,0l2.351-14.6a9.749,9.749,0,0,0,4.351-14.525,5.64,5.64,0,0,0,1.008-2.278C2513.618,3776.025,2513.69,3775.759,2513.78,3775.469Z" transform="translate(-2493.564 -3771.096)"/><path class="f" d="M2510.973,3783.351a5.4,5.4,0,1,0-4.267,8.717h.006a5.4,5.4,0,0,0,4.26-8.717Z" transform="translate(-2495.365 -3773.024)"/><path class="g" d="M2509.223,3781.763a5.288,5.288,0,1,0-4.176,8.531h.006a5.287,5.287,0,0,0,4.17-8.531Z" transform="translate(-2494.189 -3771.849)"/><text class="h" transform="translate(8.177 15.286)"><tspan x="0" y="0">O</tspan></text></g></svg>