<svg xmlns="http://www.w3.org/2000/svg" xmlns:xlink="http://www.w3.org/1999/xlink" width="208.968" height="204.335" viewBox="0 0 208.968 204.335"><defs><style>.a{fill:none;}.b{clip-path:url(#a);}.c{fill:#fbb040;}.d{fill:url(#b);}.e{fill:#afff6a;}.f,.g{fill:#004b40;}.g{font-size:20px;font-family:Montserrat-Bold, Montserrat;font-weight:700;letter-spacing:0.005em;}</style><clipPath id="a"><rect class="a" width="208.968" height="204.335"/></clipPath><linearGradient id="b" x1="0.5" y1="0.328" x2="0.5" y2="0.942" gradientUnits="objectBoundingBox"><stop offset="0.279" stop-color="#1eeb00"/><stop offset="0.506" stop-color="#1ee700"/><stop offset="0.729" stop-color="#1edb00"/><stop offset="0.95" stop-color="#1ec700"/><stop offset="1" stop-color="#1ec200"/></linearGradient></defs><g class="b"><g transform="translate(-0.001 -0.029)"><path class="c" d="M288.451,105.407a15.941,15.941,0,0,1-1.189,6.007,130,130,0,0,0-14.454-.782,123.355,123.355,0,0,0-14.486.813,16.227,16.227,0,0,1-1.189-6.038,15.659,15.659,0,1,1,31.318,0Z" transform="translate(-168.306 -83.102)"/><path class="d" d="M415,98.774c-1.224,3.034-3,7.759-4.721,13.266-.911,2.972-1.63,5.663-2.346,8.26-2.158,8.072-3.789,13.954-8.823,20.18A108.361,108.361,0,0,0,387.5,117.953c1.533-2.378,5.572-7.321,14.862-11.7l-2.812-5.976c-15.455,7.29-18.9,16.457-19.022,16.832l-.594,1.72,1.092,1.439c.219.25,20.211,26.469,20.211,67.454,0,45.961-13.075,65.577-17.677,71.053l-10.04-6.351-8.043,6.1a30.9,30.9,0,0,1-5.287-8.7c2.784-.814,5.538-1.69,8.291-2.691l-2.287-6.195a122.106,122.106,0,0,1-84.318,0l-2.249,6.195c2.719,1,5.508,1.877,8.291,2.691a31.2,31.2,0,0,1-5.287,8.7l-8.043-6.1-10.077,6.351c-4.627-5.412-17.645-24.748-17.645-71.053,0-40.985,19.993-67.2,20.18-67.454l1.129-1.439-.6-1.72c-.16-.375-3.6-9.542-19.058-16.832l-2.788,5.976c9.3,4.38,13.328,9.324,14.862,11.7a109.643,109.643,0,0,0-11.636,22.526c-5.009-6.226-6.633-12.108-8.823-20.18-.692-2.6-1.442-5.287-2.346-8.26-1.69-5.508-3.5-10.228-4.728-13.266,29.006-7.572,46.524,11.545,47.275,12.39l1.505,1.69,2.128-.782A110.945,110.945,0,0,1,308.706,106c1.533-.188,3.038-.375,4.571-.5,2.346-.219,4.693-.344,7.071-.375,1.217-.063,2.437-.094,3.692-.094s2.469.031,3.692.094c2.378.031,4.721.156,7.071.375,1.5.125,3.032.313,4.536.5a111.7,111.7,0,0,1,24.779,6.07l2.128.782,1.5-1.69C368.5,110.319,386.026,91.2,415,98.774Z" transform="translate(-219.545 -67.615)"/><path class="e" d="M281.444,151.429c7.225,0,21.366-8.194,26.935-20.609,5.553-12.377-6.476-16.261-11.277-17.135-5.751-1.049-15.659-1.142-15.659-1.142s-9.912.087-15.659,1.142c-4.8.874-16.829,4.758-11.278,17.135C260.078,143.234,274.217,151.429,281.444,151.429Z" transform="translate(-176.949 -34.54)"/><path class="f" d="M333.767,108.97a7.256,7.256,0,1,0,7.256,7.256A7.256,7.256,0,0,0,333.767,108.97Zm-31.1,18.366a5.085,5.085,0,0,0-5.07,5.071v2.941a5.051,5.051,0,1,0,10.1,0v-2.941A5.058,5.058,0,0,0,302.668,127.336ZM254.392,108.97a7.256,7.256,0,1,0,7.256,7.256,7.256,7.256,0,0,0-7.256-7.256Zm31.13,18.366a5.087,5.087,0,0,0-5.07,5.071v2.941a5.07,5.07,0,1,0,10.141,0v-2.941a5.09,5.09,0,0,0-5.07-5.07Zm48.244-18.366a7.256,7.256,0,1,0,7.256,7.256A7.256,7.256,0,0,0,333.767,108.97Zm-48.244,18.366a5.087,5.087,0,0,0-5.07,5.071v2.941a5.07,5.07,0,1,0,10.141,0v-2.941a5.09,5.09,0,0,0-5.07-5.07Zm17.145,0a5.085,5.085,0,0,0-5.07,5.071v2.941a5.051,5.051,0,1,0,10.1,0v-2.941A5.058,5.058,0,0,0,302.668,127.336Zm0,0a5.085,5.085,0,0,0-5.07,5.071v2.941a5.051,5.051,0,1,0,10.1,0v-2.941A5.058,5.058,0,0,0,302.668,127.336Zm-17.145,0a5.087,5.087,0,0,0-5.07,5.071v2.941a5.07,5.07,0,1,0,10.141,0v-2.941a5.09,5.09,0,0,0-5.07-5.07Zm38.858-.563c-3.254-6.163-10.888-8.166-14.048-8.729-5.945-1.1-15.8-1.189-16.269-1.189-.407,0-10.265.094-16.238,1.189-3.129.563-10.8,2.566-14.016,8.729-1.971,3.723-1.849,8.1.344,13.015,6.258,13.954,21.648,22.555,29.941,22.555,8.26,0,23.685-8.6,29.941-22.555,2.186-4.915,2.316-9.293.344-13.016ZM294.1,155.745c-5.475,0-18.741-7.1-23.937-18.679-1.311-2.941-1.5-5.382-.5-7.227,1.533-2.941,5.85-4.661,9.354-5.319,5.41-.97,15.015-1.064,15.049-1.064.087,0,9.7.094,15.08,1.064,3.535.657,7.853,2.378,9.386,5.319.97,1.845.813,4.284-.5,7.227-5.19,11.576-18.456,18.678-23.931,18.678Zm8.573-28.412a5.085,5.085,0,0,0-5.07,5.071v2.941a5.051,5.051,0,1,0,10.1,0V132.4a5.058,5.058,0,0,0-5.032-5.067Zm-17.145,0a5.087,5.087,0,0,0-5.07,5.071v2.941a5.07,5.07,0,1,0,10.141,0V132.4a5.09,5.09,0,0,0-5.07-5.067Zm0,0a5.087,5.087,0,0,0-5.07,5.071v2.941a5.07,5.07,0,1,0,10.141,0V132.4a5.09,5.09,0,0,0-5.07-5.067Zm17.145,0a5.085,5.085,0,0,0-5.07,5.071v2.941a5.051,5.051,0,1,0,10.1,0V132.4a5.058,5.058,0,0,0-5.032-5.067Zm0,0a5.085,5.085,0,0,0-5.07,5.071v2.941a5.051,5.051,0,1,0,10.1,0V132.4a5.058,5.058,0,0,0-5.032-5.067Zm-17.145,0a5.087,5.087,0,0,0-5.07,5.071v2.941a5.07,5.07,0,1,0,10.141,0V132.4a5.09,5.09,0,0,0-5.07-5.067Zm-31.13-18.362a7.256,7.256,0,1,0,7.256,7.256,7.256,7.256,0,0,0-7.256-7.256Zm79.374,0a7.256,7.256,0,1,0,7.256,7.256A7.256,7.256,0,0,0,333.767,108.97Zm-48.244,18.366a5.087,5.087,0,0,0-5.07,5.071v2.941a5.07,5.07,0,1,0,10.141,0v-2.941a5.09,5.09,0,0,0-5.07-5.07Zm17.145,0a5.085,5.085,0,0,0-5.07,5.071v2.941a5.051,5.051,0,1,0,10.1,0v-2.941A5.058,5.058,0,0,0,302.668,127.336Zm0,0a5.085,5.085,0,0,0-5.07,5.071v2.941a5.051,5.051,0,1,0,10.1,0v-2.941A5.058,5.058,0,0,0,302.668,127.336Zm-17.145,0a5.087,5.087,0,0,0-5.07,5.071v2.941a5.07,5.07,0,1,0,10.141,0v-2.941a5.09,5.09,0,0,0-5.07-5.07Zm38.858-.563c-3.254-6.163-10.888-8.166-14.048-8.729-5.945-1.1-15.8-1.189-16.269-1.189-.407,0-10.265.094-16.238,1.189-3.129.563-10.8,2.566-14.016,8.729-1.971,3.723-1.849,8.1.344,13.015,6.258,13.954,21.648,22.555,29.941,22.555,8.26,0,23.685-8.6,29.941-22.555,2.186-4.915,2.316-9.293.344-13.016ZM294.1,155.745c-5.475,0-18.741-7.1-23.937-18.679-1.311-2.941-1.5-5.382-.5-7.227,1.533-2.941,5.85-4.661,9.354-5.319,5.41-.97,15.015-1.064,15.049-1.064.087,0,9.7.094,15.08,1.064,3.535.657,7.853,2.378,9.386,5.319.97,1.845.813,4.284-.5,7.227-5.19,11.576-18.456,18.678-23.931,18.678Zm8.573-28.412a5.085,5.085,0,0,0-5.07,5.071v2.941a5.051,5.051,0,1,0,10.1,0V132.4a5.058,5.058,0,0,0-5.032-5.067Zm-17.145,0a5.087,5.087,0,0,0-5.07,5.071v2.941a5.07,5.07,0,1,0,10.141,0V132.4a5.09,5.09,0,0,0-5.07-5.067Zm0,0a5.087,5.087,0,0,0-5.07,5.071v2.941a5.07,5.07,0,1,0,10.141,0V132.4a5.09,5.09,0,0,0-5.07-5.067Zm17.145,0a5.085,5.085,0,0,0-5.07,5.071v2.941a5.051,5.051,0,1,0,10.1,0V132.4a5.058,5.058,0,0,0-5.032-5.067Zm0,0a5.085,5.085,0,0,0-5.07,5.071v2.941a5.051,5.051,0,1,0,10.1,0V132.4a5.058,5.058,0,0,0-5.032-5.067Zm-17.145,0a5.087,5.087,0,0,0-5.07,5.071v2.941a5.07,5.07,0,1,0,10.141,0V132.4a5.09,5.09,0,0,0-5.07-5.067Zm-31.13-18.362a7.256,7.256,0,1,0,7.256,7.256,7.256,7.256,0,0,0-7.256-7.256Zm48.276,18.366a5.085,5.085,0,0,0-5.07,5.071v2.941a5.051,5.051,0,1,0,10.1,0v-2.941A5.058,5.058,0,0,0,302.668,127.336Zm-17.145,0a5.087,5.087,0,0,0-5.07,5.071v2.941a5.07,5.07,0,1,0,10.141,0v-2.941a5.09,5.09,0,0,0-5.07-5.07Zm0,0a5.087,5.087,0,0,0-5.07,5.071v2.941a5.07,5.07,0,1,0,10.141,0v-2.941a5.09,5.09,0,0,0-5.07-5.07Zm17.145,0a5.085,5.085,0,0,0-5.07,5.071v2.941a5.051,5.051,0,1,0,10.1,0v-2.941A5.058,5.058,0,0,0,302.668,127.336Zm0,0a5.085,5.085,0,0,0-5.07,5.071v2.941a5.051,5.051,0,1,0,10.1,0v-2.941A5.058,5.058,0,0,0,302.668,127.336Zm-17.145,0a5.087,5.087,0,0,0-5.07,5.071v2.941a5.07,5.07,0,1,0,10.141,0v-2.941a5.09,5.09,0,0,0-5.07-5.07Zm38.858-.563c-3.254-6.163-10.888-8.166-14.048-8.729-5.945-1.1-15.8-1.189-16.269-1.189-.407,0-10.265.094-16.238,1.189-3.129.563-10.8,2.566-14.016,8.729-1.971,3.723-1.849,8.1.344,13.015,6.258,13.954,21.648,22.555,29.941,22.555,8.26,0,23.685-8.6,29.941-22.555,2.186-4.915,2.316-9.293.344-13.016ZM294.1,155.745c-5.475,0-18.741-7.1-23.937-18.679-1.311-2.941-1.5-5.382-.5-7.227,1.533-2.941,5.85-4.661,9.354-5.319,5.41-.97,15.015-1.064,15.049-1.064.087,0,9.7.094,15.08,1.064,3.535.657,7.853,2.378,9.386,5.319.97,1.845.813,4.284-.5,7.227-5.19,11.576-18.456,18.678-23.931,18.678Zm8.573-28.412a5.085,5.085,0,0,0-5.07,5.071v2.941a5.051,5.051,0,1,0,10.1,0V132.4a5.058,5.058,0,0,0-5.032-5.067Zm-17.145,0a5.087,5.087,0,0,0-5.07,5.071v2.941a5.07,5.07,0,1,0,10.141,0V132.4a5.09,5.09,0,0,0-5.07-5.067Zm0,0a5.087,5.087,0,0,0-5.07,5.071v2.941a5.07,5.07,0,1,0,10.141,0V132.4a5.09,5.09,0,0,0-5.07-5.067Zm17.145,0a5.085,5.085,0,0,0-5.07,5.071v2.941a5.051,5.051,0,1,0,10.1,0V132.4a5.058,5.058,0,0,0-5.032-5.067Zm0,0a5.085,5.085,0,0,0-5.07,5.071v2.941a5.051,5.051,0,1,0,10.1,0V132.4a5.058,5.058,0,0,0-5.032-5.067Zm-17.145,0a5.087,5.087,0,0,0-5.07,5.071v2.941a5.07,5.07,0,1,0,10.141,0V132.4a5.09,5.09,0,0,0-5.07-5.067Z" transform="translate(-189.593 -42.143)"/><path class="f" d="M430.73,110.361a63.969,63.969,0,0,0-19.773-3.254,58.614,58.614,0,0,0-38.107,14.266,118.152,118.152,0,0,0-18.487-4.536,22.26,22.26,0,1,0-42.269,0,117.845,117.845,0,0,0-18.463,4.536,58.748,58.748,0,0,0-38.108-14.266,63.819,63.819,0,0,0-19.773,3.254l-7.009,2.284,3.038,6.7a158.2,158.2,0,0,1,5.753,15.58c.879,2.816,1.564,5.412,2.256,7.947,2.469,9.074,4.633,17.047,12.167,25.593a134.744,134.744,0,0,0-5.788,39.233c0,25.09,3.629,45.992,10.8,62.167,5.566,12.577,11.357,17.646,12.011,18.178l3.7,3.1,4.067-2.566,6.5-4.13,5.009,3.785,4.912,3.723,4.033-4.6a56.678,56.678,0,0,0,7.978-12.045,132.615,132.615,0,0,0,56.125,0,57.39,57.39,0,0,0,7.95,12.045l4.067,4.6,4.881-3.723,5-3.785,6.542,4.13,4.067,2.566,3.688-3.1c.629-.532,6.445-5.6,12.017-18.178,7.162-16.173,10.791-37.075,10.791-62.167a134.744,134.744,0,0,0-5.788-39.234c7.544-8.541,9.7-16.523,12.174-25.624.685-2.5,1.377-5.1,2.249-7.915a148.436,148.436,0,0,1,5.76-15.58l3-6.7ZM333.243,94.217a15.676,15.676,0,0,1,15.643,15.675A15.941,15.941,0,0,1,347.7,115.9a130,130,0,0,0-14.454-.782,123.363,123.363,0,0,0-14.486.813,16.227,16.227,0,0,1-1.189-6.038,15.7,15.7,0,0,1,15.675-15.674Zm86.227,37.792c-.91,2.972-1.63,5.663-2.346,8.26-2.158,8.072-3.789,13.954-8.823,20.18a108.364,108.364,0,0,0-11.611-22.526c1.533-2.378,5.572-7.321,14.862-11.7l-2.812-5.976c-15.455,7.29-18.9,16.457-19.022,16.832l-.594,1.72,1.092,1.439c.219.25,20.211,26.469,20.211,67.454,0,45.961-13.075,65.577-17.677,71.053l-10.04-6.351-8.043,6.1a30.9,30.9,0,0,1-5.287-8.7c2.784-.814,5.538-1.69,8.291-2.691l-2.287-6.195a122.107,122.107,0,0,1-84.318,0l-2.249,6.195c2.719,1,5.508,1.877,8.291,2.691a31.194,31.194,0,0,1-5.287,8.7l-8.043-6.1L273.7,278.748c-4.627-5.412-17.645-24.748-17.645-71.053,0-40.985,19.993-67.2,20.18-67.454l1.13-1.439-.594-1.72c-.16-.375-3.6-9.542-19.058-16.832l-2.788,5.976c9.3,4.38,13.328,9.324,14.862,11.7a109.644,109.644,0,0,0-11.636,22.526c-5.009-6.226-6.633-12.108-8.823-20.18-.692-2.6-1.442-5.287-2.346-8.26-1.69-5.508-3.5-10.228-4.728-13.266,29.006-7.572,46.524,11.545,47.275,12.39l1.509,1.688,2.128-.782a110.948,110.948,0,0,1,24.741-6.07c1.533-.188,3.038-.375,4.571-.5,2.346-.219,4.693-.344,7.071-.375,1.217-.063,2.437-.094,3.692-.094s2.469.031,3.692.094c2.378.031,4.721.156,7.071.375,1.5.125,3.032.313,4.536.5a111.706,111.706,0,0,1,24.779,6.07l2.128.782,1.5-1.69c.751-.845,18.271-19.961,47.247-12.39C422.974,121.781,421.19,126.5,419.47,132.009Z" transform="translate(-228.741 -87.587)"/></g><text class="g" transform="translate(97.259 27.585)"><tspan x="0" y="0">$</tspan></text></g></svg>