<svg xmlns="http://www.w3.org/2000/svg" xmlns:xlink="http://www.w3.org/1999/xlink" width="209.375" height="134.912" viewBox="0 0 209.375 134.912"><defs><style>.a{fill:none;}.b{clip-path:url(#a);}.c{fill:#48321b;}.d{fill:#3b2810;}.ae,.e{fill:#231f20;}.e{opacity:0.15;}.f{fill:url(#b);}.g{fill:#ffcaca;}.h{fill:#281a0b;}.i{fill:#eb008b;}.j{fill:#f4e6e7;}.k{fill:#df3741;}.k,.l{opacity:0.6;}.m{fill:#da4a44;}.n{fill:#34e27a;}.o{fill:#0ea166;}.p{fill:#ed4d9a;}.q{fill:#fcb813;}.r{fill:#90278e;}.s{fill:#a054a0;}.t{fill:#281e0e;}.u{fill:url(#c);}.v{fill:#fcf4ac;}.w{fill:#00443a;}.x{fill:url(#d);}.y{fill:#feb640;}.z{fill:#fbde9a;}.aa{fill:#a67c0c;}.ab{fill:url(#e);}.ac{opacity:0.3;}.ad{fill:url(#f);}.ae{opacity:0.73;}.af{fill:url(#g);}.ag{fill:#b0ffd2;}.ah{fill:#004226;}.ai{fill:#07e5e5;opacity:0.33;}.aj{fill:#f2f200;}.ak{fill:#1e1e1e;}.al{fill:#0a0a0a;}.am{fill:#930000;}</style><clipPath id="a"><rect class="a" width="209.375" height="134.912"/></clipPath><linearGradient id="b" x1="0.5" y1="0.328" x2="0.5" y2="0.941" gradientUnits="objectBoundingBox"><stop offset="0" stop-color="#dbc0ae"/><stop offset="1" stop-color="#bf8e6d"/></linearGradient><linearGradient id="c" x1="0.5" x2="0.5" y2="1" gradientUnits="objectBoundingBox"><stop offset="0.33" stop-color="#fbe800"/><stop offset="1" stop-color="#93c73d"/></linearGradient><linearGradient id="d" y1="0.5" x2="1" y2="0.5" gradientUnits="objectBoundingBox"><stop offset="0" stop-color="#f70808"/><stop offset="1" stop-color="#b80808"/></linearGradient><linearGradient id="e" x1="0.5" x2="0.5" y2="1" gradientUnits="objectBoundingBox"><stop offset="0.024" stop-color="#333"/><stop offset="0.175" stop-color="#292728"/><stop offset="0.394" stop-color="#242021"/><stop offset="1" stop-color="#231f20"/></linearGradient><linearGradient id="f" x1="0.5" y1="1" x2="0.5" gradientUnits="objectBoundingBox"><stop offset="0.099" stop-color="#7e1416"/><stop offset="0.155" stop-color="#8c1417"/><stop offset="0.387" stop-color="#c4181e"/><stop offset="0.499" stop-color="#da1a21"/><stop offset="0.577" stop-color="#cd1a1f"/><stop offset="0.995" stop-color="#8d2019"/></linearGradient><linearGradient id="g" x1="0.5" x2="0.5" y2="1" gradientUnits="objectBoundingBox"><stop offset="0.33" stop-color="#0bd169"/><stop offset="1" stop-color="#009945"/></linearGradient></defs><g class="b"><g transform="translate(65.041 -1.717)"><g transform="translate(27.96 1.717)"><path class="c" d="M67.138,93.123c-2.424-2.424-4.088-9.977-4.621-14.712S60.674,68.717,57.5,68.345s-4.742-2.383-4.225-5.4c-4.952,0-5.316-4.952-3.547-7.715-3.547-.889-3.757-4.12-3.28-6.673a4.968,4.968,0,0,1-.622-7.271,11.036,11.036,0,0,1-.646-10.9c2.141-4.169,4.92-4.9,4.92-4.9.622-2.553,1.147-7.659,9.646-7.659,2.189-4.039,5.655-4.039,8.442-4.039A13.991,13.991,0,0,1,83.538,5.25c1.325-3.466,9.3-4.847,12.2-1.915C98.63.386,106.6,1.743,107.929,5.177a13.991,13.991,0,0,1,15.35,8.531c2.763,0,6.253,0,8.442,4.039,8.5,0,9.016,5.106,9.646,7.659,0,0,2.779.727,4.92,4.9a11.036,11.036,0,0,1-.646,10.9,4.969,4.969,0,0,1-.622,7.271c.469,2.553.259,5.784-3.28,6.673,1.769,2.763,1.406,7.715-3.547,7.715.525,3.021-1.042,5-4.225,5.4s-4.484,5.332-5.017,10.066-2.173,12.256-4.621,14.712Z" transform="translate(-31.049 -1.717)"/><path class="d" d="M73.253,86.337C70.83,71.431,60.182,66.2,61.886,49.586c2.82-27.468,24.73-34.036,37.227-34.036s34.408,6.56,37.227,34.036c1.7,16.61-8.935,21.813-11.375,36.751Z" transform="translate(-34.442 -4.374)"/><path class="d" d="M54.386,75.281c-4.952,0-5.316-4.952-3.547-7.715C53.473,63.494,63.305,67.509,54.386,75.281Z" transform="translate(-32.169 -14.057)"/><path class="e" d="M55.882,74.445A17.976,17.976,0,0,1,54.388,75.9c-4.4,0-5.179-3.918-4.039-6.73C54.824,69.687,54.485,72.87,55.882,74.445Z" transform="translate(-32.17 -14.676)"/><path class="d" d="M58.195,59.229c.808,5.849-4.1,4.758-7.95,6.221-3.547-.889-3.757-4.12-3.28-6.673C48.1,53.784,57.4,53.372,58.195,59.229Z" transform="translate(-31.575 -11.941)"/><path class="e" d="M55.88,65.245c-1.616.614-3.74.711-5.655,1.43-2.908-.727-3.571-3.038-3.458-5.259C50.726,60.592,51.9,65.1,55.88,65.245Z" transform="translate(-31.571 -13.167)"/><path class="d" d="M45.928,49.36c3.372-3.369,4.112-6.46,9.065-5.16,6.326,1.616,8.887,14.542-8.442,12.458a4.968,4.968,0,0,1-.622-7.3Z" transform="translate(-31.16 -9.82)"/><path class="e" d="M56.188,57.158c-2.1.986-5.219,1.43-9.638.889a5.009,5.009,0,0,1-.978-6.9C49.07,50.808,51.535,57.255,56.188,57.158Z" transform="translate(-31.159 -11.211)"/><path class="d" d="M63.912,36.886c-1.1,8.652-12.207,3.934-18.1,9.824a11.036,11.036,0,0,1-.646-10.9c2.141-4.169,4.92-4.9,4.92-4.9C57.9,28.258,64.453,32.6,63.912,36.886Z" transform="translate(-31.047 -7.169)"/><path class="e" d="M56.833,43.513c-3.692.662-8.03.913-11.028,3.91a11.036,11.036,0,0,1-.646-10.9,12.692,12.692,0,0,1,1.834-2.714C50.839,35.466,52.947,41.146,56.833,43.513Z" transform="translate(-31.045 -7.882)"/><path class="d" d="M63.293,34.524c-8.555,1.349-10.082-3.555-11.763-5.235.622-2.553,1.147-7.659,9.646-7.659C69.158,21.63,71.3,33.239,63.293,34.524Z" transform="translate(-32.488 -5.542)"/><path class="e" d="M56.262,22.62c2.036,3.539,3.724,9.872,9.969,10.89a6.374,6.374,0,0,1-2.949,1.2C54.727,36.063,53.2,31.159,51.52,29.479,52,27.548,52.417,24.163,56.262,22.62Z" transform="translate(-32.486 -5.732)"/><path class="d" d="M76.831,23.468c-1-5.413,4.338-6.819,7.715-5.445C89.539,20.075,87.147,31.644,76.831,23.468Z" transform="translate(-37.325 -4.755)"/><path class="e" d="M78.729,24.809a20,20,0,0,1-1.9-1.341c-.9-4.847,3.232-6.463,6.536-5.793C83.714,22.66,80.175,22.951,78.729,24.809Z" transform="translate(-37.325 -4.755)"/><path class="d" d="M94.828,24.4c-6.237,2.068-6.035-3.506-8.418-7.433.25-4.039,3.74-4.944,6.633-4.944C98.746,12.246,101.065,22.329,94.828,24.4Z" transform="translate(-39.189 -3.696)"/><path class="e" d="M89.124,22.861c-.994-1.616-1.543-3.951-2.714-5.873.2-3.337,2.6-4.524,5.049-4.847C93.172,16.276,88.5,18.49,89.124,22.861Z" transform="translate(-39.189 -3.719)"/><path class="d" d="M102.471,9.14c4.371,3.005,7.893,3.183,7.489,8.887-.525,7.271-14.138,12.635-15.35-6.7a5.534,5.534,0,0,1,7.861-2.181Z" transform="translate(-40.764 -2.981)"/><path class="e" d="M97.553,21.665c-1.5-2.092-2.626-5.421-2.933-10.373a5.566,5.566,0,0,1,7.344-2.424C103.062,12.593,96.543,16.6,97.553,21.665Z" transform="translate(-40.766 -2.984)"/><path class="d" d="M118.771,26.35c-9.695.557-6.786-12.554-14.421-17.773A12.272,12.272,0,0,1,116.137,5.66c4.993,1.495,6.358,4.387,6.358,4.387C126.979,18.029,123.553,26.043,118.771,26.35Z" transform="translate(-42.636 -2.386)"/><path class="e" d="M110.862,19.809c-1.47-3.9-2.634-8.6-6.512-11.262A12.272,12.272,0,0,1,116.137,5.63a14.122,14.122,0,0,1,3.337,1.454C118.439,11.609,112.663,15.074,110.862,19.809Z" transform="translate(-42.636 -2.38)"/><path class="d" d="M122.419,25.088c-3.232-9.081,1.842-11.747,3.337-13.928,2.925.17,8.612-.3,10.341,8.992C137.712,28.893,125.424,33.6,122.419,25.088Z" transform="translate(-45.904 -3.531)"/><path class="e" d="M134.222,14.949c-3.417,2.933-10.034,6.108-9.888,13.12a7.093,7.093,0,0,1-1.915-2.981c-3.232-9.081,1.842-11.747,3.337-13.928C127.961,11.289,131.758,11.031,134.222,14.949Z" transform="translate(-45.904 -3.531)"/><path class="d" d="M159.69,75.281c4.952,0,5.316-4.952,3.547-7.715C160.611,63.494,150.779,67.509,159.69,75.281Z" transform="translate(-52.564 -14.057)"/><path class="e" d="M158.71,74.445A17.971,17.971,0,0,0,160.2,75.9c4.4,0,5.179-3.918,4.039-6.73C159.752,69.687,160.116,72.87,158.71,74.445Z" transform="translate(-53.079 -14.676)"/><path class="d" d="M155.1,59.229c-.808,5.849,4.1,4.758,7.95,6.221,3.547-.889,3.757-4.12,3.28-6.673C165.189,53.784,155.9,53.372,155.1,59.229Z" transform="translate(-52.368 -11.941)"/><path class="e" d="M158,65.245c1.616.614,3.741.711,5.655,1.43,2.908-.727,3.571-3.038,3.458-5.259C163.138,60.592,161.959,65.1,158,65.245Z" transform="translate(-52.943 -13.167)"/><path class="d" d="M166.5,49.36c-3.369-3.369-4.112-6.463-9.064-5.162-6.326,1.616-8.887,14.542,8.442,12.458a4.968,4.968,0,0,0,.622-7.3Z" transform="translate(-51.913 -9.82)"/><path class="e" d="M157.09,57.158c2.1.986,5.219,1.43,9.638.889a5.009,5.009,0,0,0,.978-6.9C164.207,50.808,161.743,57.255,157.09,57.158Z" transform="translate(-52.768 -11.211)"/><path class="d" d="M147.382,36.886c1.1,8.652,12.207,3.934,18.1,9.824a11.036,11.036,0,0,0,.646-10.9c-2.141-4.169-4.92-4.9-4.92-4.9C153.385,28.258,146.833,32.6,147.382,36.886Z" transform="translate(-50.897 -7.169)"/><path class="e" d="M156.14,43.513c3.692.662,8.03.913,11.028,3.91a11.036,11.036,0,0,0,.646-10.9,12.692,12.692,0,0,0-1.834-2.714C162.143,35.466,160.066,41.146,156.14,43.513Z" transform="translate(-52.585 -7.882)"/><path class="d" d="M148.738,34.524c8.555,1.349,10.082-3.555,11.763-5.235-.622-2.553-1.147-7.659-9.646-7.659C142.865,21.63,140.708,33.239,148.738,34.524Z" transform="translate(-50.192 -5.542)"/><path class="e" d="M156.267,22.62c-2.036,3.539-3.749,9.872-9.977,10.89a6.374,6.374,0,0,0,2.949,1.2c8.555,1.349,10.082-3.555,11.763-5.235C160.525,27.548,160.113,24.163,156.267,22.62Z" transform="translate(-50.693 -5.732)"/><path class="f" d="M119.721,137.7l-4.1,3.127-.913-.921a18.751,18.751,0,0,1-4.039-6.188,57.748,57.748,0,0,1-26.733,0,18.751,18.751,0,0,1-4.039,6.188l-.913.921L74.932,137.7l-5.251,3.328-.7-1.567A129.261,129.261,0,0,1,59.655,92.14c0-7.78,1.478-17.3,4.395-28.316C59.623,59.34,58.1,54.17,56.5,48.717c-.25-.856-.509-1.721-.808-2.6a69.7,69.7,0,0,0-2.65-7.174l-.679-1.5,1.567-.509a27.217,27.217,0,0,1,8.434-1.39,24.737,24.737,0,0,1,16.78,6.625,55.962,55.962,0,0,1,36.3,0,24.737,24.737,0,0,1,16.78-6.625,27.217,27.217,0,0,1,8.434,1.39l1.567.509-.679,1.5a69.686,69.686,0,0,0-2.65,7.174c-.267.881-.525,1.745-.808,2.6-1.616,5.453-3.126,10.624-7.562,15.083,2.916,10.906,4.387,20.423,4.387,28.324a129.261,129.261,0,0,1-9.323,47.326l-.7,1.567Z" transform="translate(-32.647 -8.215)"/><path class="g" d="M104.967,84.333c3.232,0,9.606-3.684,12.118-9.266s-2.908-7.271-5.065-7.7a48.473,48.473,0,0,0-14.081,0c-2.157.412-7.562,2.141-5.09,7.683S101.736,84.333,104.967,84.333Z" transform="translate(-40.304 -14.231)"/><path class="h" d="M111.293,53.854c4.185-1.268,9.695-3.094,15.237-3.094,8.152,0,12.223,3.862,11.8,6.786-4.282-1.567-8.127-3.458-16.36-1.357-6.334,1.616-8.62,2.916-12.118,3.425C108.272,59.841,106.866,55.187,111.293,53.854Z" transform="translate(-43.398 -11.139)"/><path class="h" d="M98.083,53.854C93.9,52.586,88.388,50.76,82.846,50.76c-8.152,0-12.223,3.862-11.8,6.786,4.282-1.567,8.127-3.458,16.36-1.357,6.334,1.616,8.62,2.916,12.118,3.425C101.072,59.841,102.51,55.187,98.083,53.854Z" transform="translate(-36.231 -11.139)"/><path class="a" d="M33.082,48.6A2.561,2.561,0,1,0,29.3,50.855a.671.671,0,0,1,.582-.347h1.276a.671.671,0,0,1,.582.347A2.553,2.553,0,0,0,33.082,48.6Z" transform="translate(-27.96 -10.232)"/><path class="a" d="M65.85,72.247a.7.7,0,1,0,1.115-.557.307.307,0,0,1-.121,0h-.6a.307.307,0,0,1-.121,0,.7.7,0,0,0-.275.557Z" transform="translate(-35.239 -15.16)"/><path class="i" d="M133.5,133.442c-6.358-.307-1.826,2.311-1.89,2.351-30.788,19.22-62.6-.767-65.067-1.882A14.541,14.541,0,0,1,66.3,132.3C65.13,103.688,62.447,87.861,67.61,84.84c.711.525,1.454,1.01,2.23,1.486,9.331,5.7,22.621,8.022,33.414,7.853,9.444-.145,19.947-1.373,27.9-5.841l.986-.582C141.308,102.282,133.5,133.442,133.5,133.442Z" transform="translate(-34.991 -17.686)"/><path class="j" d="M135.73,99.256a78.365,78.365,0,0,1-30.4,5.922C91.321,105.1,72,103.877,63.513,92.93c-.178.372-.557,1.373-.743,1.777,4.629,5.162,11,8.265,18.484,9.759a124.891,124.891,0,0,0,24.285,2.036,84.077,84.077,0,0,0,22.976-3.232,52.151,52.151,0,0,0,7.707-2.561Z" transform="translate(-34.647 -19.24)"/><path class="k" d="M81.907,96.424a73.517,73.517,0,0,0,22.16,3.393c7.424-.073,14.776-1.22,21.126-4.637a41.783,41.783,0,0,0,8.685-5.518A26.226,26.226,0,0,0,132.5,87.1l-.994.6c-7.95,4.6-18.452,5.865-27.9,6.027-10.818.178-24.083-2.2-33.406-8.079a25.148,25.148,0,0,1-2.23-1.527c-.4.557-.921,1.333-1.511,2.3C69.918,91.294,75.743,94.526,81.907,96.424Z" transform="translate(-35.356 -17.548)"/><g class="l" transform="translate(42.503 100.437)"><path class="m" d="M81.3,129.328c-.509-.2-.727-.889-.727-1.664s.3-1.511.808-1.616,1.155.606,1.139,1.68S81.8,129.538,81.3,129.328Z" transform="translate(-80.57 -126.037)"/></g><g class="l" transform="translate(67.288 112.417)"><path class="m" d="M119.66,147.736c-.38.372-2.424-.808-4.775-2.618a17.87,17.87,0,0,1-2.844-2.609c-.646-.808-.921-1.381-.735-1.575.38-.372,2.424.848,4.775,2.618a17.9,17.9,0,0,1,2.844,2.609C119.563,146.937,119.838,147.543,119.66,147.736Z" transform="translate(-111.249 -140.867)"/></g><g class="l" transform="translate(82.462 112.218)"><path class="m" d="M137.2,140.677c.4.364-.808,2.375-2.82,4.411s-3.878,3.361-4.274,2.989.881-2.343,2.86-4.363S136.792,140.321,137.2,140.677Z" transform="translate(-130.031 -140.621)"/></g><g class="l" transform="translate(58.767 112.354)"><path class="m" d="M107.81,140.887c.339.428-.953,2.1-2.884,3.74s-3.789,2.642-4.161,2.246.921-2.076,2.884-3.74S107.47,140.458,107.81,140.887Z" transform="translate(-100.701 -140.788)"/></g><g class="l" transform="translate(45.844 113.381)"><path class="m" d="M89.791,148.588c-.372.4-2.044-.662-3.417-2.537s-1.971-3.66-1.519-3.951,1.794,1.01,3.1,2.779S90.187,148.192,89.791,148.588Z" transform="translate(-84.706 -142.06)"/></g><g class="l" transform="translate(91.255 112.329)"><path class="m" d="M145.08,143.434c-.242.485-1.43.388-2.593-.315s-1.8-1.688-1.495-2.133,1.422-.21,2.513.452S145.322,142.949,145.08,143.434Z" transform="translate(-140.915 -140.758)"/></g><g class="l" transform="translate(40.474 113.78)"><path class="m" d="M82.859,142.656c.436.347-.275,1.737-1.688,2.7s-2.82,1.212-3.07.735.671-1.47,1.947-2.351S82.43,142.316,82.859,142.656Z" transform="translate(-78.059 -142.553)"/></g><g class="l" transform="translate(32.008 111.875)"><path class="m" d="M72.629,146.266c-.4.364-1.915-.638-3.3-2.343s-2.068-3.328-1.616-3.668,1.866.808,3.191,2.424S73.033,145.9,72.629,146.266Z" transform="translate(-67.579 -140.196)"/></g><g class="l" transform="translate(51.824 106.681)"><path class="m" d="M95.171,138.584c-.42.355-1.616-.461-2.359-1.842s-.921-2.714-.428-2.941,1.406.679,2.141,1.971S95.583,138.237,95.171,138.584Z" transform="translate(-92.107 -133.767)"/></g><g class="l" transform="translate(73.375 105.455)"><path class="m" d="M124.767,138.608c-.178.2-.719.065-1.406-.388a11.963,11.963,0,0,1-2.286-2.1c-1.535-1.8-2.561-3.369-2.23-3.781.178-.2.711-.057,1.406.388a11.714,11.714,0,0,1,2.3,2.092,18.236,18.236,0,0,1,1.8,2.424C124.759,137.9,124.945,138.4,124.767,138.608Z" transform="translate(-118.783 -132.249)"/></g><g class="l" transform="translate(55.549 106.599)"><path class="m" d="M101.107,133.718c.226.137.259.574,0,1.147a5.259,5.259,0,0,1-1.333,1.834c-1.285,1.188-2.682,1.616-2.989,1.171s.5-1.559,1.616-2.618S100.63,133.459,101.107,133.718Z" transform="translate(-96.719 -133.666)"/></g><g class="l" transform="translate(34.305 103.879)"><path class="m" d="M74.2,134.9c-.323.436-1.729-.145-2.755-1.535s-1.252-2.779-.808-3.03,1.454.654,2.351,1.85S74.541,134.509,74.2,134.9Z" transform="translate(-70.422 -130.298)"/></g><g class="l" transform="translate(80.314 105.443)"><path class="m" d="M131.515,132.344c.186.21.089.614-.121,1.147a11.512,11.512,0,0,1-1.066,1.987,6.2,6.2,0,0,1-1.68,1.777c-.574.372-1.058.412-1.212.194s0-.614.178-1.123a13.5,13.5,0,0,1,1.074-1.939,6.682,6.682,0,0,1,1.616-1.777C130.869,132.215,131.337,132.142,131.515,132.344Z" transform="translate(-127.372 -132.235)"/></g><g class="l" transform="translate(38.953 104.596)"><path class="m" d="M80.816,131.222c.234.129.275.59.048,1.228a5.971,5.971,0,0,1-1.39,2.109c-1.381,1.39-2.9,1.947-3.232,1.519s.59-1.664,1.818-2.9S80.324,130.987,80.816,131.222Z" transform="translate(-76.176 -131.186)"/></g><g class="l" transform="translate(77.898 104.958)"><path class="m" d="M125.471,134.7c-.541,0-.961-.638-1.066-1.43s.17-1.47.679-1.616,1.171.485,1.276,1.406S126.02,134.741,125.471,134.7Z" transform="translate(-124.383 -131.634)"/></g><g class="l" transform="translate(54.475 105.346)"><path class="m" d="M96.141,135.205a1.874,1.874,0,0,1,.1-3.07c.525-.153,1.155.574,1.115,1.567S96.691,135.383,96.141,135.205Z" transform="translate(-95.389 -132.115)"/></g><g class="l" transform="translate(37.84 101.912)"><path class="m" d="M75.632,131.415c-.557,0-.937-.913-.808-1.85s.436-1.519.953-1.688a.73.73,0,0,1,.759.469,2.472,2.472,0,0,1,.25,1.381C76.65,130.745,76.165,131.415,75.632,131.415Z" transform="translate(-74.799 -127.863)"/></g><g class="l" transform="translate(65.573 115.022)"><path class="m" d="M110.454,147.685c-.533.121-1.1-.59-1.276-1.616s.121-1.882.654-1.971,1.107.622,1.276,1.616S110.987,147.564,110.454,147.685Z" transform="translate(-109.126 -144.091)"/></g><g class="l" transform="translate(89.001 114.405)"><path class="m" d="M139.309,146.884c-.541.153-1.139-.719-1.18-1.7s.275-1.729.808-1.842,1.115.719,1.163,1.713S139.826,146.731,139.309,146.884Z" transform="translate(-138.126 -143.327)"/></g><path class="n" d="M132.4,136.878c-2.981-2.86-4.573-3.143-10.284-7.109-2.424,3.724-5.356,7.4-7.5,10.818-3.846-3.692-8.337-7.853-12.466-11.189-3.078,2.674-8.887,7.457-12.635,10.8a56.786,56.786,0,0,1-6.18-10.115c-2.876,2.731-6.9,5.17-10.139,7.546-1.567-1.955-3.409-3.66-5.033-5.574-1.511-1.785-2.714-3.789-4.379-5.445-.218.881-.428,1.793-.63,2.747.4,1.438,2.149,3.005,3.021,4.1,1.365,1.713,2.488,3.579,3.862,5.284,1.026,1.285,2.755,3.918,2.755,3.918s3.232-2.238,3.837-2.666c1.68-1.2,3.668-2.553,5.13-3.587a71.522,71.522,0,0,0,6.891,9.048c1.737-1.616,10.5-8.725,13.314-11.23,1.907,1.616,13.031,10.882,13.031,10.882l8.216-9.969s6.051,3.393,7.7,4.427c.566.355,1.123.719,1.688,1.1C132.555,139.407,132.507,138.147,132.4,136.878Z" transform="translate(-34.72 -25.711)"/><path class="o" d="M84.194,134.377c.162.218-3.3,3.118-7.756,6.463l-1.971,1.478c-.145.2-.218-.048-.307-.162l-.267-.4-.323-.493-.509-.727c-.687-.978-1.341-1.834-1.89-2.561-1.107-1.454-1.761-2.383-1.616-2.472s.945.679,2.189,2.028c.622.679,1.341,1.5,2.084,2.472l.557.751.137.194.073.1h.048l.4-.307.808-.622C80.292,136.712,84.032,134.159,84.194,134.377Z" transform="translate(-35.947 -27.2)"/><path class="o" d="M106.975,133c.089.1-1.074,1.236-3.03,2.981s-4.694,4.1-7.764,6.665l-2.763,2.294-.961-1.438-.63-.978c-.412-.638-.808-1.26-1.147-1.858-.711-1.188-1.3-2.262-1.769-3.175a10.016,10.016,0,0,1-1.244-3.038,17.12,17.12,0,0,1,1.785,2.731c.533.864,1.188,1.89,1.931,3.038l1.2,1.8.646.953.339.485.024.04,1.931-1.616c3.07-2.561,5.881-4.847,7.941-6.463S106.886,132.868,106.975,133Z" transform="translate(-39.427 -26.936)"/><path class="o" d="M137.887,137.13c-.065.121-1.923-.719-4.847-2.173l-1.155-.574c-.048,0-.1-.057-.113,0h0l-.081.137-.194.307c-.525.808-1.107,1.689-1.729,2.585-1.252,1.794-2.682,3.724-4.225,5.72l-1.123,1.446-5.348-4.75-3.967-3.619a25.354,25.354,0,0,1-3.466-3.49,25.654,25.654,0,0,1,3.91,2.981l4.1,3.458,4.621,3.991.485-.622c1.535-1.987,2.989-3.886,4.266-5.655.638-.881,1.236-1.713,1.785-2.513l.493-.719.17-.259s.048-.121.1-.089l.137.073.533.291,1.131.63C136.166,135.95,137.952,136.984,137.887,137.13Z" transform="translate(-44.035 -26.883)"/><path class="i" d="M71.832,112.047,83.6,110.06l2.8,5.057.743,9.444-5.72-1.8-2.949,2.723-4.144-4.048-2.916-8.321Z" transform="translate(-36.309 -22.531)"/><path class="i" d="M140.4,112.047l-11.763-1.987-2.811,5.057-.743,9.444,5.728-1.8,2.941,2.723,4.144-4.048,2.916-8.321Z" transform="translate(-46.618 -22.531)"/><path class="j" d="M109.978,152.692a100.419,100.419,0,0,1-21.966-.477c-8.24-1.083-17.054-3.8-23.162-10.575v1.777c3.918,6.229,14.308,9.7,22.718,10.818,9.412,1.22,18.993,2.125,28.324,0a75.132,75.132,0,0,0,17.66-6.188v-2a67.006,67.006,0,0,1-23.574,6.649Z" transform="translate(-35.047 -28.598)"/><g transform="translate(17.725 25.491)"><path class="d" d="M140.674,34.732a28.7,28.7,0,0,0-8.887-1.462,26.313,26.313,0,0,0-17.127,6.423,57.57,57.57,0,0,0-35.611,0,26.313,26.313,0,0,0-17.12-6.423,28.7,28.7,0,0,0-8.887,1.462L49.9,35.758l1.357,3.013a68.252,68.252,0,0,1,2.585,7c.267.864.525,1.737.808,2.577,1.616,5.4,3.094,10.5,7.336,15.1-2.811,10.793-4.233,20.2-4.233,27.888A128.308,128.308,0,0,0,67.2,139.272l1.357,3.126,2.892-1.834,2.933-1.858,2.254,1.721L78.709,142l1.834-1.85a21.24,21.24,0,0,0,3.862-5.51,59.193,59.193,0,0,0,24.907,0,21.239,21.239,0,0,0,3.862,5.51l1.834,1.85,2.068-1.575,2.254-1.713,2.933,1.858,2.892,1.834,1.4-3.126A128.308,128.308,0,0,0,136,91.349c0-7.828-1.422-17.2-4.225-27.9,4.241-4.565,5.744-9.695,7.336-15.091.25-.808.5-1.713.808-2.577a68.273,68.273,0,0,1,2.585-7l1.349-3.013Zm-6.108,13.734c-1.244,4.508-2.262,8.176-5.34,11.593-1.737-6.116-3.377-10.753-3.975-12.385.566-.961,2.335-3.361,6.81-5.469l-1.293-2.69c-6.948,3.232-8.491,7.392-8.555,7.562l-.186.517.194.509c.121.3,9.355,24.875,9.355,43.585a127.871,127.871,0,0,1-8.4,44.522l-4.039-2.569-3.619,2.755a14.355,14.355,0,0,1-2.375-3.91c1.252-.364,2.5-.759,3.724-1.212l-1.018-2.787a54.936,54.936,0,0,1-37.9,0l-1.018,2.787c1.228.452,2.472.808,3.724,1.212a14.348,14.348,0,0,1-2.4,3.918l-3.619-2.755L70.6,136.218A127.686,127.686,0,0,1,62.2,91.7c0-18.719,9.2-43.327,9.3-43.569l.194-.509L71.5,47.1c-.065-.178-1.616-4.29-8.555-7.562l-1.26,2.682c4.451,2.141,6.213,4.508,6.77,5.461-.6,1.616-2.238,6.269-3.975,12.393C61.4,56.657,60.38,53,59.14,48.481c-.323-1.18-.662-2.424-1.05-3.668-.759-2.472-1.575-4.6-2.125-5.954a21.6,21.6,0,0,1,21.247,5.566l.679.759.953-.355a52.852,52.852,0,0,1,36.032,0l.953.355.679-.759a21.894,21.894,0,0,1,21.247-5.566c-.549,1.357-1.365,3.482-2.125,5.954-.4,1.268-.743,2.488-1.066,3.668Z" transform="translate(-49.9 -33.27)"/><path class="d" d="M86,109.59l-2.941.388c.719,5.453,1.074,9.63,1.244,11.973l-4.072-1.309-3.038,3.232c-1.2-2.173-3.377-6.31-5.873-11.94l-2.747,1.22a139.76,139.76,0,0,0,7.021,13.984l1.01,1.688,4.476-4.8,6.423,2.052-.089-2.117C87.377,123.736,87.143,118.347,86,109.59Z" transform="translate(-53.487 -47.932)"/><path class="d" d="M118.24,69.47c-1.454-2.763-4.9-3.66-6.3-3.918a49.9,49.9,0,0,0-14.615,0c-1.414.259-4.847,1.155-6.3,3.918a6.531,6.531,0,0,0,.154,5.849C94,81.6,100.919,85.458,104.635,85.458s10.64-3.854,13.459-10.139A6.354,6.354,0,0,0,118.24,69.47Zm-2.852,4.637c-2.335,5.2-8.289,8.386-10.753,8.386s-8.426-3.183-10.761-8.386a3.674,3.674,0,0,1-.234-3.232c.695-1.317,2.634-2.092,4.209-2.383a46.8,46.8,0,0,1,13.548,0c1.616.291,3.522,1.066,4.217,2.383a3.642,3.642,0,0,1-.226,3.233Z" transform="translate(-57.681 -39.369)"/><path class="d" d="M131.4,120.642l-4.1,1.309c.17-2.351.525-6.528,1.244-11.973l-2.941-.388c-1.155,8.766-1.39,14.146-1.4,14.372l-.089,2.117,6.39-2.044,4.476,4.8,1.01-1.688a139.919,139.919,0,0,0,7.021-13.993l-2.714-1.2c-2.5,5.655-4.678,9.767-5.873,11.941Z" transform="translate(-64.159 -47.932)"/><path class="d" d="M112.245,70.85A2.278,2.278,0,0,0,110,73.128v1.325a2.278,2.278,0,1,0,4.548,0V73.128a2.278,2.278,0,0,0-2.3-2.278Z" transform="translate(-61.445 -40.49)"/><path class="d" d="M102.707,70.85a2.278,2.278,0,0,0-2.278,2.278v1.325a2.278,2.278,0,1,0,4.548,0V73.128a2.278,2.278,0,0,0-2.27-2.278Z" transform="translate(-59.607 -40.49)"/></g><path class="i" d="M135.241,41.265c-1.1-1.777-.808-3.854.63-4.637s3.514,0,4.621,1.81a10.793,10.793,0,0,1,1.171,7.538,12.327,12.327,0,0,1-6.422-4.711Z" transform="translate(-48.442 -8.365)"/><path class="p" d="M132.792,45.618c-1.907-1.026-2.779-2.957-1.947-4.306s3.062-1.616,4.977-.582a11.585,11.585,0,0,1,5.057,5.978,13.177,13.177,0,0,1-8.087-1.091Z" transform="translate(-47.665 -9.09)"/><path class="i" d="M133,50.429c-2.206,0-3.991-1.26-3.991-2.82S130.8,44.79,133,44.79a12.781,12.781,0,0,1,7.586,2.82A12.789,12.789,0,0,1,133,50.429Z" transform="translate(-47.373 -9.992)"/><path class="p" d="M135.819,54.208c-1.915,1.026-4.136.767-4.977-.582s0-3.272,1.947-4.306a13.177,13.177,0,0,1,8.079-1.091A11.585,11.585,0,0,1,135.819,54.208Z" transform="translate(-47.663 -10.611)"/><path class="i" d="M140.482,55.809c-1.107,1.777-3.175,2.593-4.621,1.81s-1.729-2.852-.622-4.629a12.321,12.321,0,0,1,6.415-4.71,10.793,10.793,0,0,1-1.172,7.529Z" transform="translate(-48.44 -10.662)"/><path class="p" d="M145.649,55.319c0,2.052-1.357,3.724-3.03,3.724s-3.03-1.664-3.03-3.724a11.152,11.152,0,0,1,3.03-7.069,11.152,11.152,0,0,1,3.03,7.069Z" transform="translate(-49.406 -10.656)"/><path class="i" d="M149.7,52.992c1.1,1.777.808,3.854-.622,4.637s-3.514,0-4.621-1.81a10.785,10.785,0,0,1-1.171-7.529,12.282,12.282,0,0,1,6.414,4.7Z" transform="translate(-50.072 -10.664)"/><path class="p" d="M151.427,49.32c1.907,1.026,2.779,2.957,1.947,4.306s-3.062,1.616-4.977.582a11.585,11.585,0,0,1-5.057-5.978,13.177,13.177,0,0,1,8.087,1.091Z" transform="translate(-50.126 -10.611)"/><path class="i" d="M150.926,44.79c2.206,0,3.991,1.26,4,2.82s-1.794,2.82-4,2.82a12.781,12.781,0,0,1-7.586-2.82A12.781,12.781,0,0,1,150.926,44.79Z" transform="translate(-50.126 -9.992)"/><path class="p" d="M148.4,40.731c1.915-1.026,4.136-.767,4.977.582s0,3.272-1.947,4.306a13.177,13.177,0,0,1-8.079,1.091,11.577,11.577,0,0,1,5.049-5.978Z" transform="translate(-50.128 -9.091)"/><path class="i" d="M149.132,36.635c-1.446-.808-3.514,0-4.621,1.81a9.185,9.185,0,0,0-1.171,2.981,11.352,11.352,0,0,1,0,4.548,12.321,12.321,0,0,0,6.415-4.71C150.861,39.487,150.579,37.419,149.132,36.635Z" transform="translate(-50.126 -8.365)"/><path class="p" d="M145.755,38.644c0-2.052-1.357-3.724-3.03-3.724a2.965,2.965,0,0,0-2.585,1.794,4.766,4.766,0,0,1,1.414,1.5,10.793,10.793,0,0,1,1.171,7.538,11.319,11.319,0,0,0,3.03-7.108Z" transform="translate(-49.511 -8.096)"/><ellipse class="q" cx="3.7" cy="3.442" rx="3.7" ry="3.442" transform="translate(89.514 34.176)"/><path class="i" d="M65.021,41.265c-1.1-1.777-.808-3.854.63-4.637s3.514,0,4.621,1.81a10.793,10.793,0,0,1,1.171,7.538A12.357,12.357,0,0,1,65.021,41.265Z" transform="translate(-34.952 -8.365)"/><path class="p" d="M62.582,45.618c-1.907-1.026-2.779-2.957-1.947-4.306S63.7,39.7,65.612,40.73a11.585,11.585,0,0,1,5.057,5.978,13.185,13.185,0,0,1-8.087-1.091Z" transform="translate(-34.177 -9.09)"/><path class="i" d="M62.781,50.429c-2.206,0-3.991-1.26-3.991-2.82s1.785-2.82,3.991-2.82a12.781,12.781,0,0,1,7.586,2.82,12.789,12.789,0,0,1-7.586,2.819Z" transform="translate(-33.883 -9.992)"/><path class="p" d="M65.609,54.208c-1.915,1.026-4.136.767-4.977-.582s0-3.272,1.947-4.306a13.176,13.176,0,0,1,8.079-1.091,11.585,11.585,0,0,1-5.049,5.978Z" transform="translate(-34.174 -10.611)"/><path class="i" d="M70.272,55.809c-1.107,1.777-3.175,2.593-4.621,1.81s-1.729-2.852-.622-4.629a12.321,12.321,0,0,1,6.415-4.71,10.793,10.793,0,0,1-1.171,7.529Z" transform="translate(-34.951 -10.662)"/><path class="p" d="M75.431,55.319c0,2.052-1.357,3.724-3.03,3.724S69.38,57.4,69.38,55.319a11.152,11.152,0,0,1,3.03-7.069A11.164,11.164,0,0,1,75.431,55.319Z" transform="translate(-35.917 -10.656)"/><path class="i" d="M79.49,52.992c1.1,1.777.808,3.854-.622,4.637s-3.514,0-4.621-1.81a10.785,10.785,0,0,1-1.171-7.529,12.282,12.282,0,0,1,6.414,4.7Z" transform="translate(-36.583 -10.664)"/><path class="p" d="M81.207,49.32c1.907,1.026,2.779,2.957,1.947,4.306s-3.062,1.616-4.977.582A11.585,11.585,0,0,1,73.12,48.23a13.177,13.177,0,0,1,8.087,1.091Z" transform="translate(-36.636 -10.611)"/><path class="i" d="M80.716,44.79c2.206,0,3.991,1.26,4,2.82s-1.794,2.82-4,2.82a12.781,12.781,0,0,1-7.586-2.82,12.781,12.781,0,0,1,7.586-2.82Z" transform="translate(-36.638 -9.992)"/><path class="p" d="M78.189,40.731c1.915-1.026,4.136-.767,4.977.582s0,3.272-1.947,4.306A13.177,13.177,0,0,1,73.14,46.71a11.577,11.577,0,0,1,5.049-5.978Z" transform="translate(-36.64 -9.091)"/><path class="i" d="M78.913,36.635c-1.446-.808-3.514,0-4.621,1.81a9.186,9.186,0,0,0-1.171,2.981,11.351,11.351,0,0,1,0,4.548,12.321,12.321,0,0,0,6.415-4.71C80.641,39.487,80.367,37.419,78.913,36.635Z" transform="translate(-36.636 -8.365)"/><path class="p" d="M75.535,38.644c0-2.052-1.357-3.724-3.03-3.724a2.965,2.965,0,0,0-2.585,1.794,4.766,4.766,0,0,1,1.422,1.5,10.793,10.793,0,0,1,1.171,7.538,11.332,11.332,0,0,0,3.022-7.108Z" transform="translate(-36.021 -8.096)"/><ellipse class="q" cx="3.7" cy="3.442" rx="3.7" ry="3.442" transform="translate(32.792 34.176)"/><path class="r" d="M119.841,30.935c-1.1-1.777-.808-3.854.63-4.637s3.514,0,4.621,1.81a10.793,10.793,0,0,1,1.212,7.538,12.447,12.447,0,0,1-6.463-4.711Z" transform="translate(-45.483 -6.381)"/><path class="s" d="M117.462,35.278c-1.907-1.026-2.779-2.957-1.947-4.306s3.062-1.616,4.977-.582a11.585,11.585,0,0,1,5.057,5.978,13.185,13.185,0,0,1-8.087-1.091Z" transform="translate(-44.72 -7.104)"/><path class="r" d="M117.621,40.089c-2.206,0-3.991-1.26-3.991-2.82s1.785-2.82,3.991-2.82a12.781,12.781,0,0,1,7.618,2.82,12.789,12.789,0,0,1-7.618,2.82Z" transform="translate(-44.418 -8.005)"/><path class="s" d="M120.439,43.868c-1.915,1.026-4.136.767-4.977-.582s0-3.272,1.947-4.306a13.177,13.177,0,0,1,8.079-1.091,11.585,11.585,0,0,1-5.049,5.979Z" transform="translate(-44.708 -8.625)"/><path class="r" d="M125.1,45.469c-1.107,1.777-3.175,2.593-4.621,1.81s-1.721-2.828-.638-4.629a12.321,12.321,0,0,1,6.415-4.71,10.793,10.793,0,0,1-1.156,7.529Z" transform="translate(-45.485 -8.676)"/><path class="s" d="M130.269,45.009c0,2.052-1.357,3.724-3.03,3.724s-3.03-1.664-3.03-3.724a11.152,11.152,0,0,1,3.03-7.069A11.152,11.152,0,0,1,130.269,45.009Z" transform="translate(-46.451 -8.676)"/><path class="r" d="M134.334,42.65c1.107,1.777.808,3.854-.622,4.637s-3.514,0-4.621-1.81a10.785,10.785,0,0,1-1.147-7.538,12.334,12.334,0,0,1,6.39,4.711Z" transform="translate(-47.123 -8.676)"/><path class="s" d="M136.077,38.98c1.907,1.026,2.779,2.957,1.947,4.306s-3.062,1.616-4.977.582a11.585,11.585,0,0,1-5.057-5.978,13.177,13.177,0,0,1,8.087,1.091Z" transform="translate(-47.177 -8.625)"/><path class="r" d="M135.562,34.45c2.206,0,3.991,1.26,4,2.82s-1.793,2.82-4,2.82A12.781,12.781,0,0,1,128,37.27a12.781,12.781,0,0,1,7.562-2.819Z" transform="translate(-47.179 -8.005)"/><path class="s" d="M133.019,30.391c1.915-1.026,4.136-.767,4.977.582s0,3.272-1.947,4.306a13.176,13.176,0,0,1-8.079,1.091,11.577,11.577,0,0,1,5.049-5.978Z" transform="translate(-47.173 -7.105)"/><path class="r" d="M133.76,26.3c-1.446-.808-3.514,0-4.621,1.81A9.178,9.178,0,0,0,128,31.094a11.35,11.35,0,0,1,0,4.548,12.321,12.321,0,0,0,6.415-4.71C135.489,29.155,135.206,27.079,133.76,26.3Z" transform="translate(-47.179 -6.378)"/><path class="s" d="M130.375,28.3c0-2.052-1.357-3.724-3.03-3.724a2.965,2.965,0,0,0-2.585,1.793,4.766,4.766,0,0,1,1.414,1.462,10.793,10.793,0,0,1,1.2,7.538,11.2,11.2,0,0,0,3-7.069Z" transform="translate(-46.557 -6.109)"/><ellipse class="q" cx="3.7" cy="3.442" rx="3.7" ry="3.442" transform="translate(77.088 25.823)"/><path class="r" d="M79.771,30.935c-1.1-1.777-.808-3.854.63-4.637s3.514,0,4.621,1.81a10.793,10.793,0,0,1,1.171,7.538,12.357,12.357,0,0,1-6.422-4.711Z" transform="translate(-37.785 -6.381)"/><path class="s" d="M77.332,35.278c-1.907-1.026-2.779-2.957-1.947-4.306s3.062-1.616,4.977-.582a11.585,11.585,0,0,1,5.057,5.978,13.185,13.185,0,0,1-8.087-1.091Z" transform="translate(-37.01 -7.104)"/><path class="r" d="M77.531,40.089c-2.206,0-3.991-1.26-3.991-2.82s1.785-2.82,3.991-2.82a12.781,12.781,0,0,1,7.586,2.82A12.789,12.789,0,0,1,77.531,40.089Z" transform="translate(-36.716 -8.005)"/><path class="s" d="M80.359,43.868c-1.915,1.026-4.136.767-4.977-.582s0-3.272,1.947-4.306a13.177,13.177,0,0,1,8.079-1.091,11.585,11.585,0,0,1-5.049,5.978Z" transform="translate(-37.008 -8.625)"/><path class="r" d="M85.022,45.469c-1.107,1.777-3.175,2.593-4.621,1.81s-1.729-2.852-.622-4.629a12.321,12.321,0,0,1,6.415-4.71,10.793,10.793,0,0,1-1.171,7.529Z" transform="translate(-37.785 -8.676)"/><path class="s" d="M90.179,45.009c0,2.052-1.357,3.724-3.03,3.724s-3.03-1.664-3.03-3.724a11.152,11.152,0,0,1,3.03-7.069,11.106,11.106,0,0,1,3.03,7.069Z" transform="translate(-38.749 -8.676)"/><path class="r" d="M94.24,42.652c1.107,1.777.808,3.854-.622,4.637s-3.514,0-4.621-1.81a10.785,10.785,0,0,1-1.171-7.529,12.282,12.282,0,0,1,6.414,4.7Z" transform="translate(-39.417 -8.678)"/><path class="s" d="M95.957,38.98c1.907,1.026,2.779,2.957,1.947,4.306s-3.062,1.616-4.977.582A11.585,11.585,0,0,1,87.87,37.89a13.177,13.177,0,0,1,8.087,1.09Z" transform="translate(-39.469 -8.625)"/><path class="r" d="M95.466,34.45c2.206,0,3.991,1.26,4,2.82s-1.793,2.82-4,2.82a12.781,12.781,0,0,1-7.586-2.82,12.781,12.781,0,0,1,7.586-2.819Z" transform="translate(-39.471 -8.005)"/><path class="s" d="M92.939,30.391c1.915-1.026,4.136-.767,4.977.582s0,3.272-1.947,4.306A13.177,13.177,0,0,1,87.89,36.37a11.577,11.577,0,0,1,5.049-5.979Z" transform="translate(-39.473 -7.105)"/><path class="r" d="M93.623,26.3c-1.446-.808-3.514,0-4.621,1.81a9.185,9.185,0,0,0-1.171,2.981,11.351,11.351,0,0,1,0,4.548,12.321,12.321,0,0,0,6.415-4.71C95.392,29.155,95.109,27.079,93.623,26.3Z" transform="translate(-39.462 -6.378)"/><path class="s" d="M90.295,28.3c0-2.052-1.357-3.724-3.03-3.724a2.965,2.965,0,0,0-2.585,1.793,4.766,4.766,0,0,1,1.414,1.462,10.793,10.793,0,0,1,1.171,7.538,11.152,11.152,0,0,0,3.03-7.069Z" transform="translate(-38.857 -6.109)"/><ellipse class="q" cx="3.7" cy="3.442" rx="3.7" ry="3.442" transform="translate(44.709 25.823)"/><path class="i" d="M99.841,27.825c-1.1-1.777-.808-3.854.63-4.637s3.514,0,4.621,1.81a10.793,10.793,0,0,1,1.212,7.578,12.345,12.345,0,0,1-6.463-4.751Z" transform="translate(-41.641 -5.783)"/><path class="p" d="M97.462,32.218c-1.907-1.026-2.779-2.957-1.947-4.306s3.062-1.616,4.977-.582a11.585,11.585,0,0,1,5.057,5.978,13.177,13.177,0,0,1-8.087-1.091Z" transform="translate(-40.878 -6.516)"/><path class="i" d="M97.621,37.029c-2.206,0-3.991-1.26-3.991-2.82s1.785-2.82,3.991-2.82a12.781,12.781,0,0,1,7.618,2.82A12.789,12.789,0,0,1,97.621,37.029Z" transform="translate(-40.576 -7.417)"/><path class="p" d="M100.439,40.808c-1.915,1.026-4.136.767-4.977-.582s0-3.272,1.947-4.306a13.176,13.176,0,0,1,8.079-1.091,11.585,11.585,0,0,1-5.049,5.979Z" transform="translate(-40.866 -8.037)"/><path class="i" d="M105.1,42.409c-1.107,1.777-3.175,2.593-4.621,1.81s-1.729-2.852-.622-4.629a12.321,12.321,0,0,1,6.415-4.71,10.793,10.793,0,0,1-1.171,7.529Z" transform="translate(-41.643 -8.088)"/><path class="p" d="M110.269,41.949c0,2.052-1.357,3.724-3.03,3.724s-3.03-1.664-3.03-3.724a11.152,11.152,0,0,1,3.03-7.069A11.152,11.152,0,0,1,110.269,41.949Z" transform="translate(-42.609 -8.088)"/><path class="i" d="M114.326,39.59c1.1,1.777.808,3.854-.622,4.629s-3.514,0-4.621-1.81a10.785,10.785,0,0,1-1.139-7.529,12.3,12.3,0,0,1,6.382,4.71Z" transform="translate(-43.28 -8.088)"/><path class="p" d="M116.077,35.92c1.907,1.026,2.779,2.957,1.947,4.306s-3.062,1.616-4.977.582a11.585,11.585,0,0,1-5.057-5.978,13.177,13.177,0,0,1,8.087,1.091Z" transform="translate(-43.335 -8.037)"/><path class="i" d="M115.554,31.39c2.206,0,3.991,1.26,4,2.82s-1.794,2.82-4,2.82A12.781,12.781,0,0,1,108,34.21a12.781,12.781,0,0,1,7.554-2.82Z" transform="translate(-43.337 -7.417)"/><path class="p" d="M113.019,27.331c1.915-1.026,4.136-.767,4.977.582s0,3.272-1.947,4.306a13.177,13.177,0,0,1-8.079,1.091,11.577,11.577,0,0,1,5.049-5.979Z" transform="translate(-43.331 -6.517)"/><path class="i" d="M113.76,23.235c-1.446-.808-3.514,0-4.621,1.81A9.186,9.186,0,0,0,108,28.034a11.351,11.351,0,0,1,0,4.548,12.321,12.321,0,0,0,6.415-4.71C115.489,26.087,115.206,24.019,113.76,23.235Z" transform="translate(-43.337 -5.791)"/><path class="p" d="M110.375,25.244c0-2.052-1.357-3.724-3.03-3.724a2.965,2.965,0,0,0-2.585,1.793,4.766,4.766,0,0,1,1.414,1.462,10.793,10.793,0,0,1,1.2,7.538A11.2,11.2,0,0,0,110.375,25.244Z" transform="translate(-42.714 -5.521)"/><ellipse class="q" cx="3.7" cy="3.442" rx="3.7" ry="3.442" transform="translate(60.931 23.351)"/><path class="i" d="M146.012,91.926a1.745,1.745,0,0,0,2.755,0c1.559-2.23-.145-9.04-1.382-12.926C146.157,82.87,144.452,89.688,146.012,91.926Z" transform="translate(-50.52 -16.564)"/><path class="q" d="M149.871,78.921a64.87,64.87,0,0,0-2.424-6.52,1.519,1.519,0,0,0,0-2.779v-.477a1.971,1.971,0,1,0-1.22,0v.477a1.519,1.519,0,0,0,0,2.779,65,65,0,0,0-2.424,6.52c-1.616,5.477-1.826,9.3-.509,11.359a4.468,4.468,0,0,0,7.045,0C151.7,88.22,151.519,84.406,149.871,78.921Zm-4.2-11.65a1.2,1.2,0,1,1,1.761,1.05.315.315,0,0,0-.275-.162h-.6a.315.315,0,0,0-.275.162,1.188,1.188,0,0,1-.612-1.05Zm.493,3.749a.7.7,0,0,1,.283-.557.307.307,0,0,0,.121,0h.6a.307.307,0,0,0,.121,0,.7.7,0,1,1-1.115.557Zm2.044,16.158a1.68,1.68,0,0,1-2.69,0c-1.438-2.052.808-8.313,1.034-9.016l.315-.864.315.864c.25.743,2.464,7,1.026,9.056Z" transform="translate(-49.952 -13.932)"/><path class="i" d="M64.845,91.926a1.745,1.745,0,0,0,2.755,0c1.559-2.23-.145-9.04-1.381-12.926C64.966,82.87,63.229,89.688,64.845,91.926Z" transform="translate(-34.92 -16.564)"/><path class="q" d="M68.681,78.921a64.873,64.873,0,0,0-2.424-6.52,1.519,1.519,0,0,0,0-2.779v-.477a1.971,1.971,0,1,0-1.22,0v.477a1.519,1.519,0,0,0,0,2.779,65,65,0,0,0-2.424,6.52C61,84.4,60.788,88.22,62.1,90.28a4.465,4.465,0,0,0,7.045,0C70.5,88.22,70.329,84.406,68.681,78.921Zm-4.2-11.65a1.2,1.2,0,1,1,1.761,1.018.315.315,0,0,0-.275-.162h-.6a.315.315,0,0,0-.283.162,1.188,1.188,0,0,1-.614-1.018Zm.493,3.749a.7.7,0,0,1,.283-.557.307.307,0,0,0,.121,0h.6a.307.307,0,0,0,.121,0,.7.7,0,1,1-1.115.557Zm2.044,16.158a1.68,1.68,0,0,1-2.69,0c-1.438-2.052.808-8.313,1.034-9.016l.315-.864.315.864c.25.743,2.464,7,1.026,9.056Z" transform="translate(-34.354 -13.932)"/><circle class="t" cx="3.32" cy="3.32" r="3.32" transform="translate(79.334 47.434)"/><path class="t" d="M133.234,62.417h0a.436.436,0,0,1,.137-.606l1.616-1.018a.436.436,0,0,1,.606.137h0a.436.436,0,0,1-.137.606l-1.616,1.026a.436.436,0,0,1-.606-.145Z" transform="translate(-48.171 -13.053)"/><path class="t" d="M131.961,61.161h0a.436.436,0,0,1-.065-.622l1.212-1.478A.436.436,0,0,1,133.73,59h0a.436.436,0,0,1,.065.622L132.583,61.1a.436.436,0,0,1-.622.065Z" transform="translate(-47.908 -12.701)"/><circle class="t" cx="3.32" cy="3.32" r="3.32" transform="translate(43.626 47.434)"/><path class="t" d="M82.513,62.417h0a.436.436,0,0,0-.137-.606L80.76,60.794a.436.436,0,0,0-.606.137h0a.436.436,0,0,0,.137.606l1.616,1.026a.436.436,0,0,0,.606-.145Z" transform="translate(-37.974 -13.053)"/><path class="t" d="M83.919,61.161h0a.436.436,0,0,0,.065-.622l-1.171-1.478A.436.436,0,0,0,82.191,59h0a.436.436,0,0,0-.065.622L83.338,61.1A.436.436,0,0,0,83.919,61.161Z" transform="translate(-38.346 -12.701)"/></g></g><g transform="translate(7.23 -0.285)"><g transform="translate(41.771 37.494)"><path class="u" d="M109.91,137.089l-4,3.044-.892-.9a18.754,18.754,0,0,1-3.771-5.668,62.24,62.24,0,0,1-13.157,1.162A56.512,56.512,0,0,1,75.059,133.2a18.275,18.275,0,0,1-3.9,6.035l-.892.9-4-3.044-4.947,3.134-.765-1.257c-.374-.616-9.168-15.369-9.168-40.993a92.553,92.553,0,0,1,3.88-24.644c-4.113-4.148-5.417-8.758-6.793-13.625-.293-1.037-.6-2.109-.932-3.2a67.6,67.6,0,0,0-2.587-6.994l-.66-1.468,1.531-.5a26.517,26.517,0,0,1,8.22-1.356A24.106,24.106,0,0,1,70.4,52.643a54.534,54.534,0,0,1,35.38,0,24.11,24.11,0,0,1,16.356-6.454,26.517,26.517,0,0,1,8.22,1.356l1.53.5-.66,1.469a67.881,67.881,0,0,0-2.586,6.994c-.336,1.089-.638,2.161-.932,3.2-1.377,4.868-2.681,9.478-6.793,13.626a92.586,92.586,0,0,1,3.879,24.644c0,25.624-8.793,40.377-9.168,40.993l-.765,1.257Z" transform="translate(-42.309 -44.743)"/><path class="v" d="M96.615,94.349c3.165,0,9.361-3.59,11.8-9.03,2.433-5.423-2.838-7.124-4.94-7.507a47.249,47.249,0,0,0-13.722,0c-2.1.384-7.374,2.084-4.941,7.507C87.253,90.759,93.449,94.349,96.615,94.349Z" transform="translate(-50.84 -51.398)"/><path class="w" d="M130.262,45.778a27.959,27.959,0,0,0-8.668-1.428h0a25.651,25.651,0,0,0-16.69,6.257,56.1,56.1,0,0,0-34.714,0A25.647,25.647,0,0,0,53.5,44.35a27.96,27.96,0,0,0-8.668,1.428l-3.061,1,1.322,2.936a66.815,66.815,0,0,1,2.523,6.827c.33,1.072.631,2.136.922,3.165,1.364,4.824,2.66,9.4,6.571,13.639A92.913,92.913,0,0,0,49.4,97.58c0,26.024,9,41.114,9.378,41.744l1.53,2.515,2.487-1.576,2.856-1.809,2.194,1.668,2.02,1.535,1.785-1.8a20.72,20.72,0,0,0,3.761-5.37,57.933,57.933,0,0,0,12.14,1.292,67.411,67.411,0,0,0,12.3-.958,20.984,20.984,0,0,0,3.6,5.036l1.785,1.8,2.019-1.535,2.195-1.668,2.855,1.809,2.487,1.576,1.53-2.515c.383-.63,9.378-15.72,9.378-41.744a92.889,92.889,0,0,0-3.712-24.238c3.911-4.234,5.207-8.815,6.572-13.639.291-1.029.591-2.093.922-3.165A66.516,66.516,0,0,1,132,49.711l1.318-2.935Zm-6.081,13.978c-1.017,3.964-1.848,7.179-4.72,10.318-1.788-5.814-3.546-10.171-4.214-11.761.572-.96,2.306-3.267,6.614-5.294l-1.23-2.616c-6.773,3.188-8.277,7.2-8.337,7.372l-.194.542.231.527c.09.206,9.032,20.831,9.032,39.027,0,20.556-5.972,34.1-8.047,38.192l-4.093-2.593-3.529,2.683a14.012,14.012,0,0,1-2.314-3.81c1.219-.357,2.432-.741,3.633-1.182l-1-2.714a53.582,53.582,0,0,1-36.939,0l-1,2.714c1.2.44,2.414.825,3.633,1.182a13.98,13.98,0,0,1-2.314,3.81l-3.529-2.683-4.094,2.594c-2.077-4.076-8.046-17.586-8.046-38.193,0-18.2,8.942-38.821,9.032-39.027L63,58.316l-.194-.542c-.061-.169-1.565-4.184-8.337-7.372l-1.231,2.616c4.318,2.032,6.05,4.344,6.616,5.293-.667,1.588-2.427,5.947-4.215,11.763-2.871-3.138-3.7-6.354-4.72-10.318-.343-1.336-.7-2.717-1.155-4.2-.742-2.41-1.534-4.486-2.069-5.807a21.047,21.047,0,0,1,20.7,5.423l.658.743.929-.347a51.518,51.518,0,0,1,35.124,0l.929.347.658-.743a21.337,21.337,0,0,1,20.7-5.426c-.535,1.322-1.326,3.4-2.068,5.807-.454,1.486-.808,2.867-1.151,4.2Z" transform="translate(-41.771 -44.35)"/><path class="w" d="M77.014,77.442a3.18,3.18,0,1,0-3.181-3.181,3.18,3.18,0,0,0,3.181,3.181Z" transform="translate(-48.627 -50.066)"/><path class="w" d="M121.251,77.442a3.18,3.18,0,1,0-3.18-3.18,3.18,3.18,0,0,0,3.18,3.18Z" transform="translate(-58.086 -50.066)"/><path class="w" d="M94.621,81.317A2.224,2.224,0,0,0,92.4,83.534v1.292a2.217,2.217,0,0,0,4.434,0V83.534a2.224,2.224,0,0,0-2.213-2.217Z" transform="translate(-52.598 -52.254)"/><path class="w" d="M109.489,79.816c-1.417-2.693-4.77-3.568-6.146-3.819A48.611,48.611,0,0,0,89.1,76c-1.376.252-4.729,1.127-6.146,3.819a6.3,6.3,0,0,0,.146,5.7c2.749,6.122,9.5,9.881,13.122,9.881s10.374-3.759,13.12-9.883A6.3,6.3,0,0,0,109.489,79.816Zm-2.783,4.519c-2.276,5.072-8.08,8.176-10.484,8.176s-8.207-3.1-10.483-8.176a3.6,3.6,0,0,1-.225-3.173c.675-1.281,2.564-2.04,4.107-2.322a45.9,45.9,0,0,1,13.2,0c1.543.281,3.432,1.04,4.107,2.322a3.6,3.6,0,0,1-.222,3.173Z" transform="translate(-50.446 -51.005)"/><path class="w" d="M104.168,81.317a2.224,2.224,0,0,0-2.217,2.217v1.292a2.217,2.217,0,1,0,4.434,0V83.534A2.224,2.224,0,0,0,104.168,81.317Z" transform="translate(-54.639 -52.254)"/></g><g transform="translate(48.919 12.285)"><path class="x" d="M103.344,47.22a66.7,66.7,0,0,1,6.018-5.4c2.31-7.971-6.859-18.757-9.448-20.653,0,0,5.521,9.253,3.36,11.539,0,0-2.952-9.289-8.958-13.545,0,0,4.873,4.054,4.8,9.114A23.672,23.672,0,0,0,88.587,17.388a16.01,16.01,0,0,1,6.51,8.9s-2.738-5.634-10.306-11.12c0,0,3.386,2.1,6.722,8.215,0,0-6.524-7.406-12.422-8.637,0,0,7.037,3.826,8.542,6.686,0,0-5.216-5.355-15.812-8.792,0,0,14.609,7.372,14.722,12.79A34.859,34.859,0,0,0,64.9,12.285s14.35,5.8,20.36,17.753c0,0-10.573-14.119-22.683-16.529,0,0,12.323,6.065,12.414,12.522,0,0-4.656-8.92-16.8-12.837,0,0,9.547,2.962,14.779,11.162,0,0-10.527-10.89-22.106-11.641,0,0,7.412.206,20.164,11.637a19.112,19.112,0,0,0-13.5-1.794s14.711-.671,18.3,8.965A22.264,22.264,0,0,0,60.862,24.34S69.52,25.83,74.2,33.41c0,0-6.01-2.313-9.231,1.323,0,0,1.758-2.3,7.35-.561,0,0-6.255-1.043-9.363,3.675a10.648,10.648,0,0,1,11.207-1.906s-4.313-1.039-5.451.7c0,0,12.658-7.756,13.044,17.183,0,0,.039,1.956,2.09,4.984,0,0,.281-4.378,3.389-4.76,0,0,1.637.508-.554,3.715,0,0,6.612-3.481,6.606-10.211,0,0,1.406.286.706,3.508,0,0,2.072-.625,2.142-3.952C96.133,47.109,98.684,45.792,103.344,47.22Z" transform="translate(-50.863 -12.285)"/><path class="y" d="M145.509,39.34a4,4,0,0,1,.02,3.528l1.3.186a5.2,5.2,0,0,0-7.253-6.538,5.391,5.391,0,0,0-2.109,7.23,2.563,2.563,0,0,0,1.094,1.143q.684-.119,1.4-.2a13.667,13.667,0,0,1-1.375-1.552,4.475,4.475,0,0,1,1.6-5.5,3.877,3.877,0,0,1,5.313,1.7Z" transform="translate(-69.248 -17.331)"/><path class="z" d="M146.57,38.765s-2.909-3.8-6.726-1.788c-3.3,1.737-2.72,5.541-2.72,5.541s-1.311-4.306,2.729-6.086C144.128,34.55,146.57,38.765,146.57,38.765Z" transform="translate(-69.264 -17.345)"/><path class="aa" d="M145.368,39.367a3.9,3.9,0,0,1,0,3.451l.251.036a4.125,4.125,0,0,0-.034-3.6A3.986,3.986,0,0,0,140.1,37.5a4.181,4.181,0,0,0-1.9,2.7,4.023,4.023,0,0,0,.251,2.972,7.438,7.438,0,0,0,1.079,1.247l.148.15c-.377.048-.752.1-1.119.167h0a2.435,2.435,0,0,1-1-1.069,5.275,5.275,0,0,1,2.06-7.065,4.927,4.927,0,0,1,2.373-.618,4.82,4.82,0,0,1,1.487.236,5.325,5.325,0,0,1,3.015,2.545,5.124,5.124,0,0,1,.2,4.25l.246.035a5.359,5.359,0,0,0-.226-4.4,5.287,5.287,0,0,0-7.212-2.26,5.522,5.522,0,0,0-2.157,7.4,2.8,2.8,0,0,0,1.1,1.17l.068.045.051-.009c.455-.08.922-.148,1.389-.2l.219-.026-.138-.174c-.046-.057-.161-.175-.322-.34a8.08,8.08,0,0,1-1.038-1.189l-.008-.013a3.775,3.775,0,0,1-.222-2.784,3.933,3.933,0,0,1,1.784-2.544,3.744,3.744,0,0,1,5.14,1.644Z" transform="translate(-69.215 -17.299)"/></g><g transform="translate(48.857 53.156)"><path class="ab" d="M103.224,81.283a5.543,5.543,0,0,0-.5-3.7c-1.414-2.69-4.763-3.564-6.137-3.815a48.559,48.559,0,0,0-14.223,0c-1.374.252-4.723,1.125-6.138,3.815a5.543,5.543,0,0,0-.5,3.7l-14.856.889a2.141,2.141,0,0,0-2.193,1.655l-.43,1.235A2.135,2.135,0,0,1,55.9,86.726H53.267a2.479,2.479,0,0,1-2.281-3.452l7.46-17.495a2.148,2.148,0,0,1,2.281-1.507h57.5a2.148,2.148,0,0,1,2.281,1.507l7.46,17.5a2.479,2.479,0,0,1-2.281,3.452h-2.644a2.134,2.134,0,0,1-2.342-1.664l-.43-1.235a2.141,2.141,0,0,0-2.193-1.655Z" transform="translate(-50.785 -64.272)"/><path class="ac" d="M75.794,80.951q-.019-.248-.039-.5-4.607.258-9.215.527-2.235.13-4.469.263c-2.1.125-3.538.511-4.314,2.74-.787,2.256-1.27,1.879-3.334,1.879-.7,0-1.363.2-2.008-.374a1.292,1.292,0,0,1-.441-1.534A46.492,46.492,0,0,1,54.119,78.9l2.2-5.168,2-4.7c.316-.741.993-3.231,2.1-3.569a45,45,0,0,1,4.793-.065H114a45.871,45.871,0,0,1,4.795.064c1.109.337,1.781,2.82,2.1,3.563l2,4.7q1.1,2.586,2.206,5.172a47.2,47.2,0,0,1,2.148,5.062,1.294,1.294,0,0,1-.44,1.535c-.645.572-1.306.374-2.009.374-2.069,0-2.547.376-3.335-1.884-.777-2.23-2.217-2.611-4.316-2.736l-4.468-.263q-4.606-.268-9.213-.526-.019.248-.039.494,4.866.272,9.73.557l4.708.278c2.245.134,2.791,1.51,3.452,3.285s2.9,1.29,4.169,1.29c1.65,0,2.814-1.226,2.124-2.842l-4.171-9.781-1.988-4.662c-.33-.775-1.255-3.543-2.278-4a27.885,27.885,0,0,0-4.822-.175h-49.5c-.6,0-4.193-.107-4.82.179-1.013.462-1.945,3.24-2.274,4.012l-1.988,4.662-4.161,9.76c-.686,1.609.467,2.844,2.115,2.844,1.267,0,3.5.494,4.173-1.278s1.193-3.162,3.444-3.3q2.356-.142,4.712-.278Q70.924,81.222,75.794,80.951Z" transform="translate(-50.918 -64.402)"/><path class="ad" d="M115.067,69.419H69.819a4.549,4.549,0,0,0-4.549,4.548h0a4.549,4.549,0,0,0,4.548,4.548h9.561c1.456-2.584,4.711-3.437,6.062-3.684a48.547,48.547,0,0,1,14.232,0c1.351.247,4.607,1.1,6.062,3.684h9.332a4.547,4.547,0,0,0,4.547-4.548h0a4.547,4.547,0,0,0-4.548-4.548Z" transform="translate(-53.882 -65.373)"/><path class="ae" d="M105.761,78.682l-.293-.494h9.947a4.137,4.137,0,0,0,0-8.273H69.61a4.137,4.137,0,0,0,0,8.273h9.947l-.295.5H69.61a4.632,4.632,0,1,1,0-9.264h45.806a4.632,4.632,0,1,1,0,9.264Z" transform="translate(-53.819 -65.373)"/></g></g><g transform="translate(-43.767 13.407)"><g transform="translate(43.767 54.273)"><path class="af" d="M64.523,129.993l-3.814,2.416-.671-.56c-.321-.268-7.868-6.806-7.868-28.3a47.825,47.825,0,0,1,2.26-14.58c-2.928-3.084-3.681-5.859-4.621-9.323-.251-.923-.51-1.879-.831-2.922a56.432,56.432,0,0,0-2.147-5.806L46.283,69.7l1.27-.414a22.018,22.018,0,0,1,6.824-1.126,20.013,20.013,0,0,1,13.579,5.358,45.267,45.267,0,0,1,29.371,0,20.014,20.014,0,0,1,13.573-5.36,22.022,22.022,0,0,1,6.825,1.126L119,69.7l-.548,1.219a56.616,56.616,0,0,0-2.147,5.806c-.321,1.043-.581,2-.831,2.922-.94,3.464-1.693,6.239-4.621,9.323a47.856,47.856,0,0,1,2.26,14.58c0,21.5-7.547,28.033-7.868,28.3l-.671.56-3.814-2.416-3.375,2.567-.738-.84a18.537,18.537,0,0,1-3.083-4.983,46.732,46.732,0,0,1-21.842,0,18.563,18.563,0,0,1-3.083,4.984l-.738.84Z" transform="translate(-44.64 -66.958)"/><path class="ag" d="M96.473,113.035c2.628,0,7.772-2.981,9.8-7.5s-2.356-5.914-4.1-6.232a39.26,39.26,0,0,0-11.391,0c-1.746.319-6.121,1.731-4.1,6.232S93.846,113.035,96.473,113.035Z" transform="translate(-58.473 -77.621)"/><path class="ah" d="M87.679,86.827a40.327,40.327,0,0,0-11.822,0c-1.142.208-3.926.935-5.1,3.171a5.228,5.228,0,0,0,.121,4.733c2.281,5.083,7.881,8.2,10.892,8.2s8.611-3.122,10.891-8.2A5.23,5.23,0,0,0,92.781,90C91.6,87.761,88.821,87.035,87.679,86.827Zm2.791,6.922c-1.889,4.21-6.708,6.787-8.7,6.787s-6.814-2.577-8.7-6.787a2.991,2.991,0,0,1-.187-2.634c.56-1.064,2.128-1.693,3.409-1.927a38.141,38.141,0,0,1,10.96,0c1.281.234,2.849.863,3.409,1.927a2.993,2.993,0,0,1-.191,2.634Zm26.757-26.243a23.219,23.219,0,0,0-7.2-1.185,21.293,21.293,0,0,0-13.855,5.194,46.582,46.582,0,0,0-28.817,0A21.3,21.3,0,0,0,53.5,66.321a23.219,23.219,0,0,0-7.2,1.185l-2.541.829,1.1,2.438a55.281,55.281,0,0,1,2.094,5.667c.315,1.024.572,1.969.82,2.883.9,3.3,1.683,6.2,4.428,9.31a49.064,49.064,0,0,0-2.1,14.278c0,9.121,1.321,16.726,3.924,22.6,2.028,4.578,4.142,6.423,4.376,6.618l1.343,1.12,1.478-.936,2.371-1.5L65.41,132.2l1.78,1.353,1.475-1.68a20.64,20.64,0,0,0,2.9-4.381,47.891,47.891,0,0,0,20.412,0,20.619,20.619,0,0,0,2.9,4.381l1.475,1.68,1.78-1.353,1.822-1.385,2.371,1.5,1.477.936,1.343-1.12c.234-.2,2.348-2.04,4.376-6.618,2.6-5.878,3.924-13.483,3.924-22.6a49.053,49.053,0,0,0-2.109-14.279c2.746-3.107,3.532-6.007,4.429-9.311.248-.914.5-1.859.82-2.883a55.254,55.254,0,0,1,2.094-5.668l1.095-2.437Zm-4.09,7.874c-.333,1.081-.6,2.057-.854,3-.8,2.935-1.383,5.078-3.21,7.343a39.7,39.7,0,0,0-4.225-8.193,12.493,12.493,0,0,1,5.4-4.253L109.232,71.1c-5.622,2.647-6.87,5.979-6.921,6.121l-.221.621.4.52a43.075,43.075,0,0,1,7.346,24.545c0,16.713-4.749,23.842-6.427,25.839l-3.651-2.314-2.93,2.228a11.608,11.608,0,0,1-1.921-3.163c1.012-.3,2.019-.615,3.016-.98l-.825-2.253a44.475,44.475,0,0,1-30.665,0l-.825,2.253c1,.365,2,.684,3.015.98A11.582,11.582,0,0,1,66.7,128.66l-2.93-2.228-3.66,2.318c-1.684-1.968-6.418-9-6.418-25.843a43.079,43.079,0,0,1,7.344-24.544l.407-.521-.223-.622c-.05-.141-1.3-3.474-6.921-6.121L53.279,73.27a12.511,12.511,0,0,1,5.4,4.252,39.719,39.719,0,0,0-4.226,8.195c-1.827-2.265-2.413-4.408-3.209-7.343-.256-.943-.52-1.918-.854-3-.616-2-1.273-3.724-1.718-4.821a17.472,17.472,0,0,1,17.191,4.5l.546.616.772-.288a42.771,42.771,0,0,1,29.158,0l.77.285.546-.611a17.477,17.477,0,0,1,17.193-4.506c-.437,1.107-1.094,2.83-1.71,4.831ZM80.494,92.046v1.072a1.841,1.841,0,0,1-3.681,0V92.046a1.841,1.841,0,0,1,3.681,0ZM69.973,86.165a2.64,2.64,0,1,1-2.64-2.64,2.64,2.64,0,0,1,2.64,2.64Zm16.751,5.881v1.072a1.84,1.84,0,1,1-3.681,0V92.046a1.84,1.84,0,0,1,3.681,0Zm12.12-5.881a2.64,2.64,0,1,1-2.64-2.64,2.64,2.64,0,0,1,2.64,2.64Z" transform="translate(-43.767 -66.321)"/></g><g transform="translate(86.687 64.182)"><circle class="ai" cx="6.664" cy="6.664" r="6.664" transform="matrix(0.621, -0.784, 0.784, 0.621, 0, 10.446)"/><path d="M122.672,85.207a7.891,7.891,0,1,0,1.857,11A7.891,7.891,0,0,0,122.672,85.207ZM123.53,95.5a6.664,6.664,0,1,1-1.569-9.292A6.664,6.664,0,0,1,123.53,95.5Z" transform="translate(-108.737 -82.275)"/><g transform="translate(2.742 2.697)"><g transform="translate(15.35 8.927)"><path class="aj" d="M139.755,99.419h.364a24.053,24.053,0,0,0-.189,2.862,22.167,22.167,0,0,0,.128,2.481c.08.739.2,1.474.334,2.2.125.664.267,1.324.419,1.982.251,1.1.528,2.182.775,3.278.093.415.182.831.244,1.252.029.191.052.382.066.574a3.731,3.731,0,0,1-.019.84,1.982,1.982,0,0,1-.209.647,1.641,1.641,0,0,1-.384.464,1.829,1.829,0,0,1-.437.268,2.381,2.381,0,0,1-.575.168,3.385,3.385,0,0,1-1.32-.063,4.257,4.257,0,0,1-1.393-.594,3.822,3.822,0,0,1-.624-.514,3.344,3.344,0,0,1-.357-.429,3.56,3.56,0,0,1-.417-.81,5.447,5.447,0,0,1-.261-1.069,11.446,11.446,0,0,1-.111-1.418c-.011-.474,0-.949.014-1.423.032-.82.1-1.639.178-2.456.114-1.161.258-2.318.413-3.474.215-1.593.453-3.182.7-4.771h.372a80.811,80.811,0,0,0-1.316,11.749c.008,2.019.312,2.981.879,3.66a3.76,3.76,0,0,0,2.143,1.221,2.313,2.313,0,0,0,1.836-.3c.433-.329.641-.874.472-2.1s-.714-3.13-1.221-5.479a24.456,24.456,0,0,1-.5-8.746Z" transform="translate(-135.703 -99.337)"/><path class="aj" d="M139.748,116.517a3.834,3.834,0,0,1-.859-.1,4.355,4.355,0,0,1-1.42-.606,3.987,3.987,0,0,1-.636-.524,3.422,3.422,0,0,1-.366-.44,3.674,3.674,0,0,1-.426-.828,5.553,5.553,0,0,1-.265-1.085,11.339,11.339,0,0,1-.111-1.429c-.01-.432-.006-.9.014-1.428.028-.724.085-1.506.179-2.461.1-1.024.232-2.129.413-3.476.19-1.407.413-2.923.7-4.773l.01-.069h.538l-.015.094a83.833,83.833,0,0,0-1.315,11.736c.008,1.84.257,2.885.86,3.609a3.647,3.647,0,0,0,2.1,1.193,2.252,2.252,0,0,0,1.77-.283c.323-.245.627-.676.44-2.023-.1-.724-.336-1.705-.609-2.842-.189-.785-.4-1.675-.61-2.631a24.593,24.593,0,0,1-.507-8.78l.008-.071h.53l-.012.091a24.24,24.24,0,0,0-.189,2.853,22.244,22.244,0,0,0,.129,2.472c.074.682.182,1.4.332,2.2.116.616.253,1.263.418,1.979.114.5.234.992.353,1.486.141.586.287,1.193.422,1.792.085.377.18.818.246,1.257.03.21.052.4.066.581a3.765,3.765,0,0,1-.02.859,2.047,2.047,0,0,1-.219.673,1.72,1.72,0,0,1-.4.487,1.945,1.945,0,0,1-.456.281,2.491,2.491,0,0,1-.6.174A3.042,3.042,0,0,1,139.748,116.517Zm-2.625-17.059c-.283,1.817-.5,3.312-.69,4.7-.181,1.345-.312,2.448-.413,3.47-.093.952-.15,1.731-.178,2.452-.02.525-.024.989-.014,1.418a10.885,10.885,0,0,0,.11,1.408,5.389,5.389,0,0,0,.256,1.053,3.5,3.5,0,0,0,.407.792,3.333,3.333,0,0,0,.348.419,3.765,3.765,0,0,0,.611.5,4.175,4.175,0,0,0,1.367.583,3.329,3.329,0,0,0,1.288.061,2.3,2.3,0,0,0,.556-.163,1.757,1.757,0,0,0,.417-.257,1.544,1.544,0,0,0,.364-.44,1.885,1.885,0,0,0,.2-.62,3.6,3.6,0,0,0,.018-.822c-.013-.178-.035-.364-.065-.569-.065-.434-.16-.871-.244-1.246-.135-.6-.28-1.2-.421-1.789-.12-.5-.239-.991-.353-1.488-.165-.718-.3-1.368-.419-1.985-.151-.8-.26-1.524-.334-2.211a22.241,22.241,0,0,1-.13-2.489,24.155,24.155,0,0,1,.18-2.78h-.2a24.476,24.476,0,0,0,.514,8.654c.206.954.421,1.843.609,2.627.275,1.141.512,2.126.613,2.858.157,1.138.007,1.788-.5,2.175a2.372,2.372,0,0,1-1.9.314,3.814,3.814,0,0,1-2.19-1.249c-.63-.756-.89-1.831-.9-3.713a83.285,83.285,0,0,1,1.3-11.667Z" transform="translate(-135.66 -99.294)"/></g><path d="M133.512,96.4a7.82,7.82,0,0,0-.385-5.675s11.73-.06,11.848,0c-.5,1.5-2.546,5.515-3.242,5.675C141.77,96.423,133.512,96.4,133.512,96.4Z" transform="translate(-119.431 -87.395)"/><path class="ai" d="M125.387,91.527a6.66,6.66,0,0,0-13.232,0Z" transform="translate(-112.155 -85.624)"/></g></g><g transform="translate(55.276 31.594)"><path class="ak" d="M99.146,67.01a34.809,34.809,0,0,1,6.512.188,11.254,11.254,0,0,1,2.7.65,10.068,10.068,0,0,1,2.423,1.28c2.485,2.376.182,4.419-2.208,5.623a28.1,28.1,0,0,1-7.088,2.267A72.265,72.265,0,0,1,86.647,78.4a72.433,72.433,0,0,1-14.835-1.376,28.428,28.428,0,0,1-7.092-2.258c-2.358-1.178-4.756-3.226-2.3-5.607a10.025,10.025,0,0,1,2.46-1.307,11.247,11.247,0,0,1,2.7-.65,34.808,34.808,0,0,1,6.512-.188L86.62,73.262Z" transform="translate(-61.389 -43.864)"/><path class="al" d="M77.309,34.938l29.668.015q-.612,13.171-1.226,26.342a43.763,43.763,0,0,1-27.215,0Z" transform="translate(-66.912 -32.754)"/><path class="ak" d="M106.978,33.778c0,1.236-6.543,1.814-7.2,1.872-2.544.225-5.085.312-7.638.312s-5.094-.087-7.638-.312c-.654-.057-7.2-.636-7.2-1.872s6.543-1.814,7.2-1.872c2.544-.225,5.085-.312,7.638-.312s5.093.087,7.638.312C100.434,31.964,106.978,32.542,106.978,33.778Z" transform="translate(-66.912 -31.594)"/><path class="am" d="M78.873,68.548a44.42,44.42,0,0,0,27.625,0l-.106,2.28-.054,1.14-.026.57-.014.285c0,.018.016.126-.015.136L106.15,73a43.746,43.746,0,0,1-26.93,0l-.133-.043c-.031-.01-.014-.119-.014-.136l-.014-.285-.026-.57-.054-1.14-.106-2.279" transform="translate(-67.455 -44.415)"/></g></g></g></svg>