<svg xmlns="http://www.w3.org/2000/svg" viewBox="0 0 56.27 56.27"><defs><style>.cls-1{fill:#1eea00;}.cls-2{fill:#fff;}.cls-3{fill:#004b40;}</style></defs><title>recarga_icon</title><g id="Layer_2" data-name="Layer 2"><g id="Layer_1-2" data-name="Layer 1"><circle class="cls-1" cx="28.13" cy="28.13" r="28.13"/><circle class="cls-2" cx="28.13" cy="28.13" r="24.57"/><path class="cls-1" d="M30.32,36.68c0,.87-.67,1.42-1.62,1.54v1.07H28V38.22a3.51,3.51,0,0,1-1.88-.82l.42-.86a3,3,0,0,0,1.83.78c.56,0,.9-.21.9-.58,0-1.1-2.83-.47-2.83-2.35,0-.81.61-1.36,1.56-1.48v-1h.75v1a3.62,3.62,0,0,1,1.57.54l-.41.87a3.44,3.44,0,0,0-1.58-.51c-.48,0-.78.18-.78.5C27.5,35.37,30.33,34.79,30.32,36.68Z"/><path class="cls-3" d="M32.05,25v-.74A1.92,1.92,0,0,0,34,22.32V19.75a.64.64,0,0,0-.64-.64H23.06a.64.64,0,0,0-.64.64v2.57a1.92,1.92,0,0,0,1.92,1.92V25a8.4,8.4,0,0,0-7.06,8.25v5.13a8.36,8.36,0,0,0,8.35,8.35h5.13a8.36,8.36,0,0,0,8.35-8.35V33.23A8.4,8.4,0,0,0,32.05,25ZM23.7,22.32V20.39h9v1.93a.64.64,0,0,1-.64.64H24.34A.64.64,0,0,1,23.7,22.32Zm14.12,16a7.06,7.06,0,0,1-7.06,7.06H25.63a7.06,7.06,0,0,1-7.06-7.06V33.23a7.09,7.09,0,0,1,6.47-7,.65.65,0,0,0,.59-.64V24.24h5.13v1.31a.64.64,0,0,0,.59.64,7.09,7.09,0,0,1,6.47,7Z"/><path class="cls-3" d="M28.2,28.73a7.07,7.07,0,1,0,7.06,7.07A7.07,7.07,0,0,0,28.2,28.73Zm0,12.84A5.78,5.78,0,1,1,34,35.8,5.77,5.77,0,0,1,28.2,41.57Z"/><rect class="cls-1" x="26.65" y="6.88" width="3.08" height="5.09" transform="translate(56.39 18.85) rotate(180)"/><polygon class="cls-1" points="28.2 20.1 32.73 11.97 23.66 11.97 28.2 20.1"/></g></g></svg>