<svg xmlns="http://www.w3.org/2000/svg" xmlns:xlink="http://www.w3.org/1999/xlink" width="150" height="150" viewBox="0 0 150 150"><defs><style>.a{fill:none;}.b{clip-path:url(#a);}.c{fill:#1eea00;}.d{fill:#fff;}.e{fill:#004b40;}</style><clipPath id="a"><rect class="a" width="150" height="150"/></clipPath></defs><g class="b"><circle class="c" cx="75" cy="75" r="75"/><circle class="d" cx="65.493" cy="65.493" r="65.493" transform="translate(9.506 9.507)"/><g transform="translate(39.657 42.731)"><path class="e" d="M4975.912,1397.449h-61.461a4.611,4.611,0,0,0-4.612,4.61v55.317a4.611,4.611,0,0,0,4.612,4.609h61.461a4.608,4.608,0,0,0,4.61-4.609v-55.317a4.608,4.608,0,0,0-4.61-4.61Zm1.537,59.927a1.536,1.536,0,0,1-1.537,1.535h-61.461a1.536,1.536,0,0,1-1.539-1.535v-4.891a4.555,4.555,0,0,0,1.539.281h61.461a4.55,4.55,0,0,0,1.537-.281Zm0-9.22a1.537,1.537,0,0,1-1.537,1.536h-61.461a1.536,1.536,0,0,1-1.539-1.536v-4.893a4.523,4.523,0,0,0,1.539.284h61.461a4.523,4.523,0,0,0,1.537-.284Zm0-9.219a1.536,1.536,0,0,1-1.537,1.536h-61.461a1.535,1.535,0,0,1-1.539-1.536v-4.893a4.576,4.576,0,0,0,1.539.284h61.461a4.517,4.517,0,0,0,1.537-.284Zm0-9.219a1.538,1.538,0,0,1-1.537,1.535h-61.461a1.537,1.537,0,0,1-1.539-1.535v-27.66a1.537,1.537,0,0,1,1.54-1.536h61.46a1.538,1.538,0,0,1,1.537,1.536Zm0,0" transform="translate(-4909.838 -1397.449)"/><path class="e" d="M4933.293,1399.511a13.83,13.83,0,1,0,13.828,13.829,13.831,13.831,0,0,0-13.828-13.829Zm0,24.586a10.756,10.756,0,1,1,10.754-10.756,10.756,10.756,0,0,1-10.754,10.756Zm0,0" transform="translate(-4897.949 -1394.902)"/><path class="e" d="M4947.089,1406.406a10.824,10.824,0,0,1-5.932-5.933,1.538,1.538,0,0,0-1.424-.961h-8.587v3.073h7.594a13.94,13.94,0,0,0,6.237,6.235v9.042a13.939,13.939,0,0,0-6.236,6.235h-7.595v3.074h8.587a1.538,1.538,0,0,0,1.424-.961,10.826,10.826,0,0,1,5.932-5.933,1.537,1.537,0,0,0,.96-1.424V1407.83A1.534,1.534,0,0,0,4947.089,1406.406Zm0,0" transform="translate(-4883.511 -1394.902)"/><path class="e" d="M4921.9,1402.585h7.592v-3.073h-8.585a1.534,1.534,0,0,0-1.424.961,10.815,10.815,0,0,1-5.934,5.933,1.535,1.535,0,0,0-.959,1.424v11.023a1.538,1.538,0,0,0,.959,1.424,10.814,10.814,0,0,1,5.934,5.933,1.534,1.534,0,0,0,1.424.961h8.585V1424.1H4921.9a13.95,13.95,0,0,0-6.238-6.235v-9.042a13.954,13.954,0,0,0,6.238-6.235Zm0,0" transform="translate(-4906.44 -1394.902)"/><g transform="translate(30.083 9.874)"><path class="c" d="M4933.488,1413.379c0,2.079-1.609,3.4-3.885,3.688v2.585h-1.789v-2.567a8.34,8.34,0,0,1-4.519-1.99l1.012-2.041a7.129,7.129,0,0,0,4.373,1.863c1.355,0,2.169-.508,2.169-1.393,0-2.638-6.8-1.138-6.8-5.639,0-1.936,1.464-3.273,3.761-3.561v-2.441l1.789-.017v2.441a8.6,8.6,0,0,1,3.759,1.3l-.978,2.1a8.072,8.072,0,0,0-3.792-1.229c-1.141,0-1.878.415-1.878,1.194C4926.712,1410.235,4933.507,1408.843,4933.488,1413.379Z" transform="translate(-4923.294 -1401.866)"/></g></g></g></svg>