<svg xmlns="http://www.w3.org/2000/svg" xmlns:xlink="http://www.w3.org/1999/xlink" width="150" height="150" viewBox="0 0 150 150"><defs><style>.a{fill:none;}.b{clip-path:url(#a);}.c{fill:#1eea00;}.d{fill:#fff;}.e{fill:#004b40;}</style><clipPath id="a"><rect class="a" width="150" height="150"/></clipPath></defs><g class="b"><circle class="c" cx="75" cy="75" r="75"/><circle class="d" cx="65.731" cy="65.731" r="65.731" transform="translate(9.268 9.269)"/><g transform="translate(41.177 40.949)"><g transform="translate(27.222 7.279)"><path class="c" d="M4934.609,1564.555c0,2.432-1.883,3.976-4.545,4.315v3.024h-2.094v-3a9.779,9.779,0,0,1-5.288-2.328l1.184-2.39a8.323,8.323,0,0,0,5.117,2.179c1.587,0,2.541-.592,2.541-1.629,0-3.086-7.952-1.331-7.952-6.6,0-2.264,1.711-3.828,4.4-4.167V1551.1l2.094-.022v2.855a10.1,10.1,0,0,1,4.4,1.523l-1.144,2.454a9.465,9.465,0,0,0-4.438-1.44c-1.333,0-2.2.488-2.2,1.4C4926.68,1560.876,4934.631,1559.247,4934.609,1564.555Z" transform="translate(-4922.683 -1551.084)"/></g><path class="e" d="M4977.6,1565.679a8.534,8.534,0,0,0-12.045,0l-8.992,8.993a4.712,4.712,0,0,0-.435-.372,5.069,5.069,0,0,0-3.108-1.064h-9.225a8.487,8.487,0,0,0-7.8-5.107h-6.808a8.511,8.511,0,0,0-5.109,1.7v-1.7a1.7,1.7,0,0,0-1.7-1.7h-10.214a1.7,1.7,0,0,0-1.7,1.7v27.24a1.7,1.7,0,0,0,1.7,1.7h10.214a1.7,1.7,0,0,0,1.7-1.7v-1.7h27.243a1.706,1.706,0,0,0,1.2-.5l25.081-25.079a1.706,1.706,0,0,0,0-2.408Zm-56.93,27.988h-6.811v-23.836h6.811Zm29.941-3.4h-26.538v-13.621a4.368,4.368,0,0,1,.157-1.213.154.154,0,0,1,.012-.071,5.086,5.086,0,0,1,4.94-3.823h6.808a5.089,5.089,0,0,1,4.942,3.823,1.7,1.7,0,0,0,1.648,1.285h10.438a1.709,1.709,0,0,1,1.044.369,1.616,1.616,0,0,1,.575.842c0,.018.013.033.02.053h0a1.407,1.407,0,0,1,.063.439,1.674,1.674,0,0,1-.522,1.215,1.631,1.631,0,0,1-1.179.487h-18.73v3.4h18.73a5.134,5.134,0,0,0,5.107-5.108c0-.131-.021-.258-.032-.387l9.876-9.867a5.122,5.122,0,0,1,5.82-1Z" transform="translate(-4910.449 -1528.97)"/><rect class="e" width="3.405" height="3.405" transform="translate(5.107 44.266)"/><path class="e" d="M4936.062,1585.27a18.728,18.728,0,1,0-18.728-18.728,18.728,18.728,0,0,0,18.728,18.728Zm0-34.052a15.323,15.323,0,1,1-15.318,15.322,15.323,15.323,0,0,1,15.318-15.322Z" transform="translate(-4902.014 -1547.813)"/><rect class="e" width="3.405" height="3.405" transform="translate(42.563 17.025)"/><rect class="e" width="3.405" height="3.405" transform="translate(22.133 17.025)"/></g></g></svg>