<svg xmlns="http://www.w3.org/2000/svg" xmlns:xlink="http://www.w3.org/1999/xlink" width="74.329" height="74.329" viewBox="0 0 74.329 74.329"><defs><style>.a{fill:none;}.b{clip-path:url(#a);}.c{fill:#004b40;}.d{fill:#231f20;opacity:0.1;}.e{fill:#fbb040;}.f{fill:#f78c00;}.g{opacity:0.24;}.h{fill:#f2f2f2;}.i{fill:#070707;}.j{filter:url(#b);}</style><clipPath id="a"><rect class="a" width="74.329" height="74.329"/></clipPath><filter id="b" x="0" y="0" width="74.328" height="74.328" filterUnits="userSpaceOnUse"><feOffset dy="3" input="SourceAlpha"/><feGaussianBlur stdDeviation="5" result="c"/><feFlood flood-opacity="0.161"/><feComposite operator="in" in2="c"/><feComposite in="SourceGraphic"/></filter></defs><g class="b"><g class="j" transform="matrix(1, 0, 0, 1, 0, 0)"><circle class="c" cx="22.164" cy="22.164" r="22.164" transform="translate(15 12)"/></g><g transform="translate(29.044 21.248)"><path class="d" d="M2499.012,3272.9a6.384,6.384,0,0,1-1.862-1.041v13.364a6.4,6.4,0,0,0,1.862,1.041Z" transform="translate(-2496.164 -3270.378)"/><path class="e" d="M2497.079,3296.479h-.165a.865.865,0,0,1-.876-.877v-24.537a.864.864,0,0,1,.876-.876h.165a.864.864,0,0,1,.876.876V3295.6a.865.865,0,0,1-.876.879Z" transform="translate(-2496.038 -3270.189)"/><path class="f" d="M2497.024,3270.189h-.11a.864.864,0,0,0-.876.876V3295.6a.865.865,0,0,0,.876.877h.11Z" transform="translate(-2496.038 -3270.189)"/></g><path class="g" d="M2517.181,3275.2v10.023a7.426,7.426,0,0,0-2.907-1.344c-5.245-1.023-10.964,1.853-16.208-.582-.157-.07.159,2.635,0,2.549v9.948a.876.876,0,0,1-.876.877h-.165l8.74,8.74a22.165,22.165,0,0,0,20.669-22.113,22.536,22.536,0,0,0-.119-2.3l-9.135-9.134Z" transform="translate(-2467.106 -3249.131)"/><g transform="translate(30.961 22.726)"><rect class="h" width="19.216" height="12.811"/><rect class="i" width="3.203" height="3.203"/><rect class="i" width="3.203" height="3.203" transform="translate(0 6.405)"/><rect class="i" width="3.203" height="3.203" transform="translate(3.203 3.203)"/><rect class="i" width="3.203" height="3.203" transform="translate(3.203 9.608)"/><rect class="i" width="3.203" height="3.203" transform="translate(6.406)"/><rect class="i" width="3.203" height="3.203" transform="translate(6.406 6.405)"/><rect class="i" width="3.203" height="3.203" transform="translate(9.608 3.203)"/><rect class="i" width="3.203" height="3.203" transform="translate(9.608 9.608)"/><rect class="i" width="3.203" height="3.203" transform="translate(12.811)"/><rect class="i" width="3.203" height="3.203" transform="translate(12.811 6.405)"/><rect class="i" width="3.203" height="3.203" transform="translate(16.014 3.203)"/><rect class="i" width="3.203" height="3.203" transform="translate(16.014 9.608)"/></g></g></svg>