<svg xmlns="http://www.w3.org/2000/svg" width="52.26" height="24.22" viewBox="0 0 52.26 24.22"><defs><style>.a{fill:#004b40;}.b{fill:#1eea00;}</style></defs><circle class="a" cx="12.11" cy="12.11" r="12.11" transform="translate(0 0)"/><path class="b" d="M18.15,16.92H14.07V21H10.92V16.9H6.82V13.77h4.1V9.68h3.15v4.09h4.08Z" transform="translate(-0.37 -3.23)"/><path class="b" d="M24.55,6.59l2.9,4.57,2.93-4.57H36.5L30.78,15,37,24.11H30.78l-3.33-5-3.27,5H18.1l6.2-8.92-5.8-8.6Z" transform="translate(-0.37 -3.23)"/><path class="b" d="M52.63,12.81c0,4.18-2.59,6.58-7.12,6.58H42.76v4.72h-5.2V6.59h7.95C50,6.59,52.63,8.84,52.63,12.81ZM47.71,13a2.19,2.19,0,0,0-2.45-2.37h-2.5v4.8h2.5A2.21,2.21,0,0,0,47.71,13Z" transform="translate(-0.37 -3.23)"/></svg>