<svg xmlns="http://www.w3.org/2000/svg" width="222.077" height="50.012" viewBox="0 0 222.077 50.012"><defs><style>.a{fill:#004b40;}</style></defs><g transform="translate(-77.542 -362.123)"><path class="a" d="M284.06,408H267.384L254,387h.067v21h-14V368h14v14H254l13.061-14H283.4l-15.771,15.434Z"/><path class="a" d="M287.277,368.294a5.92,5.92,0,0,1,.489-2.4,6.269,6.269,0,0,1,3.285-3.285,6.119,6.119,0,0,1,4.794,0,6.272,6.272,0,0,1,3.284,3.285,6.108,6.108,0,0,1,0,4.794,6.275,6.275,0,0,1-3.284,3.284,6.108,6.108,0,0,1-4.794,0,6.272,6.272,0,0,1-3.285-3.284A5.924,5.924,0,0,1,287.277,368.294Zm1.692,0a4.766,4.766,0,0,0,.348,1.816,4.578,4.578,0,0,0,.962,1.485,4.73,4.73,0,0,0,1.427,1,4.252,4.252,0,0,0,3.483,0,4.73,4.73,0,0,0,1.427-1,4.578,4.578,0,0,0,.962-1.485,4.9,4.9,0,0,0,0-3.633,4.583,4.583,0,0,0-.962-1.484,4.73,4.73,0,0,0-1.427-1,4.252,4.252,0,0,0-3.483,0,4.73,4.73,0,0,0-1.427,1,4.584,4.584,0,0,0-.962,1.484A4.775,4.775,0,0,0,288.969,368.294ZM291.063,365h2.3c.176,0,.42.008.73.03a2.7,2.7,0,0,1,.912.23,2.043,2.043,0,0,1,.78.621,1.91,1.91,0,0,1,.331,1.2,2.187,2.187,0,0,1-.132.821,1.6,1.6,0,0,1-.34.531,1.414,1.414,0,0,1-.481.315c-.183.072-.368.388-.556.41l1.659,2.84h-1.742l-1.476-3h.013v3h-2Zm1.688,2.68h.68a3.162,3.162,0,0,0,.324-.017,1.009,1.009,0,0,0,.323-.082.608.608,0,0,0,.249-.208.816.816,0,0,0,0-.779.608.608,0,0,0-.249-.208,1.038,1.038,0,0,0-.323-.083c-.117-.011-.224-.016-.324-.016h-.68Z"/><path class="a" d="M218.063,408V386.58c0-4.518-1.079-8.625-5.925-8.625-4.766,0-7.075,4.107-7.075,8.789V408h-13V368h12.2l.163,3.78c2.069-2.407,6.794-4.918,12.462-4.918,11.008,0,15.173,8.546,15.173,16.76V408Z"/><path class="a" d="M170.063,407.193V369.746l12-4.942v47.331Z"/><path class="a" d="M140.574,410.237c-12.32,0-22.67-8.543-22.67-21.932s10.35-21.6,22.67-21.6c12.4,0,22.755,8.213,22.755,21.6S152.978,410.237,140.574,410.237Zm0-32.364c-6.323,0-9.609,5.175-9.609,10.432s3.367,10.6,9.693,10.6,9.692-5.339,9.692-10.6S146.9,377.873,140.574,377.873Z"/><path class="a" d="M107.294,395.421a10.6,10.6,0,1,1,0-13.9l7.394-8.453a21.768,21.768,0,1,0,0,30.81Z"/></g></svg>