<svg xmlns="http://www.w3.org/2000/svg" xmlns:xlink="http://www.w3.org/1999/xlink" width="147.759" height="144.495" viewBox="0 0 147.759 144.495"><defs><style>.a{fill:#fbb040;}.b{fill:#004b40;}.c{fill:url(#a);}.d{fill:#afff6a;}</style><linearGradient id="a" x1="0.5" y1="0.328" x2="0.5" y2="0.942" gradientUnits="objectBoundingBox"><stop offset="0.279" stop-color="#1eeb00"/><stop offset="0.506" stop-color="#1ee700"/><stop offset="0.729" stop-color="#1edb00"/><stop offset="0.95" stop-color="#1ec700"/><stop offset="1" stop-color="#1ec200"/></linearGradient></defs><ellipse class="a" cx="13.408" cy="13.408" rx="13.408" ry="13.408" transform="translate(60.474 2.333)"/><path class="b" d="M624.381,96.265a15.74,15.74,0,1,1,15.74-15.739A15.757,15.757,0,0,1,624.381,96.265Zm0-26.815a11.075,11.075,0,1,0,11.075,11.076A11.088,11.088,0,0,0,624.381,69.45Z" transform="translate(-550.499 -64.785)"/><path class="c" d="M590.809,200.634l-7.415,4.7-1.306-1.089c-.625-.521-15.3-13.232-15.3-55.022a93.017,93.017,0,0,1,4.393-28.347c-5.693-6-7.157-11.391-8.985-18.126-.487-1.8-.991-3.653-1.615-5.681a109.4,109.4,0,0,0-4.174-11.289l-1.065-2.368,2.469-.805a42.808,42.808,0,0,1,13.268-2.189,38.908,38.908,0,0,1,26.4,10.416,88.006,88.006,0,0,1,57.1,0,38.915,38.915,0,0,1,26.4-10.416A42.808,42.808,0,0,1,694.251,82.6l2.469.805-1.065,2.368a109.761,109.761,0,0,0-4.173,11.289c-.625,2.028-1.129,3.885-1.616,5.681-1.828,6.734-3.292,12.131-8.985,18.126a93.008,93.008,0,0,1,4.393,28.347c0,41.79-14.671,54.5-15.3,55.022l-1.306,1.089-7.415-4.7-6.562,4.99-1.434-1.633a36.054,36.054,0,0,1-5.994-9.688,90.845,90.845,0,0,1-42.465,0,36.053,36.053,0,0,1-6,9.689l-1.434,1.633Z" transform="translate(-552.151 -64.301)"/><path class="d" d="M624.511,145.762c5.108,0,15.109-5.8,19.047-14.574,3.926-8.752-4.581-11.5-7.975-12.117a76.254,76.254,0,0,0-22.147,0c-3.393.62-11.9,3.365-7.973,12.117C609.4,139.966,619.4,145.762,624.511,145.762Z" transform="translate(-550.629 -63.128)"/><path class="b" d="M637.621,118.019a78.443,78.443,0,0,0-22.985,0c-2.221.405-7.632,1.818-9.919,6.164-1.394,2.651-1.314,5.747.236,9.2,4.433,9.883,15.321,15.953,21.175,15.953s16.741-6.069,21.176-15.953c1.55-3.455,1.63-6.551.235-9.2C645.253,119.837,639.842,118.425,637.621,118.019Zm5.426,13.457c-3.672,8.186-13.041,13.2-16.919,13.2s-13.247-5.01-16.92-13.2c-.933-2.081-1.056-3.8-.363-5.121,1.089-2.069,4.137-3.292,6.628-3.747a74.077,74.077,0,0,1,21.308,0c2.49.455,5.54,1.677,6.627,3.747C644.1,127.673,643.982,129.4,643.048,131.476Zm52.023-51.02a45.137,45.137,0,0,0-13.992-2.3,41.4,41.4,0,0,0-26.937,10.1,90.561,90.561,0,0,0-56.026,0,41.4,41.4,0,0,0-26.937-10.1,45.14,45.14,0,0,0-13.992,2.3l-4.941,1.61,2.133,4.739a107.534,107.534,0,0,1,4.071,11.017c.613,1.991,1.112,3.829,1.594,5.606,1.743,6.423,3.274,12.061,8.61,18.1a95.415,95.415,0,0,0-4.1,27.761c0,17.732,2.566,32.519,7.628,43.946,3.941,8.9,8.051,12.488,8.506,12.868l2.612,2.177,2.872-1.82,4.609-2.92,3.543,2.693,3.46,2.63,2.868-3.265a40.122,40.122,0,0,0,5.634-8.518,93.08,93.08,0,0,0,39.683,0A40.128,40.128,0,0,0,651.6,205.6l2.869,3.265,3.46-2.63,3.541-2.693,4.609,2.92,2.872,1.82,2.612-2.177c.455-.379,4.564-3.967,8.507-12.868,5.061-11.428,7.628-26.214,7.628-43.946a95.379,95.379,0,0,0-4.1-27.761c5.338-6.041,6.867-11.679,8.61-18.1.482-1.777.981-3.615,1.594-5.606A107.391,107.391,0,0,1,697.879,86.8l2.127-4.736Zm-7.952,15.307c-.648,2.1-1.162,4-1.66,5.832-1.547,5.706-2.687,9.872-6.238,14.276a77.206,77.206,0,0,0-8.215-15.929c1.073-1.683,3.934-5.177,10.506-8.27l-1.987-4.222c-10.93,5.146-13.357,11.625-13.455,11.9l-.431,1.208.786,1.011c.143.185,14.281,18.727,14.281,47.721,0,32.494-9.233,46.355-12.495,50.235l-7.1-4.5-5.7,4.331a22.554,22.554,0,0,1-3.734-6.15c1.968-.575,3.926-1.2,5.862-1.906l-1.605-4.38a86.476,86.476,0,0,1-59.619,0l-1.6,4.38c1.936.71,3.9,1.331,5.862,1.906a22.554,22.554,0,0,1-3.733,6.15l-5.7-4.331-7.115,4.507c-3.276-3.828-12.479-17.5-12.479-50.244,0-28.994,14.138-47.536,14.279-47.717l.791-1.013-.434-1.209c-.1-.273-2.525-6.753-13.455-11.9l-1.987,4.222c6.584,3.1,9.443,6.6,10.508,8.268a77.137,77.137,0,0,0-8.217,15.931c-3.552-4.4-4.691-8.571-6.239-14.276-.5-1.833-1.013-3.728-1.66-5.832-1.2-3.89-2.475-7.24-3.341-9.373,20.5-5.361,32.89,8.161,33.424,8.757l1.061,1.2,1.5-.56a83.156,83.156,0,0,1,56.688,0l1.5.553,1.063-1.187c.536-.6,12.932-14.123,33.427-8.762C689.594,88.524,688.316,91.873,687.118,95.763Zm-63.923,32.4v2.084a3.609,3.609,0,0,1-7.217,0v-2.084a3.609,3.609,0,0,1,7.217,0Zm-20-11.434a5.133,5.133,0,1,1-5.133-5.133A5.134,5.134,0,0,1,603.2,116.734Zm32.371,11.434v2.084a3.609,3.609,0,0,1-7.217,0v-2.084a3.609,3.609,0,0,1,7.217,0Zm23.76-11.434a5.133,5.133,0,1,1-5.133-5.133A5.134,5.134,0,0,1,659.328,116.734Z" transform="translate(-552.247 -64.371)"/></svg>