<svg xmlns="http://www.w3.org/2000/svg" xmlns:xlink="http://www.w3.org/1999/xlink" width="136.128" height="161.632" viewBox="0 0 136.128 161.632"><defs><style>.a{fill:#004b40;}.b{fill:#fbb040;}.c{fill:url(#a);}.d{fill:#afff6a;}</style><linearGradient id="a" x1="0.5" y1="0.328" x2="0.5" y2="0.942" gradientUnits="objectBoundingBox"><stop offset="0.279" stop-color="#1eeb00"/><stop offset="0.506" stop-color="#1ee700"/><stop offset="0.729" stop-color="#1edb00"/><stop offset="0.95" stop-color="#1ec700"/><stop offset="1" stop-color="#1ec200"/></linearGradient></defs><g transform="translate(-139.015 -134.547)"><g transform="translate(139.015 265.523)"><g transform="translate(99.635 3.752)"><path class="a" d="M701.019,266.633H690.8l-8.206-13.041h.167v13.041h-8.694V242h8.694v8.694h-.167L690.6,242h10.02l-9.667,9.518Z" transform="translate(-674.063 -242)"/></g><g transform="translate(128.563)"><g transform="translate(0)"><path class="a" d="M713.991,240.6a3.626,3.626,0,0,1,.3-1.469,3.834,3.834,0,0,1,2.013-2.013,3.749,3.749,0,0,1,2.939,0,3.841,3.841,0,0,1,2.013,2.013,3.749,3.749,0,0,1,0,2.939,3.848,3.848,0,0,1-2.013,2.013,3.749,3.749,0,0,1-2.939,0,3.841,3.841,0,0,1-2.013-2.013A3.631,3.631,0,0,1,713.991,240.6Zm1.037,0a2.91,2.91,0,0,0,.214,1.113,2.813,2.813,0,0,0,.59.911,2.9,2.9,0,0,0,.875.615,2.611,2.611,0,0,0,2.135,0,2.9,2.9,0,0,0,.874-.615,2.811,2.811,0,0,0,.59-.911,3.006,3.006,0,0,0,0-2.226,2.8,2.8,0,0,0-.59-.91,2.876,2.876,0,0,0-.874-.615,2.6,2.6,0,0,0-2.135,0,2.875,2.875,0,0,0-.875.615,2.8,2.8,0,0,0-.59.91A2.914,2.914,0,0,0,715.028,240.6Zm1.189-2.2h1.505c.109,0,.258.1.448.111a1.771,1.771,0,0,1,.559.188,1.32,1.32,0,0,1,.478.4,1.208,1.208,0,0,1,.2.748,1.37,1.37,0,0,1-.081.509,1,1,0,0,1-.209.328.859.859,0,0,1-.295.195c-.112.044-.225.174-.341.187l1.017,1.677h-1.068l-.9-1.449h.136v1.449h-1.449Zm1.13,1.828h.417a1.946,1.946,0,0,0,.2-.01.611.611,0,0,0,.2-.051.366.366,0,0,0,.152-.127.495.495,0,0,0,0-.478.366.366,0,0,0-.152-.127.63.63,0,0,0-.2-.051c-.071-.007-.137-.01-.2-.01h-.417Z" transform="translate(-713.991 -236.822)"/></g></g><g transform="translate(0 1.643)"><g transform="translate(69.93 1.298)"><path class="a" d="M649,266.325V252.932c0-2.77-.662-5.287-3.633-5.287-2.921,0-4.337,2.517-4.337,5.387v13.293h-7.97V241.692h7.748l.1,2.242a10.339,10.339,0,0,1,7.562-3.052c6.747,0,9.223,5.2,9.223,10.237v15.207Z" transform="translate(-633.063 -240.882)"/></g><g transform="translate(56.889)"><path class="a" d="M615.063,265.074V242.119l7.245-3.029V268.1Z" transform="translate(-615.063 -239.09)"/></g><g transform="translate(0 1.163)"><g transform="translate(24.741 0.001)"><path class="a" d="M584.587,267.382c-7.552,0-13.9-5.237-13.9-13.443s6.344-13.243,13.9-13.243c7.6,0,13.948,5.035,13.948,13.243S592.191,267.382,584.587,267.382Zm0-19.839c-3.876,0-5.89,3.173-5.89,6.4s2.064,6.5,5.942,6.5,5.941-3.273,5.941-6.5S588.465,247.543,584.587,247.543Z" transform="translate(-570.691 -240.696)"/></g><path class="a" d="M554.779,258.3a6.5,6.5,0,1,1,0-8.523l4.532-5.181a13.343,13.343,0,1,0,0,18.886Z" transform="translate(-536.542 -240.695)"/></g></g></g><g transform="translate(157.923 134.547)"><ellipse class="b" cx="8.825" cy="8.825" rx="8.825" ry="8.825" transform="translate(39.804 1.536)"/><path class="a" d="M619,85.505a10.36,10.36,0,1,1,10.36-10.359A10.371,10.371,0,0,1,619,85.505Zm0-17.649a7.289,7.289,0,1,0,7.289,7.29A7.3,7.3,0,0,0,619,67.856Z" transform="translate(-570.373 -64.785)"/><path class="c" d="M578.688,159.542l-4.88,3.092-.86-.717c-.411-.343-10.068-8.709-10.068-36.215a61.223,61.223,0,0,1,2.891-18.658c-3.747-3.946-4.711-7.5-5.914-11.93-.32-1.182-.652-2.4-1.063-3.739a72.009,72.009,0,0,0-2.747-7.431l-.7-1.559,1.625-.53a28.176,28.176,0,0,1,8.733-1.441,25.609,25.609,0,0,1,17.375,6.856,57.925,57.925,0,0,1,37.584,0,25.614,25.614,0,0,1,17.375-6.856,28.176,28.176,0,0,1,8.733,1.441l1.625.53-.7,1.559a72.211,72.211,0,0,0-2.747,7.431c-.411,1.335-.743,2.557-1.063,3.739-1.2,4.433-2.167,7.984-5.914,11.93a61.214,61.214,0,0,1,2.891,18.658c0,27.506-9.656,35.872-10.068,36.215l-.86.717-4.88-3.092-4.319,3.284-.944-1.075a23.728,23.728,0,0,1-3.945-6.377,59.794,59.794,0,0,1-27.95,0,23.729,23.729,0,0,1-3.946,6.377l-.944,1.075Z" transform="translate(-553.243 -69.809)"/><path class="d" d="M617.654,136.362c3.362,0,9.945-3.814,12.537-9.593,2.584-5.761-3.015-7.568-5.249-7.975a50.191,50.191,0,0,0-14.577,0c-2.233.408-7.833,2.215-5.248,7.975C607.709,132.548,614.291,136.362,617.654,136.362Z" transform="translate(-569.025 -81.973)"/><path class="a" d="M608.44,104.392a51.629,51.629,0,0,0-15.128,0c-1.462.267-5.024,1.2-6.529,4.057a6.691,6.691,0,0,0,.155,6.056c2.918,6.5,10.084,10.5,13.938,10.5s11.019-3.995,13.938-10.5a6.689,6.689,0,0,0,.155-6.056C613.463,105.589,609.9,104.659,608.44,104.392Zm3.571,8.857c-2.417,5.388-8.583,8.685-11.136,8.685s-8.719-3.3-11.136-8.685a3.827,3.827,0,0,1-.239-3.371c.717-1.362,2.723-2.167,4.363-2.466a48.758,48.758,0,0,1,14.025,0c1.639.3,3.646,1.1,4.362,2.466A3.825,3.825,0,0,1,612.011,113.249Zm34.241-33.581a29.709,29.709,0,0,0-9.209-1.517,27.249,27.249,0,0,0-17.73,6.647,59.606,59.606,0,0,0-36.876,0,27.247,27.247,0,0,0-17.729-6.647,29.711,29.711,0,0,0-9.209,1.517l-3.252,1.06,1.4,3.119a70.76,70.76,0,0,1,2.68,7.251c.4,1.31.732,2.52,1.049,3.689,1.147,4.228,2.155,7.938,5.667,11.914a62.8,62.8,0,0,0-2.7,18.272c0,11.671,1.689,21.4,5.021,28.925,2.594,5.858,5.3,8.22,5.6,8.469l1.719,1.433,1.891-1.2,3.034-1.922,2.332,1.772,2.277,1.731,1.888-2.149a26.413,26.413,0,0,0,3.708-5.607,61.265,61.265,0,0,0,26.119,0,26.406,26.406,0,0,0,3.708,5.607l1.888,2.149,2.277-1.731,2.331-1.772,3.033,1.922,1.891,1.2,1.719-1.433c.3-.25,3-2.611,5.6-8.469,3.331-7.521,5.021-17.254,5.021-28.925a62.778,62.778,0,0,0-2.7-18.272c3.513-3.976,4.52-7.687,5.667-11.914.318-1.17.645-2.379,1.049-3.689a70.711,70.711,0,0,1,2.68-7.253l1.4-3.117Zm-5.234,10.075c-.426,1.385-.765,2.632-1.093,3.839-1.019,3.755-1.768,6.5-4.106,9.4a50.808,50.808,0,0,0-5.407-10.484c.706-1.107,2.59-3.407,6.915-5.443l-1.308-2.779c-7.194,3.387-8.792,7.652-8.856,7.832l-.284.8.517.666c.094.121,9.4,12.326,9.4,31.409,0,21.387-6.077,30.51-8.224,33.064l-4.673-2.961-3.749,2.851a14.846,14.846,0,0,1-2.458-4.048c1.3-.379,2.584-.787,3.858-1.255l-1.057-2.883a56.918,56.918,0,0,1-39.241,0l-1.056,2.883c1.274.468,2.564.876,3.858,1.255a14.848,14.848,0,0,1-2.457,4.048l-3.749-2.851-4.683,2.967c-2.156-2.52-8.214-11.52-8.214-33.07,0-19.083,9.305-31.288,9.4-31.407l.52-.667-.286-.8c-.064-.18-1.662-4.445-8.856-7.832l-1.308,2.779c4.333,2.04,6.215,4.344,6.916,5.442a50.772,50.772,0,0,0-5.408,10.486c-2.338-2.9-3.088-5.641-4.106-9.4-.328-1.207-.666-2.454-1.092-3.839-.789-2.56-1.629-4.765-2.2-6.169a22.361,22.361,0,0,1,22,5.764l.7.789.988-.368a54.733,54.733,0,0,1,37.312,0l.985.364.7-.781a22.359,22.359,0,0,1,22-5.767C642.648,84.979,641.807,87.183,641.018,89.744Zm-42.073,21.328v1.371a2.375,2.375,0,0,1-4.75,0v-1.371a2.375,2.375,0,0,1,4.75,0Zm-13.163-7.526a3.379,3.379,0,1,1-3.379-3.379A3.379,3.379,0,0,1,585.782,103.546Zm21.306,7.526v1.371a2.375,2.375,0,0,1-4.75,0v-1.371a2.375,2.375,0,0,1,4.75,0Zm15.639-7.526a3.379,3.379,0,1,1-3.379-3.379A3.379,3.379,0,0,1,622.727,103.546Z" transform="translate(-552.247 -69.081)"/></g></g></svg>