<svg xmlns="http://www.w3.org/2000/svg" xmlns:xlink="http://www.w3.org/1999/xlink" width="75.666" height="66.938" viewBox="0 0 75.666 66.938"><defs><style>.a{fill:url(#a);}.b{fill:#afff6a;}.c{fill:#004b40;}</style><linearGradient id="a" x1="6.802" y1="0.328" x2="6.802" y2="0.942" gradientUnits="objectBoundingBox"><stop offset="0.279" stop-color="#1eeb00"/><stop offset="0.506" stop-color="#1ee700"/><stop offset="0.729" stop-color="#1edb00"/><stop offset="0.95" stop-color="#1ec700"/><stop offset="1" stop-color="#1ec200"/></linearGradient></defs><path class="a" d="M49.19,2562.683l-3.8,2.406-.668-.558c-.32-.267-7.833-6.775-7.833-28.176a47.64,47.64,0,0,1,2.249-14.517c-2.915-3.07-3.665-5.834-4.6-9.282-.25-.92-.508-1.87-.828-2.909a56.151,56.151,0,0,0-2.137-5.78l-.545-1.214,1.265-.412a21.932,21.932,0,0,1,6.794-1.121,19.922,19.922,0,0,1,13.518,5.334,45.079,45.079,0,0,1,29.242,0,19.927,19.927,0,0,1,13.519-5.334,21.931,21.931,0,0,1,6.793,1.121l1.265.412-.545,1.214a56.146,56.146,0,0,0-2.137,5.78c-.32,1.04-.578,1.99-.828,2.909-.935,3.448-1.685,6.212-4.6,9.282a47.638,47.638,0,0,1,2.249,14.517c0,21.4-7.513,27.909-7.833,28.176l-.668.558-3.8-2.406-3.361,2.555-.734-.836a18.445,18.445,0,0,1-3.07-4.962,46.5,46.5,0,0,1-21.747,0,18.445,18.445,0,0,1-3.07,4.962l-.734.836Z" transform="translate(-29.394 -2499.925)"/><path class="b" d="M68.917,2536.487c2.616,0,7.737-2.968,9.754-7.464s-2.346-5.887-4.084-6.2a39.057,39.057,0,0,0-11.341,0c-1.738.318-6.095,1.723-4.084,6.2S66.3,2536.487,68.917,2536.487Z" transform="translate(-31.083 -2501.227)"/><path class="c" d="M73.007,2520.263a40.16,40.16,0,0,0-11.771,0c-1.137.208-3.908.93-5.079,3.156a5.208,5.208,0,0,0,.12,4.713c2.271,5.061,7.847,8.169,10.844,8.169s8.573-3.108,10.844-8.169a5.211,5.211,0,0,0,.12-4.713C76.915,2521.193,74.144,2520.47,73.007,2520.263Zm2.779,6.891c-1.881,4.192-6.679,6.758-8.664,6.758s-6.784-2.566-8.664-6.758a2.977,2.977,0,0,1-.186-2.622c.558-1.06,2.119-1.686,3.394-1.919a42.811,42.811,0,0,1,5.445-.394,42.831,42.831,0,0,1,5.468.394c1.275.233,2.836.859,3.394,1.919A2.977,2.977,0,0,1,75.786,2527.154Zm26.64-26.127a23.135,23.135,0,0,0-7.165-1.179,21.2,21.2,0,0,0-13.794,5.171,46.366,46.366,0,0,0-28.69,0,21.2,21.2,0,0,0-13.794-5.171,23.135,23.135,0,0,0-7.165,1.179l-2.53.825,1.092,2.427a54.667,54.667,0,0,1,2.085,5.642c.315,1.02.57,1.96.817,2.871.892,3.289,1.676,6.176,4.409,9.269a48.863,48.863,0,0,0-2.1,14.216c0,9.081,1.314,16.653,3.906,22.505,2.019,4.557,4.123,6.394,4.357,6.59l1.337,1.114,1.471-.931,2.36-1.5,1.814,1.379,1.772,1.347,1.469-1.673a20.539,20.539,0,0,0,2.884-4.362,47.66,47.66,0,0,0,20.322,0,20.49,20.49,0,0,0,2.885,4.362l1.469,1.673,1.772-1.347,1.814-1.379,2.36,1.5,1.471.931,1.337-1.114c.234-.2,2.338-2.033,4.357-6.59,2.591-5.853,3.905-13.424,3.905-22.505a48.864,48.864,0,0,0-2.1-14.216c2.733-3.094,3.517-5.981,4.41-9.27.247-.91.5-1.85.816-2.87a54.846,54.846,0,0,1,2.085-5.643l1.089-2.426Zm-4.072,7.839c-.332,1.078-.6,2.049-.85,2.988-.793,2.922-1.377,5.055-3.2,7.311a39.533,39.533,0,0,0-4.207-8.157,12.44,12.44,0,0,1,5.38-4.235l-1.018-2.161c-5.6,2.635-6.84,5.953-6.89,6.093l-.221.619.4.518a42.881,42.881,0,0,1,7.313,24.437c0,16.639-4.728,23.737-6.4,25.725l-3.636-2.3-2.916,2.218a11.543,11.543,0,0,1-1.912-3.149c1.007-.295,2.01-.613,3-.976l-.822-2.243a44.271,44.271,0,0,1-30.53,0l-.822,2.243c.992.364,1.995.682,3,.976a11.564,11.564,0,0,1-1.911,3.149l-2.917-2.218-3.644,2.308c-1.678-1.96-6.391-8.963-6.391-25.729a42.886,42.886,0,0,1,7.312-24.436l.4-.519-.222-.619c-.051-.14-1.294-3.458-6.891-6.093l-1.018,2.161A12.461,12.461,0,0,1,44.142,2511a39.531,39.531,0,0,0-4.208,8.158c-1.819-2.256-2.4-4.389-3.195-7.311-.255-.939-.518-1.909-.851-2.988-.613-1.992-1.267-3.707-1.711-4.8a17.4,17.4,0,0,1,17.117,4.485l.544.614.768-.287a42.589,42.589,0,0,1,29.03,0l.766.283.544-.608a17.4,17.4,0,0,1,17.118-4.487C99.621,2505.158,98.967,2506.873,98.354,2508.865Zm-32.722,16.594v1.067a1.878,1.878,0,0,1-3.755,0v-1.067a1.878,1.878,0,0,1,3.755,0ZM55.378,2519.6a2.629,2.629,0,1,1-2.629-2.629A2.628,2.628,0,0,1,55.378,2519.6Zm16.825,5.854v1.067a1.878,1.878,0,0,1-3.755,0v-1.067a1.878,1.878,0,0,1,3.755,0Zm11.919-5.854a2.629,2.629,0,1,1-2.629-2.629A2.629,2.629,0,0,1,84.122,2519.6Z" transform="translate(-29.287 -2499.847)"/></svg>