<svg xmlns="http://www.w3.org/2000/svg" xmlns:xlink="http://www.w3.org/1999/xlink" width="78.738" height="83.87" viewBox="0 0 78.738 83.87"><defs><style>.a{fill:url(#a);}.b{fill:#7fff5d;}.c{fill:#004a3d;}</style><linearGradient id="a" x1="0.5" y1="0.328" x2="0.5" y2="0.942" gradientUnits="objectBoundingBox"><stop offset="0.28" stop-color="#00eb00"/><stop offset="0.51" stop-color="#00e700"/><stop offset="0.73" stop-color="#00db00"/><stop offset="0.95" stop-color="#00c800"/><stop offset="1" stop-color="#00c200"/></linearGradient></defs><g transform="translate(0 0)"><path class="a" d="M58.445,79.648,55,82.261l-.772-.772a16.338,16.338,0,0,1-3.24-4.878,53.619,53.619,0,0,1-11.316,1A48.564,48.564,0,0,1,28.467,76.3a15.676,15.676,0,0,1-3.393,5.192l-.772.772-3.444-2.613-4.241,2.689-.662-1.077c-.288-.534-7.847-13.174-7.847-35.229a79.612,79.612,0,0,1,3.334-21.207c-3.5-3.58-4.657-7.55-5.845-11.732-.254-.891-.509-1.815-.8-2.748A60.018,60.018,0,0,0,2.577,4.32L2,3.065l1.315-.433A22.9,22.9,0,0,1,10.381,1.47,20.758,20.758,0,0,1,24.463,7.009a45.5,45.5,0,0,1,15.21-2.545A45.587,45.587,0,0,1,54.891,7.009,20.724,20.724,0,0,1,68.955,1.47a22.819,22.819,0,0,1,7.066,1.162l1.315.433-.56,1.255a57.358,57.358,0,0,0-2.231,6.023c-.288.933-.543,1.858-.8,2.748-1.188,4.182-2.307,8.152-5.845,11.715a79.611,79.611,0,0,1,3.334,21.207c0,22.055-7.558,34.72-7.881,35.255l-.662,1.077Z" transform="translate(-0.303 -0.223)"/><path class="b" d="M44.492,40.928c2.723,0,8.05-3.088,10.179-7.77S52.229,27.033,50.43,26.7a45.164,45.164,0,0,0-5.938-.433,45.163,45.163,0,0,0-5.938.433c-1.807.331-6.337,1.79-4.241,6.455S41.769,40.928,44.492,40.928Z" transform="translate(-5.124 -3.986)"/><path class="c" d="M76.108,1.23A24.083,24.083,0,0,0,68.652,0h0A22.055,22.055,0,0,0,54.29,5.378a48.276,48.276,0,0,0-29.86,0A22.055,22.055,0,0,0,10.086,0,24.125,24.125,0,0,0,2.63,1.23L0,2.087,1.137,4.632a57.878,57.878,0,0,1,2.172,5.853c.28.916.543,1.832.789,2.723,1.179,4.148,2.29,8.084,5.65,11.723a80.189,80.189,0,0,0-3.19,20.876c0,22.378,7.736,35.357,8.067,35.9l1.315,2.163,2.138-1.357,2.46-1.552,1.883,1.434,1.739,1.323,1.535-1.552a17.975,17.975,0,0,0,3.232-4.623,49.862,49.862,0,0,0,10.442,1.111A57.454,57.454,0,0,0,49.947,77.8a17.966,17.966,0,0,0,3.1,4.335l1.535,1.552,1.7-1.323,1.883-1.434,2.46,1.552,2.155,1.357,1.315-2.163c.382-.543,8.093-13.522,8.093-35.874a80.188,80.188,0,0,0-3.19-20.851c3.393-3.639,4.479-7.575,5.65-11.723.246-.891.509-1.807.789-2.723A59.53,59.53,0,0,1,77.6,4.632l1.137-2.545ZM70.874,13.25c-.848,3.393-1.586,6.176-4.055,8.873-1.544-5-3.054-8.746-3.631-10.112.492-.848,1.985-2.816,5.692-4.555L67.863,5.208c-5.819,2.74-7.117,6.192-7.168,6.337l-.17.467.2.45c.076.178,7.762,17.916,7.762,33.567,0,17.678-5.09,29.334-6.914,32.846l-3.52-2.231L55.02,78.95a11.808,11.808,0,0,1-1.993-3.274c1.052-.305,2.1-.636,3.122-1.018L55.3,72.325a46.1,46.1,0,0,1-31.777,0l-.848,2.333c1.026.382,2.07.713,3.122,1.018a11.808,11.808,0,0,1-2.044,3.274l-3.028-2.307L17.2,78.891c-1.781-3.5-6.914-15.125-6.914-32.846,0-15.651,7.685-33.389,7.762-33.567l.2-.45-.17-.467c-.051-.144-1.34-3.6-7.168-6.337L9.857,7.456C13.573,9.2,15.066,11.189,15.549,12c-.577,1.366-2.087,5.09-3.631,10.12-2.469-2.7-3.181-5.463-4.055-8.873-.3-1.154-.6-2.341-.992-3.614-.636-2.078-1.323-3.86-1.781-5A18.128,18.128,0,0,1,22.9,9.331l.56.636.806-.3a44.289,44.289,0,0,1,30.207,0l.8.3.568-.636A18.348,18.348,0,0,1,73.657,4.666c-.458,1.137-1.137,2.918-1.781,5C71.477,10.909,71.171,12.1,70.874,13.25Z" transform="translate(0 0)"/><path class="c" d="M28.291,26.78a2.74,2.74,0,1,0-2.731-2.74,2.74,2.74,0,0,0,2.731,2.74Z" transform="translate(-3.878 -3.232)"/><path class="c" d="M63.511,26.78a2.74,2.74,0,1,0-2.731-2.74,2.74,2.74,0,0,0,2.731,2.74Z" transform="translate(-9.221 -3.232)"/><path class="c" d="M42.268,29.46a1.917,1.917,0,0,0-1.909,1.909v1.094a1.909,1.909,0,1,0,3.809,0V31.369a1.917,1.917,0,0,0-1.9-1.909Z" transform="translate(-6.122 -4.47)"/><path class="c" d="M55.684,28.542c-1.222-2.316-4.106-3.071-5.285-3.283a41.941,41.941,0,0,0-12.249,0c-1.179.212-4.063.967-5.285,3.283a5.387,5.387,0,0,0,.127,4.912c2.358,5.268,8.161,8.483,11.282,8.483S53.2,38.7,55.557,33.454A5.387,5.387,0,0,0,55.684,28.542Zm-2.426,3.885c-1.96,4.36-6.947,7.032-9.017,7.032s-7.058-2.672-9.017-7.032a3.139,3.139,0,0,1-.2-2.731c.585-1.094,2.206-1.747,3.537-1.993a43.89,43.89,0,0,1,5.667-.407,43.914,43.914,0,0,1,5.684.407c1.332.246,2.952.9,3.537,1.993A3.113,3.113,0,0,1,53.258,32.428Z" transform="translate(-4.906 -3.764)"/><path class="c" d="M49.882,29.46A1.917,1.917,0,0,0,48,31.369v1.094a1.909,1.909,0,1,0,3.809,0V31.369A1.917,1.917,0,0,0,49.882,29.46Z" transform="translate(-7.282 -4.469)"/></g></svg>