<svg xmlns="http://www.w3.org/2000/svg" width="78.999" height="92.635" viewBox="0 0 78.999 92.635"><defs><style>.a{fill:#8bed8c;}.b{fill:#004a3d;}.c{fill:#7fff5d;}.d{fill:#012d25;}.e{fill:#ffb95c;}.f{fill:#fbb040;}.g{fill:#fff;}.h{fill:none;stroke:#fff;stroke-miterlimit:10;stroke-width:2px;}.i{fill:#eaf6f8;}.j{fill:#d2dadb;}.k{fill:#003f33;}</style></defs><g transform="translate(0 8.47)"><path class="a" d="M53.8,90.932l-3.161,2.4-.708-.708a14.385,14.385,0,0,1-3.114-4.764,44.426,44.426,0,0,1-20.567,0,14.386,14.386,0,0,1-3.114,4.764l-.708.708-3.161-2.4-4.032,2.553-.459-1.23A99.307,99.307,0,0,1,7.6,55.879c0-5.994,1.137-13.319,3.378-21.8-3.417-3.433-4.585-7.4-5.815-11.607l-.6-1.993a55.346,55.346,0,0,0-2.04-5.519L2,13.8l1.207-.389A21.018,21.018,0,0,1,9.691,12.34a19.064,19.064,0,0,1,12.914,5.1A41.756,41.756,0,0,1,36.563,15.1a41.834,41.834,0,0,1,13.965,2.335,19.018,19.018,0,0,1,12.907-5.1,20.956,20.956,0,0,1,6.484,1.074l1.207.389-.514,1.16a52.074,52.074,0,0,0-2.047,5.519c-.2.677-.4,1.347-.592,2-1.238,4.2-2.405,8.174-5.815,11.607a86.63,86.63,0,0,1,3.371,21.8,99.579,99.579,0,0,1-7.154,36.369l-.545,1.2Z" transform="translate(-0.443 -11.203)"/><path class="b" d="M69.842,12.009A22.1,22.1,0,0,0,63,10.88a20.24,20.24,0,0,0-13.179,4.935,44.3,44.3,0,0,0-27.4,0A20.24,20.24,0,0,0,9.248,10.88a22.139,22.139,0,0,0-6.835,1.129L0,12.787l1.043,2.335A53.714,53.714,0,0,1,3.036,20.5c.2.662.4,1.331.592,1.985,1.222,4.149,2.382,8.1,5.644,11.607A87.969,87.969,0,0,0,6.017,55.555a98.645,98.645,0,0,0,7.271,36.867l1.074,2.413,2.226-1.417,2.258-1.425,1.728,1.316,1.6,1.214L23.579,93.1a16.5,16.5,0,0,0,2.966-4.243,45.532,45.532,0,0,0,19.165,0A16.5,16.5,0,0,0,48.676,93.1l1.409,1.425,1.557-1.214,1.728-1.316,2.258,1.425,2.226,1.417,1.074-2.413A98.645,98.645,0,0,0,66.2,55.555a86.5,86.5,0,0,0-3.254-21.462c3.262-3.511,4.422-7.458,5.644-11.607.195-.654.389-1.323.592-1.985a53.713,53.713,0,0,1,1.993-5.395l1.043-2.335ZM65.172,22.58c-.989,3.472-1.767,6.3-4.141,8.921-1.331-4.671-2.6-8.275-3.059-9.536.436-.74,1.8-2.584,5.239-4.2L62.276,15.7c-5.34,2.514-6.531,5.683-6.578,5.815l-.14.4.148.389c.07.195,7.146,19.127,7.146,33.52a98.521,98.521,0,0,1-6.461,34.252L53.277,88.1,50.49,90.22a10.953,10.953,0,0,1-1.829-3c.965-.288,1.923-.592,2.865-.934l-.778-2.141a42.3,42.3,0,0,1-29.161,0l-.778,2.141c.942.343,1.9.646,2.865.934a10.953,10.953,0,0,1-1.876,3L19.018,88.1,15.9,90.072A98.388,98.388,0,0,1,9.443,55.82c0-14.394,7.076-33.325,7.146-33.52l.148-.389-.14-.4c-.047-.132-1.23-3.3-6.578-5.815l-.973,2.063c3.449,1.627,4.811,3.472,5.239,4.2-.459,1.261-1.72,4.826-3.059,9.536-2.374-2.631-3.153-5.449-4.11-8.921-.249-.9-.514-1.845-.778-2.818-.615-1.9-1.246-3.542-1.666-4.585a16.635,16.635,0,0,1,16.347,4.281l.514.592.74-.28a39.576,39.576,0,0,1,13.856-2.429A39.654,39.654,0,0,1,49.992,19.77l.732.28.522-.592a16.838,16.838,0,0,1,16.347-4.281c-.42,1.043-1.043,2.686-1.635,4.585-.3.973-.568,1.915-.817,2.818Z" transform="translate(0 -10.88)"/><path class="b" d="M28.325,71.81l-2.265.3c.553,4.2.825,7.4.957,9.209l-3.153-1-2.335,2.507c-.926-1.674-2.6-4.858-4.523-9.186l-2.086.926a109.841,109.841,0,0,0,5.4,10.758l.778,1.3,3.441-3.69,4.92,1.557-.07-1.627C29.391,82.693,29.2,78.551,28.325,71.81Z" transform="translate(-3.306 -24.379)"/><path class="b" d="M28.067,37.749a2.514,2.514,0,1,0-2.507-2.475A2.514,2.514,0,0,0,28.067,37.749Z" transform="translate(-5.663 -15.719)"/><path class="b" d="M63.3,37.749a2.514,2.514,0,1,0-2.475-2.475A2.514,2.514,0,0,0,63.3,37.749Z" transform="translate(-13.475 -15.719)"/><path class="b" d="M64.876,80.311l-3.114,1c.125-1.806.4-5.013.957-9.209l-2.265-.3c-.887,6.741-1.066,10.9-1.074,11.054l-.07,1.627,4.92-1.557,3.4,3.682.778-1.3a105.735,105.735,0,0,0,5.4-10.758l-2.078-.926c-1.923,4.328-3.6,7.512-4.523,9.225Z" transform="translate(-13.14 -24.379)"/><path class="c" d="M43.61,51.172c2.5,0,7.387-2.834,9.341-7.131s-2.242-5.62-3.892-5.924a41.446,41.446,0,0,0-5.449-.4,41.446,41.446,0,0,0-5.449.4c-1.658.3-5.815,1.643-3.892,5.924S41.111,51.172,43.61,51.172Z" transform="translate(-7.482 -16.826)"/><path class="b" d="M53.771,39.655c-1.121-2.125-3.783-2.826-4.85-3.013a42.5,42.5,0,0,0-5.628-.413,42.471,42.471,0,0,0-5.613.413c-1.082.187-3.729.887-4.819,3.013a4.943,4.943,0,0,0,.117,4.5c2.164,4.834,7.489,7.784,10.353,7.784s8.189-2.966,10.353-7.784a4.943,4.943,0,0,0,.086-4.5ZM51.545,43.22c-1.8,4-6.375,6.453-8.275,6.453s-6.477-2.452-8.275-6.453a2.865,2.865,0,0,1-.148-2.5c.537-1.012,2.024-1.611,3.246-1.837a40.275,40.275,0,0,1,5.2-.374,40.3,40.3,0,0,1,5.216.374c1.222.226,2.709.825,3.246,1.837A2.834,2.834,0,0,1,51.545,43.22Z" transform="translate(-7.173 -16.496)"/><path class="b" d="M49.6,40.89a1.931,1.931,0,0,0-1.946,1.744v1.02a1.954,1.954,0,0,0,3.892,0v-1.02A1.931,1.931,0,0,0,49.6,40.89Z" transform="translate(-10.557 -17.529)"/><path class="b" d="M42.2,40.89a1.557,1.557,0,0,0-1.557,1.744v1.02a1.557,1.557,0,1,0,3.114,0v-1.02A1.557,1.557,0,0,0,42.2,40.89Z" transform="translate(-9.003 -17.529)"/></g><path class="b" d="M27.11,21.62H55.8l-.343,1.557H27.453Z" transform="translate(-6.006 -4.79)"/><path class="b" d="M27.11,21.62H55.8l-.343,1.557H27.453Z" transform="translate(-6.006 -4.79)"/><path class="b" d="M59.295,8.689v1.876l-2.592.6c-.156.039-.436.171-.483.327l-1.308,4.8H25.526l-1.261-4.764a.436.436,0,0,0-.288-.335l-2.3-.623V8.689c0-4.056,8.633-7.489,18.792-7.489S59.295,4.633,59.295,8.689Z" transform="translate(-4.803 -0.266)"/><path class="b" d="M59.295,8.689v1.876l-2.592.6c-.156.039-.436.171-.483.327l-1.308,4.8H25.526l-1.261-4.764a.436.436,0,0,0-.288-.335l-2.3-.623V8.689c0-4.056,8.633-7.489,18.792-7.489S59.295,4.633,59.295,8.689Z" transform="translate(-4.803 -0.266)"/><g transform="translate(16.075)"><path class="d" d="M40.228,0C29.2,0,20.65,3.705,20.65,8.423v2.234c0,.218,0,.381.179.436l2.335.631,1.191,4.328.778,2.841.288,1.051c.817,2.834,7.893,4.359,14.635,4.359S53.882,22.746,54.7,19.944l.989-3.892,1.2-4.3,2.522-.646a.537.537,0,0,0,.428-.451V8.423C59.845,3.705,51.282,0,40.228,0ZM26.021,18.387l-.343-1.557H54.4l-.343,1.557ZM59.066,10.3l-2.592.6c-.156.039-.436.171-.483.327l-1.308,4.8H25.3l-1.261-4.764a.436.436,0,0,0-.288-.335l-2.3-.623V8.423c0-4.056,8.633-7.489,18.792-7.489S59.066,4.367,59.066,8.423Z" transform="translate(-20.65)"/></g><path class="e" d="M47.012,8.356a5.6,5.6,0,0,1-2.818,4.9,5.6,5.6,0,0,1-2.826-4.881,3.057,3.057,0,0,1,0-.374,6.609,6.609,0,0,0,2.826-.887,6.679,6.679,0,0,0,2.8.872,3.06,3.06,0,0,1,.016.374Z" transform="translate(-9.164 -1.575)"/><path class="f" d="M44.194,7.11v6.142a5.6,5.6,0,0,1-2.826-4.881,3.057,3.057,0,0,1,0-.374,6.609,6.609,0,0,0,2.826-.887Z" transform="translate(-9.164 -1.575)"/><path class="g" d="M44.176,13.337h0a5.729,5.729,0,0,1-2.888-4.974,2.132,2.132,0,0,1,0-.381V7.9h.054A6.773,6.773,0,0,0,44.176,7h0a6.7,6.7,0,0,0,2.795.872h.062v.062a3.192,3.192,0,0,1,0,.381,5.737,5.737,0,0,1-2.857,5ZM41.4,8.035v.3a5.574,5.574,0,0,0,2.771,4.826,5.581,5.581,0,0,0,2.779-4.826,1.986,1.986,0,0,0,0-.3,6.944,6.944,0,0,1-2.779-.864A6.9,6.9,0,0,1,41.4,8.035Z" transform="translate(-9.145 -1.551)"/><path class="e" d="M89.157,60.4c.615,17.756-4.531,36.509-21.135,44.123C50.78,97.147,46.07,78.994,46.07,60.4V58.972h.249A46.629,46.629,0,0,0,67.586,53.85a46.707,46.707,0,0,0,21.306,5.107h.195C89.142,59.455,89.134,59.922,89.157,60.4Z" transform="translate(-10.207 -11.93)"/><path class="f" d="M67.7,53.9l.343,50.677C50.756,97.1,46.085,79.1,46.14,60.478V59.022h.249A46.793,46.793,0,0,0,67.7,53.916Z" transform="translate(-10.222 -11.942)"/><path class="h" d="M87.127,63.845c.529,15.413-3.892,31.691-18.34,38.3C53.832,95.73,49.73,79.982,49.73,63.845V62.6h.21a40.674,40.674,0,0,0,18.5-4.429,40.643,40.643,0,0,0,18.5,4.429H87.1C87.111,63.02,87.111,63.425,87.127,63.845Z" transform="translate(-11.018 -12.888)"/><path class="i" d="M74.96,82.542h2.172V76.821a4.671,4.671,0,1,0-9.341,0V82.27h2.172V76.821a2.491,2.491,0,0,1,4.974,0Z" transform="translate(-15.019 -15.985)"/><path class="j" d="M67.79,76.833v5.449h2.172V76.833a2.483,2.483,0,0,1,2.483-2.46v-2.2a4.671,4.671,0,0,0-4.655,4.663Z" transform="translate(-15.019 -15.989)"/><rect class="k" width="11.762" height="11.762" rx="1.83" transform="translate(63.311 75.229) rotate(180)"/><path class="b" d="M73.77,81.53V93.292h4.889a1,1,0,0,0,1-1V82.519a.989.989,0,0,0-1-.989Z" transform="translate(-16.344 -18.063)"/><circle class="i" cx="1.915" cy="1.915" r="1.915" transform="translate(55.511 66.464)"/><rect class="i" width="1.907" height="4.492" rx="0.78" transform="translate(58.384 72.871) rotate(180)"/></svg>