<svg xmlns="http://www.w3.org/2000/svg" viewBox="0 0 40 40"><title>chirp_icon40</title><g id="Layer_2" data-name="Layer 2"><g id="Layer_2-2" data-name="Layer 2"><g id="chirp_icon40"><path d="M40,20A20,20,0,0,1,23.4,39.7a12.4,12.4,0,0,1-2.7.3h-2a19.2,19.2,0,0,1-12-5l-.5-.4L5.7,34a21.5,21.5,0,0,1-3.8-5.5l-.3-.6a1.4,1.4,0,0,1-.2-.7A18.9,18.9,0,0,1,0,20H0a6.6,6.6,0,0,1,.1-1.4v-.6c.1-.4.1-.8.2-1.2A20,20,0,0,1,40,20Z" fill="#fbb040"/><path d="M21.6,18.4c-.2.6-.6,1.6-.9,2.7a14.2,14.2,0,0,0-.5,1.6,10.9,10.9,0,0,1-1.8,4.1,24.3,24.3,0,0,0-2.3-4.5,6.7,6.7,0,0,1,3-2.4l-.6-1.2c-3.1,1.5-3.8,3.3-3.8,3.4v.3l.2.3a24.5,24.5,0,0,1,4,13.6c0,1.3,0,2.5-.1,3.6a19.2,19.2,0,0,1-12-5l-.5-.4L5.7,34a21.5,21.5,0,0,1-3.8-5.5l-.3-.6a1.4,1.4,0,0,1-.2-.7A18.9,18.9,0,0,1,0,20H0a18.3,18.3,0,0,1,3.3-.2,21.6,21.6,0,0,1,8.1,1.4h.4l.3-.3A9.7,9.7,0,0,1,21.6,18.4Z" fill="#1eeb00"/><path d="M8.1,31.2A6,6,0,0,1,5.7,34a21.5,21.5,0,0,1-3.8-5.5H3.3a23.2,23.2,0,0,1,3.1.2,2.5,2.5,0,0,1,1.8,1.1A1.4,1.4,0,0,1,8.1,31.2Z" fill="#afff6a"/><path d="M5,29.3a1,1,0,0,0-1,1v.6a1.1,1.1,0,0,0,1,1,1.1,1.1,0,0,0,1.1-1v-.6A1,1,0,0,0,5,29.3Zm4.4-.1a3.8,3.8,0,0,0-2.8-1.8,25.7,25.7,0,0,0-3.3-.2H1.4a1.4,1.4,0,0,0,.2.7l.3.6H3.3a23.2,23.2,0,0,1,3.1.2,2.5,2.5,0,0,1,1.8,1.1,1.4,1.4,0,0,1-.1,1.4A6.6,6.6,0,0,1,5.7,34l.5.5.5.4a6.6,6.6,0,0,0,2.6-3.1A2.7,2.7,0,0,0,9.4,29.2ZM5,29.3a1,1,0,0,0-1,1v.6a1.1,1.1,0,0,0,1,1,1.1,1.1,0,0,0,1.1-1v-.6A1,1,0,0,0,5,29.3Zm0,0a1,1,0,0,0-1,1v.6a1.1,1.1,0,0,0,1,1,1.1,1.1,0,0,0,1.1-1v-.6A1,1,0,0,0,5,29.3Zm4.4-.1a3.8,3.8,0,0,0-2.8-1.8,25.7,25.7,0,0,0-3.3-.2H1.4a1.4,1.4,0,0,0,.2.7l.3.6H3.3a23.2,23.2,0,0,1,3.1.2,2.5,2.5,0,0,1,1.8,1.1,1.4,1.4,0,0,1-.1,1.4A6.6,6.6,0,0,1,5.7,34l.5.5.5.4a6.6,6.6,0,0,0,2.6-3.1A2.7,2.7,0,0,0,9.4,29.2Zm1.9-3.6A1.5,1.5,0,0,0,9.8,27a1.5,1.5,0,0,0,3,0A1.5,1.5,0,0,0,11.3,25.6ZM5,29.3a1,1,0,0,0-1,1v.6a1.1,1.1,0,0,0,1,1,1.1,1.1,0,0,0,1.1-1v-.6A1,1,0,0,0,5,29.3Zm4.4-.1a3.8,3.8,0,0,0-2.8-1.8,25.7,25.7,0,0,0-3.3-.2H1.4a1.4,1.4,0,0,0,.2.7l.3.6H3.3a23.2,23.2,0,0,1,3.1.2,2.5,2.5,0,0,1,1.8,1.1,1.4,1.4,0,0,1-.1,1.4A6.6,6.6,0,0,1,5.7,34l.5.5.5.4a6.6,6.6,0,0,0,2.6-3.1A2.7,2.7,0,0,0,9.4,29.2Zm1.9-3.6A1.5,1.5,0,0,0,9.8,27a1.5,1.5,0,0,0,3,0A1.5,1.5,0,0,0,11.3,25.6ZM5,29.3a1,1,0,0,0-1,1v.6a1.1,1.1,0,0,0,1,1,1.1,1.1,0,0,0,1.1-1v-.6A1,1,0,0,0,5,29.3Zm6.3-3.7A1.5,1.5,0,0,0,9.8,27a1.5,1.5,0,0,0,3,0A1.5,1.5,0,0,0,11.3,25.6Z" fill="#004b40"/><path d="M11.3,25.6A1.5,1.5,0,0,0,9.8,27a1.5,1.5,0,0,0,3,0A1.5,1.5,0,0,0,11.3,25.6ZM5,29.3a1,1,0,0,0-1,1v.6a1.1,1.1,0,0,0,1,1,1.1,1.1,0,0,0,1.1-1v-.6A1,1,0,0,0,5,29.3Zm6.3-3.7A1.5,1.5,0,0,0,9.8,27a1.5,1.5,0,0,0,3,0A1.5,1.5,0,0,0,11.3,25.6ZM5,29.3a1,1,0,0,0-1,1v.6a1.1,1.1,0,0,0,1,1,1.1,1.1,0,0,0,1.1-1v-.6A1,1,0,0,0,5,29.3ZM23.4,16.9l-.5-.2h0a13.9,13.9,0,0,0-4-.6,11.2,11.2,0,0,0-3.8.6,13.5,13.5,0,0,0-3.8,2.2,26.3,26.3,0,0,0-8-1.2,17.2,17.2,0,0,0-3.2.2v.6A6.6,6.6,0,0,0,0,19.9a18.3,18.3,0,0,1,3.3-.2,21.9,21.9,0,0,1,8.1,1.4h.4l.3-.3a9.7,9.7,0,0,1,9.5-2.5c-.2.6-.6,1.6-.9,2.7a14.2,14.2,0,0,0-.5,1.6,10.9,10.9,0,0,1-1.8,4.1,24.3,24.3,0,0,0-2.3-4.5,6.7,6.7,0,0,1,3-2.4l-.6-1.2c-3.1,1.5-3.8,3.3-3.8,3.4l-.2.3.3.3a25,25,0,0,1,4,13.6c0,1.3,0,2.5-.1,3.7h2c.1-1.2.1-2.4.1-3.7a26.6,26.6,0,0,0-1.2-7.9,10.6,10.6,0,0,0,2.5-5.1,9.8,9.8,0,0,1,.5-1.6l.8-2.5.3-.7.6-1.3ZM11.3,25.6A1.5,1.5,0,0,0,9.8,27a1.5,1.5,0,0,0,3,0A1.5,1.5,0,0,0,11.3,25.6ZM5,29.3a1,1,0,0,0-1,1v.6a1.1,1.1,0,0,0,1,1,1.1,1.1,0,0,0,1.1-1v-.6A1,1,0,0,0,5,29.3Zm0,0a1,1,0,0,0-1,1v.6a1.1,1.1,0,0,0,1,1,1.1,1.1,0,0,0,1.1-1v-.6A1,1,0,0,0,5,29.3Zm0,0a1,1,0,0,0-1,1v.6a1.1,1.1,0,0,0,1,1,1.1,1.1,0,0,0,1.1-1v-.6A1,1,0,0,0,5,29.3Z" fill="#004b40"/><path d="M9.3,31.8a6.6,6.6,0,0,1-2.6,3.1l-.5-.4L5.7,34a6,6,0,0,0,2.4-2.8,1.4,1.4,0,0,0,.1-1.4,2.5,2.5,0,0,0-1.8-1.1,23.2,23.2,0,0,0-3.1-.2H1.9l-.3-.6a1.4,1.4,0,0,1-.2-.7H3.3a25.7,25.7,0,0,1,3.3.2,3.8,3.8,0,0,1,2.8,1.8A2.7,2.7,0,0,1,9.3,31.8Z" fill="#004b40"/><path d="M36,13.4h-.1a4.6,4.6,0,0,1-3.1-1.9,4.7,4.7,0,0,1-.9-3.6.8.8,0,1,1,1.5.3,3,3,0,0,0,.5,2.4A4,4,0,0,0,36.1,12a.6.6,0,0,1,.6.8A.9.9,0,0,1,36,13.4Z" fill="#004b40"/><path d="M34.5,23.2h-.1a15.2,15.2,0,0,1-9.6-5.9A14.2,14.2,0,0,1,22.3,6.4a.6.6,0,0,1,.8-.6c.4,0,.6.4.6.8A13.2,13.2,0,0,0,34.6,21.8a.6.6,0,0,1,.6.8A.9.9,0,0,1,34.5,23.2Z" fill="#004b40"/><path d="M17.8,15.6a.8.8,0,0,1-.7-.5,21.4,21.4,0,0,1-.7-9.7.6.6,0,0,1,.8-.6.8.8,0,0,1,.6.8,20.2,20.2,0,0,0,.7,9.1.7.7,0,0,1-.5.9Z" fill="#004b40"/><path d="M33.5,29.1h-.1a20.8,20.8,0,0,1-10.6-5.2.8.8,0,0,1-.1-1,.7.7,0,0,1,1,0,19.5,19.5,0,0,0,10,4.8.6.6,0,0,1,.5.8A.7.7,0,0,1,33.5,29.1Z" fill="#004b40"/><path d="M35.3,17.9h-.1A9.4,9.4,0,0,1,27.5,7.2a.9.9,0,0,1,.9-.6.7.7,0,0,1,.5.8,8.2,8.2,0,0,0,1.4,5.9,8.2,8.2,0,0,0,5.1,3.2.6.6,0,0,1,.6.8A.7.7,0,0,1,35.3,17.9Z" fill="#004b40"/></g></g></g></svg>