<svg xmlns="http://www.w3.org/2000/svg" viewBox="0 0 50 50"><title>chirp_icon50</title><g id="Layer_2" data-name="Layer 2"><g id="Layer_2-2" data-name="Layer 2"><g id="chirp_icon50"><path d="M50,25A25,25,0,0,1,29.3,49.6l-3.5.4H23.3A24.2,24.2,0,0,1,8.4,43.7l-.7-.6-.6-.6a26.6,26.6,0,0,1-4.7-6.8,5.9,5.9,0,0,0-.4-.8l-.3-.8A25.3,25.3,0,0,1,0,25H0a9.1,9.1,0,0,1,.1-1.7v-.9a5.9,5.9,0,0,0,.2-1.4A25,25,0,0,1,50,25Z" fill="#fbb040"/><path d="M27,23c-.3.8-.8,2-1.2,3.3s-.4,1.5-.6,2.1A11.7,11.7,0,0,1,23,33.5a28,28,0,0,0-2.9-5.7,8.9,8.9,0,0,1,3.7-2.9l-.7-1.5c-3.9,1.8-4.7,4.1-4.8,4.2v.5l.3.3a30.9,30.9,0,0,1,5,17,32.4,32.4,0,0,1-.2,4.5A24.2,24.2,0,0,1,8.4,43.7l-.7-.6-.6-.6a26.6,26.6,0,0,1-4.7-6.8,5.9,5.9,0,0,0-.4-.8l-.3-.8A25.3,25.3,0,0,1,0,25H0a28.6,28.6,0,0,1,4.2-.3,27.7,27.7,0,0,1,10,1.8l.6.2.3-.5A12.2,12.2,0,0,1,27,23Z" fill="#1eeb00"/><path d="M10.2,39a8.8,8.8,0,0,1-3.1,3.5,26.6,26.6,0,0,1-4.7-6.8H4.1a22.3,22.3,0,0,1,3.8.3,3.4,3.4,0,0,1,2.4,1.3A2.3,2.3,0,0,1,10.2,39Z" fill="#afff6a"/><path d="M6.3,36.6A1.3,1.3,0,0,0,5,37.9v.7a1.3,1.3,0,0,0,2.6,0v-.7A1.3,1.3,0,0,0,6.3,36.6Zm5.5-.2a5.7,5.7,0,0,0-3.6-2.2A38.8,38.8,0,0,0,4.1,34H1.7l.3.8a5.9,5.9,0,0,1,.4.8H4.1a22.3,22.3,0,0,1,3.8.3,3.4,3.4,0,0,1,2.4,1.3,2.3,2.3,0,0,1-.1,1.8,8.8,8.8,0,0,1-3.1,3.5l.6.6.7.6a10.9,10.9,0,0,0,3.3-4A3.8,3.8,0,0,0,11.8,36.4Zm-5.5.2A1.3,1.3,0,0,0,5,37.9v.7a1.3,1.3,0,0,0,2.6,0v-.7A1.3,1.3,0,0,0,6.3,36.6Zm0,0A1.3,1.3,0,0,0,5,37.9v.7a1.3,1.3,0,0,0,2.6,0v-.7A1.3,1.3,0,0,0,6.3,36.6Zm5.5-.2a5.7,5.7,0,0,0-3.6-2.2A38.8,38.8,0,0,0,4.1,34H1.7l.3.8a5.9,5.9,0,0,1,.4.8H4.1a22.3,22.3,0,0,1,3.8.3,3.4,3.4,0,0,1,2.4,1.3,2.3,2.3,0,0,1-.1,1.8,8.8,8.8,0,0,1-3.1,3.5l.6.6.7.6a10.9,10.9,0,0,0,3.3-4A3.8,3.8,0,0,0,11.8,36.4ZM14.1,32a1.8,1.8,0,1,0,1.8,1.8A1.8,1.8,0,0,0,14.1,32ZM6.3,36.6A1.3,1.3,0,0,0,5,37.9v.7a1.3,1.3,0,0,0,2.6,0v-.7A1.3,1.3,0,0,0,6.3,36.6Zm5.5-.2a5.7,5.7,0,0,0-3.6-2.2A38.8,38.8,0,0,0,4.1,34H1.7l.3.8a5.9,5.9,0,0,1,.4.8H4.1a22.3,22.3,0,0,1,3.8.3,3.4,3.4,0,0,1,2.4,1.3,2.3,2.3,0,0,1-.1,1.8,8.8,8.8,0,0,1-3.1,3.5l.6.6.7.6a10.9,10.9,0,0,0,3.3-4A3.8,3.8,0,0,0,11.8,36.4ZM14.1,32a1.8,1.8,0,1,0,1.8,1.8A1.8,1.8,0,0,0,14.1,32ZM6.3,36.6A1.3,1.3,0,0,0,5,37.9v.7a1.3,1.3,0,0,0,2.6,0v-.7A1.3,1.3,0,0,0,6.3,36.6ZM14.1,32a1.8,1.8,0,1,0,1.8,1.8A1.8,1.8,0,0,0,14.1,32Z" fill="#004b40"/><path d="M14.1,32a1.8,1.8,0,1,0,1.8,1.8A1.8,1.8,0,0,0,14.1,32ZM6.3,36.6A1.3,1.3,0,0,0,5,37.9v.7a1.3,1.3,0,0,0,2.6,0v-.7A1.3,1.3,0,0,0,6.3,36.6ZM14.1,32a1.8,1.8,0,1,0,1.8,1.8A1.8,1.8,0,0,0,14.1,32ZM6.3,36.6A1.3,1.3,0,0,0,5,37.9v.7a1.3,1.3,0,0,0,2.6,0v-.7A1.3,1.3,0,0,0,6.3,36.6Zm23-15.5-.6-.2h-.1a16.7,16.7,0,0,0-4.9-.8,13.4,13.4,0,0,0-4.8.8,14.3,14.3,0,0,0-4.8,2.8,29.8,29.8,0,0,0-9.9-1.6l-4.1.2v.9A9.1,9.1,0,0,0,0,24.9a28.6,28.6,0,0,1,4.2-.3,27.7,27.7,0,0,1,10,1.8l.5.2.4-.5A12.2,12.2,0,0,1,27,23c-.3.8-.8,2-1.2,3.3s-.4,1.5-.6,2.1A11.7,11.7,0,0,1,23,33.5a28,28,0,0,0-2.9-5.7,8.9,8.9,0,0,1,3.7-2.9l-.7-1.5c-3.9,1.8-4.7,4.1-4.8,4.2v.5l.3.3a30.9,30.9,0,0,1,5,17,32.4,32.4,0,0,1-.2,4.5h2.5a34.6,34.6,0,0,0,.2-4.6,36.4,36.4,0,0,0-1.4-9.9c1.9-2.1,2.4-4.2,3-6.4l.6-2c.4-1.2.8-2.3,1.1-3l.3-.9.8-1.7ZM14.1,32a1.8,1.8,0,1,0,1.8,1.8A1.8,1.8,0,0,0,14.1,32ZM6.3,36.6A1.3,1.3,0,0,0,5,37.9v.7a1.3,1.3,0,0,0,2.6,0v-.7A1.3,1.3,0,0,0,6.3,36.6Zm0,0A1.3,1.3,0,0,0,5,37.9v.7a1.3,1.3,0,0,0,2.6,0v-.7A1.3,1.3,0,0,0,6.3,36.6Zm0,0A1.3,1.3,0,0,0,5,37.9v.7a1.3,1.3,0,0,0,2.6,0v-.7A1.3,1.3,0,0,0,6.3,36.6Z" fill="#004b40"/><path d="M11.7,39.7a10.9,10.9,0,0,1-3.3,4l-.7-.6-.6-.6A8.8,8.8,0,0,0,10.2,39a2.3,2.3,0,0,0,.1-1.8,3.4,3.4,0,0,0-2.4-1.3,22.3,22.3,0,0,0-3.8-.3H2.4a5.9,5.9,0,0,0-.4-.8l-.3-.8H4.1a38.8,38.8,0,0,1,4.1.2,5.7,5.7,0,0,1,3.6,2.2A3.8,3.8,0,0,1,11.7,39.7Z" fill="#004b40"/><path d="M45,16.7h-.2A5.6,5.6,0,0,1,41,14.3a5.8,5.8,0,0,1-1.1-4.4A.9.9,0,0,1,41,9.2a.8.8,0,0,1,.7,1,4.2,4.2,0,0,0,.7,3.1A4.4,4.4,0,0,0,45.1,15a.9.9,0,0,1,.8,1A1,1,0,0,1,45,16.7Z" fill="#004b40"/><path d="M43.1,29H43a18.3,18.3,0,0,1-12-7.4A18.5,18.5,0,0,1,27.8,7.9a1,1,0,0,1,1-.7.9.9,0,0,1,.8,1,16.6,16.6,0,0,0,13.7,19,.9.9,0,0,1,.7,1A.9.9,0,0,1,43.1,29Z" fill="#004b40"/><path d="M22.2,19.5a.8.8,0,0,1-.8-.6,28.2,28.2,0,0,1-1-12.2A1,1,0,0,1,21.5,6a.8.8,0,0,1,.7,1,24.7,24.7,0,0,0,.9,11.4.9.9,0,0,1-.6,1.1Z" fill="#004b40"/><path d="M41.9,36.4a.1.1,0,0,1-.1-.1,25.5,25.5,0,0,1-13.3-6.4.9.9,0,1,1,1.2-1.3,23.7,23.7,0,0,0,12.4,6,.8.8,0,0,1,.7,1A1,1,0,0,1,41.9,36.4Z" fill="#004b40"/><path d="M44.2,22.3H44A11.6,11.6,0,0,1,34.4,9a.9.9,0,0,1,1-.7.8.8,0,0,1,.8,1,9.9,9.9,0,0,0,1.7,7.3,10.2,10.2,0,0,0,6.4,4,.8.8,0,0,1,.7,1A.8.8,0,0,1,44.2,22.3Z" fill="#004b40"/></g></g></g></svg>