<svg xmlns="http://www.w3.org/2000/svg" viewBox="0 0 100 100"><title>chirp_icon100</title><g id="Layer_2" data-name="Layer 2"><g id="Layer_2-2" data-name="Layer 2"><g id="chirp_icon100"><path d="M100,50A50.1,50.1,0,0,1,58.5,99.3a38.2,38.2,0,0,1-6.8.6h-5a50.2,50.2,0,0,1-30-12.6l-1.2-1.1L14.3,85A51.2,51.2,0,0,1,4.8,71.4a12.2,12.2,0,0,1-.7-1.7,7.7,7.7,0,0,1-.7-1.6A49.4,49.4,0,0,1,0,50v-.3c0-1.1.1-2.2.1-3.3s.1-1.2.2-1.7a28.9,28.9,0,0,1,.4-2.9A50,50,0,0,1,100,50Z" fill="#fbb040"/><path d="M54,46c-.6,1.6-1.5,3.9-2.4,6.7s-.8,2.8-1.2,4.1C49.3,60.9,48.5,63.9,46,67a53.9,53.9,0,0,0-5.8-11.3c.7-1.2,2.8-3.7,7.4-5.9l-1.4-3c-7.7,3.6-9.4,8.3-9.5,8.4l-.3.9.5.7c.1.1,10.2,13.3,10.2,33.9,0,3.3-.2,6.4-.4,9.2a50.2,50.2,0,0,1-30-12.6l-1.2-1.1L14.3,85A51.2,51.2,0,0,1,4.8,71.4a12.2,12.2,0,0,1-.7-1.7,7.7,7.7,0,0,1-.7-1.6A49.4,49.4,0,0,1,0,50v-.3a75.5,75.5,0,0,1,8.3-.5,58.2,58.2,0,0,1,20.1,3.5l1.1.4.8-.8C30.6,51.8,39.5,42.2,54,46Z" fill="#1eeb00"/><path d="M20.3,78.1a17.6,17.6,0,0,1-6,6.9A51.2,51.2,0,0,1,4.8,71.4l3.5-.2a62.9,62.9,0,0,1,7.6.6c1.7.3,3.9,1.2,4.7,2.6A4.1,4.1,0,0,1,20.3,78.1Z" fill="#afff6a"/><path d="M12.6,73.2a2.5,2.5,0,0,0-2.5,2.5v1.5a2.5,2.5,0,0,0,5,0V75.7A2.5,2.5,0,0,0,12.6,73.2Zm10.9-.3c-1.6-3.1-5.5-4.1-7-4.4a71.5,71.5,0,0,0-8.2-.6c-.2,0-2.5,0-4.9.2a7.7,7.7,0,0,0,.7,1.6,12.2,12.2,0,0,0,.7,1.7l3.5-.2a62.9,62.9,0,0,1,7.6.6c1.7.3,3.9,1.2,4.7,2.6a4.1,4.1,0,0,1-.3,3.7,17.6,17.6,0,0,1-6,6.9l1.2,1.2,1.2,1.1a19,19,0,0,0,6.6-7.9A6.8,6.8,0,0,0,23.5,72.9Zm-10.9.3a2.5,2.5,0,0,0-2.5,2.5v1.5a2.5,2.5,0,0,0,5,0V75.7A2.5,2.5,0,0,0,12.6,73.2Zm0,0a2.5,2.5,0,0,0-2.5,2.5v1.5a2.5,2.5,0,0,0,5,0V75.7A2.5,2.5,0,0,0,12.6,73.2Zm10.9-.3c-1.6-3.1-5.5-4.1-7-4.4a71.5,71.5,0,0,0-8.2-.6c-.2,0-2.5,0-4.9.2a7.7,7.7,0,0,0,.7,1.6,12.2,12.2,0,0,0,.7,1.7l3.5-.2a62.9,62.9,0,0,1,7.6.6c1.7.3,3.9,1.2,4.7,2.6a4.1,4.1,0,0,1-.3,3.7,17.6,17.6,0,0,1-6,6.9l1.2,1.2,1.2,1.1a19,19,0,0,0,6.6-7.9A6.8,6.8,0,0,0,23.5,72.9Zm4.7-9a3.7,3.7,0,0,0-3.6,3.7,3.7,3.7,0,0,0,7.3,0A3.7,3.7,0,0,0,28.2,63.9ZM12.6,73.2a2.5,2.5,0,0,0-2.5,2.5v1.5a2.5,2.5,0,0,0,5,0V75.7A2.5,2.5,0,0,0,12.6,73.2Zm10.9-.3c-1.6-3.1-5.5-4.1-7-4.4a71.5,71.5,0,0,0-8.2-.6c-.2,0-2.5,0-4.9.2a7.7,7.7,0,0,0,.7,1.6,12.2,12.2,0,0,0,.7,1.7l3.5-.2a62.9,62.9,0,0,1,7.6.6c1.7.3,3.9,1.2,4.7,2.6a4.1,4.1,0,0,1-.3,3.7,17.6,17.6,0,0,1-6,6.9l1.2,1.2,1.2,1.1a19,19,0,0,0,6.6-7.9A6.8,6.8,0,0,0,23.5,72.9Zm4.7-9a3.7,3.7,0,0,0-3.6,3.7,3.7,3.7,0,0,0,7.3,0A3.7,3.7,0,0,0,28.2,63.9ZM12.6,73.2a2.5,2.5,0,0,0-2.5,2.5v1.5a2.5,2.5,0,0,0,5,0V75.7A2.5,2.5,0,0,0,12.6,73.2Zm15.6-9.3a3.7,3.7,0,0,0-3.6,3.7,3.7,3.7,0,0,0,7.3,0A3.7,3.7,0,0,0,28.2,63.9Z" fill="#004b40"/><path d="M28.2,63.9a3.7,3.7,0,0,0-3.6,3.7,3.6,3.6,0,0,0,3.6,3.6,3.7,3.7,0,0,0,3.7-3.6A3.8,3.8,0,0,0,28.2,63.9ZM12.6,73.2a2.5,2.5,0,0,0-2.5,2.5v1.5a2.5,2.5,0,0,0,5,0V75.7A2.5,2.5,0,0,0,12.6,73.2Zm15.6-9.3a3.7,3.7,0,0,0-3.6,3.7,3.6,3.6,0,0,0,3.6,3.6,3.7,3.7,0,0,0,3.7-3.6A3.8,3.8,0,0,0,28.2,63.9ZM12.6,73.2a2.5,2.5,0,0,0-2.5,2.5v1.5a2.5,2.5,0,0,0,5,0V75.7A2.5,2.5,0,0,0,12.6,73.2Zm45.9-31-1.2-.4h0a32.1,32.1,0,0,0-10-1.6,31.1,31.1,0,0,0-9.6,1.6,29.1,29.1,0,0,0-9.5,5.6A62.8,62.8,0,0,0,8.3,44.2a70.1,70.1,0,0,0-8,.5c-.1.6-.1,1.1-.2,1.7S0,48.6,0,49.7a75.5,75.5,0,0,1,8.3-.5,58.2,58.2,0,0,1,20.1,3.5l1.1.4.7-.8A24,24,0,0,1,54,46c-.6,1.6-1.5,3.9-2.4,6.7s-.8,2.8-1.2,4.1C49.3,60.9,48.5,63.9,46,67a53.9,53.9,0,0,0-5.8-11.3c.7-1.2,2.8-3.7,7.4-5.9l-1.4-3c-7.7,3.6-9.5,8.3-9.5,8.4l-.3.9.5.7c.1.1,10.2,13.3,10.2,33.9,0,3.3-.2,6.4-.4,9.2h5c.2-2.9.3-6,.3-9.2A65.7,65.7,0,0,0,49.1,71c3.8-4.3,4.9-8.3,6.1-12.9.4-1.2.7-2.5,1.2-3.9a59.3,59.3,0,0,1,2.1-6.1c.5-1.1.8-1.7.8-1.8L60.8,43ZM28.2,63.9a3.7,3.7,0,0,0-3.6,3.7,3.6,3.6,0,0,0,3.6,3.6,3.7,3.7,0,0,0,3.7-3.6A3.8,3.8,0,0,0,28.2,63.9ZM12.6,73.2a2.5,2.5,0,0,0-2.5,2.5v1.5a2.5,2.5,0,0,0,5,0V75.7A2.5,2.5,0,0,0,12.6,73.2Zm0,0a2.5,2.5,0,0,0-2.5,2.5v1.5a2.5,2.5,0,0,0,5,0V75.7A2.5,2.5,0,0,0,12.6,73.2Zm0,0a2.5,2.5,0,0,0-2.5,2.5v1.5a2.5,2.5,0,0,0,5,0V75.7A2.5,2.5,0,0,0,12.6,73.2Z" fill="#004b40"/><path d="M23.3,79.4a19,19,0,0,1-6.6,7.9l-1.2-1.1L14.3,85a17.6,17.6,0,0,0,6-6.9,4.1,4.1,0,0,0,.3-3.7c-.8-1.4-3-2.3-4.7-2.6a62.9,62.9,0,0,0-7.6-.6l-3.5.2a12.2,12.2,0,0,1-.7-1.7,7.7,7.7,0,0,1-.7-1.6c2.4-.2,4.7-.2,4.9-.2a71.5,71.5,0,0,1,8.2.6c1.5.3,5.4,1.3,7,4.4S24.4,77,23.3,79.4Z" fill="#004b40"/><path d="M90,33.5h-.3a12,12,0,0,1-7.8-4.7,11.8,11.8,0,0,1-2-8.9,1.7,1.7,0,0,1,2-1.5,1.9,1.9,0,0,1,1.5,2.1,8,8,0,0,0,1.4,6.2,8.2,8.2,0,0,0,5.4,3.3,1.8,1.8,0,0,1-.2,3.6Z" fill="#004b40"/><path d="M86.2,57.9h-.3a36.5,36.5,0,0,1-30.2-42,1.7,1.7,0,0,1,2-1.5,1.8,1.8,0,0,1,1.5,2,33.1,33.1,0,0,0,27.3,38,1.8,1.8,0,0,1,1.5,2A1.8,1.8,0,0,1,86.2,57.9Z" fill="#004b40"/><path d="M44.4,39.1a1.9,1.9,0,0,1-1.7-1.3,56,56,0,0,1-1.8-24.3,1.8,1.8,0,0,1,2-1.5,1.8,1.8,0,0,1,1.5,2.1,53.3,53.3,0,0,0,1.7,22.7A1.8,1.8,0,0,1,45,39Z" fill="#004b40"/><path d="M83.9,72.7h-.3A51.9,51.9,0,0,1,56.9,59.8a1.8,1.8,0,0,1-.1-2.5,1.8,1.8,0,0,1,2.6-.1,47.8,47.8,0,0,0,24.7,12,1.7,1.7,0,0,1,1.5,2A1.7,1.7,0,0,1,83.9,72.7Z" fill="#004b40"/><path d="M88.3,44.7H88A23.4,23.4,0,0,1,68.8,18a1.8,1.8,0,0,1,3.6.6,18.9,18.9,0,0,0,3.4,14.6,19.2,19.2,0,0,0,12.8,7.9,1.9,1.9,0,0,1,1.5,2.1A1.8,1.8,0,0,1,88.3,44.7Z" fill="#004b40"/></g></g></g></svg>