<svg xmlns="http://www.w3.org/2000/svg" viewBox="0 0 25 25"><title>chirp_icon25</title><g id="Layer_2" data-name="Layer 2"><g id="Layer_2-2" data-name="Layer 2"><g id="chirp_icon25"><path d="M25,12.5A12.5,12.5,0,0,1,14.6,24.8l-1.7.2H11.7a12.5,12.5,0,0,1-7.5-3.2l-.3-.3-.3-.3a10.5,10.5,0,0,1-2.4-3.4L1,17.4.8,17A13.3,13.3,0,0,1,0,12.5H0v-.8c0-.1.1-.3.1-.4a1.5,1.5,0,0,1,.1-.7,12.5,12.5,0,0,1,24.8,2Z" fill="#fbb040"/><path d="M13.5,11.5a10.7,10.7,0,0,0-.6,1.7l-.3,1a6.4,6.4,0,0,1-1.1,2.5A10.8,10.8,0,0,0,10,13.9a4.7,4.7,0,0,1,1.9-1.5l-.3-.7a4.2,4.2,0,0,0-2.4,2.1v.4a13.9,13.9,0,0,1,2.6,8.5c0,.8-.1,1.6-.1,2.3a12.5,12.5,0,0,1-7.5-3.2l-.3-.3-.3-.3a10.5,10.5,0,0,1-2.4-3.4L1,17.4.8,17A13.3,13.3,0,0,1,0,12.5H2.1a14.3,14.3,0,0,1,5,.9h.3l.2-.2A6.1,6.1,0,0,1,13.5,11.5Z" fill="#1eeb00"/><path d="M5.1,19.5a3.6,3.6,0,0,1-1.5,1.7,10.5,10.5,0,0,1-2.4-3.4H4c.4.1,1,.3,1.1.7S5.2,19.1,5.1,19.5Z" fill="#afff6a"/><path d="M3.2,18.3a.7.7,0,0,0-.7.6v.4a.7.7,0,0,0,.7.6.6.6,0,0,0,.6-.6v-.4A.6.6,0,0,0,3.2,18.3Zm2.7-.1a3,3,0,0,0-1.8-1.1H.8l.2.4.2.4H4c.4.1,1,.3,1.1.7s.1.5,0,.9a3.6,3.6,0,0,1-1.5,1.7l.3.3.3.3a4.3,4.3,0,0,0,1.6-1.9A2.1,2.1,0,0,0,5.9,18.2Zm-2.7.1a.7.7,0,0,0-.7.6v.4a.7.7,0,0,0,.7.6.6.6,0,0,0,.6-.6v-.4A.6.6,0,0,0,3.2,18.3Zm0,0a.7.7,0,0,0-.7.6v.4a.7.7,0,0,0,.7.6.6.6,0,0,0,.6-.6v-.4A.6.6,0,0,0,3.2,18.3Zm2.7-.1a3,3,0,0,0-1.8-1.1H.8l.2.4.2.4H4c.4.1,1,.3,1.1.7s.1.5,0,.9a3.6,3.6,0,0,1-1.5,1.7l.3.3.3.3a4.3,4.3,0,0,0,1.6-1.9A2.1,2.1,0,0,0,5.9,18.2ZM7.1,16a1,1,0,0,0-1,.9,1,1,0,0,0,1,.9.9.9,0,0,0,0-1.8ZM3.2,18.3a.7.7,0,0,0-.7.6v.4a.7.7,0,0,0,.7.6.6.6,0,0,0,.6-.6v-.4A.6.6,0,0,0,3.2,18.3Zm2.7-.1a3,3,0,0,0-1.8-1.1H.8l.2.4.2.4H4c.4.1,1,.3,1.1.7s.1.5,0,.9a3.6,3.6,0,0,1-1.5,1.7l.3.3.3.3a4.3,4.3,0,0,0,1.6-1.9A2.1,2.1,0,0,0,5.9,18.2ZM7.1,16a1,1,0,0,0-1,.9,1,1,0,0,0,1,.9.9.9,0,0,0,0-1.8ZM3.2,18.3a.7.7,0,0,0-.7.6v.4a.7.7,0,0,0,.7.6.6.6,0,0,0,.6-.6v-.4A.6.6,0,0,0,3.2,18.3ZM7.1,16a1,1,0,0,0-1,.9,1,1,0,0,0,1,.9.9.9,0,0,0,0-1.8Z" fill="#004b40"/><path d="M7.1,16a1,1,0,0,0-1,.9,1,1,0,0,0,1,.9.9.9,0,0,0,0-1.8ZM3.2,18.3a.7.7,0,0,0-.7.6v.4a.7.7,0,0,0,.7.6.6.6,0,0,0,.6-.6v-.4A.6.6,0,0,0,3.2,18.3ZM7.1,16a1,1,0,0,0-1,.9,1,1,0,0,0,1,.9.9.9,0,0,0,0-1.8ZM3.2,18.3a.7.7,0,0,0-.7.6v.4a.7.7,0,0,0,.7.6.6.6,0,0,0,.6-.6v-.4A.6.6,0,0,0,3.2,18.3Zm11.4-7.7h-.3a7,7,0,0,0-2.5-.5,6,6,0,0,0-2.4.5A8.6,8.6,0,0,0,7,11.8,15.7,15.7,0,0,0,2.1,11l-2,.2c0,.1-.1.3-.1.4v.8H2.1a14.3,14.3,0,0,1,5,.9h.3l.2-.2a6.1,6.1,0,0,1,5.9-1.6,10.7,10.7,0,0,0-.6,1.7l-.3,1a6.4,6.4,0,0,1-1.1,2.5A10.8,10.8,0,0,0,10,13.9a4.7,4.7,0,0,1,1.9-1.5l-.3-.7a4.2,4.2,0,0,0-2.4,2.1v.4a13.9,13.9,0,0,1,2.6,8.5c0,.8-.1,1.6-.1,2.3h1.2a16.9,16.9,0,0,0,.1-2.3,16.8,16.8,0,0,0-.7-5,6.7,6.7,0,0,0,1.5-3.2l.3-1c.2-.6.4-1.1.5-1.5l.2-.4.4-.9ZM7.1,16a1,1,0,0,0-1,.9,1,1,0,0,0,1,.9.9.9,0,0,0,0-1.8ZM3.2,18.3a.7.7,0,0,0-.7.6v.4a.7.7,0,0,0,.7.6.6.6,0,0,0,.6-.6v-.4A.6.6,0,0,0,3.2,18.3Zm0,0a.7.7,0,0,0-.7.6v.4a.7.7,0,0,0,.7.6.6.6,0,0,0,.6-.6v-.4A.6.6,0,0,0,3.2,18.3Zm0,0a.7.7,0,0,0-.7.6v.4a.7.7,0,0,0,.7.6.6.6,0,0,0,.6-.6v-.4A.6.6,0,0,0,3.2,18.3Z" fill="#004b40"/><path d="M5.8,19.9a4.3,4.3,0,0,1-1.6,1.9l-.3-.3-.3-.3a3.6,3.6,0,0,0,1.5-1.7c.1-.4.2-.7,0-.9S4.4,18,4,17.9H1.2L1,17.4.8,17H4.1a3,3,0,0,1,1.8,1.1A2.1,2.1,0,0,1,5.8,19.9Z" fill="#004b40"/><path d="M22.5,8.4h-.1a3.1,3.1,0,0,1-1.9-1.2A2.6,2.6,0,0,1,20,5c0-.3.2-.5.5-.4a.4.4,0,0,1,.3.5,2.6,2.6,0,0,0,.4,1.5,1.9,1.9,0,0,0,1.4.9.3.3,0,0,1,.3.5A.4.4,0,0,1,22.5,8.4Z" fill="#004b40"/><path d="M21.6,14.5h-.1a9.4,9.4,0,0,1-6-3.7A9.2,9.2,0,0,1,13.9,4a.5.5,0,0,1,.5-.4c.3,0,.4.3.4.5a8.3,8.3,0,0,0,6.8,9.5c.3,0,.4.3.4.5A.4.4,0,0,1,21.6,14.5Z" fill="#004b40"/><path d="M11.1,9.8a.4.4,0,0,1-.4-.3,14.2,14.2,0,0,1-.5-6.1.5.5,0,0,1,.5-.4c.3,0,.4.3.4.5a13.8,13.8,0,0,0,.4,5.7.4.4,0,0,1-.3.6Z" fill="#004b40"/><path d="M21,18.2h-.1a12.5,12.5,0,0,1-6.7-3.3.5.5,0,0,1,0-.6c.2-.2.5-.2.6,0a12.4,12.4,0,0,0,6.2,3c.3,0,.4.3.4.5A.4.4,0,0,1,21,18.2Z" fill="#004b40"/><path d="M22.1,11.2H22a5.8,5.8,0,0,1-4.8-6.7c0-.2.3-.4.5-.4a.5.5,0,0,1,.4.5A4.9,4.9,0,0,0,19,8.3a4.6,4.6,0,0,0,3.1,2c.3,0,.5.3.4.5A.4.4,0,0,1,22.1,11.2Z" fill="#004b40"/></g></g></g></svg>