<svg xmlns="http://www.w3.org/2000/svg" xmlns:xlink="http://www.w3.org/1999/xlink" width="83" height="83" viewBox="0 0 83 83"><defs><style>.a{fill:#1eeb00;}.b{fill:#004b40;}.c{filter:url(#a);}</style><filter id="a" x="0" y="0" width="83" height="83" filterUnits="userSpaceOnUse"><feOffset dy="2" input="SourceAlpha"/><feGaussianBlur stdDeviation="5" result="b"/><feFlood flood-color="#1eeb00" flood-opacity="0.502"/><feComposite operator="in" in2="b"/><feComposite in="SourceGraphic"/></filter></defs><g transform="translate(15 13)"><g class="c" transform="matrix(1, 0, 0, 1, -15, -13)"><circle class="a" cx="26.5" cy="26.5" r="26.5" transform="translate(15 13)"/></g><path class="b" d="M39.335,24.868a2.511,2.511,0,0,1-2.511,2.511H27.379v9.446a2.511,2.511,0,0,1-5.022,0V27.379H12.911a2.511,2.511,0,1,1,0-5.022h9.446V12.911a2.511,2.511,0,1,1,5.022,0v9.446h9.446A2.511,2.511,0,0,1,39.335,24.868Z" transform="translate(2.035 2.035)"/></g></svg>