<svg xmlns="http://www.w3.org/2000/svg" width="25.54" height="20.983" viewBox="0 0 25.54 20.983"><defs><style>.a{fill:#161616;}.b{fill:#ec902f;}.c{fill:#823919;}.d{fill:#bc691e;}.e{fill:#602000;}.f{fill:#ef9a4d;}.g{fill:#2b0101;}</style></defs><g transform="translate(0)"><g transform="translate(0 0)"><path class="a" d="M4908.441,4362.25" transform="translate(-4907.676 -4349.937)"/><path class="b" d="M1.62,0H22.69a1.721,1.721,0,0,1,1.721,1.721v0a0,0,0,0,1,0,0H0a0,0,0,0,1,0,0v-.1A1.62,1.62,0,0,1,1.62,0Z" transform="translate(0.765 10.592)"/><g transform="translate(0.765 11.03)"><rect class="c" width="20.552" height="8.669" transform="translate(1.586 0.309)"/><path class="b" d="M4910.9,4362.25l1.358,8.67H4910.6a.7.7,0,0,1-.687-.573l-1.477-8.1Z" transform="translate(-4908.441 -4360.967)"/><path class="b" d="M5188.447,4362.25l-1.358,8.67h1.648a.7.7,0,0,0,.688-.573l1.477-8.1Z" transform="translate(-5166.49 -4360.967)"/><rect class="b" width="19.563" height="1.721" transform="translate(2.273 8.231)"/><g transform="translate(0.755)"><g transform="translate(20.537 0.06)"><circle class="d" cx="0.423" cy="0.423" r="0.423" transform="translate(0 8.432)"/><circle class="d" cx="0.423" cy="0.423" r="0.423" transform="translate(0.63 5.558)"/><circle class="d" cx="0.423" cy="0.423" r="0.423" transform="translate(1.06 2.683)"/><circle class="d" cx="0.423" cy="0.423" r="0.423" transform="translate(1.389)"/></g><circle class="d" cx="0.423" cy="0.423" r="0.423" transform="translate(1.389 8.492)"/><path class="d" d="M4988.447,4460.192a.423.423,0,1,0,.422-.422A.422.422,0,0,0,4988.447,4460.192Z" transform="translate(-4983.288 -4451.278)"/><circle class="d" cx="0.423" cy="0.423" r="0.423" transform="translate(8.929 8.492)"/><circle class="d" cx="0.423" cy="0.423" r="0.423" transform="translate(12.699 8.492)"/><circle class="d" cx="0.423" cy="0.423" r="0.423" transform="translate(16.468 8.492)"/><circle class="d" cx="0.423" cy="0.423" r="0.423" transform="translate(3.381)"/><path class="d" d="M5015.384,4345.318a.423.423,0,1,0,.423-.423A.423.423,0,0,0,5015.384,4345.318Z" transform="translate(-5008.233 -4344.896)"/><circle class="d" cx="0.423" cy="0.423" r="0.423" transform="translate(10.831)"/><path class="d" d="M5117.372,4345.318a.422.422,0,1,0,.423-.423A.422.422,0,0,0,5117.372,4345.318Z" transform="translate(-5102.682 -4344.896)"/><path class="d" d="M5168.95,4345.318a.423.423,0,1,0,.423-.423A.422.422,0,0,0,5168.95,4345.318Z" transform="translate(-5150.447 -4344.896)"/><circle class="d" cx="0.423" cy="0.423" r="0.423" transform="translate(0.759 5.618)"/><path class="d" d="M4923.115,4382.424a.423.423,0,1,0,.422-.422A.423.423,0,0,0,4923.115,4382.424Z" transform="translate(-4922.786 -4379.259)"/><circle class="d" cx="0.423" cy="0.423" r="0.423" transform="translate(0 0.06)"/></g><rect class="e" width="18.221" height="0.364" transform="translate(3.147 4.812)"/></g><g transform="translate(0 0)"><path class="c" d="M4917.451,4197.106a59.191,59.191,0,0,1,18.306,0l2.49,10.395-23.161-.285Z" transform="translate(-4913.83 -4196.367)"/><path class="b" d="M4922.083,4196.258a1.074,1.074,0,0,0-.9-.56l-.184-.012a.9.9,0,0,0-.985,1.105,27.784,27.784,0,0,1,1.2,9.036h-20.712a27.755,27.755,0,0,1,1.2-9.036.9.9,0,0,0-.986-1.105l-.183.012a1.074,1.074,0,0,0-.9.56c-1.7,3.389-1.6,8.943-1.5,10.976a.86.86,0,0,0,.89.777h23.665a.86.86,0,0,0,.89-.777C4923.686,4205.2,4923.781,4199.647,4922.083,4196.258Z" transform="translate(-4898.092 -4195.684)"/><g transform="translate(10.332 9.649)"><rect class="d" width="4.639" height="3.267" rx="1.634" transform="translate(0 0.245)"/><rect class="f" width="4.639" height="3.267" rx="1.634"/><g transform="translate(1.818 0.578)"><path class="g" d="M5063.449,4334.52a.5.5,0,1,1-.5-.5A.5.5,0,0,1,5063.449,4334.52Z" transform="translate(-5062.446 -4334.018)"/><path class="g" d="M5063.748,4340.8l-.437,1.408h.939Z" transform="translate(-5063.247 -4340.302)"/></g></g><path class="e" d="M4953.905,4261.585a124.372,124.372,0,0,0-20.293-.039l.069-.432a119.834,119.834,0,0,1,20.194,0Z" transform="translate(-4930.986 -4255.881)"/></g></g></g></svg>