<svg xmlns="http://www.w3.org/2000/svg" width="47.883" height="19.027" viewBox="0 0 47.883 19.027"><defs><style>.a{fill:#1eeb00;}.b{fill:#7fff5d;}.c{fill:#004a3d;}.d{fill:#004b40;}</style></defs><g transform="translate(23.942 9.514)"><g transform="translate(-23.942 -9.514)"><path class="a" d="M54.009,9.392c-.277.68-.68,1.764-1.084,3.024-.2.68-.378,1.285-.529,1.89a11.329,11.329,0,0,1-2.016,4.637,24.925,24.925,0,0,0-2.7-5.166,7.978,7.978,0,0,1,3.4-2.671l-.63-1.361c-3.553,1.663-4.335,3.78-4.36,3.856l-.126.378.252.328a25.926,25.926,0,0,1,4.36,11.442H15.753a26.82,26.82,0,0,1,4.335-11.442l.252-.328-.151-.378c-.025-.1-.806-2.193-4.36-3.856l-.655,1.361a7.978,7.978,0,0,1,3.4,2.671,24.7,24.7,0,0,0-2.646,5.166,11.184,11.184,0,0,1-2.016-4.637c-.151-.6-.328-1.21-.529-1.89-.378-1.26-.806-2.344-1.084-3.024A11.012,11.012,0,0,1,23.137,12.24l.353.4.479-.176a26.7,26.7,0,0,1,18.347-.025l.479.176.353-.378A11.041,11.041,0,0,1,54.009,9.392Z" transform="translate(-9.2 -6.721)"/><g transform="translate(16.689 12.651)"><path class="b" d="M81.888,57.383a7.258,7.258,0,0,1-.857,1.437H70.4a7.258,7.258,0,0,1-.857-1.437c-1.26-2.823,1.487-3.73,2.6-3.931a25.534,25.534,0,0,1,7.157,0C80.4,53.654,83.173,54.561,81.888,57.383Z" transform="translate(-68.46 -52.444)"/><path class="c" d="M80.43,52.468A4.559,4.559,0,0,0,77.2,50.477a25.061,25.061,0,0,0-7.435,0,4.559,4.559,0,0,0-3.226,1.991,3.267,3.267,0,0,0,.076,2.974,7.99,7.99,0,0,0,.6,1.109h1.89a6.905,6.905,0,0,1-1.134-1.739,1.891,1.891,0,0,1-.126-1.663A3.885,3.885,0,0,1,70,51.939a23.777,23.777,0,0,1,6.905,0,3.166,3.166,0,0,1,2.142,1.21c.353.655.176.983-.126,1.663a6.905,6.905,0,0,1-1.134,1.739H79.7a8.016,8.016,0,0,0,.6-1.109A3.208,3.208,0,0,0,80.43,52.468Z" transform="translate(-66.221 -50.2)"/></g><path class="d" d="M47.883,1.26,47.2,2.8a34.5,34.5,0,0,0-1.31,3.579c-.2.655-.353,1.235-.529,1.815a12.737,12.737,0,0,1-2.8,5.872,30.8,30.8,0,0,1,1.058,4.965H41.331A26.82,26.82,0,0,0,37,7.586l-.252-.328.126-.378c.025-.1.832-2.193,4.36-3.856l.655,1.361a7.8,7.8,0,0,0-3.4,2.671,24.925,24.925,0,0,1,2.671,5.166,11.184,11.184,0,0,0,2.016-4.637c.151-.6.328-1.21.529-1.89.378-1.26.806-2.344,1.084-3.024A10.982,10.982,0,0,0,33.947,5.519l-.353.378-.479-.176a26.109,26.109,0,0,0-9.173-1.613,26.109,26.109,0,0,0-9.2,1.613l-.479.176-.353-.4A11.043,11.043,0,0,0,3.075,2.646c.277.68.706,1.764,1.084,3.024.2.68.378,1.285.529,1.89A11.329,11.329,0,0,0,6.7,12.2,24.7,24.7,0,0,1,9.4,7.056,8.163,8.163,0,0,0,6,4.385l.63-1.361c3.553,1.663,4.335,3.78,4.36,3.856l.151.378-.252.328A25.906,25.906,0,0,0,6.552,19.027H4.259a30.922,30.922,0,0,1,1.058-4.965,12.993,12.993,0,0,1-2.8-5.872c-.151-.58-.328-1.159-.5-1.815A34.475,34.475,0,0,0,.68,2.8L0,1.26l1.613-.5A14.592,14.592,0,0,1,6.149,0a13.433,13.433,0,0,1,8.72,3.276,29.36,29.36,0,0,1,18.145,0A13.433,13.433,0,0,1,41.759,0,14.592,14.592,0,0,1,46.3.756Z" transform="translate(0 0)"/><rect class="c" width="2.319" height="2.996" rx="1.159" transform="translate(20.817 15.045)"/><circle class="c" cx="1.663" cy="1.663" r="1.663" transform="translate(13.181 10.837)"/><rect class="c" width="2.319" height="2.996" rx="1.159" transform="translate(27.067 18.044) rotate(180)"/><path class="d" d="M127.247,46.2,124.5,44.614l2.722-1.714.6.983-1.109.68,1.084.63Z" transform="translate(-93.124 -32.088)"/></g></g></svg>