<svg xmlns="http://www.w3.org/2000/svg" xmlns:xlink="http://www.w3.org/1999/xlink" viewBox="0 0 395.61 897.06"><defs><style>.cls-1{fill:#c7c7c7;}.cls-2{fill:#fafafa;}.cls-3{fill:#004b40;}.cls-4{fill:#cecece;}.cls-5{fill:#9b9b9b;}.cls-6{fill:#0e0a08;}.cls-7{fill:#1eeb00;}.cls-8{fill:url(#linear-gradient);}.cls-9{fill:url(#linear-gradient-2);}.cls-10{fill:url(#linear-gradient-3);}.cls-11{fill:#afff6a;}.cls-12{fill:#002d25;}.cls-13{fill:#c1bbba;}.cls-14{fill:#75777d;}.cls-15{fill:#f7f7f7;}.cls-16{fill:#141414;}.cls-17{fill:#fff;}.cls-18,.cls-19{fill:#1e1f1f;}.cls-18{fill-rule:evenodd;}</style><linearGradient id="linear-gradient" x1="150.72" y1="117.55" x2="150.72" y2="117.53" gradientUnits="userSpaceOnUse"><stop offset="0.28" stop-color="#1eeb00"/><stop offset="0.51" stop-color="#1ee700"/><stop offset="0.73" stop-color="#1edb00"/><stop offset="0.95" stop-color="#1ec700"/><stop offset="1" stop-color="#1ec200"/></linearGradient><linearGradient id="linear-gradient-2" x1="185.71" y1="112.12" x2="185.71" y2="105.41" xlink:href="#linear-gradient"/><linearGradient id="linear-gradient-3" x1="185.74" y1="247.81" x2="185.74" y2="115.39" xlink:href="#linear-gradient"/></defs><title>Chirp-android</title><g id="Layer_2" data-name="Layer 2"><g id="iOS"><polygon class="cls-1" points="309.4 342.81 67.64 342.81 85 307.48 87.53 302.33 92.85 291.5 95.3 286.52 268.53 286.52 272.14 291.49 277.13 298.36 283.17 306.68 286.11 310.73 309.4 342.81"/><path class="cls-2" d="M339.72,467l-8.86,60.32c-8.67-.79-17.91-1.49-26.39-2l-3-.17c-6.6-.38-12.6-.63-17.31-.71-6.51-.12-74-2.46-90.88-2.34-16.85-.12-84.36,2.22-90.87,2.34-4.72.08-10.71.33-17.31.71l-3,.17c-8.55.52-17.88,1.22-26.62,2L46.85,467Z"/><path class="cls-3" d="M308,490.09a5.51,5.51,0,0,0-4.18-1.88H82.75a5.48,5.48,0,0,0-4.18,1.89,5,5,0,0,0-1.17,4l4.7,31.2,3-.17-4.74-31.48a2,2,0,0,1,.48-1.58,2.47,2.47,0,0,1,1.91-.84H303.82a2.47,2.47,0,0,1,1.91.84,2,2,0,0,1,.48,1.58l-4.74,31.48,3,.17,4.7-31.2A5,5,0,0,0,308,490.09Z"/><polygon points="339.72 466.96 46.86 466.96 67.64 342.82 309.39 342.82 316.8 373.16 284.89 373.16 294.25 421.79 328.68 421.79 335.68 450.43 335.71 450.53 339.72 466.96"/><path class="cls-4" d="M358.33,373.16H284.89l9.35,48.63h76.33Zm-61.6,45.64-8.22-42.65H356l10.73,42.65Z"/><polygon class="cls-5" points="370.57 421.79 335.71 450.53 335.68 450.43 328.68 421.79 370.57 421.79"/><polygon class="cls-6" points="366.73 418.8 296.73 418.8 288.52 376.15 356 376.15 366.73 418.8"/><path class="cls-3" d="M276.84,445.89a3.71,3.71,0,0,1-2.87,1.35H92.61A3.76,3.76,0,0,1,88.9,443l10.89-77.19a3.77,3.77,0,0,1,3.71-3.23H260.31a3.75,3.75,0,0,1,3.7,3.09l13.66,77.19A3.75,3.75,0,0,1,276.84,445.89Z"/><path class="cls-7" d="M279.13,442.57l-13.64-77.19a5.26,5.26,0,0,0-5.18-4.34H103.5a5.27,5.27,0,0,0-5.19,4.52L87.42,442.75a5.25,5.25,0,0,0,5.19,6H274a5.22,5.22,0,0,0,4-1.89A5.11,5.11,0,0,0,279.13,442.57Zm-2.29,3.32a3.73,3.73,0,0,1-2.87,1.35H92.61A3.76,3.76,0,0,1,88.9,443l10.89-77.19a3.77,3.77,0,0,1,3.71-3.23H260.31a3.74,3.74,0,0,1,3.69,3.09l13.66,77.19A3.71,3.71,0,0,1,276.84,445.89Z"/><path id="Path_102" data-name="Path 102" class="cls-7" d="M233.14,411.85h-8L218.53,401h-.11v10.81h-6.56V392h6.56v6.79h.11l6.33-6.79h7.93l-7.59,7.71Z"/><path id="Path_103" data-name="Path 103" class="cls-7" d="M201.11,411.85V401c0-2.18-.58-4.2-2.93-4.2s-3.51,2-3.51,4.26v10.81h-6.61V392h6.32v1.84a8,8,0,0,1,5.92-2.41c5.35,0,7.25,4.14,7.25,8.17v12.3Z"/><g id="Group_62" data-name="Group 62"><path id="Path_104" data-name="Path 104" class="cls-7" d="M177.65,411V392.82l6.27-2.42v23Z"/><g id="Group_61" data-name="Group 61"><path id="Path_105" data-name="Path 105" class="cls-7" d="M163.44,391.32c-6,0-11,4-11,10.52,0,.23,0,.45,0,.67a10.48,10.48,0,0,0,11,10c6,0,11.1-4.08,11.1-10.64S169.42,391.32,163.44,391.32Zm4.77,11.44a4.73,4.73,0,1,1-9.42-.92,2.45,2.45,0,0,1,0-.27,4.73,4.73,0,0,1,4.67-4.79v0h.3a4.79,4.79,0,0,1,4.47,5.1A4.71,4.71,0,0,1,168.21,402.76Z"/><path id="Path_106" data-name="Path 106" class="cls-7" d="M147.29,405.29a5.18,5.18,0,1,1-.56-7.29,4.94,4.94,0,0,1,.56.56l3.62-4.14a10.58,10.58,0,0,0-15.07.1,10.72,10.72,0,0,0,0,14.74,10.57,10.57,0,0,0,15.07.12h0Z"/></g></g><path class="cls-8" d="M150.79,117.53l-.12,0a0,0,0,0,0,0,0Z"/><path class="cls-9" d="M151.35,113.92v-5.54q2.81-.6,5.63-1.09a165.64,165.64,0,0,1,55.31-.36q3.14.5,6.26,1.14L220,114a2.16,2.16,0,0,1,.06.42c-.06.06-.45.26-1.75.26l-12.74.21-44.71.72-7.74.13A1.79,1.79,0,0,1,151.35,113.92Z"/><path class="cls-10" d="M307,105.25c-1.66,4-4.07,10.33-6.33,17.67-1.22,4-2.19,7.54-3.12,11-2.92,10.76-5.07,18.61-11.77,26.91a145.1,145.1,0,0,0-15.48-30c2-3.18,7.42-9.76,19.8-15.59l-3.74-8c-20.61,9.7-25.18,21.91-25.37,22.43l-.81,2.28,1.48,1.9c.27.35,26.93,35.31,26.93,90,0,61.25-17.41,87.38-23.56,94.7L251.66,310l-10.74,8.16a42.39,42.39,0,0,1-7-11.59c3.71-1.08,7.4-2.25,11.05-3.59l-3-8.26a162.93,162.93,0,0,1-112.39,0l-3,8.26c3.65,1.34,7.34,2.51,11.06,3.59a42.42,42.42,0,0,1-7,11.59L119.79,310l-13.42,8.5c-6.17-7.22-23.52-33-23.52-94.72,0-54.65,26.65-89.61,26.92-89.95l1.49-1.91-.81-2.28c-.19-.51-4.76-12.73-25.37-22.43l-3.74,8c12.42,5.83,17.81,12.44,19.81,15.58a145.78,145.78,0,0,0-15.49,30c-6.69-8.31-8.84-16.16-11.76-26.92-.94-3.45-1.91-7-3.13-11-2.26-7.33-4.67-13.65-6.29-17.67,38.63-10.11,62,15.39,63,16.51l2,2.26,2.83-1.06a153.8,153.8,0,0,1,17.89-5.29,3.57,3.57,0,0,1,.47-.11c0,.06,0,.19-.06.39a4.72,4.72,0,0,0,2.54.74l65.18-1.06a10.13,10.13,0,0,0,1.54-.08c0-.07,0-.14,0-.21a4.54,4.54,0,0,1,.5.12,155.3,155.3,0,0,1,18.81,5.5L242,124l2-2.24C245,120.64,268.38,95.14,307,105.25Z"/><path id="Path_88" data-name="Path 88" class="cls-11" d="M185.71,219.51c9.63,0,28.48-10.92,35.91-27.47s-8.64-21.68-15-22.84a143.8,143.8,0,0,0-41.74,0c-6.4,1.16-22.43,6.34-15,22.84S176.08,219.51,185.71,219.51Z"/><path id="Path_89" data-name="Path 89" class="cls-3" d="M174.3,177.25a6.75,6.75,0,0,0-6.75,6.75v3.93a6.75,6.75,0,1,0,13.49,0V184A6.75,6.75,0,0,0,174.3,177.25Zm22.83,0a6.75,6.75,0,0,0-6.75,6.75v3.93a6.75,6.75,0,0,0,13.5,0V184A6.75,6.75,0,0,0,197.13,177.25Zm0,0a6.75,6.75,0,0,0-6.75,6.75v3.93a6.75,6.75,0,0,0,13.5,0V184A6.75,6.75,0,0,0,197.13,177.25Zm-22.83,0a6.75,6.75,0,0,0-6.75,6.75v3.93a6.75,6.75,0,1,0,13.49,0V184A6.75,6.75,0,0,0,174.3,177.25Zm51.78-.76c-4.32-8.19-14.52-10.85-18.7-11.62a147.71,147.71,0,0,0-43.33,0c-4.19.77-14.39,3.43-18.71,11.62-2.62,5-2.47,10.83.45,17.35,8.36,18.63,28.88,30.07,39.92,30.07s31.56-11.44,39.92-30.07C228.55,187.33,228.7,181.49,226.08,176.49Zm-40.37,38.62c-7.31,0-25-9.44-31.89-24.87-1.76-3.92-2-7.17-.68-9.66,2.05-3.9,7.79-6.2,12.49-7.06a139.36,139.36,0,0,1,40.17,0c4.69.86,10.44,3.16,12.49,7.06,1.31,2.49,1.08,5.74-.68,9.66C210.68,205.67,193,215.11,185.71,215.11Zm11.42-37.86a6.75,6.75,0,0,0-6.75,6.75v3.93a6.75,6.75,0,0,0,13.5,0V184A6.75,6.75,0,0,0,197.13,177.25Zm-22.83,0a6.75,6.75,0,0,0-6.75,6.75v3.93a6.75,6.75,0,1,0,13.49,0V184A6.75,6.75,0,0,0,174.3,177.25Zm0,0a6.75,6.75,0,0,0-6.75,6.75v3.93a6.75,6.75,0,1,0,13.49,0V184A6.75,6.75,0,0,0,174.3,177.25Zm22.83,0a6.75,6.75,0,0,0-6.75,6.75v3.93a6.75,6.75,0,0,0,13.5,0V184A6.75,6.75,0,0,0,197.13,177.25Zm-64.32-24.48a9.68,9.68,0,1,0,9.67,9.68A9.67,9.67,0,0,0,132.81,152.77Zm17.85-35.23a0,0,0,0,1,0,0l.12,0Zm23.64,59.71a6.75,6.75,0,0,0-6.75,6.75v3.93a6.75,6.75,0,1,0,13.49,0V184A6.75,6.75,0,0,0,174.3,177.25Zm22.83,0a6.75,6.75,0,0,0-6.75,6.75v3.93a6.75,6.75,0,0,0,13.5,0V184A6.75,6.75,0,0,0,197.13,177.25ZM220,114l-1.47-5.89-1.17-4.72c-2.06-.39-4.12-.75-6.19-1-2.9-.45-5.79-.81-8.71-1.1h-.08a170.19,170.19,0,0,0-37.14.42h0c-2.76.33-5.52.73-8.26,1.2q-2.82.48-5.63,1.06v10a1.79,1.79,0,0,0,1.79,1.78l7.74-.13a155.8,155.8,0,0,1,44.71-.72l12.74-.21c1.3,0,1.69-.2,1.75-.26A2.16,2.16,0,0,0,220,114Zm-22.89,63.29a6.75,6.75,0,0,0-6.75,6.75v3.93a6.75,6.75,0,0,0,13.5,0V184A6.75,6.75,0,0,0,197.13,177.25Zm-22.83,0a6.75,6.75,0,0,0-6.75,6.75v3.93a6.75,6.75,0,1,0,13.49,0V184A6.75,6.75,0,0,0,174.3,177.25Zm51.78-.76c-4.32-8.19-14.52-10.85-18.7-11.62a147.71,147.71,0,0,0-43.33,0c-4.19.77-14.39,3.43-18.71,11.62-2.62,5-2.47,10.83.45,17.35,8.36,18.63,28.88,30.07,39.92,30.07s31.56-11.44,39.92-30.07C228.55,187.33,228.7,181.49,226.08,176.49Zm-40.37,38.62c-7.31,0-25-9.44-31.89-24.87-1.76-3.92-2-7.17-.68-9.66,2.05-3.9,7.79-6.2,12.49-7.06a139.36,139.36,0,0,1,40.17,0c4.69.86,10.44,3.16,12.49,7.06,1.31,2.49,1.08,5.74-.68,9.66C210.68,205.67,193,215.11,185.71,215.11Zm11.42-37.86a6.75,6.75,0,0,0-6.75,6.75v3.93a6.75,6.75,0,0,0,13.5,0V184A6.75,6.75,0,0,0,197.13,177.25Zm-22.83,0a6.75,6.75,0,0,0-6.75,6.75v3.93a6.75,6.75,0,1,0,13.49,0V184A6.75,6.75,0,0,0,174.3,177.25Zm64.32-24.48a9.68,9.68,0,1,0,9.68,9.68A9.67,9.67,0,0,0,238.62,152.77Zm-105.81,0a9.68,9.68,0,1,0,9.67,9.68A9.67,9.67,0,0,0,132.81,152.77Zm41.49,24.48a6.75,6.75,0,0,0-6.75,6.75v3.93a6.75,6.75,0,1,0,13.49,0V184A6.75,6.75,0,0,0,174.3,177.25Zm22.83,0a6.75,6.75,0,0,0-6.75,6.75v3.93a6.75,6.75,0,0,0,13.5,0V184A6.75,6.75,0,0,0,197.13,177.25Zm0,0a6.75,6.75,0,0,0-6.75,6.75v3.93a6.75,6.75,0,0,0,13.5,0V184A6.75,6.75,0,0,0,197.13,177.25Zm-22.83,0a6.75,6.75,0,0,0-6.75,6.75v3.93a6.75,6.75,0,1,0,13.49,0V184A6.75,6.75,0,0,0,174.3,177.25Zm51.78-.76c-4.32-8.19-14.52-10.85-18.7-11.62a147.71,147.71,0,0,0-43.33,0c-4.19.77-14.39,3.43-18.71,11.62-2.62,5-2.47,10.83.45,17.35,8.36,18.63,28.88,30.07,39.92,30.07s31.56-11.44,39.92-30.07C228.55,187.33,228.7,181.49,226.08,176.49Zm-40.37,38.62c-7.31,0-25-9.44-31.89-24.87-1.76-3.92-2-7.17-.68-9.66,2.05-3.9,7.79-6.2,12.49-7.06a139.36,139.36,0,0,1,40.17,0c4.69.86,10.44,3.16,12.49,7.06,1.31,2.49,1.08,5.74-.68,9.66C210.68,205.67,193,215.11,185.71,215.11Zm11.42-37.86a6.75,6.75,0,0,0-6.75,6.75v3.93a6.75,6.75,0,0,0,13.5,0V184A6.75,6.75,0,0,0,197.13,177.25Zm-22.83,0a6.75,6.75,0,0,0-6.75,6.75v3.93a6.75,6.75,0,1,0,13.49,0V184A6.75,6.75,0,0,0,174.3,177.25Zm64.32-24.48a9.68,9.68,0,1,0,9.68,9.68A9.67,9.67,0,0,0,238.62,152.77ZM174.3,177.25a6.75,6.75,0,0,0-6.75,6.75v3.93a6.75,6.75,0,1,0,13.49,0V184A6.75,6.75,0,0,0,174.3,177.25Zm-41.49-24.48a9.68,9.68,0,1,0,9.67,9.68A9.67,9.67,0,0,0,132.81,152.77Zm64.32,24.48a6.75,6.75,0,0,0-6.75,6.75v3.93a6.75,6.75,0,0,0,13.5,0V184A6.75,6.75,0,0,0,197.13,177.25Zm41.49-24.48a9.68,9.68,0,1,0,9.68,9.68A9.67,9.67,0,0,0,238.62,152.77Z"/><path class="cls-3" d="M315.67,94.06a85,85,0,0,0-26.37-4.34,78.05,78.05,0,0,0-50.78,19,168.07,168.07,0,0,0-17.9-4.76l-1.4-5.63a4.75,4.75,0,0,0-4.63-3.62h0l-61.45.48a4.79,4.79,0,0,0-4.75,4.77v4.53q-7.8,1.74-15.45,4.23a78.05,78.05,0,0,0-50.78-19,85.08,85.08,0,0,0-26.38,4.34l-9.31,3,4,8.93a202,202,0,0,1,7.68,20.77c1.15,3.75,2.09,7.22,3,10.57,3.29,12.1,6.17,22.73,16.23,34.11a179.81,179.81,0,0,0-7.73,52.33c0,33.43,4.84,61.3,14.38,82.84,7.43,16.78,15.18,23.54,16,24.26L105,335l5.42-3.44,8.68-5.5,6.68,5.08,6.52,5,5.41-6.16a75.69,75.69,0,0,0,10.62-16.06,175.44,175.44,0,0,0,74.82,0A75.69,75.69,0,0,0,233.75,330l5.41,6.15,6.52-5,6.68-5.07,8.68,5.5,5.42,3.43,4.92-4.1c.86-.72,8.61-7.48,16-24.26,9.54-21.54,14.38-49.41,14.38-82.84a179.76,179.76,0,0,0-7.73-52.33c10.06-11.39,12.94-22,16.23-34.13.91-3.35,1.85-6.81,3-10.56A201.11,201.11,0,0,1,321,106l4-8.93ZM151.35,100a1.79,1.79,0,0,1,1.79-1.78l61.43-.47h0a1.77,1.77,0,0,1,1.73,1.34l1.06,4.26,1.17,4.72L220,114a2.16,2.16,0,0,1,.06.42c-.06.06-.45.26-1.75.26l-12.74.21-44.71.72-7.74.13a1.79,1.79,0,0,1-1.79-1.78Zm149.33,22.92c-1.22,4-2.19,7.54-3.12,11-2.92,10.76-5.07,18.61-11.77,26.91a145.1,145.1,0,0,0-15.48-30c2-3.18,7.42-9.76,19.8-15.59l-3.74-8c-20.61,9.7-25.18,21.91-25.37,22.43l-.81,2.28,1.48,1.9c.27.35,26.93,35.31,26.93,90,0,61.25-17.41,87.38-23.56,94.7L251.66,310l-10.74,8.16a42.39,42.39,0,0,1-7-11.59c3.71-1.08,7.4-2.25,11.05-3.59l-3-8.26a162.93,162.93,0,0,1-112.39,0l-3,8.26c3.65,1.34,7.34,2.51,11.06,3.59a42.42,42.42,0,0,1-7,11.59L119.79,310l-13.42,8.5c-6.17-7.22-23.52-33-23.52-94.72,0-54.65,26.65-89.61,26.92-89.95l1.49-1.91-.81-2.28c-.19-.51-4.76-12.73-25.37-22.43l-3.74,8c12.42,5.83,17.81,12.44,19.81,15.58a145.78,145.78,0,0,0-15.49,30c-6.69-8.31-8.84-16.16-11.76-26.92-.94-3.45-1.91-7-3.13-11-2.26-7.33-4.67-13.65-6.29-17.67,38.63-10.11,62,15.39,63,16.51l2,2.26,2.83-1.06a153.8,153.8,0,0,1,17.89-5.29,3.57,3.57,0,0,1,.47-.11,0,0,0,0,0,0,0h.13l-.12,0c0,.06,0,.19-.06.39a4.72,4.72,0,0,0,2.54.74l65.18-1.06a10.13,10.13,0,0,0,1.54-.08c0-.07,0-.14,0-.21a4.54,4.54,0,0,1,.5.12,155.3,155.3,0,0,1,18.81,5.5L242,124l2-2.24c1-1.13,24.38-26.63,63-16.52C305.35,109.27,302.94,115.58,300.68,122.92Z"/><path class="cls-12" d="M150.67,117.56a0,0,0,0,0,0,0h.13Z"/><path class="cls-12" d="M211.37,122.16c-16.24-2.35-48.47-.43-55.73,1.12-6.26,1.34-5.31-3.82-5-5.33a4.72,4.72,0,0,0,2.54.74l65.18-1.06a10.13,10.13,0,0,0,1.54-.08C220.08,122.35,217.38,122.7,211.37,122.16Z"/><path class="cls-13" d="M220.08,114.38c-.06.06-.45.26-1.75.26l-12.74.21-44.71.72-7.74.13a1.79,1.79,0,0,1-1.79-1.78V100a1.79,1.79,0,0,1,1.79-1.78l61.43-.47h0a1.77,1.77,0,0,1,1.73,1.34l1.06,4.26,1.17,4.72L220,114A2.16,2.16,0,0,1,220.08,114.38Z"/><path class="cls-3" d="M219.86,117.34c0,.07,0,.14,0,.21l.49-.09A4.54,4.54,0,0,0,219.86,117.34Zm-69.19.22.12,0h-.13A0,0,0,0,1,150.67,117.56Zm-.06.39c0-.2.06-.33.06-.39a3.57,3.57,0,0,0-.47.11A3.71,3.71,0,0,0,150.61,118Z"/><path id="Path_100" data-name="Path 100" class="cls-14" d="M213.28,111.13l-56.3.38v-9.8l53.93-.6Z"/><path class="cls-15" d="M271.54,0V91.84a78,78,0,0,0-33,16.92,168.07,168.07,0,0,0-17.9-4.76l-1.4-5.63a4.77,4.77,0,0,0-4.64-3.62h0l-61.45.48a4.78,4.78,0,0,0-4.74,4.77v4.52q-7.8,1.74-15.46,4.24a78,78,0,0,0-33-16.92V0Z"/><path id="Path_214" data-name="Path 214" class="cls-16" d="M395.61,560.05V896.8H0V560.05s0-14.51,10.27-21.83c9.43-6.89,17.09-7.92,27.92-9.48,18.14-2.59,51.77-5,68.74-5.34,6.5-.12,74-2.46,90.86-2.34,16.86-.12,84.38,2.22,90.89,2.34,17,.3,50.58,2.75,68.74,5.34,10.81,1.56,18.49,2.59,27.9,9.48C395.61,545.53,395.61,560.05,395.61,560.05Z"/><rect id="Rectangle_10" data-name="Rectangle 10" class="cls-17" x="26.31" y="579.11" width="342.3" height="317.94"/><path id="Speaker" class="cls-18" d="M159.23,545.9h77.15a4.79,4.79,0,0,1,0,9.58H159.23a4.79,4.79,0,1,1,0-9.58Z"/><path id="Front_camera" data-name="Front camera" class="cls-19" d="M90.37,547.51a5.67,5.67,0,1,1,2.14,7.74h0A5.67,5.67,0,0,1,90.37,547.51Z"/></g></g></svg>