<svg xmlns="http://www.w3.org/2000/svg" width="88" height="88" viewBox="0 0 88 88">
  <g id="Icono_sonido" data-name="Icono sonido" transform="translate(-152.738 -729.738)">
    <circle id="Ellipse_12" data-name="Ellipse 12" cx="44" cy="44" r="44" transform="translate(152.738 729.738)" fill="#1eeb00" opacity="0.52"/>
    <circle id="Ellipse_13" data-name="Ellipse 13" cx="44" cy="44" r="44" transform="translate(152.738 729.738)" fill="#1eeb00"/>
    <g id="speaker" transform="translate(170.093 752.445)">
      <path id="Path_94" data-name="Path 94" d="M25.228,7.713a2.69,2.69,0,0,0-2.744.039.825.825,0,0,0-.115.083L10.333,18.016H.888A.887.887,0,0,0,0,18.9V35.78a.889.889,0,0,0,.888.888l9.424,0L22.34,47.712a.867.867,0,0,0,.143.107,2.69,2.69,0,0,0,2.744.039,2.773,2.773,0,0,0,1.418-2.448V10.161A2.775,2.775,0,0,0,25.228,7.713Zm-.359,37.7a1.019,1.019,0,0,1-.514.9.931.931,0,0,1-.888.023l-11.92-10.95V31.338a.888.888,0,0,0-1.776,0v3.549l-7.994,0v-15.1H9.77v3.553a.888.888,0,1,0,1.776,0V19.315L23.452,9.243a.928.928,0,0,1,.9.016,1.019,1.019,0,0,1,.514.9Z" transform="translate(0 -6.414)" fill="#fff"/>
      <path id="Path_95" data-name="Path 95" d="M50.4,27.789a17.3,17.3,0,0,0-11.75-16.384.889.889,0,1,0-.571,1.683,15.527,15.527,0,0,1,.02,29.405.889.889,0,0,0,.287,1.729.876.876,0,0,0,.287-.048A17.312,17.312,0,0,0,50.4,27.789Z" transform="translate(-4.19 -6.861)" fill="#fff"/>
      <path id="Path_96" data-name="Path 96" d="M44.217,6.365A.889.889,0,1,0,43.524,8a20.876,20.876,0,0,1-.61,38.686.889.889,0,0,0,.642,1.657,22.653,22.653,0,0,0,.662-41.979Z" transform="translate(-4.735 -6.295)" fill="#fff"/>
      <path id="Path_97" data-name="Path 97" d="M41.793,28.4a12.044,12.044,0,0,0-8.659-11.513.888.888,0,0,0-.492,1.707,10.206,10.206,0,0,1,0,19.611.888.888,0,0,0,.246,1.742.9.9,0,0,0,.246-.035A12.044,12.044,0,0,0,41.793,28.4Z" transform="translate(-3.578 -7.476)" fill="#fff"/>
    </g>
  </g>
</svg>
