<svg xmlns="http://www.w3.org/2000/svg" width="83.344" height="65.855" viewBox="0 0 83.344 65.855">
  <g id="speaker" transform="translate(0 -6.295)">
    <path id="Path_94" data-name="Path 94" d="M39.455,7.914a4.207,4.207,0,0,0-4.292.061,1.29,1.29,0,0,0-.181.129L16.16,24.028H1.389A1.388,1.388,0,0,0,0,25.417V51.809A1.39,1.39,0,0,0,1.389,53.2l14.738-.007,18.812,17.28a1.356,1.356,0,0,0,.224.167,4.208,4.208,0,0,0,4.292.061,4.337,4.337,0,0,0,2.217-3.828V11.743A4.34,4.34,0,0,0,39.455,7.914ZM38.894,66.87a1.594,1.594,0,0,1-.8,1.41,1.457,1.457,0,0,1-1.389.036L18.058,51.191V44.862a1.389,1.389,0,1,0-2.778,0v5.551l-12.5.006V26.8h12.5v5.556a1.389,1.389,0,0,0,2.778,0v-6.3l18.62-15.752a1.451,1.451,0,0,1,1.411.025,1.594,1.594,0,0,1,.8,1.41Z" transform="translate(0 0.413)" fill="#ccc"/>
    <path id="Path_95" data-name="Path 95" d="M57.687,37.056A27.058,27.058,0,0,0,39.311,11.432a1.39,1.39,0,1,0-.893,2.632,24.284,24.284,0,0,1,.032,45.988,1.39,1.39,0,0,0,.449,2.7,1.37,1.37,0,0,0,.449-.075A27.075,27.075,0,0,0,57.687,37.056Z" transform="translate(14.58 1.97)" fill="#ccc"/>
    <path id="Path_96" data-name="Path 96" d="M45.273,6.4a1.39,1.39,0,1,0-1.085,2.559,32.648,32.648,0,0,1-.954,60.5,1.39,1.39,0,0,0,1,2.592A35.428,35.428,0,0,0,45.273,6.4Z" transform="translate(16.475 0)" fill="#ccc"/>
    <path id="Path_97" data-name="Path 97" d="M47.316,34.916A18.836,18.836,0,0,0,33.774,16.911a1.389,1.389,0,0,0-.77,2.67,15.961,15.961,0,0,1,0,30.67,1.389,1.389,0,0,0,.385,2.724,1.414,1.414,0,0,0,.385-.054A18.836,18.836,0,0,0,47.316,34.916Z" transform="translate(12.45 4.109)" fill="#ccc"/>
  </g>

  <animate id="animation1" attributeName="opacity" from="1" to="0" dur="1s" begin="0s;animation2.end"/>
  <animate id="animation2" attributeName="opacity" from="0" to="1" dur="1s" begin="animation1.end"/>

</svg>
