<svg xmlns="http://www.w3.org/2000/svg" width="58.019" height="51" viewBox="0 0 58.019 51">
  <g id="Group_6053" data-name="Group 6053" transform="translate(-17 -563)">
    <circle id="Ellipse_640" data-name="Ellipse 640" cx="25.5" cy="25.5" r="25.5" transform="translate(17 563)" fill="#f3f3f3"/>
    <g id="Marrano_Profe" data-name="Marrano Profe" transform="translate(-56 64.669)">
      <path id="Path_271" data-name="Path 271" d="M1412.661,229.006l-1.856,1.4-.414-.414a8.407,8.407,0,0,1-1.808-2.776,26.279,26.279,0,0,1-12.075,0,8.4,8.4,0,0,1-1.808,2.776l-.414.414-1.856-1.4-2.371,1.49-.316-.7a57.561,57.561,0,0,1-4.21-21.215,50.82,50.82,0,0,1,1.984-12.694c-2-2-2.691-4.316-3.416-6.762-.114-.383-.229-.772-.351-1.165a31.141,31.141,0,0,0-1.2-3.217l-.306-.675.709-.229a12.377,12.377,0,0,1,3.81-.624,11.218,11.218,0,0,1,7.58,2.968,25.467,25.467,0,0,1,16.4,0,11.217,11.217,0,0,1,7.581-2.968,12.378,12.378,0,0,1,3.81.624l.709.229-.306.675a31.025,31.025,0,0,0-1.2,3.217c-.122.393-.237.782-.351,1.165-.725,2.445-1.412,4.762-3.415,6.761a50.18,50.18,0,0,1,1.984,12.695,57.563,57.563,0,0,1-4.21,21.215l-.316.7Z" transform="translate(-1303.999 316.597)" fill="#7df57d"/>
      <path id="Path_272" data-name="Path 272" d="M1420.985,182.207a13.062,13.062,0,0,0-4.018-.656,11.934,11.934,0,0,0-7.735,2.877,26.2,26.2,0,0,0-16.089,0,11.938,11.938,0,0,0-7.735-2.877,13.056,13.056,0,0,0-4.018.656l-1.419.459.613,1.35a30.373,30.373,0,0,1,1.169,3.14c.12.388.236.778.348,1.156.718,2.421,1.4,4.721,3.316,6.767a50.775,50.775,0,0,0-1.911,12.5,57.139,57.139,0,0,0,4.268,21.487l.632,1.4,1.308-.822,1.324-.832,1.017.767.936.706.827-.829a9.535,9.535,0,0,0,1.743-2.469,26.934,26.934,0,0,0,11.253,0,9.51,9.51,0,0,0,1.743,2.469l.827.829.936-.706,1.017-.767,1.324.832,1.308.822.632-1.4a57.139,57.139,0,0,0,4.269-21.487,50.174,50.174,0,0,0-1.91-12.5c1.914-2.046,2.6-4.344,3.314-6.765.112-.378.228-.769.348-1.157a30.554,30.554,0,0,1,1.169-3.14l.611-1.35Zm-2.759,6.163a11.592,11.592,0,0,1-2.413,5.2c-.786-2.743-1.527-4.819-1.8-5.553a6.749,6.749,0,0,1,3.075-2.451l-.571-1.2c-3.139,1.466-3.836,3.312-3.864,3.39l-.083.23.087.229c.042.11,4.2,11.142,4.2,19.531a56.931,56.931,0,0,1-3.8,19.959l-1.829-1.15-1.635,1.234a6.42,6.42,0,0,1-1.072-1.752c.565-.164,1.127-.341,1.684-.544l-.461-1.248a25.015,25.015,0,0,1-17.121,0l-.461,1.248c.556.2,1.118.379,1.684.544a6.427,6.427,0,0,1-1.073,1.752l-1.635-1.234-1.83,1.15a56.864,56.864,0,0,1-3.8-19.959c0-8.389,4.157-19.421,4.2-19.531l.087-.229-.083-.23c-.028-.078-.725-1.924-3.864-3.39l-.571,1.2a6.758,6.758,0,0,1,3.076,2.45c-.27.733-1.012,2.811-1.8,5.554a11.587,11.587,0,0,1-2.413-5.2c-.147-.529-.3-1.075-.475-1.643-.344-1.109-.711-2.063-.959-2.671a9.8,9.8,0,0,1,9.6,2.5l.3.342.431-.159a24.052,24.052,0,0,1,16.279,0l.43.159.3-.342a9.936,9.936,0,0,1,9.6-2.495c-.248.608-.615,1.562-.959,2.67C1418.525,187.3,1418.374,187.842,1418.227,188.371Z" transform="translate(-1302.64 317.595)" fill="#004a3d"/>
      <path id="Path_273" data-name="Path 273" d="M1404.778,250.705l-1.328.173c.324,2.443.485,4.315.561,5.368l-1.852-.587-1.371,1.459c-.541-.974-1.525-2.828-2.654-5.351l-1.224.54a62.382,62.382,0,0,0,3.172,6.269l.458.757,2.021-2.15,2.888.915-.04-.95C1405.4,257.046,1405.3,254.634,1404.778,250.705Z" transform="translate(-1312.756 276.079)" fill="#004a3d"/>
      <path id="Path_274" data-name="Path 274" d="M1412.452,209.273a1.463,1.463,0,1,0-1.474-1.463A1.468,1.468,0,0,0,1412.452,209.273Z" transform="translate(-1321.158 302.709)" fill="#004a3d"/>
      <path id="Path_275" data-name="Path 275" d="M1448.472,209.273a1.463,1.463,0,1,0-1.474-1.463A1.468,1.468,0,0,0,1448.472,209.273Z" transform="translate(-1342.67 302.709)" fill="#004a3d"/>
      <path id="Path_276" data-name="Path 276" d="M1454.479,264.845" transform="translate(-1347.138 267.59)" fill="#7df57d"/>
      <path id="Path_277" data-name="Path 277" d="M1467.938,179.177s-1.378-.742.481-2.047,18.344-11.191,18.344-11.191,1.241.045.545.831-17.727,12.854-17.727,12.854S1468.381,179.695,1467.938,179.177Z" transform="translate(-1356.502 343.977)" fill="#fbb040"/>
      <path id="Path_278" data-name="Path 278" d="M1454.451,237.659l1.864.549c-.66.828-1.855,2.285-3.509,4.123l1,.885c2.659-2.956,4.115-4.891,4.176-4.972l.572-.763-2.907-.857-.45-2.906-.807.37a63.522,63.522,0,0,0-6.179,3.41l.706,1.13c2.365-1.454,4.23-2.438,5.23-2.941Z" transform="translate(-1343.394 286.277)" fill="#004a3d"/>
      <path id="Path_279" data-name="Path 279" d="M1405.805,199.446a10.249,10.249,0,0,1,4.006.782,1.572,1.572,0,0,0,.652.04c1.123,0,2.245.006,3.368,0a1.878,1.878,0,0,0,.729-.078c1.971-.939,4.092-.66,6.177-.484,1.364.115,2.7.408,4.062.574.639.078,1.1.283,1.171.811.07.491-.27.82-.845.98a1.178,1.178,0,0,0-.964,1.165c-.034.548-.048,1.1-.134,1.641a3.272,3.272,0,0,1-2.9,2.79,11.131,11.131,0,0,1-3.083.185c-2.476-.23-3.7-1.363-4.173-3.63-.084-.406-.124-.819-.226-1.222a1.351,1.351,0,0,0-1.471-1.013,1.368,1.368,0,0,0-1.5.986c-.139.49-.185,1-.31,1.488-.733,2.907-2.715,3.629-6.019,3.347-2.988-.255-4.195-1.485-4.166-3.965a1.637,1.637,0,0,0-1.3-1.921.913.913,0,0,1-.508-.828,1.21,1.21,0,0,1,.808-.733c1.091-.208,2.16-.468,3.27-.616S1405.4,199.45,1405.805,199.446Zm-.12.987a15.174,15.174,0,0,0-2.063.151c-1.825.291-2.659,1.1-2.718,2.6-.012.294.086.591.087.886.015,2.405,3.47,3.724,6.029,2.642,1.87-.79,3.135-3.084,2.6-4.75a2,2,0,0,0-1.731-1.342A18.925,18.925,0,0,0,1405.685,200.433Zm12.783.038h0c-.45,0-.9-.021-1.35,0-1.573.087-2.569.727-2.662,1.862a4.236,4.236,0,0,0,1.67,3.823,4.526,4.526,0,0,0,3.42.865c2.95-.333,4.111-1.941,3.5-4.741a2.106,2.106,0,0,0-1.756-1.523A18.7,18.7,0,0,0,1418.468,200.471Z" transform="translate(-1313.621 306.852)" fill="#004a3d"/>
      <path id="Path_280" data-name="Path 280" d="M1424.1,219.821c1.467,0,4.339-1.651,5.47-4.153s-1.315-3.276-2.29-3.453a22.081,22.081,0,0,0-6.36,0c-.974.177-3.417.959-2.29,3.453S1422.638,219.821,1424.1,219.821Z" transform="translate(-1325.557 299.324)" fill="#7fff5d"/>
      <path id="Path_281" data-name="Path 281" d="M1429.257,212.319a4.056,4.056,0,0,0-2.848-1.756,22.719,22.719,0,0,0-6.6,0,4.057,4.057,0,0,0-2.849,1.756,2.877,2.877,0,0,0,.067,2.622c1.274,2.816,4.4,4.545,6.082,4.545s4.807-1.729,6.081-4.545A2.877,2.877,0,0,0,1429.257,212.319Zm-1.29,2.078a5.019,5.019,0,0,1-9.718,0,1.645,1.645,0,0,1-.1-1.459,2.758,2.758,0,0,1,1.9-1.068,21.443,21.443,0,0,1,6.119,0,2.76,2.76,0,0,1,1.9,1.068A1.646,1.646,0,0,1,1427.968,214.4Z" transform="translate(-1324.561 300.323)" fill="#004a3d"/>
      <path id="Path_282" data-name="Path 282" d="M1435.069,215.609a1.009,1.009,0,0,0-1.007,1.02v.594a1.007,1.007,0,1,0,2.014,0v-.594A1.009,1.009,0,0,0,1435.069,215.609Z" transform="translate(-1334.945 297.149)" fill="#004a3d"/>
      <path id="Path_283" data-name="Path 283" d="M1427.07,215.609a1.009,1.009,0,0,0-1.007,1.02v.594a1.007,1.007,0,1,0,2.014,0v-.594A1.009,1.009,0,0,0,1427.07,215.609Z" transform="translate(-1330.167 297.149)" fill="#004a3d"/>
      <path id="Path_284" data-name="Path 284" d="M1430.915,256.128a15.394,15.394,0,0,1-.522,4.132,6.9,6.9,0,0,1-2.682,3.583c-.375-.72-.778-1.427-1.134-2.159a5.381,5.381,0,0,1-.743-2.613,10.638,10.638,0,0,1,.832-2.378c.362-1.014.679-2.043.963-3.079.421-1.537.8-3.1,1.156-4.657.157-.686.515-1.886.093-2.582a1.094,1.094,0,0,0,.552.242.966.966,0,0,0,.793-.347C1431.372,249.342,1430.986,252.913,1430.915,256.128Z" transform="translate(-1330.025 278.742)" fill="#004a3d"/>
      <path id="Path_285" data-name="Path 285" d="M1434.225,240.324c-.28.511-.66,1.555-1.3,1.571-.6.014-1.052-1.136-1.3-1.655.38-.32.748-.657,1.114-.98.038.019.085-.069.129-.1s.072.238.112-.162h0c.047.4.22.278.231.3A5.083,5.083,0,0,0,1434.225,240.324Z" transform="translate(-1333.493 283.106)" fill="#004a3d"/>
    </g>
  </g>
</svg>
