<?xml version="1.0" encoding="utf-8"?>
<!-- Generator: Adobe Illustrator 16.0.0, SVG Export Plug-In . SVG Version: 6.00 Build 0)  -->
<!DOCTYPE svg PUBLIC "-//W3C//DTD SVG 1.1//EN" "http://www.w3.org/Graphics/SVG/1.1/DTD/svg11.dtd">
<svg version="1.1" id="Capa_1" xmlns="http://www.w3.org/2000/svg" xmlns:xlink="http://www.w3.org/1999/xlink" x="0px" y="0px"
	 width="67.317px" height="60px" viewBox="0 0 67.317 60" enable-background="new 0 0 67.317 60" xml:space="preserve">
<g>
	<defs>
		<path id="SVGID_1_" d="M8.946,17.314v25.634c0.008,3.842,3.586,6.984,7.963,6.99l33.679,0.002c4.379-0.008,7.955-3.15,7.964-6.992
			V17.314c-0.009-3.844-3.585-6.985-7.964-6.991l-33.679-0.001C12.532,10.329,8.954,13.47,8.946,17.314"/>
	</defs>
	<clipPath id="SVGID_2_">
		<use xlink:href="#SVGID_1_"  overflow="visible"/>
	</clipPath>
	
		<linearGradient id="SVGID_3_" gradientUnits="userSpaceOnUse" x1="-27.2324" y1="432.5322" x2="-26.2324" y2="432.5322" gradientTransform="matrix(40.1908 38.5054 38.5054 -40.1908 -15546.5361 18443.3945)">
		<stop  offset="0" style="stop-color:#FFD815"/>
		<stop  offset="0.3407" style="stop-color:#F6E84A"/>
		<stop  offset="0.6813" style="stop-color:#FFB000"/>
		<stop  offset="1" style="stop-color:#FFDD36"/>
	</linearGradient>
	<polygon clip-path="url(#SVGID_2_)" fill="url(#SVGID_3_)" points="32.687,-14.458 78.342,29.283 34.811,74.72 -10.845,30.979 	"/>
</g>
<path fill="#84480E" d="M53.958,28.816v-7.175h4.593v-0.501h-4.593v-1.475h-0.55v1.475h-9.632c-0.191-0.018-0.487-0.04-0.846-0.04
	c-0.793,0.004-1.885,0.11-2.578,0.695c-0.223,0.271-0.673,0.378-0.673,0.378c-0.376,0.142-0.791,0.221-1.228,0.221
	c-1.732-0.002-3.132-1.231-3.134-2.751c0-0.854,0.442-1.616,1.14-2.121l0.274-0.199c0.043-0.027,0.085-0.056,0.12-0.086
	c0.658-0.553,2.622-2.244,2.865-3.814h12.781c0.408,0.03,0.636,0.34,0.777,0.736c0.132,0.385,0.135,0.769,0.135,0.77v3.331h0.549
	V14.93c-0.002-0.013,0.001-0.443-0.159-0.909c-0.064-0.196-0.171-0.409-0.327-0.597h3.718c-0.129-0.166-0.268-0.326-0.41-0.482
	H34.045v-2.619h-0.548v2.619H10.718c-0.143,0.156-0.282,0.316-0.41,0.482h3.519c-0.157,0.188-0.262,0.401-0.327,0.597
	c-0.16,0.466-0.157,0.896-0.158,0.909v3.331h0.549V14.93c0-0.001,0.002-0.385,0.135-0.77c0.14-0.396,0.368-0.706,0.776-0.736h12.968
	c0.25,1.567,2.208,3.252,2.863,3.804c0.036,0.03,0.078,0.059,0.121,0.087l0.275,0.198c0.697,0.505,1.139,1.267,1.139,2.121
	c-0.002,1.52-1.402,2.749-3.133,2.751c-0.438,0-0.853-0.079-1.23-0.221c0,0-0.449-0.107-0.672-0.378
	c-0.693-0.585-1.784-0.691-2.578-0.695c-0.431,0-0.771,0.031-0.941,0.05h-9.723v-1.475h-0.549v1.475H8.946v0.491h4.396v7.185h0.549
	v-7.185h9.682h0.004h0.32c0.409,0.029,0.638,0.34,0.778,0.736c0.132,0.385,0.135,0.769,0.135,0.77v5.176
	c0,0-0.003,0.385-0.135,0.769c-0.14,0.397-0.369,0.708-0.778,0.737H8.946v0.491h14.951c0.409,0.029,0.638,0.34,0.778,0.736
	c0.132,0.384,0.135,0.769,0.135,0.77v5.175c0,0.001-0.003,0.386-0.135,0.77c-0.14,0.396-0.369,0.707-0.778,0.736h-0.32h-0.004
	h-9.682v-7.272h-0.549v7.272H8.946v0.491h4.396v1.388h0.549v-1.388h9.723c0.17,0.02,0.51,0.05,0.941,0.05
	c0.794-0.004,1.885-0.11,2.578-0.694c0.223-0.272,0.672-0.378,0.672-0.378c0.377-0.143,0.792-0.222,1.23-0.222
	c1.731,0.002,3.131,1.232,3.133,2.752c0,0.854-0.442,1.615-1.139,2.12l-0.275,0.199c-0.043,0.027-0.085,0.057-0.121,0.087
	c-0.662,0.557-2.651,2.271-2.868,3.852H14.803c-0.408-0.03-0.636-0.34-0.776-0.736c-0.133-0.384-0.135-0.769-0.135-0.77v-3.33
	h-0.549v3.33c0.001,0.013-0.002,0.444,0.158,0.909c0.065,0.197,0.17,0.41,0.327,0.597H10.25c0.125,0.166,0.258,0.326,0.398,0.482
	h22.849v2.702h0.548v-2.702H56.85c0.139-0.156,0.273-0.316,0.397-0.482h-3.775c0.156-0.187,0.263-0.4,0.327-0.597
	c0.16-0.465,0.157-0.896,0.159-0.909v-3.33h-0.549v3.33c0,0.001-0.003,0.386-0.135,0.77c-0.141,0.396-0.369,0.706-0.777,0.736H39.72
	c-0.217-1.581-2.205-3.295-2.869-3.852c-0.035-0.03-0.077-0.06-0.12-0.087l-0.274-0.199c-0.698-0.505-1.14-1.266-1.14-2.12
	c0.002-1.52,1.402-2.75,3.134-2.752c0.437,0,0.852,0.079,1.228,0.222c0,0,0.45,0.106,0.673,0.378
	c0.693,0.584,1.785,0.69,2.578,0.694c0.359,0,0.655-0.021,0.846-0.04h9.632v1.378h0.55v-1.378h4.593v-0.501h-4.593v-7.272h-0.55
	v7.272h-9.495h-0.005h-0.319c-0.41-0.029-0.638-0.34-0.779-0.736c-0.132-0.384-0.135-0.769-0.135-0.77v-5.165
	c0-0.001,0.003-0.386,0.135-0.77c0.141-0.396,0.369-0.707,0.779-0.737H58.55v-0.5H43.588c-0.41-0.029-0.638-0.34-0.779-0.737
	c-0.132-0.384-0.135-0.769-0.135-0.769v-5.166c0-0.001,0.003-0.385,0.135-0.769c0.141-0.397,0.369-0.708,0.779-0.737h0.319
	l0.005,0.001v-0.001h9.495v7.175H53.958z M42.854,30.069c-0.301,0.22-0.477,0.544-0.57,0.828c-0.159,0.465-0.157,0.896-0.159,0.909
	v5.205c0.002,0.013,0,0.443,0.159,0.909c0.068,0.207,0.182,0.434,0.355,0.628c-0.491-0.019-1.03-0.094-1.451-0.274l-0.471-0.324
	c-0.624-0.429-1.412-0.688-2.267-0.688c-2.035,0-3.684,1.448-3.684,3.234c0,1.096,0.624,2.064,1.573,2.649l0.17,0.103
	c0.285,0.244,0.752,0.662,1.219,1.164c0.68,0.721,1.328,1.624,1.441,2.342H28.314c0.114-0.718,0.763-1.621,1.441-2.342
	c0.468-0.502,0.935-0.92,1.22-1.164l0.17-0.103c0.949-0.585,1.573-1.553,1.573-2.649c0-1.786-1.648-3.234-3.683-3.234
	c-0.856,0-1.644,0.259-2.267,0.688l-0.473,0.324c-0.422,0.181-0.965,0.256-1.458,0.274c0.177-0.195,0.294-0.427,0.363-0.638
	c0.16-0.466,0.157-0.896,0.158-0.909v-5.195c-0.001-0.013,0.002-0.444-0.158-0.909c-0.094-0.286-0.271-0.613-0.576-0.832
	c0.305-0.221,0.482-0.548,0.576-0.833c0.16-0.466,0.157-0.896,0.158-0.91v-5.194c-0.001-0.014,0.002-0.444-0.158-0.91
	c-0.069-0.21-0.186-0.442-0.363-0.638c0.493,0.019,1.036,0.093,1.458,0.274l0.473,0.324c0.623,0.43,1.411,0.689,2.267,0.689
	c2.035,0,3.683-1.449,3.683-3.234c0-1.097-0.624-2.064-1.573-2.649l-0.17-0.103c-0.285-0.245-0.752-0.662-1.22-1.164
	c-0.662-0.705-1.301-1.584-1.436-2.294h10.847c-0.13,0.712-0.771,1.596-1.438,2.304c-0.467,0.502-0.934,0.919-1.219,1.163
	l-0.17,0.103c-0.949,0.586-1.573,1.553-1.573,2.65c0,1.785,1.649,3.234,3.684,3.234c0.855,0,1.643-0.259,2.267-0.689l0.471-0.324
	c0.421-0.18,0.96-0.254,1.451-0.274c-0.173,0.194-0.287,0.421-0.355,0.628c-0.159,0.466-0.157,0.896-0.159,0.91v5.204
	c0.002,0.013,0,0.444,0.159,0.909C42.377,29.526,42.554,29.85,42.854,30.069"/>
<path fill="#FFFFFF" d="M316.305,143.962c0.061,0,0.117,0.012,0.17,0.033c0.053,0.022,0.1,0.054,0.139,0.092
	c0.039,0.039,0.07,0.084,0.094,0.135c0.023,0.053,0.035,0.107,0.035,0.166s-0.012,0.113-0.035,0.165s-0.055,0.097-0.094,0.136
	s-0.086,0.069-0.139,0.092s-0.109,0.033-0.17,0.033c-0.062,0-0.119-0.011-0.174-0.033c-0.053-0.022-0.1-0.053-0.141-0.092
	c-0.039-0.039-0.07-0.084-0.092-0.136c-0.023-0.052-0.033-0.106-0.033-0.165s0.01-0.113,0.033-0.166
	c0.021-0.051,0.053-0.096,0.092-0.135c0.041-0.038,0.088-0.069,0.141-0.092C316.186,143.974,316.242,143.962,316.305,143.962
	 M316.305,144.696c0.043,0,0.082-0.01,0.119-0.025s0.07-0.038,0.098-0.064c0.027-0.029,0.049-0.062,0.064-0.099
	s0.023-0.077,0.023-0.12s-0.008-0.082-0.023-0.12s-0.037-0.069-0.064-0.098c-0.027-0.027-0.061-0.05-0.098-0.065
	s-0.076-0.023-0.119-0.023s-0.084,0.008-0.123,0.023c-0.037,0.016-0.07,0.038-0.098,0.065c-0.027,0.028-0.049,0.06-0.064,0.098
	s-0.023,0.077-0.023,0.12s0.008,0.083,0.023,0.12s0.037,0.069,0.064,0.099c0.027,0.026,0.061,0.049,0.098,0.064
	C316.221,144.687,316.262,144.696,316.305,144.696 M316.328,144.198c0.053,0,0.092,0.012,0.119,0.035s0.041,0.055,0.041,0.092
	c0,0.031-0.01,0.056-0.029,0.076c-0.02,0.02-0.047,0.033-0.084,0.039l0.117,0.135h-0.127l-0.105-0.131h-0.012v0.131h-0.107v-0.377
	H316.328z M316.248,144.29v0.07h0.078c0.018,0,0.029-0.002,0.039-0.008c0.008-0.005,0.014-0.014,0.014-0.027
	c0-0.012-0.006-0.021-0.014-0.025c-0.01-0.006-0.021-0.01-0.039-0.01H316.248z"/>
<path fill="#F59E00" d="M315.838,129.396v-0.459h-0.188v-0.127h0.51v0.127h-0.186v0.459H315.838z M316.822,129.396v-0.406
	l-0.131,0.352h-0.146l-0.131-0.351v0.405h-0.139v-0.586h0.197l0.146,0.375l0.145-0.375h0.197v0.586H316.822z"/>
<g>
</g>
<g>
</g>
<g>
</g>
<g>
</g>
<g>
</g>
<g>
</g>
</svg>
