<svg xmlns="http://www.w3.org/2000/svg" width="50" height="50" viewBox="0 0 50 50"><title>Comerciantes</title><circle cx="25" cy="25" r="25" style="fill:#004b40"/><path d="M50,25a25.13,25.13,0,0,0-.88-6.59L41,10.24l-1.65,2L33.51,12,10.1,41.06l8,8A25,25,0,0,0,50,25Z" style="opacity:0.24"/><path d="M39.9,22.06V40.67H29v-13H22.83L25,16.1Z" style="fill:#7fff5d"/><path d="M25,16.1V27.7H21v13H10.1V22.06Z" style="fill:#1eea00"/><path d="M41,9.86v9.5l-4,1.08-4-1.08-2.18-5.3L33,9.86Z" style="fill:#c2001b"/><path d="M33,9.86v9.5l-4,1.08-4-1.08-2.17-5.3L25,9.86Z" style="fill:#f44336"/><path d="M25,9.86v9.5l-4,1.08-4-1.08-2.17-5.3L17,9.86Z" style="fill:#c2001b"/><path d="M17,9.86v9.5l-4,1.08-4-1.08V9.86Z" style="fill:#f44336"/><path d="M17,19.36h8a4,4,0,0,1-8,0Z" style="fill:#ad0421"/><path d="M33,19.36h8a4,4,0,1,1-8,0Z" style="fill:#940030"/><path d="M9.05,19.36h8a4,4,0,1,1-8,0Z" style="fill:#ef3a35"/><path d="M25,19.36h8a4,4,0,0,1-8,0Z" style="fill:#ef3a35"/><polygon points="43.77 38.68 42.6 37.68 41.43 38.68 40.26 37.68 39.09 38.68 37.92 37.68 36.75 38.68 35.58 37.68 34.41 38.68 33.24 37.68 32.07 38.68 32.07 38.68 32.07 16.36 33.24 17.36 34.41 16.36 35.58 17.36 36.75 16.36 37.92 17.36 39.09 16.36 40.26 17.36 41.43 16.36 42.6 17.36 43.77 16.36 43.77 38.68 43.77 38.68" style="fill:#fff"/><polygon points="43.77 16.36 42.6 17.36 41.43 16.36 40.26 17.36 39.09 16.36 37.92 17.36 37.92 17.35 37.92 37.69 37.92 37.68 39.09 38.68 40.26 37.68 41.43 38.68 42.6 37.68 43.77 38.68 43.77 38.68 43.77 16.36" style="fill:#e0e0e0"/><rect x="33.83" y="20.59" width="8.17" height="1.25" style="fill:#999"/><rect x="37.92" y="20.59" width="4.08" height="1.25" style="fill:gray"/><rect x="33.83" y="23.74" width="8.17" height="1.25" style="fill:#999"/><rect x="37.92" y="23.74" width="4.08" height="1.25" style="fill:gray"/><rect x="33.83" y="26.89" width="8.17" height="1.25" style="fill:#999"/><rect x="37.92" y="26.89" width="4.08" height="1.25" style="fill:gray"/><path d="M39.71,34.09a1.27,1.27,0,0,0-.44-.42,2.62,2.62,0,0,0-.56-.23l-.29-.07v-1.2l.11,0a.91.91,0,0,1,.36.26l.28.31.61-.65-.25-.26a1.75,1.75,0,0,0-.67-.47,2.83,2.83,0,0,0-.44-.12v-.61h-.89v.63a1.79,1.79,0,0,0-.82.34,1.37,1.37,0,0,0-.51,1.11,1.32,1.32,0,0,0,.14.62,1.05,1.05,0,0,0,.4.41,1.89,1.89,0,0,0,.52.22l.27.07v1.21l-.22-.07a1.44,1.44,0,0,1-.49-.36l-.25-.29-.69.59.29.3a2.59,2.59,0,0,0,.75.55,2.28,2.28,0,0,0,.61.17v.55h.89v-.54a1.55,1.55,0,0,0,.31-.06,1.59,1.59,0,0,0,.59-.26,1.32,1.32,0,0,0,.42-.46,1.37,1.37,0,0,0,.15-.64A1.16,1.16,0,0,0,39.71,34.09Zm-1.29.18h0a1.84,1.84,0,0,1,.34.14.38.38,0,0,1,.14.14.34.34,0,0,1,0,.2.41.41,0,0,1-.19.39,1.38,1.38,0,0,1-.39.14v-1Zm-1.17-2a.65.65,0,0,1,.28-.14v1h0A1.7,1.7,0,0,1,37.2,33a.22.22,0,0,1-.08-.09.42.42,0,0,1,0-.19A.5.5,0,0,1,37.25,32.32Z" style="fill:#004b40"/><path d="M39.71,34.09a1.27,1.27,0,0,0-.44-.42,2.62,2.62,0,0,0-.56-.23l-.29-.07v-1.2l.11,0a.91.91,0,0,1,.36.26l.28.31.61-.65-.25-.26a1.75,1.75,0,0,0-.67-.47,2.83,2.83,0,0,0-.44-.12v-.61h-.5v6.05h.5v-.54a1.55,1.55,0,0,0,.31-.06,1.59,1.59,0,0,0,.59-.26,1.32,1.32,0,0,0,.42-.46,1.37,1.37,0,0,0,.15-.64A1.16,1.16,0,0,0,39.71,34.09Zm-.9,1.06a1.38,1.38,0,0,1-.39.14v-1h0a1.84,1.84,0,0,1,.34.14.38.38,0,0,1,.14.14.34.34,0,0,1,0,.2A.41.41,0,0,1,38.81,35.15Z" style="fill:#003a2f"/></svg>