<svg xmlns="http://www.w3.org/2000/svg" viewBox="0 0 332.88 18.97"><title>cola-recibo</title><g id="guias"><polygon points="0 0 0 0 0 18.97 6.17 10.36 12.33 18.97 18.5 10.36 24.67 18.97 30.83 10.36 37 18.97 43.16 10.36 49.33 18.97 55.49 10.36 61.66 18.97 67.83 10.36 73.99 18.97 80.15 10.36 86.32 18.97 92.48 10.36 98.65 18.97 104.81 10.36 110.97 18.97 117.14 10.36 123.3 18.97 129.46 10.36 135.63 18.97 141.79 10.36 147.95 18.97 154.11 10.36 160.27 18.97 166.43 10.36 172.59 18.97 178.76 10.36 184.92 18.97 191.09 10.36 197.25 18.97 203.41 10.36 209.58 18.97 215.74 10.36 221.9 18.97 228.07 10.36 234.23 18.97 234.23 18.96 234.24 18.97 240.4 10.36 246.57 18.97 252.74 10.36 258.9 18.97 265.06 10.36 271.23 18.97 277.39 10.36 283.56 18.97 289.73 10.36 295.89 18.97 302.06 10.36 308.22 18.97 314.38 10.36 320.55 18.97 326.71 10.36 332.88 18.97 332.88 0 332.88 0 0 0" fill="#fff"/></g></svg>