<svg id="Layer_1" data-name="Layer 1" xmlns="http://www.w3.org/2000/svg" viewBox="0 0 24 24"><defs><style>.cls-1{fill:#1eea00;}</style></defs><title>Nueva meta - predeterminado</title><path id="_Compound_Path_" data-name="&lt;Compound Path&gt;" class="cls-1" d="M20.71,19.78l-4.06-8.06a.56.56,0,0,0-1,0l-1.56,3L10.44,7.57V6.65h3a.45.45,0,0,0,.47-.51V3.91a.45.45,0,0,0-.47-.51H10c-.31,0-.47.2-.47.51V7.57L3.3,19.78a.54.54,0,0,0,.45.82H20.21A.56.56,0,0,0,20.71,19.78ZM10,9l1.88,3.74-1-.46a.56.56,0,0,0-.44,0l-2.58,1Zm3-3.45H10.44v-1h2.48Zm-8.22,14,2.37-4.75,3.51-1.36,2.06.93c1.45,2.88,2.59,5.17,2.6,5.17H4.71Zm11.79,0L14.75,16l1.4-2.79,3.15,6.25Z"/></svg>