<?xml version="1.0" encoding="utf-8"?>
<!-- Generator: Adobe Illustrator 16.0.0, SVG Export Plug-In . SVG Version: 6.00 Build 0)  -->
<!DOCTYPE svg PUBLIC "-//W3C//DTD SVG 1.1//EN" "http://www.w3.org/Graphics/SVG/1.1/DTD/svg11.dtd">
<svg version="1.1" id="Capa_1" xmlns="http://www.w3.org/2000/svg" xmlns:xlink="http://www.w3.org/1999/xlink" x="0px" y="0px"
	 width="55px" height="55.5px" viewBox="0 0 55 55.5" enable-background="new 0 0 55 55.5" xml:space="preserve">
<path fill="#004B40" d="M27.5,2.75C41.308,2.75,52.5,13.943,52.5,27.75c0,13.809-11.192,25-24.999,25c-13.808,0-25-11.191-25-25
	C2.5,13.943,13.692,2.75,27.5,2.75"/>
<g opacity="0.24">
	<g>
		<defs>
			<rect id="SVGID_1_" x="10.729" y="25.449" width="41.195" height="27.301"/>
		</defs>
		<clipPath id="SVGID_2_">
			<use xlink:href="#SVGID_1_"  overflow="visible"/>
		</clipPath>
		<path clip-path="url(#SVGID_2_)" d="M51.923,33.101l-7.652-7.652H10.729l14.844,14.844l-7.472,3.851l8.592,8.593
			c0.268,0.009,0.537,0.014,0.807,0.014C39.47,52.75,49.473,44.336,51.923,33.101"/>
	</g>
</g>
<polygon fill="#1EEA00" points="44.271,25.448 27.5,8.677 10.729,25.448 18.101,25.448 18.101,44.143 36.899,44.143 36.899,25.448 
	"/>
<polygon fill="#7FFF5D" points="27.5,8.677 27.5,8.677 27.5,44.143 36.898,44.143 36.898,25.449 44.271,25.449 "/>
<path fill="#003A2F" d="M23.755,25.312c1.361,0,2.465,1.104,2.465,2.465c0,1.361-1.104,2.466-2.465,2.466s-2.465-1.104-2.465-2.466
	C21.291,26.417,22.395,25.312,23.755,25.312"/>
<path fill="#004B40" d="M31.246,32.801c1.361,0,2.464,1.104,2.464,2.465c0,1.361-1.103,2.466-2.464,2.466s-2.465-1.104-2.465-2.466
	C28.781,33.906,29.885,32.801,31.246,32.801"/>
<rect x="26.422" y="23.819" transform="matrix(-0.707 -0.7072 0.7072 -0.707 24.6485 73.256)" fill="#003A2F" width="2.154" height="15.407"/>
<polygon fill="#004B40" points="32.186,25.313 27.5,30 27.5,33.045 33.709,26.835 "/>
<g>
</g>
<g>
</g>
<g>
</g>
<g>
</g>
<g>
</g>
<g>
</g>
</svg>
