<?xml version="1.0" encoding="utf-8"?>
<!-- Generator: Adobe Illustrator 16.0.0, SVG Export Plug-In . SVG Version: 6.00 Build 0)  -->
<!DOCTYPE svg PUBLIC "-//W3C//DTD SVG 1.1//EN" "http://www.w3.org/Graphics/SVG/1.1/DTD/svg11.dtd">
<svg version="1.1" id="Capa_1" xmlns="http://www.w3.org/2000/svg" xmlns:xlink="http://www.w3.org/1999/xlink" x="0px" y="0px"
	 width="55px" height="55.5px" viewBox="0 0 55 55.5" enable-background="new 0 0 55 55.5" xml:space="preserve">
<path fill="#004B40" d="M28.11,2.38c13.807,0,24.999,11.193,24.999,25c0,13.808-11.192,24.999-24.999,24.999
	c-13.808,0-25-11.191-25-24.999C3.11,13.574,14.302,2.38,28.11,2.38"/>
<path fill="#FBB040" d="M13.701,42.207h-0.185c-0.556,0-0.989-0.433-0.989-0.987V13.542c0-0.557,0.433-0.987,0.989-0.987h0.185
	c0.557,0,0.989,0.431,0.989,0.987v27.677C14.69,41.774,14.258,42.207,13.701,42.207"/>
<path fill="#F78C00" d="M13.64,12.554h-0.123c-0.557,0-0.989,0.433-0.989,0.988v27.676c0,0.557,0.432,0.988,0.989,0.988h0.123
	V12.554z"/>
<path fill="#FBB040" d="M42.519,42.207h0.186c0.555,0,0.988-0.433,0.988-0.987V13.542c0-0.557-0.433-0.987-0.988-0.987h-0.186
	c-0.556,0-0.988,0.431-0.988,0.987v27.677C41.53,41.774,41.962,42.207,42.519,42.207"/>
<path fill="#F78C00" d="M42.58,12.554h0.124c0.556,0,0.988,0.433,0.988,0.988v27.676c0,0.557-0.432,0.988-0.988,0.988H42.58V12.554z
	"/>
<rect x="13.61" y="14.222" fill="#F2F2F2" width="28.899" height="10.837"/>
<rect x="13.61" y="14.222" fill="#070707" width="3.612" height="3.612"/>
<rect x="13.61" y="21.448" fill="#070707" width="3.612" height="3.611"/>
<rect x="17.222" y="17.835" fill="#070707" width="3.612" height="3.612"/>
<rect x="20.834" y="14.222" fill="#070707" width="3.612" height="3.612"/>
<rect x="20.834" y="21.448" fill="#070707" width="3.612" height="3.611"/>
<rect x="24.447" y="17.835" fill="#070707" width="3.612" height="3.612"/>
<rect x="28.059" y="14.222" fill="#070707" width="3.612" height="3.612"/>
<rect x="28.059" y="21.448" fill="#070707" width="3.612" height="3.611"/>
<rect x="35.285" y="14.222" fill="#070707" width="3.612" height="3.612"/>
<rect x="35.285" y="21.448" fill="#070707" width="3.612" height="3.611"/>
<rect x="31.671" y="17.835" fill="#070707" width="3.613" height="3.612"/>
<rect x="38.897" y="17.835" fill="#070707" width="3.612" height="3.612"/>
<g opacity="0.24">
	<g>
		<defs>
			
				<rect id="SVGID_1_" x="14.018" y="13.419" transform="matrix(-0.9989 -0.0468 0.0468 -0.9989 65.5526 67.3325)" width="39.091" height="38.962"/>
		</defs>
		<clipPath id="SVGID_2_">
			<use xlink:href="#SVGID_1_"  overflow="visible"/>
		</clipPath>
		<path clip-path="url(#SVGID_2_)" d="M44.587,14.038l-1.295,27.646c-0.02,0.415-0.278,0.751-0.642,0.882
			c-0.121,0.044-0.253,0.064-0.391,0.058l-0.124-0.006l-0.062-0.002c-0.555-0.026-0.967-0.479-0.941-1.033l0.756-16.142
			l-2.631-0.123l-3.609-0.169L32.04,24.98l-3.609-0.169l-3.608-0.169l-3.608-0.169l-3.609-0.169l-2.528-0.118l-0.756,16.142
			c-0.021,0.44-0.315,0.781-0.714,0.893l9.401,10.326c1.36,0.296,2.759,0.49,4.196,0.558C40.997,52.75,52.7,42.093,53.346,28.301
			c0.081-1.721-0.015-3.406-0.269-5.044l-8.508-9.346C44.571,13.955,44.589,13.993,44.587,14.038"/>
	</g>
</g>
<g>
</g>
<g>
</g>
<g>
</g>
<g>
</g>
<g>
</g>
<g>
</g>
</svg>
