<?xml version="1.0" encoding="utf-8"?>
<!-- Generator: Adobe Illustrator 16.0.0, SVG Export Plug-In . SVG Version: 6.00 Build 0)  -->
<!DOCTYPE svg PUBLIC "-//W3C//DTD SVG 1.1//EN" "http://www.w3.org/Graphics/SVG/1.1/DTD/svg11.dtd">
<svg version="1.1" id="Capa_1" xmlns="http://www.w3.org/2000/svg" xmlns:xlink="http://www.w3.org/1999/xlink" x="0px" y="0px"
	 width="55px" height="55.5px" viewBox="0 0 55 55.5" enable-background="new 0 0 55 55.5" xml:space="preserve">
<path fill="#004B40" d="M27.5,2.75c13.807,0,24.999,11.192,24.999,25S41.308,52.75,27.5,52.75s-25-11.191-25-24.999
	S13.693,2.75,27.5,2.75"/>
<g opacity="0.1" enable-background="new    ">
	<g>
		<defs>
			<rect id="SVGID_1_" x="19.454" y="14.849" width="2.1" height="16.248"/>
		</defs>
		<clipPath id="SVGID_2_">
			<use xlink:href="#SVGID_1_"  overflow="visible"/>
		</clipPath>
		<path clip-path="url(#SVGID_2_)" fill="#231F20" d="M21.554,16.023c-0.68-0.247-1.421-0.618-2.101-1.174v15.073
			c0.68,0.556,1.421,0.927,2.101,1.174V16.023z"/>
	</g>
</g>
<path fill="#FBB040" d="M19.515,42.833h-0.186c-0.555,0-0.988-0.432-0.988-0.987V14.169c0-0.556,0.433-0.987,0.988-0.987h0.186
	c0.556,0,0.988,0.432,0.988,0.987v27.677C20.503,42.402,20.071,42.833,19.515,42.833"/>
<path fill="#F78C00" d="M19.454,13.181H19.33c-0.556,0-0.988,0.434-0.988,0.988v27.676c0,0.558,0.432,0.988,0.988,0.988h0.124
	V13.181z"/>
<g opacity="0.24">
	<g>
		<defs>
			<rect id="SVGID_3_" x="19.33" y="14.849" width="33.17" height="37.843"/>
		</defs>
		<clipPath id="SVGID_4_">
			<use xlink:href="#SVGID_3_"  overflow="visible"/>
		</clipPath>
		<path clip-path="url(#SVGID_4_)" d="M42.064,18.618v3.769v3.768v3.77c-1.074-0.806-2.194-1.284-3.28-1.518
			c-5.915-1.153-12.366,2.09-18.281-0.655c-0.176-0.078,0.179,2.972,0,2.875v11.221c0,0.545-0.442,0.987-0.988,0.987H19.33
			l9.858,9.858C42.208,51.824,52.5,40.99,52.5,27.75c0-0.878-0.045-1.744-0.134-2.6L42.064,14.849V18.618z"/>
	</g>
</g>
<rect x="20.503" y="14.85" fill="#F2F2F2" width="21.675" height="14.449"/>
<rect x="20.503" y="14.85" fill="#070707" width="3.612" height="3.611"/>
<rect x="20.503" y="22.074" fill="#070707" width="3.612" height="3.612"/>
<rect x="24.117" y="18.461" fill="#070707" width="3.613" height="3.612"/>
<rect x="24.117" y="25.687" fill="#070707" width="3.613" height="3.612"/>
<rect x="27.729" y="14.85" fill="#070707" width="3.612" height="3.611"/>
<rect x="27.729" y="22.074" fill="#070707" width="3.612" height="3.612"/>
<rect x="31.341" y="18.461" fill="#070707" width="3.612" height="3.612"/>
<rect x="31.341" y="25.687" fill="#070707" width="3.612" height="3.612"/>
<rect x="34.954" y="14.85" fill="#070707" width="3.612" height="3.611"/>
<rect x="34.954" y="22.074" fill="#070707" width="3.612" height="3.612"/>
<rect x="38.566" y="18.461" fill="#070707" width="3.612" height="3.612"/>
<rect x="38.566" y="25.687" fill="#070707" width="3.612" height="3.612"/>
<g>
</g>
<g>
</g>
<g>
</g>
<g>
</g>
<g>
</g>
<g>
</g>
</svg>
