<?xml version="1.0" encoding="utf-8"?>
<!-- Generator: Adobe Illustrator 16.0.0, SVG Export Plug-In . SVG Version: 6.00 Build 0)  -->
<!DOCTYPE svg PUBLIC "-//W3C//DTD SVG 1.1//EN" "http://www.w3.org/Graphics/SVG/1.1/DTD/svg11.dtd">
<svg version="1.1" id="Capa_1" xmlns="http://www.w3.org/2000/svg" xmlns:xlink="http://www.w3.org/1999/xlink" x="0px" y="0px"
	 width="55px" height="55.5px" viewBox="0 0 55 55.5" enable-background="new 0 0 55 55.5" xml:space="preserve">
<path fill="#004B40" d="M27.5,2.75c13.807,0,25,11.192,25,25c0,13.809-11.193,25-25,25c-13.808,0-25-11.191-25-25
	C2.5,13.942,13.692,2.75,27.5,2.75"/>
<g opacity="0.24">
	<g>
		<defs>
			<rect id="SVGID_1_" x="13.682" y="12.255" width="38.817" height="40.495"/>
		</defs>
		<clipPath id="SVGID_2_">
			<use xlink:href="#SVGID_1_"  overflow="visible"/>
		</clipPath>
		<path clip-path="url(#SVGID_2_)" d="M52.5,27.75c0-0.74-0.034-1.474-0.098-2.197L39.104,12.255L13.683,41.223l11.412,11.412
			c0.791,0.075,1.593,0.115,2.405,0.115C41.307,52.75,52.5,41.559,52.5,27.75"/>
	</g>
</g>
<polygon fill="#FEE187" points="41.316,41.222 13.682,41.222 13.682,22.829 27.5,13.597 41.316,22.829 "/>
<polygon fill="#FEE187" points="41.316,22.829 27.5,13.598 27.485,13.605 27.485,41.223 41.316,41.223 "/>
<rect x="15.894" y="12.256" fill="#FFFFFF" width="23.211" height="22.361"/>
<rect x="27.486" y="12.256" fill="#E0E0E0" width="11.619" height="22.361"/>
<polygon fill="#F78C00" points="27.485,32.017 27.485,41.222 41.316,41.222 "/>
<polygon fill="#1EEA00" points="27.5,13.597 28.587,15.8 31.02,16.154 29.26,17.868 29.675,20.291 27.5,19.148 25.324,20.291 
	25.74,17.868 23.98,16.154 26.412,15.8 "/>
<rect x="19.25" y="21.297" fill="#004B40" width="17.625" height="0.756"/>
<rect x="19.25" y="22.872" fill="#004B40" width="17.625" height="0.757"/>
<rect x="19.25" y="24.448" fill="#004B40" width="17.625" height="0.756"/>
<rect x="19.25" y="26.024" fill="#004B40" width="17.625" height="0.756"/>
<rect x="19.25" y="27.601" fill="#004B40" width="17.625" height="0.756"/>
<polygon fill="#FBB040" points="41.316,22.829 13.682,41.223 41.316,41.223 "/>
<polygon fill="#F78C00" points="13.683,22.829 41.317,41.223 13.683,41.223 "/>
<g>
</g>
<g>
</g>
<g>
</g>
<g>
</g>
<g>
</g>
<g>
</g>
</svg>
