<?xml version="1.0" encoding="utf-8"?>
<!-- Generator: Adobe Illustrator 16.0.0, SVG Export Plug-In . SVG Version: 6.00 Build 0)  -->
<!DOCTYPE svg PUBLIC "-//W3C//DTD SVG 1.1//EN" "http://www.w3.org/Graphics/SVG/1.1/DTD/svg11.dtd">
<svg version="1.1" id="Capa_1" xmlns="http://www.w3.org/2000/svg" xmlns:xlink="http://www.w3.org/1999/xlink" x="0px" y="0px"
	 width="55px" height="55.5px" viewBox="0 0 55 55.5" enable-background="new 0 0 55 55.5" xml:space="preserve">
<path fill="#004B40" d="M27.5,2.372c13.808,0,25,11.193,25,25c0,13.807-11.192,25-25,25c-13.807,0-24.999-11.193-24.999-25
	C2.5,13.565,13.692,2.372,27.5,2.372"/>
<g opacity="0.24">
	<g>
		<defs>
			<rect id="SVGID_1_" x="14.239" y="11.807" width="38.26" height="40.56"/>
		</defs>
		<clipPath id="SVGID_2_">
			<use xlink:href="#SVGID_1_"  overflow="visible"/>
		</clipPath>
		<path clip-path="url(#SVGID_2_)" d="M52.397,25.119L39.083,11.804H27.276v5.916l3.861,3.861h-15.22v13.513h-1.678v5.916
			l11.285,11.284c0.651,0.051,1.311,0.078,1.976,0.078c13.807,0,25-11.193,25-25C52.5,26.612,52.463,25.861,52.397,25.119"/>
	</g>
</g>
<rect x="31.57" y="15.399" fill="#CCCCCC" width="3.218" height="6.818"/>
<rect x="15.917" y="21.581" fill="#CCCCCC" width="23.166" height="13.513"/>
<rect x="27.493" y="21.581" fill="#A3A3A3" width="11.59" height="13.513"/>
<rect x="14.239" y="35.093" fill="#B5B5B5" width="26.436" height="5.916"/>
<rect x="27.493" y="35.093" fill="#7F7F7F" width="13.182" height="5.916"/>
<rect x="27.276" y="11.803" fill="#ECF4F6" width="11.807" height="5.916"/>
<rect x="28.268" y="12.522" fill="#B5DFEC" width="9.57" height="4.456"/>
<rect x="17.847" y="23.583" fill="#004B40" width="7.497" height="3.499"/>
<rect x="29.6" y="27.082" fill="#004B40" width="2.896" height="2.896"/>
<rect x="34.233" y="27.082" fill="#004B40" width="2.896" height="2.896"/>
<rect x="29.6" y="31.474" fill="#004B40" width="2.896" height="2.896"/>
<rect x="34.233" y="31.474" fill="#004B40" width="2.896" height="2.896"/>
<polygon fill="#7FFF5D" points="16.405,14.323 21.288,19.206 26.171,14.323 24.066,14.323 24.066,9.745 18.509,9.745 18.509,14.323 
	"/>
<polygon fill="#1EEA00" points="21.288,19.206 21.326,19.169 21.326,9.745 18.51,9.745 18.51,14.323 16.405,14.323 "/>
<g>
</g>
<g>
</g>
<g>
</g>
<g>
</g>
<g>
</g>
<g>
</g>
</svg>
