<?xml version="1.0" encoding="utf-8"?>
<!-- Generator: Adobe Illustrator 16.0.0, SVG Export Plug-In . SVG Version: 6.00 Build 0)  -->
<!DOCTYPE svg PUBLIC "-//W3C//DTD SVG 1.1//EN" "http://www.w3.org/Graphics/SVG/1.1/DTD/svg11.dtd">
<svg version="1.1" id="Capa_1" xmlns="http://www.w3.org/2000/svg" xmlns:xlink="http://www.w3.org/1999/xlink" x="0px" y="0px"
	 width="55px" height="55.5px" viewBox="0 0 55 55.5" enable-background="new 0 0 55 55.5" xml:space="preserve">
<path fill="#004B40" d="M52.5,27.75c0,13.808-11.193,25-25,25c-13.808,0-25-11.192-25-25S13.692,2.75,27.5,2.75
	C41.307,2.75,52.5,13.942,52.5,27.75"/>
<g opacity="0.24">
	<g>
		<defs>
			<rect id="SVGID_1_" x="18.076" y="13.656" width="34.424" height="39.09"/>
		</defs>
		<clipPath id="SVGID_2_">
			<use xlink:href="#SVGID_1_"  overflow="visible"/>
		</clipPath>
		<path clip-path="url(#SVGID_2_)" d="M52.388,25.389L39.844,13.653L28.319,34.396L18.076,46.889l5.588,5.566
			c1.251,0.194,2.532,0.294,3.836,0.294c13.807,0,25-11.193,25-25C52.5,26.954,52.46,26.167,52.388,25.389"/>
	</g>
</g>
<polygon fill="#FBB040" points="27.444,16.638 26.994,16.638 26.994,36.083 28.005,36.083 28.005,16.638 "/>
<rect x="32.55" y="15.166" transform="matrix(0.8679 0.4968 -0.4968 0.8679 17.4624 -12.938)" fill="#F78C00" width="1.01" height="22.391"/>
<rect x="10.749" y="25.856" transform="matrix(0.4961 0.8683 -0.8683 0.4961 33.9457 -5.7706)" fill="#F78C00" width="22.391" height="1.01"/>
<path fill="#FBB040" d="M27.5,6.315c-7.752,0-14.058,6.308-14.058,14.059c0,0.478,0.389,0.866,0.868,0.866
	c0.478,0,0.865-0.389,0.865-0.866c0-0.736,0.598-1.333,1.332-1.333c0.735,0,1.333,0.597,1.333,1.333
	c0,0.478,0.388,0.866,0.866,0.866c0.479,0,0.866-0.389,0.866-0.866c0-0.736,0.598-1.333,1.333-1.333
	c0.735,0,1.332,0.597,1.332,1.333c0,0.478,0.388,0.866,0.867,0.866c0.477,0,0.866-0.389,0.866-0.866
	c0-0.736,0.597-1.333,1.332-1.333c0.735,0,1.333,0.597,1.333,1.333c0,0.478,0.387,0.866,0.866,0.866
	c0.478,0,0.866-0.389,0.866-0.866c0-0.736,0.598-1.333,1.332-1.333c0.735,0,1.333,0.597,1.333,1.333
	c0,0.478,0.387,0.866,0.865,0.866c0.479,0,0.867-0.389,0.867-0.866c0-0.736,0.597-1.333,1.333-1.333
	c0.734,0,1.332,0.597,1.332,1.333c0,0.478,0.388,0.866,0.867,0.866c0.477,0,0.865-0.389,0.865-0.866
	c0-0.736,0.599-1.333,1.332-1.333c0.736,0,1.333,0.597,1.333,1.333c0,0.478,0.388,0.866,0.866,0.866
	c0.479,0,0.867-0.389,0.867-0.866C41.558,12.623,35.251,6.315,27.5,6.315"/>
<path fill="#F78C00" d="M27.5,6.315c-0.019,0-0.037,0.002-0.056,0.002v14.916c0.019,0.001,0.036,0.007,0.056,0.007
	c0.479,0,0.865-0.389,0.865-0.866c0-0.736,0.599-1.333,1.333-1.333c0.735,0,1.332,0.597,1.332,1.333
	c0,0.478,0.388,0.866,0.866,0.866c0.479,0,0.867-0.389,0.867-0.866c0-0.736,0.597-1.333,1.333-1.333
	c0.735,0,1.333,0.597,1.333,1.333c0,0.478,0.387,0.866,0.866,0.866c0.477,0,0.865-0.389,0.865-0.866
	c0-0.736,0.598-1.333,1.332-1.333c0.736,0,1.333,0.597,1.333,1.333c0,0.478,0.388,0.866,0.866,0.866
	c0.479,0,0.867-0.389,0.867-0.866C41.558,12.623,35.251,6.315,27.5,6.315"/>
<path fill="#7FFF5D" d="M18.82,47.193h17.062c0.587,0,1.063-0.476,1.063-1.062V31.297c0-0.587-0.476-1.062-1.063-1.062H18.82
	c-0.587,0-1.062,0.476-1.062,1.062v14.834C17.758,46.717,18.233,47.193,18.82,47.193"/>
<path fill="#1EEA00" d="M35.883,30.235h-8.438v16.958h8.438c0.587,0,1.062-0.476,1.062-1.062V31.297
	C36.945,30.711,36.47,30.235,35.883,30.235"/>
<rect x="25.532" y="30.236" fill="#FBB040" width="3.639" height="7.276"/>
<rect x="27.444" y="30.236" fill="#F78C00" width="1.727" height="7.276"/>
<path fill="#FBB040" d="M34.894,27.25c-0.303-0.79-0.781-1.562-1.279-2.063c-0.183-0.185-0.429-0.278-0.708-0.272
	c-0.929,0.022-2.441,1.188-4.495,3.462c-0.051,0.058-0.08,0.131-0.08,0.207v1.635c0,0.172,0.138,0.309,0.309,0.309h4.755
	c1.059,0,1.496-0.514,1.676-0.947C35.312,29.003,35.249,28.177,34.894,27.25"/>
<path fill="#F78C00" d="M35.07,27.789c-0.009-0.03-0.022-0.062-0.04-0.089c-0.467-0.706-1.476-0.441-2.239-0.097
	c-2.219,1.005-3.135,2.389-3.173,2.448c-0.062,0.094-0.067,0.216-0.013,0.314c0.055,0.101,0.158,0.161,0.272,0.161h3.518
	c0.674,0,1.174-0.207,1.486-0.614C35.251,29.428,35.316,28.693,35.07,27.789"/>
<path fill="#FBB040" d="M26.281,28.376c-2.055-2.274-3.566-3.439-4.494-3.462c-0.281-0.006-0.527,0.088-0.709,0.272
	c-0.498,0.502-0.977,1.273-1.279,2.063c-0.355,0.927-0.418,1.753-0.178,2.329c0.18,0.434,0.617,0.947,1.677,0.947h4.754
	c0.17,0,0.309-0.137,0.309-0.309v-1.635C26.361,28.506,26.333,28.434,26.281,28.376"/>
<path fill="#F78C00" d="M25.074,30.05c-0.037-0.059-0.954-1.441-3.173-2.446c-0.764-0.347-1.772-0.61-2.239,0.096
	c-0.018,0.028-0.031,0.058-0.04,0.089c-0.246,0.905-0.181,1.639,0.189,2.124c0.313,0.408,0.812,0.615,1.487,0.615h3.517
	c0.113,0,0.218-0.062,0.272-0.162C25.14,30.267,25.136,30.146,25.074,30.05"/>
<path fill="#F78C00" d="M28.641,27.968h-2.589c-0.171,0-0.308,0.14-0.308,0.311v1.939c0,0.171,0.137,0.31,0.308,0.31h2.589
	c0.171,0,0.31-0.139,0.31-0.31v-1.939C28.951,28.108,28.812,27.968,28.641,27.968"/>
<g>
</g>
<g>
</g>
<g>
</g>
<g>
</g>
<g>
</g>
<g>
</g>
</svg>
