<?xml version="1.0" encoding="utf-8"?>
<!-- Generator: Adobe Illustrator 16.0.0, SVG Export Plug-In . SVG Version: 6.00 Build 0)  -->
<!DOCTYPE svg PUBLIC "-//W3C//DTD SVG 1.1//EN" "http://www.w3.org/Graphics/SVG/1.1/DTD/svg11.dtd">
<svg version="1.1" id="Capa_1" xmlns="http://www.w3.org/2000/svg" xmlns:xlink="http://www.w3.org/1999/xlink" x="0px" y="0px"
	 width="55px" height="55.5px" viewBox="0 0 55 55.5" enable-background="new 0 0 55 55.5" xml:space="preserve">
<path fill="#004B40" d="M27.308,2.248c13.809,0,25,11.192,25,24.999c0,13.809-11.191,25-25,25c-13.807,0-24.999-11.191-24.999-25
	C2.309,13.44,13.501,2.248,27.308,2.248"/>
<path fill="#2C91D0" d="M27.308,33.071c-0.182-0.002-0.355-0.005-0.506-0.005C26.802,33.066,27.013,33.079,27.308,33.071"/>
<polygon fill="#FFFFFF" points="23.251,20.79 21.021,20.79 17.166,45.647 37.451,45.648 33.597,20.79 "/>
<polygon fill="none" stroke="#D6D6D6" stroke-width="0.751" stroke-miterlimit="10" points="23.251,20.79 21.021,20.79 
	17.166,45.647 37.451,45.648 33.597,20.79 "/>
<rect x="23.087" y="20.63" fill="#AAAAAA" width="8.441" height="25.033"/>
<rect x="23.087" y="20.63" fill="none" stroke="#9E9E9E" stroke-width="0.751" stroke-miterlimit="10" width="8.441" height="25.033"/>
<rect x="27.431" y="20.63" fill="#A0A0A0" width="4.098" height="25.033"/>
<rect x="27.431" y="20.63" fill="none" stroke="#9E9E9E" stroke-width="0.751" stroke-miterlimit="10" width="4.098" height="25.033"/>
<rect x="25.241" y="24.505" fill="#FFFFFF" width="4.376" height="2.188"/>
<rect x="24.27" y="20.736" fill="#FFFFFF" width="6.321" height="1.58"/>
<rect x="24.755" y="20.979" fill="#606060" width="3.282" height="1.094"/>
<g opacity="0.64">
	<g>
		<defs>
			<rect id="SVGID_1_" x="28.507" y="21.207" width="1.295" height="0.7"/>
		</defs>
		<clipPath id="SVGID_2_">
			<use xlink:href="#SVGID_1_"  overflow="visible"/>
		</clipPath>
		<rect x="28.507" y="21.21" clip-path="url(#SVGID_2_)" fill="#1EEA00" width="1.295" height="0.694"/>
	</g>
</g>
<rect x="25.241" y="24.505" fill="#606060" width="4.376" height="2.188"/>
<path fill="#FBB040" d="M28.402,9.842c0,0.604-0.49,1.095-1.095,1.095c-0.604,0-1.094-0.491-1.094-1.095
	c0-0.604,0.49-1.095,1.094-1.095C27.912,8.747,28.402,9.238,28.402,9.842"/>
<path fill="#004B40" d="M27.307,11.127c-0.708,0-1.285-0.577-1.285-1.285s0.577-1.285,1.285-1.285s1.285,0.577,1.285,1.285
	S28.015,11.127,27.307,11.127 M27.307,8.938c-0.498,0-0.904,0.406-0.904,0.904s0.406,0.905,0.904,0.905s0.903-0.407,0.903-0.905
	S27.805,8.938,27.307,8.938"/>
<g>
	<defs>
		<path id="SVGID_3_" d="M29.637,10.723c-0.731-0.257-1.516-0.388-2.33-0.388c-0.815,0-1.599,0.131-2.33,0.388
			c-0.254-0.239-1.01-0.85-2.156-0.85c-0.354,0-0.718,0.061-1.083,0.179l-0.201,0.065l0.087,0.193
			c0.002,0.005,0.183,0.409,0.341,0.922c0.051,0.166,0.092,0.317,0.132,0.464c0.148,0.55,0.269,0.99,0.733,1.48
			c-0.238,0.745-0.359,1.522-0.359,2.314c0,3.41,1.198,4.447,1.249,4.491l0.106,0.089l0.606-0.385l0.535,0.408l0.117-0.133
			c0.017-0.019,0.344-0.395,0.489-0.791c0.571,0.136,1.152,0.205,1.734,0.205c0.581,0,1.163-0.069,1.733-0.205
			c0.145,0.396,0.473,0.772,0.49,0.791l0.117,0.133l0.533-0.408l0.606,0.385l0.106-0.089c0.051-0.044,1.248-1.081,1.248-4.491
			c0-0.791-0.119-1.568-0.358-2.314c0.465-0.49,0.585-0.93,0.733-1.48c0.039-0.147,0.082-0.298,0.131-0.464
			c0.16-0.513,0.34-0.917,0.342-0.922l0.088-0.193l-0.202-0.065c-0.364-0.118-0.728-0.179-1.083-0.179
			C30.648,9.873,29.892,10.483,29.637,10.723"/>
	</defs>
	<clipPath id="SVGID_4_">
		<use xlink:href="#SVGID_3_"  overflow="visible"/>
	</clipPath>
	
		<linearGradient id="SVGID_5_" gradientUnits="userSpaceOnUse" x1="102.7554" y1="1779.1602" x2="103.7554" y2="1779.1602" gradientTransform="matrix(0 6.2739 6.2739 0 -11134.9453 -631.4492)">
		<stop  offset="0" style="stop-color:#1EEB00"/>
		<stop  offset="0.2794" style="stop-color:#1EEB00"/>
		<stop  offset="0.5054" style="stop-color:#1EE700"/>
		<stop  offset="0.7293" style="stop-color:#1EDB00"/>
		<stop  offset="0.9518" style="stop-color:#1EC700"/>
		<stop  offset="1" style="stop-color:#1EC200"/>
	</linearGradient>
	<rect x="21.538" y="9.873" clip-path="url(#SVGID_4_)" fill="url(#SVGID_5_)" width="11.54" height="10.22"/>
</g>
<path fill="#AFFF6A" d="M27.307,15.302c0.417,0,1.233-0.473,1.556-1.188c0.319-0.715-0.375-0.939-0.652-0.99
	c-0.332-0.06-0.903-0.065-0.903-0.065s-0.572,0.005-0.904,0.065c-0.277,0.051-0.971,0.275-0.651,0.99
	C26.074,14.829,26.89,15.302,27.307,15.302"/>
<path fill="#004B40" d="M28.246,12.936c-0.345-0.062-0.914-0.068-0.94-0.068c-0.023,0-0.592,0.006-0.936,0.068
	c-0.181,0.034-0.623,0.149-0.81,0.504c-0.113,0.216-0.106,0.469,0.02,0.751c0.362,0.807,1.25,1.302,1.728,1.302
	s1.366-0.495,1.729-1.302c0.125-0.282,0.131-0.535,0.019-0.751C28.869,13.084,28.426,12.969,28.246,12.936 M28.688,14.034
	c-0.3,0.668-1.065,1.077-1.381,1.077s-1.081-0.409-1.381-1.077c-0.076-0.17-0.086-0.31-0.03-0.418
	c0.089-0.169,0.338-0.268,0.541-0.306c0.312-0.056,0.866-0.062,0.868-0.062c0.006,0,0.56,0.006,0.871,0.062
	c0.204,0.038,0.452,0.137,0.541,0.306C28.774,13.725,28.764,13.864,28.688,14.034 M32.934,9.87
	c-0.383-0.125-0.767-0.188-1.142-0.188c-1.099,0-1.862,0.533-2.199,0.824c-0.723-0.24-1.489-0.363-2.286-0.363
	s-1.564,0.123-2.286,0.363c-0.337-0.291-1.101-0.824-2.199-0.824c-0.375,0-0.759,0.062-1.142,0.188l-0.403,0.131l0.174,0.388
	c0.002,0.003,0.177,0.396,0.332,0.897c0.05,0.163,0.09,0.313,0.13,0.458c0.142,0.524,0.267,0.984,0.703,1.479
	c-0.222,0.731-0.335,1.493-0.335,2.265c0,1.447,0.21,2.655,0.623,3.587c0.322,0.727,0.657,1.02,0.694,1.051l0.213,0.178l0.234-0.149
	l0.377-0.238l0.289,0.22l0.283,0.215l0.234-0.267c0.037-0.043,0.293-0.341,0.46-0.695c0.533,0.115,1.076,0.173,1.619,0.173
	s1.086-0.058,1.619-0.173c0.167,0.354,0.423,0.652,0.46,0.695l0.234,0.267l0.282-0.215l0.289-0.22l0.376,0.238l0.235,0.149
	l0.213-0.178c0.037-0.031,0.372-0.324,0.694-1.051c0.412-0.932,0.623-2.14,0.623-3.587c0-0.773-0.113-1.534-0.336-2.265
	c0.437-0.494,0.562-0.954,0.703-1.479c0.041-0.145,0.08-0.295,0.131-0.458c0.154-0.501,0.33-0.895,0.332-0.899l0.174-0.387
	L32.934,9.87z M32.287,11.119c-0.054,0.172-0.096,0.327-0.137,0.477c-0.126,0.465-0.22,0.805-0.51,1.165
	c-0.255-0.662-0.538-1.111-0.67-1.3c0.088-0.138,0.32-0.423,0.857-0.676l-0.162-0.345c-0.893,0.421-1.09,0.95-1.099,0.972
	l-0.034,0.099l0.063,0.083c0.012,0.014,1.166,1.528,1.166,3.894c0,2.653-0.755,3.784-1.021,4.101l-0.578-0.367l-0.465,0.353
	c-0.107-0.129-0.24-0.319-0.306-0.502c0.16-0.047,0.319-0.097,0.478-0.155l-0.129-0.358c-0.785,0.288-1.604,0.433-2.435,0.433
	s-1.649-0.145-2.434-0.433l-0.13,0.358c0.158,0.058,0.318,0.108,0.478,0.155c-0.065,0.183-0.198,0.373-0.305,0.502l-0.464-0.353
	l-0.581,0.368c-0.267-0.313-1.019-1.429-1.019-4.102c0-2.366,1.154-3.88,1.166-3.894l0.064-0.083l-0.035-0.099
	c-0.008-0.021-0.206-0.551-1.098-0.972l-0.162,0.345c0.537,0.253,0.77,0.539,0.857,0.675c-0.132,0.19-0.415,0.639-0.67,1.301
	c-0.29-0.36-0.384-0.7-0.51-1.165c-0.04-0.15-0.082-0.305-0.135-0.477c-0.098-0.317-0.203-0.591-0.273-0.765
	c1.673-0.437,2.685,0.666,2.729,0.715l0.086,0.098l0.123-0.046c0.722-0.269,1.501-0.406,2.313-0.406
	c0.813,0,1.591,0.137,2.313,0.406l0.123,0.045l0.086-0.097c0.043-0.049,1.056-1.152,2.729-0.715
	C32.488,10.528,32.382,10.802,32.287,11.119 M27.105,13.766v0.17c0,0.16-0.132,0.292-0.292,0.292c-0.161,0-0.292-0.132-0.292-0.292
	v-0.17c0-0.162,0.131-0.292,0.292-0.292C26.973,13.474,27.105,13.604,27.105,13.766 M25.435,12.831c0,0.231-0.188,0.419-0.419,0.419
	s-0.419-0.188-0.419-0.419c0-0.23,0.188-0.419,0.419-0.419S25.435,12.601,25.435,12.831 M28.093,13.766v0.17
	c0,0.16-0.131,0.292-0.292,0.292c-0.16,0-0.292-0.132-0.292-0.292v-0.17c0-0.162,0.132-0.292,0.292-0.292
	C27.962,13.474,28.093,13.604,28.093,13.766 M30.017,12.831c0,0.231-0.188,0.419-0.419,0.419s-0.419-0.188-0.419-0.419
	c0-0.23,0.188-0.419,0.419-0.419S30.017,12.601,30.017,12.831"/>
<g opacity="0.24">
	<g>
		<defs>
			<rect id="SVGID_6_" x="17.166" y="10.747" width="35.058" height="41.95"/>
		</defs>
		<clipPath id="SVGID_7_">
			<use xlink:href="#SVGID_6_"  overflow="visible"/>
		</clipPath>
		<path clip-path="url(#SVGID_7_)" d="M23.598,20.865l0.447,0.029l0.496-0.013C23.959,20.867,23.59,20.859,23.598,20.865"/>
		<path clip-path="url(#SVGID_7_)" d="M29.621,21.091l0.072-0.055c-0.041-0.001-0.082-0.003-0.124-0.004L29.621,21.091z"/>
		<path clip-path="url(#SVGID_7_)" d="M33.337,10.741l-0.174,0.387c-0.002,0.004-0.178,0.398-0.332,0.899
			c-0.051,0.162-0.092,0.313-0.131,0.457c-0.141,0.525-0.266,0.985-0.702,1.478c0.222,0.732,0.334,1.493,0.334,2.266
			c0,1.448-0.209,2.655-0.622,3.587c-0.322,0.727-0.657,1.02-0.693,1.05l-0.214,0.178l-0.235-0.149l-0.377-0.238l-0.289,0.22
			l-0.209,0.16c1.063,0.034,1.836,0.059,1.836,0.059v0.16h2.068l3.854,24.858h-5.922v0.017h-8.441v-0.018h-5.922l6.293,6.293
			C24.713,52.6,26,52.7,27.309,52.7c13.156,0,23.937-10.166,24.916-23.072L33.337,10.741z"/>
		<path clip-path="url(#SVGID_7_)" d="M28.926,20.129c-0.533,0.116-1.076,0.175-1.619,0.175s-1.086-0.059-1.619-0.175
			c-0.167,0.355-0.423,0.652-0.46,0.695l-0.517,0.052l-0.17,0.005c1.234,0.032,3.427,0.101,5.029,0.151l-0.184-0.208
			C29.349,20.781,29.093,20.484,28.926,20.129"/>
	</g>
</g>
<g>
</g>
<g>
</g>
<g>
</g>
<g>
</g>
<g>
</g>
<g>
</g>
</svg>
