<?xml version="1.0" encoding="utf-8"?>
<!-- Generator: Adobe Illustrator 16.0.0, SVG Export Plug-In . SVG Version: 6.00 Build 0)  -->
<!DOCTYPE svg PUBLIC "-//W3C//DTD SVG 1.1//EN" "http://www.w3.org/Graphics/SVG/1.1/DTD/svg11.dtd">
<svg version="1.1" id="Capa_1" xmlns="http://www.w3.org/2000/svg" xmlns:xlink="http://www.w3.org/1999/xlink" x="0px" y="0px"
	 width="55px" height="55.5px" viewBox="0 0 55 55.5" enable-background="new 0 0 55 55.5" xml:space="preserve">
<path fill="#004B40" d="M27.5,2.75c13.808,0,25,11.193,25,25c0,13.808-11.192,25-25,25c-13.807,0-24.999-11.192-24.999-25
	C2.5,13.943,13.692,2.75,27.5,2.75"/>
<g opacity="0.24">
	<g>
		<defs>
			<rect id="SVGID_1_" x="16.286" y="13.688" width="36.074" height="38.138"/>
		</defs>
		<clipPath id="SVGID_2_">
			<use xlink:href="#SVGID_1_"  overflow="visible"/>
		</clipPath>
		<path clip-path="url(#SVGID_2_)" d="M21.965,39.539l12.287,12.287c9.703-2.716,17.022-11.14,18.107-21.423l-13.92-13.92
			l-0.451,0.758l-3.553-3.554l-5.213,1.496l-4.127,0.454H17.97l-1.685,1.684l1.685,7.669l10.483,10.484v2.481L21.965,39.539z"/>
	</g>
</g>
<path fill="#FBB040" d="M25.777,25.837h-5.806c-1.283,0-2.397-0.869-2.707-2.113l-1.212-4.846c-0.21-0.84-0.024-1.712,0.508-2.394
	c0.533-0.683,1.334-1.074,2.199-1.074h7.018V25.837z M18.759,16.589c-0.5,0-0.963,0.227-1.271,0.62
	c-0.307,0.395-0.414,0.899-0.292,1.383l1.21,4.847c0.18,0.718,0.824,1.22,1.564,1.22h4.628v-8.069H18.759z"/>
<path fill="#F78C00" d="M35.029,25.838h-5.807V15.41h7.019c0.865,0,1.666,0.393,2.199,1.073c0.532,0.684,0.717,1.555,0.508,2.396
	l-1.212,4.844C37.424,24.969,36.312,25.838,35.029,25.838 M30.401,24.658h4.628c0.741,0,1.384-0.502,1.563-1.221l1.212-4.845
	c0.121-0.485,0.014-0.99-0.294-1.383c-0.307-0.396-0.77-0.62-1.27-0.62h-5.839V24.658z"/>
<rect x="25.467" y="29.871" fill="#F78C00" width="4.064" height="6.937"/>
<rect x="27.5" y="29.871" fill="#FBB040" width="2.032" height="6.937"/>
<path fill="#FBB040" d="M27.5,32.184L27.5,32.184c-2.642,0-4.869-1.968-5.197-4.589l-1.739-13.907h13.872l-1.739,13.907
	C32.37,30.216,30.142,32.184,27.5,32.184"/>
<path fill="#F78C00" d="M27.5,13.688v18.495c2.642,0,4.87-1.968,5.197-4.589l1.739-13.906H27.5z"/>
<polygon fill="#B5B5B5" points="34.436,13.688 20.564,13.688 20.938,16.677 34.062,16.677 "/>
<polygon fill="#7F7F7F" points="34.436,13.688 27.499,13.688 27.499,16.677 34.062,16.677 "/>
<path fill="#FBB040" d="M33.035,39.539H21.966c0-2.554,2.07-4.624,4.624-4.624h1.821C30.965,34.915,33.035,36.985,33.035,39.539"/>
<path fill="#F78C00" d="M33.035,39.539c0-2.554-2.07-4.624-4.624-4.624H27.5v4.624H33.035z"/>
<path fill="#B5B5B5" d="M22.241,37.963c-0.178,0.492-0.275,1.022-0.275,1.576h11.068c0-0.554-0.097-1.084-0.275-1.576H22.241z"/>
<path fill="#7F7F7F" d="M32.758,37.963h-5.259v1.576h5.534C33.034,38.985,32.938,38.455,32.758,37.963"/>
<path fill="#FFEDB5" d="M27.873,20.483l0.441,0.896c0.06,0.123,0.177,0.208,0.313,0.227l0.986,0.145
	c0.341,0.048,0.477,0.467,0.231,0.708l-0.714,0.695c-0.098,0.096-0.143,0.232-0.119,0.367l0.168,0.984
	c0.058,0.338-0.298,0.597-0.603,0.437l-0.883-0.464c-0.121-0.063-0.264-0.063-0.385,0l-0.883,0.464
	c-0.305,0.16-0.661-0.099-0.603-0.437l0.168-0.984c0.024-0.135-0.021-0.271-0.119-0.367l-0.714-0.695
	c-0.247-0.241-0.11-0.66,0.23-0.708l0.987-0.145c0.136-0.019,0.252-0.104,0.312-0.227l0.442-0.896
	C27.28,20.175,27.721,20.175,27.873,20.483"/>
<path fill="#FEE187" d="M29.843,22.457c0.246-0.239,0.11-0.659-0.23-0.708l-0.987-0.144c-0.136-0.02-0.253-0.104-0.312-0.228
	l-0.442-0.895c-0.076-0.154-0.224-0.231-0.373-0.231v4.179c0.067,0,0.133,0.015,0.194,0.048l0.882,0.463
	c0.305,0.161,0.662-0.098,0.603-0.438l-0.168-0.983c-0.023-0.134,0.021-0.272,0.119-0.367L29.843,22.457z"/>
<g>
</g>
<g>
</g>
<g>
</g>
<g>
</g>
<g>
</g>
<g>
</g>
</svg>
