<?xml version="1.0" encoding="utf-8"?>
<!-- Generator: Adobe Illustrator 16.0.0, SVG Export Plug-In . SVG Version: 6.00 Build 0)  -->
<!DOCTYPE svg PUBLIC "-//W3C//DTD SVG 1.1//EN" "http://www.w3.org/Graphics/SVG/1.1/DTD/svg11.dtd">
<svg version="1.1" id="Capa_1" xmlns="http://www.w3.org/2000/svg" xmlns:xlink="http://www.w3.org/1999/xlink" x="0px" y="0px"
	 width="10.75px" height="11.875px" viewBox="0 0 10.75 11.875" enable-background="new 0 0 10.75 11.875" xml:space="preserve">
<path fill="#1EEA00" d="M7.822,3.872c0.169-0.119,0.33-0.253,0.477-0.401c0.312-0.31,0.52-0.692,0.585-1.074
	c0.073-0.42-0.033-0.81-0.294-1.07C8.382,1.12,8.103,1.011,7.779,1.011c-0.461,0-0.947,0.221-1.332,0.607
	c-0.618,0.617-0.979,1.47-1.172,2.078C5.131,3.085,4.845,2.259,4.29,1.704C3.993,1.406,3.612,1.253,3.25,1.253
	c-0.294,0-0.573,0.102-0.782,0.311c-0.464,0.464-0.4,1.279,0.141,1.821c0.192,0.193,0.419,0.354,0.657,0.487H1.25V6.25h0.595v4.161
	h7.134V6.25h0.595V3.872H7.822z M6.918,2.091c0.257-0.258,0.579-0.412,0.86-0.412c0.099,0,0.239,0.021,0.339,0.121
	c0.241,0.242,0.104,0.802-0.291,1.198C7.417,3.406,6.87,3.687,6.391,3.872H5.92C6.093,3.338,6.406,2.605,6.918,2.091 M2.829,2.394
	c-0.007-0.084,0-0.244,0.113-0.357c0.095-0.095,0.22-0.116,0.309-0.116c0.199,0,0.405,0.094,0.567,0.256
	c0.313,0.314,0.573,0.815,0.749,1.448c0.005,0.017,0.01,0.034,0.013,0.05C4.564,3.671,4.546,3.667,4.53,3.662
	c-0.633-0.176-1.133-0.435-1.448-0.75C2.935,2.765,2.842,2.576,2.829,2.394 M4.817,9.817H2.439V5.953h2.378V9.817z M4.817,5.655
	H1.844V4.466h2.973V5.655z M8.382,9.817H6.005V5.953h2.377V9.817z M8.978,5.655H6.005V4.466h2.973V5.655z"/>
<g>
</g>
<g>
</g>
<g>
</g>
<g>
</g>
<g>
</g>
<g>
</g>
</svg>
