<?xml version="1.0" encoding="utf-8"?>
<!-- Generator: Adobe Illustrator 16.0.0, SVG Export Plug-In . SVG Version: 6.00 Build 0)  -->
<!DOCTYPE svg PUBLIC "-//W3C//DTD SVG 1.1//EN" "http://www.w3.org/Graphics/SVG/1.1/DTD/svg11.dtd">
<svg version="1.1" id="Capa_1" xmlns="http://www.w3.org/2000/svg" xmlns:xlink="http://www.w3.org/1999/xlink" x="0px" y="0px"
	 width="55px" height="55.5px" viewBox="0 0 55 55.5" enable-background="new 0 0 55 55.5" xml:space="preserve">
<path fill="#004B40" d="M27.5,2.75c13.808,0,25,11.193,25,25c0,13.808-11.192,24.999-25,24.999C13.692,52.75,2.5,41.558,2.5,27.75
	C2.5,13.944,13.692,2.75,27.5,2.75"/>
<g opacity="0.24">
	<g>
		<defs>
			<rect id="SVGID_1_" x="14.239" y="12.178" width="38.26" height="40.57"/>
		</defs>
		<clipPath id="SVGID_2_">
			<use xlink:href="#SVGID_1_"  overflow="visible"/>
		</clipPath>
		<path clip-path="url(#SVGID_2_)" d="M52.397,25.497L39.083,12.183H27.276v5.916l3.861,3.86h-15.22v13.514h-1.678v5.916
			l11.285,11.284c0.651,0.051,1.311,0.076,1.976,0.076c13.807,0,25-11.191,25-24.999C52.5,26.991,52.463,26.24,52.397,25.497"/>
	</g>
</g>
<rect x="31.569" y="15.778" fill="#CCCCCC" width="3.218" height="6.818"/>
<rect x="15.917" y="21.96" fill="#CCCCCC" width="23.166" height="13.513"/>
<rect x="27.492" y="21.96" fill="#A3A3A3" width="11.59" height="13.513"/>
<rect x="14.239" y="35.472" fill="#B5B5B5" width="26.435" height="5.916"/>
<rect x="27.492" y="35.472" fill="#7F7F7F" width="13.182" height="5.916"/>
<rect x="27.276" y="12.182" fill="#ECF4F6" width="11.807" height="5.916"/>
<rect x="28.269" y="12.901" fill="#B5DFEC" width="9.57" height="4.455"/>
<rect x="17.847" y="23.961" fill="#004B40" width="7.497" height="3.5"/>
<rect x="29.601" y="27.461" fill="#004B40" width="2.896" height="2.896"/>
<rect x="34.233" y="27.461" fill="#004B40" width="2.896" height="2.896"/>
<rect x="29.601" y="31.853" fill="#004B40" width="2.896" height="2.896"/>
<rect x="34.233" y="31.853" fill="#004B40" width="2.896" height="2.896"/>
<polygon fill="#FF8B88" points="25.991,15.005 21.108,10.123 16.225,15.005 18.33,15.005 18.33,19.584 23.887,19.584 23.887,15.005 
	"/>
<polygon fill="#F44336" points="21.108,10.123 21.07,10.161 21.07,19.584 23.886,19.584 23.886,15.005 25.991,15.005 "/>
<g>
</g>
<g>
</g>
<g>
</g>
<g>
</g>
<g>
</g>
<g>
</g>
</svg>
