<?xml version="1.0" encoding="utf-8"?>
<!-- Generator: Adobe Illustrator 16.0.0, SVG Export Plug-In . SVG Version: 6.00 Build 0)  -->
<!DOCTYPE svg PUBLIC "-//W3C//DTD SVG 1.1//EN" "http://www.w3.org/Graphics/SVG/1.1/DTD/svg11.dtd">
<svg version="1.1" id="Capa_1" xmlns="http://www.w3.org/2000/svg" xmlns:xlink="http://www.w3.org/1999/xlink" x="0px" y="0px"
	 width="55px" height="55.5px" viewBox="0 0 55 55.5" enable-background="new 0 0 55 55.5" xml:space="preserve">
<path fill="#004B40" d="M26.999,2.707c13.808,0,25,11.193,25,25c0,13.807-11.192,25-25,25C13.191,52.707,2,41.514,2,27.707
	C2,13.9,13.191,2.707,26.999,2.707"/>
<path fill="#2C91D0" d="M27.879,34.803c-0.19-0.003-0.373-0.006-0.531-0.006C27.348,34.797,27.569,34.81,27.879,34.803"/>
<path fill="#E2AC69" d="M19.575,36.381c0,0.292,0.237,0.528,0.529,0.528c0.291,0,0.529-0.236,0.529-0.528
	c0-0.261,0-1.055,1.583-1.055h8.981c0.291,0,0.525-0.237,0.525-0.529c0-0.013-0.004-0.021-0.004-0.036
	c-1.316,0.1-2.806,0.057-3.838,0.042c-0.313,0.01-0.532-0.006-0.532-0.006c0.159,0,0.341,0.003,0.532,0.006
	c0.572-0.019,1.452-0.113,1.857-0.534h-7.521C20.562,34.269,19.575,35.058,19.575,36.381"/>
<path fill="#F78C00" d="M37.534,17.364c0,2.335-1.891,4.229-4.225,4.229s-4.227-1.893-4.227-4.229c0-2.331,1.893-4.225,4.227-4.225
	S37.534,15.034,37.534,17.364"/>
<path fill="#F78C00" d="M23.169,30.995c0.333,0.057,0.671,0.091,1.01,0.091h2.06c0.335,0,0.665,0.038,0.988,0.115
	c1.408-0.685,2.382-2.127,2.382-3.798c0-2.335-1.889-4.228-4.224-4.228c-2.334,0-4.228,1.893-4.228,4.228
	C21.158,28.922,21.965,30.25,23.169,30.995"/>
<path fill="#FBB040" d="M27.498,27.403c0,1.165-0.946,2.111-2.112,2.111c-1.168,0-2.112-0.946-2.112-2.111
	c0-1.169,0.944-2.116,2.112-2.116C26.552,25.288,27.498,26.234,27.498,27.403"/>
<path fill="#FBB040" d="M35.421,17.364c0,1.169-0.947,2.115-2.112,2.115c-1.169,0-2.113-0.946-2.113-2.115
	c0-1.165,0.944-2.112,2.113-2.112C34.475,15.252,35.421,16.2,35.421,17.364"/>
<rect x="11.652" y="26.859" fill="#FBB040" width="2.641" height="15.861"/>
<g opacity="0.24">
	<g>
		<defs>
			<rect id="SVGID_1_" x="12.095" y="31.373" width="37.345" height="21.33"/>
		</defs>
		<clipPath id="SVGID_2_">
			<use xlink:href="#SVGID_1_"  overflow="visible"/>
		</clipPath>
		<path clip-path="url(#SVGID_2_)" d="M42.083,31.375c0.006,0.009,0.013,0.018,0.019,0.025c0.309,0.431,0.227,1.033-0.183,1.37
			l-8.026,6.251c-0.409,0.39-0.916,0.671-1.474,0.751h-0.01c-0.222,0.049-0.451,0.078-0.686,0.078l-6.883,1.046
			c-1.042,0.158-2.098,0.238-3.153,0.238h-7.394v-0.56l-2.197,2.197l9.304,9.306c1.8,0.411,3.674,0.63,5.599,0.63
			c9.85,0,18.367-5.697,22.441-13.975L42.083,31.375z"/>
	</g>
</g>
<path fill="#FAC176" d="M42.101,31.4c-0.663-0.923-1.212-1.143-3.51,0.067l-4.584,2.801c-0.52,0.278-1.361,0.421-2.29,0.492
	c0,0.014,0.005,0.024,0.005,0.036c0,0.292-0.234,0.527-0.525,0.527h-8.982c-1.583,0-1.583,0.797-1.583,1.057
	c0,0.292-0.237,0.529-0.528,0.529c-0.295,0-0.529-0.237-0.529-0.529c0-1.323,0.987-2.112,2.64-2.112h7.522
	c0.28-0.294,0.327-0.751-0.14-1.447c-0.742-1.109-2.024-1.738-3.357-1.738h-2.061c-1.2,0-2.387-0.356-3.344-1.079
	c-2.238-1.686-6.543-1.547-6.543-1.547v12.676h7.395c1.055,0,2.11-0.08,3.152-0.237l6.883-1.047c0.235,0,0.465-0.028,0.687-0.077
	h0.009c0.558-0.08,1.066-0.361,1.474-0.751l8.026-6.252C42.329,32.433,42.411,31.832,42.101,31.4"/>
<g>
</g>
<g>
</g>
<g>
</g>
<g>
</g>
<g>
</g>
<g>
</g>
</svg>
