<?xml version="1.0" encoding="utf-8"?>
<!-- Generator: Adobe Illustrator 16.0.0, SVG Export Plug-In . SVG Version: 6.00 Build 0)  -->
<!DOCTYPE svg PUBLIC "-//W3C//DTD SVG 1.1//EN" "http://www.w3.org/Graphics/SVG/1.1/DTD/svg11.dtd">
<svg version="1.1" id="Capa_1" xmlns="http://www.w3.org/2000/svg" xmlns:xlink="http://www.w3.org/1999/xlink" x="0px" y="0px"
	 width="55px" height="55.5px" viewBox="0 0 55 55.5" enable-background="new 0 0 55 55.5" xml:space="preserve">
<path fill="#004B40" d="M27.5,2.475c13.808,0,25,11.192,25,24.999c0,13.807-11.192,25-25,25c-13.807,0-24.999-11.193-24.999-25
	C2.5,13.667,13.692,2.475,27.5,2.475"/>
<g opacity="0.24">
	<g>
		<defs>
			<rect id="SVGID_1_" x="11.414" y="16.691" width="41.085" height="35.78"/>
		</defs>
		<clipPath id="SVGID_2_">
			<use xlink:href="#SVGID_1_"  overflow="visible"/>
		</clipPath>
		<path clip-path="url(#SVGID_2_)" d="M52.5,27.474c0-0.622-0.023-1.239-0.068-1.851l-8.938-8.937l-3.699,5.602l-12.297-4.571
			L11.415,38.161l14.246,14.247c0.608,0.044,1.221,0.066,1.839,0.066C41.308,52.474,52.5,41.283,52.5,27.474"/>
	</g>
</g>
<path fill="#FBB040" d="M41.912,38.943H13.089c-1.205,0-2.183-0.978-2.183-2.183V18.188c0-1.205,0.978-2.182,2.183-2.182h28.823
	c1.205,0,2.182,0.977,2.182,2.182V36.76C44.094,37.965,43.117,38.943,41.912,38.943"/>
<path fill="#F78C00" d="M41.912,16.006H27.498v22.938h14.414c1.205,0,2.182-0.978,2.182-2.183V18.188
	C44.094,16.984,43.117,16.006,41.912,16.006"/>
<rect x="10.906" y="20.151" fill="#333333" width="33.188" height="6.314"/>
<rect x="27.498" y="20.151" fill="#1A1A1A" width="16.597" height="6.314"/>
<polygon fill="#FFFFFF" points="26.028,37.143 24.869,36.296 23.711,37.143 22.551,36.296 21.393,37.143 20.234,36.296 
	19.076,37.143 17.917,36.296 16.758,37.143 15.599,36.296 14.44,37.143 14.44,18.276 15.598,19.123 16.757,18.276 17.916,19.123 
	19.075,18.276 20.233,19.123 21.391,18.276 22.55,19.123 23.71,18.276 24.869,19.123 26.028,18.276 "/>
<path fill="#FFFFFF" d="M14.44,37.143"/>
<polygon fill="#E0E0E0" points="20.234,36.296 21.393,37.144 22.551,36.296 23.711,37.144 24.869,36.296 26.028,37.144 
	26.028,18.276 24.869,19.123 23.71,18.276 22.55,19.123 21.391,18.276 20.233,19.123 "/>
<path fill="#004B40" d="M23.462,28.451c-0.199-0.31-0.47-0.568-0.808-0.768c-0.295-0.172-0.64-0.313-1.025-0.418
	c-0.17-0.046-0.348-0.092-0.531-0.138V24.93c0.07,0.016,0.135,0.037,0.197,0.059c0.215,0.081,0.435,0.244,0.656,0.486l0.519,0.568
	l1.113-1.197l-0.45-0.484c-0.371-0.396-0.788-0.686-1.241-0.863c-0.244-0.095-0.508-0.165-0.794-0.21v-1.122h-1.632v1.147
	c-0.592,0.105-1.098,0.318-1.508,0.636c-0.615,0.479-0.941,1.182-0.941,2.035c0,0.442,0.088,0.823,0.261,1.13
	c0.173,0.308,0.421,0.563,0.736,0.757c0.268,0.166,0.588,0.302,0.953,0.404c0.156,0.044,0.323,0.088,0.499,0.13v2.217
	c-0.141-0.033-0.276-0.076-0.405-0.128c-0.31-0.125-0.614-0.351-0.901-0.671l-0.466-0.521l-1.252,1.086l0.518,0.539
	c0.422,0.438,0.889,0.777,1.39,1.008c0.33,0.154,0.704,0.261,1.116,0.322v0.995h1.632v-0.98c0.199-0.025,0.389-0.061,0.57-0.107
	c0.41-0.107,0.772-0.267,1.074-0.478c0.327-0.227,0.584-0.516,0.765-0.857c0.181-0.343,0.274-0.738,0.274-1.173
	C23.781,29.188,23.674,28.782,23.462,28.451 M21.098,28.782c0.032,0.009,0.063,0.018,0.093,0.026
	c0.24,0.068,0.446,0.153,0.611,0.251c0.123,0.073,0.211,0.156,0.271,0.253c0.05,0.08,0.075,0.207,0.075,0.368
	c0,0.435-0.176,0.605-0.347,0.716c-0.189,0.12-0.424,0.207-0.703,0.26V28.782z M18.947,25.204c0.092-0.083,0.249-0.177,0.519-0.246
	v1.77c-0.03-0.007-0.059-0.016-0.087-0.024c-0.215-0.062-0.388-0.135-0.516-0.216c-0.076-0.049-0.128-0.1-0.158-0.16
	c-0.017-0.032-0.055-0.133-0.055-0.353C18.65,25.523,18.819,25.318,18.947,25.204"/>
<path fill="#003A2F" d="M23.461,28.451c-0.198-0.311-0.47-0.569-0.807-0.768c-0.295-0.173-0.64-0.312-1.026-0.419
	c-0.17-0.046-0.348-0.092-0.53-0.137v-2.198c0.069,0.017,0.135,0.037,0.196,0.06c0.215,0.081,0.436,0.244,0.656,0.485l0.52,0.568
	l1.112-1.197l-0.45-0.483c-0.37-0.397-0.787-0.687-1.24-0.863c-0.244-0.095-0.509-0.165-0.794-0.21v-1.122h-0.864v11.085h0.864
	v-0.979c0.198-0.025,0.389-0.061,0.569-0.107c0.41-0.107,0.773-0.267,1.074-0.478c0.328-0.228,0.584-0.516,0.765-0.856
	c0.182-0.344,0.274-0.739,0.274-1.174C23.78,29.188,23.673,28.782,23.461,28.451 M21.8,30.396c-0.188,0.12-0.424,0.207-0.702,0.26
	v-1.874c0.031,0.009,0.062,0.017,0.093,0.026c0.24,0.067,0.446,0.152,0.611,0.251c0.122,0.072,0.211,0.155,0.271,0.253
	c0.049,0.08,0.076,0.206,0.076,0.367C22.148,30.115,21.972,30.286,21.8,30.396"/>
<g>
</g>
<g>
</g>
<g>
</g>
<g>
</g>
<g>
</g>
<g>
</g>
</svg>
