<?xml version="1.0" encoding="utf-8"?>
<!-- Generator: Adobe Illustrator 16.0.0, SVG Export Plug-In . SVG Version: 6.00 Build 0)  -->
<!DOCTYPE svg PUBLIC "-//W3C//DTD SVG 1.1//EN" "http://www.w3.org/Graphics/SVG/1.1/DTD/svg11.dtd">
<svg version="1.1" id="Capa_1" xmlns="http://www.w3.org/2000/svg" xmlns:xlink="http://www.w3.org/1999/xlink" x="0px" y="0px"
	 width="55px" height="55.5px" viewBox="0 0 55 55.5" enable-background="new 0 0 55 55.5" xml:space="preserve">
<path fill="#004B40" d="M27.5,2.75c13.808,0,25,11.192,25,25s-11.192,25-25,25c-13.807,0-25-11.192-25-25S13.693,2.75,27.5,2.75"/>
<g opacity="0.24">
	<g>
		<defs>
			<rect id="SVGID_1_" x="11.422" y="17.577" width="41.078" height="35.171"/>
		</defs>
		<clipPath id="SVGID_2_">
			<use xlink:href="#SVGID_1_"  overflow="visible"/>
		</clipPath>
		<path clip-path="url(#SVGID_2_)" d="M52.467,26.471l-8.889-8.89H27.5H11.422v20.337l14.799,14.799
			c0.424,0.022,0.85,0.032,1.279,0.032c13.807,0,24.999-11.192,25-24.999C52.5,27.321,52.488,26.896,52.467,26.471"/>
	</g>
</g>
<path fill="#1EEA00" d="M41.519,38.479H12.696c-1.205,0-2.183-0.978-2.183-2.183V17.725c0-1.205,0.978-2.182,2.183-2.182h28.823
	c1.205,0,2.183,0.977,2.183,2.182v18.572C43.702,37.502,42.724,38.479,41.519,38.479"/>
<path fill="#7FFF5D" d="M41.519,15.543H27.104V38.48h14.414c1.205,0,2.183-0.979,2.183-2.184V17.726
	C43.702,16.521,42.724,15.543,41.519,15.543"/>
<rect x="15.29" y="30.486" fill="#003A2F" width="21.153" height="3.476"/>
<rect x="27.5" y="30.486" fill="#004B40" width="8.943" height="3.476"/>
<rect x="15.29" y="26.039" fill="#004B40" width="7.557" height="1.646"/>
<rect x="15.29" y="22.903" fill="#004B40" width="7.557" height="1.647"/>
<path fill="#FBB040" d="M36.327,18.61c0,0.512-0.414,0.924-0.924,0.924c-0.511,0-0.925-0.412-0.925-0.924
	c0-0.511,0.414-0.924,0.925-0.924C35.913,17.687,36.327,18.1,36.327,18.61"/>
<path fill="#004B40" d="M35.403,19.696c-0.599,0-1.086-0.487-1.086-1.085c0-0.6,0.487-1.085,1.086-1.085
	c0.598,0,1.085,0.485,1.085,1.085C36.488,19.209,36.001,19.696,35.403,19.696 M35.403,17.847c-0.421,0-0.764,0.344-0.764,0.765
	s0.343,0.763,0.764,0.763s0.763-0.342,0.763-0.763S35.824,17.847,35.403,17.847"/>
<g>
	<defs>
		<path id="SVGID_3_" d="M37.371,19.354c-0.618-0.217-1.28-0.328-1.968-0.328s-1.35,0.111-1.968,0.328
			c-0.214-0.203-0.852-0.719-1.82-0.719c-0.3,0-0.607,0.051-0.914,0.152l-0.17,0.055l0.072,0.163
			c0.002,0.004,0.155,0.345,0.288,0.778c0.044,0.14,0.078,0.268,0.112,0.392c0.126,0.465,0.227,0.836,0.619,1.249
			c-0.201,0.63-0.302,1.286-0.302,1.954c0,2.881,1.011,3.757,1.055,3.794l0.089,0.074l0.511-0.323l0.452,0.344l0.1-0.113
			c0.013-0.015,0.289-0.334,0.413-0.668c0.48,0.115,0.973,0.175,1.463,0.175c0.491,0,0.983-0.06,1.464-0.175
			c0.123,0.335,0.4,0.653,0.413,0.668l0.099,0.113l0.452-0.344l0.511,0.323l0.09-0.074c0.044-0.037,1.054-0.913,1.054-3.794
			c0-0.667-0.101-1.324-0.302-1.954c0.392-0.413,0.493-0.784,0.619-1.249c0.034-0.124,0.069-0.252,0.111-0.392
			c0.134-0.434,0.286-0.774,0.288-0.778l0.074-0.163l-0.17-0.055c-0.308-0.102-0.616-0.152-0.916-0.152
			C38.224,18.636,37.585,19.151,37.371,19.354"/>
	</defs>
	<clipPath id="SVGID_4_">
		<use xlink:href="#SVGID_3_"  overflow="visible"/>
	</clipPath>
	
		<linearGradient id="SVGID_5_" gradientUnits="userSpaceOnUse" x1="28.6562" y1="1775.9102" x2="29.6565" y2="1775.9102" gradientTransform="matrix(0 5.2984 5.2984 0 -9374.1172 -130.3711)">
		<stop  offset="0" style="stop-color:#1EEB00"/>
		<stop  offset="0.2794" style="stop-color:#1EEB00"/>
		<stop  offset="0.5054" style="stop-color:#1EE700"/>
		<stop  offset="0.7293" style="stop-color:#1EDB00"/>
		<stop  offset="0.9518" style="stop-color:#1EC700"/>
		<stop  offset="1" style="stop-color:#1EC200"/>
	</linearGradient>
	<rect x="30.531" y="18.636" clip-path="url(#SVGID_4_)" fill="url(#SVGID_5_)" width="9.745" height="8.632"/>
</g>
<path fill="#AFFF6A" d="M35.403,23.222c0.352,0,1.041-0.398,1.312-1.005c0.271-0.603-0.315-0.792-0.549-0.835
	c-0.281-0.052-0.763-0.056-0.763-0.056s-0.483,0.004-0.764,0.056c-0.234,0.043-0.82,0.232-0.549,0.835
	C34.361,22.823,35.05,23.222,35.403,23.222"/>
<path fill="#004B40" d="M36.195,21.224c-0.291-0.054-0.771-0.059-0.794-0.059c-0.021,0-0.5,0.005-0.791,0.059
	c-0.152,0.027-0.525,0.125-0.684,0.426c-0.095,0.182-0.09,0.396,0.017,0.633c0.306,0.682,1.056,1.1,1.46,1.1
	c0.403,0,1.153-0.418,1.459-1.1c0.107-0.237,0.112-0.451,0.017-0.633C36.72,21.349,36.348,21.251,36.195,21.224 M36.569,22.152
	c-0.253,0.563-0.899,0.909-1.166,0.909c-0.268,0-0.913-0.346-1.167-0.909c-0.065-0.145-0.072-0.264-0.024-0.354
	c0.075-0.142,0.285-0.226,0.457-0.258c0.262-0.048,0.73-0.053,0.73-0.053c0.007,0,0.475,0.005,0.738,0.053
	c0.171,0.032,0.382,0.116,0.456,0.258C36.642,21.889,36.633,22.008,36.569,22.152 M40.155,18.634
	c-0.323-0.104-0.648-0.158-0.965-0.158c-0.927,0-1.572,0.449-1.856,0.696c-0.61-0.204-1.258-0.307-1.931-0.307
	c-0.674,0-1.322,0.103-1.932,0.307c-0.284-0.247-0.928-0.696-1.856-0.696c-0.318,0-0.642,0.054-0.965,0.158l-0.34,0.111l0.147,0.327
	c0.002,0.003,0.15,0.336,0.28,0.759c0.043,0.138,0.077,0.265,0.11,0.387c0.12,0.442,0.226,0.831,0.594,1.248
	c-0.187,0.618-0.283,1.262-0.283,1.913c0,1.224,0.177,2.242,0.526,3.029c0.272,0.614,0.555,0.862,0.586,0.887l0.181,0.151
	l0.197-0.125l0.318-0.202l0.245,0.186l0.238,0.182l0.197-0.226c0.032-0.035,0.248-0.287,0.389-0.587
	c0.451,0.099,0.909,0.148,1.368,0.148c0.458,0,0.917-0.05,1.367-0.148c0.141,0.3,0.357,0.552,0.389,0.587l0.197,0.226l0.238-0.182
	l0.245-0.186l0.318,0.202l0.198,0.125l0.18-0.151c0.031-0.024,0.314-0.272,0.586-0.887c0.349-0.787,0.526-1.806,0.526-3.029
	c0-0.651-0.095-1.296-0.283-1.913c0.368-0.417,0.473-0.806,0.594-1.248c0.033-0.123,0.067-0.249,0.11-0.387
	c0.13-0.423,0.279-0.756,0.28-0.759l0.147-0.327L40.155,18.634z M39.607,19.69c-0.045,0.144-0.08,0.274-0.115,0.401
	c-0.107,0.394-0.185,0.681-0.43,0.983c-0.216-0.559-0.455-0.938-0.566-1.098c0.074-0.115,0.271-0.356,0.724-0.57l-0.136-0.291
	c-0.754,0.354-0.921,0.802-0.928,0.82l-0.03,0.084l0.054,0.069c0.01,0.013,0.985,1.291,0.985,3.289c0,2.24-0.637,3.195-0.862,3.463
	l-0.489-0.31l-0.393,0.298c-0.089-0.108-0.202-0.269-0.257-0.424c0.135-0.039,0.27-0.082,0.404-0.13l-0.11-0.304
	c-0.663,0.243-1.354,0.366-2.055,0.366c-0.702,0-1.394-0.123-2.056-0.366l-0.11,0.304c0.134,0.048,0.268,0.091,0.404,0.13
	c-0.055,0.155-0.168,0.315-0.258,0.424l-0.392-0.298l-0.49,0.311c-0.226-0.264-0.861-1.207-0.861-3.464
	c0-1.998,0.975-3.276,0.985-3.289l0.054-0.069l-0.03-0.084c-0.007-0.019-0.174-0.466-0.927-0.82l-0.137,0.291
	c0.454,0.214,0.651,0.456,0.724,0.57c-0.111,0.16-0.35,0.539-0.566,1.098c-0.245-0.303-0.323-0.59-0.43-0.983
	c-0.034-0.127-0.07-0.258-0.114-0.401c-0.083-0.27-0.171-0.499-0.231-0.647c1.412-0.369,2.267,0.563,2.304,0.605l0.073,0.082
	l0.104-0.038c0.61-0.229,1.267-0.345,1.954-0.345c0.685,0,1.343,0.115,1.953,0.345l0.104,0.038l0.073-0.082
	c0.037-0.042,0.891-0.975,2.304-0.605C39.777,19.191,39.689,19.421,39.607,19.69 M35.232,21.923v0.145
	c0,0.135-0.111,0.247-0.247,0.247s-0.247-0.112-0.247-0.247v-0.145c0-0.136,0.111-0.246,0.247-0.246S35.232,21.787,35.232,21.923
	 M33.822,21.135c0,0.195-0.158,0.354-0.355,0.354c-0.195,0-0.353-0.159-0.353-0.354c0-0.194,0.158-0.354,0.353-0.354
	C33.665,20.781,33.822,20.94,33.822,21.135 M36.067,21.923v0.145c0,0.135-0.111,0.247-0.247,0.247c-0.136,0-0.246-0.112-0.246-0.247
	v-0.145c0-0.136,0.11-0.246,0.246-0.246C35.957,21.677,36.067,21.787,36.067,21.923 M37.691,21.135c0,0.195-0.158,0.354-0.354,0.354
	s-0.354-0.159-0.354-0.354c0-0.194,0.158-0.354,0.354-0.354S37.691,20.94,37.691,21.135"/>
<g>
</g>
<g>
</g>
<g>
</g>
<g>
</g>
<g>
</g>
<g>
</g>
</svg>
