<?xml version="1.0" encoding="utf-8"?>
<!-- Generator: Adobe Illustrator 16.0.0, SVG Export Plug-In . SVG Version: 6.00 Build 0)  -->
<!DOCTYPE svg PUBLIC "-//W3C//DTD SVG 1.1//EN" "http://www.w3.org/Graphics/SVG/1.1/DTD/svg11.dtd">
<svg version="1.1" id="Capa_1" xmlns="http://www.w3.org/2000/svg" xmlns:xlink="http://www.w3.org/1999/xlink" x="0px" y="0px"
	 width="55px" height="55.5px" viewBox="0 0 55 55.5" enable-background="new 0 0 55 55.5" xml:space="preserve">
<path fill="#004B40" d="M27.5,2.394c13.807,0,25,11.192,25,24.999c0,13.808-11.193,25-25,25s-25-11.192-25-25
	C2.5,13.586,13.693,2.394,27.5,2.394"/>
<g opacity="0.24">
	<g>
		<defs>
			<rect id="SVGID_1_" x="16.901" y="14.129" width="35.599" height="38.26"/>
		</defs>
		<clipPath id="SVGID_2_">
			<use xlink:href="#SVGID_1_"  overflow="visible"/>
		</clipPath>
		<path clip-path="url(#SVGID_2_)" d="M52.5,27.393c0-0.052-0.002-0.104-0.002-0.154L39.385,14.125l-14.48,15.084l-7.176,6.427
			l3.676,3.656l-4.504,2.818l10.34,10.279c0.086,0.001,0.172,0.004,0.259,0.004C41.307,52.393,52.5,41.201,52.5,27.393"/>
	</g>
</g>
<path fill="#FBB040" d="M38.259,40.711l-4.924-7.386c-0.203-0.304-0.545-0.487-0.911-0.487h-9.848c-0.366,0-0.708,0.184-0.911,0.487
	l-4.924,7.386c-0.223,0.336-0.245,0.769-0.053,1.124c0.189,0.355,0.56,0.577,0.964,0.577h19.697c0.403,0,0.774-0.222,0.964-0.577
	C38.504,41.48,38.483,41.047,38.259,40.711"/>
<path fill="#F78C00" d="M38.259,40.711l-4.924-7.386c-0.203-0.304-0.545-0.487-0.911-0.487h-4.979v9.574h9.904
	c0.403,0,0.774-0.222,0.964-0.578C38.504,41.48,38.483,41.047,38.259,40.711"/>
<path fill="#FFFFFF" d="M27.5,13.804c6.741,0,12.205,5.466,12.205,12.205c0,6.741-5.464,12.205-12.205,12.205
	S15.295,32.75,15.295,26.009C15.295,19.27,20.759,13.804,27.5,13.804"/>
<path fill="#FFFFFF" d="M27.5,13.804c-0.019,0-0.037,0.001-0.056,0.001v24.408c0.019,0,0.037,0.001,0.056,0.001
	c6.741,0,12.205-5.464,12.205-12.205C39.705,19.27,34.241,13.804,27.5,13.804"/>
<path fill="#FF8B88" d="M27.5,39.73c-7.565,0-13.721-6.155-13.721-13.721S19.935,12.291,27.5,12.291s13.721,6.153,13.721,13.719
	S35.065,39.73,27.5,39.73 M27.5,15.32c-5.895,0-10.69,4.795-10.69,10.689S21.605,36.7,27.5,36.7s10.69-4.796,10.69-10.69
	S33.395,15.32,27.5,15.32"/>
<path fill="#F44336" d="M27.5,12.29c-0.019,0-0.037,0.001-0.056,0.001v3.03c0.019,0,0.037-0.001,0.056-0.001
	c5.895,0,10.69,4.795,10.69,10.69c0,5.894-4.795,10.689-10.69,10.689c-0.019,0-0.037-0.001-0.056-0.001v3.03
	c0.019,0,0.037,0.001,0.056,0.001c7.565,0,13.721-6.155,13.721-13.72C41.221,18.444,35.065,12.29,27.5,12.29"/>
<path fill="#FF8B88" d="M27.5,33.627c-4.2,0-7.618-3.418-7.618-7.618c0-4.199,3.418-7.616,7.618-7.616s7.618,3.417,7.618,7.616
	C35.118,30.209,31.7,33.627,27.5,33.627 M27.5,21.422c-2.529,0-4.588,2.059-4.588,4.587c0,2.529,2.059,4.589,4.588,4.589
	s4.588-2.06,4.588-4.589C32.088,23.481,30.029,21.422,27.5,21.422"/>
<path fill="#F44336" d="M27.5,18.392c-0.019,0-0.037,0.001-0.056,0.001v3.03c0.019,0,0.037-0.001,0.056-0.001
	c2.529,0,4.588,2.058,4.588,4.587s-2.059,4.588-4.588,4.588c-0.019,0-0.037-0.001-0.056-0.002v3.03
	c0.019,0.001,0.037,0.002,0.056,0.002c4.2,0,7.618-3.418,7.618-7.618S31.7,18.392,27.5,18.392"/>
<path fill="#FF8B88" d="M27.5,28.03c-1.114,0-2.021-0.906-2.021-2.02c0-1.114,0.907-2.021,2.021-2.021
	c1.114,0,2.021,0.906,2.021,2.021C29.521,27.124,28.614,28.03,27.5,28.03 M27.5,25c-0.557,0-1.01,0.453-1.01,1.011
	c0,0.557,0.453,1.011,1.01,1.011s1.01-0.454,1.01-1.011C28.51,25.453,28.057,25,27.5,25"/>
<path fill="#F44336" d="M27.5,23.99c-0.019,0-0.037,0.002-0.056,0.003v1.011C27.463,25.002,27.481,25,27.5,25
	c0.557,0,1.01,0.452,1.01,1.01c0,0.557-0.453,1.01-1.01,1.01c-0.019,0-0.037-0.002-0.056-0.003v1.01
	c0.019,0.001,0.037,0.003,0.056,0.003c1.114,0,2.021-0.906,2.021-2.02C29.521,24.896,28.614,23.99,27.5,23.99"/>
<path fill="#FBB040" d="M27.5,27.104c-0.28,0-0.561-0.106-0.773-0.319c-0.428-0.429-0.428-1.12,0-1.548l11.11-11.111
	c0.428-0.427,1.12-0.427,1.548,0c0.427,0.427,0.427,1.12,0,1.547L28.273,26.785C28.061,26.998,27.78,27.104,27.5,27.104"/>
<path fill="#F78C00" d="M39.396,14.137L26.739,26.794c0.212,0.206,0.486,0.31,0.761,0.31c0.281,0,0.56-0.107,0.774-0.32
	l11.111-11.111C39.809,15.249,39.812,14.566,39.396,14.137"/>
<g>
</g>
<g>
</g>
<g>
</g>
<g>
</g>
<g>
</g>
<g>
</g>
</svg>
