<?xml version="1.0" encoding="utf-8"?>
<!-- Generator: Adobe Illustrator 21.0.0, SVG Export Plug-In . SVG Version: 6.00 Build 0)  -->
<svg version="1.1" id="Layer_1" xmlns="http://www.w3.org/2000/svg" xmlns:xlink="http://www.w3.org/1999/xlink" x="0px" y="0px"
	 viewBox="0 0 421.4 250" style="enable-background:new 0 0 421.4 250;" xml:space="preserve">
<style type="text/css">
	.st0{fill:#00609C;}
	.st1{fill:#FFFFFF;}
	.st2{fill:none;stroke:#FFFFFE;stroke-width:2.5726;stroke-miterlimit:10;}
	.st3{fill:#FFFFFE;}
	.st4{fill:#6DA4C8;}
	.st5{fill:url(#_Path__1_);}
	.st6{fill:#004A3D;}
	.st7{fill:#7FFF5D;}
	.st8{fill:#012D25;}
	.st9{fill:#FBB040;}
	.st10{fill:#FFB95C;}
	.st11{fill:#D7D7D7;}
	.st12{fill:#E4E7E7;}
	.st13{fill:#AAAAAA;}
	.st14{fill:#D3D3D3;}
</style>
<title>Fogafin - home</title>
<g>
	<path class="st0" d="M365.4,237.7c0,6.2-5.1,11.3-11.3,11.3H71.3c-6.2,0-11.3-5.1-11.3-11.3v-67.2c0-6.3,5.1-11.3,11.3-11.3h282.7
		c6.2,0,11.3,5.1,11.3,11.3l0,0L365.4,237.7z"/>
	<path class="st1" d="M211.1,179c1-0.2,2.1-0.2,3.1-0.2c1.3-0.1,2.5,0.3,3.5,1c0.7,0.7,1.1,1.6,1.1,2.6c0,1-0.3,2-1,2.7
		c-1,1-2.4,1.5-3.8,1.4c-0.4,0-0.9,0-1.3-0.1v5h-1.6L211.1,179z M212.7,185.1c0.4,0.1,0.9,0.1,1.3,0.1c2,0,3.1-0.9,3.1-2.7
		c0-1.7-1.2-2.5-3-2.5c-0.5,0-1,0-1.5,0.1L212.7,185.1z"/>
	<path class="st1" d="M220.5,185.2c0-1.1,0-2-0.1-2.8h1.4l0.1,1.8h0.1c0.3-1.1,1.3-1.9,2.5-2c0.2,0,0.3,0,0.5,0.1v1.5
		c-0.2,0-0.4-0.1-0.6-0.1c-1.1,0.1-2.1,1-2.2,2.1c0,0.3-0.1,0.5-0.1,0.8v4.8h-1.6L220.5,185.2z"/>
	<path class="st1" d="M234.4,186.9c0,3.3-2.3,4.8-4.5,4.8c-2.4,0-4.3-1.8-4.3-4.6c0-3,2-4.8,4.5-4.8S234.4,184.1,234.4,186.9z
		 M227.2,187c0,2,1.1,3.5,2.7,3.5c1.6,0,2.7-1.4,2.7-3.5c0-1.5-0.8-3.5-2.7-3.5C228.1,183.5,227.2,185.2,227.2,187z"/>
	<path class="st1" d="M244,178.2v10.9c0,0.8,0,1.6,0.1,2.3h-1.4l-0.1-1.6h0c-0.6,1.1-1.8,1.8-3.1,1.8c-2.2,0-3.9-1.8-3.9-4.6
		c0-3,1.8-4.8,4-4.8c1.1-0.1,2.1,0.5,2.7,1.4h0v-5.4L244,178.2z M242.4,186.1c0-0.2,0-0.5-0.1-0.7c-0.2-1.1-1.2-1.9-2.4-1.9
		c-1.7,0-2.7,1.5-2.7,3.5c0,1.8,0.9,3.3,2.7,3.3c1.2,0,2.2-0.8,2.4-2c0.1-0.2,0.1-0.5,0.1-0.7V186.1z"/>
	<path class="st1" d="M254.1,189c0,0.9,0,1.8,0.1,2.5h-1.4l-0.1-1.4l0,0c-0.6,1.1-1.8,1.7-3,1.7c-1.4,0-3.1-0.8-3.1-3.9v-5.3h1.6v5
		c0,1.7,0.5,2.9,2,2.9c1,0,1.8-0.6,2.2-1.5c0.1-0.3,0.1-0.6,0.1-0.8v-5.5h1.6L254.1,189z"/>
	<path class="st1" d="M263.1,191.1c-0.8,0.4-1.7,0.5-2.6,0.5c-2.7,0-4.5-1.8-4.5-4.6c-0.1-2.5,1.8-4.7,4.4-4.8c0.2,0,0.3,0,0.5,0
		c0.8,0,1.6,0.1,2.3,0.5l-0.4,1.3c-0.6-0.3-1.2-0.5-1.9-0.4c-2.1,0-3.2,1.5-3.2,3.4c0,2.1,1.3,3.4,3.1,3.4c0.7,0,1.4-0.2,2-0.4
		L263.1,191.1z"/>
	<path class="st1" d="M267,179.9v2.6h2.3v1.2H267v4.9c0,1.1,0.3,1.8,1.2,1.8c0.3,0,0.6,0,0.9-0.1l0.1,1.2c-0.5,0.2-1,0.2-1.4,0.2
		c-0.7,0-1.3-0.2-1.8-0.7c-0.5-0.7-0.7-1.5-0.6-2.3v-4.9H264v-1.2h1.4v-2.2L267,179.9z"/>
	<path class="st1" d="M279.1,186.9c0,3.3-2.3,4.8-4.5,4.8c-2.4,0-4.3-1.8-4.3-4.6c0-3,2-4.8,4.5-4.8
		C277.2,182.2,279.1,184.1,279.1,186.9z M271.9,187c0,2,1.1,3.5,2.7,3.5s2.7-1.4,2.7-3.5c0-1.5-0.7-3.5-2.7-3.5
		S271.9,185.2,271.9,187z"/>
	<path class="st1" d="M284.7,185.4c0-1.2,0-2.1-0.1-2.9h1.4l0.1,1.5l0,0c0.7-1.1,1.9-1.8,3.2-1.8c2.2,0,3.8,1.8,3.8,4.6
		c0,3.2-2,4.8-4.1,4.8c-1.1,0-2.2-0.5-2.8-1.4l0,0v4.9h-1.6L284.7,185.4z M286.3,187.8c0,0.2,0,0.5,0.1,0.7c0.3,1.1,1.3,1.9,2.5,1.9
		c1.7,0,2.7-1.4,2.7-3.5c0-1.8-0.9-3.4-2.7-3.4c-1.2,0-2.2,0.9-2.5,2c-0.1,0.2-0.1,0.4-0.1,0.7V187.8z"/>
	<path class="st1" d="M295.1,185.2c0-1.1,0-2-0.1-2.8h1.4l0.1,1.8h0.1c0.3-1.1,1.3-1.9,2.5-2c0.2,0,0.3,0,0.5,0.1v1.5
		c-0.2,0-0.4-0.1-0.6-0.1c-1.1,0.1-2.1,1-2.2,2.1c0,0.3-0.1,0.5-0.1,0.8v4.8h-1.6L295.1,185.2z"/>
	<path class="st1" d="M309,186.9c0,3.3-2.3,4.8-4.5,4.8c-2.4,0-4.3-1.8-4.3-4.6c0-3,2-4.8,4.5-4.8C307.2,182.2,309,184.1,309,186.9z
		 M301.9,187c0,2,1.1,3.5,2.7,3.5c1.6,0,2.7-1.4,2.7-3.5c0-1.5-0.7-3.5-2.7-3.5S301.9,185.2,301.9,187z"/>
	<path class="st1" d="M312.9,179.9v2.6h2.3v1.2h-2.3v4.9c0,1.1,0.3,1.8,1.2,1.8c0.3,0,0.6,0,0.9-0.1l0.1,1.2c-0.5,0.2-1,0.2-1.4,0.2
		c-0.7,0-1.3-0.2-1.8-0.7c-0.5-0.7-0.7-1.5-0.6-2.3v-4.9h-1.4v-1.2h1.4v-2.2L312.9,179.9z"/>
	<path class="st1" d="M317.7,187.2c0,2.2,1.4,3.1,3.1,3.1c0.9,0,1.7-0.1,2.5-0.5l0.3,1.2c-0.9,0.4-2,0.6-3,0.6
		c-2.8,0-4.4-1.8-4.4-4.5c0-2.7,1.6-4.9,4.2-4.9c2.9,0,3.7,2.6,3.7,4.2c0,0.3,0,0.5-0.1,0.8H317.7z M322.5,186.1
		c0-1-0.4-2.7-2.3-2.7c-1.7,0-2.4,1.5-2.5,2.7H322.5z"/>
	<path class="st1" d="M333.7,182.4c0,0.7-0.1,1.4-0.1,2.5v5.2c0,2.1-0.4,3.3-1.3,4.1c-0.9,0.8-2.1,1.1-3.3,1.1c-1,0-2.1-0.2-3-0.7
		l0.4-1.2c0.8,0.5,1.7,0.7,2.6,0.7c1.7,0,2.9-0.9,2.9-3.1v-1l0,0c-0.6,1-1.7,1.6-2.9,1.5c-2.2,0-3.8-1.9-3.8-4.4
		c0-3.1,2-4.8,4.1-4.8c1.2-0.1,2.3,0.5,2.8,1.6l0,0l0.1-1.4L333.7,182.4z M332,186c0-0.2,0-0.5-0.1-0.7c-0.3-1-1.2-1.7-2.3-1.7
		c-1.6,0-2.7,1.3-2.7,3.4c0,1.8,0.9,3.2,2.7,3.2c1,0,2-0.7,2.3-1.7c0.1-0.3,0.1-0.6,0.1-0.9L332,186z"/>
	<path class="st1" d="M337.9,179.9c0,0.6-0.5,1-1,1c-0.6,0-1-0.5-1-1c0-0.6,0.4-1,1-1c0,0,0,0,0,0h0
		C337.4,178.9,337.8,179.3,337.9,179.9C337.8,179.8,337.8,179.8,337.9,179.9C337.8,179.8,337.9,179.9,337.9,179.9z M336,191.4v-9
		h1.6v9H336z"/>
	<path class="st1" d="M348,178.2v10.9c0,0.8,0,1.6,0.1,2.3h-1.4l-0.1-1.6l0,0c-0.6,1.1-1.8,1.8-3.1,1.8c-2.2,0-3.9-1.8-3.9-4.6
		c0-3,1.8-4.8,4-4.8c1.1-0.1,2.1,0.5,2.7,1.4l0,0v-5.4L348,178.2z M346.3,186.1c0-0.2,0-0.5-0.1-0.7c-0.2-1.1-1.2-1.9-2.4-1.9
		c-1.7,0-2.7,1.5-2.7,3.5c0,1.8,0.9,3.3,2.7,3.3c1.2,0,2.2-0.8,2.4-2c0.1-0.2,0.1-0.5,0.1-0.7V186.1z"/>
	<path class="st1" d="M358.7,186.9c0,3.3-2.3,4.8-4.5,4.8c-2.4,0-4.3-1.8-4.3-4.6c0-3,2-4.8,4.5-4.8
		C356.8,182.2,358.7,184.1,358.7,186.9z M351.5,187c0,2,1.1,3.5,2.7,3.5s2.7-1.4,2.7-3.5c0-1.5-0.7-3.5-2.7-3.5
		S351.5,185.2,351.5,187z"/>
	<path class="st1" d="M223.4,205c0-1.2,0-2.1-0.1-2.9h1.4l0.1,1.5h0c0.7-1.1,1.9-1.8,3.2-1.8c2.2,0,3.8,1.8,3.8,4.6
		c0,3.2-2,4.8-4.1,4.8c-1.1,0-2.2-0.5-2.8-1.4h0v4.9h-1.6L223.4,205z M225,207.4c0,0.2,0,0.5,0.1,0.7c0.3,1.1,1.3,1.9,2.5,1.9
		c1.7,0,2.7-1.4,2.7-3.5c0-1.8-0.9-3.4-2.7-3.4c-1.2,0-2.2,0.9-2.5,2c-0.1,0.2-0.1,0.4-0.1,0.7L225,207.4z"/>
	<path class="st1" d="M242,206.5c0,3.3-2.3,4.8-4.5,4.8c-2.4,0-4.3-1.8-4.3-4.6c0-3,2-4.8,4.5-4.8C240.1,201.8,242,203.7,242,206.5z
		 M234.8,206.6c0,2,1.1,3.5,2.7,3.5s2.7-1.4,2.7-3.5c0-1.5-0.8-3.5-2.7-3.5C235.7,203.1,234.8,204.9,234.8,206.6z"/>
	<path class="st1" d="M243.9,204.9c0-1.1,0-2-0.1-2.8h1.4l0.1,1.8h0.1c0.3-1.1,1.3-1.9,2.5-2c0.2,0,0.3,0,0.5,0.1v1.5
		c-0.2,0-0.4-0.1-0.6-0.1c-1.1,0.1-2.1,1-2.2,2.1c0,0.2-0.1,0.5-0.1,0.7v4.8h-1.6L243.9,204.9z"/>
	<path class="st1" d="M254.5,206.8c0,2.2,1.4,3.1,3.1,3.1c0.9,0,1.7-0.1,2.5-0.5l0.3,1.2c-0.9,0.4-2,0.6-3,0.6
		c-2.8,0-4.4-1.8-4.4-4.5c0-2.7,1.6-4.9,4.2-4.9c2.9,0,3.7,2.6,3.7,4.2c0,0.2,0,0.5-0.1,0.7L254.5,206.8z M259.3,205.7
		c0-1-0.4-2.7-2.3-2.7c-1.7,0-2.4,1.5-2.5,2.7H259.3z"/>
	<path class="st1" d="M262.7,197.8h1.6v13.2h-1.6V197.8z"/>
	<path class="st1" d="M270.5,209.1c0.9,0.5,1.9,0.8,2.9,0.8c1.7,0,2.6-0.9,2.6-2.2c0-1.3-0.7-1.8-2.4-2.5c-2.1-0.7-3.3-1.8-3.3-3.6
		c0-2,1.6-3.4,4.1-3.4c1,0,1.9,0.2,2.8,0.6l-0.5,1.3c-0.7-0.4-1.6-0.6-2.4-0.6c-1.7,0-2.4,1-2.4,1.9c0,1.2,0.7,1.8,2.5,2.4
		c2.1,0.8,3.2,1.8,3.2,3.7s-1.4,3.6-4.4,3.6c-1.1,0-2.2-0.3-3.2-0.8L270.5,209.1z"/>
	<path class="st1" d="M280.7,206.8c0,2.2,1.4,3.1,3.1,3.1c0.9,0,1.7-0.1,2.5-0.5l0.3,1.2c-0.9,0.4-2,0.6-3,0.6
		c-2.8,0-4.4-1.8-4.4-4.5c0-2.7,1.6-4.9,4.2-4.9c2.9,0,3.7,2.6,3.7,4.2c0,0.2,0,0.5-0.1,0.7L280.7,206.8z M285.5,205.7
		c0-1-0.4-2.7-2.3-2.7c-1.7,0-2.4,1.5-2.5,2.7H285.5z"/>
	<path class="st1" d="M296.7,202c0,0.7-0.1,1.4-0.1,2.5v5.2c0,2.1-0.4,3.3-1.3,4.1c-0.9,0.8-2.1,1.1-3.3,1.1c-1,0-2.1-0.2-3-0.7
		l0.4-1.2c0.8,0.5,1.7,0.7,2.6,0.7c1.7,0,2.9-0.9,2.9-3.1v-1l0,0c-0.6,1-1.7,1.6-2.9,1.5c-2.2,0-3.8-1.9-3.8-4.4
		c0-3.1,2-4.8,4.1-4.8c1.2-0.1,2.3,0.5,2.8,1.6l0,0l0.1-1.4L296.7,202z M295,205.6c0-0.2,0-0.5-0.1-0.7c-0.3-1-1.2-1.7-2.3-1.7
		c-1.6,0-2.7,1.3-2.7,3.4c0,1.8,0.9,3.2,2.7,3.2c1,0,2-0.7,2.3-1.7c0.1-0.3,0.1-0.6,0.1-0.9L295,205.6z"/>
	<path class="st1" d="M306.7,208.6c0,0.9,0,1.8,0.1,2.5h-1.4l-0.1-1.4l0,0c-0.6,1.1-1.8,1.7-3,1.7c-1.4,0-3.1-0.8-3.1-3.9v-5.3h1.6
		v5c0,1.7,0.5,2.9,2,2.9c1,0,1.8-0.6,2.2-1.5c0.1-0.3,0.1-0.6,0.1-0.8v-5.5h1.6L306.7,208.6z"/>
	<path class="st1" d="M309.2,204.9c0-1.1,0-2-0.1-2.8h1.4l0.1,1.8h0.1c0.3-1.1,1.3-1.9,2.5-2c0.2,0,0.3,0,0.5,0.1v1.5
		c-0.2,0-0.4-0.1-0.6-0.1c-1.1,0.1-2.1,1-2.2,2.1c0,0.2-0.1,0.5-0.1,0.7v4.8h-1.6L309.2,204.9z"/>
	<path class="st1" d="M323.1,206.5c0,3.3-2.3,4.8-4.5,4.8c-2.4,0-4.3-1.8-4.3-4.6c0-3,2-4.8,4.5-4.8
		C321.2,201.8,323.1,203.7,323.1,206.5z M315.9,206.6c0,2,1.1,3.5,2.7,3.5c1.6,0,2.7-1.4,2.7-3.5c0-1.5-0.7-3.5-2.7-3.5
		S315.9,204.9,315.9,206.6L315.9,206.6z"/>
	<path class="st1" d="M336.5,197.8v10.9c0,0.8,0,1.6,0.1,2.3h-1.4l-0.1-1.6l0,0c-0.6,1.1-1.8,1.8-3.1,1.8c-2.2,0-3.9-1.8-3.9-4.6
		c0-3,1.8-4.8,4-4.8c1.1-0.1,2.1,0.5,2.7,1.4l0,0v-5.4L336.5,197.8z M334.9,205.7c0-0.2,0-0.5-0.1-0.7c-0.2-1.1-1.2-1.9-2.4-1.9
		c-1.7,0-2.7,1.5-2.7,3.5c0,1.8,0.9,3.3,2.7,3.3c1.2,0,2.2-0.8,2.4-2c0.1-0.2,0.1-0.5,0.1-0.7V205.7z"/>
	<path class="st1" d="M340,206.8c0,2.2,1.4,3.1,3.1,3.1c0.9,0,1.7-0.1,2.5-0.5l0.3,1.2c-0.9,0.4-2,0.6-3,0.6c-2.8,0-4.4-1.8-4.4-4.5
		c0-2.7,1.6-4.9,4.2-4.9c2.9,0,3.7,2.6,3.7,4.2c0,0.2,0,0.5-0.1,0.7L340,206.8z M344.8,205.7c0-1-0.4-2.7-2.3-2.7
		c-1.7,0-2.4,1.5-2.5,2.7H344.8z"/>
	<path class="st1" d="M227.4,227.4l0.9,3.4c0.2,0.7,0.4,1.4,0.5,2.1h0.1c0.2-0.7,0.4-1.4,0.6-2.1l1.1-3.4h1l1,3.3
		c0.2,0.8,0.4,1.4,0.6,2.2h0.1c0.1-0.7,0.3-1.5,0.5-2.2l0.9-3.3h1.2l-2.1,6.6h-1.1l-1-3.2c-0.2-0.7-0.4-1.4-0.6-2.2l0,0
		c-0.2,0.7-0.4,1.5-0.6,2.2l-1.1,3.1h-1.2l-2-6.6L227.4,227.4z"/>
	<path class="st1" d="M237.6,227.4l0.9,3.4c0.2,0.7,0.4,1.4,0.5,2.1h0c0.2-0.7,0.4-1.4,0.6-2.1l1.1-3.4h1l1,3.3
		c0.2,0.8,0.4,1.4,0.6,2.2l0,0c0.1-0.7,0.3-1.5,0.5-2.2l0.9-3.3h1.2l-2.1,6.6h-1.1l-1-3.2c-0.2-0.7-0.4-1.4-0.6-2.2l0,0
		c-0.2,0.7-0.4,1.5-0.6,2.2l-1.1,3.1h-1.1l-2-6.6L237.6,227.4z"/>
	<path class="st1" d="M247.8,227.4l0.9,3.4c0.2,0.7,0.4,1.4,0.5,2.1h0c0.2-0.7,0.4-1.4,0.6-2.1l1.1-3.4h1l1,3.3
		c0.2,0.8,0.4,1.4,0.6,2.2h0c0.1-0.7,0.3-1.5,0.5-2.2l0.9-3.3h1.2l-2.1,6.6H253l-1-3.2c-0.2-0.7-0.4-1.4-0.6-2.2l0,0
		c-0.2,0.7-0.4,1.5-0.6,2.2l-1.1,3.1h-1.1l-2-6.6L247.8,227.4z"/>
	<path class="st1" d="M256.6,233.3c0-0.4,0.3-0.8,0.7-0.9h0.1c0.5,0,0.9,0.3,0.9,0.8s-0.3,0.9-0.8,0.9
		C257,234.2,256.6,233.9,256.6,233.3C256.6,233.4,256.6,233.4,256.6,233.3z"/>
	<path class="st1" d="M259.8,234.1v-5.7h-0.9v-0.9h0.9v-0.3c-0.1-0.8,0.2-1.7,0.7-2.3c0.4-0.4,1-0.6,1.6-0.6c0.3,0,0.7,0.1,1,0.2
		l-0.2,0.9c-0.2-0.1-0.5-0.2-0.7-0.2c-1,0-1.3,0.9-1.3,1.9v0.4h1.6v0.9H261v5.7L259.8,234.1z"/>
	<path class="st1" d="M269.4,230.7c0.2,1.8-1.1,3.3-2.9,3.5h-0.4c-1.7,0-3.2-1.4-3.2-3.1c0,0,0,0,0,0c0-0.1,0-0.2,0-0.3
		c-0.1-1.8,1.2-3.4,3-3.5c0.1,0,0.2,0,0.3,0c1.7,0,3.2,1.4,3.2,3.2C269.4,230.5,269.4,230.6,269.4,230.7z M264.2,230.8
		c0,1.4,0.8,2.5,2,2.5s2-1.1,2-2.6c0-1.1-0.6-2.5-2-2.5C264.8,228.2,264.2,229.5,264.2,230.8L264.2,230.8z"/>
	<path class="st1" d="M276.7,227.4c0,0.5-0.1,1-0.1,1.8v3.8c0,1.5-0.3,2.4-0.9,3c-0.7,0.6-1.5,0.8-2.4,0.8c-0.8,0-1.5-0.2-2.2-0.5
		l0.3-0.9c0.6,0.3,1.3,0.5,1.9,0.5c1.2,0,2.1-0.6,2.1-2.3v-0.7l0,0c-0.5,0.7-1.3,1.1-2.1,1.1c-1.6,0-2.8-1.4-2.8-3.2
		c0-2.2,1.4-3.5,3-3.5c0.9-0.1,1.7,0.4,2.1,1.1l0,0l0.1-1L276.7,227.4z M275.4,230.1c0-0.2,0-0.4-0.1-0.5c-0.2-0.8-0.9-1.3-1.7-1.3
		c-1.1,0-2,1-2,2.5c0,1.3,0.7,2.4,1.9,2.4c0.8,0,1.4-0.5,1.7-1.2c0.1-0.2,0.1-0.4,0.1-0.6V230.1z"/>
	<path class="st1" d="M282.3,234.1l-0.1-0.8h0c-0.5,0.6-1.2,1-2,1c-1,0.1-1.9-0.7-2-1.7c0-0.1,0-0.1,0-0.2c0-1.6,1.4-2.5,4-2.5v-0.1
		c0.1-0.7-0.4-1.4-1.2-1.5c-0.1,0-0.2,0-0.3,0c-0.6,0-1.2,0.2-1.7,0.5l-0.3-0.8c0.7-0.4,1.4-0.6,2.2-0.6c2,0,2.5,1.4,2.5,2.7v2.5
		c0,0.5,0,1.1,0.1,1.6L282.3,234.1z M282.1,230.7c-1.3,0-2.8,0.2-2.8,1.4c-0.1,0.6,0.4,1.1,1,1.1c0,0,0,0,0,0h0.2
		c0.7,0,1.4-0.4,1.6-1.1c0-0.1,0.1-0.3,0.1-0.4L282.1,230.7z"/>
	<path class="st1" d="M285.3,234.1v-5.7h-0.9v-0.9h0.9v-0.3c-0.1-0.8,0.2-1.7,0.7-2.3c0.4-0.4,1-0.6,1.6-0.6c0.3,0,0.7,0.1,1,0.2
		l-0.2,0.9c-0.2-0.1-0.5-0.2-0.7-0.2c-1,0-1.3,0.9-1.3,1.9v0.4h1.6v0.9h-1.6v5.7L285.3,234.1z"/>
	<path class="st1" d="M290.5,225.6c0,0.4-0.3,0.7-0.7,0.7c-0.4,0-0.7-0.3-0.7-0.7c0-0.4,0.3-0.7,0.7-0.7
		C290.2,224.8,290.5,225.2,290.5,225.6C290.5,225.6,290.5,225.6,290.5,225.6z M289.2,234.1v-6.6h1.2v6.6H289.2z"/>
	<path class="st1" d="M292.4,229.2c0-0.6,0-1.2-0.1-1.8h1.1l0.1,1.1l0,0c0.4-0.8,1.3-1.3,2.2-1.2c0.9,0,2.3,0.5,2.3,2.8v3.9h-1.2
		v-3.8c0-1.1-0.4-1.9-1.5-1.9c-0.7,0-1.4,0.5-1.6,1.2c-0.1,0.2-0.1,0.4-0.1,0.6v4h-1.2L292.4,229.2z"/>
	<path class="st1" d="M299.6,233.3c0-0.4,0.3-0.8,0.7-0.9h0.1c0.5,0,0.9,0.3,0.9,0.8s-0.3,0.9-0.8,0.9
		C300,234.2,299.6,233.9,299.6,233.3C299.6,233.4,299.6,233.4,299.6,233.3z"/>
	<path class="st1" d="M308.4,227.4c0,0.5-0.1,1-0.1,1.8v3.8c0,1.5-0.3,2.4-0.9,3c-0.7,0.6-1.5,0.8-2.4,0.8c-0.8,0-1.5-0.2-2.2-0.5
		l0.3-0.9c0.6,0.3,1.3,0.5,1.9,0.5c1.2,0,2.1-0.6,2.1-2.3v-0.7l0,0c-0.5,0.7-1.3,1.1-2.1,1.1c-1.6,0-2.8-1.4-2.8-3.2
		c0-2.2,1.4-3.5,3-3.5c0.9-0.1,1.7,0.4,2.1,1.1l0,0l0.1-1L308.4,227.4z M307.2,230.1c0-0.2,0-0.4-0.1-0.5c-0.2-0.8-0.9-1.3-1.7-1.3
		c-1.1,0-2,1-2,2.5c0,1.3,0.7,2.4,1.9,2.4c0.8,0,1.4-0.5,1.7-1.2c0.1-0.2,0.1-0.4,0.1-0.6L307.2,230.1z"/>
	<path class="st1" d="M316.3,230.7c0.2,1.8-1.1,3.3-2.9,3.5h-0.4c-1.7,0-3.2-1.4-3.2-3.1c0,0,0,0,0,0c0-0.1,0-0.2,0-0.3
		c-0.1-1.8,1.2-3.4,3-3.5c0.1,0,0.2,0,0.3,0c1.7,0,3.2,1.4,3.2,3.2C316.4,230.5,316.3,230.6,316.3,230.7z M311.1,230.8
		c0,1.4,0.8,2.5,2,2.5s2-1.1,2-2.6c0-1.1-0.6-2.5-2-2.5C311.7,228.2,311.1,229.5,311.1,230.8L311.1,230.8z"/>
	<path class="st1" d="M318.2,227.4l1.3,3.7c0.2,0.6,0.4,1.1,0.5,1.7h0c0.2-0.5,0.3-1.1,0.6-1.7l1.3-3.7h1.3l-2.6,6.6h-1.2l-2.5-6.6
		H318.2z"/>
	<path class="st1" d="M323.5,233.3c0-0.4,0.3-0.8,0.7-0.9h0.1c0.5,0,0.9,0.3,0.9,0.8s-0.3,0.9-0.8,0.9
		C323.9,234.2,323.5,233.9,323.5,233.3C323.5,233.4,323.5,233.4,323.5,233.3z"/>
	<path class="st1" d="M331.3,233.8c-0.6,0.3-1.2,0.4-1.9,0.4c-1.7,0.1-3.2-1.2-3.3-3c0-0.1,0-0.3,0-0.4c-0.1-1.9,1.3-3.4,3.2-3.5
		h0.3c0.6,0,1.1,0.1,1.7,0.3l-0.3,0.9c-0.4-0.2-0.9-0.3-1.4-0.3c-1.4,0.1-2.4,1.2-2.4,2.6c0.1,1.3,1.1,2.3,2.3,2.4
		c0.5,0,1-0.1,1.4-0.3L331.3,233.8z"/>
	<path class="st1" d="M338.6,230.7c0.2,1.8-1.1,3.3-2.9,3.5h-0.4c-1.7,0-3.2-1.4-3.2-3.1c0,0,0,0,0,0c0-0.1,0-0.2,0-0.3
		c-0.1-1.8,1.2-3.4,3-3.5c0.1,0,0.2,0,0.3,0c1.7,0,3.2,1.4,3.2,3.2C338.6,230.5,338.6,230.6,338.6,230.7z M333.4,230.8
		c0,1.4,0.8,2.5,2,2.5c1.2,0,2-1.1,2-2.6c0-1.1-0.6-2.5-2-2.5C334,228.2,333.4,229.5,333.4,230.8L333.4,230.8z"/>
	<line class="st2" x1="201" y1="242.2" x2="201" y2="165.9"/>
	<path class="st3" d="M74.9,187c0,1.8-1.5,3.2-3.2,3.2c-1.8,0-3.2-1.5-3.2-3.2c0-1.8,1.5-3.2,3.2-3.2
		C73.5,183.8,74.9,185.2,74.9,187L74.9,187"/>
	<path class="st3" d="M82.9,187c0,1.8-1.5,3.2-3.2,3.2s-3.2-1.5-3.2-3.2c0-1.8,1.5-3.2,3.2-3.2S82.9,185.2,82.9,187L82.9,187"/>
	<path class="st3" d="M90.9,187c0,1.8-1.5,3.2-3.2,3.2c-1.8,0-3.2-1.5-3.2-3.2c0-1.8,1.5-3.2,3.2-3.2
		C89.4,183.8,90.9,185.2,90.9,187L90.9,187L90.9,187"/>
	<path class="st3" d="M74.9,194.9c0,1.8-1.5,3.2-3.2,3.2c-1.8,0-3.2-1.5-3.2-3.2c0-1.8,1.5-3.2,3.2-3.2
		C73.5,191.6,74.9,193.1,74.9,194.9L74.9,194.9"/>
	<path class="st3" d="M82.9,194.9c0,1.8-1.5,3.2-3.2,3.2s-3.2-1.5-3.2-3.2s1.5-3.2,3.2-3.2S82.9,193.1,82.9,194.9L82.9,194.9"/>
	<path class="st4" d="M90.9,194.9c0,1.8-1.5,3.2-3.2,3.2c-1.8,0-3.2-1.5-3.2-3.2s1.5-3.2,3.2-3.2C89.4,191.6,90.9,193.1,90.9,194.9
		L90.9,194.9L90.9,194.9"/>
	<path class="st3" d="M74.9,202.7c0,1.8-1.5,3.2-3.2,3.2c-1.8,0-3.2-1.5-3.2-3.2c0-1.8,1.5-3.2,3.2-3.2
		C73.5,199.5,74.9,200.9,74.9,202.7L74.9,202.7L74.9,202.7"/>
	<path class="st4" d="M82.9,202.7c0,1.8-1.5,3.2-3.2,3.2s-3.2-1.5-3.2-3.2s1.5-3.2,3.2-3.2S82.9,200.9,82.9,202.7L82.9,202.7
		L82.9,202.7"/>
	<path class="st4" d="M90.9,202.7c0,1.8-1.5,3.2-3.2,3.2c-1.8,0-3.2-1.5-3.2-3.2s1.5-3.2,3.2-3.2C89.4,199.5,90.9,200.9,90.9,202.7
		L90.9,202.7L90.9,202.7"/>
	<path class="st3" d="M97.3,184.1h13.1v4h-8.3v4.9h7.7v4h-7.7v8.7h-4.9L97.3,184.1z"/>
	<path class="st3" d="M127,197.6c0,5.7-4.1,8.3-8.2,8.3c-4.6,0-8.1-3-8.1-8.1s3.3-8.3,8.4-8.3C123.8,189.6,127,192.9,127,197.6z
		 M115.7,197.8c0,2.7,1.1,4.7,3.2,4.7c1.9,0,3.1-1.9,3.1-4.7c0-2.3-0.9-4.7-3.1-4.7C116.7,193.1,115.7,195.5,115.7,197.8z"/>
	<path class="st3" d="M143.6,203.3c0,3-0.6,5.5-2.4,7c-1.8,1.6-4,1.9-6.3,1.9c-1.9,0-3.9-0.4-5.6-1.2l0.9-3.7
		c1.4,0.8,2.9,1.2,4.5,1.2c2.3,0,4.1-1.2,4.1-4.1v-1h-0.1c-1,1.3-2.6,2.1-4.2,2c-3.9,0-6.6-3.1-6.6-7.6c0-5.1,3.2-8.2,7.1-8.2
		c1.7-0.1,3.4,0.8,4.3,2.2h0.1l0.2-1.9h4.2c-0.1,1-0.1,2.3-0.1,4.7V203.3z M138.8,196.4c0-0.3,0-0.6-0.1-0.9
		c-0.2-1.3-1.3-2.2-2.6-2.2c-1.8,0-3.2,1.6-3.2,4.4c0,2.3,1.2,4.2,3.2,4.2c1.2,0,2.3-0.8,2.6-1.9c0.1-0.4,0.2-0.9,0.2-1.3
		L138.8,196.4z"/>
	<path class="st3" d="M158.9,201.8c0,1.3,0.1,2.5,0.3,3.8h-4.3l-0.3-1.6h-0.1c-1.1,1.3-2.8,2-4.5,1.9c-2.6,0.2-4.9-1.8-5.1-4.5
		c0,0,0,0,0,0c0-0.1,0-0.2,0-0.3c0-4.1,3.6-6,9.2-6V195c0-0.9-0.4-2-2.8-2c-1.5,0-3,0.4-4.3,1.2L146,191c1.9-1,4-1.4,6.1-1.4
		c5.2,0,6.8,3.1,6.8,6.8L158.9,201.8z M154.2,198.2c-2.6,0-4.5,0.6-4.5,2.5c-0.1,1,0.7,1.8,1.6,1.9c0.1,0,0.2,0,0.3,0
		c1.1,0,2.1-0.7,2.5-1.8c0.1-0.3,0.1-0.6,0.1-0.8V198.2z"/>
	<path class="st3" d="M161.7,205.6v-12h-2.1V190h2.1v-0.6c-0.1-1.9,0.6-3.8,1.9-5.2c1.2-1,2.8-1.6,4.3-1.6c0.9,0,1.7,0.1,2.6,0.3
		l-0.2,3.7c-0.5-0.2-1-0.2-1.6-0.2c-1.6,0-2.3,1.2-2.3,2.8v0.8h3.1v3.6h-3.1v12H161.7z"/>
	<path class="st3" d="M171.1,205.6V190h4.8v15.6H171.1z M178.7,183.2l-3.9,4.9h-3.3l2.7-4.9H178.7z"/>
	<path class="st3" d="M177.9,195c0-1.9-0.1-3.6-0.1-5h4.2l0.2,2.2h0.1c1.1-1.6,2.9-2.6,4.8-2.5c3.2,0,5.6,2.2,5.6,6.7v9.2h-4.9V197
		c0-2-0.7-3.4-2.5-3.4c-1.1,0-2.1,0.7-2.5,1.8c-0.1,0.4-0.2,0.8-0.2,1.2v9h-4.9L177.9,195z"/>
	<path class="st3" d="M68.4,222.8l0.3-1.1c0.2,0.2,0.5,0.3,0.7,0.3c0.3,0.1,0.6,0.1,0.9,0.1c0.4,0,0.8-0.1,1.2-0.3
		c0.3-0.2,0.4-0.6,0.4-0.9c0-0.3-0.1-0.6-0.3-0.9c-0.3-0.3-0.7-0.7-1.1-0.9c-0.4-0.3-0.8-0.6-1.1-1c-0.2-0.3-0.4-0.8-0.3-1.2
		c0-0.7,0.2-1.3,0.7-1.8c0.5-0.4,1.2-0.7,1.9-0.6c0.6,0,1.2,0,1.7,0.2l-0.3,1.1c-0.2-0.1-0.3-0.2-0.5-0.2c-0.2-0.1-0.5-0.1-0.7-0.1
		c-0.4,0-0.8,0.1-1.2,0.3c-0.3,0.2-0.5,0.6-0.4,0.9c0,0.2,0,0.4,0.1,0.5c0.1,0.2,0.2,0.3,0.4,0.4c0.1,0.1,0.5,0.4,0.9,0.7
		c0.4,0.3,0.8,0.7,1.1,1.1c0.2,0.4,0.3,0.8,0.3,1.3c0,0.7-0.3,1.3-0.8,1.7c-0.6,0.4-1.3,0.6-2,0.6c-0.3,0-0.7,0-1-0.1
		C69,223,68.7,223,68.4,222.8z"/>
	<path class="st3" d="M75.1,220.2c0,0.2-0.1,0.4-0.1,0.5c0,0.4,0.1,0.9,0.4,1.2c0.3,0.3,0.8,0.4,1.2,0.4c0.5,0,1-0.2,1.4-0.5
		l-0.1,1.1c-0.5,0.2-1.1,0.3-1.6,0.3c-1.6,0-2.4-0.9-2.4-2.7c0-1,0.3-1.9,1-2.7c0.6-0.7,1.5-1.1,2.5-1.1c0.5,0,1,0.1,1.4,0.4
		c0.4,0.3,0.6,0.7,0.6,1.1c0,0.6-0.3,1.2-0.9,1.6c-0.6,0.4-1.3,0.6-2.1,0.6C76,220.5,75.5,220.4,75.1,220.2z M75.3,219.4
		c0.3,0.1,0.7,0.2,1,0.2c0.5,0,1-0.1,1.4-0.3c0.3-0.1,0.6-0.5,0.6-0.8c0-0.5-0.3-0.7-1-0.7C76.4,217.8,75.5,218.4,75.3,219.4
		L75.3,219.4z"/>
	<path class="st3" d="M79.3,224.8l0.5-0.8c0.5,0.3,1.1,0.5,1.7,0.5c0.4,0,0.9-0.1,1.3-0.3c0.3-0.1,0.5-0.5,0.5-0.8
		c0-0.2-0.1-0.3-0.2-0.4c-0.2-0.1-0.4-0.2-0.6-0.2l-1-0.2c-0.4-0.1-0.6-0.3-0.6-0.6s0.3-0.5,1-0.8h-0.2c-0.9,0-1.7-0.8-1.7-1.7
		c0-0.7,0.3-1.5,0.8-2c0.5-0.5,1.2-0.8,2-0.8c0.5,0,1,0.1,1.4,0.4l0.5-0.6l0.6,0.6l-0.6,0.6c0.1,0.2,0.2,0.5,0.2,0.7
		c0,0.6-0.2,1.2-0.5,1.7c-0.3,0.5-0.8,0.8-1.3,1c-0.5,0.2-0.8,0.4-0.8,0.5s0.1,0.2,0.2,0.2H83c1,0,1.4,0.4,1.4,1.3
		c0,0.7-0.3,1.3-0.9,1.6c-0.6,0.4-1.4,0.6-2.2,0.6C80.6,225.6,79.9,225.3,79.3,224.8z M82.7,217.7c-0.4,0-0.8,0.2-1.1,0.5
		c-0.3,0.3-0.5,0.8-0.5,1.2c0,0.8,0.3,1.3,1,1.3c0.5,0,0.9-0.3,1.1-0.6c0.3-0.4,0.5-0.8,0.5-1.3c0-0.5-0.4-1-0.9-1L82.7,217.7
		L82.7,217.7z"/>
	<path class="st3" d="M87.5,216.9l-0.7,3.9c0,0.2,0,0.3-0.1,0.5c0,0.6,0.3,1,1,1c0.4,0,0.9-0.2,1.2-0.5c0.4-0.3,0.6-0.7,0.7-1.1
		l0.7-3.8h1.2l-1.1,6.2h-1.2l0.2-0.9c-0.5,0.7-1.4,1.1-2.2,1c-0.4,0-0.8-0.1-1.1-0.4c-0.3-0.3-0.4-0.8-0.4-1.2c0-0.2,0-0.4,0.1-0.6
		l0.7-4.1L87.5,216.9z"/>
	<path class="st3" d="M96.1,218c-0.2-0.2-0.5-0.3-0.8-0.3c-0.4,0-0.8,0.2-1.1,0.5c-0.3,0.3-0.6,0.8-0.7,1.3l-0.6,3.5h-1.1l1.1-6.2
		h1.1l-0.2,1c0.4-0.7,1.2-1.1,2-1.1c0.2,0,0.4,0,0.6,0.1L96.1,218z"/>
	<path class="st3" d="M96.7,223.1l0.9-5.2h-0.8L97,217h1.9l-1.1,6.2H96.7z M98.4,214.5c0.4,0,0.8,0.3,0.8,0.8c0,0.2-0.1,0.3-0.2,0.5
		l-0.1,0.1c-0.3,0.3-0.8,0.3-1.1,0c-0.3-0.3-0.3-0.7-0.1-1l0.1-0.1C98,214.6,98.2,214.5,98.4,214.5z"/>
	<path class="st3" d="M103.5,223.1l0.1-0.7c-0.4,0.5-1.1,0.8-1.8,0.8c-0.6,0-1.2-0.2-1.6-0.6c-0.4-0.5-0.6-1.1-0.6-1.7
		c-0.1-1.1,0.3-2.1,0.9-3c0.6-0.8,1.5-1.2,2.5-1.2c0.5,0,1.1,0.3,1.3,0.7l0.6-3.2h1l-1.5,8.7L103.5,223.1z M104.2,218.7
		c0-0.1-0.1-0.2-0.2-0.3c-0.1-0.2-0.2-0.3-0.4-0.4c-0.1-0.1-0.3-0.1-0.5-0.2c-0.7,0-1.3,0.3-1.7,0.8c-0.5,0.6-0.7,1.4-0.7,2.1
		c0,1.1,0.4,1.6,1.3,1.6c0.4,0,0.9-0.2,1.1-0.6c0.4-0.4,0.6-1,0.7-1.5L104.2,218.7z"/>
	<path class="st3" d="M111.5,217.3l-0.7,3.6c0,0.2-0.1,0.4-0.1,0.5c0,0.6,0.1,1.1,0.3,1.7h-1.1c-0.1-0.2-0.2-0.4-0.2-0.6
		c-0.2,0.2-0.5,0.4-0.8,0.5c-0.4,0.1-0.7,0.2-1.1,0.2c-0.5,0-1.1-0.2-1.4-0.5c-0.4-0.4-0.5-1-0.5-1.5c0-1.1,0.3-2.1,1-3
		c0.6-0.9,1.6-1.4,2.6-1.4C110.1,216.8,110.9,216.9,111.5,217.3z M110.3,218c-0.1-0.2-0.4-0.2-1.1-0.2c-0.7,0-1.3,0.4-1.6,1
		c-0.5,0.7-0.7,1.6-0.7,2.4c0,0.8,0.4,1.2,1.1,1.2c0.4,0,0.8-0.2,1.1-0.6c0.4-0.4,0.6-1,0.7-1.5L110.3,218z"/>
	<path class="st3" d="M115.7,223.1l0.1-0.7c-0.4,0.5-1.1,0.8-1.8,0.8c-0.6,0-1.2-0.2-1.6-0.6c-0.4-0.5-0.6-1.1-0.6-1.7
		c0-1.1,0.3-2.1,1-2.9c0.6-0.8,1.5-1.2,2.5-1.2c0.5,0,1.1,0.3,1.3,0.7l0.6-3.2h1l-1.5,8.7L115.7,223.1z M116.4,218.7
		c0-0.1-0.1-0.2-0.2-0.3c-0.1-0.2-0.2-0.3-0.4-0.4c-0.1-0.1-0.3-0.2-0.5-0.2c-0.7,0-1.3,0.3-1.7,0.8c-0.5,0.6-0.7,1.4-0.7,2.1
		c0,1.1,0.4,1.6,1.3,1.6c0.4,0,0.9-0.2,1.1-0.6c0.4-0.4,0.6-1,0.7-1.5L116.4,218.7z"/>
	<path class="st3" d="M122.1,222.8l-0.5,2.8h-1.1l1.2-6.8c0.1-0.3,0.1-0.6,0.1-0.9c0-0.3,0-0.6-0.1-0.9l1.1-0.2
		c0.1,0.3,0.1,0.5,0.1,0.8c0.2-0.2,0.5-0.4,0.8-0.6c0.3-0.1,0.6-0.2,0.9-0.2c0.6,0,1.2,0.2,1.7,0.6c0.4,0.5,0.6,1.1,0.6,1.7
		c0,1-0.3,2.1-1,2.9c-0.6,0.8-1.6,1.2-2.6,1.2c-0.3,0-0.5,0-0.8-0.1C122.4,223,122.2,223,122.1,222.8z M122.3,221.9
		c0.1,0.1,0.2,0.3,0.4,0.3c0.2,0.1,0.4,0.1,0.6,0.1c0.7,0,1.4-0.3,1.9-0.8c0.5-0.6,0.7-1.4,0.7-2.2c0-0.4-0.1-0.8-0.4-1.1
		c-0.3-0.3-0.7-0.4-1.2-0.4c-0.3,0-0.5,0.1-0.8,0.2c-0.2,0.1-0.5,0.3-0.6,0.5L122.3,221.9z"/>
	<path class="st3" d="M132.9,217.3l-0.7,3.6c0,0.2,0,0.4,0,0.5c0,0.6,0.1,1.1,0.3,1.7h-1.2c-0.1-0.2-0.1-0.4-0.2-0.6
		c-0.2,0.2-0.5,0.4-0.8,0.5c-0.4,0.1-0.7,0.2-1.1,0.2c-0.5,0-1.1-0.2-1.4-0.5c-0.4-0.4-0.5-1-0.5-1.5c0-1.1,0.3-2.1,1-3
		c0.6-0.9,1.6-1.4,2.6-1.4C131.6,216.8,132.3,216.9,132.9,217.3z M131.7,218c-0.1-0.2-0.4-0.2-1-0.2c-0.7,0-1.3,0.4-1.6,1
		c-0.5,0.7-0.7,1.6-0.7,2.4c0,0.8,0.4,1.2,1.1,1.2c0.4,0,0.8-0.2,1.1-0.6c0.4-0.4,0.6-1,0.7-1.5L131.7,218z"/>
	<path class="st3" d="M137.6,218c-0.2-0.2-0.5-0.3-0.8-0.3c-0.4,0-0.8,0.2-1.1,0.5c-0.4,0.3-0.6,0.8-0.7,1.3l-0.6,3.5h-1.1l1.1-6.2
		h1.1l-0.2,1c0.4-0.7,1.2-1.1,2-1.1c0.2,0,0.4,0,0.6,0.1L137.6,218z"/>
	<path class="st3" d="M143.5,217.3l-0.7,3.6c0,0.2-0.1,0.4-0.1,0.5c0,0.6,0.1,1.1,0.3,1.7h-1.1c-0.1-0.2-0.2-0.4-0.2-0.6
		c-0.2,0.2-0.5,0.4-0.8,0.5c-0.4,0.1-0.7,0.2-1.1,0.2c-0.5,0-1.1-0.2-1.4-0.5c-0.4-0.4-0.5-1-0.5-1.5c0-1.1,0.3-2.1,1-3
		c0.6-0.8,1.6-1.3,2.6-1.3C142.1,216.8,142.8,216.9,143.5,217.3z M142.3,218c-0.1-0.2-0.4-0.2-1.1-0.2c-0.7,0-1.3,0.4-1.6,1
		c-0.5,0.7-0.7,1.6-0.7,2.4c0,0.8,0.4,1.2,1.1,1.2c0.4,0,0.8-0.2,1.1-0.6c0.4-0.4,0.6-1,0.7-1.5L142.3,218z"/>
	<path class="st3" d="M148.1,217.8h-0.7l0.2-0.9h0.7l0.3-1.3l1.2-0.5l-0.4,1.8h1.7l-0.2,0.9h-1.7l-0.7,3.1c0,0.2-0.1,0.4-0.1,0.6
		c-0.1,0.4,0.2,0.8,0.7,0.9c0.1,0,0.1,0,0.2,0c0.3,0,0.6-0.1,0.9-0.2l0,1c-0.5,0.1-1,0.2-1.5,0.2c-0.4,0-0.8-0.1-1-0.4
		c-0.3-0.3-0.4-0.7-0.4-1.1c0-0.1,0-0.3,0.1-0.4L148.1,217.8z"/>
	<path class="st3" d="M153.4,216.9l-0.7,3.9c0,0.2,0,0.3,0,0.5c0,0.6,0.3,1,1,1c0.4,0,0.9-0.2,1.2-0.5c0.4-0.3,0.6-0.7,0.7-1.1
		l0.7-3.8h1.2l-1.1,6.2h-1.2l0.2-0.9c-0.5,0.7-1.4,1.1-2.2,1c-0.4,0-0.8-0.1-1.1-0.4c-0.3-0.3-0.4-0.8-0.4-1.2c0-0.2,0-0.4,0.1-0.6
		l0.7-4.1L153.4,216.9z"/>
	<path class="st3" d="M164.5,223.1l0.1-0.7c-0.4,0.5-1.1,0.8-1.8,0.8c-0.6,0-1.2-0.2-1.6-0.6c-0.4-0.5-0.6-1.1-0.6-1.7
		c0-1.1,0.3-2.1,1-2.9c0.6-0.8,1.5-1.2,2.5-1.2c0.5,0,1.1,0.3,1.3,0.7l0.6-3.2h1l-1.5,8.7L164.5,223.1z M165.2,218.7
		c0-0.1-0.1-0.2-0.2-0.3c-0.1-0.2-0.2-0.3-0.4-0.4c-0.1-0.1-0.3-0.1-0.5-0.2c-0.7,0-1.3,0.3-1.7,0.8c-0.5,0.6-0.7,1.4-0.7,2.1
		c0,1.1,0.4,1.6,1.3,1.6c0.4,0,0.9-0.2,1.1-0.6c0.4-0.4,0.6-1,0.7-1.5L165.2,218.7z"/>
	<path class="st3" d="M167.3,223.1l0.9-5.2h-0.8l0.2-0.9h1.9l-1.1,6.2H167.3z M169,214.5c0.4,0,0.8,0.4,0.8,0.8
		c0,0.2-0.1,0.4-0.2,0.5l0,0c-0.1,0.1-0.3,0.2-0.5,0.2c-0.2,0-0.4-0.1-0.5-0.2c-0.3-0.3-0.3-0.8,0-1.1
		C168.6,214.6,168.8,214.5,169,214.5L169,214.5z"/>
	<path class="st3" d="M173.9,223.1l0.6-3.6c0.1-0.3,0.1-0.5,0.1-0.8c0.1-0.5-0.3-0.9-0.8-1c-0.1,0-0.2,0-0.3,0
		c-0.3,0-0.6,0.1-0.8,0.2c-0.3,0.1-0.5,0.3-0.7,0.5l-0.8,4.6h-1.1l0.8-4.7c0-0.1,0-0.3,0-0.4c0-0.3,0-0.7-0.1-1l1.1-0.2
		c0.1,0.3,0.1,0.6,0.2,0.9c0.5-0.6,1.2-1,2-0.9c0.8-0.1,1.6,0.5,1.7,1.3c0,0.1,0,0.3,0,0.4c0,0.2,0,0.5-0.1,0.7L175,223L173.9,223.1
		z"/>
	<path class="st3" d="M177.7,220.2c0,0.2-0.1,0.4-0.1,0.5c0,0.4,0.1,0.9,0.4,1.2c0.3,0.3,0.8,0.4,1.2,0.4c0.5,0,1-0.2,1.4-0.5
		l-0.1,1.1c-0.5,0.2-1.1,0.3-1.6,0.3c-1.6,0-2.4-0.9-2.4-2.7c0-1,0.3-1.9,1-2.7c0.6-0.7,1.6-1.1,2.5-1.1c0.5,0,1,0.1,1.4,0.4
		c0.4,0.3,0.6,0.7,0.6,1.1c0,0.6-0.3,1.2-0.9,1.6c-0.6,0.4-1.4,0.6-2.1,0.6C178.6,220.5,178.1,220.4,177.7,220.2z M177.9,219.4
		c0.3,0.1,0.7,0.2,1,0.2c0.5,0,1-0.1,1.4-0.3c0.3-0.1,0.6-0.5,0.6-0.8c0-0.5-0.3-0.7-1-0.7C179,217.8,178.1,218.4,177.9,219.4z"/>
	<path class="st3" d="M186.8,218c-0.2-0.2-0.5-0.3-0.8-0.3c-0.4,0-0.8,0.2-1.1,0.5c-0.3,0.3-0.6,0.8-0.7,1.3l-0.6,3.5h-1.1l1.1-6.2
		h1.1l-0.2,1c0.4-0.7,1.2-1.1,2-1.1c0.2,0,0.4,0,0.6,0.1L186.8,218z"/>
	<path class="st3" d="M187,220.8c0-1,0.3-2,1-2.8c0.6-0.8,1.5-1.2,2.5-1.2c0.6,0,1.2,0.2,1.7,0.6c0.4,0.5,0.6,1.1,0.6,1.7
		c0,0.6-0.1,1.3-0.4,1.8c-0.2,0.6-0.6,1.2-1.2,1.6c-0.6,0.4-1.2,0.6-1.9,0.6c-0.6,0-1.2-0.2-1.7-0.6
		C187.1,222.1,186.9,221.5,187,220.8z M188.1,220.8c0,1,0.4,1.6,1.3,1.6c0.7,0,1.2-0.4,1.5-0.9c0.4-0.7,0.6-1.4,0.6-2.2
		c0-1-0.4-1.4-1.3-1.4c-0.4,0-0.9,0.2-1.2,0.5c-0.3,0.3-0.6,0.7-0.7,1.2C188.2,219.9,188.1,220.3,188.1,220.8z"/>
	<g id="_Group_">
		
			<linearGradient id="_Path__1_" gradientUnits="userSpaceOnUse" x1="210.1391" y1="70.7877" x2="210.1391" y2="190.4474" gradientTransform="matrix(1 0 0 1 0 -33.96)">
			<stop  offset="0.28" style="stop-color:#1EEB00"/>
			<stop  offset="0.51" style="stop-color:#1EE700"/>
			<stop  offset="0.73" style="stop-color:#1EDB00"/>
			<stop  offset="0.95" style="stop-color:#1EC800"/>
			<stop  offset="1" style="stop-color:#1EC200"/>
		</linearGradient>
		<path id="_Path_" class="st5" d="M235.5,152.7l-4.7,3.5l-1-1c-0.2-0.2-3.3-3.4-4.5-7c-10,2.4-20.3,2.4-30.3,0
			c-1.2,3.6-4.4,6.9-4.5,7l-1,1.1l-4.7-3.5l-5.9,3.8l-0.8-1.8c-0.1-0.2-10.6-24-10.6-53.6c0-8.8,1.7-19.6,5-32.1
			c-5-5.1-6.8-10.9-8.6-17.1c-0.3-1-0.6-1.9-0.9-2.9c-0.9-2.8-1.9-5.5-3-8.2l-0.8-1.7l1.8-0.6c3.1-1,6.3-1.6,9.6-1.6
			c7.1,0,13.9,2.7,19,7.5c13.3-4.6,27.8-4.6,41.2,0c5.2-4.8,12-7.5,19-7.5c3.2,0,6.5,0.6,9.6,1.6l1.8,0.6l-0.7,1.7
			c-1.2,2.7-2.2,5.4-3,8.1c-0.3,1-0.6,2-0.9,2.9c-1.8,6.2-3.5,12-8.6,17.1c3.3,12.4,5,23.2,5,32.1c0,29.7-10.5,53.4-10.6,53.6
			l-0.8,1.8L235.5,152.7z"/>
		<path id="_Compound_Path_" class="st6" d="M259.8,36.9c-3.3-1.1-6.7-1.6-10.1-1.7c-7.1,0-14,2.6-19.4,7.2
			c-13.1-4.3-27.3-4.3-40.4,0c-5.4-4.7-12.3-7.2-19.4-7.2c-3.4,0-6.8,0.6-10.1,1.7l-3.6,1.2l1.5,3.4c1.1,2.6,2.1,5.3,2.9,8
			c0.3,1,0.6,2,0.9,2.9c1.8,6.1,3.5,11.9,8.3,17.1c-3.2,12.2-4.8,22.9-4.8,31.6c0,30,10.3,53.4,10.7,54.4l1.6,3.5l3.3-2.1l3.3-2.1
			l2.6,1.9l2.3,1.8l2.1-2.1c1.8-1.8,3.2-3.9,4.3-6.2c9.3,2,18.9,2,28.3,0c1.1,2.3,2.6,4.4,4.3,6.2l2.1,2.1l2.4-1.8l2.6-1.9l3.3,2.1
			l3.3,2.1l1.6-3.5c0.4-1,10.7-24.3,10.7-54.4c0-8.9-1.6-19.5-4.8-31.6c4.8-5.2,6.5-11,8.3-17.1c0.3-1,0.6-1.9,0.9-2.9
			c0.8-2.7,1.8-5.4,2.9-8l1.5-3.4L259.8,36.9z M252.9,52.4c-1.4,5.1-2.6,9.3-6.1,13.1c-2-6.9-3.8-12.2-4.5-14
			c0.6-1.1,2.6-3.8,7.7-6.2l-1.4-3c-7.9,3.7-9.6,8.4-9.7,8.6l-0.2,0.6l0.2,0.6c0.1,0.3,10.5,28.2,10.5,49.4
			c-0.1,17.3-3.4,34.4-9.5,50.5l-4.6-2.9l-4.1,3.1c-1.1-1.3-2-2.8-2.7-4.4c1.4-0.4,2.8-0.9,4.2-1.4l-1.2-3.2
			c-13.9,5.1-29.1,5.1-43,0l-1.2,3.2c1.4,0.5,2.8,1,4.2,1.4c-0.7,1.6-1.6,3.1-2.7,4.4l-4.1-3.1l-4.6,2.9
			c-6.2-16.1-9.4-33.2-9.5-50.5c0-21.2,10.4-49.1,10.5-49.4l0.2-0.6l-0.2-0.6c-0.1-0.2-1.8-4.9-9.7-8.6l-1.4,3
			c5.1,2.4,7.1,5.1,7.7,6.2c-0.7,1.9-2.5,7.1-4.5,14c-3.5-3.9-4.6-8-6.1-13.1c-0.4-1.3-0.7-2.7-1.2-4.2c-0.9-2.8-1.8-5.2-2.4-6.8
			c14.8-3.9,23.7,5.9,24.1,6.3l0.8,0.9l1.1-0.4c13.2-4.8,27.7-4.8,40.9,0l1.1,0.4l0.8-0.9c6.3-6.3,15.5-8.7,24.1-6.3
			c-0.6,1.5-1.5,3.9-2.4,6.8C253.7,49.7,253.3,51.1,252.9,52.4L252.9,52.4z"/>
		<path id="_Path_2" class="st6" d="M193.8,105.1l-3.3,0.4c0.8,6.2,1.2,10.9,1.4,13.6l-4.6-1.4l-3.4,3.7c-1.4-2.5-3.8-7.2-6.7-13.5
			l-3.1,1.4c2.4,5.4,5,10.7,8,15.9l1.1,1.9l5.1-5.4l7.2,2.3l-0.1-2.4C195.3,121.2,195.1,115,193.8,105.1z"/>
		<circle id="_Path_3" class="st6" cx="189.9" cy="64" r="3.7"/>
		<circle id="_Path_4" class="st6" cx="230.4" cy="64" r="3.7"/>
		<path id="_Path_5" class="st6" d="M233.1,117.6l-4.6,1.4c0.2-2.7,0.6-7.4,1.4-13.6l-3.3-0.4c-1.3,9.9-1.6,16-1.6,16.3l-0.1,2.4
			l7.2-2.3l5.1,5.4l1.1-1.9c3-5.1,5.6-10.4,8-15.9l-3.1-1.4c-2.8,6.4-5.3,11.1-6.7,13.5L233.1,117.6z"/>
		<path id="_Path_6" class="st7" d="M210.1,85.8c3.7,0,10.9-4.2,13.7-10.5s-3.3-8.3-5.7-8.7c-5.3-0.8-10.7-0.8-15.9,0
			c-2.4,0.4-8.6,2.4-5.7,8.7C199.3,81.5,206.5,85.8,210.1,85.8z"/>
		<path id="_Compound_Path_2" class="st6" d="M225.6,69.3c-1.6-3.1-5.6-4.2-7.1-4.4c-5.5-0.8-11.1-0.8-16.6,0
			c-1.6,0.3-5.5,1.3-7.1,4.4c-1,1.9-0.9,4.1,0.2,6.6c3.2,7.1,11,11.5,15.3,11.5s12.1-4.3,15.3-11.5
			C226.5,73.5,226.6,71.2,225.6,69.3z M222.3,74.6c-2.6,5.9-9.4,9.5-12.2,9.5s-9.5-3.6-12.2-9.5c-0.7-1.5-0.7-2.7-0.3-3.7
			c0.8-1.5,3-2.4,4.8-2.7c5.1-0.7,10.3-0.7,15.4,0c1.8,0.3,4,1.2,4.8,2.7C223.1,71.9,223,73.1,222.3,74.6z"/>
		<path id="_Path_7" class="st6" d="M214.4,69.6c-1.4,0-2.4,1.1-2.4,2.5c0,0,0,0,0,0c0,0,0,0.1,0,0.1v1.5c-0.1,1.3,0.9,2.5,2.2,2.6
			c1.3,0.1,2.5-0.9,2.6-2.2c0-0.1,0-0.3,0-0.4v-1.5C216.8,70.8,215.8,69.7,214.4,69.6C214.4,69.6,214.4,69.6,214.4,69.6L214.4,69.6z
			"/>
		<path id="_Path_8" class="st6" d="M205.7,69.6c-1.4,0-2.4,1.1-2.4,2.5c0,0,0,0,0,0c0,0,0,0.1,0,0.1v1.5c-0.1,1.3,0.9,2.5,2.2,2.6
			c1.3,0.1,2.5-0.9,2.6-2.2c0-0.1,0-0.3,0-0.4v-1.5C208.2,70.8,207.1,69.7,205.7,69.6C205.8,69.6,205.7,69.6,205.7,69.6L205.7,69.6z
			"/>
	</g>
	<path id="_Path_20" class="st6" d="M208.9,19.7c-15.6,0-28.1,5.2-28.1,11.7v3.3l4,1.1l3,11H230l3-11l4-1.1v-3.3
		C237,24.9,224.4,19.7,208.9,19.7z"/>
	<path id="_Compound_Path_3" class="st8" d="M230,47.1h-42.2c-0.3,0-0.6-0.1-0.7-0.4l-2.9-10.6l-3.7-0.9c-0.3-0.1-0.5-0.3-0.6-0.6
		v-3.3c0-7,12.9-12.4,29.1-12.4s29,5.4,29,12.4v3.3c0,0.3-0.4,0.6-0.7,0.7l-3.7,0.9l-2.9,10.5C230.7,47.1,230.3,47.1,230,47.1z
		 M188.3,46.2h41.2l2.9-10.5c0.1-0.2,0.1-0.5,0.4-0.5l3.4-0.9v-2.8c0-6-12.2-11-27.1-11c-14.9,0-27.1,5.1-27.1,11v2.8l3.3,0.9
		c0.2,0.1,0.3,0.3,0.4,0.6L188.3,46.2z"/>
	<polygon id="_Path_21" class="st6" points="186.6,43.3 187.8,47.1 230,47.1 231.2,43.3 	"/>
	<path id="_Compound_Path_4" class="st8" d="M230.6,48.1h-43.3l-1.5-5.8h46.3L230.6,48.1z M188.3,47.1h41.2l0.8-2.9h-42.7
		L188.3,47.1z"/>
	<g id="_Group_6">
		<path id="_Path_22" class="st8" d="M208.9,53.7c11.7,0,21.2-2.7,21.2-6.6h-42.4C187.7,51,197.2,53.7,208.9,53.7z"/>
		<path id="_Compound_Path_5" class="st8" d="M208.6,54.8c-10.6,0-21.8-2.5-21.8-7.2v-0.4h43.5v0.4
			C230.3,52.2,219.2,54.8,208.6,54.8z M188.6,48.1c1.2,2.9,9.3,5.2,20.4,5.2c11.1,0,19.1-2.3,20.4-5.2H188.6z"/>
	</g>
	<path id="_Path_14" class="st9" d="M208.5,36.2c-1.1-0.9-2-2-2.6-3.3c-0.7-1.4-1.1-3-1.2-4.6c0-0.4,0-0.9-0.1-1.4
		c0-0.4,0-0.8,0-1.2l0.5-0.1c0.6-0.1,1.3-0.2,1.9-0.4c1-0.3,2-0.7,2.9-1.2c0.1,0,0.2,0,0.2-0.1v13.2l-0.2,0
		C209.4,36.9,208.9,36.6,208.5,36.2z"/>
	<path id="_Path_14-2" class="st10" d="M211.8,36.2c1.1-0.9,2-2,2.6-3.3c0.7-1.4,1.1-3,1.2-4.6c0-0.4,0-0.9,0.1-1.4
		c0-0.4,0-0.8,0-1.2l-0.5-0.1c-0.6-0.1-1.3-0.2-1.9-0.4c-1-0.3-2-0.7-2.9-1.2c-0.1,0-0.2,0-0.2-0.1v13.2l0.2,0
		C210.8,36.9,211.3,36.6,211.8,36.2z"/>
	<path id="_Path_11" class="st11" d="M209.9,24.1c-0.9,0.5-1.9,0.9-2.9,1.2c-0.6,0.2-1.3,0.2-1.9,0.4l-0.5,0.1c0,0.4,0,0.8,0,1.2
		s0,0.9,0.1,1.4c0,1.6,0.4,3.2,1.2,4.6c0.6,1.3,1.5,2.4,2.6,3.3c0.4,0.4,0.9,0.7,1.4,0.9h0.2v0.4H210c-0.2-0.1-0.3-0.1-0.5-0.2
		c-0.7-0.4-1.3-0.9-1.8-1.4c-1-1-1.9-2.2-2.5-3.5c-0.4-1-0.7-2-0.9-3.1c-0.1-0.4-0.1-0.9-0.1-1.3c0-0.8-0.1-1.7-0.1-2.6
		c0-0.1,0-0.1,0.1-0.1l0.9-0.1c0.7-0.1,1.3-0.2,2-0.4c1-0.3,1.9-0.7,2.8-1.2c0.1,0,0.2,0,0.2,0V24C210.1,24.1,210,24.1,209.9,24.1z"
		/>
	<path id="_Path_11-2" class="st12" d="M210.3,24.1c0.9,0.5,1.9,0.9,2.9,1.2c0.6,0.2,1.3,0.2,1.9,0.4l0.5,0.1c0,0.4,0,0.8,0,1.2
		s0,0.9-0.1,1.4c0,1.6-0.4,3.2-1.2,4.6c-0.6,1.3-1.5,2.4-2.6,3.3c-0.4,0.4-0.9,0.7-1.4,0.9h-0.2v0.4h0.1c0.2-0.1,0.3-0.1,0.5-0.2
		c0.7-0.4,1.3-0.9,1.8-1.4c1-1,1.9-2.2,2.5-3.5c0.4-1,0.7-2,0.9-3.1c0.1-0.4,0.1-0.9,0.1-1.3c0-0.8,0.1-1.7,0.1-2.6
		c0-0.1,0-0.1-0.1-0.1l-0.9-0.1c-0.7-0.1-1.3-0.2-2-0.4c-1-0.3-1.9-0.7-2.8-1.2c-0.1,0-0.2,0-0.2,0V24
		C210.2,24.1,210.3,24.1,210.3,24.1z"/>
	<polygon class="st6" points="242,165.9 242,165.9 242.8,165.5 242.8,80.1 241.1,80.1 241.1,165.5 	"/>
	<g id="_Group_2">
		<g id="_Group_3">
			<path id="_Path_9" class="st6" d="M242.4,162.6c2.3-1.3,4.6-2.7,6.8-4.3c3.3-2.5,6.3-5.2,9.1-8.3c3-3.5,5.6-7.3,7.9-11.3
				c2.9-5.1,4.7-10.7,6.2-16.4c1-4,1.6-8.1,1.7-12.3c0.2-4.2,0.4-8.3,0.7-12.9v-2.5c0-0.5-0.1-0.7-0.6-0.7c-2.7-0.4-5.5-0.9-8.2-1.4
				c-5.3-0.9-10.4-2.4-15.3-4.5c-2.8-1.2-5.3-2.5-8-3.8c-0.3-0.1-0.5-0.2-0.5-0.2v-3.9l0,0c0.9,0.8,2,1.3,3.1,1.7
				c5.2,2.5,10.6,5,16.3,6.4c3.8,0.9,7.7,1.6,11.5,2.3c1.6,0.3,3.1,0.6,5,0.9v4.3c0,0.2-0.2,0.5-0.2,0.7c-0.2,4.2-0.5,8.4-0.7,12.6
				c-0.2,4.4-0.8,8.9-1.9,13.2c-1.2,5.2-3,10.3-5.3,15.2c-4.1,7.8-9.1,14.9-16,20.6c-3.1,2.5-6.1,5.1-9.6,6.9
				c-0.6,0.4-1.2,0.7-1.8,1c-0.1,0-0.2,0.1-0.2,0.1v-3.1C242.1,162.8,242.3,162.7,242.4,162.6z"/>
			<path id="_Path_10" class="st8" d="M215.7,89.5c6.4-1.2,12.7-3.2,18.6-6c2-0.9,4-2,5.9-3c0.2-0.1,0.4-0.6,0.7-0.6h1V84
				c-1,0-0.9,0-1.3,0.2c-5.1,2.6-10.4,4.8-15.8,6.5c-3.7,1.1-7.5,1.9-11.3,2.4c-1.6,0.2-3.3,0.6-4.9,0.8c-0.3,0-0.5,0.2-0.5,0.5
				c0,0,0,0.1,0,0.1c0.2,4.8,0.4,9.7,0.6,14.5c0.1,2.5,0.3,5,0.6,7.5c0.9,6,2.5,11.8,5,17.4c3.3,7.5,8,14.2,13.9,19.7
				c3.2,2.9,6.5,5.8,10.4,7.9c0.9,0.4,1.8,0.8,2.7,1.1c0.1,0-0.3,0.1,0.6,0.1v3.1c-0.1,0-0.3,0-0.4,0c-1-0.4-2-0.8-3-1.3
				c-2.8-1.6-5.5-3.5-7.9-5.6c-10.5-8.6-18.1-20.2-21.7-33.3c-1.3-4.5-2.2-9.1-2.6-13.8c-0.3-3.8-0.5-7.5-0.7-11.3
				c-0.1-1.8-0.4-3.6-0.4-5.5v-3.7C209,90.8,212.2,90.1,215.7,89.5z"/>
			<path id="_Path_11-3" class="st11" d="M240.6,86.4c-5.2,2.7-10.6,5.2-16.3,6.6c-3.6,0.9-7.2,1.4-10.8,2.1l-3,0.6
				c0.1,2.3,0.1,4.5,0.2,6.8c0.1,2.6,0.3,5.1,0.4,7.7c0.3,9.1,2.5,18.1,6.6,26.3c3.6,7.2,8.7,13.6,15,18.7c2.6,2.1,5.3,3.9,8.3,5.3
				c0.3,0.1,0.1,0.2,1.1,0.2v2.2c-1,0-0.5,0-0.6-0.1c-0.9-0.3-1.7-0.7-2.6-1.1c-3.9-2.1-7.2-5-10.4-7.9
				c-5.9-5.5-10.7-12.2-13.9-19.7c-2.4-5.5-4.1-11.4-5-17.4c-0.3-2.5-0.5-5-0.6-7.5c-0.3-4.8-0.4-9.7-0.6-14.5
				c0-0.4,0.1-0.6,0.5-0.6c1.6-0.3,3.2-0.6,4.8-0.8c3.8-0.5,7.6-1.3,11.3-2.4c5.5-1.7,10.8-3.9,15.9-6.5c0.4-0.2,0.3-0.3,1.3-0.2
				v2.2C241.5,86,241,86.1,240.6,86.4z"/>
			<path id="_Path_12" class="st12" d="M250.5,88c4.9,2.1,10.1,3.7,15.3,4.5c2.7,0.5,5.5,0.9,8.2,1.4c0.5,0.1,0.6,0.3,0.6,0.7v2.5
				c-0.2,4.6-0.5,8.7-0.7,12.9c-0.2,4.1-0.7,8.2-1.7,12.3c-1.4,5.7-3.2,11.2-6.2,16.4c-2.2,4-4.9,7.8-7.9,11.3
				c-2.8,3.1-5.8,5.8-9.2,8.3c-2.1,1.6-4.4,3-6.7,4.3c-0.1,0.1-0.3,0.1-0.4,0.2v-2.2c0.3,0,0.6-0.1,0.8-0.3c2.5-1.3,4.9-2.9,7.1-4.8
				c2.7-2.2,5.2-4.6,7.5-7.2c5.1-6,9.1-12.7,11.3-20.2c1.1-3.7,1.9-7.4,2.7-11.1c0.3-1.7,0.4-3.4,0.4-5.1c0.2-4.9,0.5-9.9,0.6-14.8
				c0.1-1.7,0.4-1.4-1.5-1.8c-4.1-0.8-8.2-1.4-12.3-2.4c-5.7-1.4-10.7-3.9-15.9-6.5c-0.2-0.1-0.5-0.2-0.7-0.3v-2.2
				c0,0,0.3,0.1,0.5,0.2C245.2,85.5,247.7,86.8,250.5,88z"/>
			<path id="_Path_13" class="st6" d="M242.7,86.4c5.2,2.7,10.4,5.2,16,6.5c4.1,1,8.1,1.6,12.2,2.4c1.9,0.4,1.6,0.1,1.5,1.8
				c-0.2,4.9-0.4,9.9-0.6,14.8c0,1.7-0.2,3.4-0.5,5.1c-0.8,3.7-1.6,7.5-2.7,11.1c-2.2,7.6-6.3,14.2-11.3,20.2
				c-2.3,2.6-4.9,5-7.6,7.2c-2.1,1.9-4.5,3.5-7,4.8c-0.3,0.1-0.5,0.2-0.8,0.3V86.1C242.2,86.2,242.5,86.3,242.7,86.4z"/>
			<path id="_Path_14-3" class="st8" d="M232.6,155.1c-6.3-5.1-11.4-11.4-15-18.7c-4.1-8.2-6.3-17.2-6.6-26.3
				c-0.1-2.6-0.3-5.1-0.4-7.7c-0.1-2.2-0.2-4.4-0.2-6.8l3-0.6c3.6-0.7,7.2-1.3,10.8-2.1c5.7-1.4,11.2-3.9,16.5-6.6
				c0.4-0.2,0.4-0.3,1.3-0.3v74.5c-1,0-0.8-0.1-1.1-0.2C237.9,159,235.1,157.2,232.6,155.1z"/>
		</g>
		<g id="_Group_4">
			<path id="_Path_15" class="st13" d="M241.5,96.2L241.5,96.2c-1.4,0-2.7,0.2-4,0.7c-1.1,0.4-2.1,1.1-2.9,1.9
				c-1.2,1.3-2,2.9-2.4,4.6c-0.2,0.8-0.3,1.6-0.3,2.4v5.2h4.2v-5.2l0,0c0-1.5,0.6-2.9,1.5-4c1-1,2.4-1.4,3.9-1.3L241.5,96.2
				L241.5,96.2z"/>
			<path id="_Path_16" class="st14" d="M250.8,103.4c-0.4-1.7-1.2-3.3-2.4-4.6c-0.8-0.8-1.8-1.5-2.9-1.9c-1.3-0.5-2.6-0.7-4-0.7h0
				v4.2c1.4-0.1,2.8,0.4,3.9,1.3c1,1.1,1.5,2.6,1.5,4l0,0v5.2h4.2v-5.2C251,105,251,104.2,250.8,103.4z"/>
		</g>
		<g id="_Group_5">
			<path id="_Path_17" class="st9" d="M230.8,111c-1.3-0.1-2.4,0.9-2.4,2.2c0,0.1,0,0.1,0,0.2v20.2c-0.1,1.3,0.9,2.4,2.3,2.5
				c0,0,0,0,0,0H242V111H230.8z"/>
			<path id="_Path_18" class="st10" d="M252.2,111H242v25.2h10.2c1.3,0,2.4-1,2.4-2.3c0,0,0,0,0,0c0-0.1,0-0.1,0-0.2v-20.2
				c0.1-1.3-0.9-2.3-2.1-2.4c0,0,0,0,0,0H252.2z"/>
		</g>
		<path id="_Path_19" class="st8" d="M245.7,121.6c0-2.2-1.8-4-4-4c0,0,0,0,0,0l0,0c-2.1,0-3.8,1.7-3.8,3.8c0,0,0,0,0,0
			c0,0.1,0,0.1,0,0.2c0,1.4,0.1,2.6,2,3.3v6.7c0,0.2-0.3,0.7-0.1,0.7h3.7c0.2,0,0.3-0.6,0.3-0.7v-6.7
			C245,124.1,245.7,122.9,245.7,121.6z"/>
	</g>
</g>
</svg>
