<svg id="Layer_1" data-name="Layer 1" xmlns="http://www.w3.org/2000/svg" viewBox="0 0 91 34"><title>Artboard 1</title><path d="M88.56,26.79h-7l-5.62-9.34h-.1v9.34H70.14V9.61h5.69v5.88h.1l5.49-5.88h6.87l-6.62,6.67Z" fill="#034c41"/><path d="M60.84,26.79V17.4c0-1.9-.52-3.62-2.55-3.62s-3,1.72-3,3.69v9.32H49.56V9.61H55l.07,1.58a7,7,0,0,1,5.14-2.07c4.62,0,6.28,3.59,6.28,7V26.79Z" fill="#034c41"/><path d="M40.55,26.06V10.33L46,8.26V28.14Z" fill="#034c41"/><path d="M28.29,27.34c-5.17,0-9.52-3.59-9.52-9.21s4.35-9.07,9.52-9.07,9.56,3.45,9.56,9.07S33.5,27.34,28.29,27.34Zm0-13.59c-2.66,0-4,2.17-4,4.38a4.16,4.16,0,0,0,4.07,4.45c2.66,0,4.07-2.24,4.07-4.45A4.13,4.13,0,0,0,28.29,13.75Z" fill="#034c41"/><path d="M14.31,21.12a4.45,4.45,0,1,1,0-5.84l3.11-3.55a9.14,9.14,0,1,0,0,12.94Z" fill="#034c41"/></svg>