<?xml version="1.0" encoding="utf-8"?>
<!-- Generator: Adobe Illustrator 16.0.0, SVG Export Plug-In . SVG Version: 6.00 Build 0)  -->
<!DOCTYPE svg PUBLIC "-//W3C//DTD SVG 1.1//EN" "http://www.w3.org/Graphics/SVG/1.1/DTD/svg11.dtd">
<svg version="1.1" id="Capa_1" xmlns="http://www.w3.org/2000/svg" xmlns:xlink="http://www.w3.org/1999/xlink" x="0px" y="0px"
	 width="38px" height="58.5px" viewBox="0 0 38 58.5" enable-background="new 0 0 38 58.5" xml:space="preserve">
<g>
	<path fill="#FBB040" d="M21.712,5.581c0,1.498-1.214,2.712-2.712,2.712c-1.499,0-2.713-1.214-2.713-2.712S17.501,2.869,19,2.869
		C20.498,2.869,21.712,4.083,21.712,5.581"/>
</g>
<g>
	<path fill="#004B40" d="M18.999,8.765c-1.756,0-3.184-1.429-3.184-3.184c0-1.757,1.428-3.186,3.184-3.186s3.185,1.429,3.185,3.186
		C22.184,7.336,20.755,8.765,18.999,8.765 M18.999,3.34c-1.234,0-2.24,1.005-2.24,2.241c0,1.234,1.006,2.239,2.24,2.239
		c1.235,0,2.241-1.005,2.241-2.239C21.24,4.345,20.234,3.34,18.999,3.34"/>
</g>
<g>
	<path fill="#1EEA00" d="M32.292,8.858c0.396-1.278,0.845-2.283,0.849-2.293l0.217-0.481L32.855,5.92
		c-0.904-0.295-1.812-0.443-2.694-0.443c-2.849,0-4.729,1.518-5.362,2.114C22.979,6.95,21.027,6.625,19,6.625
		c-2.027,0-3.977,0.325-5.799,0.966c-0.631-0.597-2.512-2.114-5.362-2.114c-0.883,0-1.79,0.148-2.694,0.443L4.643,6.083l0.216,0.481
		c0.005,0.01,0.454,1.015,0.848,2.293c0.127,0.412,0.229,0.789,0.328,1.153c0.343,1.264,0.632,2.296,1.584,3.406
		c-0.376,0.568-0.714,1.163-1.004,1.785c-0.826,1.77-1.29,3.741-1.29,5.82c0,5.762,3.547,10.708,8.571,12.776l1.562,9.707
		l1.767,10.969c0.151,0.939,0.962,1.629,1.912,1.629c0.95,0,1.761-0.688,1.911-1.629l3.329-20.676
		c3.286-1.352,5.939-3.938,7.385-7.175c0.764-1.713,1.188-3.608,1.188-5.601c0-2.887-0.892-5.567-2.412-7.785
		c0.834-1.043,1.104-2.031,1.427-3.227C32.062,9.647,32.165,9.27,32.292,8.858"/>
</g>
<g>
	<path fill="#004B40" d="M19.137,56.604c-1.203,0-2.214-0.861-2.406-2.049l-3.285-20.402c-5.247-2.278-8.622-7.401-8.622-13.128
		c0-2.103,0.45-4.132,1.337-6.032c0.241-0.518,0.523-1.034,0.84-1.54c-0.853-1.107-1.144-2.18-1.45-3.31
		C5.454,9.783,5.354,9.411,5.228,9.005c-0.381-1.239-0.82-2.222-0.824-2.231L3.959,5.781l1.029-0.337
		C5.941,5.133,6.9,4.976,7.838,4.976c2.729,0,4.62,1.301,5.479,2.046c3.591-1.191,7.777-1.19,11.365,0
		c0.858-0.745,2.752-2.046,5.479-2.046c0.938,0,1.896,0.157,2.852,0.468l1.028,0.337L33.598,6.77
		c-0.007,0.014-0.445,0.996-0.828,2.236c-0.113,0.371-0.207,0.713-0.297,1.042c-0.326,1.202-0.592,2.187-1.322,3.208
		c1.506,2.316,2.3,4.994,2.3,7.767c0,2.017-0.414,3.97-1.229,5.804c-1.451,3.251-4.136,5.905-7.394,7.323l-3.285,20.402
		C21.352,55.741,20.34,56.604,19.137,56.604z M5.327,6.386c0.08,0.177,0.5,1.163,0.857,2.325c0.128,0.418,0.233,0.8,0.333,1.169
		c0.329,1.213,0.589,2.171,1.481,3.211l0.246,0.287l-0.208,0.315c-0.372,0.562-0.698,1.142-0.968,1.721
		c-0.825,1.767-1.243,3.654-1.243,5.609c0,5.414,3.243,10.249,8.262,12.314l0.259,0.106l3.374,20.951
		c0.113,0.701,0.709,1.209,1.418,1.209c0.709,0,1.305-0.508,1.417-1.209l3.375-20.951l0.258-0.107
		c3.14-1.29,5.733-3.812,7.119-6.916c0.76-1.705,1.145-3.521,1.145-5.397c0-2.691-0.805-5.286-2.324-7.502l-0.21-0.306l0.231-0.29
		c0.771-0.966,1.021-1.883,1.334-3.044c0.119-0.436,0.215-0.788,0.334-1.17c0.35-1.135,0.758-2.101,0.857-2.325
		c-0.843-0.272-1.688-0.41-2.513-0.41c-2.64,0-4.39,1.383-5.019,1.978L24.92,8.163l-0.288-0.101c-3.536-1.244-7.726-1.244-11.266,0
		l-0.288,0.101l-0.222-0.209c-0.628-0.595-2.376-1.978-5.019-1.978C7.014,5.976,6.169,6.114,5.327,6.386z"/>
</g>
<g opacity="0.4">
	<g opacity="0.4">
		<path fill="#1C1C1C" d="M27.236,18.486c-1.371-1.762-3.51-2.896-5.912-2.896c-1.225,0-2.379,0.295-3.398,0.816
			c-2.427,1.239-4.09,3.76-4.09,6.671c0,1.093,0.236,2.116,0.657,3.052c1.171,2.605,3.789,4.408,6.832,4.408h0.008
			c4.132,0,7.48-3.342,7.48-7.474C28.811,21.334,28.221,19.754,27.236,18.486"/>
	</g>
</g>
<g>
	<path fill="#F8EACD" d="M25.049,16.431c-1.369-1.762-3.508-2.896-5.912-2.896c-1.224,0-2.378,0.295-3.397,0.815
		c-2.428,1.239-4.089,3.761-4.089,6.672c0,1.093,0.235,2.202,0.655,3.138c1.171,2.606,3.788,4.496,6.831,4.496h0.009
		c4.131,0,7.479-3.43,7.479-7.561C26.624,19.366,26.035,17.7,25.049,16.431"/>
</g>
<g>
	<path fill="#004B40" d="M21.768,21.03c0,0.796-0.25,1.457-0.75,1.98c-0.5,0.523-1.148,0.785-1.949,0.785
		c-0.779,0-1.413-0.262-1.902-0.785c-0.489-0.523-0.734-1.185-0.734-1.98v-1.173c0-0.794,0.244-1.453,0.732-1.979
		c0.487-0.525,1.122-0.788,1.904-0.788c0.797,0,1.447,0.263,1.947,0.788c0.502,0.525,0.752,1.185,0.752,1.979V21.03z M20.68,19.847
		c0-0.543-0.145-0.989-0.434-1.338c-0.29-0.35-0.684-0.523-1.178-0.523c-0.48,0-0.858,0.174-1.135,0.523
		c-0.276,0.349-0.414,0.795-0.414,1.338v1.183c0,0.549,0.139,0.999,0.416,1.35c0.278,0.351,0.655,0.525,1.133,0.525
		c0.499,0,0.892-0.175,1.18-0.523c0.288-0.35,0.432-0.8,0.432-1.352V19.847z"/>
</g>
</svg>
