<?xml version="1.0" encoding="utf-8"?>
<!-- Generator: Adobe Illustrator 16.0.0, SVG Export Plug-In . SVG Version: 6.00 Build 0)  -->
<!DOCTYPE svg PUBLIC "-//W3C//DTD SVG 1.1//EN" "http://www.w3.org/Graphics/SVG/1.1/DTD/svg11.dtd">
<svg version="1.1" id="Capa_1" xmlns="http://www.w3.org/2000/svg" xmlns:xlink="http://www.w3.org/1999/xlink" x="0px" y="0px"
	 width="38px" height="58.5px" viewBox="0 0 38 58.5" enable-background="new 0 0 38 58.5" xml:space="preserve">
<g>
	<g>
		<path fill="#FBB040" d="M33.898,12.426c-1.203-1.243-2.73-2.205-4.508-2.729c-3.986-1.175-8.129,0.17-10.715,3.099
			c-0.971,1.1-1.723,2.421-2.165,3.918c-1.223,4.15,0.282,8.466,3.459,11.022l-0.934,7.324l-1.057,8.276
			c-0.09,0.707,0.346,1.375,1.03,1.578c0.686,0.2,1.415-0.124,1.725-0.767l6.785-14.188c2.656-0.277,5.117-1.576,6.844-3.601
			c0.912-1.072,1.621-2.346,2.045-3.782C37.503,18.868,36.415,15.027,33.898,12.426"/>
	</g>
	<g>
		<path fill="#004B40" d="M19.422,45.477L19.422,45.477c-0.187,0-0.372-0.027-0.551-0.08c-0.925-0.274-1.507-1.166-1.386-2.121
			l1.956-15.328c-3.295-2.79-4.632-7.222-3.409-11.374c0.452-1.532,1.216-2.915,2.27-4.108c2.071-2.346,5.047-3.691,8.166-3.691
			c1.035,0,2.066,0.149,3.066,0.444c1.792,0.528,3.426,1.517,4.725,2.86c2.728,2.818,3.735,6.896,2.632,10.643
			c-0.434,1.468-1.154,2.802-2.145,3.965c-1.766,2.07-4.203,3.392-6.893,3.743l-6.666,13.938
			C20.861,45.04,20.17,45.477,19.422,45.477z M26.467,9.774c-2.83,0-5.533,1.222-7.416,3.354c-0.957,1.083-1.65,2.338-2.061,3.729
			c-1.134,3.851,0.159,7.969,3.294,10.491l0.218,0.175L18.477,43.4c-0.059,0.467,0.225,0.902,0.676,1.035
			c0.438,0.127,0.933-0.092,1.13-0.504l6.906-14.438l0.278-0.029c2.505-0.261,4.88-1.511,6.515-3.428
			c0.897-1.055,1.554-2.266,1.945-3.599c1.002-3.402,0.086-7.105-2.391-9.665c-1.18-1.219-2.662-2.117-4.289-2.596
			C28.342,9.91,27.406,9.774,26.467,9.774z"/>
	</g>
	<g opacity="0.4">
		<g>
			<g opacity="0.4">
				<path fill="#1C1C1C" d="M31.81,18.076c-1.013-1.301-2.594-2.138-4.365-2.138c-0.904,0-1.757,0.218-2.509,0.602
					c-1.792,0.915-3.02,2.776-3.02,4.925c0,0.808,0.174,1.562,0.484,2.253c0.865,1.924,2.797,3.255,5.044,3.255h0.006
					c3.051,0,5.522-2.468,5.522-5.518C32.971,20.178,32.536,19.012,31.81,18.076"/>
			</g>
		</g>
	</g>
	<g>
		<path fill="#F8EACD" d="M31.693,17.595c-0.613-1.56-1.911-2.83-3.645-3.34c-0.882-0.261-1.775-0.292-2.619-0.133
			c-2.012,0.376-3.744,1.839-4.363,3.937c-0.23,0.787-0.281,1.583-0.178,2.347c0.291,2.126,1.791,3.99,3.981,4.636
			c0.002,0,0.004,0.001,0.007,0.001c2.977,0.873,6.098-0.83,6.977-3.804C32.221,19.99,32.135,18.719,31.693,17.595"/>
	</g>
	<g>
		<path fill="#004B40" d="M28.057,20.561l0.002,0.021c-0.133,0.475-0.397,0.812-0.8,1.01c-0.401,0.198-0.872,0.218-1.409,0.06
			c-0.547-0.161-0.934-0.476-1.166-0.945c-0.229-0.469-0.261-0.99-0.092-1.564l0.264-0.893c0.168-0.571,0.475-0.993,0.92-1.266
			c0.443-0.271,0.937-0.328,1.477-0.169c0.553,0.163,0.945,0.432,1.18,0.807c0.233,0.375,0.273,0.806,0.121,1.294l-0.013,0.018
			l-0.758-0.224c0.093-0.313,0.079-0.579-0.041-0.796c-0.122-0.216-0.347-0.373-0.675-0.47c-0.319-0.094-0.608-0.042-0.869,0.156
			c-0.26,0.198-0.446,0.489-0.561,0.874l-0.265,0.899c-0.114,0.39-0.114,0.738-0.001,1.046c0.115,0.309,0.336,0.51,0.663,0.607
			c0.319,0.095,0.588,0.082,0.805-0.036c0.216-0.119,0.37-0.336,0.464-0.652L28.057,20.561z"/>
	</g>
	<g>
		<path fill="#F53D3D" d="M13.92,9.54c-1.684-0.401-3.488-0.388-5.267,0.127c-3.993,1.157-6.761,4.52-7.363,8.38
			c-0.225,1.449-0.148,2.968,0.287,4.467c1.201,4.155,4.793,6.982,8.849,7.425l3.155,6.676l3.565,7.543
			c0.304,0.646,1.033,0.975,1.718,0.773c0.685-0.197,1.125-0.863,1.039-1.572l-1.915-15.608c2.088-1.662,3.461-4.08,3.827-6.717
			c0.192-1.394,0.103-2.851-0.312-4.289C20.425,13.03,17.44,10.377,13.92,9.54"/>
	</g>
	<g>
		<path fill="#004B40" d="M18.458,45.491L18.458,45.491c-0.751,0-1.444-0.438-1.764-1.12l-6.602-13.969
			c-4.28-0.577-7.793-3.592-8.995-7.75c-0.443-1.53-0.544-3.105-0.3-4.682c0.65-4.166,3.679-7.613,7.718-8.784
			c1.799-0.521,3.706-0.566,5.521-0.133c3.814,0.907,6.858,3.801,7.946,7.552c0.426,1.477,0.535,2.99,0.326,4.497
			c-0.373,2.695-1.716,5.121-3.792,6.861l1.881,15.335c0.115,0.957-0.471,1.847-1.396,2.114
			C18.826,45.465,18.642,45.491,18.458,45.491z M11.526,9.758c-0.921,0-1.841,0.131-2.733,0.39
			c-3.667,1.062-6.418,4.194-7.008,7.977c-0.222,1.431-0.13,2.861,0.273,4.25c1.115,3.856,4.421,6.63,8.423,7.067l0.278,0.03
			l6.839,14.471c0.194,0.414,0.682,0.638,1.126,0.51c0.453-0.133,0.739-0.564,0.682-1.033l-1.949-15.886l0.219-0.174
			c1.998-1.59,3.292-3.861,3.643-6.395c0.189-1.367,0.09-2.74-0.297-4.082c-0.986-3.405-3.751-6.033-7.216-6.857
			C13.057,9.848,12.29,9.758,11.526,9.758z"/>
	</g>
	<g>
		<g>
			<g opacity="0.4">
				<path fill="#1C1C1C" d="M17.705,17.244c-1.012-1.301-2.593-2.138-4.365-2.138c-0.904,0-1.757,0.218-2.509,0.602
					c-1.792,0.915-3.02,2.776-3.02,4.925c0,0.808,0.174,1.562,0.485,2.253c0.865,1.924,2.796,3.255,5.043,3.255h0.006
					c3.051,0,5.523-2.468,5.523-5.518C18.867,19.346,18.432,18.18,17.705,17.244"/>
			</g>
		</g>
	</g>
	<g>
		<path fill="#F8EACD" d="M14.844,15.084c-1.357-0.984-3.136-1.356-4.87-0.855c-0.882,0.255-1.653,0.71-2.281,1.299
			c-1.49,1.4-2.164,3.566-1.556,5.665c0.228,0.789,0.615,1.487,1.114,2.074c1.389,1.635,3.657,2.398,5.849,1.763
			c0.003-0.001,0.006-0.001,0.008-0.002c2.977-0.866,4.693-3.981,3.83-6.962C16.577,16.818,15.82,15.793,14.844,15.084"/>
	</g>
	<g>
		<path fill="#004B40" d="M12.471,20.214l-1.666,0.482l-0.044,1.202L9.95,22.133l0.279-5.176l0.746-0.216l2.981,4.232l-0.811,0.235
			L12.471,20.214z M10.832,19.978l1.237-0.358l-1.14-1.679l-0.02,0.006L10.832,19.978z"/>
	</g>
	<g>
		<path fill="#FBB040" d="M21.316,27.125c0,1.125-0.912,2.037-2.038,2.037c-1.125,0-2.036-0.912-2.036-2.037
			s0.911-2.037,2.036-2.037C20.404,25.088,21.316,26,21.316,27.125"/>
	</g>
	<g>
		<path fill="#004B40" d="M19.279,29.515c-1.318,0-2.391-1.072-2.391-2.39s1.072-2.392,2.391-2.392s2.391,1.074,2.391,2.392
			S20.598,29.515,19.279,29.515 M19.279,25.442c-0.927,0-1.681,0.755-1.681,1.683s0.754,1.683,1.681,1.683
			c0.93,0,1.684-0.754,1.684-1.683S20.209,25.442,19.279,25.442"/>
	</g>
	<g>
		<path fill="#1EEA00" d="M29.33,10.656c0.296-0.96,0.634-1.714,0.638-1.722l0.161-0.361L29.753,8.45
			c-0.679-0.221-1.36-0.334-2.022-0.334c-2.141,0-3.555,1.14-4.026,1.589C22.335,9.223,20.871,8.98,19.35,8.98
			c-1.524,0-2.987,0.243-4.355,0.725c-0.474-0.449-1.887-1.589-4.026-1.589c-0.664,0-1.345,0.113-2.024,0.334L8.567,8.573
			L8.73,8.934c0.003,0.007,0.341,0.762,0.635,1.722c0.096,0.31,0.173,0.592,0.249,0.866c0.255,0.949,0.473,1.726,1.189,2.558
			c-0.283,0.427-0.537,0.874-0.754,1.34c-0.621,1.33-0.969,2.81-0.969,4.371c0,4.326,2.663,8.042,6.436,9.595l1.174,7.289
			l1.327,8.236c0.112,0.705,0.721,1.224,1.435,1.224c0.714,0,1.323-0.519,1.437-1.224l2.5-15.525
			c2.467-1.017,4.459-2.957,5.543-5.388c0.573-1.287,0.894-2.71,0.894-4.207c0-2.167-0.669-4.181-1.812-5.845
			c0.627-0.784,0.827-1.525,1.071-2.424C29.158,11.248,29.234,10.965,29.33,10.656"/>
	</g>
	<g opacity="0.4">
		<g opacity="0.4">
			<path fill="#1C1C1C" d="M25.071,16.163c-1.013-1.301-2.594-2.138-4.365-2.138c-0.904,0-1.757,0.218-2.509,0.602
				c-1.792,0.915-3.02,2.776-3.02,4.925c0,0.807,0.174,1.562,0.485,2.253c0.865,1.923,2.796,3.254,5.043,3.254h0.006
				c3.051,0,5.522-2.468,5.522-5.518C26.232,18.265,25.798,17.099,25.071,16.163"/>
		</g>
	</g>
	<g>
		<path fill="#F8EACD" d="M23.822,16.201c-1.027-1.323-2.635-2.175-4.44-2.175c-0.917,0-1.784,0.222-2.551,0.613
			c-1.822,0.93-3.07,2.824-3.07,5.009c0,0.821,0.178,1.609,0.493,2.312c0.879,1.957,2.844,3.33,5.128,3.33h0.007
			c3.103,0,5.615-2.529,5.615-5.631C25.004,18.358,24.562,17.153,23.822,16.201"/>
	</g>
	<g>
		<path fill="#004B40" d="M21.359,19.652c0,0.599-0.188,1.094-0.562,1.487c-0.377,0.394-0.863,0.59-1.465,0.59
			c-0.584,0-1.061-0.197-1.428-0.59c-0.368-0.393-0.551-0.889-0.551-1.487v-0.88c0-0.596,0.183-1.091,0.549-1.486
			c0.367-0.395,0.843-0.591,1.43-0.591c0.6,0,1.086,0.197,1.463,0.591c0.375,0.395,0.564,0.89,0.564,1.486V19.652z M20.543,18.765
			c0-0.408-0.109-0.743-0.326-1.005c-0.218-0.262-0.513-0.394-0.885-0.394c-0.361,0-0.645,0.131-0.852,0.394
			c-0.207,0.262-0.311,0.597-0.311,1.005v0.887c0,0.413,0.104,0.75,0.312,1.014s0.492,0.395,0.85,0.395
			c0.375,0,0.67-0.131,0.887-0.394c0.216-0.262,0.324-0.601,0.324-1.015L20.543,18.765L20.543,18.765z"/>
	</g>
</g>
</svg>
