<?xml version="1.0" encoding="utf-8"?>
<!-- Generator: Adobe Illustrator 16.0.0, SVG Export Plug-In . SVG Version: 6.00 Build 0)  -->
<!DOCTYPE svg PUBLIC "-//W3C//DTD SVG 1.1//EN" "http://www.w3.org/Graphics/SVG/1.1/DTD/svg11.dtd">
<svg version="1.1" id="Capa_1" xmlns="http://www.w3.org/2000/svg" xmlns:xlink="http://www.w3.org/1999/xlink" x="0px" y="0px"
	 width="38px" height="58.5px" viewBox="0 0 38 58.5" enable-background="new 0 0 38 58.5" xml:space="preserve">
<g>
	<path fill="#FBB040" d="M25.785,6.591C23.777,5.456,21.465,4.803,19,4.803c-5.538,0-10.322,3.278-12.522,7.993
		c-0.826,1.77-1.291,3.741-1.291,5.82c0,5.761,3.548,10.708,8.572,12.776l1.563,9.707l1.766,10.969
		c0.151,0.938,0.961,1.629,1.912,1.629s1.762-0.691,1.912-1.629l3.33-20.676c3.285-1.354,5.939-3.938,7.383-7.176
		c0.764-1.713,1.188-3.608,1.188-5.601C32.812,13.464,29.977,8.965,25.785,6.591"/>
</g>
<g>
	<path fill="#004B40" d="M19,54.197c-1.203,0-2.215-0.862-2.406-2.051L13.31,31.745c-5.248-2.278-8.622-7.401-8.622-13.128
		c0-2.101,0.45-4.13,1.338-6.032C8.373,7.554,13.466,4.303,19,4.303c2.458,0,4.889,0.641,7.031,1.853
		c4.49,2.544,7.281,7.318,7.281,12.46c0,2.017-0.414,3.97-1.23,5.804c-1.471,3.297-4.088,5.889-7.391,7.324l-3.287,20.402
		C21.215,53.335,20.204,54.197,19,54.197z M19,5.303c-5.147,0-9.885,3.024-12.069,7.705c-0.826,1.768-1.244,3.655-1.244,5.609
		c0,5.415,3.243,10.248,8.262,12.314l0.259,0.105l3.374,20.951c0.113,0.701,0.709,1.209,1.418,1.209s1.305-0.508,1.417-1.209
		l3.375-20.951l0.259-0.105c3.141-1.294,5.734-3.816,7.116-6.917c0.761-1.705,1.146-3.521,1.146-5.397
		c0-4.783-2.597-9.224-6.773-11.59C23.547,5.899,21.286,5.303,19,5.303z"/>
</g>
<g opacity="0.4">
	<g>
		<g>
			<defs>
				<rect id="SVGID_1_" x="13.451" y="13.066" width="14.975" height="14.949"/>
			</defs>
			<clipPath id="SVGID_2_">
				<use xlink:href="#SVGID_1_"  overflow="visible"/>
			</clipPath>
			<g opacity="0.4" clip-path="url(#SVGID_2_)">
				<path fill="#1C1C1C" d="M26.852,15.962c-1.371-1.762-3.51-2.896-5.912-2.896c-1.225,0-2.378,0.295-3.398,0.816
					c-2.427,1.239-4.09,3.76-4.09,6.671c0,1.093,0.236,2.116,0.657,3.052c1.171,2.606,3.788,4.409,6.832,4.409h0.008
					c4.132,0,7.48-3.342,7.48-7.474C28.426,18.81,27.836,17.23,26.852,15.962"/>
			</g>
		</g>
	</g>
</g>
<g>
	<path fill="#F8EACD" d="M24.912,14.025c-1.369-1.762-3.508-2.896-5.912-2.896c-1.224,0-2.378,0.296-3.398,0.816
		c-2.427,1.239-4.089,3.76-4.089,6.671c0,1.093,0.236,2.085,0.656,3.021c1.171,2.605,3.788,4.378,6.831,4.378h0.009
		c4.132,0,7.479-3.312,7.479-7.443C26.488,16.841,25.898,15.292,24.912,14.025"/>
</g>
<g>
	<path fill="#004B40" d="M21.488,19.164l0.009,0.027c0.012,0.656-0.202,1.187-0.64,1.591c-0.439,0.404-1.031,0.606-1.777,0.606
		c-0.758,0-1.373-0.256-1.844-0.768c-0.472-0.512-0.708-1.166-0.708-1.963v-1.239c0-0.794,0.233-1.448,0.698-1.963
		c0.466-0.515,1.073-0.772,1.822-0.772c0.767,0,1.371,0.195,1.812,0.586c0.438,0.392,0.654,0.927,0.643,1.607l-0.01,0.026h-1.053
		c0-0.436-0.117-0.769-0.354-1s-0.582-0.347-1.039-0.347c-0.441,0-0.792,0.175-1.049,0.525c-0.258,0.351-0.387,0.793-0.387,1.327
		v1.249c0,0.54,0.131,0.985,0.394,1.336c0.263,0.352,0.621,0.526,1.075,0.526c0.443,0,0.781-0.116,1.014-0.349
		c0.231-0.233,0.348-0.569,0.348-1.008h1.047V19.164z"/>
</g>
</svg>
