<?xml version="1.0" encoding="utf-8"?>
<!-- Generator: Adobe Illustrator 16.0.0, SVG Export Plug-In . SVG Version: 6.00 Build 0)  -->
<!DOCTYPE svg PUBLIC "-//W3C//DTD SVG 1.1//EN" "http://www.w3.org/Graphics/SVG/1.1/DTD/svg11.dtd">
<svg version="1.1" id="Capa_1" xmlns="http://www.w3.org/2000/svg" xmlns:xlink="http://www.w3.org/1999/xlink" x="0px" y="0px"
	 width="38px" height="58.5px" viewBox="0 0 38 58.5" enable-background="new 0 0 38 58.5" xml:space="preserve">
<g>
	<path fill="#F53D3D" d="M25.784,6.591C23.777,5.455,21.465,4.803,19,4.803c-5.537,0-10.322,3.277-12.521,7.993
		c-0.826,1.77-1.291,3.741-1.291,5.82c0,5.761,3.548,10.708,8.572,12.776l1.562,9.707l1.766,10.969
		c0.151,0.938,0.961,1.629,1.912,1.629s1.762-0.691,1.912-1.629l3.329-20.676c3.286-1.354,5.94-3.938,7.384-7.176
		c0.762-1.713,1.188-3.608,1.188-5.601C32.812,13.464,29.977,8.965,25.784,6.591"/>
</g>
<g>
	<path fill="#004B40" d="M19,54.197c-1.202,0-2.214-0.863-2.405-2.049l-3.284-20.403c-5.248-2.279-8.623-7.402-8.623-13.129
		c0-2.1,0.45-4.129,1.338-6.031C8.371,7.554,13.464,4.303,19,4.303c2.459,0,4.891,0.641,7.029,1.853
		c4.492,2.543,7.283,7.318,7.283,12.46c0,2.015-0.414,3.968-1.23,5.804c-1.471,3.298-4.089,5.891-7.393,7.325l-3.285,20.401
		C21.216,53.334,20.204,54.197,19,54.197z M19,5.303c-5.148,0-9.886,3.024-12.068,7.705c-0.825,1.769-1.244,3.656-1.244,5.608
		c0,5.414,3.243,10.248,8.263,12.313l0.259,0.106l3.372,20.95c0.113,0.701,0.71,1.209,1.419,1.209c0.71,0,1.308-0.508,1.418-1.209
		l3.374-20.95l0.26-0.106c3.141-1.292,5.733-3.813,7.116-6.917c0.761-1.707,1.146-3.523,1.146-5.397
		c0-4.783-2.597-9.224-6.774-11.59C23.548,5.899,21.287,5.303,19,5.303z"/>
</g>
<g opacity="0.4">
	<g opacity="0.4">
		<path fill="#1C1C1C" d="M26.424,16.083c-1.371-1.762-3.51-2.896-5.912-2.896c-1.225,0-2.379,0.295-3.398,0.816
			c-2.428,1.239-4.09,3.76-4.09,6.671c0,1.093,0.236,2.116,0.656,3.052c1.172,2.605,3.789,4.408,6.832,4.408h0.008
			c4.132,0,7.48-3.342,7.48-7.474C27.998,18.931,27.408,17.351,26.424,16.083"/>
	</g>
</g>
<g>
	<path fill="#F8EACD" d="M24.912,14.025c-1.369-1.762-3.508-2.896-5.912-2.896c-1.224,0-2.377,0.295-3.397,0.816
		c-2.427,1.239-4.089,3.76-4.089,6.671c0,1.093,0.236,2.145,0.656,3.081c1.17,2.606,3.787,4.438,6.83,4.438h0.01
		c4.131,0,7.479-3.371,7.479-7.503C26.486,16.901,25.898,15.293,24.912,14.025"/>
</g>
<g>
	<path fill="#004B40" d="M20.078,19.773h-2.31l-0.502,1.522h-1.123l2.273-6.518h1.035l2.246,6.518h-1.123L20.078,19.773z
		 M18.068,18.864h1.714l-0.836-2.569h-0.027L18.068,18.864z"/>
</g>
</svg>
