<svg xmlns="http://www.w3.org/2000/svg" width="219.517" height="173.279" viewBox="0 0 219.517 173.279"><defs><style>.a{fill:#1eeb00;}.b{fill:#7fff5d;}.c{fill:#004a3d;}.d{fill:#004b40;}.e{fill:#001b24;opacity:0.252;}.f{fill:#00a905;}.g{fill:#007e6b;}.h{fill:#01a925;}.i{fill:#ffce00;}.j{fill:#e1fecb;}.k{fill:#7bba00;}</style></defs><g transform="translate(-99 -339.5)"><g transform="translate(-15.483)"><g transform="translate(191.646 408.773)"><g transform="translate(-49.645 -19.727)"><path class="a" d="M98.787,9.829c-.575,1.411-1.411,3.658-2.247,6.271-.418,1.411-.784,2.665-1.1,3.919-1.045,3.815-1.777,6.637-4.181,9.616a51.684,51.684,0,0,0-5.592-10.713c.732-1.1,2.613-3.449,7.055-5.539l-1.306-2.822c-7.368,3.449-8.988,7.839-9.041,8l-.261.784.523.679c.1.1,6.95,9.041,9.041,23.725H19.459A55.613,55.613,0,0,1,28.448,20.02l.523-.679-.314-.784c-.052-.209-1.672-4.546-9.041-8l-1.359,2.822c4.442,2.09,6.323,4.442,7.055,5.539a51.213,51.213,0,0,0-5.487,10.713c-2.4-2.979-3.135-5.748-4.181-9.616-.314-1.254-.679-2.508-1.1-3.919-.784-2.613-1.672-4.86-2.247-6.271a22.834,22.834,0,0,1,22.471,5.905l.732.836L36.5,16.2a55.36,55.36,0,0,1,38.044-.052l.993.366.732-.784A22.894,22.894,0,0,1,98.787,9.829Z" transform="translate(-5.872 -4.29)"/><g transform="translate(34.606 26.234)"><path class="b" d="M95.493,61.875a15.05,15.05,0,0,1-1.777,2.979H71.663a15.05,15.05,0,0,1-1.777-2.979c-2.613-5.853,3.083-7.734,5.383-8.152a52.947,52.947,0,0,1,14.841,0C92.41,54.141,98.158,56.022,95.493,61.875Z" transform="translate(-67.65 -51.632)"/><path class="c" d="M95.684,54.9c-1.568-2.926-5.174-3.867-6.689-4.128A57.852,57.852,0,0,0,81.26,50.2a57.8,57.8,0,0,0-7.682.575c-1.516.261-5.121,1.2-6.689,4.128a6.774,6.774,0,0,0,.157,6.166,16.566,16.566,0,0,0,1.254,2.3H72.22a14.318,14.318,0,0,1-2.352-3.606,3.92,3.92,0,0,1-.261-3.449c.47-.888,2.77-2.195,4.442-2.508a55.71,55.71,0,0,1,7.159-.523,55.811,55.811,0,0,1,7.159.523c1.672.314,3.71,1.15,4.442,2.508s.366,2.038-.261,3.449A14.319,14.319,0,0,1,90.2,63.369h3.972a16.618,16.618,0,0,0,1.254-2.3A6.652,6.652,0,0,0,95.684,54.9Z" transform="translate(-66.221 -50.2)"/></g><path class="d" d="M99.291,2.613,97.88,5.8a71.535,71.535,0,0,0-2.717,7.421c-.418,1.359-.732,2.561-1.1,3.763-1.15,4.337-2.195,8.1-5.8,12.176a63.859,63.859,0,0,1,2.195,10.295H85.7A55.613,55.613,0,0,0,76.715,15.73l-.523-.679.261-.784c.052-.209,1.725-4.546,9.041-8l1.359,2.822c-4.442,2.09-6.376,4.442-7.055,5.539a51.684,51.684,0,0,1,5.539,10.713c2.4-2.979,3.135-5.748,4.181-9.616.314-1.254.679-2.508,1.1-3.919C91.4,9.2,92.288,6.95,92.863,5.539a22.772,22.772,0,0,0-22.471,5.905l-.732.784-.993-.366A54.139,54.139,0,0,0,49.645,8.518a54.139,54.139,0,0,0-19.074,3.345l-.993.366-.732-.836A22.9,22.9,0,0,0,6.376,5.487C6.95,6.9,7.839,9.145,8.623,11.758c.418,1.411.784,2.665,1.1,3.919,1.045,3.815,1.777,6.637,4.181,9.616a51.213,51.213,0,0,1,5.592-10.661c-.732-1.1-2.665-3.449-7.055-5.539l1.306-2.822c7.368,3.449,8.988,7.839,9.041,8l.314.784-.523.679c-.1.1-6.95,9.093-8.988,23.725H8.832A64.12,64.12,0,0,1,11.026,29.16c-3.606-4.076-4.6-7.839-5.8-12.176-.314-1.2-.679-2.4-1.045-3.763A71.488,71.488,0,0,0,1.411,5.8L0,2.613,3.345,1.568A30.258,30.258,0,0,1,12.751,0,27.854,27.854,0,0,1,30.832,6.794a60.881,60.881,0,0,1,37.626,0A27.854,27.854,0,0,1,86.592,0,30.257,30.257,0,0,1,96,1.568Z" transform="translate(0 0)"/><rect class="c" width="4.808" height="6.214" rx="2.404" transform="translate(43.165 31.198)"/><circle class="c" cx="3.449" cy="3.449" r="3.449" transform="translate(27.331 22.471)"/><rect class="c" width="4.808" height="6.214" rx="2.404" transform="translate(56.125 37.417) rotate(180)"/><circle class="c" cx="3.449" cy="3.449" r="3.449" transform="translate(65.062 22.471)"/></g></g><g transform="translate(-2997 -482)"><ellipse class="e" cx="99" cy="7.623" rx="99" ry="7.623" transform="translate(3111.483 979.532)"/><path class="b" d="M3403.794,1045.221V1118.7h41.164v-53.23h-.223c.113-.09.223-.182.333-.273l.146-.123q.119-.1.235-.2l.154-.135.218-.2.155-.143c.07-.066.139-.132.207-.2l.151-.148c.068-.068.134-.136.2-.2.048-.05.1-.1.144-.15.068-.072.133-.146.2-.219.043-.048.087-.1.13-.145.071-.082.14-.166.21-.25.034-.042.07-.082.1-.124q.153-.19.3-.387c.044.022.087.047.129.072l.041.026.084.055.045.032.075.057.043.035.074.062.039.034.077.073.03.029c.035.034.069.07.1.106h0q.107.116.207.24l.007.009c.031.039.062.078.092.118l0,.006c.61.8,1.053,1.739,1.776,1.946a1.132,1.132,0,0,0,.549.016l.067-.016c1.116-.273,1.49-1.506,2.291-2.468l.008-.01c.028-.033.056-.066.085-.1l.017-.019q.04-.045.083-.089l.023-.025.081-.079.031-.03c.026-.025.053-.048.08-.072l.037-.033c.027-.023.054-.045.082-.067l.04-.033c.029-.022.06-.044.09-.066l.04-.029q.066-.046.136-.089c.563,1.074.563,3.223,2.251,2.916,1.5-.154,2.064-2.916,3.189-2.762a2.056,2.056,0,0,1,.239.055c.024.007.048.016.072.023.052.017.1.036.154.057l.075.033c.049.023.1.048.143.074l.064.036c.064.039.127.08.188.125l.012.01c.059.044.116.092.173.141l.061.056c.039.036.077.072.114.11l.065.067c.036.038.071.076.106.116l.061.069c.042.049.083.1.124.151l.084.108c.032.041.064.082.1.124l.093.126.051.07a15.507,15.507,0,0,0,1.147,1.5h-.618v53.23h38.713v-72.715l-4.8-.764Z" transform="translate(-266.716 -135.207)"/><path class="f" d="M3875,1065.607c.057.108.12.213.187.315l7.748-3.373-6.29-9.667c-8.088,3.385-14.047,6.533-14.047,6.533l3.859-9.129-4.087-.651v72.715h11.011v-54.835A15.537,15.537,0,0,0,3875,1065.607Z" transform="translate(-628.391 -138.857)"/><path class="g" d="M3615.474,1146.119c-.183-.25-.356-.5-.529-.74l-.051-.07-.093-.126c-.031-.042-.063-.083-.1-.125l-.084-.107c-.041-.051-.082-.1-.124-.151l-.061-.069c-.035-.04-.07-.078-.106-.116l-.065-.067c-.038-.038-.076-.074-.114-.11l-.061-.056c-.056-.049-.114-.1-.173-.141l-.012-.01c-.061-.045-.124-.086-.188-.125l-.064-.036c-.047-.026-.094-.051-.144-.074l-.075-.033c-.05-.021-.1-.04-.154-.057-.024-.008-.047-.016-.072-.023a2.042,2.042,0,0,0-.239-.055c-1.126-.154-1.688,2.609-3.189,2.762-1.688.307-1.688-1.841-2.251-2.916-.047.029-.092.058-.136.089l-.039.029c-.03.022-.061.043-.09.066l-.04.033c-.028.022-.055.044-.082.067l-.037.033c-.027.024-.054.047-.08.072l-.031.03-.081.079-.023.025q-.042.044-.083.089l-.017.019-.085.1-.008.01c-.8.963-1.176,2.195-2.292,2.468l-.067.016a1.133,1.133,0,0,1-.549-.016c-.723-.207-1.166-1.15-1.775-1.946l-.005-.007-.092-.117-.007-.009c-.067-.083-.135-.163-.207-.24h0c-.034-.036-.068-.071-.1-.106l-.03-.029c-.026-.025-.051-.049-.077-.073l-.039-.035-.074-.062-.043-.035-.075-.056-.045-.032-.084-.055-.041-.026c-.042-.025-.085-.05-.129-.072q-.144.2-.3.387c-.034.042-.069.083-.1.125-.069.084-.138.168-.21.25-.042.049-.086.1-.13.145-.066.073-.131.147-.2.219-.047.051-.1.1-.144.15-.066.068-.132.137-.2.2-.05.05-.1.1-.151.148-.069.067-.137.133-.207.2l-.155.143c-.072.066-.145.132-.218.2l-.154.135q-.116.1-.235.2l-.147.123-.111.093v53.411h17.172v-53.993Z" transform="translate(-420.081 -216.618)"/><path class="d" d="M3921.568,1150.518c-.471-.45-.337-.888.042-1.313v-1.971c-1.163-.007-2.281.086-2.929-.5-1.036-.94,1.437-2.364,1.56-3.808-.234-.01-.465-.026-.7-.045a15.892,15.892,0,0,1-1.465,1.938,12.084,12.084,0,0,0-1.8-2.482l-.226-.054.147-.064c-.067-.1-.131-.207-.187-.315a15.529,15.529,0,0,1-1.617,1.908v54.835h7.21V1150.56C3921.6,1150.546,3921.581,1150.533,3921.568,1150.518Z" transform="translate(-669.414 -215.152)"/><path class="b" d="M3907.983,880.528l6.492,12.176-8.894-16.712h0l-10.224-19.212-33.425,17.788,7.566,14.217,8.385-4.379C3900.588,872.549,3907.983,880.528,3907.983,880.528Z" transform="translate(-644.097)"/><path class="b" d="M4092.26,1145.9l.011.02-1.441-2.707.014.027-5.556-10.44h0l-.239-.449h0l-.682-1.281,6.476,12.193s2.487,10.591-20.029,22.8l-8.316,4.509,5.626,10.573,33.425-17.787Z" transform="translate(-802.375 -216.662)"/><path class="b" d="M4032.895,1115.228l-1.814-3.41-33.425,17.788,6.922,13.008C4016.821,1135.842,4032.457,1125.267,4032.895,1115.228Z" transform="translate(-751.134 -201.388)"/><path class="b" d="M3969.532,1025.1l-1.182-2.222c-8.572-5.245-26.077,1.817-38.532,8.19l6.29,11.819Z" transform="translate(-697.628 -129.695)"/><path class="h" d="M4157.465,1333.141l-33.425,17.788,3.956,7.434,33.425-17.788-6.266-11.774h0Z" transform="translate(-850.893 -372.772)"/><rect class="h" width="37.863" height="8.537" transform="translate(3265.749 964.386) rotate(-28.02)"/><path class="d" d="M4118.852,1321.259h0l-1.077-2.024-33.425,17.788-6.359,3.384a18.609,18.609,0,0,0,2.819.332c-.895,1.114-1.194,2.548-2.177,3.5a17.652,17.652,0,0,0,4.7.048,5.95,5.95,0,0,1-1.161,2.064l5.563-2.96,33.425-17.788Z" transform="translate(-814.59 -365.231)"/><path class="g" d="M4234.986,1140.561c-7.226-11.819-41.332-13.82-41.332-13.82l-.008,0a13.85,13.85,0,0,1,1.245,3.812c.114.069.18.113.18.113s15.049,4.05,20.752,13.207-10.236,16.632-20.159-1.37l-.011-.02,9.29,17.455,4.011,7.537,1.077,2.024h0C4226.194,1176.343,4242.21,1152.377,4234.986,1140.561Z" transform="translate(-905.768 -213.219)"/><path class="i" d="M4174.286,1146.938l-4.1-7.7h0l5.556,10.44-.014-.028c-.522-1.021-.966-1.942-1.344-2.777C4174.354,1146.9,4174.321,1146.919,4174.286,1146.938Z" transform="translate(-887.276 -222.986)"/><path class="j" d="M4155.421,1099.206c-2.206-2.2-4.822-3.14-6.76-2.171l-.079.038,3.3,6.2h0l0,.006,1.032,1.94.239.449,4.1,7.7c.035-.019.067-.04.1-.06,1.8-1.036,2.49-3.561,2.011-6.466a13.85,13.85,0,0,0-1.245-3.812c-.074-.151-.151-.3-.231-.453h0A14.172,14.172,0,0,0,4155.421,1099.206Z" transform="translate(-870.241 -189.379)"/><path class="g" d="M3907.572,948.261l-6.476-12.192.682,1.281h0l-1.032-1.94,0-.006h0l-3.3-6.2c.026-.014.053-.025.079-.038-.4-.669-.832-1.409-1.286-2.23l-1.441-2.707c-9.389-18.286,5.717-27.331,10.124-17.486s-.638,24.59-.638,24.59v0a14.176,14.176,0,0,1,2.467,3.367h0s17.392-29.407,11.625-42-34.59-12.7-37.946,4.531h0l8.894,16.712-6.492-12.176s-7.4-7.979-30.1,3.877l-8.385,4.379-14.318,7.477,2.044.4,4.8.934h0l4.087.8-3.859,11.161s5.959-3.848,14.047-7.987c12.455-6.373,29.961-13.435,38.532-8.19l1.182,2.221-33.425,17.788-7.748,4.123-.147.079.226.066a17.981,17.981,0,0,0,3.263.666c.23.023.461.043.7.055-.123,1.766-2.6,3.507-1.56,4.656.648.718,1.766.6,2.929.612a4.859,4.859,0,0,1,2.047.352c-.52.648-1.521,1.336-2.047,2.057a1.17,1.17,0,0,0-.042,1.605c.013.018.028.034.042.052.926,1.152,4.08.112,4.438,1.177.339,1.129-.532,2.256-1.3,3.526l3.726-1.983,3.541-1.885,33.425-17.788,1.814,3.41c-.437,10.039-16.073,20.614-28.317,27.385-4.1,2.268-7.822,4.109-10.463,5.36-2.478,1.174-4.007,1.829-4.007,1.829l4.007,1.065,7.406,1.968-4.342,10.255,14.2-7.7,8.316-4.509C3910.059,958.851,3907.572,948.261,3907.572,948.261Z" transform="translate(-619.104 -21.242)"/></g></g><g transform="translate(-3256.751 -385.088)"><path class="k" d="M3544.782,986.839l-2.025-3.508-2.025-3.508-2.025,3.508-2.026,3.508h8.1Z" transform="translate(-133.214 -194.339)"/><path class="k" d="M3744.263,930.9l-3.491,2.054-3.491,2.054,3.524,2,3.524,2-.033-4.051Z" transform="translate(-285.953 -157.086)"/><path class="k" d="M3673.5,884.386l-2.187-3.409-2.188-3.409-1.858,3.6-1.858,3.6,4.046-.19Z" transform="translate(-231.226 -116.48)"/><path class="k" d="M3412.43,799.335l3.371-2.246,3.371-2.245-3.63-1.8-3.631-1.8.26,4.042Z" transform="translate(-38.213 -50.757)"/><path class="k" d="M3829.208,789.061l1.248-3.854,1.248-3.854-3.961.846-3.961.846,2.713,3.007Z" transform="translate(-351.815 -43.222)"/><path class="i" d="M3543.8,766.252l.776,2.584,1.579-2.187,2.7.061-1.592-2.178.891-2.546-2.563.842-2.146-1.634.009,2.7-2.218,1.536Z" transform="translate(-136.679 -27.871)"/><path class="i" d="M3795.676,882.639l1.686,1.946.519-2.522,2.372-1-2.238-1.273-.22-2.566-1.9,1.735-2.508-.583,1.063,2.346-1.33,2.2Z" transform="translate(-328.466 -116.217)"/><path class="i" d="M3847.75,987.252l-1.255,2.08,2.414-.269,1.591,1.836.49-2.379,2.238-.945-2.111-1.2-.208-2.42-1.795,1.637-2.366-.551Z" transform="translate(-369.109 -197.482)"/><path class="i" d="M3643.061,976.279l1.851,2.137.57-2.769,2.6-1.1-2.458-1.4-.241-2.817-2.089,1.905-2.753-.641,1.166,2.575-1.46,2.421Z" transform="translate(-212.073 -187.111)"/><path class="i" d="M3416.083,939.465l2.087,2.409.643-3.122,2.937-1.241-2.771-1.576-.272-3.176-2.355,2.148-3.1-.722,1.315,2.9-1.646,2.73Z" transform="translate(-38.977 -158.503)"/><path class="i" d="M3934.878,845.8l1.849,2.134.569-2.765,2.6-1.1-2.454-1.4-.241-2.812-2.085,1.9-2.75-.64,1.164,2.571-1.458,2.417Z" transform="translate(-434.269 -87.772)"/><path class="i" d="M3691.427,730.005l1.687,1.946.519-2.522,2.372-1-2.238-1.273-.22-2.566-1.9,1.735-2.508-.584,1.062,2.346-1.33,2.205Z" transform="translate(-249.09 0)"/><path class="i" d="M3454.211,765.823c.192.213.41.488.679.769l.4.476c.07.085.145.167.221.251l.223.27c.311.358.633.757.976,1.169.164.215.342.424.517.643s.35.447.53.675.354.468.538.7.355.485.54.727c.354.5.725.991,1.072,1.5.179.253.36.5.53.763l.518.764c.087.126.17.254.252.383l.254.376.489.748,1.757,2.727.72,1.107c.206.335.408.622.563.864s.29.429.373.561l.136.2.143-.041s-.084-.315-.264-.853-.446-1.3-.83-2.2-.865-1.923-1.44-3c-.289-.535-.6-1.082-.933-1.627s-.685-1.092-1.056-1.624-.768-1.048-1.166-1.548l-.607-.731-.617-.692-.618-.65-.613-.6c-.409-.38-.8-.736-1.176-1.045s-.733-.578-1.044-.822c-.325-.226-.6-.428-.842-.585l-.752-.479-.078.126s.052.068.155.188S3454.014,765.617,3454.211,765.823Z" transform="translate(-69.964 -30.774)"/><path class="i" d="M3565.588,894.614l-.227-.254-.42-.467c-.276-.281-.513-.531-.716-.729l-.648-.61-.043.047.149.181c.1.117.236.293.421.505l.636.793.374.5.2.267.2.286c.283.386.566.821.875,1.272l.45.711c.144.249.3.5.453.75l.448.788c.141.272.288.544.438.818.289.554.572,1.122.832,1.7s.528,1.156.764,1.736l.348.863c.111.287.222.569.324.85.2.563.4,1.106.576,1.627s.334,1.017.477,1.476.265.886.377,1.261.2.709.274.981l.17.636.057.226.063-.006a27.414,27.414,0,0,0-.568-3.185c-.217-.947-.517-2.04-.9-3.193-.19-.576-.4-1.167-.635-1.76s-.483-1.191-.756-1.779-.569-1.164-.871-1.725l-.467-.825-.483-.789-.492-.747-.5-.7c-.334-.445-.653-.863-.969-1.233Z" transform="translate(-153.66 -127.891)"/><path class="i" d="M3372.983,968.116c.415.43.822.842,1.2,1.246s.724.788,1.043,1.149l.864.993.654.781.418.509.145.183.054-.032a27.453,27.453,0,0,0-1.831-2.667c-.587-.773-1.312-1.646-2.132-2.54-.411-.446-.847-.9-1.3-1.343s-.931-.886-1.422-1.309-1-.826-1.5-1.213l-.765-.559-.765-.519-.756-.478-.74-.433c-.488-.268-.951-.517-1.391-.724l-.32-.156-.312-.137-.575-.253c-.368-.142-.687-.273-.953-.369l-.843-.288-.019.06.21.1c.137.066.336.17.592.287l.906.46.546.3.3.159.3.177c.417.235.855.514,1.321.8l.7.462c.234.167.478.329.723.5l.733.533c.24.19.487.377.736.565.491.386.984.786,1.459,1.208s.958.835,1.411,1.267l.673.643C3372.556,967.691,3372.774,967.9,3372.983,968.116Z" transform="translate(0 -179.21)"/><path class="i" d="M3609.722,754.093c.151.24.319.541.531.868l.309.541c.053.1.111.191.17.289l.17.308c.234.416.463.879.719,1.359l.366.753c.114.262.243.523.368.79l.361.826c.11.284.228.568.35.853.231.576.457,1.165.656,1.764.218.592.417,1.192.6,1.788.047.148.09.3.132.446l.138.44c.085.293.172.583.25.87.15.576.309,1.131.44,1.663l.365,1.5.29,1.283c.082.385.153.721.212,1s.1.5.135.647l.044.23h.085a27.4,27.4,0,0,0-.261-3.226c-.125-.963-.319-2.081-.586-3.266-.135-.592-.288-1.2-.464-1.814s-.367-1.233-.582-1.844-.458-1.213-.706-1.8l-.388-.865-.407-.831q-.215-.4-.42-.79l-.428-.743c-.291-.475-.57-.921-.849-1.32l-.2-.295-.2-.274-.375-.505c-.249-.306-.46-.578-.645-.794l-.589-.668-.062.057.124.2C3609.453,753.663,3609.565,753.859,3609.722,754.093Z" transform="translate(-188.467 -21.843)"/><path class="i" d="M3737.116,821.7s.091-.307.284-.838.49-1.279.875-2.166.878-1.9,1.459-2.961c.292-.529.606-1.068.942-1.606s.689-1.076,1.062-1.6.751-1.045,1.14-1.545l.595-.73.6-.692.606-.65.6-.6c.4-.38.784-.737,1.154-1.046l.269-.231.264-.211.486-.393c.316-.232.588-.441.818-.6l.733-.5-.078-.125s-.083.021-.234.067-.376.112-.652.217-.607.241-.979.419-.791.386-1.216.659c-.215.134-.442.272-.666.428s-.453.323-.687.5-.458.37-.7.562-.458.412-.694.625a18.883,18.883,0,0,0-1.345,1.416c-.434.5-.844,1.04-1.234,1.589s-.748,1.12-1.07,1.7-.62,1.155-.88,1.726-.482,1.136-.672,1.679c-.094.272-.181.538-.26.8s-.15.51-.209.754c-.127.485-.211.941-.281,1.343s-.111.759-.139,1.052-.034.528-.041.686,0,.246,0,.246Z" transform="translate(-285.717 -61.385)"/><path class="i" d="M3862.331,807.913c.581-.775,1.3-1.649,2.11-2.546.408-.447.838-.9,1.291-1.346s.922-.888,1.407-1.313.976-.843,1.473-1.238l.75-.572.751-.533.742-.491.727-.446c.48-.276.937-.535,1.37-.75l.316-.162.307-.143.568-.263c.364-.149.678-.286.941-.387l.833-.3-.027-.08-.232.042c-.15.03-.375.064-.657.127s-.619.154-1.005.267c-.379.128-.82.254-1.274.45-.229.1-.473.184-.716.3s-.492.232-.749.357l-.776.407c-.262.144-.521.308-.787.467l-.795.515c-.263.182-.53.365-.789.563-.517.4-1.035.812-1.534,1.246-.246.221-.489.447-.724.677s-.469.46-.7.692c-.461.459-.87.953-1.27,1.423s-.756.951-1.084,1.412q-.248.344-.47.676c-.143.225-.283.44-.411.651-.264.416-.481.814-.67,1.167s-.339.668-.459.93-.2.473-.259.616l-.084.221.074.042A27.208,27.208,0,0,1,3862.331,807.913Z" transform="translate(-379.734 -55.392)"/><path class="i" d="M3777.623,952.264c-.146.221-.291.431-.423.639-.271.409-.5.8-.695,1.143s-.358.654-.486.91-.218.462-.281.6-.093.216-.093.216l.055.031a27.268,27.268,0,0,1,1.806-2.673c.581-.776,1.3-1.651,2.108-2.549.407-.448.838-.9,1.29-1.348s.922-.889,1.407-1.315.978-.842,1.475-1.238l.751-.572.752-.532.744-.491.728-.446c.48-.276.937-.534,1.372-.749l.316-.162.307-.143.569-.263c.364-.149.679-.285.942-.387l.834-.3-.02-.06-.228.052c-.148.035-.37.08-.647.151s-.609.175-.991.3c-.373.138-.807.275-1.254.479-.225.1-.466.193-.7.309s-.486.238-.738.366l-.765.417c-.258.147-.513.311-.777.472l-.785.519c-.259.183-.523.368-.78.565-.513.4-1.025.81-1.521,1.244-.245.22-.486.443-.721.671s-.468.456-.7.686c-.459.456-.872.941-1.274,1.406s-.764.937-1.1,1.39C3777.933,951.824,3777.774,952.047,3777.623,952.264Z" transform="translate(-315.163 -165.977)"/></g></g></svg>