<?xml version="1.0" encoding="utf-8"?>
<!-- Generator: Adobe Illustrator 16.0.0, SVG Export Plug-In . SVG Version: 6.00 Build 0)  -->
<!DOCTYPE svg PUBLIC "-//W3C//DTD SVG 1.1//EN" "http://www.w3.org/Graphics/SVG/1.1/DTD/svg11.dtd">
<svg version="1.1" id="Capa_1" xmlns="http://www.w3.org/2000/svg" xmlns:xlink="http://www.w3.org/1999/xlink" x="0px" y="0px"
	 width="67.317px" height="60px" viewBox="0 0 67.317 60" enable-background="new 0 0 67.317 60" xml:space="preserve">
<path fill="#FFFFFF" d="M316.305,143.962c0.061,0,0.117,0.012,0.17,0.033c0.053,0.022,0.1,0.054,0.139,0.092
	c0.039,0.039,0.07,0.084,0.094,0.135c0.023,0.053,0.035,0.107,0.035,0.166s-0.012,0.113-0.035,0.165s-0.055,0.097-0.094,0.136
	s-0.086,0.069-0.139,0.092s-0.109,0.033-0.17,0.033c-0.062,0-0.119-0.011-0.174-0.033c-0.053-0.022-0.1-0.053-0.141-0.092
	c-0.039-0.039-0.07-0.084-0.092-0.136c-0.023-0.052-0.033-0.106-0.033-0.165s0.01-0.113,0.033-0.166
	c0.021-0.051,0.053-0.096,0.092-0.135c0.041-0.038,0.088-0.069,0.141-0.092C316.186,143.974,316.242,143.962,316.305,143.962
	 M316.305,144.696c0.043,0,0.082-0.01,0.119-0.025s0.07-0.038,0.098-0.064c0.027-0.029,0.049-0.062,0.064-0.099
	s0.023-0.077,0.023-0.12s-0.008-0.082-0.023-0.12s-0.037-0.069-0.064-0.098c-0.027-0.027-0.061-0.05-0.098-0.065
	s-0.076-0.023-0.119-0.023s-0.084,0.008-0.123,0.023c-0.037,0.016-0.07,0.038-0.098,0.065c-0.027,0.028-0.049,0.06-0.064,0.098
	s-0.023,0.077-0.023,0.12s0.008,0.083,0.023,0.12s0.037,0.069,0.064,0.099c0.027,0.026,0.061,0.049,0.098,0.064
	C316.221,144.687,316.262,144.696,316.305,144.696 M316.328,144.198c0.053,0,0.092,0.012,0.119,0.035s0.041,0.055,0.041,0.092
	c0,0.031-0.01,0.056-0.029,0.076c-0.02,0.02-0.047,0.033-0.084,0.039l0.117,0.135h-0.127l-0.105-0.131h-0.012v0.131h-0.107v-0.377
	H316.328z M316.248,144.29v0.07h0.078c0.018,0,0.029-0.002,0.039-0.008c0.008-0.005,0.014-0.014,0.014-0.027
	c0-0.012-0.006-0.021-0.014-0.025c-0.01-0.006-0.021-0.01-0.039-0.01H316.248z"/>
<path fill="#F59E00" d="M315.838,129.396v-0.459h-0.188v-0.127h0.51v0.127h-0.186v0.459H315.838z M316.822,129.396v-0.406
	l-0.131,0.352h-0.146l-0.131-0.351v0.405h-0.139v-0.586h0.197l0.146,0.375l0.145-0.375h0.197v0.586H316.822z"/>
<path fill="#FFFFFF" d="M12.656,39.489c-0.146-0.147-0.32-0.261-0.521-0.342c-0.201-0.081-0.422-0.122-0.66-0.122
	c-0.127,0-0.257,0.01-0.395,0.032c-0.137,0.022-0.27,0.061-0.4,0.116c-0.131,0.055-0.254,0.131-0.373,0.229
	c-0.118,0.097-0.221,0.22-0.309,0.368c-0.141-0.233-0.331-0.415-0.571-0.547c-0.24-0.132-0.515-0.198-0.824-0.198
	c-0.104,0-0.212,0.009-0.322,0.028c-0.111,0.019-0.222,0.052-0.331,0.098c-0.11,0.046-0.215,0.11-0.314,0.19s-0.19,0.18-0.271,0.302
	v-0.509H6.486v4.174h0.886v-2.314c0-0.177,0.028-0.335,0.085-0.473c0.056-0.137,0.131-0.253,0.226-0.346
	c0.094-0.093,0.204-0.164,0.33-0.211c0.127-0.048,0.262-0.072,0.405-0.072c0.298,0,0.529,0.094,0.693,0.283
	c0.165,0.189,0.247,0.459,0.247,0.811v2.322h0.886v-2.314c0-0.177,0.028-0.335,0.084-0.473c0.058-0.137,0.132-0.253,0.226-0.346
	c0.095-0.093,0.206-0.164,0.332-0.211c0.126-0.048,0.261-0.072,0.404-0.072c0.298,0,0.529,0.094,0.693,0.283
	s0.247,0.459,0.247,0.811v2.322h0.886v-2.623c0-0.244-0.04-0.468-0.121-0.671C12.915,39.811,12.802,39.635,12.656,39.489"/>
<path fill="#FFFFFF" d="M17.326,39.64c-0.146-0.186-0.325-0.335-0.54-0.447c-0.215-0.111-0.474-0.168-0.771-0.168
	c-0.293,0-0.566,0.055-0.819,0.164c-0.253,0.109-0.474,0.261-0.662,0.455c-0.188,0.195-0.337,0.426-0.444,0.695
	c-0.107,0.269-0.161,0.562-0.161,0.883c0,0.319,0.054,0.613,0.161,0.882s0.256,0.5,0.444,0.695c0.188,0.195,0.409,0.346,0.662,0.455
	c0.253,0.109,0.526,0.164,0.819,0.164c0.298,0,0.557-0.056,0.771-0.166c0.215-0.11,0.395-0.258,0.54-0.444v0.501h0.911v-4.175
	h-0.911V39.64z M17.291,41.752c-0.062,0.163-0.146,0.304-0.257,0.423c-0.11,0.119-0.242,0.213-0.396,0.281s-0.326,0.102-0.514,0.102
	c-0.198,0-0.374-0.035-0.529-0.106c-0.157-0.072-0.287-0.168-0.395-0.288s-0.19-0.262-0.249-0.425
	c-0.058-0.163-0.087-0.336-0.087-0.518c0-0.183,0.029-0.356,0.087-0.519c0.059-0.162,0.142-0.304,0.249-0.425
	c0.107-0.12,0.237-0.216,0.395-0.287c0.155-0.071,0.331-0.107,0.529-0.107c0.188,0,0.359,0.034,0.514,0.102
	c0.154,0.069,0.286,0.163,0.396,0.281c0.11,0.119,0.195,0.26,0.257,0.423s0.092,0.34,0.092,0.532
	C17.382,41.413,17.352,41.59,17.291,41.752"/>
<path fill="#FFFFFF" d="M22.422,41.214c-0.256-0.199-0.611-0.332-1.067-0.398l-0.432-0.066c-0.096-0.015-0.186-0.031-0.27-0.05
	c-0.085-0.019-0.157-0.044-0.219-0.076c-0.061-0.032-0.109-0.073-0.146-0.122c-0.036-0.05-0.055-0.111-0.055-0.184
	c0-0.147,0.069-0.267,0.208-0.359c0.137-0.091,0.331-0.137,0.581-0.137c0.131,0,0.259,0.012,0.386,0.035
	c0.126,0.023,0.246,0.052,0.359,0.087c0.113,0.035,0.217,0.073,0.31,0.116c0.093,0.042,0.171,0.082,0.235,0.119l0.392-0.71
	c-0.218-0.139-0.471-0.248-0.762-0.324c-0.291-0.077-0.601-0.116-0.929-0.116c-0.268,0-0.507,0.031-0.719,0.094
	c-0.212,0.062-0.394,0.151-0.543,0.265c-0.149,0.115-0.265,0.255-0.344,0.421c-0.08,0.165-0.12,0.351-0.12,0.558
	c0,0.337,0.12,0.609,0.359,0.817c0.239,0.207,0.592,0.343,1.057,0.407l0.436,0.057c0.25,0.035,0.433,0.09,0.549,0.168
	c0.116,0.076,0.175,0.174,0.175,0.294c0,0.156-0.08,0.281-0.239,0.372c-0.16,0.091-0.397,0.137-0.711,0.137
	c-0.171,0-0.324-0.011-0.459-0.034c-0.136-0.024-0.259-0.055-0.371-0.094c-0.111-0.039-0.212-0.085-0.301-0.135
	c-0.088-0.051-0.17-0.105-0.246-0.163l-0.422,0.684c0.15,0.113,0.309,0.204,0.475,0.274c0.165,0.069,0.328,0.124,0.488,0.163
	c0.159,0.04,0.311,0.066,0.453,0.079c0.142,0.013,0.267,0.019,0.374,0.019c0.3,0,0.567-0.033,0.805-0.1
	c0.236-0.067,0.436-0.161,0.597-0.281c0.161-0.12,0.284-0.264,0.37-0.431s0.129-0.351,0.129-0.552
	C22.806,41.691,22.678,41.414,22.422,41.214"/>
<path fill="#FFFFFF" d="M30.949,39.633c-0.173-0.193-0.38-0.343-0.623-0.449c-0.242-0.106-0.509-0.159-0.8-0.159
	c-0.308,0-0.589,0.053-0.843,0.159s-0.473,0.256-0.655,0.449c-0.184,0.193-0.326,0.425-0.428,0.695s-0.152,0.568-0.152,0.893
	c0,0.331,0.053,0.632,0.157,0.902s0.251,0.501,0.439,0.693c0.189,0.192,0.414,0.34,0.676,0.444c0.262,0.105,0.549,0.157,0.862,0.157
	c0.317,0,0.618-0.043,0.904-0.131c0.286-0.087,0.558-0.239,0.812-0.457l-0.452-0.649c-0.174,0.139-0.366,0.247-0.577,0.325
	c-0.21,0.076-0.42,0.115-0.63,0.115c-0.147,0-0.29-0.02-0.427-0.061s-0.26-0.104-0.37-0.19c-0.11-0.085-0.205-0.195-0.283-0.329
	c-0.078-0.133-0.132-0.295-0.161-0.483h3.085c0.006-0.052,0.01-0.108,0.013-0.166s0.005-0.116,0.005-0.174
	c0-0.325-0.049-0.623-0.146-0.891C31.256,40.057,31.122,39.826,30.949,39.633 M28.402,40.864c0.022-0.151,0.063-0.29,0.122-0.416
	s0.133-0.235,0.225-0.327c0.091-0.091,0.2-0.162,0.327-0.211c0.126-0.049,0.271-0.074,0.434-0.074c0.289,0,0.526,0.09,0.71,0.27
	c0.183,0.18,0.299,0.433,0.349,0.758H28.402z"/>
<path fill="#FFFFFF" d="M43.047,39.64c-0.145-0.186-0.325-0.335-0.54-0.447c-0.215-0.111-0.472-0.168-0.771-0.168
	c-0.293,0-0.566,0.055-0.818,0.164c-0.253,0.109-0.474,0.261-0.663,0.455c-0.188,0.195-0.337,0.426-0.444,0.695
	c-0.107,0.269-0.161,0.562-0.161,0.883c0,0.319,0.054,0.613,0.161,0.882s0.256,0.5,0.444,0.695c0.189,0.195,0.41,0.346,0.663,0.455
	c0.252,0.109,0.525,0.164,0.818,0.164c0.3,0,0.557-0.056,0.771-0.166c0.215-0.11,0.396-0.258,0.54-0.444v0.501h0.911v-4.175h-0.911
	V39.64z M43.013,41.752c-0.062,0.163-0.147,0.304-0.258,0.423c-0.11,0.119-0.242,0.213-0.396,0.281
	c-0.153,0.068-0.324,0.102-0.514,0.102c-0.197,0-0.374-0.035-0.529-0.106c-0.155-0.072-0.287-0.168-0.395-0.288
	s-0.19-0.262-0.248-0.425c-0.059-0.163-0.088-0.336-0.088-0.518c0-0.183,0.029-0.356,0.088-0.519
	c0.058-0.162,0.141-0.304,0.248-0.425c0.107-0.12,0.239-0.216,0.395-0.287c0.155-0.071,0.332-0.107,0.529-0.107
	c0.189,0,0.36,0.034,0.514,0.102c0.154,0.069,0.286,0.163,0.396,0.281c0.11,0.119,0.196,0.26,0.258,0.423
	c0.061,0.163,0.091,0.34,0.091,0.532C43.104,41.413,43.074,41.59,43.013,41.752"/>
<path fill="#FFFFFF" d="M26.328,42.476c-0.147,0.055-0.292,0.083-0.434,0.083c-0.094,0-0.18-0.015-0.26-0.044
	c-0.08-0.029-0.149-0.075-0.209-0.137c-0.06-0.063-0.106-0.143-0.142-0.242s-0.053-0.218-0.053-0.357v-1.817h1.463v-0.828h-1.463
	V37.87h-0.915v1.264h-0.832v0.828h0.832v1.834c0,0.555,0.132,0.964,0.395,1.227c0.263,0.263,0.631,0.394,1.104,0.394
	c0.265,0,0.502-0.041,0.713-0.122c0.139-0.054,0.269-0.115,0.389-0.183l-0.311-0.762C26.516,42.396,26.425,42.439,26.328,42.476"/>
<path fill="#FFFFFF" d="M34.549,39.025c-0.256,0-0.487,0.046-0.693,0.14c-0.206,0.092-0.379,0.316-0.519,0.517v-0.548h-0.826v4.174
	h0.835v-2.296c0-0.177,0.024-0.336,0.074-0.475s0.117-0.257,0.205-0.353c0.087-0.096,0.191-0.168,0.313-0.218
	c0.122-0.049,0.257-0.074,0.4-0.074c0.111,0,0.229,0.013,0.356,0.039c0.066,0.014,0.127,0.03,0.185,0.05l0.269-0.872
	c-0.072-0.023-0.146-0.042-0.223-0.056C34.814,39.035,34.688,39.025,34.549,39.025"/>
<path fill="#FFFFFF" d="M47.208,39.025c-0.256,0-0.487,0.046-0.693,0.14c-0.206,0.092-0.379,0.316-0.519,0.517v-0.548H45.17v4.174
	h0.835v-2.296c0-0.177,0.024-0.336,0.074-0.475s0.117-0.257,0.205-0.353c0.087-0.096,0.191-0.168,0.313-0.218
	c0.122-0.049,0.256-0.074,0.4-0.074c0.11,0,0.229,0.013,0.357,0.039c0.065,0.014,0.126,0.03,0.184,0.05l0.269-0.872
	c-0.072-0.023-0.146-0.042-0.223-0.056C47.473,39.035,47.347,39.025,47.208,39.025"/>
<path fill="#FFFFFF" d="M51.461,37.438v2.202c-0.146-0.186-0.325-0.335-0.54-0.447c-0.215-0.111-0.473-0.168-0.771-0.168
	c-0.293,0-0.566,0.055-0.819,0.164c-0.252,0.109-0.474,0.261-0.662,0.455c-0.188,0.195-0.337,0.426-0.444,0.695
	c-0.107,0.269-0.161,0.562-0.161,0.883c0,0.319,0.054,0.613,0.161,0.882s0.256,0.5,0.444,0.695c0.188,0.195,0.41,0.346,0.662,0.455
	c0.253,0.109,0.526,0.164,0.819,0.164c0.299,0,0.557-0.056,0.771-0.166c0.215-0.11,0.395-0.258,0.54-0.444v0.501h0.911v-5.871
	H51.461z M51.426,41.752c-0.061,0.163-0.146,0.304-0.257,0.423c-0.11,0.119-0.242,0.213-0.396,0.281s-0.325,0.102-0.514,0.102
	c-0.198,0-0.374-0.035-0.529-0.106c-0.156-0.072-0.287-0.168-0.395-0.288s-0.19-0.262-0.248-0.425S49,41.404,49,41.222
	c0-0.183,0.03-0.356,0.088-0.519c0.058-0.162,0.141-0.304,0.248-0.425c0.107-0.12,0.238-0.216,0.395-0.287
	c0.155-0.071,0.331-0.107,0.529-0.107c0.188,0,0.359,0.034,0.514,0.102c0.154,0.069,0.286,0.163,0.396,0.281
	c0.11,0.119,0.196,0.26,0.257,0.423c0.062,0.163,0.092,0.34,0.092,0.532C51.518,41.413,51.489,41.59,51.426,41.752"/>
<path fill="#FFFFFF" d="M36.728,40.256c0.116-0.118,0.255-0.209,0.414-0.274c0.16-0.066,0.333-0.099,0.519-0.099
	c0.205,0,0.395,0.033,0.57,0.099c0.17,0.063,0.317,0.151,0.442,0.263l0.438-0.729c-0.165-0.132-0.35-0.239-0.556-0.323
	c-0.274-0.112-0.573-0.168-0.896-0.168s-0.621,0.056-0.896,0.168c-0.274,0.112-0.511,0.266-0.71,0.462
	c-0.199,0.196-0.355,0.428-0.469,0.695s-0.171,0.557-0.171,0.871s0.058,0.604,0.171,0.871c0.113,0.268,0.27,0.499,0.469,0.696
	c0.199,0.196,0.436,0.35,0.71,0.461c0.274,0.112,0.573,0.168,0.896,0.168s0.621-0.056,0.896-0.168
	c0.206-0.083,0.391-0.191,0.556-0.323l-0.438-0.729c-0.125,0.112-0.272,0.201-0.442,0.264c-0.176,0.065-0.365,0.098-0.57,0.098
	c-0.186,0-0.358-0.033-0.519-0.098c-0.159-0.065-0.298-0.157-0.414-0.275s-0.207-0.258-0.274-0.422
	c-0.066-0.164-0.1-0.345-0.1-0.543c0-0.197,0.033-0.378,0.1-0.542C36.521,40.515,36.612,40.374,36.728,40.256"/>
<path fill="#FFFFFF" d="M54.291,42.697c0.061,0,0.118,0.012,0.171,0.034s0.1,0.053,0.139,0.091c0.039,0.039,0.07,0.084,0.094,0.135
	c0.022,0.052,0.034,0.107,0.034,0.166c0,0.058-0.012,0.113-0.034,0.165c-0.023,0.051-0.055,0.097-0.094,0.135
	c-0.039,0.04-0.086,0.07-0.139,0.093c-0.053,0.022-0.11,0.033-0.171,0.033c-0.062,0-0.118-0.011-0.173-0.033
	c-0.054-0.023-0.101-0.053-0.141-0.093c-0.039-0.038-0.07-0.084-0.093-0.135c-0.022-0.052-0.033-0.107-0.033-0.165
	c0-0.059,0.011-0.114,0.033-0.166c0.022-0.051,0.054-0.096,0.093-0.135c0.04-0.038,0.087-0.069,0.141-0.091
	C54.172,42.708,54.229,42.697,54.291,42.697 M54.291,43.431c0.043,0,0.082-0.009,0.119-0.025c0.038-0.016,0.07-0.038,0.098-0.065
	c0.027-0.028,0.049-0.061,0.064-0.098c0.017-0.037,0.024-0.077,0.024-0.12s-0.008-0.082-0.024-0.12
	c-0.016-0.038-0.037-0.07-0.064-0.098c-0.027-0.027-0.06-0.049-0.098-0.065c-0.037-0.016-0.076-0.024-0.119-0.024
	s-0.084,0.008-0.122,0.024c-0.037,0.016-0.07,0.038-0.098,0.065c-0.027,0.028-0.05,0.06-0.065,0.098
	c-0.016,0.038-0.023,0.077-0.023,0.12s0.008,0.083,0.023,0.12s0.038,0.07,0.065,0.098c0.027,0.027,0.061,0.049,0.098,0.065
	C54.207,43.422,54.248,43.431,54.291,43.431 M54.315,42.934c0.052,0,0.092,0.011,0.118,0.035c0.027,0.023,0.041,0.054,0.041,0.092
	c0,0.03-0.01,0.055-0.029,0.075s-0.047,0.034-0.084,0.04l0.117,0.135h-0.127l-0.104-0.131h-0.013v0.131h-0.106v-0.377H54.315z
	 M54.234,43.025v0.069h0.079c0.017,0,0.029-0.002,0.038-0.007c0.009-0.005,0.014-0.014,0.014-0.027c0-0.012-0.005-0.021-0.014-0.026
	c-0.009-0.006-0.021-0.009-0.038-0.009H54.234z"/>
<path fill="#E20D17" d="M23.427,19.622c0-5.001,2.336-9.454,5.974-12.335c-2.683-2.124-6.07-3.396-9.758-3.396
	c-8.688,0-15.731,7.043-15.731,15.731c0,8.688,7.043,15.731,15.731,15.731c3.688,0,7.075-1.272,9.758-3.397
	C25.763,29.075,23.427,24.622,23.427,19.622"/>
<path fill="#EA610A" d="M23.427,19.622c0,5,2.336,9.453,5.974,12.334c3.638-2.881,5.974-7.334,5.974-12.334
	c0-5.001-2.336-9.454-5.974-12.335C25.763,10.168,23.427,14.621,23.427,19.622"/>
<path fill="#F59E00" d="M53.824,28.131v-0.46h-0.187v-0.127h0.51v0.127h-0.186v0.46H53.824z M54.809,28.131v-0.407l-0.132,0.351
	h-0.146l-0.132-0.35v0.406h-0.138v-0.587h0.197l0.146,0.376l0.145-0.376h0.197v0.587H54.809z"/>
<path fill="#F59E00" d="M39.159,3.891c-3.688,0-7.076,1.272-9.758,3.396c3.638,2.882,5.974,7.334,5.974,12.335
	c0,5.001-2.336,9.454-5.974,12.335c2.682,2.125,6.07,3.397,9.758,3.397c8.688,0,15.731-7.044,15.731-15.732
	C54.89,10.934,47.847,3.891,39.159,3.891"/>
<g>
</g>
<g>
</g>
<g>
</g>
<g>
</g>
<g>
</g>
<g>
</g>
</svg>
