<svg id="Layer_1" data-name="Layer 1" xmlns="http://www.w3.org/2000/svg" viewBox="0 0 19.73 17.43"><title>Artboard 1</title><g id="_Group_" data-name="&lt;Group&gt;"><path id="_Path_" data-name="&lt;Path&gt;" d="M18.75.55a5.82,5.82,0,0,0-1.8-.3,5.33,5.33,0,0,0-3.47,1.3,11.67,11.67,0,0,0-7.22,0A5.33,5.33,0,0,0,2.78.25,5.82,5.82,0,0,0,1,.55L.34.75l.27.61a14,14,0,0,1,.52,1.42c.08.26.14.49.21.72A5.13,5.13,0,0,0,2.46,5.84a12.3,12.3,0,0,0-.53,3.58,14.12,14.12,0,0,0,1,5.66A4.67,4.67,0,0,0,4,16.74l.34.28.37-.23.59-.38.46.35.45.34.37-.42a5.18,5.18,0,0,0,.73-1.1,12,12,0,0,0,5.11,0,5.17,5.17,0,0,0,.73,1.1l.37.42.45-.34.46-.35.59.38.37.23.34-.28a4.67,4.67,0,0,0,1.1-1.66,14.12,14.12,0,0,0,1-5.66,12.29,12.29,0,0,0-.53-3.58,5.13,5.13,0,0,0,1.11-2.33c.06-.23.13-.47.21-.72a13.85,13.85,0,0,1,.52-1.42l.27-.61Z" fill="#1eea00" stroke="#1eea00" stroke-miterlimit="10" stroke-width="0.5"/><path id="_Path_2" data-name="&lt;Path&gt;" d="M5.32,16l-1,.61-.17-.14c-.08-.07-2-1.71-2-7.09A12,12,0,0,1,2.8,5.76,4.72,4.72,0,0,1,1.64,3.43C1.57,3.2,1.51,3,1.43,2.7A14.12,14.12,0,0,0,.89,1.24L.75.94l.32-.1A5.52,5.52,0,0,1,2.78.55a5,5,0,0,1,3.4,1.34,11,11,0,0,1,3.68-.61,11,11,0,0,1,3.68.61A5,5,0,0,1,16.94.55a5.52,5.52,0,0,1,1.71.28l.32.1-.14.31A14.08,14.08,0,0,0,18.3,2.7c-.08.26-.15.5-.21.73a4.72,4.72,0,0,1-1.16,2.34,12,12,0,0,1,.57,3.65c0,5.39-1.89,7-2,7.09l-.17.14-1-.61-.85.64-.18-.21a4.65,4.65,0,0,1-.77-1.25,11.71,11.71,0,0,1-5.47,0,4.65,4.65,0,0,1-.77,1.25l-.18.21Z" fill="#004b40"/><path id="_Path_3" data-name="&lt;Path&gt;" d="M17.72,2.52c-.08.27-.15.52-.21.75a4.48,4.48,0,0,1-.8,1.84,9.94,9.94,0,0,0-1.06-2.05A3.13,3.13,0,0,1,17,2l-.26-.54A3.18,3.18,0,0,0,15,3L15,3.14l.1.13A10.79,10.79,0,0,1,16.9,9.42c0,4.19-1.19,6-1.61,6.47l-.91-.58-.73.56a2.91,2.91,0,0,1-.48-.79c.25-.07.51-.15.76-.25l-.21-.56a11.14,11.14,0,0,1-7.68,0l-.21.56c.25.09.5.17.76.25a2.91,2.91,0,0,1-.48.79l-.73-.56-.92.58C4,15.4,2.83,13.64,2.83,9.42A10.79,10.79,0,0,1,4.67,3.27l.1-.13L4.72,3A3.18,3.18,0,0,0,3,1.45L2.73,2A3.13,3.13,0,0,1,4.08,3.06,10,10,0,0,0,3,5.11a4.48,4.48,0,0,1-.8-1.84C2.15,3,2.09,2.79,2,2.52c-.15-.5-.32-.93-.43-1.21A4.38,4.38,0,0,1,5.88,2.44L6,2.59l.19-.07a10.41,10.41,0,0,1,3.65-.64,10.41,10.41,0,0,1,3.65.64l.19.07.14-.15a4.38,4.38,0,0,1,4.31-1.13C18,1.59,17.88,2,17.72,2.52Z" fill="#1eea00"/><circle id="_Path_4" data-name="&lt;Path&gt;" cx="6.25" cy="5.22" r="0.66" fill="#004b40"/><circle id="_Path_5" data-name="&lt;Path&gt;" cx="13.48" cy="5.22" r="0.66" fill="#004b40"/><path id="_Path_6" data-name="&lt;Path&gt;" d="M9.86,9.12a3.35,3.35,0,0,0,2.45-1.88c.51-1.13-.59-1.48-1-1.56a11,11,0,0,0-1.43-.1,11,11,0,0,0-1.43.1c-.44.08-1.53.43-1,1.56A3.35,3.35,0,0,0,9.86,9.12Z" fill="#afff6a"/><path id="_Path_7" data-name="&lt;Path&gt;" d="M11.34,5.39a11.18,11.18,0,0,0-1.48-.11,11.17,11.17,0,0,0-1.48.11,1.82,1.82,0,0,0-1.28.79,1.31,1.31,0,0,0,0,1.19A3.61,3.61,0,0,0,9.86,9.42a3.61,3.61,0,0,0,2.73-2.06,1.31,1.31,0,0,0,0-1.19A1.82,1.82,0,0,0,11.34,5.39Z" fill="#004b40"/><path id="_Path_8" data-name="&lt;Path&gt;" d="M12,7.12a3.09,3.09,0,0,1-2.18,1.7,3.09,3.09,0,0,1-2.18-1.7.75.75,0,0,1,0-.66A1.24,1.24,0,0,1,8.49,6a10.76,10.76,0,0,1,1.37-.1,10.77,10.77,0,0,1,1.38.1,1.24,1.24,0,0,1,.85.48A.75.75,0,0,1,12,7.12Z" fill="#1eea00"/><path id="_Path_9" data-name="&lt;Path&gt;" d="M9.54,6.7V7a.46.46,0,0,1-.92,0V6.7a.46.46,0,1,1,.92,0Z" fill="#004b40"/><path id="_Path_10" data-name="&lt;Path&gt;" d="M11.1,6.7V7a.46.46,0,0,1-.92,0V6.7a.46.46,0,0,1,.92,0Z" fill="#004b40"/></g></svg>