<?xml version="1.0" encoding="utf-8"?>
<!-- Generator: Adobe Illustrator 16.0.0, SVG Export Plug-In . SVG Version: 6.00 Build 0)  -->
<!DOCTYPE svg PUBLIC "-//W3C//DTD SVG 1.1//EN" "http://www.w3.org/Graphics/SVG/1.1/DTD/svg11.dtd">
<svg version="1.1" id="Capa_1" xmlns="http://www.w3.org/2000/svg" xmlns:xlink="http://www.w3.org/1999/xlink" x="0px" y="0px"
	 width="84.5px" height="99.5px" viewBox="0 0 84.5 99.5" enable-background="new 0 0 84.5 99.5" xml:space="preserve">
<g>
	<polygon fill="#7DF57D" points="34.38,51.442 21.788,38.845 19.983,39.247 19.983,73.646 21.663,73.274 34.38,60.552 	"/>
</g>
<g>
	<polygon fill="#D3D3D3" points="27.478,71.98 34.38,70.446 34.38,65.079 	"/>
</g>
<g>
	<polygon fill="#7DF57D" points="34.38,36.049 25.491,38.021 34.38,46.915 	"/>
</g>
<g>
	<polygon fill="#7DF57D" points="59.542,35.392 47.982,39.247 47.982,46.95 	"/>
</g>
<g>
	<polygon fill="#D3D3D3" points="47.983,51.477 47.983,72.844 62.38,67.247 62.38,37.079 	"/>
</g>
<g>
	<polygon fill="#6BCE6B" points="41.202,53.735 47.983,46.95 47.983,39.247 34.381,36.049 34.381,46.915 	"/>
</g>
<g>
	<polygon fill="#6BCE6B" points="34.38,51.442 34.38,60.552 38.94,55.997 	"/>
</g>
<g>
	<polygon fill="#AAAAAA" points="34.38,65.079 34.38,70.446 47.983,72.844 47.983,51.478 	"/>
</g>
<g>
	<polygon fill="#004B40" points="34.38,46.915 25.491,38.021 21.788,38.844 34.38,51.442 	"/>
</g>
<g>
	<polygon fill="#004B40" points="34.38,60.551 21.663,73.274 27.479,71.981 34.38,65.079 	"/>
</g>
<g>
	<polygon fill="#004B40" points="47.983,51.477 62.38,37.079 62.38,34.446 59.542,35.391 47.983,46.95 	"/>
</g>
<g>
	<polygon fill="#003A2F" points="41.202,53.735 34.381,46.915 34.381,51.442 38.94,55.997 34.381,60.552 34.381,65.079 
		47.983,51.478 47.983,46.95 	"/>
</g>
<g>
	<path fill="#FBB040" d="M47.148,22.954c-1.407-0.798-3.03-1.255-4.759-1.255c-3.885,0-7.241,2.3-8.784,5.607
		c-0.58,1.241-0.905,2.624-0.905,4.082c0,4.042,2.488,7.511,6.012,8.962l1.097,6.81l1.238,7.694
		c0.107,0.658,0.675,1.143,1.342,1.143s1.235-0.484,1.341-1.143l2.335-14.504c2.306-0.949,4.167-2.762,5.18-5.033
		c0.535-1.201,0.833-2.53,0.833-3.929C52.078,27.774,50.088,24.62,47.148,22.954"/>
</g>
<g>
	<path fill="#004B40" d="M42.389,56.497c-0.917,0-1.689-0.657-1.836-1.562l-2.291-14.232c-3.692-1.639-6.062-5.264-6.062-9.313
		c0-1.498,0.32-2.942,0.952-4.294c1.671-3.581,5.297-5.896,9.237-5.896c1.752,0,3.483,0.457,5.005,1.32
		c3.197,1.812,5.184,5.21,5.184,8.87c0,1.437-0.295,2.827-0.876,4.132c-1.036,2.323-2.872,4.153-5.187,5.181l-2.291,14.232
		C44.078,55.84,43.306,56.497,42.389,56.497z M42.389,22.199c-3.554,0-6.824,2.088-8.331,5.319
		c-0.569,1.218-0.858,2.521-0.858,3.871c0,3.737,2.238,7.073,5.702,8.5l0.259,0.106l2.379,14.78
		c0.068,0.418,0.425,0.722,0.849,0.722c0.423,0,0.78-0.304,0.847-0.722l2.379-14.78l0.259-0.106
		c2.199-0.905,3.944-2.601,4.914-4.774c0.524-1.176,0.79-2.429,0.79-3.725c0-3.3-1.792-6.365-4.677-8
		C45.529,22.611,43.969,22.199,42.389,22.199z"/>
</g>
<g>
	<g>
		<defs>
			<rect id="SVGID_1_" x="38.496" y="27.495" width="10.504" height="10.505"/>
		</defs>
		<clipPath id="SVGID_2_">
			<use xlink:href="#SVGID_1_"  overflow="visible"/>
		</clipPath>
		<g clip-path="url(#SVGID_2_)">
			<path fill="#ECEDE1" d="M47.895,29.527c-0.961-1.235-2.461-2.031-4.146-2.031c-0.86,0-1.669,0.207-2.384,0.573
				c-1.702,0.867-2.869,2.637-2.869,4.679c0,0.766,0.166,1.493,0.461,2.149C39.778,36.726,41.614,38,43.749,38h0.005
				C46.652,37.996,49,35.646,49,32.748C49,31.534,48.587,30.417,47.895,29.527"/>
		</g>
	</g>
</g>
<g>
	<path fill="#F8EACD" d="M46.536,28.168c-0.961-1.236-2.46-2.032-4.146-2.032c-0.859,0-1.668,0.208-2.384,0.573
		c-1.702,0.869-2.868,2.638-2.868,4.68c0,0.767,0.165,1.493,0.46,2.15c0.822,1.828,2.657,3.102,4.792,3.102h0.005
		c2.898-0.004,5.246-2.354,5.246-5.252C47.641,30.174,47.228,29.058,46.536,28.168"/>
</g>
<g>
	<path fill="#004B40" d="M44.134,31.774l0.006,0.019c0.008,0.46-0.141,0.832-0.449,1.116c-0.308,0.283-0.723,0.426-1.247,0.426
		c-0.532,0-0.963-0.18-1.293-0.539s-0.496-0.817-0.496-1.377V30.55c0-0.558,0.163-1.017,0.49-1.377
		c0.327-0.361,0.752-0.542,1.278-0.542c0.538,0,0.961,0.137,1.271,0.411c0.309,0.274,0.458,0.65,0.45,1.127l-0.006,0.02h-0.738
		c0-0.306-0.083-0.54-0.248-0.702c-0.165-0.162-0.408-0.243-0.729-0.243c-0.31,0-0.555,0.123-0.736,0.369
		c-0.181,0.246-0.271,0.556-0.271,0.931v0.876c0,0.379,0.092,0.691,0.276,0.938s0.436,0.369,0.753,0.369
		c0.312,0,0.549-0.082,0.711-0.245s0.243-0.398,0.243-0.706H44.134z"/>
</g>
<g>
</g>
<g>
</g>
<g>
</g>
<g>
</g>
<g>
</g>
<g>
</g>
</svg>
