<?xml version="1.0" encoding="utf-8"?>
<!-- Generator: Adobe Illustrator 16.0.0, SVG Export Plug-In . SVG Version: 6.00 Build 0)  -->
<!DOCTYPE svg PUBLIC "-//W3C//DTD SVG 1.1//EN" "http://www.w3.org/Graphics/SVG/1.1/DTD/svg11.dtd">
<svg version="1.1" id="Capa_1" xmlns="http://www.w3.org/2000/svg" xmlns:xlink="http://www.w3.org/1999/xlink" x="0px" y="0px"
	 width="84.5px" height="99.5px" viewBox="0 0 84.5 99.5" enable-background="new 0 0 84.5 99.5" xml:space="preserve">
<rect x="12.764" y="34.752" fill="#1EEA00" width="51.73" height="25.219"/>
<path fill="#004B40" d="M15.313,57.5h46.634V37.225H15.313V57.5z M55.492,54.965H42.409c2.075-1.521,3.453-4.325,3.453-7.458
	c0-3.333-1.557-6.228-3.856-7.748h13.486c0,2.027,1.892,4.597,3.919,4.597v7.436C57.384,51.791,55.492,52.938,55.492,54.965
	 M17.847,44.355c2.027,0,3.853-2.569,3.853-4.597h13.006c-2.298,1.521-3.855,4.415-3.855,7.748c0,3.133,1.378,5.938,3.453,7.458
	H21.7c0-2.027-1.826-3.174-3.853-3.174V44.355z"/>
<path fill="#FFFFFF" d="M41.051,45.014c-0.073-0.081-0.182-0.17-0.325-0.264s-0.308-0.184-0.496-0.27
	c-0.189-0.086-0.395-0.16-0.619-0.221c-0.225-0.062-0.457-0.101-0.694-0.116v2.538l0.234,0.049c0.441,0.105,0.839,0.225,1.195,0.355
	s0.656,0.29,0.901,0.479c0.245,0.188,0.436,0.419,0.571,0.693c0.134,0.272,0.202,0.605,0.202,0.999c0,0.433-0.078,0.803-0.233,1.108
	c-0.155,0.308-0.37,0.563-0.644,0.768c-0.274,0.203-0.593,0.356-0.956,0.46c-0.365,0.102-0.754,0.156-1.171,0.165v1.287h-0.638
	v-1.312c-0.589-0.041-1.148-0.158-1.68-0.35c-0.532-0.192-1.017-0.459-1.459-0.804l0.625-1.177c0.09,0.098,0.221,0.205,0.393,0.319
	c0.172,0.114,0.371,0.225,0.601,0.331c0.228,0.105,0.48,0.199,0.753,0.281c0.274,0.082,0.558,0.14,0.853,0.173v-2.539
	c-0.049-0.017-0.101-0.03-0.153-0.043c-0.053-0.013-0.105-0.026-0.154-0.043c-0.433-0.114-0.811-0.234-1.134-0.361
	c-0.323-0.127-0.59-0.28-0.803-0.46s-0.374-0.391-0.484-0.632c-0.111-0.24-0.166-0.533-0.166-0.876c0-0.401,0.07-0.756,0.208-1.067
	c0.14-0.311,0.335-0.578,0.589-0.803c0.253-0.226,0.549-0.401,0.889-0.528c0.339-0.126,0.713-0.206,1.122-0.238v-1.238h0.638v1.238
	c0.531,0.032,1.021,0.14,1.471,0.319c0.45,0.179,0.846,0.396,1.19,0.649L41.051,45.014z M37.005,45.332
	c0,0.344,0.12,0.602,0.361,0.773c0.242,0.171,0.608,0.322,1.098,0.453v-2.415c-0.499,0.023-0.867,0.141-1.104,0.349
	C37.123,44.7,37.005,44.981,37.005,45.332 M40.548,49.403c0-0.359-0.143-0.631-0.429-0.815s-0.686-0.35-1.202-0.496v2.428
	c0.524-0.008,0.927-0.106,1.208-0.295C40.407,50.037,40.548,49.764,40.548,49.403"/>
<path fill="#FFFFFF" d="M50.841,47.362c0,1.094,0.887,1.979,1.98,1.979c1.094,0,1.981-0.886,1.981-1.979
	c0-1.095-0.887-1.98-1.981-1.98C51.728,45.382,50.841,46.268,50.841,47.362"/>
<path fill="#FFFFFF" d="M26.417,47.362c0,1.094-0.887,1.979-1.98,1.979c-1.093,0-1.98-0.886-1.98-1.979
	c0-1.095,0.887-1.98,1.98-1.98C25.53,45.382,26.417,46.268,26.417,47.362"/>
<rect x="20.503" y="41.166" fill="#1EEA00" width="51.73" height="25.219"/>
<path fill="#004B40" d="M23.052,63.913h46.633V43.638H23.052V63.913z M63.231,61.378H50.148c2.074-1.521,3.452-4.325,3.452-7.458
	c0-3.333-1.557-6.228-3.856-7.748h13.487c0,2.027,1.892,4.597,3.919,4.597v7.436C65.124,58.204,63.231,59.351,63.231,61.378
	 M25.586,50.769c2.027,0,3.852-2.569,3.852-4.597h13.006c-2.297,1.521-3.854,4.415-3.854,7.748c0,3.133,1.377,5.938,3.452,7.458
	H29.438c0-2.027-1.825-3.174-3.852-3.174V50.769z"/>
<path fill="#FFFFFF" d="M48.791,51.427c-0.073-0.081-0.182-0.17-0.325-0.264s-0.309-0.184-0.496-0.27
	c-0.189-0.086-0.395-0.16-0.619-0.221c-0.226-0.062-0.457-0.101-0.694-0.116v2.538l0.234,0.049c0.441,0.105,0.839,0.225,1.195,0.355
	c0.355,0.131,0.655,0.29,0.901,0.479c0.245,0.188,0.435,0.419,0.571,0.693c0.134,0.272,0.202,0.605,0.202,0.999
	c0,0.433-0.078,0.803-0.234,1.108c-0.155,0.308-0.37,0.563-0.643,0.768c-0.274,0.203-0.593,0.356-0.956,0.46
	c-0.365,0.102-0.754,0.156-1.171,0.165v1.287h-0.639v-1.312c-0.588-0.041-1.148-0.158-1.679-0.35
	c-0.532-0.192-1.018-0.459-1.46-0.804l0.625-1.177c0.091,0.098,0.222,0.205,0.393,0.319c0.172,0.114,0.372,0.225,0.602,0.331
	c0.228,0.105,0.479,0.199,0.753,0.281s0.558,0.14,0.853,0.173v-2.539c-0.05-0.017-0.101-0.03-0.154-0.043
	c-0.053-0.013-0.104-0.026-0.153-0.043c-0.433-0.114-0.811-0.234-1.134-0.361c-0.323-0.127-0.591-0.28-0.803-0.46
	c-0.213-0.18-0.374-0.391-0.484-0.632c-0.111-0.24-0.167-0.533-0.167-0.876c0-0.401,0.07-0.756,0.209-1.067
	c0.139-0.311,0.335-0.578,0.588-0.803c0.254-0.226,0.55-0.401,0.89-0.528c0.339-0.126,0.713-0.206,1.121-0.238v-1.238h0.639v1.238
	c0.531,0.032,1.021,0.14,1.47,0.319c0.45,0.179,0.847,0.396,1.19,0.649L48.791,51.427z M44.744,51.745
	c0,0.344,0.121,0.602,0.362,0.773c0.242,0.171,0.607,0.322,1.098,0.453v-2.415c-0.499,0.023-0.867,0.141-1.104,0.349
	C44.861,51.113,44.744,51.395,44.744,51.745 M48.288,55.816c0-0.359-0.143-0.631-0.429-0.814c-0.286-0.186-0.686-0.351-1.202-0.497
	v2.428c0.524-0.009,0.926-0.106,1.208-0.295C48.146,56.45,48.288,56.177,48.288,55.816"/>
<path fill="#FFFFFF" d="M58.581,53.775c0,1.094,0.887,1.979,1.98,1.979c1.094,0,1.981-0.886,1.981-1.979
	c0-1.095-0.887-1.98-1.981-1.98C59.467,51.795,58.581,52.681,58.581,53.775"/>
<path fill="#FFFFFF" d="M34.157,53.775c0,1.094-0.887,1.979-1.98,1.979c-1.094,0-1.981-0.886-1.981-1.979
	c0-1.095,0.887-1.98,1.981-1.98C33.27,51.795,34.157,52.681,34.157,53.775"/>
<g>
</g>
<g>
</g>
<g>
</g>
<g>
</g>
<g>
</g>
<g>
</g>
</svg>
