<?xml version="1.0" encoding="utf-8"?>
<!-- Generator: Adobe Illustrator 16.0.0, SVG Export Plug-In . SVG Version: 6.00 Build 0)  -->
<!DOCTYPE svg PUBLIC "-//W3C//DTD SVG 1.1//EN" "http://www.w3.org/Graphics/SVG/1.1/DTD/svg11.dtd">
<svg version="1.1" id="Capa_1" xmlns="http://www.w3.org/2000/svg" xmlns:xlink="http://www.w3.org/1999/xlink" x="0px" y="0px"
	 width="84.5px" height="99.5px" viewBox="0 0 84.5 99.5" enable-background="new 0 0 84.5 99.5" xml:space="preserve">
<path fill="#003A2F" d="M42.236,29.075H18.199c-1.637,0-2.963,1.636-2.963,3.272v33.554c0,1.636,1.326,3.174,2.963,3.174h24.037
	V29.075z"/>
<path fill="#004B40" d="M42.236,69.075h24.48c1.637,0,2.52-1.52,2.52-3.156V32.366c0-1.637-0.883-3.291-2.52-3.291h-24.48V69.075z"
	/>
<path fill="#FFCD00" d="M46,49c0,2.769-1.303,5.235-3.324,6.827c1.522,1.196,3.409,1.86,5.368,1.86c4.79,0,8.686-3.897,8.686-8.688
	s-3.896-8.687-8.686-8.687c-1.959,0-3.846,0.665-5.365,1.857C44.697,43.766,46,46.232,46,49"/>
<path fill="#FF5023" d="M46,49c0-2.768-1.303-5.234-3.324-6.826c-1.479-1.164-3.34-1.86-5.363-1.86c-4.79,0-8.686,3.896-8.686,8.687
	s3.896,8.688,8.686,8.688c2.023,0,3.884-0.697,5.363-1.86C44.697,54.235,46,51.769,46,49"/>
<g>
</g>
<g>
</g>
<g>
</g>
<g>
</g>
<g>
</g>
<g>
</g>
</svg>
