<?xml version="1.0" encoding="utf-8"?>
<!-- Generator: Adobe Illustrator 16.0.0, SVG Export Plug-In . SVG Version: 6.00 Build 0)  -->
<!DOCTYPE svg PUBLIC "-//W3C//DTD SVG 1.1//EN" "http://www.w3.org/Graphics/SVG/1.1/DTD/svg11.dtd">
<svg version="1.1" id="Capa_1" xmlns="http://www.w3.org/2000/svg" xmlns:xlink="http://www.w3.org/1999/xlink" x="0px" y="0px"
	 width="84.5px" height="99.5px" viewBox="0 0 84.5 99.5" enable-background="new 0 0 84.5 99.5" xml:space="preserve">
<path fill="#FFD05B" d="M64.476,64.612H20.802c-1.835,0-3.354-1.519-3.354-3.354V33.345c0-1.835,1.519-3.354,3.354-3.354h43.737
	c1.836,0,3.355,1.519,3.355,3.354v27.914C67.83,63.157,66.312,64.612,64.476,64.612"/>
<rect x="17.447" y="35.624" fill="#324A5E" width="50.383" height="7.659"/>
<rect x="22.954" y="48.283" fill="#324A5E" width="14.368" height="2.722"/>
<rect x="53.083" y="50.498" fill="#FFD05B" width="10.57" height="10.57"/>
<polygon fill="#F9B54C" points="58.779,51.574 58.779,54.549 56.185,54.549 56.185,50.498 55.55,50.498 55.55,55.941 53.083,55.941 
	53.083,56.574 56.185,56.574 56.185,55.183 59.413,55.183 59.413,52.207 63.653,52.207 63.653,51.574 "/>
<polygon fill="#F9B54C" points="60.299,57.523 57.767,57.523 57.767,56.258 57.134,56.258 57.134,58.663 53.083,58.663 
	53.083,59.296 57.767,59.296 57.767,58.157 59.982,58.157 59.982,61.005 60.615,61.005 60.615,58.157 63.653,58.157 63.653,57.523 
	60.615,57.523 "/>
<polygon fill="#324A5E" points="64.35,45.498 64.35,49.169 67.008,47.333 "/>
<rect x="20.802" y="59.169" fill="#FFFFFF" width="4.178" height="2.026"/>
<rect x="20.802" y="54.232" fill="#FFFFFF" width="11.837" height="2.151"/>
<rect x="28.461" y="59.169" fill="#FFFFFF" width="4.178" height="2.026"/>
<rect x="36.119" y="59.803" fill="#84DBFF" width="4.178" height="1.267"/>
<rect x="43.778" y="59.803" fill="#84DBFF" width="4.178" height="1.267"/>
<path fill="#4CDBC4" d="M45.867,74.994L14.979,44.105c-1.33-1.329-1.33-3.418,0-4.684l19.748-19.748
	c1.329-1.329,3.418-1.329,4.684,0l30.888,30.888c1.329,1.329,1.329,3.418,0,4.684L50.551,74.994
	C49.285,76.322,47.196,76.322,45.867,74.994"/>
<rect x="23.031" y="37.895" transform="matrix(-0.7071 -0.7071 0.7071 -0.7071 52.8167 105.3262)" fill="#324A5E" width="50.382" height="7.659"/>
<rect x="23.135" y="38.018" transform="matrix(-0.7071 -0.7071 0.7071 -0.7071 25.6973 89.4016)" fill="#F1543F" width="16.457" height="2.722"/>
<rect x="42.535" y="59.188" transform="matrix(-0.7071 -0.7071 0.7071 -0.7071 36.0476 143.877)" fill="#FFFFFF" width="10.571" height="10.57"/>
<polygon fill="#ACB3BA" points="51.058,61.765 48.969,63.854 47.133,62.018 49.982,59.106 49.538,58.663 45.677,62.588 
	43.968,60.815 43.526,61.259 45.677,63.474 46.69,62.461 48.969,64.739 51.058,62.65 54.033,65.626 54.476,65.183 "/>
<polygon fill="#ACB3BA" points="47.893,67.082 46.121,65.247 47.007,64.359 46.564,63.917 44.855,65.626 42.006,62.777 
	41.564,63.221 44.855,66.512 45.677,65.688 47.26,67.271 45.235,69.297 45.677,69.739 47.704,67.715 49.855,69.866 50.298,69.424 
	48.146,67.271 "/>
<polygon fill="#FFFFFF" points="59.286,61.385 56.69,63.979 59.855,64.55 "/>
<rect x="17.612" y="41.358" transform="matrix(0.7071 0.7071 -0.7071 0.7071 35.731 -1.5201)" fill="#324A5E" width="4.178" height="2.026"/>
<rect x="19.76" y="40.915" transform="matrix(0.7071 0.7071 -0.7071 0.7071 37.1022 -5.9039)" fill="#324A5E" width="11.835" height="1.835"/>
<rect x="23.073" y="46.781" transform="matrix(0.7072 0.707 -0.707 0.7072 41.1611 -3.7944)" fill="#324A5E" width="4.177" height="2.026"/>
<rect x="28.484" y="52.15" transform="matrix(-0.7071 -0.7071 0.7071 -0.7071 14.5994 112.3734)" fill="#324A5E" width="4.178" height="2.026"/>
<rect x="34.925" y="56.54" transform="matrix(-0.7075 0.7067 -0.7067 -0.7075 102.7979 74.7073)" fill="#324A5E" width="2.026" height="4.178"/>
<g>
</g>
<g>
</g>
<g>
</g>
<g>
</g>
<g>
</g>
<g>
</g>
</svg>
