<svg xmlns="http://www.w3.org/2000/svg" viewBox="0 0 65.69 59.98"><defs><style>.cls-1{fill:#ffd15c;}.cls-2{fill:#ff7058;}.cls-3{fill:#f8b64c;}.cls-4{fill:#fff;}.cls-5{fill:#84dbff;}.cls-6{fill:#f2f2f2;}.cls-7{fill:#cdd6e0;}.cls-8{fill:#f1543f;}.cls-9{fill:#1eea00;}.cls-10{fill:#004b40;}</style></defs><title>icono_retipago</title><g id="Layer_2" data-name="Layer 2"><g id="Layer_1-2" data-name="Layer 1"><rect class="cls-1" x="1.71" y="9.3" width="47.87" height="36.11"/><path class="cls-2" d="M1.71,45.41v3.74a2.14,2.14,0,0,0,2.14,2.13H47.44a2.14,2.14,0,0,0,2.13-2.13V45.41Z"/><path class="cls-3" d="M47.44,0H3.85A2.14,2.14,0,0,0,1.71,2.14V7.05H49.57V2.14A2.14,2.14,0,0,0,47.44,0Z"/><rect class="cls-4" x="12.18" y="26.28" width="26.92" height="16.56"/><rect class="cls-5" x="13.79" y="27.79" width="23.72" height="13.36"/><polygon class="cls-2" points="7.37 16.45 0 16.45 1.71 7.05 8.55 7.05 7.37 16.45"/><polygon class="cls-6" points="14.64 16.45 7.37 16.45 8.55 7.05 15.38 7.05 14.64 16.45"/><polygon class="cls-2" points="22.01 16.45 14.64 16.45 15.38 7.05 22.22 7.05 22.01 16.45"/><polygon class="cls-6" points="29.27 16.45 22.01 16.45 22.22 7.05 29.06 7.05 29.27 16.45"/><polygon class="cls-2" points="36.65 16.45 29.27 16.45 29.06 7.05 35.9 7.05 36.65 16.45"/><polygon class="cls-6" points="43.91 16.45 36.65 16.45 35.9 7.05 42.74 7.05 43.91 16.45"/><polygon class="cls-2" points="51.28 16.45 43.91 16.45 42.74 7.05 49.58 7.05 51.28 16.45"/><path class="cls-3" d="M49.57,17.52v6.63a4,4,0,0,1-1.92.53A3.6,3.6,0,0,1,44,21.05a3.64,3.64,0,0,1-7.27,0,3.63,3.63,0,0,1-7.26,0,3.64,3.64,0,0,1-7.27,0,3.63,3.63,0,0,1-7.26,0,3.64,3.64,0,0,1-7.27,0,3.6,3.6,0,0,1-3.63,3.63,3.66,3.66,0,0,1-1.92-.53V17.52Z"/><path class="cls-7" d="M7.59,20a3.63,3.63,0,1,0,7.26,0V16.45H7.59Z"/><path class="cls-7" d="M22.22,20a3.64,3.64,0,0,0,7.27,0V16.45H22.12V20Z"/><path class="cls-7" d="M36.86,16.45V20a3.6,3.6,0,0,0,3.63,3.63h0A3.61,3.61,0,0,0,44.13,20V16.45Z"/><path class="cls-8" d="M0,20a3.6,3.6,0,0,0,3.63,3.63A3.61,3.61,0,0,0,7.27,20V16.45H0Z"/><path class="cls-8" d="M14.64,20a3.63,3.63,0,0,0,7.26,0V16.45H14.53V20Z"/><path class="cls-8" d="M29.27,20a3.64,3.64,0,0,0,7.27,0V16.45H29.17V20Z"/><path class="cls-8" d="M43.91,16.45V20a3.64,3.64,0,0,0,7.27,0V16.45Z"/><rect class="cls-9" x="20.12" y="35.72" width="39.6" height="19.3" transform="translate(79.98 90.61) rotate(179.81)"/><path class="cls-10" d="M22,37.67l.05,15.52,35.7-.12,0-15.52Zm30.8,13.48-10,0a7.47,7.47,0,0,0-.35-11.64l10.32,0c0,1.55,1.46,3.51,3,3.51v5.69C54.28,48.71,52.84,49.6,52.84,51.15ZM24,43.12c1.55,0,2.94-2,2.94-3.53l10,0a7.46,7.46,0,0,0-.27,11.64l-9.64,0c0-1.55-1.41-2.42-3-2.42Z"/><path class="cls-4" d="M41.76,43.57a.91.91,0,0,0-.25-.2,2.24,2.24,0,0,0-.38-.21,4.24,4.24,0,0,0-.47-.17,3.08,3.08,0,0,0-.53-.08v1.94l.18,0c.34.08.65.17.92.26a2.8,2.8,0,0,1,.69.37,1.51,1.51,0,0,1,.44.53,1.9,1.9,0,0,1,.16.76,1.84,1.84,0,0,1-.18.85,1.65,1.65,0,0,1-.49.59,2,2,0,0,1-.73.35,3.26,3.26,0,0,1-.9.13v1h-.49v-1a4.49,4.49,0,0,1-1.28-.27,3.93,3.93,0,0,1-1.12-.61l.47-.9a1.45,1.45,0,0,0,.31.24,2.79,2.79,0,0,0,.46.25,2.94,2.94,0,0,0,.57.22,4.53,4.53,0,0,0,.66.13V45.84l-.12,0-.11,0q-.51-.14-.87-.27a2.4,2.4,0,0,1-.62-.35,1.35,1.35,0,0,1-.37-.49,1.48,1.48,0,0,1-.13-.67,1.89,1.89,0,0,1,.16-.81,1.71,1.71,0,0,1,.44-.62,2.33,2.33,0,0,1,.68-.41,3.28,3.28,0,0,1,.86-.18V41h.49V42a3.45,3.45,0,0,1,1.13.24,3.94,3.94,0,0,1,.91.49Zm-3.09.25a.67.67,0,0,0,.28.59,2.61,2.61,0,0,0,.84.35V42.91a1.35,1.35,0,0,0-.84.27A.81.81,0,0,0,38.67,43.82Zm2.72,3.11a.71.71,0,0,0-.33-.63,3.56,3.56,0,0,0-.92-.37v1.86a1.82,1.82,0,0,0,.93-.23A.73.73,0,0,0,41.39,46.93Z"/><path class="cls-4" d="M49.26,45.34a1.52,1.52,0,0,0,1.52,1.51,1.52,1.52,0,1,0-1.52-1.51Z"/><path class="cls-4" d="M30.57,45.4a1.52,1.52,0,1,1-1.52-1.51A1.52,1.52,0,0,1,30.57,45.4Z"/><rect class="cls-9" x="26.06" y="40.61" width="39.6" height="19.3" transform="translate(91.87 100.37) rotate(179.81)"/><path class="cls-10" d="M28,42.56,28,58.08,63.73,58l0-15.52ZM58.78,56l-10,0a7.47,7.47,0,0,0-.35-11.64l10.32,0c0,1.55,1.46,3.51,3,3.51V53.6C60.22,53.6,58.78,54.49,58.78,56ZM29.94,48c1.55,0,2.94-2,2.94-3.53l9.95,0a7.46,7.46,0,0,0-.27,11.64l-9.65,0c0-1.55-1.4-2.42-2.95-2.42Z"/><path class="cls-4" d="M47.7,48.46a.91.91,0,0,0-.25-.2,2.24,2.24,0,0,0-.38-.21,2.87,2.87,0,0,0-.47-.17,3.08,3.08,0,0,0-.53-.08v1.94l.18,0c.34.08.65.17.92.26a2.51,2.51,0,0,1,.69.37,1.51,1.51,0,0,1,.44.53,1.9,1.9,0,0,1,.16.76,1.84,1.84,0,0,1-.18.85,1.65,1.65,0,0,1-.49.59,2.15,2.15,0,0,1-.73.35,3.26,3.26,0,0,1-.9.13v1h-.49v-1a4.49,4.49,0,0,1-1.28-.27,3.93,3.93,0,0,1-1.12-.61l.47-.9a1.45,1.45,0,0,0,.31.24,2.79,2.79,0,0,0,.46.25,2.94,2.94,0,0,0,.57.22,4.53,4.53,0,0,0,.66.13v-2l-.12,0-.11,0q-.51-.13-.87-.27A2.4,2.4,0,0,1,44,50a1.35,1.35,0,0,1-.37-.49,1.48,1.48,0,0,1-.13-.67,1.89,1.89,0,0,1,.16-.81,1.71,1.71,0,0,1,.44-.62,2.33,2.33,0,0,1,.68-.41,3.28,3.28,0,0,1,.86-.18v-1h.49v1a3.45,3.45,0,0,1,1.13.24,3.94,3.94,0,0,1,.91.49Zm-3.09.25a.67.67,0,0,0,.28.59,2.61,2.61,0,0,0,.84.35V47.8a1.35,1.35,0,0,0-.84.27A.81.81,0,0,0,44.61,48.71Zm2.72,3.11a.7.7,0,0,0-.33-.63,3.56,3.56,0,0,0-.92-.37v1.86a1.82,1.82,0,0,0,.93-.23A.73.73,0,0,0,47.33,51.82Z"/><path class="cls-4" d="M55.2,50.23a1.52,1.52,0,0,0,1.52,1.51,1.52,1.52,0,1,0-1.52-1.51Z"/><path class="cls-4" d="M36.51,50.29A1.52,1.52,0,1,1,35,48.78,1.52,1.52,0,0,1,36.51,50.29Z"/></g></g></svg>