
<svg width="480px" height="206px" viewBox="0 0 480 206" version="1.1" xmlns="http://www.w3.org/2000/svg" xmlns:xlink="http://www.w3.org/1999/xlink">
    <!-- Generator: Sketch 46.1 (44463) - http://www.bohemiancoding.com/sketch -->
    <desc>Created with Sketch.</desc>
    <defs></defs>
    <g id="Page-1" stroke="none" stroke-width="1" fill="none" fill-rule="evenodd">
        <g id="Group" fill-rule="nonzero">
            <path d="M479.999988,175.063996 C434.666656,193.325329 343.886658,205.762662 239.718661,205.762662 C135.802663,205.762662 45.3333322,193.385328 8.01105742e-15,175.195996 L8.01105742e-15,18.4319995 L0,5.68434189e-14 L479.999988,6.04128321e-14 L479.999988,175.063996 Z" id="path476-copy" fill="#F1F1F1" transform="translate(239.999994, 102.881331) scale(1, -1) translate(-239.999994, -102.881331) "></path>
            <path d="M368.769327,132.553333 C368.769327,116.232 311.289328,103 240.383997,103 C169.478665,103 112,116.232 112,132.553333 C112,148.874666 169.478665,162.106665 240.383997,162.106665 C311.289328,162.106665 368.769327,148.874666 368.769327,132.553333" id="path908-copy" fill="#E6E6E6"></path>
            <path d="M302.914664,126.341333 C302.914664,113.450666 274.951998,103 240.457332,103 C205.963999,103 178,113.450666 178,126.341333 C178,139.231999 205.963999,149.682665 240.457332,149.682665 C274.951998,149.682665 302.914664,139.231999 302.914664,126.341333" id="path912" fill="#D5D5D5"></path>
        </g>
    </g>
</svg>
