<?xml version="1.0" encoding="utf-8"?>
<!-- Generator: Adobe Illustrator 16.0.0, SVG Export Plug-In . SVG Version: 6.00 Build 0)  -->
<!DOCTYPE svg PUBLIC "-//W3C//DTD SVG 1.1//EN" "http://www.w3.org/Graphics/SVG/1.1/DTD/svg11.dtd">
<svg version="1.1" id="Capa_1" xmlns="http://www.w3.org/2000/svg" xmlns:xlink="http://www.w3.org/1999/xlink" x="0px" y="0px"
	 width="328.667px" height="254.667px" viewBox="0 0 328.667 254.667" enable-background="new 0 0 328.667 254.667"
	 xml:space="preserve">
<g>
	<path fill="#00619A" d="M323.664,231.436c0,6.455-5.227,11.686-11.688,11.686H19.935c-6.45,0-11.688-5.23-11.688-11.686V162.04
		c0-6.454,5.238-11.688,11.688-11.688h292.041c6.461,0,11.688,5.234,11.688,11.688V231.436z"/>
</g>
<g>
	<g>
		<path fill="#FFFFFF" d="M164.336,170.888c0.808-0.134,1.866-0.25,3.214-0.25c1.654,0,2.867,0.385,3.637,1.078
			c0.691,0.616,1.135,1.559,1.135,2.713c0,1.174-0.346,2.097-1,2.771c-0.904,0.943-2.328,1.424-3.965,1.424
			c-0.5,0-0.961-0.02-1.346-0.116v5.195h-1.675V170.888z M166.011,177.142c0.365,0.096,0.826,0.135,1.385,0.135
			c2.02,0,3.252-1,3.252-2.751c0-1.731-1.232-2.559-3.061-2.559c-0.73,0-1.289,0.058-1.576,0.135V177.142z"/>
	</g>
	<g>
		<path fill="#FFFFFF" d="M174.015,177.296c0-1.097-0.02-2.04-0.076-2.906h1.48l0.076,1.847h0.059c0.424-1.25,1.463-2.04,2.598-2.04
			c0.174,0,0.309,0.02,0.461,0.039v1.597c-0.172-0.039-0.346-0.039-0.576-0.039c-1.193,0-2.039,0.885-2.271,2.155
			c-0.037,0.23-0.057,0.519-0.057,0.789v4.964h-1.693V177.296z"/>
	</g>
	<g>
		<path fill="#FFFFFF" d="M188.369,178.97c0,3.444-2.406,4.945-4.637,4.945c-2.502,0-4.465-1.847-4.465-4.791
			c0-3.098,2.059-4.926,4.617-4.926C186.56,174.198,188.369,176.141,188.369,178.97z M181,179.066c0,2.04,1.154,3.579,2.809,3.579
			c1.617,0,2.828-1.52,2.828-3.618c0-1.578-0.789-3.56-2.789-3.56C181.865,175.468,181,177.315,181,179.066z"/>
	</g>
	<g>
		<path fill="#FFFFFF" d="M198.335,170.042v11.256c0,0.828,0.039,1.771,0.076,2.405h-1.5l-0.076-1.616h-0.059
			c-0.5,1.039-1.615,1.828-3.137,1.828c-2.25,0-4.002-1.905-4.002-4.733c-0.02-3.098,1.924-4.984,4.176-4.984
			c1.443,0,2.385,0.674,2.809,1.405h0.039v-5.561H198.335z M196.662,178.181c0-0.211-0.02-0.5-0.076-0.712
			c-0.252-1.058-1.174-1.943-2.445-1.943c-1.75,0-2.789,1.54-2.789,3.579c0,1.886,0.943,3.444,2.752,3.444
			c1.135,0,2.174-0.77,2.482-2.021c0.057-0.231,0.076-0.462,0.076-0.731V178.181z"/>
	</g>
	<g>
		<path fill="#FFFFFF" d="M208.763,181.144c0,0.981,0.02,1.828,0.078,2.559h-1.502l-0.096-1.52h-0.039
			c-0.422,0.75-1.424,1.731-3.078,1.731c-1.463,0-3.213-0.827-3.213-4.079v-5.445h1.693v5.138c0,1.77,0.557,2.982,2.078,2.982
			c1.135,0,1.924-0.789,2.232-1.559c0.096-0.231,0.152-0.539,0.152-0.866v-5.696h1.693V181.144z"/>
	</g>
	<g>
		<path fill="#FFFFFF" d="M218.019,183.376c-0.443,0.212-1.424,0.539-2.676,0.539c-2.809,0-4.637-1.905-4.637-4.752
			c0-2.867,1.963-4.964,5.004-4.964c1,0,1.885,0.25,2.346,0.5l-0.385,1.289c-0.404-0.211-1.039-0.442-1.961-0.442
			c-2.137,0-3.291,1.597-3.291,3.521c0,2.155,1.385,3.483,3.232,3.483c0.963,0,1.598-0.231,2.078-0.443L218.019,183.376z"/>
	</g>
	<g>
		<path fill="#FFFFFF" d="M222.097,172.158v2.232h2.424v1.29h-2.424v5.022c0,1.154,0.328,1.809,1.27,1.809
			c0.463,0,0.732-0.039,0.982-0.116l0.076,1.29c-0.326,0.115-0.846,0.23-1.5,0.23c-0.789,0-1.424-0.269-1.828-0.712
			c-0.463-0.52-0.654-1.347-0.654-2.443v-5.08H219v-1.29h1.443v-1.731L222.097,172.158z"/>
	</g>
	<g>
		<path fill="#FFFFFF" d="M234.546,178.97c0,3.444-2.406,4.945-4.637,4.945c-2.502,0-4.465-1.847-4.465-4.791
			c0-3.098,2.059-4.926,4.617-4.926C232.738,174.198,234.546,176.141,234.546,178.97z M227.177,179.066
			c0,2.04,1.154,3.579,2.809,3.579c1.617,0,2.828-1.52,2.828-3.618c0-1.578-0.789-3.56-2.789-3.56
			C228.042,175.468,227.177,177.315,227.177,179.066z"/>
	</g>
	<g>
		<path fill="#FFFFFF" d="M240.396,177.431c0-1.193-0.039-2.155-0.076-3.041h1.5l0.096,1.597h0.039
			c0.674-1.135,1.789-1.79,3.309-1.79c2.271,0,3.965,1.905,3.965,4.714c0,3.348-2.059,5.002-4.252,5.002
			c-1.232,0-2.311-0.539-2.867-1.462h-0.039v5.06h-1.674V177.431z M242.07,179.913c0,0.25,0.02,0.481,0.076,0.693
			c0.309,1.173,1.328,1.981,2.541,1.981c1.789,0,2.828-1.462,2.828-3.598c0-1.847-0.98-3.444-2.771-3.444
			c-1.154,0-2.25,0.808-2.559,2.078c-0.057,0.211-0.115,0.461-0.115,0.673V179.913z"/>
	</g>
	<g>
		<path fill="#FFFFFF" d="M251.169,177.296c0-1.097-0.018-2.04-0.076-2.906h1.482l0.076,1.847h0.059
			c0.422-1.25,1.461-2.04,2.596-2.04c0.174,0,0.309,0.02,0.463,0.039v1.597c-0.174-0.039-0.346-0.039-0.578-0.039
			c-1.191,0-2.039,0.885-2.27,2.155c-0.039,0.23-0.059,0.519-0.059,0.789v4.964h-1.693V177.296z"/>
	</g>
	<g>
		<path fill="#FFFFFF" d="M265.505,178.97c0,3.444-2.406,4.945-4.637,4.945c-2.502,0-4.465-1.847-4.465-4.791
			c0-3.098,2.059-4.926,4.617-4.926C263.697,174.198,265.505,176.141,265.505,178.97z M258.136,179.066
			c0,2.04,1.154,3.579,2.809,3.579c1.617,0,2.828-1.52,2.828-3.618c0-1.578-0.789-3.56-2.789-3.56
			C259.001,175.468,258.136,177.315,258.136,179.066z"/>
	</g>
	<g>
		<path fill="#FFFFFF" d="M269.507,172.158v2.232h2.424v1.29h-2.424v5.022c0,1.154,0.326,1.809,1.27,1.809
			c0.461,0,0.73-0.039,0.98-0.116l0.078,1.29c-0.328,0.115-0.848,0.23-1.502,0.23c-0.789,0-1.424-0.269-1.828-0.712
			c-0.461-0.52-0.654-1.347-0.654-2.443v-5.08h-1.441v-1.29h1.441v-1.731L269.507,172.158z"/>
	</g>
	<g>
		<path fill="#FFFFFF" d="M274.47,179.354c0.039,2.29,1.482,3.232,3.193,3.232c1.213,0,1.963-0.211,2.58-0.481l0.307,1.212
			c-0.596,0.27-1.635,0.596-3.117,0.596c-2.867,0-4.578-1.905-4.578-4.714s1.654-5.003,4.367-5.003c3.059,0,3.848,2.655,3.848,4.368
			c0,0.346-0.02,0.596-0.057,0.789H274.47z M279.435,178.143c0.02-1.059-0.443-2.732-2.348-2.732c-1.732,0-2.463,1.559-2.598,2.732
			H279.435z"/>
	</g>
	<g>
		<path fill="#FFFFFF" d="M290.96,182.337c0,2.155-0.443,3.444-1.328,4.271c-0.924,0.828-2.232,1.116-3.406,1.116
			c-1.115,0-2.346-0.27-3.098-0.77l0.424-1.309c0.615,0.404,1.578,0.75,2.732,0.75c1.732,0,3.002-0.904,3.002-3.271v-1.02h-0.039
			c-0.5,0.866-1.52,1.559-2.963,1.559c-2.309,0-3.963-1.962-3.963-4.541c0-3.155,2.059-4.926,4.213-4.926
			c1.617,0,2.482,0.828,2.906,1.597h0.037l0.059-1.405h1.5c-0.057,0.654-0.076,1.424-0.076,2.54V182.337z M289.267,178.065
			c0-0.289-0.02-0.539-0.096-0.75c-0.309-1-1.117-1.809-2.367-1.809c-1.617,0-2.771,1.366-2.771,3.521
			c0,1.828,0.943,3.348,2.752,3.348c1.059,0,2.002-0.654,2.348-1.732c0.096-0.289,0.135-0.616,0.135-0.904V178.065z"/>
	</g>
	<g>
		<path fill="#FFFFFF" d="M295.347,171.773c0,0.577-0.404,1.039-1.078,1.039c-0.615,0-1.02-0.462-1.02-1.039
			s0.424-1.058,1.059-1.058C294.923,170.715,295.347,171.177,295.347,171.773z M293.46,183.703v-9.313h1.693v9.313H293.46z"/>
	</g>
	<g>
		<path fill="#FFFFFF" d="M305.796,170.042v11.256c0,0.828,0.037,1.771,0.076,2.405h-1.502l-0.076-1.616h-0.057
			c-0.502,1.039-1.617,1.828-3.137,1.828c-2.252,0-4.002-1.905-4.002-4.733c-0.02-3.098,1.924-4.984,4.174-4.984
			c1.443,0,2.387,0.674,2.811,1.405h0.037v-5.561H305.796z M304.121,178.181c0-0.211-0.018-0.5-0.076-0.712
			c-0.25-1.058-1.174-1.943-2.443-1.943c-1.752,0-2.791,1.54-2.791,3.579c0,1.886,0.943,3.444,2.752,3.444
			c1.135,0,2.174-0.77,2.482-2.021c0.059-0.231,0.076-0.462,0.076-0.731V178.181z"/>
	</g>
	<g>
		<path fill="#FFFFFF" d="M316.859,178.97c0,3.444-2.406,4.945-4.637,4.945c-2.502,0-4.465-1.847-4.465-4.791
			c0-3.098,2.059-4.926,4.617-4.926C315.05,174.198,316.859,176.141,316.859,178.97z M309.49,179.066
			c0,2.04,1.154,3.579,2.809,3.579c1.617,0,2.828-1.52,2.828-3.618c0-1.578-0.789-3.56-2.789-3.56
			C310.355,175.468,309.49,177.315,309.49,179.066z"/>
	</g>
</g>
<g>
	<g>
		<path fill="#FFFFFF" d="M177.035,197.691c0-1.193-0.037-2.155-0.076-3.041h1.5l0.098,1.597h0.037
			c0.674-1.135,1.791-1.79,3.311-1.79c2.27,0,3.963,1.905,3.963,4.714c0,3.348-2.059,5.002-4.252,5.002
			c-1.23,0-2.309-0.539-2.867-1.462h-0.039v5.06h-1.674V197.691z M178.708,200.173c0,0.25,0.02,0.481,0.078,0.693
			c0.309,1.173,1.328,1.981,2.539,1.981c1.791,0,2.828-1.462,2.828-3.598c0-1.847-0.98-3.444-2.77-3.444
			c-1.154,0-2.252,0.808-2.559,2.078c-0.059,0.211-0.117,0.461-0.117,0.673V200.173z"/>
	</g>
	<g>
		<path fill="#FFFFFF" d="M196.238,199.23c0,3.444-2.406,4.945-4.637,4.945c-2.502,0-4.465-1.847-4.465-4.791
			c0-3.098,2.059-4.926,4.617-4.926C194.429,194.458,196.238,196.402,196.238,199.23z M188.869,199.327
			c0,2.04,1.154,3.579,2.809,3.579c1.617,0,2.828-1.52,2.828-3.618c0-1.578-0.789-3.56-2.789-3.56
			C189.734,195.729,188.869,197.576,188.869,199.327z"/>
	</g>
	<g>
		<path fill="#FFFFFF" d="M198.181,197.557c0-1.097-0.02-2.04-0.076-2.906h1.48l0.076,1.847h0.059c0.424-1.25,1.463-2.04,2.598-2.04
			c0.174,0,0.309,0.02,0.461,0.039v1.597c-0.172-0.039-0.346-0.039-0.576-0.039c-1.193,0-2.039,0.885-2.271,2.155
			c-0.037,0.23-0.057,0.519-0.057,0.789v4.964h-1.693V197.557z"/>
	</g>
	<g>
		<path fill="#FFFFFF" d="M209.148,199.615c0.039,2.29,1.482,3.232,3.193,3.232c1.213,0,1.963-0.211,2.58-0.481l0.307,1.212
			c-0.596,0.27-1.635,0.596-3.117,0.596c-2.867,0-4.578-1.905-4.578-4.714s1.654-5.003,4.367-5.003c3.059,0,3.848,2.655,3.848,4.368
			c0,0.346-0.02,0.596-0.057,0.789H209.148z M214.113,198.403c0.02-1.059-0.443-2.732-2.348-2.732c-1.732,0-2.463,1.559-2.598,2.732
			H214.113z"/>
	</g>
	<g>
		<path fill="#FFFFFF" d="M217.671,190.303h1.693v13.661h-1.693V190.303z"/>
	</g>
	<g>
		<path fill="#FFFFFF" d="M225.773,201.924c0.75,0.481,1.826,0.847,2.982,0.847c1.711,0,2.713-0.904,2.713-2.213
			c0-1.193-0.693-1.905-2.443-2.559c-2.117-0.77-3.426-1.886-3.426-3.694c0-2.021,1.674-3.521,4.195-3.521
			c1.307,0,2.289,0.308,2.848,0.635l-0.463,1.366c-0.404-0.25-1.27-0.616-2.443-0.616c-1.77,0-2.443,1.058-2.443,1.943
			c0,1.212,0.789,1.809,2.578,2.501c2.193,0.847,3.291,1.905,3.291,3.81c0,2.001-1.463,3.752-4.523,3.752
			c-1.25,0-2.615-0.385-3.309-0.846L225.773,201.924z"/>
	</g>
	<g>
		<path fill="#FFFFFF" d="M236.277,199.615c0.039,2.29,1.482,3.232,3.193,3.232c1.213,0,1.963-0.211,2.58-0.481l0.307,1.212
			c-0.596,0.27-1.635,0.596-3.117,0.596c-2.867,0-4.578-1.905-4.578-4.714s1.654-5.003,4.367-5.003c3.059,0,3.848,2.655,3.848,4.368
			c0,0.346-0.02,0.596-0.057,0.789H236.277z M241.242,198.403c0.02-1.059-0.443-2.732-2.348-2.732c-1.732,0-2.463,1.559-2.598,2.732
			H241.242z"/>
	</g>
	<g>
		<path fill="#FFFFFF" d="M252.767,202.598c0,2.155-0.443,3.444-1.328,4.271c-0.924,0.828-2.232,1.116-3.406,1.116
			c-1.115,0-2.346-0.27-3.098-0.77l0.424-1.309c0.615,0.404,1.578,0.75,2.732,0.75c1.732,0,3.002-0.904,3.002-3.271v-1.02h-0.039
			c-0.5,0.866-1.52,1.559-2.963,1.559c-2.309,0-3.963-1.962-3.963-4.541c0-3.155,2.059-4.926,4.213-4.926
			c1.617,0,2.482,0.828,2.906,1.597h0.037l0.059-1.405h1.5c-0.057,0.654-0.076,1.424-0.076,2.54V202.598z M251.074,198.326
			c0-0.289-0.02-0.539-0.096-0.75c-0.309-1-1.117-1.809-2.367-1.809c-1.617,0-2.771,1.366-2.771,3.521
			c0,1.828,0.943,3.348,2.752,3.348c1.059,0,2.002-0.654,2.348-1.732c0.096-0.289,0.135-0.616,0.135-0.904V198.326z"/>
	</g>
	<g>
		<path fill="#FFFFFF" d="M263.175,201.405c0,0.981,0.02,1.828,0.078,2.559h-1.502l-0.096-1.52h-0.039
			c-0.422,0.75-1.424,1.731-3.078,1.731c-1.463,0-3.213-0.827-3.213-4.079v-5.445h1.693v5.138c0,1.77,0.557,2.982,2.078,2.982
			c1.135,0,1.924-0.789,2.232-1.559c0.096-0.231,0.152-0.539,0.152-0.866v-5.696h1.693V201.405z"/>
	</g>
	<g>
		<path fill="#FFFFFF" d="M265.792,197.557c0-1.097-0.018-2.04-0.076-2.906h1.482l0.076,1.847h0.059
			c0.422-1.25,1.461-2.04,2.596-2.04c0.174,0,0.309,0.02,0.463,0.039v1.597c-0.174-0.039-0.346-0.039-0.578-0.039
			c-1.191,0-2.039,0.885-2.27,2.155c-0.039,0.23-0.059,0.519-0.059,0.789v4.964h-1.693V197.557z"/>
	</g>
	<g>
		<path fill="#FFFFFF" d="M280.126,199.23c0,3.444-2.404,4.945-4.637,4.945c-2.502,0-4.463-1.847-4.463-4.791
			c0-3.098,2.059-4.926,4.617-4.926C278.318,194.458,280.126,196.402,280.126,199.23z M272.757,199.327
			c0,2.04,1.154,3.579,2.811,3.579c1.615,0,2.828-1.52,2.828-3.618c0-1.578-0.789-3.56-2.791-3.56
			C273.625,195.729,272.757,197.576,272.757,199.327z"/>
	</g>
	<g>
		<path fill="#FFFFFF" d="M294.019,190.303v11.256c0,0.828,0.039,1.771,0.076,2.405h-1.5l-0.076-1.616h-0.059
			c-0.5,1.039-1.615,1.828-3.137,1.828c-2.25,0-4.002-1.905-4.002-4.733c-0.02-3.098,1.924-4.984,4.176-4.984
			c1.443,0,2.385,0.674,2.809,1.405h0.039v-5.561H294.019z M292.345,198.441c0-0.211-0.02-0.5-0.076-0.712
			c-0.252-1.058-1.174-1.943-2.445-1.943c-1.75,0-2.789,1.54-2.789,3.579c0,1.886,0.943,3.444,2.752,3.444
			c1.135,0,2.174-0.77,2.482-2.021c0.057-0.231,0.076-0.462,0.076-0.731V198.441z"/>
	</g>
	<g>
		<path fill="#FFFFFF" d="M297.599,199.615c0.037,2.29,1.48,3.232,3.193,3.232c1.213,0,1.963-0.211,2.578-0.481l0.309,1.212
			c-0.598,0.27-1.637,0.596-3.117,0.596c-2.867,0-4.58-1.905-4.58-4.714s1.654-5.003,4.367-5.003c3.061,0,3.85,2.655,3.85,4.368
			c0,0.346-0.02,0.596-0.059,0.789H297.599z M302.562,198.403c0.02-1.059-0.441-2.732-2.348-2.732c-1.73,0-2.463,1.559-2.598,2.732
			H302.562z"/>
	</g>
</g>
<g>
	<g>
		<path fill="#FFFFFF" d="M181.195,220.889l0.914,3.465c0.184,0.76,0.367,1.465,0.494,2.168h0.041
			c0.156-0.689,0.381-1.422,0.605-2.154l1.113-3.479h1.043l1.055,3.408c0.254,0.816,0.451,1.535,0.605,2.225h0.043
			c0.113-0.689,0.297-1.408,0.521-2.211l0.971-3.422h1.227l-2.197,6.816h-1.127l-1.043-3.254c-0.238-0.76-0.436-1.436-0.605-2.238
			h-0.027c-0.17,0.816-0.381,1.521-0.619,2.253l-1.1,3.239h-1.127l-2.055-6.816H181.195z"/>
	</g>
	<g>
		<path fill="#FFFFFF" d="M191.73,220.889l0.916,3.465c0.182,0.76,0.365,1.465,0.492,2.168h0.043
			c0.154-0.689,0.379-1.422,0.605-2.154l1.111-3.479h1.043l1.057,3.408c0.254,0.816,0.451,1.535,0.605,2.225h0.043
			c0.111-0.689,0.295-1.408,0.52-2.211l0.973-3.422h1.225l-2.197,6.816h-1.125l-1.043-3.254c-0.24-0.76-0.438-1.436-0.605-2.238
			h-0.029c-0.168,0.816-0.379,1.521-0.619,2.253l-1.098,3.239h-1.127l-2.057-6.816H191.73z"/>
	</g>
	<g>
		<path fill="#FFFFFF" d="M202.267,220.889l0.914,3.465c0.184,0.76,0.367,1.465,0.494,2.168h0.041
			c0.156-0.689,0.381-1.422,0.605-2.154l1.113-3.479h1.043l1.055,3.408c0.254,0.816,0.451,1.535,0.605,2.225h0.043
			c0.113-0.689,0.297-1.408,0.521-2.211l0.971-3.422h1.227l-2.197,6.816h-1.127l-1.043-3.254c-0.238-0.76-0.436-1.436-0.605-2.238
			H205.9c-0.17,0.816-0.381,1.521-0.619,2.253l-1.1,3.239h-1.127L201,220.889H202.267z"/>
	</g>
	<g>
		<path fill="#FFFFFF" d="M211.31,226.973c0-0.507,0.352-0.887,0.844-0.887c0.494,0,0.832,0.365,0.832,0.887
			c0,0.508-0.338,0.887-0.859,0.887C211.648,227.859,211.31,227.48,211.31,226.973z"/>
	</g>
	<g>
		<path fill="#FFFFFF" d="M214.648,227.705v-5.873h-0.943v-0.943h0.943v-0.324c0-0.957,0.225-1.83,0.789-2.38
			c0.465-0.45,1.084-0.634,1.662-0.634c0.449,0,0.816,0.099,1.057,0.197l-0.17,0.957c-0.184-0.084-0.422-0.154-0.789-0.154
			c-1.057,0-1.324,0.915-1.324,1.972v0.366h1.648v0.943h-1.648v5.873H214.648z"/>
	</g>
	<g>
		<path fill="#FFFFFF" d="M224.634,224.24c0,2.521-1.762,3.619-3.395,3.619c-1.832,0-3.268-1.352-3.268-3.506
			c0-2.268,1.506-3.605,3.379-3.605C223.31,220.748,224.634,222.17,224.634,224.24z M219.24,224.311c0,1.493,0.844,2.62,2.057,2.62
			c1.182,0,2.07-1.112,2.07-2.647c0-1.155-0.578-2.605-2.043-2.605C219.873,221.678,219.24,223.029,219.24,224.311z"/>
	</g>
	<g>
		<path fill="#FFFFFF" d="M232.029,226.705c0,1.578-0.324,2.521-0.973,3.127c-0.676,0.605-1.633,0.816-2.492,0.816
			c-0.816,0-1.719-0.197-2.268-0.562l0.311-0.959c0.451,0.297,1.154,0.55,2,0.55c1.268,0,2.197-0.662,2.197-2.394v-0.747h-0.029
			c-0.365,0.634-1.111,1.141-2.168,1.141c-1.691,0-2.902-1.437-2.902-3.323c0-2.311,1.508-3.605,3.084-3.605
			c1.184,0,1.818,0.605,2.127,1.168h0.029l0.041-1.027h1.1c-0.043,0.479-0.057,1.042-0.057,1.859V226.705z M230.789,223.578
			c0-0.211-0.014-0.395-0.07-0.549c-0.225-0.732-0.816-1.324-1.732-1.324c-1.182,0-2.027,1-2.027,2.578
			c0,1.338,0.689,2.45,2.014,2.45c0.775,0,1.465-0.479,1.719-1.268c0.07-0.212,0.098-0.45,0.098-0.662V223.578z"/>
	</g>
	<g>
		<path fill="#FFFFFF" d="M238.861,226.071c0,0.592,0.027,1.169,0.098,1.634h-1.111l-0.1-0.859h-0.041
			c-0.381,0.535-1.113,1.014-2.086,1.014c-1.379,0-2.084-0.971-2.084-1.957c0-1.648,1.465-2.549,4.1-2.535v-0.141
			c0-0.549-0.156-1.578-1.551-1.563c-0.646,0-1.309,0.183-1.787,0.507l-0.283-0.83c0.564-0.353,1.395-0.592,2.254-0.592
			c2.084,0,2.592,1.422,2.592,2.773V226.071z M237.664,224.227c-1.352-0.028-2.887,0.211-2.887,1.535
			c0,0.816,0.535,1.183,1.154,1.183c0.9,0,1.479-0.563,1.676-1.141c0.043-0.141,0.057-0.282,0.057-0.395V224.227z"/>
	</g>
	<g>
		<path fill="#FFFFFF" d="M240.988,227.705v-5.873h-0.943v-0.943h0.943v-0.381c0-1.788,1.057-2.957,2.973-2.957
			c0.633,0,1.379,0.197,1.73,0.451l-0.352,0.943c-0.309-0.211-0.83-0.395-1.436-0.395c-1.311,0-1.691,0.915-1.691,2v0.338h3.959
			v6.816h-1.24v-5.873h-2.719v5.873H240.988z"/>
	</g>
	<g>
		<path fill="#FFFFFF" d="M248.228,222.733c0-0.718-0.014-1.282-0.057-1.845h1.1l0.07,1.127h0.027
			c0.338-0.635,1.127-1.268,2.254-1.268c0.943,0,2.408,0.562,2.408,2.9v4.057h-1.24v-3.93c0-1.098-0.408-2.014-1.576-2.014
			c-0.803,0-1.438,0.578-1.662,1.268c-0.057,0.154-0.084,0.366-0.084,0.577v4.099h-1.24V222.733z"/>
	</g>
	<g>
		<path fill="#FFFFFF" d="M255.75,226.973c0-0.507,0.352-0.887,0.846-0.887c0.492,0,0.83,0.365,0.83,0.887
			c0,0.508-0.338,0.887-0.859,0.887C256.087,227.859,255.75,227.48,255.75,226.973z"/>
	</g>
	<g>
		<path fill="#FFFFFF" d="M264.792,226.705c0,1.578-0.324,2.521-0.973,3.127c-0.676,0.605-1.633,0.816-2.492,0.816
			c-0.816,0-1.719-0.197-2.268-0.562l0.311-0.959c0.451,0.297,1.154,0.55,2,0.55c1.268,0,2.197-0.662,2.197-2.394v-0.747h-0.029
			c-0.365,0.634-1.111,1.141-2.168,1.141c-1.691,0-2.902-1.437-2.902-3.323c0-2.311,1.508-3.605,3.084-3.605
			c1.184,0,1.818,0.605,2.127,1.168h0.029l0.041-1.027h1.1c-0.043,0.479-0.057,1.042-0.057,1.859V226.705z M263.552,223.578
			c0-0.211-0.014-0.395-0.07-0.549c-0.225-0.732-0.816-1.324-1.732-1.324c-1.182,0-2.027,1-2.027,2.578
			c0,1.338,0.689,2.45,2.014,2.45c0.775,0,1.465-0.479,1.719-1.268c0.07-0.212,0.098-0.45,0.098-0.662V223.578z"/>
	</g>
	<g>
		<path fill="#FFFFFF" d="M273.005,224.24c0,2.521-1.762,3.619-3.395,3.619c-1.832,0-3.268-1.352-3.268-3.506
			c0-2.268,1.506-3.605,3.379-3.605C271.681,220.748,273.005,222.17,273.005,224.24z M267.611,224.311
			c0,1.493,0.844,2.62,2.057,2.62c1.182,0,2.07-1.112,2.07-2.647c0-1.155-0.578-2.605-2.043-2.605
			C268.244,221.678,267.611,223.029,267.611,224.311z"/>
	</g>
	<g>
		<path fill="#FFFFFF" d="M274.949,220.889l1.338,3.816c0.225,0.634,0.408,1.197,0.549,1.761h0.043
			c0.154-0.563,0.352-1.127,0.576-1.761l1.324-3.816h1.297l-2.676,6.816h-1.184l-2.592-6.816H274.949z"/>
	</g>
	<g>
		<path fill="#FFFFFF" d="M280.414,226.973c0-0.507,0.352-0.887,0.846-0.887c0.492,0,0.83,0.365,0.83,0.887
			c0,0.508-0.338,0.887-0.859,0.887C280.751,227.859,280.414,227.48,280.414,226.973z"/>
	</g>
	<g>
		<path fill="#FFFFFF" d="M288.484,227.466c-0.322,0.155-1.041,0.394-1.957,0.394c-2.057,0-3.395-1.394-3.395-3.479
			c0-2.098,1.438-3.633,3.662-3.633c0.732,0,1.381,0.183,1.719,0.365l-0.281,0.944c-0.297-0.155-0.762-0.324-1.438-0.324
			c-1.562,0-2.408,1.169-2.408,2.577c0,1.578,1.014,2.549,2.365,2.549c0.705,0,1.17-0.168,1.521-0.323L288.484,227.466z"/>
	</g>
	<g>
		<path fill="#FFFFFF" d="M296.035,224.24c0,2.521-1.762,3.619-3.395,3.619c-1.832,0-3.268-1.352-3.268-3.506
			c0-2.268,1.506-3.605,3.379-3.605C294.71,220.748,296.035,222.17,296.035,224.24z M290.64,224.311c0,1.493,0.844,2.62,2.057,2.62
			c1.182,0,2.07-1.112,2.07-2.647c0-1.155-0.578-2.605-2.043-2.605C291.273,221.678,290.64,223.029,290.64,224.311z"/>
	</g>
</g>
<g>
	<rect x="152.104" y="157.335" fill="#FFFFFE" width="3.547" height="78.802"/>
</g>
<g>
	<path fill="#FFFFFE" d="M23.65,179.133c0,1.848-1.503,3.349-3.346,3.349c-1.853,0-3.349-1.501-3.349-3.349
		c0-1.849,1.496-3.35,3.349-3.35C22.147,175.783,23.65,177.284,23.65,179.133"/>
</g>
<g>
	<path fill="#FFFFFE" d="M31.901,179.133c0,1.848-1.501,3.349-3.35,3.349c-1.851,0-3.346-1.501-3.346-3.349
		c0-1.849,1.495-3.35,3.346-3.35C30.4,175.783,31.901,177.284,31.901,179.133"/>
</g>
<g>
	<path fill="#FFFFFE" d="M40.146,179.133c0,1.848-1.497,3.349-3.35,3.349c-1.842,0-3.345-1.501-3.345-3.349
		c0-1.849,1.503-3.35,3.345-3.35C38.649,175.783,40.146,177.284,40.146,179.133"/>
</g>
<g>
	<path fill="#FFFFFE" d="M23.65,187.229c0,1.848-1.503,3.349-3.346,3.349c-1.853,0-3.349-1.501-3.349-3.349
		c0-1.853,1.496-3.349,3.349-3.349C22.147,183.879,23.65,185.375,23.65,187.229"/>
</g>
<g>
	<path fill="#FFFFFE" d="M31.901,187.229c0,1.848-1.501,3.349-3.35,3.349c-1.851,0-3.346-1.501-3.346-3.349
		c0-1.853,1.495-3.349,3.346-3.349C30.4,183.879,31.901,185.375,31.901,187.229"/>
</g>
<g>
	<path fill="#6FA5C6" d="M40.146,187.229c0,1.848-1.497,3.349-3.35,3.349c-1.842,0-3.345-1.501-3.345-3.349
		c0-1.853,1.503-3.349,3.345-3.349C38.649,183.879,40.146,185.375,40.146,187.229"/>
</g>
<g>
	<path fill="#FFFFFE" d="M23.65,195.324c0,1.848-1.503,3.345-3.346,3.345c-1.853,0-3.349-1.497-3.349-3.345s1.496-3.349,3.349-3.349
		C22.147,191.975,23.65,193.476,23.65,195.324"/>
</g>
<g>
	<path fill="#6FA5C6" d="M31.901,195.324c0,1.848-1.501,3.345-3.35,3.345c-1.851,0-3.346-1.497-3.346-3.345s1.495-3.349,3.346-3.349
		C30.4,191.975,31.901,193.476,31.901,195.324"/>
</g>
<g>
	<path fill="#6FA5C6" d="M40.146,195.324c0,1.848-1.497,3.345-3.35,3.345c-1.842,0-3.345-1.497-3.345-3.345s1.503-3.349,3.345-3.349
		C38.649,191.975,40.146,193.476,40.146,195.324"/>
</g>
<g>
	<polygon fill="#FFFFFE" points="46.811,176.098 60.374,176.098 60.374,180.221 51.823,180.221 51.823,185.302 59.814,185.302 
		59.814,189.395 51.823,189.395 51.823,198.338 46.811,198.338 	"/>
</g>
<g>
	<path fill="#FFFFFE" d="M77.442,190.089c0,5.905-4.198,8.613-8.519,8.613c-4.717,0-8.348-3.101-8.348-8.315
		c0-5.247,3.431-8.579,8.647-8.579C74.138,181.809,77.442,185.208,77.442,190.089 M65.756,190.255c0,2.77,1.158,4.85,3.299,4.85
		c1.982,0,3.205-1.948,3.205-4.883c0-2.377-0.926-4.821-3.205-4.821C66.679,185.401,65.756,187.878,65.756,190.255"/>
</g>
<g>
	<path fill="#FFFFFE" d="M94.604,195.994c0,3.105-0.628,5.644-2.473,7.26c-1.752,1.518-4.164,1.981-6.541,1.981
		c-2.143,0-4.355-0.43-5.805-1.22l0.991-3.829c1.024,0.592,2.771,1.22,4.686,1.22c2.378,0,4.188-1.252,4.188-4.259v-1.021h-0.062
		c-0.958,1.319-2.509,2.08-4.362,2.08c-3.991,0-6.829-3.237-6.829-7.852c0-5.213,3.335-8.517,7.33-8.517
		c2.212,0,3.593,0.959,4.42,2.311h0.066l0.166-1.947h4.353c-0.061,1.054-0.128,2.41-0.128,4.817V195.994z M89.588,188.767
		c0-0.298-0.037-0.625-0.1-0.922c-0.362-1.319-1.321-2.212-2.708-2.212c-1.848,0-3.298,1.649-3.298,4.589
		c0,2.406,1.186,4.288,3.266,4.288c1.323,0,2.344-0.856,2.675-2.014c0.128-0.393,0.165-0.922,0.165-1.352V188.767z"/>
</g>
<g>
	<path fill="#FFFFFE" d="M110.41,194.443c0,1.518,0.067,3.002,0.266,3.895h-4.52l-0.292-1.617h-0.105
		c-1.053,1.286-2.704,1.981-4.619,1.981c-3.27,0-5.218-2.377-5.218-4.949c0-4.193,3.768-6.173,9.478-6.173v-0.199
		c0-0.893-0.464-2.112-2.941-2.112c-1.649,0-3.398,0.562-4.457,1.219l-0.921-3.233c1.125-0.624,3.333-1.447,6.271-1.447
		c5.377,0,7.058,3.167,7.058,6.991V194.443z M105.56,190.714c-2.642,0-4.684,0.628-4.684,2.542c0,1.286,0.856,1.915,1.98,1.915
		c1.225,0,2.278-0.827,2.606-1.848c0.065-0.265,0.098-0.563,0.098-0.86V190.714z"/>
</g>
<g>
	<path fill="#FFFFFE" d="M113.317,198.338v-12.441h-2.142v-3.696h2.142v-0.625c0-1.947,0.6-4.093,2.013-5.412
		c1.291-1.191,3.007-1.621,4.49-1.621c1.088,0,1.947,0.166,2.639,0.331l-0.196,3.861c-0.433-0.131-0.959-0.231-1.621-0.231
		c-1.648,0-2.343,1.29-2.343,2.874v0.823h3.238v3.696h-3.2v12.441H113.317z"/>
</g>
<g>
	<path fill="#FFFFFE" d="M123.022,182.202h5.02v16.137h-5.02V182.202z M130.88,175.172l-4.025,5.015h-3.433l2.837-5.015H130.88z"/>
</g>
<g>
	<path fill="#FFFFFE" d="M130.021,187.349c0-2.014-0.066-3.696-0.133-5.147h4.358l0.233,2.244h0.093
		c0.662-1.054,2.274-2.609,4.982-2.609c3.304,0,5.777,2.213,5.777,6.963v9.539h-5.015v-8.943c0-2.08-0.725-3.498-2.544-3.498
		c-1.385,0-2.206,0.955-2.575,1.881c-0.129,0.331-0.162,0.794-0.162,1.253v9.307h-5.014V187.349z"/>
</g>
<g>
	<path fill="#FFFFFE" d="M16.955,216.121l0.354-1.141c0.17,0.137,0.428,0.248,0.766,0.344c0.339,0.094,0.666,0.145,0.976,0.145
		c0.475,0,0.853-0.116,1.141-0.348c0.283-0.231,0.426-0.545,0.426-0.951c0-0.339-0.107-0.632-0.322-0.893
		c-0.216-0.256-0.583-0.574-1.108-0.951c-0.521-0.376-0.903-0.727-1.137-1.054c-0.241-0.323-0.359-0.732-0.359-1.216
		c0-0.785,0.25-1.401,0.747-1.848c0.496-0.446,1.137-0.669,1.932-0.669c0.892,0,1.483,0.078,1.776,0.231l-0.338,1.153
		c-0.112-0.091-0.296-0.177-0.558-0.256c-0.26-0.078-0.509-0.116-0.733-0.116c-0.508,0-0.909,0.112-1.202,0.343
		c-0.295,0.228-0.443,0.562-0.443,0.993c0,0.182,0.05,0.36,0.141,0.529c0.094,0.174,0.219,0.327,0.381,0.463
		c0.156,0.137,0.484,0.389,0.98,0.757c0.491,0.368,0.854,0.744,1.087,1.129c0.23,0.384,0.347,0.827,0.347,1.335
		c0,0.79-0.265,1.393-0.792,1.818c-0.532,0.423-1.229,0.629-2.099,0.629c-0.309,0-0.655-0.041-1.045-0.127
		C17.479,216.332,17.175,216.232,16.955,216.121"/>
</g>
<g>
	<path fill="#FFFFFE" d="M23.843,213.392c-0.037,0.19-0.054,0.368-0.054,0.546c0,0.521,0.146,0.926,0.44,1.207
		c0.292,0.28,0.702,0.423,1.23,0.423c0.468,0,0.94-0.17,1.416-0.518l-0.116,1.153c-0.638,0.212-1.196,0.313-1.688,0.313
		c-1.641,0-2.465-0.918-2.465-2.757c0-1.083,0.349-1.992,1.04-2.737c0.691-0.744,1.559-1.112,2.604-1.112
		c0.629,0,1.138,0.137,1.509,0.405c0.38,0.269,0.571,0.653,0.571,1.154c0,0.694-0.299,1.24-0.885,1.641
		c-0.582,0.401-1.307,0.6-2.16,0.6C24.721,213.711,24.237,213.604,23.843,213.392 M24.042,212.57
		c0.298,0.136,0.654,0.202,1.062,0.202c0.618,0,1.126-0.099,1.517-0.302c0.394-0.198,0.588-0.492,0.588-0.876
		c0-0.488-0.334-0.732-1.013-0.732C25.171,210.862,24.446,211.432,24.042,212.57"/>
</g>
<g>
	<path fill="#FFFFFE" d="M28.15,218.184l0.535-0.83c0.732,0.363,1.333,0.546,1.807,0.546c0.521,0,0.959-0.095,1.308-0.289
		c0.35-0.194,0.523-0.468,0.523-0.815c0-0.178-0.056-0.318-0.173-0.434c-0.12-0.111-0.319-0.193-0.599-0.24l-1.046-0.177
		c-0.426-0.108-0.642-0.323-0.642-0.649c0-0.262,0.339-0.525,1.022-0.791l-0.199,0.006c-0.472,0-0.877-0.174-1.227-0.518
		c-0.353-0.352-0.525-0.765-0.525-1.257c0-0.831,0.267-1.509,0.801-2.035c0.533-0.529,1.22-0.789,2.05-0.789
		c0.6,0,1.071,0.144,1.415,0.43l0.542-0.608l0.62,0.641l-0.588,0.612c0.116,0.166,0.173,0.418,0.173,0.769
		c0,0.682-0.173,1.265-0.516,1.753c-0.347,0.488-0.797,0.832-1.36,1.03c-0.55,0.194-0.827,0.376-0.827,0.55
		c0,0.137,0.074,0.207,0.223,0.207c0.058,0,0.137-0.009,0.245-0.024c0.106-0.021,0.193-0.03,0.247-0.03
		c0.993,0,1.484,0.447,1.484,1.346c0,0.701-0.305,1.264-0.934,1.682c-0.619,0.422-1.367,0.633-2.224,0.633
		C29.413,218.9,28.701,218.66,28.15,218.184 M31.708,210.821c-0.456,0-0.841,0.177-1.153,0.533
		c-0.311,0.356-0.472,0.769-0.472,1.249c0,0.868,0.326,1.298,0.984,1.298c0.447,0,0.838-0.215,1.177-0.649
		c0.344-0.434,0.515-0.897,0.515-1.386c0-0.318-0.1-0.574-0.287-0.764C32.277,210.917,32.026,210.821,31.708,210.821"/>
</g>
<g>
	<path fill="#FFFFFE" d="M36.606,210.031l-0.743,4.061c-0.033,0.173-0.05,0.338-0.05,0.482c0,0.662,0.347,0.994,1.037,0.994
		c0.421,0,0.826-0.158,1.221-0.476c0.391-0.319,0.627-0.694,0.703-1.138l0.727-3.924h1.191l-1.167,6.372h-1.186l0.165-0.9
		c-0.446,0.677-1.215,1.018-2.307,1.018c-0.496,0-0.889-0.146-1.162-0.439c-0.277-0.293-0.417-0.711-0.417-1.248
		c0-0.191,0.02-0.396,0.061-0.62l0.734-4.181H36.606z"/>
</g>
<g>
	<path fill="#FFFFFE" d="M45.484,211.147c-0.236-0.19-0.518-0.286-0.826-0.286c-0.406,0-0.787,0.187-1.153,0.559
		c-0.366,0.368-0.596,0.814-0.684,1.327l-0.65,3.655h-1.128l1.125-6.372h1.128l-0.178,1.013c0.546-0.751,1.228-1.132,2.045-1.132
		c0.13,0,0.354,0.028,0.647,0.083L45.484,211.147z"/>
</g>
<g>
	<path fill="#FFFFFE" d="M46.108,216.402l0.963-5.419h-0.847l0.21-0.935h1.949l-1.13,6.354H46.108z M47.936,207.53
		c0.224,0,0.406,0.079,0.559,0.231c0.152,0.153,0.235,0.34,0.235,0.563c0,0.215-0.083,0.401-0.235,0.554
		c-0.153,0.153-0.335,0.231-0.559,0.231c-0.219,0-0.405-0.078-0.561-0.231c-0.154-0.153-0.233-0.339-0.233-0.554
		c0-0.223,0.079-0.41,0.233-0.563C47.531,207.609,47.717,207.53,47.936,207.53"/>
</g>
<g>
	<path fill="#FFFFFE" d="M53.154,216.402l0.139-0.731c-0.458,0.562-1.085,0.845-1.884,0.845c-0.692,0-1.234-0.212-1.617-0.638
		c-0.388-0.418-0.583-0.993-0.583-1.722c0-1.238,0.332-2.256,0.992-3.046c0.666-0.793,1.525-1.186,2.558-1.186
		c0.61,0,1.07,0.248,1.391,0.748l0.604-3.254h1.076l-1.551,8.984H53.154z M53.939,211.797c0.012-0.033-0.038-0.145-0.156-0.331
		c-0.109-0.182-0.249-0.327-0.41-0.434c-0.162-0.104-0.331-0.157-0.505-0.157c-0.705,0-1.289,0.285-1.749,0.856
		c-0.459,0.566-0.69,1.294-0.69,2.183c0,1.125,0.458,1.683,1.385,1.683c0.417,0,0.807-0.202,1.165-0.616
		c0.36-0.41,0.596-0.938,0.699-1.587L53.939,211.797z"/>
</g>
<g>
	<path fill="#FFFFFE" d="M61.46,210.428l-0.776,3.708c-0.037,0.148-0.05,0.33-0.05,0.546c0,0.616,0.098,1.19,0.293,1.72h-1.152
		c-0.067-0.128-0.137-0.343-0.204-0.645c-0.191,0.228-0.466,0.41-0.836,0.55c-0.372,0.141-0.755,0.211-1.169,0.211
		c-0.628,0-1.116-0.187-1.468-0.554c-0.352-0.373-0.531-0.901-0.531-1.596c0-1.171,0.349-2.2,1.035-3.106
		c0.69-0.901,1.571-1.352,2.658-1.352C60.283,209.912,61.018,210.085,61.46,210.428 M60.212,211.089
		c-0.107-0.169-0.468-0.256-1.083-0.256c-0.624,0-1.179,0.335-1.657,0.996c-0.478,0.67-0.713,1.502-0.713,2.502
		c0,0.842,0.376,1.264,1.134,1.264c0.391,0,0.759-0.202,1.108-0.607c0.342-0.404,0.578-0.926,0.718-1.558L60.212,211.089z"/>
</g>
<g>
	<path fill="#FFFFFE" d="M65.735,216.402l0.137-0.731c-0.459,0.562-1.088,0.845-1.885,0.845c-0.692,0-1.229-0.212-1.616-0.638
		c-0.391-0.418-0.584-0.993-0.584-1.722c0-1.238,0.33-2.256,0.997-3.046c0.674-0.793,1.52-1.186,2.557-1.186
		c0.605,0,1.068,0.248,1.392,0.748l0.598-3.254h1.079l-1.555,8.984H65.735z M66.521,211.797c0.008-0.033-0.046-0.145-0.157-0.331
		c-0.116-0.182-0.248-0.327-0.414-0.434c-0.158-0.104-0.327-0.157-0.504-0.157c-0.708,0-1.286,0.285-1.745,0.856
		c-0.463,0.566-0.694,1.294-0.694,2.183c0,1.125,0.463,1.683,1.389,1.683c0.412,0,0.801-0.202,1.162-0.616
		c0.359-0.41,0.596-0.938,0.701-1.587L66.521,211.797z"/>
</g>
<g>
	<path fill="#FFFFFE" d="M72.384,216.08l-0.5,2.849h-1.129L72,211.934c0.057-0.302,0.087-0.604,0.087-0.897
		c0-0.302-0.03-0.596-0.087-0.881l1.134-0.216c0.021,0.055,0.058,0.323,0.102,0.815c0.19-0.231,0.46-0.421,0.806-0.578
		c0.352-0.157,0.675-0.237,0.976-0.237c0.795,0,1.385,0.195,1.782,0.588c0.397,0.392,0.592,0.988,0.592,1.774
		c0,1.207-0.335,2.216-0.998,3.027c-0.672,0.814-1.55,1.219-2.642,1.219c-0.226,0-0.496-0.041-0.797-0.137
		C72.646,216.324,72.458,216.213,72.384,216.08 M72.554,215.146c0.065,0.128,0.215,0.235,0.43,0.323
		c0.218,0.087,0.421,0.128,0.617,0.128c0.825,0,1.463-0.277,1.913-0.841c0.451-0.562,0.675-1.325,0.675-2.297
		c0-0.525-0.129-0.914-0.393-1.174c-0.266-0.261-0.662-0.393-1.187-0.393c-0.232,0-0.5,0.082-0.803,0.244
		c-0.297,0.161-0.517,0.326-0.644,0.5L72.554,215.146z"/>
</g>
<g>
	<path fill="#FFFFFE" d="M83.584,210.428l-0.78,3.708c-0.033,0.148-0.046,0.33-0.046,0.546c0,0.616,0.1,1.19,0.285,1.72h-1.154
		c-0.058-0.128-0.126-0.343-0.194-0.645c-0.19,0.228-0.466,0.41-0.836,0.55c-0.371,0.141-0.755,0.211-1.17,0.211
		c-0.627,0-1.117-0.187-1.471-0.554c-0.343-0.373-0.526-0.901-0.526-1.596c0-1.171,0.349-2.2,1.035-3.106
		c0.69-0.901,1.57-1.352,2.658-1.352C82.406,209.912,83.139,210.085,83.584,210.428 M82.333,211.089
		c-0.104-0.169-0.469-0.256-1.079-0.256c-0.629,0-1.179,0.335-1.658,0.996c-0.477,0.67-0.712,1.502-0.712,2.502
		c0,0.842,0.375,1.264,1.129,1.264c0.396,0,0.763-0.202,1.108-0.607c0.346-0.404,0.583-0.926,0.723-1.558L82.333,211.089z"/>
</g>
<g>
	<path fill="#FFFFFE" d="M88.389,211.147c-0.239-0.19-0.521-0.286-0.83-0.286c-0.4,0-0.787,0.187-1.149,0.559
		c-0.368,0.368-0.596,0.814-0.687,1.327l-0.646,3.655h-1.131l1.127-6.372h1.125l-0.173,1.013c0.542-0.751,1.223-1.132,2.038-1.132
		c0.136,0,0.355,0.028,0.649,0.083L88.389,211.147z"/>
</g>
<g>
	<path fill="#FFFFFE" d="M94.45,210.428l-0.777,3.708c-0.037,0.148-0.05,0.33-0.05,0.546c0,0.616,0.099,1.19,0.286,1.72h-1.146
		c-0.066-0.128-0.137-0.343-0.207-0.645c-0.185,0.228-0.462,0.41-0.831,0.55c-0.371,0.141-0.761,0.211-1.17,0.211
		c-0.628,0-1.117-0.187-1.471-0.554c-0.347-0.373-0.526-0.901-0.526-1.596c0-1.171,0.348-2.2,1.034-3.106
		c0.692-0.901,1.572-1.352,2.659-1.352C93.271,209.912,94.004,210.085,94.45,210.428 M93.201,211.089
		c-0.105-0.169-0.467-0.256-1.083-0.256c-0.627,0-1.177,0.335-1.658,0.996c-0.476,0.67-0.71,1.502-0.71,2.502
		c0,0.842,0.376,1.264,1.134,1.264c0.391,0,0.758-0.202,1.107-0.607c0.343-0.404,0.581-0.926,0.714-1.558L93.201,211.089z"/>
</g>
<g>
	<path fill="#FFFFFE" d="M99.259,210.92h-0.736l0.19-0.889h0.733l0.268-1.336l1.29-0.483l-0.425,1.819h1.747l-0.188,0.889h-1.745
		l-0.671,3.167c-0.054,0.249-0.074,0.438-0.074,0.571c0,0.607,0.302,0.91,0.902,0.91c0.293,0,0.612-0.07,0.946-0.221l-0.041,0.992
		c-0.322,0.121-0.853,0.18-1.579,0.18c-0.45,0-0.807-0.138-1.054-0.418c-0.25-0.281-0.376-0.662-0.376-1.154
		c0-0.107,0.016-0.244,0.052-0.405L99.259,210.92z"/>
</g>
<g>
	<path fill="#FFFFFE" d="M104.726,210.031l-0.749,4.061c-0.029,0.173-0.046,0.338-0.046,0.482c0,0.662,0.349,0.994,1.038,0.994
		c0.427,0,0.827-0.158,1.225-0.476c0.387-0.319,0.624-0.694,0.703-1.138l0.726-3.924h1.188l-1.163,6.372h-1.19l0.161-0.9
		c-0.439,0.677-1.206,1.018-2.302,1.018c-0.496,0-0.882-0.146-1.162-0.439c-0.282-0.293-0.417-0.711-0.417-1.248
		c0-0.191,0.02-0.396,0.06-0.62l0.732-4.181H104.726z"/>
</g>
<g>
	<path fill="#FFFFFE" d="M116.138,216.402l0.137-0.731c-0.465,0.562-1.093,0.845-1.887,0.845c-0.695,0-1.229-0.212-1.621-0.638
		c-0.384-0.418-0.583-0.993-0.583-1.722c0-1.238,0.335-2.256,1-3.046c0.667-0.793,1.517-1.186,2.559-1.186
		c0.605,0,1.068,0.248,1.387,0.748l0.6-3.254h1.077l-1.549,8.984H116.138z M116.922,211.797c0.009-0.033-0.045-0.145-0.157-0.331
		c-0.111-0.182-0.252-0.327-0.413-0.434c-0.16-0.104-0.326-0.157-0.505-0.157c-0.701,0-1.286,0.285-1.749,0.856
		c-0.463,0.566-0.694,1.294-0.694,2.183c0,1.125,0.463,1.683,1.384,1.683c0.422,0,0.808-0.202,1.171-0.616
		c0.355-0.41,0.591-0.938,0.703-1.587L116.922,211.797z"/>
</g>
<g>
	<path fill="#FFFFFE" d="M119.002,216.402l0.965-5.419h-0.846l0.213-0.935h1.941l-1.129,6.354H119.002z M120.83,207.53
		c0.214,0,0.4,0.079,0.562,0.231c0.154,0.153,0.231,0.34,0.231,0.563c0,0.215-0.077,0.401-0.231,0.554
		c-0.162,0.153-0.348,0.231-0.562,0.231c-0.221,0-0.405-0.078-0.562-0.231c-0.154-0.153-0.229-0.339-0.229-0.554
		c0-0.223,0.075-0.41,0.229-0.563C120.425,207.609,120.609,207.53,120.83,207.53"/>
</g>
<g>
	<path fill="#FFFFFE" d="M125.939,216.402l0.67-3.708c0.058-0.331,0.091-0.603,0.091-0.819c0-0.674-0.355-1.013-1.054-1.013
		c-0.273,0-0.559,0.079-0.863,0.24c-0.312,0.157-0.555,0.348-0.738,0.562l-0.827,4.738h-1.145l0.86-4.833
		c0.022-0.108,0.029-0.24,0.029-0.394c0-0.4-0.045-0.752-0.127-1.05l1.095-0.215c0.112,0.579,0.161,0.893,0.157,0.947
		c0.484-0.632,1.183-0.947,2.092-0.947c1.15,0,1.725,0.588,1.725,1.762c0,0.236-0.025,0.496-0.07,0.786l-0.692,3.943H125.939z"/>
</g>
<g>
	<path fill="#FFFFFE" d="M129.813,213.392c-0.036,0.19-0.054,0.368-0.054,0.546c0,0.521,0.145,0.926,0.442,1.207
		c0.294,0.28,0.7,0.423,1.228,0.423c0.473,0,0.939-0.17,1.42-0.518l-0.12,1.153c-0.633,0.212-1.196,0.313-1.684,0.313
		c-1.645,0-2.459-0.918-2.459-2.757c0-1.083,0.343-1.992,1.03-2.737c0.689-0.744,1.562-1.112,2.609-1.112
		c0.631,0,1.137,0.137,1.508,0.405c0.38,0.269,0.567,0.653,0.567,1.154c0,0.694-0.295,1.24-0.88,1.641
		c-0.588,0.401-1.304,0.6-2.165,0.6C130.692,213.711,130.208,213.604,129.813,213.392 M130.013,212.57
		c0.297,0.136,0.654,0.202,1.062,0.202c0.621,0,1.126-0.099,1.517-0.302c0.394-0.198,0.588-0.492,0.588-0.876
		c0-0.488-0.334-0.732-1.009-0.732C131.142,210.862,130.421,211.432,130.013,212.57"/>
</g>
<g>
	<path fill="#FFFFFE" d="M139.171,211.147c-0.236-0.19-0.517-0.286-0.836-0.286c-0.401,0-0.78,0.187-1.145,0.559
		c-0.364,0.368-0.594,0.814-0.686,1.327l-0.649,3.655h-1.125l1.125-6.372h1.125l-0.179,1.013c0.551-0.751,1.228-1.132,2.043-1.132
		c0.14,0,0.356,0.028,0.648,0.083L139.171,211.147z"/>
</g>
<g>
	<path fill="#FFFFFE" d="M139.407,214.059c0-1.141,0.336-2.114,1-2.928c0.666-0.814,1.514-1.22,2.54-1.22
		c0.776,0,1.363,0.211,1.768,0.629c0.415,0.418,0.616,1.013,0.616,1.782c0,0.608-0.119,1.245-0.364,1.903
		c-0.242,0.656-0.644,1.207-1.194,1.641c-0.555,0.438-1.219,0.654-1.993,0.654c-0.765,0-1.348-0.216-1.766-0.646
		C139.609,215.443,139.407,214.84,139.407,214.059 M140.597,213.984c0,1.079,0.446,1.613,1.354,1.613
		c0.668,0,1.202-0.323,1.595-0.976c0.397-0.65,0.594-1.398,0.594-2.253c0-1.022-0.455-1.535-1.355-1.535
		c-0.455,0-0.86,0.162-1.205,0.488c-0.346,0.327-0.599,0.74-0.751,1.249C140.676,213.079,140.597,213.55,140.597,213.984"/>
</g>
<g>
	<path fill="#7DF57D" d="M189.546,143.672l-4.811,3.657l-1.07-1.083c-0.156-0.157-3.451-3.517-4.688-7.25
		c-5.145,1.219-10.402,1.836-15.651,1.836c-5.25,0-10.507-0.617-15.65-1.836c-1.238,3.733-4.532,7.093-4.688,7.25l-1.072,1.083
		l-4.81-3.657l-6.146,3.894l-0.819-1.832c-0.109-0.244-10.912-24.754-10.912-55.422c0-9.114,1.729-20.266,5.142-33.161
		c-5.194-5.225-6.973-11.276-8.853-17.667c-0.295-1-0.594-2.015-0.91-3.042c-1.443-4.685-3.09-8.367-3.107-8.404l-0.793-1.763
		l1.838-0.6c3.315-1.081,6.639-1.629,9.877-1.629c10.441,0,17.339,5.563,19.649,7.753c6.679-2.351,13.823-3.542,21.254-3.542
		s14.575,1.191,21.253,3.542c2.311-2.19,9.207-7.753,19.65-7.753c3.238,0,6.561,0.548,9.877,1.629l1.838,0.6l-0.795,1.763
		c-0.014,0.037-1.662,3.719-3.105,8.404c-0.316,1.027-0.615,2.042-0.908,3.042c-1.881,6.39-3.66,12.44-8.854,17.665
		c3.412,12.766,5.143,23.919,5.143,33.163c0,30.668-10.805,55.178-10.914,55.422l-0.818,1.832L189.546,143.672z"/>
</g>
<g>
	<path fill="#004A3D" d="M214.644,24.024c-3.488-1.137-6.992-1.714-10.414-1.714c-10.016-0.001-16.984,4.856-20.051,7.517
		c-6.58-2.195-13.586-3.306-20.852-3.306c-7.268,0-14.271,1.111-20.853,3.306c-3.066-2.66-10.036-7.517-20.051-7.517
		c-3.421,0-6.925,0.577-10.414,1.714l-3.678,1.2l1.588,3.527c0.015,0.035,1.623,3.632,3.03,8.202
		c0.313,1.013,0.612,2.033,0.902,3.021c1.862,6.326,3.628,12.333,8.594,17.679c-3.287,12.642-4.953,23.621-4.953,32.66
		c0,31.036,10.613,55.12,11.064,56.13l1.639,3.663l3.39-2.148l3.431-2.173l2.637,2.005l2.426,1.844l2.144-2.166
		c0.369-0.373,2.977-3.075,4.518-6.451c4.808,1.03,9.699,1.552,14.586,1.552s9.778-0.522,14.584-1.552
		c1.541,3.376,4.15,6.078,4.52,6.451l2.143,2.166l2.428-1.844l2.635-2.005l3.432,2.173l3.391,2.148l1.639-3.663
		c0.451-1.01,11.064-25.094,11.064-56.13c0-9.165-1.664-20.146-4.949-32.665c4.961-5.344,6.729-11.348,8.588-17.672
		c0.291-0.988,0.592-2.009,0.904-3.023c1.408-4.57,3.016-8.167,3.031-8.203l1.584-3.526L214.644,24.024z M207.494,40.125
		c-1.457,5.283-2.65,9.575-6.256,13.572c-2.035-7.165-3.957-12.59-4.658-14.508c0.662-1.127,2.732-3.936,7.973-6.402l-1.479-3.142
		c-8.137,3.83-9.943,8.654-10.018,8.857l-0.215,0.602l0.225,0.597c0.109,0.289,10.887,29.109,10.887,51.024
		c0,25.101-7.406,45.954-9.844,52.139l-4.742-3.005l-4.24,3.224c-0.967-1.177-2.184-2.909-2.779-4.577
		c1.465-0.428,2.922-0.891,4.363-1.419l-1.193-3.261c-7.146,2.618-14.611,3.946-22.19,3.946c-7.579,0-15.044-1.328-22.19-3.946
		l-1.195,3.261c1.442,0.528,2.9,0.991,4.364,1.419c-0.596,1.668-1.812,3.401-2.779,4.577l-4.24-3.224l-4.743,3.005
		c-2.439-6.177-9.842-27.007-9.842-52.139c0-21.915,10.776-50.735,10.885-51.024l0.225-0.597l-0.215-0.602
		c-0.073-0.203-1.88-5.027-10.016-8.857l-1.48,3.142c5.253,2.473,7.321,5.289,7.973,6.4c-0.7,1.916-2.623,7.342-4.659,14.51
		c-3.606-3.997-4.797-8.289-6.255-13.572c-0.382-1.381-0.775-2.809-1.232-4.292c-0.892-2.896-1.843-5.39-2.487-6.978
		c15.256-3.991,24.483,6.075,24.88,6.519l0.79,0.893l1.117-0.417c6.59-2.46,13.689-3.707,21.099-3.707
		c7.409,0,14.508,1.247,21.098,3.707l1.117,0.417l0.791-0.893c0.096-0.109,9.533-10.511,24.879-6.518
		c-0.645,1.589-1.596,4.081-2.486,6.977C208.269,37.316,207.875,38.744,207.494,40.125"/>
</g>
<g>
	<path fill="#004A3D" d="M146.412,94.51l-3.443,0.453c0.839,6.381,1.257,11.272,1.454,14.022l-4.8-1.533l-3.555,3.811
		c-1.402-2.543-3.953-7.389-6.88-13.98l-3.173,1.41c4.519,10.177,8.073,16.129,8.222,16.377l1.187,1.977l5.238-5.618l7.487,2.392
		l-0.104-2.483C148.034,111.075,147.761,104.772,146.412,94.51"/>
</g>
<g>
	<path fill="#004A3D" d="M142.436,55.842c2.11,0,3.821-1.711,3.821-3.821c0-2.111-1.711-3.822-3.821-3.822s-3.821,1.711-3.821,3.822
		C138.615,54.131,140.326,55.842,142.436,55.842"/>
</g>
<g>
	<path fill="#004A3D" d="M184.218,55.842c2.111,0,3.82-1.711,3.82-3.821c0-2.111-1.709-3.822-3.82-3.822s-3.82,1.711-3.82,3.822
		C180.398,54.131,182.107,55.842,184.218,55.842"/>
</g>
<g>
	<path fill="#004A3D" d="M187.085,107.452l-4.801,1.533c0.197-2.75,0.615-7.64,1.455-14.022l-3.443-0.453
		c-1.35,10.262-1.623,16.565-1.635,16.828l-0.104,2.483l7.488-2.391l5.238,5.617l1.186-1.977c0.148-0.248,3.703-6.2,8.223-16.377
		l-3.174-1.41c-2.926,6.591-5.479,11.437-6.881,13.98L187.085,107.452z"/>
</g>
<g>
	<path fill="#7FFF5D" d="M163.327,74.554c3.803,0,11.247-4.313,14.178-10.849c2.922-6.515-3.41-8.558-5.936-9.019
		c-3.025-0.552-8.243-0.602-8.243-0.602s-5.218,0.05-8.243,0.602c-2.527,0.461-8.859,2.504-5.936,9.019
		C152.08,70.241,159.523,74.554,163.327,74.554"/>
</g>
<g>
	<path fill="#004A3D" d="M179.265,57.566c-1.703-3.236-5.73-4.287-7.383-4.589c-3.137-0.572-8.319-0.628-8.571-0.629
		c-0.22,0.001-5.403,0.057-8.538,0.629c-1.654,0.302-5.682,1.353-7.384,4.589c-1.038,1.973-0.979,4.277,0.175,6.85
		c3.3,7.357,11.405,11.874,15.763,11.874c4.358,0,12.462-4.517,15.763-11.874C180.244,61.843,180.302,59.539,179.265,57.566
		 M175.921,62.994c-2.734,6.094-9.708,9.823-12.595,9.823c-2.886,0-9.861-3.729-12.594-9.823c-0.696-1.549-0.787-2.831-0.271-3.812
		c0.811-1.54,3.08-2.45,4.934-2.789c2.842-0.519,7.896-0.572,7.915-0.573c0.049,0.001,5.104,0.054,7.946,0.573
		c1.854,0.339,4.123,1.249,4.934,2.789C176.707,60.163,176.617,61.445,175.921,62.994"/>
</g>
<g>
	<path fill="#004A3D" d="M167.683,57.868c-1.466,0-2.501,1.199-2.501,2.664v1.551c0,1.465,1.035,2.664,2.501,2.664
		c1.465,0,2.5-1.199,2.5-2.664v-1.551C170.183,59.067,169.148,57.868,167.683,57.868"/>
</g>
<g>
	<path fill="#004A3D" d="M158.683,57.868c-1.466,0-2.5,1.199-2.5,2.664v1.551c0,1.465,1.034,2.664,2.5,2.664
		c1.465,0,2.5-1.199,2.5-2.664v-1.551C161.183,59.067,160.147,57.868,158.683,57.868"/>
</g>
<g>
	<path fill="#004A3D" d="M199.615,153.931c2.396-1.444,4.775-2.765,6.994-4.448c3.393-2.572,6.562-5.363,9.404-8.569
		c3.168-3.575,5.748-7.532,8.127-11.655c3.051-5.285,4.863-11.028,6.361-16.901c1.064-4.164,1.58-8.391,1.773-12.675
		c0.195-4.304,0.447-8.605,0.699-13.316c0-0.605-0.023-1.615,0.008-2.623c0.014-0.492-0.152-0.684-0.646-0.763
		c-2.836-0.456-5.666-0.953-8.5-1.425c-5.477-0.913-10.766-2.475-15.852-4.688c-2.861-1.245-5.439-2.599-8.254-3.948
		c-0.275-0.132-0.547-0.212-0.547-0.238v-4.028h-0.027c1.061,1,2.111,1.278,3.189,1.798c5.422,2.619,10.926,5.137,16.793,6.563
		c3.881,0.944,7.939,1.633,11.863,2.392c1.686,0.326,3.182,0.628,5.182,0.92v4.436c0,0.24-0.213,0.478-0.225,0.719
		c-0.213,4.328-0.488,8.655-0.674,12.984c-0.197,4.605-0.826,9.144-1.953,13.621c-1.359,5.395-2.961,10.723-5.523,15.666
		c-4.199,8.105-9.438,15.438-16.566,21.308c-3.158,2.601-6.287,5.222-9.914,7.159c-0.691,0.37-1.176,0.691-1.898,0.995
		c-0.139,0.058-0.246,0.087-0.246,0.073v-3.176C199.183,154.103,199.437,154.038,199.615,153.931"/>
</g>
<g>
	<path fill="#012D25" d="M172.035,78.446c6.686-1.151,13.111-3.336,19.258-6.161c2.051-0.943,4.115-2.076,6.148-3.054
		c0.232-0.111,0.465-0.577,0.68-0.577h1.062v4.027c-1-0.036-0.938,0.036-1.326,0.23c-5.256,2.632-10.709,5.075-16.361,6.752
		c-3.822,1.134-7.785,1.872-11.721,2.469c-1.676,0.254-3.365,0.593-5.036,0.87c-0.406,0.068-0.542,0.251-0.523,0.645
		c0.223,4.993,0.396,9.989,0.654,14.98c0.136,2.603,0.238,5.224,0.639,7.792c0.962,6.181,2.536,12.213,5.118,17.936
		c3.479,7.713,8.146,14.613,14.396,20.357c3.316,3.047,6.719,6.018,10.723,8.173c0.822,0.441,1.904,0.846,2.777,1.169
		c0.121,0.045-0.34,0.063,0.66,0.057v3.177c-1-0.007-0.389-0.021-0.451-0.049c-0.99-0.427-2.115-0.837-3.053-1.367
		c-2.898-1.639-5.629-3.594-8.164-5.763c-3.619-3.098-7.125-6.321-10.045-10.111c-5.635-7.322-9.953-15.319-12.382-24.274
		c-1.27-4.676-2.36-9.391-2.697-14.236c-0.269-3.879-0.559-7.768-0.763-11.652c-0.1-1.888-0.446-3.777-0.446-5.665v-3.844
		C165.182,79.699,168.46,79.062,172.035,78.446"/>
</g>
<g>
	<path fill="#D7D7D7" d="M197.816,75.188c-5.391,2.75-10.977,5.349-16.887,6.776c-3.668,0.886-7.471,1.467-11.178,2.186
		c-1.01,0.196-2.047,0.395-3.141,0.609c0.08,2.405,0.129,4.693,0.227,6.979c0.111,2.656,0.268,5.31,0.371,7.967
		c0.371,9.536,2.525,18.648,6.83,27.161c3.785,7.483,8.893,13.967,15.463,19.27c2.615,2.111,5.529,4.074,8.572,5.524
		c0.309,0.147,0.109,0.223,1.109,0.234v2.217c-1,0.006-0.539-0.011-0.66-0.057c-0.873-0.323-1.838-0.727-2.658-1.169
		c-4.006-2.155-7.467-5.125-10.783-8.173c-6.25-5.744-10.949-12.644-14.428-20.357c-2.582-5.723-4.172-11.755-5.136-17.936
		c-0.398-2.568-0.514-5.189-0.647-7.792c-0.259-4.991-0.444-9.987-0.666-14.98c-0.018-0.394,0.101-0.577,0.506-0.645
		c1.672-0.277,3.332-0.616,5.006-0.87c3.938-0.596,7.84-1.335,11.662-2.468c5.652-1.678,11.223-4.121,16.479-6.752
		c0.389-0.195,0.326-0.267,1.326-0.23v2.216C198.183,74.886,198.218,74.982,197.816,75.188"/>
</g>
<g>
	<path fill="#E4E7E7" d="M207.984,76.868c5.086,2.213,10.375,3.774,15.85,4.687c2.834,0.473,5.664,0.969,8.5,1.425
		c0.496,0.08,0.662,0.272,0.646,0.763c-0.031,1.009-0.01,2.019-0.01,2.623c-0.252,4.712-0.508,9.012-0.703,13.316
		c-0.193,4.284-0.717,8.512-1.779,12.675c-1.5,5.874-3.326,11.617-6.377,16.902c-2.379,4.122-4.99,8.079-8.156,11.654
		c-2.842,3.207-6.072,5.997-9.463,8.57c-2.221,1.682-4.48,3.004-6.877,4.448c-0.178,0.106-0.432,0.171-0.432,0.18v-2.218
		c0,0.014,0.467-0.082,0.834-0.278c2.652-1.418,5.07-3,7.357-4.977c2.721-2.353,5.439-4.645,7.762-7.412
		c5.225-6.222,9.348-13.073,11.668-20.9c1.119-3.781,1.963-7.646,2.783-11.506c0.361-1.695,0.381-3.47,0.467-5.214
		c0.246-5.09,0.475-10.181,0.643-15.274c0.059-1.772,0.41-1.521-1.574-1.896c-4.244-0.802-8.52-1.467-12.713-2.48
		c-5.881-1.421-11.102-3.996-16.457-6.766c-0.357-0.185-0.77-0.281-0.77-0.292v-2.217c0,0.026,0.271,0.107,0.547,0.239
		C202.544,74.268,205.123,75.623,207.984,76.868"/>
</g>
<g>
	<path fill="#004A3D" d="M199.953,75.19c5.354,2.77,10.693,5.345,16.574,6.766c4.191,1.012,8.41,1.678,12.652,2.48
		c1.984,0.375,1.602,0.124,1.545,1.896c-0.17,5.093-0.416,10.184-0.664,15.274c-0.084,1.744-0.119,3.519-0.479,5.214
		c-0.822,3.86-1.684,7.725-2.805,11.506c-2.318,7.827-6.473,14.678-11.697,20.9c-2.322,2.766-5.102,5.058-7.822,7.411
		c-2.285,1.978-4.588,3.56-7.24,4.978c-0.367,0.196-0.834,0.291-0.834,0.278V74.898C199.183,74.91,199.595,75.005,199.953,75.19"/>
</g>
<g>
	<path fill="#012D25" d="M189.5,146.136c-6.57-5.303-11.68-11.787-15.465-19.27c-4.305-8.513-6.461-17.625-6.832-27.161
		c-0.104-2.656-0.27-5.311-0.381-7.966c-0.098-2.287-0.16-4.575-0.242-6.979c1.096-0.215,2.104-0.414,3.111-0.61
		c3.709-0.719,7.451-1.3,11.119-2.186c5.91-1.427,11.615-4.026,17.006-6.776c0.402-0.206,0.367-0.302,1.367-0.29v76.996
		c-1-0.01-0.801-0.087-1.109-0.234C195.029,150.21,192.115,148.247,189.5,146.136"/>
</g>
<g>
	<path fill="#AAAAAA" d="M198.671,85.343L198.671,85.343c-1.506,0.009-2.883,0.26-4.094,0.746c-1.131,0.455-2.127,1.116-2.957,1.966
		c-1.197,1.224-2.061,2.862-2.492,4.738c-0.295,1.274-0.303,2.271-0.299,2.488v5.34h4.32v-5.355l0.002-0.009l-0.002-0.031
		c0-0.149,0.039-2.613,1.58-4.169c0.92-0.929,2.225-1.384,3.98-1.391v-4.323H198.671z"/>
</g>
<g>
	<path fill="#D3D3D3" d="M208.294,92.792c-0.432-1.875-1.295-3.514-2.492-4.738c-0.83-0.85-1.826-1.511-2.957-1.966
		c-1.211-0.486-2.588-0.736-4.094-0.745v-0.001h-0.041v4.323c1.758,0.007,3.061,0.462,3.982,1.392
		c1.535,1.548,1.578,3.996,1.578,4.166v0.005v5.393h4.322V95.28C208.597,95.063,208.589,94.066,208.294,92.792"/>
</g>
<g>
	<path fill="#FBB040" d="M187.687,100.654c-1.523,0-2.504,1.08-2.504,2.521v20.871c0,1.441,0.98,2.608,2.504,2.608h11.496v-26
		H187.687z"/>
</g>
<g>
	<path fill="#FFB95C" d="M209.736,100.654h-10.553v26h10.553c1.521,0,2.447-1.167,2.447-2.608v-20.871
		C212.183,101.734,211.257,100.654,209.736,100.654"/>
</g>
<g>
	<path fill="#012D25" d="M203.082,111.515c0-2.278-1.828-4.124-4.105-4.124s-3.891,1.846-3.891,4.124
		c0,1.442,0.098,2.711,2.098,3.448v6.922c0,0.188-0.299,0.769-0.109,0.769h3.842c0.188,0,0.268-0.581,0.268-0.769v-6.922
		C202.183,114.226,203.082,112.957,203.082,111.515"/>
</g>
<g>
	<path fill="#004A3D" d="M162.046,6.256c-16.054,0-29.067,5.421-29.067,12.11v0.472v2.933l4.158,1.085l3.089,11.361h43.639
		l3.09-11.361l4.158-1.085v-2.933v-0.472C191.113,11.677,178.099,6.256,162.046,6.256"/>
</g>
<g>
	<path fill="#012D25" d="M183.865,34.654h-43.639c-0.319,0-0.6-0.078-0.683-0.387l-2.981-10.897l-3.806-0.947
		c-0.311-0.082-0.573-0.329-0.573-0.651v-3.405c0-7.188,13.304-12.818,30-12.818c16.696,0,30,5.63,30,12.818v3.405
		c0,0.322-0.398,0.604-0.711,0.685l-3.852,0.981l-3.027,10.829C184.509,34.576,184.185,34.654,183.865,34.654 M140.768,33.654
		h42.556l2.947-10.911c0.066-0.245,0.148-0.471,0.393-0.535l3.52-0.983v-2.858c0-6.181-12.629-11.402-28-11.402
		c-15.372,0-28,5.221-28,11.402v2.858l3.381,0.947c0.245,0.064,0.314,0.326,0.381,0.571L140.768,33.654z"/>
</g>
<g>
	<polygon fill="#004A3D" points="139.05,30.654 140.226,34.654 183.865,34.654 185.041,30.654 	"/>
</g>
<g>
	<path fill="#012D25" d="M184.406,35.654h-44.721l-1.562-6h47.846L184.406,35.654z M140.768,34.654h42.556l0.791-3h-44.139
		L140.768,34.654z"/>
</g>
<g>
	<path fill="#012D25" d="M162.045,41.434c12.103,0,21.914-2.78,21.914-6.78h-43.826C140.133,38.654,149.943,41.434,162.045,41.434"
		/>
</g>
<g>
	<path fill="#012D25" d="M161.683,42.544c-10.966,0-22.5-2.624-22.5-7.488v-0.402h45v0.402
		C184.183,39.92,172.648,42.544,161.683,42.544 M141.013,35.654c1.275,3,9.558,5.364,21.032,5.364
		c11.476,0,19.757-2.364,21.033-5.364H141.013z"/>
</g>
<g>
	<path fill="#D7D7D7" d="M161.926,10.861c-0.948,0.483-1.938,0.94-2.978,1.191c-0.645,0.156-1.317,0.258-1.969,0.385
		c-0.178,0.034-0.363,0.07-0.555,0.107c0.015,0.423,0.022,0.825,0.039,1.227c0.02,0.467,0.047,0.934,0.065,1.401
		c0.065,1.677,0.444,3.279,1.201,4.776c0.665,1.316,1.563,2.456,2.718,3.389c0.46,0.371,0.989,0.716,1.525,0.972
		c0.054,0.026,0.211,0.039,0.211,0.041v0.389c0,0.002-0.111-0.002-0.133-0.009c-0.153-0.057-0.331-0.128-0.476-0.206
		c-0.704-0.379-1.316-0.901-1.9-1.437c-1.099-1.01-1.927-2.224-2.539-3.58c-0.454-1.006-0.734-2.067-0.903-3.154
		c-0.071-0.452-0.092-0.912-0.116-1.37c-0.044-0.878-0.078-1.757-0.117-2.635c-0.003-0.069,0.018-0.101,0.089-0.113
		c0.294-0.049,0.586-0.108,0.88-0.153c0.692-0.105,1.379-0.235,2.051-0.434c0.994-0.295,1.99-0.725,2.914-1.187
		c0.068-0.035,0.25-0.047,0.25-0.041v0.39C162.183,10.808,161.997,10.825,161.926,10.861"/>
</g>
<g>
	<path fill="#E4E7E7" d="M163.697,11.156c0.895,0.389,1.825,0.664,2.787,0.824c0.5,0.083,0.996,0.171,1.496,0.251
		c0.086,0.014,0.115,0.048,0.113,0.134c-0.006,0.177-0.002,0.355-0.002,0.461c-0.045,0.829-0.09,1.585-0.123,2.342
		c-0.035,0.753-0.127,1.497-0.312,2.229c-0.264,1.032-0.586,2.043-1.123,2.972c-0.417,0.725-0.876,1.421-1.435,2.049
		c-0.499,0.564-1.067,1.055-1.664,1.508c-0.389,0.295-0.771,0.527-1.192,0.781c-0.031,0.019-0.06,0.031-0.06,0.032v-0.39
		c0,0.002,0.066-0.014,0.13-0.049c0.467-0.249,0.884-0.527,1.286-0.875c0.479-0.414,0.953-0.817,1.361-1.303
		c0.919-1.094,1.642-2.299,2.05-3.675c0.197-0.666,0.344-1.345,0.488-2.024c0.064-0.298,0.066-0.61,0.082-0.917
		c0.043-0.895,0.082-1.79,0.111-2.686c0.012-0.311,0.072-0.267-0.275-0.333c-0.746-0.141-1.499-0.258-2.236-0.436
		c-1.034-0.25-1.936-0.703-2.878-1.19c-0.063-0.033-0.119-0.05-0.119-0.052V10.42c0,0.004,0.032,0.018,0.08,0.042
		C162.757,10.699,163.194,10.937,163.697,11.156"/>
</g>
<g>
	<path fill="#FFB95C" d="M162.302,10.861c0.941,0.487,1.872,0.939,2.906,1.189c0.738,0.179,1.476,0.296,2.222,0.436
		c0.35,0.067,0.279,0.022,0.27,0.334c-0.029,0.895-0.074,1.791-0.117,2.686c-0.016,0.307-0.021,0.619-0.086,0.917
		c-0.145,0.679-0.295,1.358-0.492,2.023c-0.408,1.377-1.139,2.582-2.058,3.676c-0.409,0.486-0.898,0.889-1.376,1.303
		c-0.402,0.348-0.79,0.626-1.257,0.875c-0.065,0.035-0.13,0.051-0.13,0.049v-13.54C162.183,10.811,162.239,10.828,162.302,10.861"/>
</g>
<g>
	<path fill="#FBB040" d="M160.447,23.337c-1.155-0.933-2.054-2.073-2.72-3.389c-0.757-1.497-1.136-3.099-1.202-4.776
		c-0.017-0.467-0.047-0.934-0.066-1.401c-0.017-0.402-0.029-0.804-0.042-1.227c0.192-0.038,0.369-0.073,0.547-0.107
		c0.652-0.127,1.31-0.229,1.955-0.385c1.039-0.251,2.058-0.708,3.007-1.191c0.071-0.036,0.256-0.053,0.256-0.051v13.54
		c0-0.002-0.157-0.015-0.212-0.041C161.435,24.053,160.907,23.708,160.447,23.337"/>
</g>
<g>
</g>
<g>
</g>
<g>
</g>
<g>
</g>
<g>
</g>
<g>
</g>
</svg>
