<?xml version="1.0" encoding="utf-8"?>
<!-- Generator: Adobe Illustrator 16.0.0, SVG Export Plug-In . SVG Version: 6.00 Build 0)  -->
<!DOCTYPE svg PUBLIC "-//W3C//DTD SVG 1.1//EN" "http://www.w3.org/Graphics/SVG/1.1/DTD/svg11.dtd">
<svg version="1.1" id="Capa_1" xmlns="http://www.w3.org/2000/svg" xmlns:xlink="http://www.w3.org/1999/xlink" x="0px" y="0px"
	 width="180px" height="304.5px" viewBox="0 0 180 304.5" enable-background="new 0 0 180 304.5" xml:space="preserve">
<polygon fill="#EEEEEE" points="58.047,99 39.692,99 7.988,303.695 174.851,303.594 143.147,99 "/>
<polygon fill="none" stroke="#D6D6D6" stroke-miterlimit="10" points="58.047,99.5 39.692,99.5 7.988,303.945 174.851,303.969 
	143.147,99.5 "/>
<rect x="56.419" y="98" fill="#AAAAAA" width="70" height="206"/>
<rect x="56.919" y="98.5" fill="none" stroke="#9E9E9E" stroke-miterlimit="10" width="69" height="206"/>
<rect x="74.419" y="130" fill="#FFFFFF" width="36" height="18"/>
<rect x="66.419" y="99" fill="#FFFFFF" width="52" height="13"/>
<g opacity="0.64">
	<g>
		<defs>
			<rect id="SVGID_1_" x="70.419" y="101" width="27" height="9"/>
		</defs>
		<clipPath id="SVGID_2_">
			<use xlink:href="#SVGID_1_"  overflow="visible"/>
		</clipPath>
		<rect x="70.419" y="101" clip-path="url(#SVGID_2_)" fill="#004B40" width="27" height="9"/>
	</g>
</g>
<g opacity="0.64">
	<g>
		<defs>
			<rect id="SVGID_3_" x="101.419" y="103" width="11" height="6"/>
		</defs>
		<clipPath id="SVGID_4_">
			<use xlink:href="#SVGID_3_"  overflow="visible"/>
		</clipPath>
		<rect x="101.419" y="103" clip-path="url(#SVGID_4_)" fill="#1EEA00" width="11" height="6"/>
	</g>
</g>
<path fill="#7DF57D" d="M67.837,92.664l-4.964,3.145L62,95.08c-0.419-0.348-10.242-8.859-10.242-36.838
	c0-6.487,0.99-12.867,2.941-18.98c-3.811-4.014-4.791-7.627-6.015-12.136c-0.326-1.202-0.663-2.445-1.081-3.803
	c-1.298-4.213-2.78-7.525-2.795-7.558l-0.713-1.586l1.653-0.539c2.982-0.973,5.971-1.466,8.883-1.466
	c9.393,0,15.596,5.003,17.675,6.974c6.006-2.115,12.432-3.186,19.115-3.186c6.685,0,13.11,1.071,19.117,3.186
	c2.079-1.971,8.282-6.974,17.674-6.974c2.912,0,5.901,0.493,8.883,1.466l1.653,0.539l-0.713,1.586
	c-0.015,0.033-1.497,3.345-2.794,7.558c-0.418,1.358-0.756,2.601-1.082,3.803c-1.224,4.509-2.204,8.122-6.016,12.136
	c1.953,6.118,2.941,12.496,2.941,18.98c0,27.979-9.823,36.49-10.241,36.838l-0.875,0.729l-4.964-3.145l-4.394,3.341l-0.96-1.093
	c-0.133-0.151-2.825-3.242-4.014-6.487c-4.673,1.118-9.446,1.684-14.217,1.684c-4.768,0-9.542-0.566-14.215-1.684
	c-1.189,3.244-3.882,6.336-4.014,6.487l-0.96,1.093L67.837,92.664z"/>
<path fill="#AFFF6A" d="M91.421,56.711c3.42,0,10.115-3.88,12.753-9.757c2.629-5.86-3.067-7.699-5.34-8.113
	c-2.722-0.497-7.413-0.541-7.413-0.541s-4.692,0.044-7.415,0.541c-2.272,0.414-7.968,2.253-5.339,8.113
	C81.305,52.831,88.001,56.711,91.421,56.711"/>
<path fill="#004B40" d="M99.116,37.304c-2.821-0.514-7.483-0.564-7.709-0.566c-0.197,0.002-4.859,0.052-7.68,0.566
	c-1.487,0.272-5.11,1.218-6.641,4.128c-0.934,1.774-0.88,3.847,0.158,6.161c2.968,6.617,10.258,10.68,14.177,10.68
	c3.92,0,11.209-4.063,14.178-10.68c1.038-2.314,1.091-4.387,0.158-6.161C104.225,38.522,100.602,37.576,99.116,37.304
	 M102.749,46.315c-2.458,5.48-8.731,8.835-11.328,8.835c-2.596,0-8.869-3.355-11.327-8.835c-0.626-1.394-0.707-2.547-0.243-3.429
	c0.728-1.385,2.77-2.204,4.437-2.509c2.556-0.467,7.103-0.516,7.118-0.516c0.046,0,4.592,0.049,7.149,0.516
	c1.667,0.305,3.709,1.124,4.438,2.509C103.456,43.768,103.374,44.921,102.749,46.315 M137.579,12.155
	c-3.138-1.023-6.29-1.543-9.367-1.543c-9.008,0-15.277,4.369-18.035,6.762C104.257,15.4,97.958,14.4,91.42,14.4
	c-6.536,0-12.835,1-18.755,2.974c-2.758-2.393-9.026-6.762-18.035-6.762c-3.077,0-6.228,0.52-9.367,1.543l-3.308,1.079l1.428,3.172
	c0.014,0.032,1.46,3.267,2.726,7.377c0.411,1.333,0.745,2.563,1.067,3.753c1.167,4.3,2.191,8.075,5.765,12.119
	c-1.823,6.007-2.746,12.248-2.746,18.586c0,11.873,1.719,21.772,5.108,29.424c2.639,5.959,5.39,8.361,5.695,8.615l1.749,1.457
	l1.923-1.218l3.086-1.955l2.371,1.803l2.317,1.762l1.921-2.187c0.308-0.351,2.406-2.791,3.771-5.703
	c4.377,0.951,8.834,1.433,13.284,1.433c4.453,0,8.909-0.481,13.285-1.433c1.365,2.912,3.463,5.352,3.771,5.703l1.921,2.187
	l2.316-1.762l2.371-1.803l3.086,1.955l1.923,1.218l1.749-1.457c0.305-0.254,3.057-2.656,5.696-8.615
	c3.388-7.652,5.106-17.551,5.106-29.424c0-6.341-0.923-12.585-2.745-18.586c3.573-4.044,4.598-7.819,5.766-12.119
	c0.322-1.19,0.656-2.42,1.066-3.753c1.266-4.11,2.712-7.345,2.727-7.378l1.424-3.171L137.579,12.155z M132.254,22.404
	c-0.433,1.408-0.777,2.678-1.11,3.905c-1.036,3.82-1.8,6.609-4.178,9.558c-2.093-5.431-4.417-9.105-5.5-10.665
	c0.719-1.126,2.634-3.466,7.034-5.537l-1.33-2.826c-7.318,3.445-8.943,7.784-9.009,7.966l-0.288,0.809l0.524,0.678
	c0.097,0.123,9.563,12.537,9.563,31.95c0,21.755-6.182,31.035-8.366,33.633l-4.753-3.012l-3.813,2.9
	c-0.87-1.059-1.963-2.617-2.5-4.117c1.317-0.385,2.629-0.801,3.926-1.276l-1.075-2.933c-6.427,2.355-13.142,3.549-19.959,3.549
	c-6.815,0-13.53-1.194-19.958-3.549l-1.074,2.933c1.296,0.475,2.608,0.891,3.925,1.276c-0.536,1.501-1.63,3.059-2.5,4.117L68,88.863
	l-4.763,3.019c-2.193-2.563-8.356-11.719-8.356-33.64c0-19.413,9.467-31.827,9.561-31.949l0.53-0.678l-0.291-0.81
	c-0.065-0.182-1.691-4.521-9.009-7.966l-1.33,2.826c4.408,2.075,6.322,4.419,7.035,5.535c-1.082,1.559-3.407,5.234-5.501,10.667
	c-2.378-2.949-3.141-5.738-4.177-9.558c-0.333-1.227-0.677-2.497-1.112-3.905c-0.801-2.605-1.657-4.847-2.236-6.275
	c13.722-3.59,22.021,5.464,22.378,5.863l0.711,0.803l1.004-0.375c5.929-2.213,12.313-3.334,18.977-3.334
	c6.665,0,13.05,1.121,18.978,3.334l1.002,0.37l0.712-0.795c0.358-0.402,8.657-9.455,22.38-5.866
	C133.913,17.557,133.057,19.799,132.254,22.404 M89.419,44.099v1.395c0,1.318-0.683,2.396-2,2.396c-1.318,0-2-1.078-2-2.396v-1.395
	c0-1.318,0.682-2.396,2-2.396C88.736,41.703,89.419,42.781,89.419,44.099 M76.067,36.444c0,1.898-1.539,3.437-3.437,3.437
	s-3.437-1.539-3.437-3.437s1.539-3.437,3.437-3.437S76.067,34.546,76.067,36.444 M97.419,44.099v1.395c0,1.318-0.683,2.396-2,2.396
	c-1.318,0-2-1.078-2-2.396v-1.395c0-1.318,0.682-2.396,2-2.396C96.737,41.703,97.419,42.781,97.419,44.099 M113.648,36.444
	c0,1.898-1.538,3.437-3.437,3.437s-3.437-1.539-3.437-3.437s1.538-3.437,3.437-3.437S113.648,34.546,113.648,36.444"/>
<g opacity="0.64">
	<g>
		<defs>
			<rect id="SVGID_5_" x="74.419" y="130" width="36" height="18"/>
		</defs>
		<clipPath id="SVGID_6_">
			<use xlink:href="#SVGID_5_"  overflow="visible"/>
		</clipPath>
		<rect x="74.419" y="130" clip-path="url(#SVGID_6_)" fill="#004B40" width="36" height="18"/>
	</g>
</g>
<g>
</g>
<g>
</g>
<g>
</g>
<g>
</g>
<g>
</g>
<g>
</g>
</svg>
