<svg id="Capa_1" data-name="Capa 1" xmlns="http://www.w3.org/2000/svg" xmlns:xlink="http://www.w3.org/1999/xlink" viewBox="0 0 121.87 129.93"><defs><linearGradient id="linear-gradient" x1="60.94" y1="33.6" x2="60.94" y2="78.79" gradientUnits="userSpaceOnUse"><stop offset="0.28" stop-color="#1eeb00"/><stop offset="0.51" stop-color="#1ee700"/><stop offset="0.73" stop-color="#1edb00"/><stop offset="0.95" stop-color="#1ec800"/><stop offset="1" stop-color="#1ec200"/></linearGradient></defs><title>Artboard 29</title><path d="M113.89,128.28h-8.55l-6.87-11.4h-.13v11.4h-7v-21h7v7.18h.13l6.7-7.18h8.38l-8.09,8.15Z" fill="#004b40"/><path d="M115.54,107.45a3,3,0,0,1,.25-1.23,3.22,3.22,0,0,1,1.68-1.68,3.14,3.14,0,0,1,2.46,0,3.22,3.22,0,0,1,1.68,1.68,3.14,3.14,0,0,1,0,2.46,3.22,3.22,0,0,1-1.68,1.68,3.14,3.14,0,0,1-2.46,0,3.22,3.22,0,0,1-1.68-1.68A3,3,0,0,1,115.54,107.45Zm.87,0a2.44,2.44,0,0,0,.18.93,2.35,2.35,0,0,0,.49.76,2.42,2.42,0,0,0,.73.51,2.18,2.18,0,0,0,1.79,0,2.42,2.42,0,0,0,.73-.51,2.35,2.35,0,0,0,.49-.76,2.52,2.52,0,0,0,0-1.86,2.35,2.35,0,0,0-.49-.76,2.43,2.43,0,0,0-.73-.51,2.18,2.18,0,0,0-1.79,0,2.42,2.42,0,0,0-.73.51,2.35,2.35,0,0,0-.49.76A2.44,2.44,0,0,0,116.41,107.45Zm1.08-1.69h1.17l.37,0a1.39,1.39,0,0,1,.47.12,1,1,0,0,1,.4.32,1,1,0,0,1,.17.62,1.12,1.12,0,0,1-.07.42.82.82,0,0,1-.17.27.72.72,0,0,1-.25.16,1.13,1.13,0,0,1-.29.07l.85,1.32h-.89l-.76-1.28h-.14v1.28h-.87Zm.86,1.38h.51l.17,0a.31.31,0,0,0,.13-.11.42.42,0,0,0,0-.4.31.31,0,0,0-.13-.11l-.17,0h-.51Z" fill="#004b40"/><path d="M80,128.28V116.82c0-2.32-.63-4.42-3.12-4.42s-3.71,2.11-3.71,4.51v11.37h-7v-21H73l.08,1.93a8.52,8.52,0,0,1,6.28-2.52c5.65,0,7.67,4.38,7.67,8.59v13Z" fill="#004b40"/><path d="M55.27,127.4v-19.2l6.6-2.53v24.27Z" fill="#004b40"/><path d="M40.31,129c-6.32,0-11.63-4.38-11.63-11.25S34,106.63,40.31,106.63,52,110.84,52,117.71,46.67,129,40.31,129Zm0-16.6c-3.24,0-4.93,2.65-4.93,5.35s1.73,5.43,5,5.43,5-2.74,5-5.43S43.55,112.36,40.31,112.36Z" fill="#004b40"/><path d="M23.24,121.36a5.43,5.43,0,1,1,0-7.13L27,109.89a11.16,11.16,0,1,0,0,15.8Z" fill="#004b40"/><circle cx="60.94" cy="9.25" r="7.88" fill="#fbb040"/><path d="M60.94,18.51a9.25,9.25,0,1,1,9.25-9.25A9.26,9.26,0,0,1,60.94,18.51Zm0-15.77a6.51,6.51,0,1,0,6.51,6.51A6.52,6.52,0,0,0,60.94,2.74Z" fill="#004b40"/><path d="M40.23,80.16l-4.36,2.76-.77-.64c-.37-.31-9-7.78-9-32.35a54.68,54.68,0,0,1,2.58-16.67c-3.35-3.53-4.21-6.7-5.28-10.66-.29-1.06-.58-2.15-.95-3.34A64.45,64.45,0,0,0,20,12.63l-.63-1.39,1.45-.47a25.17,25.17,0,0,1,7.8-1.29A22.88,22.88,0,0,1,44.15,15.6a51.75,51.75,0,0,1,33.57,0A22.88,22.88,0,0,1,93.24,9.47a25.17,25.17,0,0,1,7.8,1.29l1.45.47-.63,1.39a64.47,64.47,0,0,0-2.45,6.64c-.37,1.19-.66,2.28-.95,3.34-1.07,4-1.94,7.13-5.28,10.66a54.69,54.69,0,0,1,2.58,16.67c0,24.57-8.63,32-9,32.35l-.77.64-4.36-2.76-3.86,2.93-.84-1a21.19,21.19,0,0,1-3.52-5.7,53.41,53.41,0,0,1-25,0,21.19,21.19,0,0,1-3.52,5.7l-.84,1Z" fill="url(#linear-gradient)"/><path d="M60.94,48.58c3,0,8.88-3.41,11.2-8.57s-2.69-6.76-4.69-7.12a50.25,50.25,0,0,0-6.51-.48,50.25,50.25,0,0,0-6.51.48c-2,.36-7,2-4.69,7.12S57.93,48.58,60.94,48.58Z" fill="#afff6a"/><path d="M67.69,31.54a51,51,0,0,0-6.77-.5,50.92,50.92,0,0,0-6.74.5c-1.31.24-4.49,1.07-5.83,3.62a6,6,0,0,0,.14,5.41c2.61,5.81,9,9.38,12.45,9.38s9.84-3.57,12.45-9.38a6,6,0,0,0,.14-5.41C72.18,32.61,69,31.78,67.69,31.54Zm3.19,7.91c-2.16,4.81-7.67,7.76-9.95,7.76S53.15,44.27,51,39.45a3.42,3.42,0,0,1-.21-3c.64-1.22,2.43-1.94,3.9-2.2a49.14,49.14,0,0,1,6.25-.45,49.17,49.17,0,0,1,6.28.45c1.46.27,3.26,1,3.9,2.2A3.42,3.42,0,0,1,70.88,39.45Zm30.59-30A26.54,26.54,0,0,0,93.24,8.1,24.34,24.34,0,0,0,77.41,14a53.25,53.25,0,0,0-32.94,0A24.34,24.34,0,0,0,28.63,8.1,26.54,26.54,0,0,0,20.4,9.46l-2.9.95,1.25,2.79a63.12,63.12,0,0,1,2.39,6.48c.36,1.17.65,2.25.94,3.3,1,3.78,1.92,7.09,5.06,10.64a56.09,56.09,0,0,0-2.41,16.32c0,10.43,1.51,19.12,4.48,25.84,2.32,5.23,4.73,7.34,5,7.57l1.54,1.28,1.69-1.07,2.71-1.72,2.08,1.58,2,1.55L46,83a23.6,23.6,0,0,0,3.31-5A54.74,54.74,0,0,0,72.6,78a23.58,23.58,0,0,0,3.31,5L77.6,85l2-1.55,2.08-1.58,2.71,1.72,1.69,1.07,1.54-1.28c.27-.22,2.68-2.33,5-7.57,3-6.72,4.48-15.41,4.48-25.84a56.08,56.08,0,0,0-2.41-16.32c3.14-3.55,4-6.87,5.06-10.64.28-1,.58-2.13.94-3.3a63.13,63.13,0,0,1,2.39-6.48l1.25-2.78Zm-4.68,9c-.38,1.24-.68,2.35-1,3.43-.91,3.35-1.58,5.8-3.67,8.39a45.37,45.37,0,0,0-4.83-9.37c.63-1,2.31-3,6.18-4.86l-1.17-2.48c-6.43,3-7.85,6.83-7.91,7l-.25.71.46.59c.08.11,8.4,11,8.4,28.06C93,69,87.6,77.18,85.68,79.46L81.5,76.82l-3.35,2.55A13.27,13.27,0,0,1,76,75.75c1.16-.34,2.31-.7,3.45-1.12l-.94-2.58a50.84,50.84,0,0,1-35.05,0l-.94,2.58c1.14.42,2.29.78,3.45,1.12a13.26,13.26,0,0,1-2.2,3.62l-3.35-2.55-4.18,2.65c-1.93-2.25-7.34-10.29-7.34-29.54,0-17,8.31-27.95,8.4-28.06l.46-.6-.25-.71c-.06-.16-1.48-4-7.91-7l-1.17,2.48c3.87,1.82,5.55,3.88,6.18,4.86a45.39,45.39,0,0,0-4.83,9.37c-2.09-2.59-2.76-5-3.67-8.39-.29-1.08-.59-2.19-1-3.43-.7-2.29-1.46-4.26-2-5.51A20,20,0,0,1,42.77,18.1l.62.7.88-.33a48.88,48.88,0,0,1,33.33,0l.88.33.62-.7a20,20,0,0,1,19.65-5.15C98.25,14.2,97.5,16.17,96.8,18.46ZM59.48,37.51v1.23a2.1,2.1,0,0,1-4.21,0V37.51a2.1,2.1,0,0,1,4.21,0Zm-12-6.72a3,3,0,1,1-3-3A3,3,0,0,1,47.45,30.79ZM66.6,37.51v1.23a2.1,2.1,0,0,1-4.21,0V37.51a2.1,2.1,0,0,1,4.21,0Zm13.85-6.72a3,3,0,1,1-3-3A3,3,0,0,1,80.46,30.79Z" fill="#004b40"/></svg>