<?xml version="1.0" encoding="utf-8"?>
<!-- Generator: Adobe Illustrator 16.0.0, SVG Export Plug-In . SVG Version: 6.00 Build 0)  -->
<!DOCTYPE svg PUBLIC "-//W3C//DTD SVG 1.1//EN" "http://www.w3.org/Graphics/SVG/1.1/DTD/svg11.dtd">
<svg version="1.1" id="Capa_1" xmlns="http://www.w3.org/2000/svg" xmlns:xlink="http://www.w3.org/1999/xlink" x="0px" y="0px"
	 width="340px" height="253.001px" viewBox="0 0 340 253.001" enable-background="new 0 0 340 253.001" xml:space="preserve">
<g opacity="0.2">
	<g>
		<defs>
			<rect id="SVGID_1_" x="17.885" y="176.998" width="152.457" height="32.951"/>
		</defs>
		<clipPath id="SVGID_2_">
			<use xlink:href="#SVGID_1_"  overflow="visible"/>
		</clipPath>
		<polygon clip-path="url(#SVGID_2_)" fill="#BFD3DD" points="17.885,209.949 95.097,198.146 170.342,209.457 95.097,176.998 		"/>
	</g>
</g>
<g opacity="0.2">
	<g>
		<defs>
			<rect id="SVGID_3_" x="177.719" y="176.998" width="152.458" height="32.951"/>
		</defs>
		<clipPath id="SVGID_4_">
			<use xlink:href="#SVGID_3_"  overflow="visible"/>
		</clipPath>
		<polygon clip-path="url(#SVGID_4_)" fill="#BFD3DD" points="177.72,209.949 254.932,198.146 330.176,209.457 254.932,176.998 		
			"/>
	</g>
</g>
<polygon fill="#D3D3D3" points="95.969,189.785 15.969,212.408 15.969,42.245 95.969,19.623 "/>
<polygon fill="#AAAAAA" points="94.969,189.785 174.969,212.408 174.969,42.245 94.969,19.623 "/>
<polygon fill="#D3D3D3" points="254.969,189.785 174.969,212.408 174.969,42.245 254.969,19.623 "/>
<polygon fill="#AAAAAA" points="253.969,189.785 333.969,212.408 333.969,42.245 253.969,19.623 "/>
<polygon fill="#FFFFFF" points="94.969,176.988 28.969,195.687 28.969,55.042 94.969,36.344 "/>
<polygon fill="#F4F4F4" points="94.969,176.988 173.969,198.146 173.969,57.501 94.969,36.344 "/>
<polygon fill="#F4F4F4" points="253.969,176.988 319.969,195.687 319.969,55.042 253.969,36.344 "/>
<polygon fill="#FFFFFF" points="253.969,176.988 173.969,198.146 173.969,57.501 253.969,36.344 "/>
<polygon fill="#AAAAAA" points="94.969,84.707 28.969,103.678 28.969,91.708 94.969,72.737 "/>
<polygon fill="#AAAAAA" points="94.969,150.706 28.969,169.676 28.969,157.706 94.969,138.736 "/>
<polygon fill="#AAAAAA" points="94.969,84.707 173.969,103.887 173.969,91.917 94.969,72.737 "/>
<polygon fill="#AAAAAA" points="94.969,151.1 173.969,170.279 173.969,158.31 94.969,139.129 "/>
<polygon fill="#AAAAAA" points="94.969,115.625 28.969,134.596 28.969,122.625 94.969,103.655 "/>
<polygon fill="#AAAAAA" points="94.969,116.018 147.969,128.967 147.969,116.997 94.969,104.048 "/>
<polygon fill="#AAAAAA" points="139.969,93.786 139.969,189.047 151.969,192.393 151.969,90.939 "/>
<polygon fill="#AAAAAA" points="274.969,87.884 274.969,183.146 286.969,186.588 286.969,85.037 "/>
<polygon fill="#AAAAAA" points="253.969,84.707 319.969,103.678 319.969,91.708 253.969,72.737 "/>
<polygon fill="#AAAAAA" points="253.969,84.707 173.969,103.887 173.969,91.917 253.969,72.737 "/>
<polygon fill="#AAAAAA" points="253.969,150.607 319.969,169.579 319.969,157.609 253.969,138.638 "/>
<polygon fill="#AAAAAA" points="253.969,150.607 173.969,169.788 173.969,157.818 253.969,138.638 "/>
<rect x="228.969" y="54.355" fill="#7DF57D" width="4" height="11"/>
<polygon fill="#7DF57D" points="207.969,80.738 229.969,75.508 229.969,30.355 207.969,30.355 "/>
<rect x="219.969" y="34.355" fill="#FFFFFF" width="6" height="3"/>
<rect x="219.969" y="40.355" fill="#FFFFFF" width="6" height="3"/>
<rect x="219.969" y="46.355" fill="#FFFFFF" width="6" height="3"/>
<rect x="219.969" y="52.355" fill="#FFFFFF" width="6" height="3"/>
<rect x="219.969" y="59.355" fill="#FFFFFF" width="6" height="3"/>
<rect x="219.969" y="65.355" fill="#FFFFFF" width="6" height="3"/>
<rect x="212.969" y="34.355" fill="#FFFFFF" width="5" height="3"/>
<rect x="212.969" y="40.355" fill="#FFFFFF" width="5" height="3"/>
<rect x="212.969" y="46.355" fill="#FFFFFF" width="5" height="3"/>
<rect x="212.969" y="52.355" fill="#FFFFFF" width="5" height="3"/>
<rect x="212.969" y="59.355" fill="#FFFFFF" width="5" height="3"/>
<rect x="212.969" y="65.355" fill="#FFFFFF" width="5" height="3"/>
<polygon fill="#7DF57D" points="37.969,84.446 59.969,78.822 59.969,33.355 37.969,33.355 "/>
<rect x="49.969" y="37.355" fill="#FFFFFF" width="6" height="4"/>
<rect x="49.969" y="43.355" fill="#FFFFFF" width="6" height="4"/>
<rect x="49.969" y="49.355" fill="#FFFFFF" width="6" height="4"/>
<rect x="49.969" y="55.355" fill="#FFFFFF" width="6" height="4"/>
<rect x="49.969" y="62.355" fill="#FFFFFF" width="6" height="3"/>
<rect x="49.969" y="68.355" fill="#FFFFFF" width="6" height="3"/>
<rect x="42.969" y="37.355" fill="#FFFFFF" width="5" height="4"/>
<rect x="42.969" y="43.355" fill="#FFFFFF" width="5" height="4"/>
<rect x="42.969" y="49.355" fill="#FFFFFF" width="5" height="4"/>
<rect x="42.969" y="55.355" fill="#FFFFFF" width="5" height="4"/>
<rect x="42.969" y="62.355" fill="#FFFFFF" width="5" height="3"/>
<rect x="42.969" y="68.355" fill="#FFFFFF" width="5" height="3"/>
<rect x="142.969" y="60.355" fill="#7DF57D" width="4" height="10"/>
<polygon fill="#7DF57D" points="167.969,86.555 145.969,81.325 145.969,36.355 167.969,36.355 "/>
<rect x="149.969" y="40.355" fill="#FFFFFF" width="6" height="3"/>
<rect x="149.969" y="46.355" fill="#FFFFFF" width="6" height="3"/>
<rect x="149.969" y="52.355" fill="#FFFFFF" width="6" height="3"/>
<rect x="149.969" y="58.355" fill="#FFFFFF" width="6" height="3"/>
<rect x="149.969" y="64.355" fill="#FFFFFF" width="6" height="4"/>
<rect x="149.969" y="70.355" fill="#FFFFFF" width="6" height="4"/>
<rect x="157.969" y="40.355" fill="#FFFFFF" width="5" height="3"/>
<rect x="157.969" y="46.355" fill="#FFFFFF" width="5" height="3"/>
<rect x="157.969" y="52.355" fill="#FFFFFF" width="5" height="3"/>
<rect x="157.969" y="58.355" fill="#FFFFFF" width="5" height="3"/>
<rect x="157.969" y="64.355" fill="#FFFFFF" width="5" height="4"/>
<rect x="157.969" y="70.355" fill="#FFFFFF" width="5" height="4"/>
<polygon fill="#7DF57D" points="138.969,79.69 116.969,74.461 116.969,39.355 138.969,39.355 "/>
<rect x="121.969" y="45.355" fill="#FFFFFF" width="6" height="3"/>
<rect x="121.969" y="51.355" fill="#FFFFFF" width="6" height="3"/>
<rect x="121.969" y="58.355" fill="#FFFFFF" width="6" height="3"/>
<rect x="121.969" y="63.355" fill="#FFFFFF" width="6" height="4"/>
<rect x="128.969" y="45.355" fill="#FFFFFF" width="6" height="3"/>
<rect x="128.969" y="51.355" fill="#FFFFFF" width="6" height="3"/>
<rect x="128.969" y="58.355" fill="#FFFFFF" width="6" height="3"/>
<rect x="128.969" y="63.355" fill="#FFFFFF" width="6" height="4"/>
<rect x="184.969" y="8.355" fill="#7DF57D" width="15" height="7"/>
<polygon fill="#7DF57D" points="202.969,81.938 181.969,86.328 181.969,12.355 202.969,12.355 "/>
<rect x="185.969" y="35.355" fill="#FFFFFF" width="6" height="4"/>
<rect x="185.969" y="41.355" fill="#FFFFFF" width="6" height="4"/>
<rect x="185.969" y="47.355" fill="#FFFFFF" width="6" height="4"/>
<rect x="185.969" y="53.355" fill="#FFFFFF" width="6" height="4"/>
<rect x="185.969" y="60.355" fill="#FFFFFF" width="6" height="3"/>
<rect x="185.969" y="66.355" fill="#FFFFFF" width="6" height="3"/>
<rect x="192.969" y="35.355" fill="#FFFFFF" width="6" height="4"/>
<rect x="192.969" y="41.355" fill="#FFFFFF" width="6" height="4"/>
<rect x="192.969" y="47.355" fill="#FFFFFF" width="6" height="4"/>
<rect x="192.969" y="53.355" fill="#FFFFFF" width="6" height="4"/>
<rect x="192.969" y="60.355" fill="#FFFFFF" width="6" height="3"/>
<rect x="192.969" y="66.355" fill="#FFFFFF" width="6" height="3"/>
<rect x="185.969" y="17.355" fill="#FFFFFF" width="6" height="4"/>
<rect x="185.969" y="24.355" fill="#FFFFFF" width="6" height="3"/>
<rect x="185.969" y="30.355" fill="#FFFFFF" width="6" height="3"/>
<rect x="192.969" y="17.355" fill="#FFFFFF" width="6" height="4"/>
<rect x="192.969" y="24.355" fill="#FFFFFF" width="6" height="3"/>
<rect x="192.969" y="30.355" fill="#FFFFFF" width="6" height="3"/>
<path fill="#7DF57D" d="M295.87,80.605c0.441-0.514,0.797-1.144,0.99-1.874c0.589-2.21-0.426-4.395-2.265-4.884
	c-0.518-0.138-1.042-0.113-1.547,0.025c0.015-0.039,0.031-0.076,0.043-0.117c0.42-1.578-0.305-3.139-1.618-3.488
	c-0.259-0.07-0.521-0.073-0.778-0.041c0.329-1.715-0.479-3.35-1.913-3.731c-1.145-0.305-2.351,0.283-3.075,1.374
	c-0.15-0.615-0.56-1.106-1.134-1.271c-0.049-1.79-1.038-3.332-2.589-3.744c-1.77-0.472-3.638,0.687-4.46,2.64
	c-0.379-0.389-0.833-0.686-1.37-0.829c-1.841-0.49-3.808,0.901-4.395,3.105c-0.061,0.224-0.09,0.449-0.117,0.665
	c-0.198-0.102-0.405-0.192-0.629-0.252c-2.035-0.541-4.214,1.004-4.863,3.444c-0.093,0.347-0.141,0.691-0.163,1.028L295.87,80.605z"
	/>
<path fill="#7DF57D" d="M313.044,85.135c0.289-0.336,0.523-0.749,0.65-1.227c0.385-1.446-0.279-2.877-1.483-3.197
	c-0.34-0.091-0.683-0.074-1.013,0.016c0.009-0.024,0.02-0.048,0.026-0.076c0.275-1.032-0.198-2.054-1.056-2.283
	c-0.172-0.045-0.343-0.048-0.512-0.028c0.216-1.122-0.315-2.192-1.25-2.44c-0.752-0.2-1.54,0.185-2.016,0.9
	c-0.098-0.404-0.365-0.726-0.74-0.833c-0.032-1.172-0.681-2.181-1.695-2.451c-1.159-0.308-2.382,0.45-2.918,1.728
	c-0.248-0.254-0.547-0.449-0.898-0.542c-1.205-0.321-2.492,0.59-2.876,2.032c-0.039,0.147-0.059,0.293-0.078,0.435
	c-0.129-0.067-0.265-0.125-0.409-0.164c-1.332-0.354-2.759,0.655-3.184,2.253c-0.061,0.227-0.092,0.453-0.107,0.673L313.044,85.135z
	"/>
<rect x="241.969" y="46.355" fill="#7DF57D" width="24" height="5"/>
<polygon fill="#7DF57D" points="269.969,73.639 253.969,69.704 237.969,73.639 237.969,50.354 269.969,50.354 "/>
<rect x="241.969" y="53.355" fill="#FFFFFF" width="9" height="4"/>
<rect x="241.969" y="60.355" fill="#FFFFFF" width="9" height="3"/>
<rect x="256.969" y="53.355" fill="#FFFFFF" width="9" height="4"/>
<rect x="256.969" y="60.355" fill="#FFFFFF" width="9" height="3"/>
<path fill="#7DF57D" d="M57.583,144.159c0.093-0.507,0.084-1.056-0.068-1.608c-0.46-1.674-1.962-2.719-3.355-2.334
	c-0.392,0.106-0.726,0.324-1.004,0.607c-0.005-0.031-0.008-0.062-0.017-0.092c-0.329-1.196-1.402-1.943-2.396-1.668
	c-0.196,0.053-0.369,0.15-0.526,0.27c-0.44-1.248-1.596-2.011-2.681-1.714c-0.868,0.24-1.433,1.086-1.491,2.079
	c-0.334-0.346-0.79-0.512-1.23-0.4c-0.717-1.154-1.956-1.785-3.13-1.463c-1.341,0.368-2.123,1.844-1.914,3.438
	c-0.397-0.111-0.809-0.132-1.215-0.019c-1.394,0.383-2.152,2.047-1.693,3.717c0.047,0.17,0.113,0.33,0.178,0.481
	c-0.169,0.009-0.339,0.029-0.509,0.075c-1.542,0.424-2.378,2.271-1.87,4.119c0.072,0.263,0.173,0.508,0.286,0.736L57.583,144.159z"
	/>
<polygon fill="#7DF57D" points="70.56,141.104 52.969,145.326 52.969,126.75 61.943,119.877 70.562,126.638 "/>
<rect x="55.969" y="128.355" fill="#FFFFFF" width="12" height="4"/>
<polygon fill="#7DF57D" points="63.969,142.621 59.969,143.85 59.969,135.134 63.969,135.175 "/>
<polygon fill="#7DF57D" points="91.474,136.248 73.969,140.469 73.969,121.894 82.858,115.021 91.476,121.781 "/>
<rect x="76.969" y="124.355" fill="#FFFFFF" width="12" height="3"/>
<polygon fill="#7DF57D" points="84.969,137.764 80.969,138.993 80.969,130.277 84.969,130.318 "/>
<polygon fill="#7DF57D" points="98.391,136.248 115.969,140.469 115.969,121.894 107.007,115.021 98.389,121.781 "/>
<rect x="100.969" y="124.355" fill="#FFFFFF" width="12" height="3"/>
<polygon fill="#7DF57D" points="104.969,137.764 108.969,138.993 108.969,130.277 104.969,130.318 "/>
<path fill="#7DF57D" d="M132.741,144.105c0.27-0.352,0.48-0.776,0.581-1.26c0.303-1.466-0.439-2.857-1.66-3.111
	c-0.343-0.07-0.685-0.035-1.01,0.074c0.007-0.025,0.018-0.05,0.023-0.08c0.217-1.045-0.312-2.039-1.182-2.22
	c-0.173-0.034-0.344-0.028-0.511,0.001c0.152-1.132-0.437-2.171-1.386-2.367c-0.76-0.158-1.526,0.271-1.961,1.01
	c-0.12-0.396-0.405-0.702-0.786-0.789c-0.097-1.168-0.799-2.139-1.828-2.352c-1.175-0.244-2.353,0.58-2.818,1.887
	c-0.262-0.241-0.571-0.418-0.926-0.492c-1.222-0.254-2.456,0.727-2.759,2.189c-0.03,0.148-0.043,0.295-0.054,0.438
	c-0.132-0.06-0.271-0.11-0.418-0.142c-1.349-0.281-2.718,0.809-3.054,2.426c-0.047,0.231-0.066,0.457-0.069,0.679L132.741,144.105z"
	/>
<path fill="#7DF57D" d="M57.583,180.553c0.093-0.508,0.084-1.056-0.068-1.609c-0.46-1.673-1.962-2.719-3.355-2.334
	c-0.392,0.107-0.726,0.324-1.004,0.607c-0.005-0.031-0.008-0.062-0.017-0.092c-0.329-1.195-1.402-1.943-2.396-1.668
	c-0.196,0.053-0.369,0.151-0.526,0.27c-0.44-1.25-1.596-2.01-2.681-1.713c-0.868,0.24-1.433,1.086-1.491,2.078
	c-0.334-0.346-0.79-0.51-1.23-0.399c-0.717-1.155-1.956-1.786-3.13-1.464c-1.341,0.369-2.123,1.844-1.914,3.439
	c-0.397-0.111-0.809-0.133-1.215-0.02c-1.394,0.383-2.152,2.048-1.693,3.717c0.047,0.171,0.113,0.33,0.178,0.482
	c-0.169,0.008-0.339,0.029-0.509,0.074c-1.542,0.424-2.378,2.272-1.87,4.119c0.072,0.262,0.173,0.508,0.286,0.737L57.583,180.553z"
	/>
<polygon fill="#7DF57D" points="70.56,177.498 52.969,181.719 52.969,163.144 61.943,156.271 70.562,163.031 "/>
<rect x="55.969" y="165.355" fill="#FFFFFF" width="12" height="3"/>
<polygon fill="#7DF57D" points="63.969,179.014 59.969,180.242 59.969,171.527 63.969,171.568 "/>
<polygon fill="#7DF57D" points="91.474,172.641 73.969,176.862 73.969,158.287 82.858,151.414 91.476,158.174 "/>
<rect x="76.969" y="160.355" fill="#FFFFFF" width="12" height="3"/>
<polygon fill="#7DF57D" points="84.969,174.156 80.969,175.386 80.969,166.671 84.969,166.711 "/>
<polygon fill="#7DF57D" points="98.391,172.641 115.969,176.862 115.969,158.287 107.007,151.414 98.389,158.174 "/>
<rect x="100.969" y="160.355" fill="#FFFFFF" width="12" height="3"/>
<polygon fill="#7DF57D" points="104.969,174.156 108.969,175.386 108.969,166.671 104.969,166.711 "/>
<path fill="#7DF57D" d="M132.741,180.499c0.27-0.353,0.48-0.776,0.581-1.261c0.303-1.465-0.439-2.857-1.66-3.11
	c-0.343-0.071-0.685-0.036-1.01,0.073c0.007-0.025,0.018-0.049,0.023-0.079c0.217-1.045-0.312-2.039-1.182-2.22
	c-0.173-0.035-0.344-0.028-0.511,0c0.152-1.131-0.437-2.17-1.386-2.367c-0.76-0.158-1.526,0.271-1.961,1.011
	c-0.12-0.397-0.405-0.702-0.786-0.79c-0.097-1.168-0.799-2.139-1.828-2.352c-1.175-0.244-2.353,0.58-2.818,1.887
	c-0.262-0.241-0.571-0.418-0.926-0.492c-1.222-0.253-2.456,0.727-2.759,2.189c-0.03,0.148-0.043,0.296-0.054,0.439
	c-0.132-0.061-0.271-0.111-0.418-0.142c-1.349-0.281-2.718,0.808-3.054,2.426c-0.047,0.229-0.066,0.457-0.069,0.679L132.741,180.499
	z"/>
<path fill="#7DF57D" d="M57.583,109.795c0.093-0.507,0.084-1.056-0.068-1.609c-0.46-1.673-1.962-2.718-3.355-2.335
	c-0.392,0.108-0.726,0.325-1.004,0.609c-0.005-0.031-0.008-0.062-0.017-0.092c-0.329-1.196-1.402-1.943-2.396-1.669
	c-0.196,0.054-0.369,0.152-0.526,0.271c-0.44-1.25-1.596-2.011-2.681-1.714c-0.868,0.24-1.433,1.086-1.491,2.079
	c-0.334-0.346-0.79-0.512-1.23-0.4c-0.717-1.155-1.956-1.787-3.13-1.464c-1.341,0.368-2.123,1.844-1.914,3.439
	c-0.397-0.111-0.809-0.132-1.215-0.021c-1.394,0.384-2.152,2.049-1.693,3.718c0.047,0.17,0.113,0.329,0.178,0.482
	c-0.169,0.008-0.339,0.029-0.509,0.075c-1.542,0.424-2.378,2.272-1.87,4.119c0.072,0.262,0.173,0.508,0.286,0.737L57.583,109.795z"
	/>
<path fill="#7DF57D" d="M132.741,108.041c0.27-0.352,0.48-0.777,0.581-1.26c0.303-1.466-0.439-2.858-1.66-3.111
	c-0.343-0.071-0.685-0.036-1.01,0.073c0.007-0.025,0.018-0.049,0.023-0.079c0.217-1.045-0.312-2.039-1.182-2.22
	c-0.173-0.035-0.344-0.028-0.511,0.001c0.152-1.132-0.437-2.171-1.386-2.368c-0.76-0.158-1.526,0.271-1.961,1.011
	c-0.12-0.397-0.405-0.703-0.786-0.79c-0.097-1.168-0.799-2.139-1.828-2.352c-1.175-0.244-2.353,0.581-2.818,1.887
	c-0.262-0.241-0.571-0.418-0.926-0.492c-1.222-0.253-2.456,0.727-2.759,2.189c-0.03,0.149-0.043,0.296-0.054,0.439
	c-0.132-0.06-0.271-0.11-0.418-0.141c-1.349-0.281-2.718,0.808-3.054,2.426c-0.047,0.23-0.066,0.457-0.069,0.678L132.741,108.041z"
	/>
<path fill="#7DF57D" d="M119.809,75.147c0.27-0.352,0.48-0.776,0.581-1.26c0.303-1.466-0.44-2.858-1.66-3.111
	c-0.344-0.071-0.686-0.035-1.01,0.073c0.007-0.025,0.017-0.049,0.023-0.078c0.217-1.045-0.313-2.04-1.183-2.22
	c-0.173-0.036-0.343-0.029-0.511,0c0.153-1.132-0.436-2.17-1.385-2.367c-0.76-0.159-1.526,0.27-1.961,1.01
	c-0.12-0.397-0.405-0.703-0.786-0.79c-0.098-1.168-0.8-2.139-1.828-2.352c-1.175-0.244-2.354,0.581-2.818,1.887
	c-0.262-0.241-0.571-0.418-0.926-0.492c-1.222-0.253-2.456,0.728-2.76,2.19c-0.03,0.149-0.042,0.296-0.053,0.438
	c-0.133-0.059-0.271-0.11-0.419-0.141c-1.349-0.281-2.717,0.808-3.053,2.426c-0.048,0.231-0.067,0.457-0.07,0.679L119.809,75.147z"
	/>
<polygon fill="#7DF57D" points="161.969,151.124 159.969,150.732 159.969,130.355 161.969,130.355 "/>
<rect x="156.969" y="118.355" fill="#DDEFFA" width="8" height="20"/>
<rect x="156.969" y="116.355" fill="#7DF57D" width="8" height="2"/>
<path fill="#F44336" d="M162.707,122.666c0,1.067-0.864,1.931-1.931,1.931c-1.066,0-1.93-0.864-1.93-1.931
	c0-1.065,0.864-1.93,1.93-1.93C161.843,120.735,162.707,121.601,162.707,122.666"/>
<path fill="#7DF57D" d="M162.707,128.16c0,1.066-0.864,1.932-1.931,1.932c-1.066,0-1.93-0.865-1.93-1.932
	c0-1.065,0.864-1.931,1.93-1.931C161.843,126.229,162.707,127.095,162.707,128.16"/>
<path fill="#FFBE00" d="M162.707,133.804c0,1.065-0.864,1.931-1.931,1.931c-1.066,0-1.93-0.865-1.93-1.931s0.864-1.931,1.93-1.931
	C161.843,131.873,162.707,132.738,162.707,133.804"/>
<polygon fill="#7DF57D" points="266.969,137.543 264.969,137.15 264.969,117.355 266.969,117.355 "/>
<rect x="261.969" y="104.355" fill="#DDEFFA" width="7" height="20"/>
<rect x="261.969" y="103.355" fill="#7DF57D" width="7" height="1"/>
<path fill="#FF4C53" d="M267.682,109.084c0,1.067-0.865,1.931-1.931,1.931c-1.066,0-1.931-0.864-1.931-1.931
	c0-1.065,0.864-1.93,1.931-1.93C266.816,107.154,267.682,108.019,267.682,109.084"/>
<path fill="#7DF57D" d="M267.682,114.579c0,1.066-0.865,1.931-1.931,1.931c-1.066,0-1.931-0.865-1.931-1.931
	s0.864-1.931,1.931-1.931C266.816,112.648,267.682,113.513,267.682,114.579"/>
<path fill="#FFBE00" d="M267.682,120.222c0,1.065-0.865,1.93-1.931,1.93c-1.066,0-1.931-0.865-1.931-1.93
	c0-1.066,0.864-1.931,1.931-1.931C266.816,118.291,267.682,119.156,267.682,120.222"/>
<polygon fill="#7DF57D" points="93.969,69.704 63.969,77.573 63.969,52.355 93.969,52.355 "/>
<rect x="66.969" y="55.355" fill="#FFFFFF" width="24" height="4"/>
<rect x="66.969" y="61.355" fill="#FFFFFF" width="24" height="3"/>
<polygon fill="#7DF57D" points="70.56,106.74 52.969,110.961 52.969,92.386 61.943,85.513 70.562,92.273 "/>
<rect x="55.969" y="94.355" fill="#FFFFFF" width="12" height="4"/>
<polygon fill="#7DF57D" points="63.969,108.256 59.969,109.485 59.969,100.77 63.969,100.811 "/>
<polygon fill="#7DF57D" points="91.474,101.884 73.969,106.105 73.969,87.53 82.858,80.657 91.476,87.417 "/>
<rect x="76.969" y="89.355" fill="#FFFFFF" width="12" height="4"/>
<polygon fill="#7DF57D" points="84.969,103.399 80.969,104.628 80.969,95.914 84.969,95.954 "/>
<polygon fill="#7DF57D" points="98.391,100.232 115.969,104.453 115.969,85.878 107.007,79.005 98.389,85.766 "/>
<rect x="100.969" y="87.355" fill="#FFFFFF" width="12" height="4"/>
<polygon fill="#7DF57D" points="104.969,101.748 108.969,102.977 108.969,94.262 104.969,94.302 "/>
<path fill="#7DF57D" d="M294.771,176.129c0.095,2.733,0.016,5.812-0.187,8.369c0.971,0.188,2.506,0.816,3.553,0.617
	c-0.531-2.806-0.63-6.248-0.826-9.07c-0.764,0.088-1.068-0.233-1.757-0.533"/>
<path fill="#7DF57D" d="M301.166,168.782c0.645,3.399,0.014,6.466-1.297,8.31c-0.822,1.156-2.457,1.061-3.535,1.061
	c-1.121,0-3.404,0.178-4.243-1.061c-1.257-1.855-1.569-4.972-1.062-8.31c0.943-6.187,3.301-10.194,5.068-10.194
	C297.983,158.588,300.104,163.184,301.166,168.782"/>
<path fill="#7DF57D" d="M159.034,181.539c0.095,2.732,0.017,5.812-0.186,8.368c0.971,0.188,2.506,0.817,3.553,0.618
	c-0.532-2.807-0.629-6.247-0.826-9.071c-0.764,0.088-1.069-0.233-1.757-0.533"/>
<path fill="#7DF57D" d="M165.43,174.191c0.645,3.4,0.014,6.467-1.296,8.31c-0.823,1.157-2.457,1.062-3.537,1.062
	c-1.12,0-3.403,0.178-4.242-1.062c-1.257-1.854-1.57-4.972-1.061-8.31c0.943-6.187,3.3-10.194,5.068-10.194
	C162.248,163.997,164.369,168.594,165.43,174.191"/>
<rect x="185.969" y="112.355" fill="#7DF57D" width="30" height="9"/>
<polygon fill="#7DF57D" points="223.969,141.477 177.969,152.375 177.969,117.354 223.969,117.354 "/>
<rect x="182.969" y="122.355" fill="#FFFFFF" width="36" height="4"/>
<rect x="182.969" y="131.355" fill="#FFFFFF" width="36" height="4"/>
<polygon fill="#7DF57D" points="226.969,140.559 248.969,135.329 248.969,100.355 226.969,100.355 "/>
<rect x="238.969" y="106.355" fill="#FFFFFF" width="5" height="3"/>
<rect x="238.969" y="112.355" fill="#FFFFFF" width="5" height="3"/>
<rect x="238.969" y="118.355" fill="#FFFFFF" width="5" height="4"/>
<rect x="238.969" y="124.355" fill="#FFFFFF" width="5" height="4"/>
<rect x="230.969" y="106.355" fill="#FFFFFF" width="6" height="3"/>
<rect x="230.969" y="112.355" fill="#FFFFFF" width="6" height="3"/>
<rect x="230.969" y="118.355" fill="#FFFFFF" width="6" height="4"/>
<rect x="230.969" y="124.355" fill="#FFFFFF" width="6" height="4"/>
<polygon fill="#7DF57D" points="253.969,171.506 223.969,179.375 223.969,153.355 253.969,153.355 "/>
<rect x="225.969" y="157.355" fill="#FFFFFF" width="25" height="3"/>
<rect x="225.969" y="163.355" fill="#FFFFFF" width="25" height="3"/>
<path fill="#7DF57D" d="M202.774,184.867c-0.442-0.516-0.798-1.145-0.991-1.875c-0.588-2.209,0.426-4.395,2.265-4.885
	c0.519-0.138,1.043-0.111,1.547,0.026c-0.014-0.039-0.031-0.077-0.042-0.117c-0.42-1.578,0.306-3.14,1.617-3.487
	c0.26-0.07,0.521-0.074,0.779-0.043c-0.33-1.714,0.479-3.349,1.912-3.729c1.146-0.307,2.351,0.281,3.075,1.373
	c0.15-0.615,0.561-1.107,1.135-1.271c0.048-1.789,1.037-3.332,2.589-3.744c1.77-0.472,3.638,0.688,4.459,2.641
	c0.38-0.389,0.834-0.686,1.37-0.829c1.842-0.49,3.809,0.899,4.395,3.104c0.061,0.225,0.09,0.449,0.118,0.666
	c0.198-0.103,0.404-0.192,0.628-0.252c2.036-0.543,4.215,1.004,4.863,3.442c0.093,0.347,0.141,0.692,0.164,1.028L202.774,184.867z"
	/>
<path fill="#7DF57D" d="M185.6,189.396c-0.29-0.338-0.523-0.75-0.649-1.228c-0.386-1.446,0.279-2.877,1.483-3.196
	c0.34-0.092,0.683-0.076,1.013,0.016c-0.009-0.024-0.02-0.049-0.027-0.077c-0.274-1.032,0.198-2.054,1.057-2.282
	c0.172-0.045,0.342-0.048,0.511-0.027c-0.216-1.123,0.315-2.192,1.251-2.441c0.751-0.2,1.54,0.186,2.015,0.9
	c0.098-0.404,0.367-0.726,0.74-0.832c0.033-1.172,0.681-2.182,1.695-2.451c1.16-0.309,2.382,0.449,2.919,1.728
	c0.248-0.255,0.547-0.448,0.897-0.543c1.205-0.319,2.493,0.59,2.877,2.033c0.039,0.147,0.059,0.293,0.078,0.435
	c0.129-0.066,0.265-0.125,0.41-0.164c1.33-0.354,2.758,0.655,3.183,2.254c0.06,0.227,0.092,0.451,0.107,0.672L185.6,189.396z"/>
<path fill="#7DF57D" d="M308.222,182.824c0.022,1.619,0.391,3.297-0.011,4.893c-0.107,0.421-0.759,0.242-0.65-0.18
	c0.383-1.525,0.008-3.164-0.014-4.713C307.542,182.39,308.216,182.39,308.222,182.824"/>
<path fill="#7DF57D" d="M307.661,183.127c-1.399,0.76-5.556-0.445-4.17-2.861c1.554-2.336,3.908,1.287,4.419,2.775"/>
<path fill="#7DF57D" d="M307.772,182.978c1.161,0.242,5.057-0.567,4.071-2.638C310.504,177.842,307.897,181.672,307.772,182.978"/>
<path fill="#7DF57D" d="M171.591,187.16c0.022,1.647,0.397,3.354-0.011,4.979c-0.11,0.43-0.772,0.248-0.663-0.184
	c0.39-1.551,0.008-3.219-0.013-4.795C170.899,186.719,171.585,186.719,171.591,187.16"/>
<path fill="#7DF57D" d="M171.02,187.469c-1.424,0.771-5.654-0.455-4.244-2.912c1.582-2.379,3.977,1.31,4.497,2.824"/>
<path fill="#7DF57D" d="M171.133,187.316c1.18,0.246,5.146-0.576,4.142-2.685C173.912,182.089,171.259,185.986,171.133,187.316"/>
<path fill="#7DF57D" d="M174.945,82.498c0.022,1.619,0.39,3.296-0.011,4.892c-0.108,0.421-0.759,0.243-0.651-0.18
	c0.383-1.525,0.007-3.164-0.013-4.712C174.264,82.063,174.939,82.063,174.945,82.498"/>
<path fill="#7DF57D" d="M174.384,82.8c-1.399,0.759-5.556-0.446-4.17-2.861c1.554-2.336,3.908,1.287,4.419,2.775"/>
<path fill="#7DF57D" d="M174.495,82.651c1.161,0.242,5.057-0.566,4.071-2.638C177.227,77.515,174.62,81.345,174.495,82.651"/>
<polygon fill="#7DF57D" points="313.969,150.02 291.969,144.791 291.969,109.354 313.969,109.354 "/>
<rect x="296.969" y="115.355" fill="#FFFFFF" width="6" height="4"/>
<rect x="296.969" y="121.355" fill="#FFFFFF" width="6" height="4"/>
<rect x="296.969" y="128.355" fill="#FFFFFF" width="6" height="3"/>
<rect x="296.969" y="134.355" fill="#FFFFFF" width="6" height="3"/>
<rect x="303.969" y="115.355" fill="#FFFFFF" width="6" height="4"/>
<rect x="303.969" y="121.355" fill="#FFFFFF" width="6" height="4"/>
<rect x="303.969" y="128.355" fill="#FFFFFF" width="6" height="3"/>
<rect x="303.969" y="134.355" fill="#FFFFFF" width="6" height="3"/>
<g opacity="0.2">
	<g>
		<defs>
			<rect id="SVGID_5_" x="37.215" y="161.727" width="17.371" height="4.824"/>
		</defs>
		<clipPath id="SVGID_6_">
			<use xlink:href="#SVGID_5_"  overflow="visible"/>
		</clipPath>
		<path clip-path="url(#SVGID_6_)" fill-rule="evenodd" clip-rule="evenodd" fill="#C9AD6F" d="M54.586,164.139
			c0,1.333-3.889,2.413-8.686,2.413c-4.796,0-8.685-1.08-8.685-2.413s3.889-2.413,8.685-2.413
			C50.697,161.726,54.586,162.806,54.586,164.139"/>
	</g>
</g>
<g opacity="0.2">
	<g>
		<defs>
			<rect id="SVGID_7_" x="115.867" y="142.867" width="17.371" height="4.826"/>
		</defs>
		<clipPath id="SVGID_8_">
			<use xlink:href="#SVGID_7_"  overflow="visible"/>
		</clipPath>
		<path clip-path="url(#SVGID_8_)" fill-rule="evenodd" clip-rule="evenodd" fill="#C9AD6F" d="M133.237,145.279
			c0,1.334-3.889,2.414-8.686,2.414c-4.796,0-8.685-1.08-8.685-2.414c0-1.332,3.889-2.412,8.685-2.412
			C129.348,142.867,133.237,143.947,133.237,145.279"/>
	</g>
</g>
<g opacity="0.53">
	<g>
		<defs>
			<rect id="SVGID_9_" x="91.283" y="127.389" width="17.371" height="4.825"/>
		</defs>
		<clipPath id="SVGID_10_">
			<use xlink:href="#SVGID_9_"  overflow="visible"/>
		</clipPath>
		<path clip-path="url(#SVGID_10_)" fill-rule="evenodd" clip-rule="evenodd" fill="#C9AD6F" d="M108.654,129.802
			c0,1.333-3.889,2.413-8.686,2.413c-4.796,0-8.685-1.08-8.685-2.413s3.889-2.413,8.685-2.413
			C104.765,127.389,108.654,128.469,108.654,129.802"/>
	</g>
</g>
<path fill="#FBB040" d="M103.922,78.165c0,1.531-1.241,2.772-2.772,2.772c-1.532,0-2.773-1.241-2.773-2.772
	c0-1.531,1.241-2.772,2.773-2.772C102.681,75.393,103.922,76.634,103.922,78.165"/>
<path fill="#004B40" d="M101.149,81.42c-1.794,0-3.254-1.461-3.254-3.255s1.46-3.254,3.254-3.254c1.795,0,3.255,1.46,3.255,3.254
	S102.944,81.42,101.149,81.42 M101.149,75.875c-1.263,0-2.29,1.027-2.29,2.29s1.027,2.29,2.29,2.29s2.29-1.027,2.29-2.29
	S102.413,75.875,101.149,75.875"/>
<path fill="#004A3D" d="M114.736,81.514c0.402-1.306,0.862-2.333,0.866-2.343l0.221-0.492l-0.512-0.167
	c-0.925-0.302-1.851-0.455-2.755-0.455c-2.911,0-4.835,1.552-5.479,2.163c-1.862-0.656-3.855-0.988-5.927-0.988
	c-2.073,0-4.065,0.332-5.928,0.988c-0.644-0.611-2.567-2.163-5.479-2.163c-0.903,0-1.83,0.153-2.755,0.455l-0.512,0.167l0.221,0.492
	c0.004,0.01,0.464,1.037,0.867,2.343c0.129,0.421,0.234,0.807,0.335,1.179c0.35,1.292,0.646,2.347,1.619,3.482
	c-0.385,0.58-0.73,1.189-1.027,1.824c-0.844,1.809-1.318,3.824-1.318,5.949c0,5.888,3.626,10.943,8.76,13.058l1.598,9.921
	l1.805,11.209c0.154,0.961,0.983,1.666,1.954,1.666c0.972,0,1.8-0.705,1.954-1.666l3.403-21.13c3.358-1.383,6.07-4.024,7.546-7.334
	c0.78-1.751,1.214-3.687,1.214-5.724c0-2.951-0.911-5.691-2.465-7.957c0.853-1.066,1.127-2.076,1.459-3.298
	C114.502,82.321,114.606,81.935,114.736,81.514"/>
<path fill-rule="evenodd" clip-rule="evenodd" fill="#7DF57D" d="M101.034,86.241c4.62,0.031,7.952,3.376,7.97,8.001
	c0.019,4.557-3.389,8.044-7.927,8.112c-4.656,0.071-8.233-3.551-8.142-8.245C93.023,89.491,96.403,86.211,101.034,86.241"/>
<g opacity="0.53">
	<g>
		<defs>
			<rect id="SVGID_11_" x="165.284" y="187.389" width="17.37" height="4.825"/>
		</defs>
		<clipPath id="SVGID_12_">
			<use xlink:href="#SVGID_11_"  overflow="visible"/>
		</clipPath>
		<path clip-path="url(#SVGID_12_)" fill-rule="evenodd" clip-rule="evenodd" fill="#C9AD6F" d="M182.654,189.802
			c0,1.333-3.889,2.413-8.686,2.413c-4.796,0-8.685-1.08-8.685-2.413s3.889-2.413,8.685-2.413
			C178.766,187.389,182.654,188.469,182.654,189.802"/>
	</g>
</g>
<path fill="#FBB040" d="M177.922,138.165c0,1.531-1.241,2.772-2.772,2.772c-1.532,0-2.772-1.241-2.772-2.772
	c0-1.53,1.241-2.772,2.772-2.772C176.681,135.393,177.922,136.635,177.922,138.165"/>
<path fill="#004B40" d="M175.149,141.42c-1.794,0-3.254-1.461-3.254-3.255s1.46-3.254,3.254-3.254c1.795,0,3.255,1.46,3.255,3.254
	S176.944,141.42,175.149,141.42 M175.149,135.875c-1.263,0-2.29,1.027-2.29,2.29s1.027,2.29,2.29,2.29c1.263,0,2.29-1.027,2.29-2.29
	S176.412,135.875,175.149,135.875"/>
<path fill="#004B40" d="M188.736,141.514c0.401-1.306,0.861-2.332,0.865-2.342l0.222-0.492l-0.513-0.168
	c-0.925-0.301-1.851-0.455-2.755-0.455c-2.911,0-4.835,1.553-5.479,2.164c-1.862-0.656-3.855-0.988-5.928-0.988
	c-2.073,0-4.064,0.332-5.928,0.988c-0.644-0.611-2.567-2.164-5.479-2.164c-0.903,0-1.83,0.154-2.755,0.455l-0.512,0.168l0.221,0.492
	c0.004,0.01,0.464,1.036,0.867,2.342c0.129,0.422,0.234,0.808,0.335,1.18c0.35,1.292,0.646,2.347,1.619,3.482
	c-0.385,0.58-0.73,1.188-1.027,1.823c-0.844,1.81-1.318,3.824-1.318,5.949c0,5.888,3.626,10.942,8.76,13.058l1.598,9.922
	l1.805,11.209c0.154,0.961,0.983,1.666,1.954,1.666c0.972,0,1.8-0.705,1.954-1.666l3.402-21.131c3.358-1.383,6.07-4.023,7.546-7.334
	c0.78-1.75,1.215-3.687,1.215-5.724c0-2.951-0.911-5.69-2.466-7.957c0.854-1.065,1.127-2.076,1.459-3.298
	C188.502,142.321,188.605,141.936,188.736,141.514"/>
<path fill-rule="evenodd" clip-rule="evenodd" fill="#7DF57D" d="M175.034,146.241c4.62,0.03,7.952,3.376,7.97,8.001
	c0.02,4.557-3.389,8.044-7.927,8.111c-4.656,0.072-8.233-3.551-8.142-8.244C167.023,149.491,170.403,146.211,175.034,146.241"/>
<g opacity="0.53">
	<g>
		<defs>
			<rect id="SVGID_13_" x="145.284" y="86.389" width="17.37" height="4.825"/>
		</defs>
		<clipPath id="SVGID_14_">
			<use xlink:href="#SVGID_13_"  overflow="visible"/>
		</clipPath>
		<path clip-path="url(#SVGID_14_)" fill-rule="evenodd" clip-rule="evenodd" fill="#C9AD6F" d="M162.654,88.802
			c0,1.333-3.889,2.413-8.686,2.413c-4.796,0-8.685-1.08-8.685-2.413s3.889-2.413,8.685-2.413
			C158.765,86.389,162.654,87.469,162.654,88.802"/>
	</g>
</g>
<path fill="#FBB040" d="M157.922,37.165c0,1.531-1.241,2.772-2.772,2.772c-1.532,0-2.773-1.241-2.773-2.772
	c0-1.531,1.241-2.772,2.773-2.772C156.681,34.393,157.922,35.634,157.922,37.165"/>
<path fill="#004B40" d="M155.149,40.42c-1.794,0-3.254-1.461-3.254-3.255s1.46-3.254,3.254-3.254c1.795,0,3.255,1.46,3.255,3.254
	S156.944,40.42,155.149,40.42 M155.149,34.875c-1.263,0-2.29,1.027-2.29,2.29s1.027,2.29,2.29,2.29s2.29-1.027,2.29-2.29
	S156.413,34.875,155.149,34.875"/>
<path fill="#004B40" d="M168.736,40.514c0.402-1.306,0.862-2.333,0.866-2.343l0.221-0.492l-0.512-0.167
	c-0.925-0.302-1.851-0.455-2.755-0.455c-2.911,0-4.835,1.552-5.479,2.163c-1.862-0.656-3.855-0.988-5.927-0.988
	c-2.073,0-4.065,0.332-5.928,0.988c-0.644-0.611-2.567-2.163-5.479-2.163c-0.903,0-1.83,0.153-2.755,0.455l-0.512,0.167l0.221,0.492
	c0.004,0.01,0.464,1.037,0.867,2.343c0.129,0.421,0.234,0.807,0.335,1.179c0.35,1.292,0.646,2.347,1.619,3.482
	c-0.385,0.58-0.73,1.189-1.027,1.824c-0.844,1.809-1.318,3.824-1.318,5.949c0,5.888,3.626,10.943,8.76,13.058l1.598,9.921
	l1.805,11.21c0.154,0.96,0.983,1.665,1.954,1.665c0.972,0,1.8-0.705,1.954-1.665l3.403-21.131c3.358-1.383,6.07-4.024,7.546-7.334
	c0.78-1.751,1.214-3.687,1.214-5.724c0-2.951-0.911-5.691-2.465-7.957c0.853-1.066,1.127-2.076,1.459-3.298
	C168.502,41.321,168.606,40.935,168.736,40.514"/>
<path fill-rule="evenodd" clip-rule="evenodd" fill="#7DF57D" d="M155.034,45.241c4.62,0.031,7.952,3.376,7.97,8.001
	c0.019,4.557-3.389,8.044-7.927,8.112c-4.656,0.071-8.233-3.551-8.142-8.245C147.023,48.491,150.403,45.211,155.034,45.241"/>
<g opacity="0.53">
	<g>
		<defs>
			<rect id="SVGID_15_" x="37.283" y="58.389" width="17.371" height="4.825"/>
		</defs>
		<clipPath id="SVGID_16_">
			<use xlink:href="#SVGID_15_"  overflow="visible"/>
		</clipPath>
		<path clip-path="url(#SVGID_16_)" fill-rule="evenodd" clip-rule="evenodd" fill="#C9AD6F" d="M54.654,60.802
			c0,1.333-3.889,2.413-8.686,2.413c-4.796,0-8.685-1.08-8.685-2.413s3.889-2.413,8.685-2.413
			C50.765,58.389,54.654,59.469,54.654,60.802"/>
	</g>
</g>
<path fill="#FBB040" d="M49.922,9.165c0,1.531-1.241,2.772-2.772,2.772c-1.532,0-2.773-1.241-2.773-2.772
	c0-1.531,1.241-2.772,2.773-2.772C48.681,6.393,49.922,7.634,49.922,9.165"/>
<path fill="#004B40" d="M47.149,12.42c-1.794,0-3.254-1.461-3.254-3.255s1.46-3.254,3.254-3.254c1.795,0,3.255,1.46,3.255,3.254
	S48.944,12.42,47.149,12.42 M47.149,6.875c-1.263,0-2.29,1.027-2.29,2.29s1.027,2.29,2.29,2.29s2.29-1.027,2.29-2.29
	S48.413,6.875,47.149,6.875"/>
<path fill="#004B40" d="M60.736,12.514c0.402-1.306,0.862-2.333,0.866-2.343l0.221-0.492l-0.512-0.167
	c-0.925-0.302-1.851-0.455-2.755-0.455c-2.911,0-4.835,1.552-5.479,2.163c-1.862-0.656-3.855-0.988-5.927-0.988
	c-2.073,0-4.065,0.332-5.928,0.988c-0.644-0.611-2.567-2.163-5.479-2.163c-0.903,0-1.83,0.153-2.755,0.455l-0.512,0.167l0.221,0.492
	c0.004,0.01,0.464,1.037,0.867,2.343c0.129,0.421,0.234,0.807,0.335,1.179c0.35,1.292,0.646,2.347,1.619,3.482
	c-0.385,0.58-0.73,1.189-1.027,1.824c-0.844,1.809-1.318,3.824-1.318,5.949c0,5.888,3.626,10.943,8.76,13.058l1.598,9.921
	l1.805,11.21c0.154,0.96,0.983,1.665,1.954,1.665c0.972,0,1.8-0.705,1.954-1.665l3.403-21.131c3.358-1.383,6.07-4.024,7.546-7.334
	c0.78-1.751,1.214-3.687,1.214-5.724c0-2.951-0.911-5.691-2.465-7.957c0.853-1.066,1.127-2.076,1.459-3.298
	C60.502,13.321,60.606,12.935,60.736,12.514"/>
<path fill-rule="evenodd" clip-rule="evenodd" fill="#7DF57D" d="M47.034,17.241c4.62,0.031,7.952,3.376,7.97,8.001
	c0.019,4.557-3.389,8.044-7.927,8.112c-4.656,0.071-8.233-3.551-8.142-8.245C39.023,20.491,42.403,17.211,47.034,17.241"/>
<g opacity="0.53">
	<g>
		<defs>
			<rect id="SVGID_17_" x="198.284" y="131.389" width="17.369" height="4.825"/>
		</defs>
		<clipPath id="SVGID_18_">
			<use xlink:href="#SVGID_17_"  overflow="visible"/>
		</clipPath>
		<path clip-path="url(#SVGID_18_)" fill-rule="evenodd" clip-rule="evenodd" fill="#C9AD6F" d="M215.654,133.802
			c0,1.333-3.889,2.413-8.687,2.413c-4.796,0-8.685-1.08-8.685-2.413s3.889-2.413,8.685-2.413
			C211.766,131.389,215.654,132.469,215.654,133.802"/>
	</g>
</g>
<path fill="#FBB040" d="M210.922,82.165c0,1.531-1.241,2.772-2.772,2.772s-2.772-1.241-2.772-2.772c0-1.531,1.241-2.772,2.772-2.772
	S210.922,80.634,210.922,82.165"/>
<path fill="#004B40" d="M208.149,85.42c-1.794,0-3.254-1.461-3.254-3.255s1.46-3.254,3.254-3.254c1.795,0,3.255,1.46,3.255,3.254
	S209.944,85.42,208.149,85.42 M208.149,79.875c-1.263,0-2.29,1.027-2.29,2.29s1.027,2.29,2.29,2.29s2.29-1.027,2.29-2.29
	S209.412,79.875,208.149,79.875"/>
<path fill="#004B40" d="M221.736,85.514c0.401-1.306,0.861-2.333,0.865-2.343l0.222-0.492l-0.513-0.167
	c-0.925-0.302-1.851-0.455-2.755-0.455c-2.911,0-4.835,1.552-5.479,2.163c-1.862-0.656-3.855-0.988-5.928-0.988
	s-4.064,0.332-5.928,0.988c-0.644-0.611-2.566-2.163-5.479-2.163c-0.903,0-1.83,0.153-2.755,0.455l-0.513,0.167l0.222,0.492
	c0.004,0.01,0.464,1.037,0.866,2.343c0.129,0.421,0.234,0.807,0.335,1.179c0.351,1.292,0.646,2.347,1.619,3.482
	c-0.385,0.58-0.729,1.189-1.026,1.824c-0.845,1.809-1.318,3.824-1.318,5.949c0,5.888,3.626,10.943,8.76,13.058l1.599,9.921
	l1.805,11.209c0.154,0.961,0.982,1.666,1.954,1.666s1.8-0.705,1.954-1.666l3.402-21.13c3.358-1.383,6.07-4.024,7.546-7.334
	c0.78-1.751,1.215-3.687,1.215-5.724c0-2.951-0.911-5.691-2.466-7.957c0.854-1.066,1.127-2.076,1.459-3.298
	C221.502,86.321,221.605,85.935,221.736,85.514"/>
<path fill-rule="evenodd" clip-rule="evenodd" fill="#7DF57D" d="M208.034,90.241c4.62,0.031,7.952,3.376,7.97,8.001
	c0.02,4.557-3.389,8.044-7.927,8.112c-4.656,0.071-8.233-3.551-8.142-8.245C200.023,93.491,203.403,90.211,208.034,90.241"/>
<g opacity="0.53">
	<g>
		<defs>
			<rect id="SVGID_19_" x="274.284" y="75.389" width="17.369" height="4.825"/>
		</defs>
		<clipPath id="SVGID_20_">
			<use xlink:href="#SVGID_19_"  overflow="visible"/>
		</clipPath>
		<path clip-path="url(#SVGID_20_)" fill-rule="evenodd" clip-rule="evenodd" fill="#C9AD6F" d="M291.654,77.802
			c0,1.333-3.889,2.413-8.687,2.413c-4.796,0-8.685-1.08-8.685-2.413s3.889-2.413,8.685-2.413
			C287.766,75.389,291.654,76.469,291.654,77.802"/>
	</g>
</g>
<path fill="#FBB040" d="M286.922,26.165c0,1.531-1.241,2.772-2.772,2.772s-2.772-1.241-2.772-2.772c0-1.531,1.241-2.772,2.772-2.772
	S286.922,24.634,286.922,26.165"/>
<path fill="#004B40" d="M284.149,29.42c-1.794,0-3.254-1.461-3.254-3.255s1.46-3.254,3.254-3.254c1.795,0,3.255,1.46,3.255,3.254
	S285.944,29.42,284.149,29.42 M284.149,23.875c-1.263,0-2.29,1.027-2.29,2.29s1.027,2.29,2.29,2.29s2.29-1.027,2.29-2.29
	S285.412,23.875,284.149,23.875"/>
<path fill="#004B40" d="M297.736,29.514c0.401-1.306,0.861-2.333,0.865-2.343l0.222-0.492l-0.513-0.167
	c-0.925-0.302-1.851-0.455-2.755-0.455c-2.911,0-4.835,1.552-5.479,2.163c-1.862-0.656-3.855-0.988-5.928-0.988
	s-4.064,0.332-5.928,0.988c-0.644-0.611-2.566-2.163-5.479-2.163c-0.903,0-1.83,0.153-2.755,0.455l-0.513,0.167l0.222,0.492
	c0.004,0.01,0.464,1.037,0.866,2.343c0.129,0.421,0.234,0.807,0.335,1.179c0.351,1.292,0.646,2.347,1.619,3.482
	c-0.385,0.58-0.729,1.189-1.026,1.824c-0.845,1.809-1.318,3.824-1.318,5.949c0,5.888,3.626,10.943,8.76,13.058l1.599,9.921
	l1.805,11.21c0.154,0.96,0.982,1.665,1.954,1.665s1.8-0.705,1.954-1.665l3.402-21.131c3.358-1.383,6.07-4.024,7.546-7.334
	c0.78-1.751,1.215-3.687,1.215-5.724c0-2.951-0.911-5.691-2.466-7.957c0.854-1.066,1.127-2.076,1.459-3.298
	C297.502,30.321,297.605,29.935,297.736,29.514"/>
<path fill-rule="evenodd" clip-rule="evenodd" fill="#7DF57D" d="M284.034,34.241c4.62,0.031,7.952,3.376,7.97,8.001
	c0.02,4.557-3.389,8.044-7.927,8.112c-4.656,0.071-8.233-3.551-8.142-8.245C276.023,37.491,279.403,34.211,284.034,34.241"/>
<g opacity="0.53">
	<g>
		<defs>
			<rect id="SVGID_21_" x="302.284" y="173.389" width="17.369" height="4.825"/>
		</defs>
		<clipPath id="SVGID_22_">
			<use xlink:href="#SVGID_21_"  overflow="visible"/>
		</clipPath>
		<path clip-path="url(#SVGID_22_)" fill-rule="evenodd" clip-rule="evenodd" fill="#C9AD6F" d="M319.654,175.802
			c0,1.333-3.889,2.413-8.687,2.413c-4.796,0-8.685-1.08-8.685-2.413s3.889-2.413,8.685-2.413
			C315.766,173.389,319.654,174.469,319.654,175.802"/>
	</g>
</g>
<path fill="#FBB040" d="M314.922,124.165c0,1.531-1.241,2.772-2.772,2.772s-2.772-1.241-2.772-2.772
	c0-1.531,1.241-2.772,2.772-2.772S314.922,122.634,314.922,124.165"/>
<path fill="#004B40" d="M312.149,127.42c-1.794,0-3.254-1.461-3.254-3.255s1.46-3.254,3.254-3.254c1.795,0,3.255,1.46,3.255,3.254
	S313.944,127.42,312.149,127.42 M312.149,121.875c-1.263,0-2.29,1.027-2.29,2.29s1.027,2.29,2.29,2.29s2.29-1.027,2.29-2.29
	S313.412,121.875,312.149,121.875"/>
<path fill="#004B40" d="M325.736,127.514c0.401-1.306,0.861-2.333,0.865-2.342l0.222-0.492l-0.513-0.167
	c-0.925-0.302-1.851-0.455-2.755-0.455c-2.911,0-4.835,1.552-5.479,2.163c-1.862-0.656-3.855-0.988-5.928-0.988
	s-4.064,0.332-5.928,0.988c-0.644-0.611-2.566-2.163-5.479-2.163c-0.903,0-1.83,0.153-2.755,0.455l-0.513,0.167l0.222,0.492
	c0.004,0.01,0.464,1.037,0.866,2.342c0.129,0.422,0.234,0.808,0.335,1.18c0.351,1.292,0.646,2.347,1.619,3.482
	c-0.385,0.58-0.729,1.188-1.026,1.823c-0.845,1.81-1.318,3.824-1.318,5.949c0,5.888,3.626,10.942,8.76,13.058l1.599,9.922
	l1.805,11.209c0.154,0.961,0.982,1.666,1.954,1.666s1.8-0.705,1.954-1.666l3.402-21.131c3.358-1.383,6.07-4.023,7.546-7.334
	c0.78-1.75,1.215-3.687,1.215-5.724c0-2.951-0.911-5.69-2.466-7.957c0.854-1.065,1.127-2.076,1.459-3.298
	C325.502,128.321,325.605,127.936,325.736,127.514"/>
<path fill-rule="evenodd" clip-rule="evenodd" fill="#7DF57D" d="M312.034,132.241c4.62,0.03,7.952,3.376,7.97,8.001
	c0.02,4.557-3.389,8.044-7.927,8.111c-4.656,0.072-8.233-3.551-8.142-8.244C304.023,135.491,307.403,132.211,312.034,132.241"/>
<path fill="#7DF57D" d="M72.568,237.89l-4.059,3.086l-0.905-0.914c-0.131-0.132-2.911-2.968-3.955-6.118
	c-4.342,1.029-8.778,1.551-13.208,1.551c-4.43,0-8.866-0.521-13.207-1.551c-1.045,3.15-3.825,5.986-3.956,6.118l-0.905,0.914
	l-4.059-3.086l-5.186,3.286l-0.691-1.546c-0.093-0.206-9.21-20.89-9.21-46.771c0-7.691,1.46-17.102,4.341-27.984
	c-4.384-4.409-5.886-9.516-7.473-14.908c-0.248-0.846-0.5-1.702-0.767-2.568c-1.217-3.953-2.608-7.061-2.622-7.092l-0.669-1.488
	l1.552-0.506c2.797-0.912,5.602-1.375,8.334-1.375c8.812,0,14.632,4.695,16.582,6.543c5.636-1.984,11.665-2.988,17.936-2.988
	c6.272,0,12.3,1.004,17.936,2.988c1.95-1.849,7.77-6.543,16.582-6.543c2.733,0,5.537,0.463,8.335,1.375l1.551,0.506l-0.669,1.488
	c-0.014,0.031-1.404,3.139-2.622,7.092c-0.267,0.866-0.519,1.723-0.767,2.568c-1.587,5.393-3.089,10.498-7.471,14.906
	c2.879,10.773,4.339,20.186,4.339,27.986c0,25.881-9.117,46.564-9.21,46.771l-0.691,1.546L72.568,237.89z"/>
<path fill="#004A3D" d="M93.749,136.92c-2.945-0.961-5.902-1.447-8.789-1.447c-8.452-0.002-14.333,4.098-16.921,6.344
	c-5.554-1.852-11.465-2.79-17.597-2.79c-6.133,0-12.044,0.938-17.598,2.79c-2.588-2.246-8.469-6.344-16.921-6.344
	c-2.887,0-5.843,0.486-8.789,1.447l-3.103,1.012l1.34,2.977c0.013,0.029,1.369,3.064,2.557,6.922
	c0.264,0.854,0.517,1.717,0.762,2.549c1.57,5.338,3.062,10.408,7.252,14.92c-2.774,10.668-4.18,19.934-4.18,27.561
	c0,26.191,8.956,46.516,9.337,47.369l1.383,3.091l2.861-1.813l2.895-1.834l2.225,1.692l2.048,1.558l1.809-1.83
	c0.311-0.313,2.513-2.594,3.813-5.443c4.057,0.87,8.185,1.311,12.309,1.311s8.252-0.44,12.308-1.311
	c1.3,2.85,3.502,5.13,3.813,5.443l1.809,1.83l2.048-1.558l2.225-1.692l2.895,1.834l2.861,1.813l1.383-3.091
	c0.381-0.854,9.337-21.178,9.337-47.369c0-7.732-1.405-17-4.177-27.564c4.188-4.511,5.679-9.578,7.249-14.914
	c0.245-0.834,0.499-1.695,0.762-2.551c1.188-3.857,2.545-6.893,2.558-6.923l1.336-2.976L93.749,136.92z M87.713,150.506
	c-1.23,4.459-2.236,8.08-5.279,11.453c-1.718-6.045-3.34-10.623-3.931-12.242c0.558-0.951,2.305-3.321,6.727-5.402l-1.248-2.652
	c-6.866,3.232-8.391,7.303-8.453,7.475l-0.181,0.508l0.19,0.505c0.092,0.243,9.186,24.563,9.186,43.058
	c0,21.184-6.249,38.781-8.307,44l-4.002-2.535l-3.578,2.721c-0.816-0.993-1.842-2.455-2.346-3.863
	c1.237-0.361,2.467-0.751,3.683-1.197l-1.008-2.752c-6.03,2.211-12.33,3.33-18.725,3.33c-6.396,0-12.696-1.119-18.726-3.33
	l-1.008,2.752c1.216,0.446,2.446,0.836,3.683,1.197c-0.504,1.408-1.53,2.87-2.346,3.863l-3.578-2.721l-4.003,2.535
	c-2.058-5.213-8.306-22.791-8.306-44c0-18.494,9.095-42.814,9.186-43.058l0.19-0.505l-0.181-0.508
	c-0.062-0.172-1.587-4.242-8.453-7.475l-1.248,2.652c4.433,2.087,6.178,4.463,6.728,5.4c-0.591,1.617-2.214,6.197-3.932,12.246
	c-3.043-3.375-4.048-6.996-5.279-11.455c-0.321-1.164-0.654-2.369-1.039-3.623c-0.753-2.442-1.556-4.547-2.099-5.887
	c12.875-3.367,20.661,5.127,20.996,5.502l0.667,0.754l0.943-0.353c5.561-2.077,11.552-3.129,17.805-3.129
	c6.252,0,12.243,1.052,17.805,3.129l0.942,0.353l0.667-0.754c0.082-0.094,8.045-8.871,20.996-5.5
	c-0.544,1.34-1.346,3.443-2.098,5.885C88.367,148.137,88.035,149.342,87.713,150.506"/>
<path fill="#004A3D" d="M36.167,196.401l-2.906,0.382c0.708,5.387,1.062,9.514,1.227,11.833l-4.05-1.293l-3,3.216
	c-1.183-2.146-3.336-6.236-5.806-11.798l-2.678,1.19c3.814,8.589,6.813,13.611,6.939,13.82l1.001,1.668l4.42-4.74l6.319,2.018
	l-0.088-2.094C37.537,210.381,37.305,205.062,36.167,196.401"/>
<path fill="#004A3D" d="M32.811,163.77c1.781,0,3.225-1.443,3.225-3.225c0-1.78-1.444-3.225-3.225-3.225
	c-1.781,0-3.225,1.444-3.225,3.225C29.586,162.326,31.03,163.77,32.811,163.77"/>
<path fill="#004A3D" d="M68.071,163.77c1.781,0,3.225-1.443,3.225-3.225c0-1.78-1.444-3.225-3.225-3.225
	c-1.781,0-3.224,1.444-3.224,3.225C64.847,162.326,66.29,163.77,68.071,163.77"/>
<path fill="#7FFF5D" d="M50.441,179.561c3.209,0,9.491-3.641,11.965-9.154c2.467-5.498-2.877-7.223-5.009-7.612
	c-2.554-0.466-6.956-0.507-6.956-0.507s-4.402,0.041-6.956,0.507c-2.132,0.39-7.476,2.114-5.009,7.612
	C40.95,175.92,47.232,179.561,50.441,179.561"/>
<path fill="#004A3D" d="M63.891,165.225c-1.436-2.73-4.836-3.617-6.231-3.872c-2.647-0.483-7.02-0.53-7.233-0.53
	c-0.185,0-4.558,0.047-7.205,0.53c-1.395,0.255-4.795,1.142-6.231,3.872c-0.876,1.665-0.826,3.609,0.148,5.781
	c2.785,6.208,9.624,10.02,13.302,10.02c3.677,0,10.517-3.812,13.302-10.02C64.717,168.834,64.767,166.89,63.891,165.225
	 M61.069,169.806c-2.307,5.144-8.192,8.29-10.628,8.29s-8.321-3.146-10.628-8.29c-0.587-1.308-0.663-2.39-0.228-3.216
	c0.683-1.301,2.599-2.069,4.163-2.354c2.399-0.438,6.664-0.484,6.679-0.484c0.043,0,4.308,0.046,6.707,0.484
	c1.564,0.284,3.479,1.053,4.164,2.354C61.733,167.416,61.655,168.498,61.069,169.806"/>
<path fill="#004A3D" d="M54.469,165.479c-1.236,0-2.5,1.011-2.5,2.248v1.31c0,1.235,1.264,2.248,2.5,2.248s2.5-1.013,2.5-2.248
	v-1.31C56.969,166.49,55.705,165.479,54.469,165.479"/>
<path fill="#004A3D" d="M46.469,165.479c-1.236,0-2.5,1.011-2.5,2.248v1.31c0,1.235,1.264,2.248,2.5,2.248s2.5-1.013,2.5-2.248
	v-1.31C48.969,166.49,47.705,165.479,46.469,165.479"/>
<path fill="#012D25" d="M68.969,185.734c0-1.314-1.065-2.379-2.378-2.379H55.347c-1.313,0-2.378,1.064-2.378,2.379v28.241
	c0,1.313,1.065,2.38,2.378,2.38h11.244c1.313,0,2.378-1.066,2.378-2.38V185.734z"/>
<path fill="#7FFF5D" d="M63.258,191.36c-1.383-0.917-3.195-0.917-4.579,0c-0.13,0.086-0.335,0.034-0.462-0.129l-0.004-0.006
	c-0.128-0.162-0.108-0.39,0.051-0.495c1.634-1.083,3.775-1.083,5.41,0c0.158,0.105,0.178,0.333,0.051,0.495
	c-0.002,0.002-0.003,0.004-0.005,0.006C63.592,191.395,63.388,191.446,63.258,191.36"/>
<path fill="#7FFF5D" d="M62.186,191.971c-0.775-0.33-1.658-0.33-2.433,0c-0.073,0.031-0.183-0.045-0.246-0.172
	c-0.001-0.002-0.001-0.004-0.002-0.006c-0.063-0.129-0.045-0.267,0.043-0.304c0.906-0.386,1.937-0.386,2.843,0
	c0.087,0.037,0.106,0.175,0.043,0.304c-0.001,0.002-0.001,0.004-0.002,0.006C62.368,191.926,62.259,192.002,62.186,191.971"/>
<path fill="#7FFF5D" d="M64.555,190.564c-2.066-1.746-5.106-1.746-7.172,0c-0.196,0.164-0.486,0.177-0.663,0.004l-0.006-0.006
	c-0.177-0.17-0.143-0.49,0.09-0.687c2.4-2.028,5.93-2.028,8.33,0c0.233,0.196,0.266,0.517,0.09,0.687l-0.006,0.006
	C65.041,190.741,64.75,190.729,64.555,190.564"/>
<path fill="#7FFF5D" d="M61.608,192.771c-0.416-0.129-0.862-0.129-1.278,0c-0.039,0.012-0.099-0.06-0.136-0.16
	c0-0.002,0-0.004-0.001-0.004c-0.036-0.102-0.026-0.196,0.021-0.211c0.491-0.152,1.019-0.152,1.51,0
	c0.048,0.015,0.057,0.109,0.021,0.211c-0.001,0-0.001,0.002-0.002,0.004C61.708,192.712,61.647,192.783,61.608,192.771"/>
<path fill="#7DF57D" d="M73.525,193.537c-6.957,5.003-10.935,8.439-10.935,8.439l4.666,2.596l-0.353,5.326
	c0,0,5.631-1.221,14.315-4.256"/>
<path fill="#004B40" d="M65.35,211.701l0.418-6.318l-5.664-3.149l1.551-1.341c0.164-0.142,4.106-3.534,11.035-8.519l1.672,2.325
	c-4.309,3.1-7.485,5.607-9.248,7.043l3.632,2.02l-0.285,4.287c2.321-0.594,6.673-1.797,12.286-3.759l0.945,2.703
	c-8.668,3.03-14.251,4.254-14.484,4.306L65.35,211.701z"/>
<g>
</g>
<g>
</g>
<g>
</g>
<g>
</g>
<g>
</g>
<g>
</g>
</svg>
