<svg xmlns="http://www.w3.org/2000/svg" xmlns:xlink="http://www.w3.org/1999/xlink" width="57.736" height="57.502" viewBox="0 0 57.736 57.502">
  <defs>
    <linearGradient id="linear-gradient" x1="0.5" y1="0.328" x2="0.5" y2="0.942" gradientUnits="objectBoundingBox">
      <stop offset="0.279" stop-color="#00eb00"/>
      <stop offset="0.506" stop-color="#00e700"/>
      <stop offset="0.729" stop-color="#00db00"/>
      <stop offset="0.95" stop-color="#00c700"/>
      <stop offset="1" stop-color="#00c200"/>
    </linearGradient>
    <linearGradient id="linear-gradient-2" x1="0.5" y1="0.328" x2="0.5" y2="0.942" gradientUnits="objectBoundingBox">
      <stop offset="0.279" stop-color="#1eeb00"/>
      <stop offset="0.506" stop-color="#1ee700"/>
      <stop offset="0.729" stop-color="#1edb00"/>
      <stop offset="0.95" stop-color="#1ec700"/>
      <stop offset="1" stop-color="#1ec200"/>
    </linearGradient>
  </defs>
  <g id="Amigos_Coink" data-name="Amigos Coink" transform="translate(32.549 -732.798)">
    <circle id="Ellipse_208" data-name="Ellipse 208" cx="28.751" cy="28.751" r="28.751" transform="translate(-32.315 732.798)" fill="#004b40"/>
    <g id="Group_6348" data-name="Group 6348" transform="translate(2 -0.799)">
      <g id="Group_6345" data-name="Group 6345" transform="translate(-22.625 735.363)">
        <path id="Path_10739" data-name="Path 10739" d="M102.019,785.927l-1.964,1.493-.438-.442a8.956,8.956,0,0,1-1.914-2.96,27.611,27.611,0,0,1-12.779,0,8.97,8.97,0,0,1-1.914,2.96l-.438.442-1.964-1.493L78.1,787.516l-.334-.747a61.793,61.793,0,0,1-4.455-22.627,54.588,54.588,0,0,1,2.1-13.539c-2.121-2.133-2.847-4.6-3.615-7.213-.12-.409-.242-.823-.371-1.242a33.162,33.162,0,0,0-1.268-3.431l-.323-.72.75-.245a13.015,13.015,0,0,1,4.032-.665,11.826,11.826,0,0,1,8.022,3.165,26.757,26.757,0,0,1,17.354,0,11.826,11.826,0,0,1,8.023-3.165,13.017,13.017,0,0,1,4.032.665l.75.245-.324.72a33.394,33.394,0,0,0-1.268,3.431c-.129.419-.251.834-.371,1.242-.768,2.608-1.494,5.079-3.614,7.211a53.893,53.893,0,0,1,2.1,13.54,61.8,61.8,0,0,1-4.455,22.627l-.334.747Z" transform="translate(-68.862 -736.379)" fill="url(#linear-gradient)"/>
        <path id="Path_10740" data-name="Path 10740" d="M113.371,775.289c1.552,0,4.591-1.761,5.788-4.429s-1.392-3.495-2.424-3.683a23.165,23.165,0,0,0-6.73,0c-1.031.188-3.617,1.023-2.424,3.683S111.818,775.289,113.371,775.289Z" transform="translate(-90.918 -753.96)" fill="#7fff5d"/>
        <g id="Group_6344" data-name="Group 6344" transform="translate(0)">
          <path id="Path_10741" data-name="Path 10741" d="M110.874,736.063a13.719,13.719,0,0,0-4.252-.7,12.578,12.578,0,0,0-8.186,3.069,27.53,27.53,0,0,0-17.027,0,12.581,12.581,0,0,0-8.186-3.069,13.725,13.725,0,0,0-4.252.7l-1.5.49.648,1.44a32.553,32.553,0,0,1,1.238,3.348c.127.413.25.83.368,1.233.76,2.583,1.481,5.035,3.509,7.218a54.528,54.528,0,0,0-2.022,13.334,61.343,61.343,0,0,0,4.517,22.916l.669,1.5,1.384-.877,1.4-.888,1.076.819.991.753.875-.885a10.162,10.162,0,0,0,1.845-2.633,28.3,28.3,0,0,0,11.909,0,10.141,10.141,0,0,0,1.845,2.633l.875.885.99-.753,1.077-.819,1.4.888,1.384.877.669-1.5a61.343,61.343,0,0,0,4.517-22.916,53.925,53.925,0,0,0-2.02-13.336c2.026-2.182,2.747-4.633,3.507-7.215.118-.4.241-.82.369-1.234a32.714,32.714,0,0,1,1.238-3.349l.646-1.439Zm-2.92,6.573c-.595,2.157-1.082,3.909-2.553,5.541-.831-2.925-1.616-5.14-1.9-5.922a7.158,7.158,0,0,1,3.254-2.614l-.6-1.283c-3.322,1.563-4.059,3.533-4.089,3.616l-.088.245.092.244c.044.118,4.444,11.884,4.444,20.831a61.13,61.13,0,0,1-4.019,21.287l-1.936-1.227-1.731,1.316a6.872,6.872,0,0,1-1.135-1.869c.6-.175,1.193-.364,1.782-.579l-.488-1.331a26.275,26.275,0,0,1-18.119,0l-.488,1.331c.588.216,1.184.4,1.782.579a6.856,6.856,0,0,1-1.135,1.869l-1.731-1.316-1.937,1.227a61.045,61.045,0,0,1-4.018-21.287c0-8.947,4.4-20.713,4.444-20.831l.092-.244-.088-.245c-.03-.083-.768-2.053-4.089-3.616l-.6,1.283a7.165,7.165,0,0,1,3.255,2.613c-.286.782-1.071,3-1.9,5.924-1.472-1.632-1.958-3.384-2.554-5.541-.156-.564-.316-1.146-.5-1.753-.364-1.182-.752-2.2-1.015-2.848A10.324,10.324,0,0,1,80.53,740.7l.323.364.456-.17a25.264,25.264,0,0,1,17.228,0l.456.17.323-.364a10.466,10.466,0,0,1,10.157-2.661c-.263.648-.651,1.666-1.015,2.848C108.271,741.49,108.11,742.072,107.954,742.636Z" transform="translate(-67.47 -735.363)" fill="#004a3d"/>
          <path id="Path_10742" data-name="Path 10742" d="M93.367,807.1l-1.406.185c.342,2.605.514,4.6.593,5.725l-1.96-.626-1.451,1.556c-.572-1.038-1.614-3.016-2.809-5.708l-1.3.575a66.667,66.667,0,0,0,3.357,6.686l.484.807,2.139-2.293,3.057.976-.042-1.013C94.03,813.861,93.918,811.288,93.367,807.1Z" transform="translate(-77.82 -777.621)" fill="#004a3d"/>
          <path id="Path_10743" data-name="Path 10743" d="M99.119,764.205a1.56,1.56,0,1,0-1.56-1.56A1.56,1.56,0,0,0,99.119,764.205Z" transform="translate(-85.195 -750.516)" fill="#004a3d"/>
          <path id="Path_10744" data-name="Path 10744" d="M140.632,764.205a1.56,1.56,0,1,0-1.56-1.56A1.56,1.56,0,0,0,140.632,764.205Z" transform="translate(-109.65 -750.516)" fill="#004a3d"/>
          <path id="Path_10745" data-name="Path 10745" d="M118.859,767.338a4.288,4.288,0,0,0-3.014-1.873,23.841,23.841,0,0,0-6.985,0,4.288,4.288,0,0,0-3.014,1.873,3.091,3.091,0,0,0,.071,2.8c1.348,3,4.656,4.848,6.436,4.848s5.088-1.844,6.435-4.848A3.091,3.091,0,0,0,118.859,767.338Zm-1.365,2.216c-1.116,2.488-3.964,4.01-5.142,4.01s-4.026-1.522-5.142-4.01A1.767,1.767,0,0,1,107.1,768a2.917,2.917,0,0,1,2.014-1.139,22.5,22.5,0,0,1,6.476,0A2.917,2.917,0,0,1,117.6,768,1.766,1.766,0,0,1,117.494,769.554Z" transform="translate(-89.899 -752.944)" fill="#004a3d"/>
          <path id="Path_10746" data-name="Path 10746" d="M140.726,812.382l-1.96.626c.08-1.123.251-3.12.594-5.725l-1.406-.185c-.551,4.19-.663,6.763-.667,6.87l-.042,1.013,3.057-.976,2.139,2.293.484-.807a66.879,66.879,0,0,0,3.357-6.686l-1.3-.575c-1.195,2.691-2.236,4.669-2.809,5.708Z" transform="translate(-108.574 -777.621)" fill="#004a3d"/>
          <path id="Path_10747" data-name="Path 10747" d="M125.032,770.692a1.09,1.09,0,0,0-1.087,1.087v.634a1.087,1.087,0,0,0,2.175,0v-.634A1.09,1.09,0,0,0,125.032,770.692Z" transform="translate(-100.739 -756.175)" fill="#004a3d"/>
          <path id="Path_10748" data-name="Path 10748" d="M116.073,770.692a1.09,1.09,0,0,0-1.087,1.087v.634a1.087,1.087,0,0,0,2.175,0v-.634A1.09,1.09,0,0,0,116.073,770.692Z" transform="translate(-95.461 -756.175)" fill="#004a3d"/>
        </g>
      </g>
      <g id="Group_6347" data-name="Group 6347" transform="translate(-34.549 751.909)">
        <path id="Path_10750" data-name="Path 10750" d="M49.64,812.023l-1.919,1.216-.338-.282c-.161-.135-3.959-3.424-3.959-14.239a24.075,24.075,0,0,1,1.137-7.336,9.482,9.482,0,0,1-2.325-4.691c-.126-.465-.257-.945-.418-1.47a28.263,28.263,0,0,0-1.08-2.921l-.275-.613.639-.209a11.073,11.073,0,0,1,3.434-.566,10.068,10.068,0,0,1,6.832,2.7,22.783,22.783,0,0,1,14.778,0,10.071,10.071,0,0,1,6.832-2.7,11.073,11.073,0,0,1,3.434.566l.639.209-.276.613a28.378,28.378,0,0,0-1.08,2.921c-.161.525-.292,1.005-.418,1.47a9.479,9.479,0,0,1-2.325,4.691,24.078,24.078,0,0,1,1.137,7.336c0,10.815-3.8,14.1-3.959,14.239l-.338.282-1.919-1.216-1.7,1.291-.371-.422a9.33,9.33,0,0,1-1.551-2.507,23.513,23.513,0,0,1-10.99,0,9.337,9.337,0,0,1-1.551,2.508l-.371.422Z" transform="translate(-39.636 -776.741)" fill="url(#linear-gradient-2)"/>
        <path id="Path_10751" data-name="Path 10751" d="M77.539,812.6c1.322,0,3.91-1.5,4.929-3.772s-1.185-2.975-2.064-3.136a19.729,19.729,0,0,0-5.731,0c-.879.16-3.08.871-2.064,3.136S76.217,812.6,77.539,812.6Z" transform="translate(-58.419 -791.218)" fill="#afff6a"/>
        <path id="Path_10752" data-name="Path 10752" d="M60.545,789.759a20.305,20.305,0,0,0-5.948,0,3.652,3.652,0,0,0-2.567,1.6,2.632,2.632,0,0,0,.061,2.382c1.148,2.558,3.965,4.128,5.48,4.128s4.333-1.57,5.48-4.128a2.632,2.632,0,0,0,.061-2.382A3.652,3.652,0,0,0,60.545,789.759Zm1.4,3.483a6.2,6.2,0,0,1-4.379,3.415,6.2,6.2,0,0,1-4.379-3.415,1.5,1.5,0,0,1-.094-1.325,2.485,2.485,0,0,1,1.716-.97,19.174,19.174,0,0,1,5.514,0,2.483,2.483,0,0,1,1.715.97A1.5,1.5,0,0,1,61.95,793.242Zm13.463-13.2a11.681,11.681,0,0,0-3.621-.6,10.715,10.715,0,0,0-6.971,2.613,23.44,23.44,0,0,0-14.5,0,10.713,10.713,0,0,0-6.971-2.613,11.681,11.681,0,0,0-3.621.6l-1.278.417L39,781.681a27.857,27.857,0,0,1,1.054,2.851c.159.515.288.991.413,1.451a10.312,10.312,0,0,0,2.228,4.684,24.689,24.689,0,0,0-1.061,7.184,28.367,28.367,0,0,0,1.974,11.373,9.382,9.382,0,0,0,2.2,3.33l.676.563.743-.471,1.193-.756.917.7.9.681.743-.845a10.394,10.394,0,0,0,1.458-2.2,24.1,24.1,0,0,0,10.27,0,10.365,10.365,0,0,0,1.458,2.2l.742.845.9-.681.917-.7,1.193.756.743.471.676-.563a9.382,9.382,0,0,0,2.2-3.33,28.366,28.366,0,0,0,1.974-11.373,24.69,24.69,0,0,0-1.061-7.185,10.307,10.307,0,0,0,2.228-4.684c.125-.46.254-.935.413-1.451a27.752,27.752,0,0,1,1.054-2.852l.551-1.226ZM73.355,784c-.168.544-.3,1.035-.429,1.509a9,9,0,0,1-1.615,3.695,19.966,19.966,0,0,0-2.126-4.122,6.292,6.292,0,0,1,2.719-2.14l-.514-1.092c-2.829,1.331-3.457,3.009-3.482,3.079l-.111.313.2.262a21.674,21.674,0,0,1,3.7,12.35c0,8.409-2.39,12-3.234,13l-1.837-1.164L65.15,810.81a5.835,5.835,0,0,1-.966-1.591c.509-.149,1.016-.31,1.517-.493l-.415-1.133a22.382,22.382,0,0,1-15.429,0l-.415,1.133c.5.184,1.008.345,1.517.493a5.835,5.835,0,0,1-.966,1.591l-1.474-1.121-1.841,1.167c-.848-.991-3.23-4.529-3.23-13a21.675,21.675,0,0,1,3.7-12.349l.2-.262-.112-.313c-.025-.071-.654-1.748-3.482-3.079l-.514,1.092a6.3,6.3,0,0,1,2.719,2.14,19.981,19.981,0,0,0-2.126,4.123,9,9,0,0,1-1.615-3.695c-.129-.475-.262-.965-.429-1.509-.31-1.007-.641-1.874-.864-2.426a8.792,8.792,0,0,1,8.65,2.266l.275.31.388-.145a21.516,21.516,0,0,1,14.671,0l.387.143.275-.307a8.791,8.791,0,0,1,8.65-2.267C74,782.126,73.665,782.993,73.355,784ZM56.93,792.386v.54a.926.926,0,0,1-1.852,0v-.54a.926.926,0,1,1,1.852,0Zm-5.293-2.959a1.328,1.328,0,1,1-1.328-1.328A1.329,1.329,0,0,1,51.636,789.427Zm8.429,2.959v.54a.926.926,0,0,1-1.852,0v-.54a.926.926,0,1,1,1.852,0Z" transform="translate(-38.451 -775.875)" fill="#004b40"/>
        <g id="Group_6346" data-name="Group 6346" transform="translate(24.212 11.823)">
          <path id="Path_10753" data-name="Path 10753" d="M100.253,803l-2.88-1.67,2.861-1.8.643,1.023-1.167.733,1.149.666Z" transform="translate(-97.373 -799.535)" fill="#004b40"/>
        </g>
      </g>
    </g>
  </g>
</svg>
