<?xml version="1.0" encoding="utf-8"?>
<!-- Generator: Adobe Illustrator 16.0.0, SVG Export Plug-In . SVG Version: 6.00 Build 0)  -->
<!DOCTYPE svg PUBLIC "-//W3C//DTD SVG 1.1//EN" "http://www.w3.org/Graphics/SVG/1.1/DTD/svg11.dtd">
<svg version="1.1" id="Capa_1" xmlns="http://www.w3.org/2000/svg" xmlns:xlink="http://www.w3.org/1999/xlink" x="0px" y="0px"
	 width="186.788px" height="216px" viewBox="0 0 186.788 216" enable-background="new 0 0 186.788 216" xml:space="preserve">
<path fill="#003A2F" d="M185.487,199.567c0,4.669-40.852,8.453-91.243,8.453C43.851,208.02,3,204.236,3,199.567
	s40.851-8.453,91.244-8.453C144.636,191.114,185.487,194.898,185.487,199.567"/>
<path fill="#F2AE03" d="M95.134,55.868c0,0,11.08-42.145,38.769-40.458c2.815,0.316,15.957,13.036,15.464,17.418
	c-0.493,4.379-4.174,25.823-34.212,25.294c-30.035-0.53-9.385-1.057-9.385-1.057s27.093-7.088,24.298-21.659
	c0,0-15.751,2.028-27.945,20.298C89.927,73.972,95.134,55.868,95.134,55.868"/>
<path fill="#F7D93B" d="M149.366,32.827c0.021-0.19,0.008-0.402-0.021-0.623c-9.6,0.2-19.277,3.202-19.277,3.202
	c2.795,14.571-24.297,21.659-24.297,21.659s-0.09,0.002-0.248,0.006l-0.869,0.808c2.481,0.08,5.893,0.161,10.501,0.242
	C145.192,58.652,148.873,37.207,149.366,32.827"/>
<path fill="#F2AE03" d="M93.569,56.63c1.132-6.304-7.203-44.836-35.733-44.669c0,0-14.874,12.055-16.363,15.899
	c-1.489,3.845,11.639,19.704,19.981,21.994c9.231,2.535,18.976,5.297,18.976,5.297S58.855,44.18,58.226,31.014
	c1.715-0.229,25.855,8.593,29.086,24.913C90.545,72.247,93.569,56.63,93.569,56.63"/>
<path fill="#F7D93B" d="M71.99,56.814c6.936,1.225,4.626-0.768,8.169,0l1.608-1.055C76.779,52.928,58.751,42,58.226,31.014
	c0,0-13.181-4.863-16.753-3.152C38.293,32.205,54.047,53.648,71.99,56.814"/>
<polygon fill="#1EEA00" points="28.121,120.17 28.121,198.313 45.356,200.193 126.041,198.626 159.291,196.589 161.871,113.693
	31.677,110.873 "/>
<polygon fill="#26CC09" points="159.344,196.588 161.897,113.693 133.043,113.067 128.985,116.769 127.767,198.527 "/>
<polygon fill="#2AA80F" points="28.121,120.17 28.121,198.313 45.121,200.099 45.121,113.066 35.108,110.937 31.791,110.873 "/>
<polygon fill="#196606" points="28.121,119.29 28.121,124.174 42.519,117.863 132.19,119.298 161.549,122.092 161.871,113.425
	31.677,110.873 "/>
<polygon fill="#1EEA00" points="21.072,72 40.744,54.977 77.721,55.729 89.302,60.221 102.7,56.236 133.808,56.869 166.342,68.975
	164.451,119.29 132.296,116.263 42.73,114.845 24.004,123.073 "/>
<polygon fill="#2AA80F" points="21.072,72 24.004,123.073 42.73,114.845 40.744,54.977 "/>
<polygon fill="#26CC09" points="166.342,68.974 133.808,56.869 132.296,116.263 164.451,119.29 "/>
<polygon fill="#F7D93B" points="77.932,55.729 78.328,113.034 78.473,199.558 103.121,199.059 103.121,115.793 103.121,113.806
	103.121,56.236 "/>
<path fill="#B29249" d="M74.1,94.139c2.006-2.037,10.023-4.611,18.212,2.764c-0.085-3.617,3.272-40.014,3.308-40.811l-9.002-0.229
	C85.959,58.208,70.574,92.997,74.1,94.139"/>
<path fill="#747677" d="M74.1,94.139c0.684-0.695,2.078-1.443,3.929-1.847l0.013-0.014L78,87.125l-3.588,1.122
	C73.51,91.57,73.239,93.861,74.1,94.139"/>
<path fill="#F2AE03" d="M70.646,92.322c0.557-2.359,11.424-6.552,18.948,0c1.863-1.753,7.403-36.218,7.403-36.218
	c-12.826-3.849-16.115-0.24-16.115-0.24C80.276,57.947,67.407,91.306,70.646,92.322"/>
<path fill="#F9BA2D" d="M124.417,37.021c3.425-1.328,5.649-1.615,5.649-1.615s1.738-0.537,4.456-1.17l0.001-0.001
	c0,0-3.602-12.684-15.275-15.267c-3.063,1.786-5.808,4.121-8.244,6.756C111.004,25.724,124.353,28.942,124.417,37.021"/>
<path fill="#F9BA2D" d="M75.856,18.694c-8.404,1.22-13.288,8.973-15.106,13.973h0.003c2.582,0,7.368,1.973,12.368,4.649V37.17
	v-0.075c2-9.331,11-10.549,11.087-10.562c-0.002-0.003-0.332,0.23-0.334,0.229C81.716,23.665,78.838,21.042,75.856,18.694"/>
<path fill="#003A2F" d="M68.37,183.491c0,4.084-3.311,7.395-7.395,7.395s-7.395-3.311-7.395-7.395s3.311-7.396,7.395-7.396
	S68.37,179.407,68.37,183.491"/>
<path fill="#003A2F" d="M68.37,140.257c0,4.084-3.311,7.395-7.395,7.395s-7.395-3.311-7.395-7.395s3.311-7.396,7.395-7.396
	S68.37,136.173,68.37,140.257"/>
<path fill="#003A2F" d="M122.98,183.491c0,4.084-3.312,7.395-7.396,7.395s-7.395-3.311-7.395-7.395s3.311-7.396,7.395-7.396
	S122.98,179.407,122.98,183.491"/>
<path fill="#003A2F" d="M122.98,140.257c0,4.084-3.312,7.395-7.396,7.395s-7.395-3.311-7.395-7.395s3.311-7.396,7.395-7.396
	S122.98,136.173,122.98,140.257"/>
</svg>
