<?xml version="1.0" encoding="utf-8"?>
<!-- Generator: Adobe Illustrator 16.0.0, SVG Export Plug-In . SVG Version: 6.00 Build 0)  -->
<!DOCTYPE svg PUBLIC "-//W3C//DTD SVG 1.1//EN" "http://www.w3.org/Graphics/SVG/1.1/DTD/svg11.dtd">
<svg version="1.1" id="Capa_1" xmlns="http://www.w3.org/2000/svg" xmlns:xlink="http://www.w3.org/1999/xlink" x="0px" y="0px"
	 width="117.667px" height="138.5px" viewBox="0 0 117.667 138.5" enable-background="new 0 0 117.667 138.5" xml:space="preserve">
<g opacity="0.51">
	<g>
		<defs>
			<rect id="SVGID_1_" x="7.822" y="21.994" width="88.808" height="104.238"/>
		</defs>
		<clipPath id="SVGID_2_">
			<use xlink:href="#SVGID_1_"  overflow="visible"/>
		</clipPath>
		<g clip-path="url(#SVGID_2_)">
			<defs>
				<path id="SVGID_3_" d="M74.353,122.946l-4.059,3.086l-0.905-0.914c-0.131-0.132-2.911-2.968-3.956-6.118
					c-4.341,1.029-8.777,1.549-13.207,1.549c-4.43,0-8.866-0.521-13.208-1.549c-1.044,3.15-3.824,5.986-3.955,6.118l-0.905,0.914
					l-4.059-3.086l-5.186,3.286l-0.692-1.546c-0.092-0.206-9.209-20.889-9.209-46.77c0-7.691,1.46-17.102,4.341-27.985
					c-4.384-4.409-5.886-9.516-7.473-14.908c-0.248-0.845-0.5-1.701-0.767-2.568c-1.217-3.953-2.608-7.061-2.622-7.092l-0.669-1.488
					l1.551-0.506c2.798-0.912,5.602-1.375,8.335-1.375c8.811,0,14.632,4.695,16.582,6.543c5.636-1.984,11.665-2.989,17.936-2.989
					s12.3,1.005,17.935,2.989c1.95-1.849,7.77-6.543,16.583-6.543c2.733,0,5.537,0.463,8.335,1.375l1.551,0.506l-0.669,1.488
					c-0.014,0.031-1.405,3.139-2.622,7.092c-0.267,0.867-0.519,1.723-0.768,2.568c-1.586,5.392-3.088,10.498-7.47,14.906
					c2.879,10.774,4.339,20.186,4.339,27.987c0,25.881-9.118,46.564-9.21,46.77l-0.691,1.546L74.353,122.946z"/>
			</defs>
			<clipPath id="SVGID_4_">
				<use xlink:href="#SVGID_3_"  overflow="visible"/>
			</clipPath>

				<linearGradient id="SVGID_5_" gradientUnits="userSpaceOnUse" x1="282.7964" y1="801.3359" x2="283.7964" y2="801.3359" gradientTransform="matrix(0 63.9896 63.9896 0 -51224.9141 -18039.8672)">
				<stop  offset="0" style="stop-color:#00EB00"/>
				<stop  offset="0.2794" style="stop-color:#00EB00"/>
				<stop  offset="0.5054" style="stop-color:#00E700"/>
				<stop  offset="0.7293" style="stop-color:#00DB00"/>
				<stop  offset="0.9518" style="stop-color:#00C700"/>
				<stop  offset="1" style="stop-color:#00C200"/>
			</linearGradient>
			<rect x="7.822" y="21.994" clip-path="url(#SVGID_4_)" fill="url(#SVGID_5_)" width="88.808" height="104.238"/>
		</g>
	</g>
</g>
<path fill="#004A3D" d="M94.068,21.976c-2.945-0.96-5.901-1.447-8.789-1.447c-8.452-0.001-14.333,4.098-16.921,6.343
	c-5.554-1.852-11.464-2.789-17.597-2.789s-12.044,0.937-17.598,2.789c-2.587-2.244-8.469-6.343-16.921-6.343
	c-2.886,0-5.843,0.487-8.788,1.447L4.35,22.988l1.34,2.977c0.013,0.029,1.37,3.065,2.557,6.921c0.264,0.855,0.517,1.716,0.762,2.549
	c1.571,5.339,3.062,10.408,7.252,14.92c-2.774,10.668-4.18,19.933-4.18,27.561c0,26.192,8.956,46.516,9.338,47.368l1.382,3.092
	l2.861-1.813l2.895-1.834l2.225,1.692l2.048,1.556l1.809-1.828c0.311-0.314,2.513-2.594,3.813-5.444
	c4.057,0.87,8.185,1.31,12.309,1.31s8.252-0.44,12.308-1.31c1.301,2.849,3.502,5.13,3.813,5.444l1.809,1.828l2.048-1.556
	l2.225-1.692l2.895,1.834l2.861,1.813l1.383-3.092c0.381-0.852,9.337-21.176,9.337-47.368c0-7.734-1.405-17-4.177-27.565
	c4.188-4.51,5.679-9.577,7.249-14.914c0.245-0.834,0.499-1.695,0.762-2.551c1.188-3.856,2.545-6.892,2.558-6.922l1.336-2.976
	L94.068,21.976z M88.033,35.563c-1.23,4.459-2.236,8.08-5.279,11.453c-1.717-6.046-3.34-10.624-3.931-12.242
	c0.558-0.952,2.306-3.322,6.727-5.403l-1.248-2.652c-6.866,3.232-8.391,7.303-8.452,7.475l-0.182,0.507l0.19,0.504
	c0.092,0.244,9.186,24.565,9.186,43.059c0,21.183-6.249,38.781-8.307,44l-4.002-2.535l-3.578,2.72
	c-0.816-0.993-1.842-2.455-2.345-3.863c1.236-0.361,2.466-0.751,3.683-1.197l-1.009-2.752c-6.03,2.21-12.33,3.33-18.725,3.33
	c-6.396,0-12.696-1.12-18.726-3.33l-1.008,2.752c1.216,0.446,2.447,0.836,3.683,1.197c-0.504,1.408-1.53,2.87-2.346,3.863
	l-3.578-2.72l-4.002,2.535c-2.058-5.213-8.307-22.791-8.307-44c0-18.494,9.095-42.815,9.187-43.059l0.19-0.504l-0.182-0.507
	c-0.062-0.172-1.587-4.243-8.453-7.475l-1.248,2.652c4.433,2.086,6.178,4.463,6.728,5.4c-0.591,1.617-2.214,6.197-3.932,12.245
	c-3.043-3.373-4.048-6.994-5.279-11.453c-0.321-1.165-0.654-2.37-1.04-3.623c-0.752-2.443-1.554-4.547-2.098-5.887
	c12.875-3.369,20.661,5.126,20.996,5.501l0.667,0.753l0.943-0.352c5.561-2.076,11.552-3.128,17.805-3.128s12.243,1.052,17.805,3.128
	l0.942,0.352l0.667-0.753c0.082-0.093,8.046-8.871,20.996-5.5c-0.543,1.34-1.346,3.443-2.098,5.886
	C88.687,33.193,88.355,34.398,88.033,35.563"/>
<path fill="#004A3D" d="M36.486,81.458l-2.906,0.382c0.708,5.386,1.062,9.513,1.227,11.833l-4.05-1.293l-2.999,3.216
	c-1.184-2.146-3.337-6.236-5.807-11.798l-2.678,1.19c3.814,8.589,6.813,13.611,6.939,13.821l1.001,1.668l4.421-4.741l6.318,2.018
	l-0.087-2.095C37.855,95.437,37.625,90.118,36.486,81.458"/>
<path fill="#004A3D" d="M33.131,48.826c1.781,0,3.225-1.444,3.225-3.225c0-1.781-1.444-3.224-3.225-3.224
	c-1.781,0-3.224,1.443-3.224,3.224C29.907,47.382,31.35,48.826,33.131,48.826"/>
<path fill="#004A3D" d="M68.391,48.826c1.781,0,3.225-1.444,3.225-3.225c0-1.781-1.444-3.224-3.225-3.224
	c-1.781,0-3.224,1.443-3.224,3.224C65.167,47.382,66.61,48.826,68.391,48.826"/>
<path fill="#004A3D" d="M70.81,92.38l-4.051,1.294c0.165-2.321,0.52-6.448,1.227-11.834l-2.905-0.382
	c-1.138,8.661-1.37,13.979-1.379,14.202l-0.087,2.094l6.318-2.017l4.421,4.74l1.001-1.668c0.125-0.21,3.125-5.232,6.939-13.821
	l-2.679-1.19c-2.469,5.562-4.622,9.652-5.806,11.798L70.81,92.38z"/>
<path fill="#7FFF5D" d="M50.761,64.617c3.209,0,9.491-3.64,11.965-9.155c2.467-5.498-2.877-7.223-5.009-7.612
	c-2.554-0.466-6.956-0.507-6.956-0.507s-4.402,0.041-6.956,0.507c-2.132,0.389-7.476,2.114-5.009,7.612
	C41.27,60.977,47.552,64.617,50.761,64.617"/>
<path fill="#004A3D" d="M64.211,50.281c-1.437-2.73-4.836-3.618-6.231-3.872c-2.647-0.483-7.02-0.53-7.233-0.532
	c-0.185,0.002-4.559,0.049-7.205,0.532c-1.395,0.254-4.795,1.142-6.231,3.872c-0.876,1.665-0.826,3.61,0.148,5.781
	c2.785,6.208,9.624,10.02,13.302,10.02c3.677,0,10.517-3.812,13.302-10.02C65.037,53.891,65.087,51.946,64.211,50.281
	 M61.389,54.862c-2.307,5.142-8.192,8.29-10.628,8.29s-8.321-3.148-10.628-8.29c-0.587-1.307-0.664-2.389-0.228-3.217
	c0.683-1.299,2.598-2.068,4.163-2.353c2.399-0.438,6.664-0.484,6.679-0.484c0.043,0,4.308,0.046,6.707,0.484
	c1.564,0.285,3.479,1.054,4.163,2.353C62.052,52.473,61.975,53.555,61.389,54.862"/>
<path fill="#004A3D" d="M54.5,50.536c-1.236,0-2.5,1.011-2.5,2.248v1.309c0,1.237,1.264,2.248,2.5,2.248
	c1.236,0,2.5-1.011,2.5-2.248v-1.309C57,51.547,55.736,50.536,54.5,50.536"/>
<path fill="#004A3D" d="M47,50.536c-1.236,0-2,1.011-2,2.248v1.309c0,1.237,0.764,2.248,2,2.248c1.236,0,2-1.011,2-2.248v-1.309
	C49,51.547,48.236,50.536,47,50.536"/>
<path fill="#FFB95C" d="M81.375,131.603c2.022-1.218,4.034-2.333,5.907-3.753c2.863-2.171,5.541-4.526,7.938-7.232
	c2.674-3.017,4.853-6.357,6.861-9.835c2.574-4.46,4.104-9.306,5.369-14.263c0.897-3.514,1.333-7.081,1.496-10.696
	c0.164-3.633,0.378-7.262,0.59-11.238c0-0.51-0.02-1.362,0.006-2.213c0.013-0.415-0.127-0.577-0.545-0.644
	c-2.394-0.385-4.782-0.804-7.173-1.203c-4.621-0.77-9.084-2.088-13.376-3.956c-2.415-1.05-4.601-2.193-6.976-3.331
	C81.238,63.127,81,63.059,81,63.037V60h-0.003c0.896,0,1.782,0.898,2.691,1.337c4.576,2.209,9.221,4.244,14.173,5.448
	c3.274,0.796,6.578,1.332,9.89,1.973c1.421,0.275,3.249,0.484,4.249,0.732v3.742c0,0.203-0.057,0.404-0.067,0.608
	c-0.179,3.652-0.352,7.303-0.508,10.956c-0.167,3.887-0.667,7.717-1.618,11.496c-1.147,4.552-2.483,9.048-4.645,13.22
	c-3.545,6.839-7.958,13.027-13.973,17.981c-2.665,2.196-5.302,4.407-8.362,6.042c-0.584,0.312-1.001,0.583-1.612,0.84
	c-0.116,0.048-0.215,0.072-0.215,0.061v-2.68C81,131.748,81.225,131.693,81.375,131.603"/>
<path fill="#FBB040" d="M58.133,67.902c5.644-0.971,11.052-2.815,16.24-5.2c1.731-0.795,3.466-1.571,5.183-2.396
	C79.751,60.213,79.942,60,80.123,60H81v3.037c-1-0.031-0.782,0.03-1.11,0.194c-4.434,2.221-9.031,4.283-13.802,5.698
	c-3.225,0.957-6.567,1.58-9.889,2.083c-1.413,0.215-2.839,0.501-4.249,0.735c-0.342,0.057-0.455,0.211-0.441,0.544
	c0.189,4.214,0.335,8.429,0.553,12.642c0.114,2.196,0.202,4.408,0.539,6.575c0.812,5.216,2.141,10.307,4.319,15.137
	c2.936,6.508,6.875,12.331,12.15,17.178c2.799,2.572,5.669,5.079,9.049,6.897c0.693,0.373,1.598,0.715,2.334,0.987
	c0.102,0.038-0.453,0.053,0.547,0.048v2.681c0-0.005-0.318-0.018-0.371-0.041c-0.836-0.36-1.78-0.707-2.571-1.154
	c-2.446-1.383-4.749-3.033-6.887-4.863c-3.055-2.615-6.013-5.335-8.475-8.532c-4.756-6.179-8.4-12.928-10.45-20.486
	c-1.071-3.945-1.991-7.924-2.275-12.013c-0.228-3.274-0.448-6.555-0.62-9.833C49.268,75.92,49,74.327,49,72.733v-3.244
	C52,68.959,55.117,68.421,58.133,67.902"/>
<path fill="#D7D7D7" d="M79.856,65.152c-4.549,2.321-9.259,4.514-14.246,5.718c-3.096,0.748-6.301,1.238-9.431,1.845
	c-0.851,0.165-1.725,0.333-2.649,0.514c0.069,2.03,0.11,3.96,0.191,5.89c0.095,2.241,0.228,4.481,0.316,6.723
	c0.313,8.047,2.131,15.737,5.764,22.921c3.193,6.315,7.503,11.786,13.048,16.261c2.207,1.782,4.656,3.439,7.225,4.663
	c0.26,0.123-0.074,0.188,0.926,0.197v1.871c-1,0.005-0.445-0.01-0.547-0.048c-0.736-0.272-1.547-0.614-2.239-0.987
	c-3.381-1.818-6.298-4.325-9.097-6.897c-5.275-4.847-9.238-10.67-12.174-17.179c-2.179-4.829-3.521-9.92-4.333-15.136
	c-0.337-2.167-0.434-4.379-0.547-6.575c-0.219-4.213-0.374-8.428-0.562-12.642c-0.015-0.333,0.085-0.487,0.427-0.544
	c1.41-0.234,2.812-0.52,4.225-0.735c3.322-0.503,6.616-1.126,9.841-2.083c4.771-1.415,9.462-3.477,13.897-5.698
	C80.219,63.067,80,63.006,81,63.037v1.87C80,64.897,80.197,64.979,79.856,65.152"/>
<path fill="#E4E7E7" d="M88.447,66.57c4.292,1.868,8.755,3.185,13.376,3.956c2.391,0.399,4.779,0.817,7.172,1.202
	c0.418,0.067,0.558,0.229,0.545,0.644c-0.026,0.851-0.008,1.703-0.008,2.214c-0.212,3.976-0.429,7.605-0.593,11.237
	c-0.163,3.615-0.605,7.183-1.502,10.697c-1.265,4.956-2.807,9.803-5.38,14.262c-2.008,3.479-4.211,6.819-6.885,9.836
	c-2.397,2.706-5.123,5.061-7.985,7.231c-1.873,1.421-3.791,2.535-5.813,3.754c-0.15,0.09-0.374,0.145-0.374,0.152v-1.871
	c0,0.011,0.404-0.07,0.713-0.235c2.239-1.197,4.285-2.532,6.214-4.201c2.296-1.985,4.593-3.92,6.553-6.254
	c4.409-5.251,7.889-11.032,9.847-17.638c0.946-3.19,1.657-6.452,2.35-9.71c0.305-1.43,0.322-2.928,0.394-4.399
	c0.208-4.296,0.401-8.592,0.543-12.89c0.049-1.496,0.346-1.283-1.329-1.6c-3.581-0.677-7.19-1.239-10.728-2.093
	c-4.963-1.199-9.379-3.372-13.897-5.71C81.358,64.998,81,64.917,81,64.908v-1.871c0,0.022,0.238,0.09,0.471,0.201
	C83.846,64.377,86.032,65.519,88.447,66.57"/>
<path fill="#FFB95C" d="M81.66,65.154c4.519,2.337,9.029,4.51,13.992,5.709c3.537,0.855,7.099,1.417,10.679,2.093
	c1.676,0.317,1.354,0.105,1.304,1.601c-0.142,4.298-0.349,8.594-0.558,12.889c-0.071,1.472-0.1,2.969-0.405,4.4
	c-0.693,3.258-1.419,6.519-2.365,9.71c-1.958,6.605-5.463,12.387-9.872,17.638c-1.96,2.334-4.305,4.268-6.601,6.254
	c-1.929,1.669-3.881,3.004-6.12,4.2c-0.309,0.166-0.714,0.246-0.714,0.235V64.908C81,64.917,81.357,64.999,81.66,65.154"/>
<path fill="#FBB040" d="M72.848,125.024c-5.544-4.475-9.856-9.947-13.049-16.261c-3.634-7.184-5.454-14.874-5.768-22.921
	c-0.087-2.242-0.226-4.482-0.321-6.724c-0.081-1.929-0.134-3.86-0.203-5.889c0.924-0.181,1.775-0.349,2.626-0.514
	c3.13-0.607,6.287-1.097,9.383-1.845c4.987-1.204,9.792-3.398,14.341-5.718C80.196,64.979,80,64.897,81,64.908v64.976
	c-1-0.009-0.667-0.073-0.927-0.197C77.504,128.462,75.055,126.807,72.848,125.024"/>
<path fill="#98A19C" d="M81,74v-0.138c-2,0.007-2.638,0.149-3.66,0.559c-0.955,0.384-1.898,0.907-2.599,1.624
	c-1.011,1.033-1.931,2.399-2.296,3.981C72.197,81.101,72,81.925,72,82.108V87h4v-4.904v-0.008v-0.026
	c0-0.125,0.185-2.205,1.486-3.518C78.264,77.76,79,77.376,81,77.37V74z"/>
<path fill="#7E7E7E" d="M88.729,80.009c-0.365-1.582-1.102-2.965-2.113-3.998c-0.701-0.717-1.546-1.275-2.501-1.659
	c-1.022-0.41-2.186-0.483-3.456-0.49L80.656,74H81v3.37c1,0.006,2.236,0.39,3.014,1.175C85.308,79.851,85,81.917,85,82.06v0.004V87
	h4v-4.892C89,81.926,88.976,81.083,88.729,80.009"/>
<path fill="#004A3D" d="M71.318,87C70.033,87,69,87.554,69,88.771v17.612C69,107.6,70.033,109,71.318,109H81V87H71.318z"/>
<path fill="#004A3D" d="M89.926,87H81v22h8.926c1.285,0,2.074-1.4,2.074-2.617V88.771C92,87.554,91.211,87,89.926,87"/>
<path fill="#EAF6F8" d="M84.456,95.808c0-1.922-1.616-3.48-3.538-3.48c-1.922,0-3.484,1.558-3.484,3.48
	c0,1.217,0.566,2.288,1.566,2.91v5.841c0,0.159,0.08,0.441,0.239,0.441h3.243c0.159,0,0.518-0.282,0.518-0.441v-5.841
	C84,98.096,84.456,97.025,84.456,95.808"/>
<path fill="#004A3D" d="M49.5,6.981c-13.547,0-24.5,4.575-24.5,10.22V17.6v2.475l3.584,1.127L31.266,31h36.827l2.502-9.798
	L74,20.075V17.6v-0.398C74,11.557,63.047,6.981,49.5,6.981"/>
<path fill="#012D25" d="M68.093,31H31.266c-0.269,0-0.506-0.093-0.576-0.353l-2.516-9.21l-2.951-0.806
	C24.96,20.562,25,20.347,25,20.075v-2.874c0-6.066,10.91-10.817,25-10.817c14.09,0,25,4.751,25,10.817v2.874
	c0,0.272-0.28,0.509-0.543,0.578l-3.223,0.828l-2.54,9.166C68.623,30.907,68.362,31,68.093,31 M31.723,30h35.913l2.487-9.157
	c0.056-0.206,0.413-0.372,0.62-0.426L74,19.613v-2.412c0-5.216-11.028-9.622-24-9.622c-12.972,0-24,4.406-24,9.622v2.412
	l2.936,0.799c0.208,0.054,0.307,0.225,0.363,0.431L31.723,30z"/>
<polygon fill="#004A3D" points="30.273,28 31.266,31 68.093,31 69.086,28 "/>
<path fill="#012D25" d="M68.549,32h-37.74l-1.317-5h40.376L68.549,32z M31.723,31h35.913l0.668-3H31.055L31.723,31z"/>
<path fill="#012D25" d="M49.68,36.722C59.893,36.722,68.171,34,68.171,31H31.188C31.188,34,39.466,36.722,49.68,36.722"/>
<path fill="#012D25" d="M50,37.604c-9.254,0-19-2.214-19-6.319V31h38v0.285C69,35.39,59.254,37.604,50,37.604 M31.93,32
	c1.077,2,8.065,4.527,17.75,4.527c9.684,0,16.672-2.527,17.749-4.527H31.93z"/>
<path fill="#D7D7D7" d="M49.681,10.867c-0.8,0.408-1.687,0.794-2.564,1.006c-0.545,0.131-1.138,0.217-1.688,0.324
	c-0.15,0.029-0.318,0.059-0.481,0.09c0.012,0.357,0.012,0.697,0.027,1.036c0.016,0.394,0.036,0.788,0.051,1.182
	c0.055,1.415,0.373,2.768,1.012,4.031c0.562,1.111,1.319,2.073,2.294,2.86c0.388,0.313,0.936,0.604,1.388,0.82
	C49.766,22.237,50,22.249,50,22.25v0.329c0,0.001-0.196-0.001-0.214-0.008c-0.13-0.048-0.331-0.108-0.453-0.174
	c-0.594-0.319-1.137-0.76-1.629-1.213c-0.928-0.852-1.639-1.876-2.155-3.02c-0.384-0.85-0.627-1.745-0.77-2.662
	c-0.059-0.381-0.08-0.77-0.1-1.157c-0.038-0.74-0.067-1.482-0.1-2.223c-0.003-0.058,0.014-0.085,0.074-0.095
	c0.248-0.041,0.494-0.092,0.742-0.129c0.584-0.089,1.163-0.199,1.731-0.367c0.839-0.249,1.781-0.611,2.561-1.002
	C49.745,10.5,50,10.49,50,10.495v0.329C50,10.822,49.741,10.836,49.681,10.867"/>
<path fill="#E4E7E7" d="M51.074,11.116c0.755,0.328,1.54,0.56,2.352,0.696c0.421,0.07,0.841,0.143,1.261,0.211
	c0.074,0.012,0.099,0.04,0.096,0.113c-0.004,0.15-0.001,0.3-0.001,0.39c-0.037,0.699-0.076,1.337-0.104,1.976
	c-0.029,0.635-0.107,1.263-0.265,1.881c-0.222,0.871-0.493,1.724-0.946,2.508c-0.353,0.612-0.74,1.199-1.21,1.729
	c-0.422,0.476-0.901,0.89-1.405,1.272c-0.329,0.25-0.548,0.446-0.904,0.66C49.922,22.568,50,22.578,50,22.579V22.25
	c0,0.002-0.047-0.012,0.008-0.041c0.393-0.211,0.694-0.446,1.034-0.739c0.403-0.349,0.778-0.69,1.122-1.1
	c0.776-0.923,1.373-1.94,1.717-3.102c0.167-0.561,0.284-1.134,0.406-1.707c0.054-0.252,0.053-0.515,0.066-0.774
	c0.036-0.755,0.068-1.511,0.093-2.266c0.009-0.264,0.06-0.226-0.234-0.282c-0.63-0.119-1.265-0.218-1.887-0.368
	c-0.873-0.211-1.532-0.593-2.326-1.004C49.945,10.84,50,10.825,50,10.824v-0.329c0,0.004-0.076,0.016-0.035,0.035
	C50.383,10.73,50.649,10.931,51.074,11.116"/>
<path fill="#FFB95C" d="M49.998,10.867c0.795,0.411,1.529,0.793,2.402,1.004c0.622,0.15,1.218,0.249,1.848,0.368
	c0.295,0.056,0.223,0.018,0.215,0.281c-0.025,0.756-0.069,1.512-0.106,2.267c-0.012,0.259-0.021,0.522-0.075,0.774
	c-0.122,0.573-0.251,1.146-0.418,1.707c-0.344,1.162-0.961,2.179-1.736,3.102c-0.345,0.41-0.758,0.751-1.162,1.1
	c-0.339,0.293-0.564,0.528-0.958,0.738C49.953,22.237,50,22.252,50,22.25V10.824C50,10.825,49.945,10.839,49.998,10.867"/>
<path fill="#FBB040" d="M48.331,21.396c-0.975-0.787-1.733-1.749-2.295-2.86c-0.639-1.263-0.959-2.615-1.014-4.03
	c-0.015-0.395-0.04-0.788-0.056-1.183c-0.015-0.339-0.024-0.678-0.036-1.035c0.162-0.032,0.312-0.062,0.462-0.091
	c0.55-0.106,1.105-0.193,1.65-0.324c0.877-0.212,1.84-0.598,2.639-1.006c0.06-0.03,0.319-0.045,0.319-0.043V22.25
	c0-0.001-0.235-0.012-0.28-0.034C49.268,22,48.718,21.708,48.331,21.396"/>
</svg>
