<?xml version="1.0" encoding="utf-8"?>
<!-- Generator: Adobe Illustrator 16.0.0, SVG Export Plug-In . SVG Version: 6.00 Build 0)  -->
<!DOCTYPE svg PUBLIC "-//W3C//DTD SVG 1.1//EN" "http://www.w3.org/Graphics/SVG/1.1/DTD/svg11.dtd">
<svg version="1.1" id="Capa_1" xmlns="http://www.w3.org/2000/svg" xmlns:xlink="http://www.w3.org/1999/xlink" x="0px" y="0px"
	 width="268px" height="85.333px" viewBox="0 0 268 85.333" enable-background="new 0 0 268 85.333" xml:space="preserve">
<polygon fill="#1EEA00" points="235.794,66.014 216.793,66.014 201.537,43.014 202.886,43.014 202.886,66.014 185.886,66.014
	185.886,21.014 202.886,21.014 202.886,37.014 201.537,37.014 216.419,21.014 235.045,21.014 217.075,38.311 "/>
<path fill="#1EEA00" d="M239.459,21.007c0-0.97,0.186-1.88,0.558-2.731c0.372-0.851,0.876-1.594,1.512-2.23
	c0.636-0.636,1.38-1.141,2.231-1.512c0.85-0.372,1.76-0.558,2.73-0.558s1.881,0.186,2.731,0.558c0.851,0.371,1.594,0.876,2.23,1.512
	c0.637,0.636,1.141,1.379,1.513,2.23c0.371,0.851,0.557,1.761,0.557,2.731c0,0.971-0.186,1.881-0.557,2.732
	c-0.372,0.85-0.876,1.594-1.513,2.23c-0.637,0.637-1.38,1.141-2.23,1.512c-0.851,0.372-1.761,0.558-2.731,0.558
	s-1.881-0.186-2.73-0.558c-0.852-0.371-1.596-0.875-2.231-1.512c-0.636-0.636-1.14-1.38-1.512-2.23
	C239.645,22.888,239.459,21.978,239.459,21.007 M241.387,21.007c0,0.731,0.133,1.421,0.396,2.07c0.266,0.649,0.63,1.213,1.098,1.692
	c0.466,0.479,1.008,0.86,1.625,1.143c0.616,0.284,1.278,0.426,1.984,0.426c0.705,0,1.367-0.142,1.985-0.426
	c0.617-0.283,1.159-0.664,1.625-1.143s0.832-1.043,1.096-1.692c0.266-0.649,0.397-1.339,0.397-2.07c0-0.73-0.132-1.42-0.397-2.069
	c-0.264-0.649-0.63-1.213-1.096-1.692s-1.008-0.86-1.625-1.144c-0.618-0.283-1.28-0.425-1.985-0.425
	c-0.706,0-1.368,0.142-1.984,0.425c-0.617,0.284-1.159,0.665-1.625,1.144c-0.468,0.479-0.832,1.043-1.098,1.692
	C241.52,19.587,241.387,20.277,241.387,21.007 M243.886,16.015h2.51c0.202,0,0.479,0.628,0.832,0.653
	c0.353,0.025,0.699,0.421,1.04,0.573c0.34,0.151,0.636,0.541,0.888,0.862c0.252,0.322,0.378,0.855,0.378,1.448
	c0,0.378-0.05,0.728-0.15,0.974c-0.102,0.245-0.23,0.466-0.389,0.624c-0.156,0.158-0.34,0.287-0.548,0.369s-0.419-0.162-0.633-0.137
	l1.89,2.634h-1.984l-1.683-2h0.85v2h-3V16.015z M245.696,20.308h0.775c0.113,0,0.236-0.006,0.369-0.019
	c0.132-0.012,0.255-0.044,0.368-0.094c0.113-0.051,0.208-0.129,0.283-0.237c0.075-0.107,0.113-0.255,0.113-0.444
	s-0.038-0.337-0.113-0.444s-0.17-0.186-0.283-0.236c-0.113-0.05-0.236-0.082-0.368-0.095c-0.133-0.012-0.256-0.019-0.369-0.019
	h-0.775V20.308z"/>
<path fill="#1EEA00" d="M160.886,66.014V41.843c0-5.148-1.323-9.828-6.845-9.828c-5.431,0-8.155,4.68-8.155,10.014v23.985h-15v-45
	h13.986l0.186,4.136c2.358-2.742,7.911-5.69,14.37-5.69c12.542,0,17.458,9.654,17.458,19.012v27.542H160.886z"/>
<polygon fill="#1EEA00" points="106.886,65.331 106.886,22.662 119.886,17.031 119.886,70.961 "/>
<path fill="#1EEA00" d="M72.3,68.799c-14.038,0-25.832-9.734-25.832-24.99c0-15.257,11.794-24.616,25.832-24.616
	c14.133,0,25.927,9.359,25.927,24.616C98.227,59.065,86.433,68.799,72.3,68.799 M72.3,31.922c-7.206,0-10.95,5.897-10.95,11.887
	s3.838,12.074,11.045,12.074c7.206,0,11.043-6.084,11.043-12.074S79.508,31.922,72.3,31.922"/>
<path fill="#1EEA00" d="M34.379,51.917c-2.214,2.54-5.464,4.152-9.098,4.152c-6.668,0-12.073-5.405-12.073-12.074
	c0-6.668,5.405-12.074,12.073-12.074c3.634,0,6.884,1.613,9.098,4.153c4.123-4.715,7.58-8.668,8.424-9.632
	c-4.487-4.479-10.68-7.25-17.522-7.25c-13.698,0-24.803,11.105-24.803,24.803c0,13.699,11.105,24.803,24.803,24.803
	c6.842,0,13.035-2.77,17.522-7.249L34.379,51.917z"/>
</svg>
