<?xml version="1.0" encoding="utf-8"?>
<!-- Generator: Adobe Illustrator 21.0.0, SVG Export Plug-In . SVG Version: 6.00 Build 0)  -->
<svg version="1.1" id="Layer_1" xmlns="http://www.w3.org/2000/svg" xmlns:xlink="http://www.w3.org/1999/xlink" x="0px" y="0px"
	 viewBox="0 0 421.4 250" style="enable-background:new 0 0 421.4 250;" xml:space="preserve">
<style type="text/css">
	.st0{fill:#E0E0E0;}
	.st1{fill:#1C78BB;}
	.st2{fill:#960000;}
	.st3{fill:#1EEB00;}
	.st4{fill:#004A3D;}
	.st5{fill:#7FFF5D;}
	.st6{fill:#012D25;}
	.st7{fill:#42414B;}
	.st8{fill:#68E270;}
	.st9{fill:#5A988C;}
	.st10{fill:#FBB040;}
	.st11{fill:#FFB95C;}
	.st12{fill:#D7D7D7;}
	.st13{fill:#E4E7E7;}
</style>
<title>SFC - home</title>
<g>
	<path class="st0" d="M66.5,160.2h288.4c4.7,0,8.5,3.8,8.5,8.5v72.9c0,4.7-3.8,8.5-8.5,8.5l0,0H66.5c-4.7,0-8.5-3.8-8.5-8.5v-72.9
		C58,164,61.8,160.2,66.5,160.2L66.5,160.2z"/>
	<path class="st1" d="M229.5,197.1h-4.9v4.5h5.4v1.4H223v-12.6h6.8v1.4h-5.1v4h4.9L229.5,197.1z"/>
	<path class="st1" d="M231.9,196.5c0-0.9,0-1.7-0.1-2.4h1.4l0.1,1.5h0c0.6-1.1,1.7-1.7,3-1.7c1.2,0,3.2,0.7,3.2,3.8v5.4H238v-5.2
		c0-1.4-0.5-2.7-2.1-2.7c-1,0-1.9,0.7-2.2,1.7c-0.1,0.2-0.1,0.5-0.1,0.8v5.4h-1.6V196.5z"/>
	<path class="st1" d="M244,191.4v2.6h2.3v1.2H244v4.9c0,1.1,0.3,1.8,1.2,1.8c0.3,0,0.6,0,0.9-0.1l0.1,1.2c-0.5,0.2-1,0.2-1.4,0.2
		c-0.7,0-1.3-0.2-1.8-0.7c-0.5-0.7-0.7-1.5-0.6-2.3v-4.9H241V194h1.4v-2.2L244,191.4z"/>
	<path class="st1" d="M249.8,191.5c0,0.6-0.5,1-1,1c-0.6,0-1-0.5-1-1c0-0.6,0.4-1,1-1c0,0,0,0,0,0h0
		C249.3,190.4,249.8,190.9,249.8,191.5C249.8,191.4,249.8,191.4,249.8,191.5C249.8,191.4,249.8,191.4,249.8,191.5z M248,203v-9h1.6
		v9H248z"/>
	<path class="st1" d="M259.9,189.8v10.9c0,0.8,0,1.6,0.1,2.3h-1.4l-0.1-1.6l0,0c-0.6,1.1-1.8,1.8-3.1,1.8c-2.2,0-3.9-1.8-3.9-4.6
		c0-3,1.8-4.8,4-4.8c1.1-0.1,2.1,0.5,2.7,1.4l0,0v-5.4L259.9,189.8z M258.3,197.7c0-0.2,0-0.5-0.1-0.7c-0.2-1.1-1.2-1.9-2.4-1.9
		c-1.7,0-2.7,1.5-2.7,3.5c0,1.8,0.9,3.3,2.7,3.3c1.2,0,2.2-0.8,2.4-2c0.1-0.2,0.1-0.5,0.1-0.7V197.7z"/>
	<path class="st1" d="M267.4,203l-0.1-1.1h-0.1c-0.6,0.9-1.7,1.4-2.8,1.3c-1.4,0.1-2.6-1-2.7-2.4c0-0.1,0-0.1,0-0.2
		c0-2.2,1.9-3.4,5.4-3.4v-0.2c0.1-1-0.6-2-1.6-2.1c-0.1,0-0.3,0-0.4,0c-0.8,0-1.6,0.2-2.3,0.7l-0.4-1.1c0.9-0.5,1.9-0.8,3-0.8
		c2.8,0,3.4,1.9,3.4,3.7v3.4c0,0.7,0,1.5,0.2,2.2L267.4,203z M267.2,198.4c-1.8,0-3.8,0.3-3.8,2c-0.1,0.8,0.5,1.5,1.3,1.6
		c0,0,0,0,0,0h0.2c1,0,1.9-0.6,2.2-1.5c0.1-0.2,0.1-0.3,0.1-0.5L267.2,198.4z"/>
	<path class="st1" d="M279,189.8v10.9c0,0.8,0,1.6,0.1,2.3h-1.4l-0.1-1.6l0,0c-0.6,1.1-1.8,1.8-3.1,1.8c-2.2,0-3.9-1.8-3.9-4.6
		c0-3,1.8-4.8,4-4.8c1.1-0.1,2.1,0.5,2.7,1.4l0,0v-5.4L279,189.8z M277.4,197.7c0-0.2,0-0.5-0.1-0.7c-0.2-1.1-1.2-1.9-2.4-1.9
		c-1.7,0-2.7,1.5-2.7,3.5c0,1.8,0.9,3.3,2.7,3.3c1.2,0,2.2-0.8,2.4-2c0.1-0.2,0.1-0.5,0.1-0.7V197.7z"/>
	<path class="st1" d="M286,194l1.8,5.1c0.3,0.8,0.5,1.5,0.7,2.3h0.1c0.2-0.7,0.5-1.5,0.7-2.3l1.8-5.1h1.7l-3.5,9h-1.6l-3.4-9H286z"
		/>
	<path class="st1" d="M295.9,191.5c0,0.6-0.5,1-1,1c-0.6,0-1-0.5-1-1c0-0.6,0.4-1,1-1c0,0,0,0,0,0h0
		C295.5,190.4,295.9,190.9,295.9,191.5C295.9,191.4,295.9,191.4,295.9,191.5C295.9,191.4,295.9,191.4,295.9,191.5z M294.1,203v-9
		h1.6v9H294.1z"/>
	<path class="st1" d="M306.1,194c0,0.7-0.1,1.4-0.1,2.5v5.2c0,2.1-0.4,3.3-1.3,4.1c-0.9,0.8-2.1,1.1-3.3,1.1c-1,0-2.1-0.2-3-0.7
		l0.4-1.2c0.8,0.5,1.7,0.7,2.6,0.7c1.7,0,2.9-0.9,2.9-3.1v-1l0,0c-0.6,1-1.7,1.6-2.9,1.5c-2.2,0-3.8-1.9-3.8-4.4
		c0-3.1,2-4.8,4.1-4.8c1.1-0.1,2.2,0.5,2.8,1.5l0,0l0.1-1.4H306.1z M304.4,197.5c0-0.2,0-0.5-0.1-0.7c-0.3-1-1.2-1.7-2.3-1.7
		c-1.6,0-2.7,1.3-2.7,3.4c0,1.8,0.9,3.2,2.7,3.2c1,0,2-0.7,2.3-1.7c0.1-0.3,0.1-0.6,0.1-0.9L304.4,197.5z"/>
	<path class="st1" d="M310.2,191.5c0,0.6-0.5,1-1,1c-0.6,0-1-0.5-1-1c0-0.6,0.4-1,1-1c0,0,0,0,0,0h0
		C309.7,190.4,310.2,190.9,310.2,191.5C310.2,191.4,310.2,191.4,310.2,191.5C310.2,191.4,310.2,191.4,310.2,191.5z M308.4,203v-9
		h1.6v9H308.4z"/>
	<path class="st1" d="M312.6,189.8h1.6V203h-1.6V189.8z"/>
	<path class="st1" d="M321.8,203l-0.1-1.1h-0.1c-0.6,0.9-1.7,1.4-2.8,1.3c-1.4,0.1-2.6-1-2.7-2.4c0-0.1,0-0.1,0-0.2
		c0-2.2,1.9-3.4,5.4-3.4v-0.2c0.1-1-0.6-2-1.6-2.1c-0.1,0-0.3,0-0.4,0c-0.8,0-1.6,0.2-2.3,0.7l-0.4-1.1c0.9-0.5,1.9-0.8,3-0.8
		c2.8,0,3.4,1.9,3.4,3.7v3.4c0,0.7,0,1.5,0.2,2.2L321.8,203z M321.6,198.4c-1.8,0-3.8,0.3-3.8,2c-0.1,0.8,0.5,1.5,1.3,1.6
		c0,0,0,0,0,0h0.2c1,0,1.9-0.6,2.2-1.5c0.1-0.2,0.1-0.3,0.1-0.5L321.6,198.4z"/>
	<path class="st1" d="M333.4,189.8v10.9c0,0.8,0,1.6,0.1,2.3H332l-0.1-1.6l0,0c-0.6,1.1-1.8,1.8-3.1,1.8c-2.2,0-3.9-1.8-3.9-4.6
		c0-3,1.8-4.8,4-4.8c1.1-0.1,2.1,0.5,2.7,1.4l0,0v-5.4L333.4,189.8z M331.8,197.7c0-0.2,0-0.5-0.1-0.7c-0.2-1.1-1.2-1.9-2.4-1.9
		c-1.7,0-2.7,1.5-2.7,3.5c0,1.8,0.9,3.3,2.7,3.3c1.2,0,2.2-0.8,2.4-2c0.1-0.2,0.1-0.5,0.1-0.7V197.7z"/>
	<path class="st1" d="M340.9,203l-0.1-1.1h-0.1c-0.6,0.9-1.7,1.4-2.8,1.3c-1.4,0.1-2.6-1-2.7-2.4c0-0.1,0-0.1,0-0.2
		c0-2.2,1.9-3.4,5.4-3.4v-0.2c0.1-1-0.6-2-1.6-2.1c-0.1,0-0.3,0-0.4,0c-0.8,0-1.6,0.2-2.3,0.7l-0.4-1.1c0.9-0.5,1.9-0.8,3-0.8
		c2.8,0,3.4,1.9,3.4,3.7v3.4c0,0.7,0,1.5,0.2,2.2L340.9,203z M340.7,198.4c-1.8,0-3.8,0.3-3.8,2c-0.1,0.8,0.5,1.5,1.3,1.6
		c0,0,0,0,0,0h0.2c1,0,1.9-0.6,2.2-1.5c0.1-0.2,0.1-0.3,0.1-0.5L340.7,198.4z"/>
	<path class="st2" d="M213.1,209.4l0.7,2.9c0.2,0.6,0.3,1.2,0.4,1.8l0,0c0.1-0.6,0.3-1.2,0.5-1.8l0.9-2.9h0.9l0.9,2.8
		c0.2,0.7,0.4,1.3,0.5,1.8l0,0c0.1-0.6,0.3-1.2,0.4-1.8l0.8-2.8h1l-1.8,5.6h-0.9l-0.9-2.7c-0.2-0.6-0.4-1.2-0.5-1.8l0,0
		c-0.1,0.6-0.3,1.2-0.5,1.9l-0.9,2.7h-0.9l-1.7-5.6L213.1,209.4z"/>
	<path class="st2" d="M221.8,209.4l0.7,2.9c0.2,0.6,0.3,1.2,0.4,1.8l0,0c0.1-0.6,0.3-1.2,0.5-1.8l0.9-2.9h0.9l0.9,2.8
		c0.2,0.7,0.4,1.3,0.5,1.8l0,0c0.1-0.6,0.3-1.2,0.4-1.8l0.8-2.8h1L227,215h-0.9l-0.9-2.7c-0.2-0.6-0.4-1.2-0.5-1.8l0,0
		c-0.1,0.6-0.3,1.2-0.5,1.9l-0.9,2.7h-0.9l-1.7-5.6L221.8,209.4z"/>
	<path class="st2" d="M230.5,209.4l0.7,2.9c0.2,0.6,0.3,1.2,0.4,1.8l0,0c0.1-0.6,0.3-1.2,0.5-1.8l0.9-2.9h0.9l0.9,2.8
		c0.2,0.7,0.4,1.3,0.5,1.8l0,0c0.1-0.6,0.3-1.2,0.4-1.8l0.8-2.8h1l-1.8,5.6h-0.9l-0.9-2.7c-0.2-0.6-0.4-1.2-0.5-1.8l0,0
		c-0.1,0.6-0.3,1.2-0.5,1.9l-0.9,2.7h-0.9l-1.7-5.6L230.5,209.4z"/>
	<path class="st2" d="M237.9,214.5c0-0.4,0.3-0.7,0.7-0.7s0.7,0.3,0.7,0.7s-0.3,0.7-0.7,0.7S237.9,214.9,237.9,214.5z"/>
	<path class="st2" d="M240.4,214c0.4,0.3,0.9,0.4,1.3,0.4c0.7,0,1.1-0.4,1.1-0.8c0-0.5-0.3-0.7-1-1c-1-0.4-1.5-0.9-1.5-1.6
		c0-1,0.8-1.7,1.8-1.7c0,0,0,0,0,0h0.1c0.5,0,1,0.1,1.4,0.3l-0.3,0.7c-0.3-0.2-0.7-0.3-1.2-0.3c-0.6,0-0.9,0.3-0.9,0.8
		c0,0.4,0.3,0.7,1.1,0.9c1,0.4,1.4,0.9,1.4,1.7c0,1-0.8,1.7-2.1,1.7c-0.6,0-1.1-0.1-1.6-0.4L240.4,214z"/>
	<path class="st2" d="M249.9,213.5c0,0.5,0,1,0.1,1.5H249l-0.1-0.9l0,0c-0.4,0.7-1.1,1.1-1.9,1c-0.9,0-1.9-0.5-1.9-2.5v-3.3h1v3.1
		c0,1.1,0.3,1.8,1.3,1.8c0.8,0,1.4-0.6,1.4-1.4v-3.4h1L249.9,213.5z"/>
	<path class="st2" d="M251.6,211.3c0-0.7,0-1.3-0.1-1.8h0.9l0,1l0,0c0.4-0.7,1.2-1.1,2-1.1c1.4,0,2.4,1.2,2.4,2.9c0,2-1.2,3-2.6,3
		c-0.7,0-1.4-0.3-1.7-0.9l0,0v3.1h-1L251.6,211.3z M252.6,212.8c0,0.1,0,0.3,0,0.4c0.2,0.7,0.8,1.2,1.5,1.2c1.1,0,1.7-0.9,1.7-2.2
		c0-1.1-0.6-2.1-1.7-2.1c-0.7,0-1.4,0.5-1.5,1.3c0,0.1-0.1,0.3-0.1,0.4L252.6,212.8z"/>
	<path class="st2" d="M258.8,212.4c-0.1,1,0.6,1.9,1.6,1.9c0.1,0,0.2,0,0.3,0c0.5,0,1.1-0.1,1.6-0.3l0.2,0.7
		c-0.6,0.2-1.2,0.4-1.9,0.3c-1.4,0.1-2.7-1-2.8-2.4c0-0.1,0-0.3,0-0.4c0-1.7,1-3,2.6-3c1.8,0,2.3,1.6,2.3,2.6c0,0.2,0,0.3,0,0.5
		L258.8,212.4z M261.7,211.7c0.1-0.8-0.4-1.5-1.2-1.6c0,0,0,0,0,0h-0.2c-0.9,0.1-1.5,0.8-1.6,1.7L261.7,211.7z"/>
	<path class="st2" d="M264,211.2c0-0.7,0-1.2-0.1-1.8h0.9v1.1h0c0.2-0.7,0.8-1.2,1.6-1.2c0.1,0,0.2,0,0.3,0v1c-0.1,0-0.2,0-0.3,0
		c-0.7,0-1.3,0.6-1.4,1.3c0,0.2,0,0.3,0,0.5v3h-1L264,211.2z"/>
	<path class="st2" d="M268.3,215.1v-4.8h-0.8v-0.8h0.8v-0.3c-0.1-0.7,0.2-1.4,0.7-2c0.4-0.3,0.9-0.5,1.4-0.5c0.3,0,0.6,0.1,0.9,0.2
		l-0.1,0.8c-0.2-0.1-0.4-0.1-0.7-0.1c-0.9,0-1.1,0.8-1.1,1.6v0.3h1.4v0.8h-1.4v4.8L268.3,215.1z"/>
	<path class="st2" d="M272.7,207.9c0,0.4-0.4,0.6-0.7,0.6c-0.3,0-0.5-0.3-0.6-0.6c0-0.3,0.3-0.6,0.6-0.6c0,0,0,0,0,0l0,0
		C272.4,207.2,272.7,207.5,272.7,207.9C272.7,207.8,272.7,207.8,272.7,207.9C272.7,207.8,272.7,207.9,272.7,207.9z M271.6,215.1
		v-5.6h1v5.6H271.6z"/>
	<path class="st2" d="M274.3,211c0-0.5,0-1-0.1-1.5h0.9l0.1,0.9l0,0c0.4-0.7,1.1-1.1,1.9-1.1c0.8,0,2,0.5,2,2.4v3.4h-1v-3.2
		c0-0.9-0.3-1.7-1.3-1.7c-0.8,0-1.5,0.7-1.4,1.5v3.4h-1L274.3,211z"/>
	<path class="st2" d="M283.8,215.1l-0.1-0.7l0,0c-0.4,0.5-1,0.8-1.7,0.8c-0.9,0.1-1.6-0.6-1.7-1.4c0,0,0-0.1,0-0.1
		c0-1.4,1.2-2.1,3.4-2.1v-0.1c0.1-0.6-0.4-1.2-1-1.3c-0.1,0-0.2,0-0.3,0c-0.5,0-1,0.2-1.4,0.4l-0.2-0.7c0.6-0.3,1.2-0.5,1.8-0.5
		c1.7,0,2.2,1.2,2.2,2.3v2.1c0,0.5,0,0.9,0.1,1.3L283.8,215.1z M283.7,212.2c-1.1,0-2.4,0.2-2.4,1.3c0,0.5,0.3,0.9,0.8,1h0.1
		c0.6,0,1.2-0.4,1.4-0.9c0-0.1,0.1-0.2,0.1-0.3V212.2z"/>
	<path class="st2" d="M286.3,211c0-0.5,0-1-0.1-1.5h0.9l0.1,0.9l0,0c0.4-0.7,1.1-1.1,1.9-1.1c0.8,0,2,0.5,2,2.4v3.4h-1v-3.2
		c0-0.9-0.3-1.7-1.3-1.7c-0.8,0-1.5,0.7-1.4,1.5v3.4h-1V211z"/>
	<path class="st2" d="M296.8,214.9c-0.5,0.2-1.1,0.3-1.6,0.3c-1.5,0.1-2.7-1.1-2.8-2.5c0-0.1,0-0.3,0-0.4c-0.1-1.6,1.1-2.9,2.7-3
		h0.3c0.5,0,1,0.1,1.4,0.3l-0.2,0.8c-0.4-0.2-0.8-0.3-1.2-0.3c-1.2,0.1-2.1,1.1-2,2.2c0.1,1.1,0.9,1.9,2,2c0.4,0,0.9-0.1,1.3-0.3
		L296.8,214.9z"/>
	<path class="st2" d="M299.1,207.9c0,0.4-0.4,0.6-0.7,0.6c-0.3,0-0.5-0.3-0.6-0.6c0-0.3,0.3-0.6,0.6-0.6c0,0,0,0,0,0l0,0
		C298.8,207.2,299.1,207.5,299.1,207.9C299.1,207.8,299.1,207.8,299.1,207.9C299.1,207.8,299.1,207.9,299.1,207.9z M298,215.1v-5.6
		h1v5.6H298z"/>
	<path class="st2" d="M301.3,212.4c-0.1,1,0.6,1.9,1.6,1.9c0.1,0,0.2,0,0.3,0c0.5,0,1.1-0.1,1.6-0.3l0.2,0.7
		c-0.6,0.2-1.2,0.4-1.9,0.3c-1.4,0.1-2.7-1-2.8-2.4c0-0.1,0-0.3,0-0.4c0-1.7,1-3,2.6-3c1.8,0,2.3,1.6,2.3,2.6c0,0.2,0,0.3,0,0.5
		L301.3,212.4z M304.3,211.7c0.1-0.8-0.4-1.5-1.2-1.6c0,0,0,0,0,0h-0.2c-0.9,0.1-1.5,0.8-1.6,1.7L304.3,211.7z"/>
	<path class="st2" d="M306.5,211.2c0-0.7,0-1.2-0.1-1.8h0.9v1.1h0c0.2-0.7,0.8-1.2,1.6-1.2c0.1,0,0.2,0,0.3,0v1c-0.1,0-0.2,0-0.3,0
		c-0.7,0-1.3,0.6-1.4,1.3c0,0.2,0,0.3,0,0.5v3h-1L306.5,211.2z"/>
	<path class="st2" d="M313.4,215.1l-0.1-0.7l0,0c-0.4,0.5-1,0.8-1.7,0.8c-0.9,0.1-1.6-0.6-1.7-1.4c0,0,0-0.1,0-0.1
		c0-1.4,1.2-2.1,3.4-2.1v-0.1c0.1-0.6-0.4-1.2-1-1.3c-0.1,0-0.2,0-0.3,0c-0.5,0-1,0.2-1.4,0.4l-0.2-0.7c0.6-0.3,1.2-0.5,1.8-0.5
		c1.7,0,2.2,1.2,2.2,2.3v2.1c0,0.5,0,0.9,0.1,1.3L313.4,215.1z M313.2,212.2c-1.1,0-2.4,0.2-2.4,1.3c0,0.5,0.3,0.9,0.8,1h0.1
		c0.6,0,1.2-0.4,1.4-0.9c0-0.1,0.1-0.2,0.1-0.3V212.2z"/>
	<path class="st2" d="M315.6,214.5c0-0.4,0.3-0.7,0.7-0.7c0.4,0,0.7,0.3,0.7,0.7s-0.3,0.7-0.7,0.7
		C315.9,215.2,315.6,214.9,315.6,214.5z"/>
	<path class="st2" d="M323.1,209.4c0,0.4,0,0.9,0,1.5v3.3c0,1.3-0.3,2.1-0.8,2.6c-0.6,0.5-1.3,0.7-2,0.7c-0.7,0-1.3-0.1-1.9-0.5
		l0.3-0.8c0.5,0.3,1.1,0.4,1.7,0.4c1,0,1.8-0.5,1.8-2v-0.6l0,0c-0.4,0.6-1.1,1-1.8,0.9c-1.4,0-2.4-1.2-2.4-2.7c0-1.9,1.2-3,2.5-3
		c0.7,0,1.4,0.3,1.8,1l0,0l0-0.8L323.1,209.4z M322,211.7c0-0.8-0.6-1.5-1.4-1.5c0,0,0,0-0.1,0c-1,0-1.7,0.8-1.7,2.1
		c0,1.1,0.6,2,1.7,2c0.7,0,1.3-0.4,1.4-1c0.1-0.2,0.1-0.4,0.1-0.5L322,211.7z"/>
	<path class="st2" d="M329.8,212.2c0.1,1.5-1,2.8-2.5,3H327c-1.5,0-2.7-1.2-2.7-2.6c0,0,0,0,0,0c0-0.1,0-0.2,0-0.3
		c-0.1-1.5,1-2.8,2.5-3c0,0,0,0,0,0h0.3c1.5,0,2.7,1.1,2.7,2.6C329.8,212,329.8,212.1,329.8,212.2L329.8,212.2z M325.4,212.3
		c0,1.2,0.7,2.2,1.7,2.2s1.7-0.9,1.7-2.2c0-0.9-0.5-2.2-1.7-2.2C325.9,210.1,325.4,211.2,325.4,212.3z"/>
	<path class="st2" d="M331.4,209.4l1.1,3.2c0.2,0.5,0.3,1,0.4,1.4l0,0c0.1-0.5,0.3-0.9,0.5-1.4l1.1-3.2h1.1l-2.2,5.6h-1l-2.2-5.6
		H331.4z"/>
	<path class="st2" d="M335.9,214.5c0-0.4,0.3-0.7,0.7-0.7c0.4,0,0.7,0.3,0.7,0.7s-0.3,0.7-0.7,0.7
		C336.3,215.2,335.9,214.9,335.9,214.5z"/>
	<path class="st2" d="M342.6,214.9c-0.5,0.2-1.1,0.3-1.6,0.3c-1.5,0.1-2.7-1.1-2.8-2.5c0-0.1,0-0.3,0-0.4c-0.1-1.6,1.1-2.9,2.7-3
		h0.3c0.5,0,1,0.1,1.4,0.3l-0.2,0.8c-0.4-0.2-0.8-0.3-1.2-0.3c-1.2,0.1-2.1,1.1-2,2.2c0.1,1.1,0.9,1.9,2,2c0.4,0,0.9-0.1,1.3-0.3
		L342.6,214.9z"/>
	<path class="st2" d="M348.8,212.2c0.1,1.5-1,2.8-2.5,3H346c-1.5,0-2.7-1.2-2.7-2.6c0,0,0,0,0,0c0-0.1,0-0.2,0-0.3
		c-0.1-1.5,1-2.8,2.5-3c0,0,0,0,0,0h0.3c1.5,0,2.7,1.1,2.7,2.6C348.8,212,348.8,212.1,348.8,212.2L348.8,212.2z M344.4,212.3
		c0,1.2,0.7,2.2,1.7,2.2c1,0,1.7-0.9,1.7-2.2c0-0.9-0.5-2.2-1.7-2.2S344.4,211.2,344.4,212.3L344.4,212.3z"/>
	<rect x="197.3" y="167" class="st1" width="3.4" height="76.3"/>
	<path id="_Path_" class="st3" d="M233.5,153.7l-4.7,3.5l-1-1c-0.2-0.2-3.3-3.4-4.5-7c-10,2.4-20.3,2.4-30.3,0
		c-1.2,3.6-4.4,6.9-4.5,7l-1,1.1l-4.7-3.5l-5.9,3.8l-0.8-1.8c-0.1-0.2-10.6-24-10.6-53.6c0-8.8,1.7-19.6,5-32.1
		c-5-5.1-6.8-10.9-8.6-17.1c-0.3-1-0.6-1.9-0.9-2.9c-0.9-2.8-1.9-5.5-3-8.2l-0.8-1.7l1.8-0.6c3.1-1,6.3-1.6,9.6-1.6
		c7.1,0,13.9,2.7,19,7.5c13.3-4.6,27.8-4.6,41.2,0c5.2-4.8,12-7.5,19-7.5c3.2,0,6.5,0.6,9.6,1.6l1.8,0.6l-0.7,1.7
		c-1.2,2.7-2.2,5.4-3,8.1c-0.3,1-0.6,2-0.9,2.9c-1.8,6.2-3.5,12-8.6,17.1c3.3,12.4,5,23.2,5,32.1c0,29.7-10.5,53.4-10.6,53.6
		l-0.8,1.8L233.5,153.7z"/>
	<path id="_Compound_Path_" class="st4" d="M257.8,37.9c-3.3-1.1-6.7-1.6-10.1-1.7c-7.1,0-14,2.6-19.4,7.2
		c-13.1-4.3-27.3-4.3-40.4,0c-5.4-4.7-12.3-7.2-19.4-7.2c-3.4,0-6.8,0.6-10.1,1.7l-3.6,1.2l1.5,3.4c1.1,2.6,2.1,5.3,2.9,8
		c0.3,1,0.6,2,0.9,2.9c1.8,6.1,3.5,11.9,8.3,17.1c-3.2,12.2-4.8,22.9-4.8,31.6c0,30,10.3,53.4,10.7,54.4l1.6,3.5l3.3-2.1l3.3-2.1
		l2.6,1.9l2.3,1.8l2.1-2.1c1.8-1.8,3.2-3.9,4.3-6.2c9.3,2,18.9,2,28.3,0c1.1,2.3,2.6,4.4,4.3,6.2l2.1,2.1l2.4-1.8l2.6-1.9l3.3,2.1
		l3.3,2.1l1.6-3.5c0.4-1,10.7-24.3,10.7-54.4c0-8.9-1.6-19.5-4.8-31.6c4.8-5.2,6.5-11,8.3-17.1c0.3-1,0.6-1.9,0.9-2.9
		c0.8-2.7,1.8-5.4,2.9-8l1.5-3.4L257.8,37.9z M250.9,53.5c-1.4,5.1-2.6,9.3-6.1,13.1c-2-6.9-3.8-12.2-4.5-14
		c0.6-1.1,2.6-3.8,7.7-6.2l-1.4-3c-7.9,3.7-9.6,8.4-9.7,8.6l-0.2,0.6l0.2,0.6c0.1,0.3,10.5,28.2,10.5,49.4
		c-0.1,17.3-3.4,34.4-9.5,50.5l-4.6-2.9l-4.1,3.1c-1.1-1.3-2-2.8-2.7-4.4c1.4-0.4,2.8-0.9,4.2-1.4l-1.2-3.2c-13.9,5.1-29.1,5.1-43,0
		l-1.2,3.2c1.4,0.5,2.8,1,4.2,1.4c-0.7,1.6-1.6,3.1-2.7,4.4l-4.1-3.1l-4.6,2.9c-6.2-16.1-9.4-33.2-9.5-50.5
		c0-21.2,10.4-49.1,10.5-49.4l0.2-0.6l-0.2-0.6c-0.1-0.2-1.8-4.9-9.7-8.6l-1.4,3c5.1,2.4,7.1,5.1,7.7,6.2c-0.7,1.9-2.5,7.1-4.5,14
		c-3.5-3.9-4.6-8-6.1-13.1c-0.4-1.3-0.7-2.7-1.2-4.2c-0.9-2.8-1.8-5.2-2.4-6.8c14.8-3.9,23.7,5.9,24.1,6.3l0.8,0.9l1.1-0.4
		c13.2-4.8,27.7-4.8,40.9,0l1.1,0.4l0.8-0.9c6.3-6.3,15.5-8.7,24.1-6.3c-0.6,1.5-1.5,3.9-2.4,6.8C251.7,50.7,251.3,52.1,250.9,53.5
		L250.9,53.5z"/>
	<path id="_Path_2" class="st4" d="M191.8,106.1l-3.3,0.4c0.8,6.2,1.2,10.9,1.4,13.6l-4.6-1.4l-3.4,3.7c-1.4-2.5-3.8-7.2-6.7-13.5
		l-3.1,1.4c2.4,5.4,5,10.7,8,15.9l1.1,1.9l5.1-5.4l7.2,2.3l-0.1-2.4C193.3,122.2,193.1,116.1,191.8,106.1z"/>
	<circle id="_Path_3" class="st4" cx="187.9" cy="65" r="3.7"/>
	<path id="_Path_4" class="st5" d="M208.2,86.8c3.7,0,10.9-4.2,13.7-10.5s-3.3-8.3-5.7-8.7c-5.3-0.8-10.7-0.8-15.9,0
		c-2.4,0.4-8.6,2.4-5.7,8.7C197.3,82.6,204.5,86.8,208.2,86.8z"/>
	<path id="_Path_5" class="st4" d="M212.4,70.7c-1.4,0-2.4,1.1-2.4,2.5c0,0,0,0,0,0c0,0,0,0.1,0,0.1v1.5c-0.1,1.3,0.9,2.5,2.2,2.6
		c1.3,0.1,2.5-0.9,2.6-2.2c0-0.1,0-0.3,0-0.4v-1.5C214.9,71.9,213.8,70.7,212.4,70.7C212.5,70.7,212.5,70.7,212.4,70.7L212.4,70.7z"
		/>
	<path id="_Path_6" class="st4" d="M203.7,70.7c-1.4,0-2.4,1.1-2.4,2.5c0,0,0,0,0,0c0,0,0,0.1,0,0.1v1.5c-0.1,1.3,0.9,2.5,2.2,2.6
		c1.3,0.1,2.5-0.9,2.6-2.2c0-0.1,0-0.3,0-0.4v-1.5C206.2,71.9,205.1,70.7,203.7,70.7C203.8,70.7,203.8,70.7,203.7,70.7L203.7,70.7z"
		/>
	<path id="_Path_7" class="st4" d="M206.9,20.7c-15.5,0-28.1,5.2-28.1,11.7v3.3l4,1.1l3,11H228l3-11l4-1.1v-3.3
		C235.1,25.9,222.5,20.7,206.9,20.7z"/>
	<path id="_Compound_Path_2" class="st6" d="M228,48.2h-42.2c-0.3,0-0.6-0.1-0.7-0.4l-2.9-10.6l-3.7-0.9c-0.3-0.1-0.5-0.3-0.6-0.6
		v-3.3c0-7,12.9-12.4,29.1-12.4s29,5.4,29,12.4v3.3c0,0.3-0.4,0.6-0.7,0.7l-3.7,0.9l-2.9,10.5C228.7,48.1,228.3,48.2,228,48.2z
		 M186.3,47.2h41.2l2.9-10.5c0.1-0.2,0.1-0.5,0.4-0.5l3.4-0.9v-2.8c0-6-12.2-11-27.1-11c-14.9,0-27.1,5.1-27.1,11v2.8l3.3,0.9
		c0.2,0.1,0.3,0.3,0.4,0.6L186.3,47.2z"/>
	<polygon id="_Path_8" class="st4" points="184.6,44.3 185.8,48.2 228,48.2 229.2,44.3 	"/>
	<path id="_Compound_Path_3" class="st6" d="M228.6,49.1h-43.3l-1.5-5.8h46.3L228.6,49.1z M186.3,48.2h41.2l0.8-2.9h-42.7
		L186.3,48.2z"/>
	<g id="_Group_">
		<path id="_Path_9" class="st6" d="M206.9,54.7c11.7,0,21.2-2.7,21.2-6.6h-42.4C185.7,52.1,195.2,54.7,206.9,54.7z"/>
		<path id="_Compound_Path_4" class="st6" d="M206.6,55.8c-10.6,0-21.8-2.5-21.8-7.2v-0.4h43.5v0.4
			C228.3,53.3,217.2,55.8,206.6,55.8z M186.6,49.1c1.2,2.9,9.3,5.2,20.4,5.2c11.1,0,19.1-2.3,20.4-5.2H186.6z"/>
	</g>
	<path class="st7" d="M231,53.9c-8.5-0.4-15.7,6.1-16.2,14.6c-0.4,7.3,4.4,13.8,11.4,15.7l-1.1,22.1c-0.2,1.8,1.2,3.4,2.9,3.6
		c1.8,0.2,3.4-1.2,3.6-2.9c0-0.1,0-0.2,0-0.3l1.1-22.1c8.4-1.4,14.1-9.3,12.7-17.7C244.3,59.6,238.3,54.3,231,53.9L231,53.9z
		 M242.3,69.9c-0.3,6.7-6,11.8-12.7,11.5c-6.7-0.3-11.8-6-11.5-12.7c0.3-6.7,6-11.8,12.7-11.5l0,0C237.5,57.6,242.6,63.3,242.3,69.9
		C242.3,69.9,242.3,69.9,242.3,69.9L242.3,69.9z"/>
	<path id="_Path_10" class="st4" d="M228.4,107.4l-0.6-4.8c2.6,0.7,7.1,2,13,4l1.1-3.2c-9.5-3.2-15.4-4.6-15.7-4.7l-2.3-0.6l0.9,7.6
		l-6.3,3.9l1.7,1.5c4.5,3.9,9.2,7.5,14,10.9l1.9-2.8c-5.7-4-9.9-7.3-12-9.1L228.4,107.4z"/>
	<polygon class="st3" points="240.9,106.5 227.8,102.5 228.4,107.4 224.1,110 236.1,119.2 	"/>
	<path class="st8" d="M230.9,57.3c-6.7-0.3-12.3,4.8-12.7,11.5c-0.3,6.7,4.8,12.3,11.5,12.7c6.7,0.3,12.3-4.8,12.7-11.4l0,0
		C242.7,63.3,237.5,57.6,230.9,57.3C230.9,57.3,230.9,57.3,230.9,57.3z M223.5,77c-0.3,0.6-0.5,1.1-0.8,1.6
		c-0.9-0.8-1.7-1.7-2.4-2.7l0.2-0.3c0.7-1.5,0.8-2.7,0.3-3.7c-0.6-0.9-1.4-1.6-2.4-1.9c-0.1-1.2,0-2.3,0.3-3.5
		c1.8,0.6,3.9,1.7,5.1,3.9C224.6,72.3,224.6,74.5,223.5,77z M228.4,68.7c-2,0-3.7-1.7-3.7-3.7c0-2,1.7-3.7,3.7-3.7
		c2,0,3.7,1.7,3.7,3.7l0,0C232.1,67,230.5,68.7,228.4,68.7C228.4,68.7,228.4,68.7,228.4,68.7L228.4,68.7L228.4,68.7z"/>
	<path class="st4" d="M218.2,69.9L218.2,69.9c0-0.4,0-0.8,0-1.2l0,0C218.1,69.1,218.1,69.5,218.2,69.9z"/>
	<path class="st4" d="M220.2,76L220.2,76c0.7,1,1.5,1.9,2.4,2.7l0,0C221.6,77.9,220.8,77,220.2,76z"/>
	<path class="st4" d="M218.2,79c-3.2,3.9-7.9,6.2-10.1,6.2c-2.8,0-9.5-3.6-12.2-9.5c-0.7-1.5-0.8-2.7-0.3-3.7c0.8-1.5,3-2.4,4.8-2.7
		c2.5-0.3,5.1-0.5,7.7-0.6c0,0,3.9,0,6.7,0.4v-0.5c0.1-0.9,0.2-1.9,0.4-2.8c-3-0.4-6.9-0.4-7.1-0.4c-2.8,0-5.5,0.2-8.3,0.6
		c-1.6,0.3-5.5,1.3-7.1,4.4c-1,1.9-0.9,4.1,0.2,6.6c3.2,7.1,11,11.5,15.3,11.5c3.3,0,8.7-2.6,12.5-7.1
		C219.7,80.7,218.9,79.9,218.2,79z"/>
	<circle id="_Path_15" class="st9" cx="228.4" cy="65" r="3.7"/>
	<path class="st9" d="M223.6,70.4c-1.1-2.1-3.3-3.3-5.1-3.9c-0.3,1.1-0.4,2.3-0.3,3.5c1,0.4,1.8,1.1,2.4,2c0.5,0.9,0.4,2.2-0.3,3.7
		l-0.2,0.3c0.7,1,1.5,1.9,2.4,2.7c0.3-0.5,0.6-1.1,0.8-1.6C224.6,74.5,224.6,72.3,223.6,70.4z"/>
	<path class="st1" d="M139.4,177.5l-0.7-0.1c-0.7-0.1-1.4-0.2-2.1-0.3c-1.4-0.2-2.7-0.1-4.1,0.2c-1.3,0.4-2.4,1.4-2.7,2.8
		c-0.2,0.7-0.3,1.4-0.3,2.1c0,1.4,0,2.8,0,4.2c0,0.1,0,0.1,0,0.2c0,0.1,0.1,0.3,0.2,0.2h9.2c0.4,0,0.4,0,0.4,0.4c0,2.7,0,5.5,0,8.2
		c0,0.1,0,0.2,0,0.2c0,0.1-0.1,0.2-0.2,0.2h-9.2c-0.5,0-0.5,0-0.5,0.5c0,8.9,0,17.8,0,26.7c0,0.6,0.1,0.6-0.6,0.6h-9.1
		c-0.5,0-0.5,0-0.5-0.5c0-8.9,0-17.8,0-26.7c0-0.6,0-0.6-0.6-0.6h-4.1c-0.1,0-0.2-0.1-0.2-0.1c0,0,0,0,0,0c0-0.1,0-0.2,0-0.2
		c0-1.5,0-3.1,0-4.6c0-0.2,0.1-0.5,0.3-0.6c1.4-1.1,2.8-2.2,4.3-3.3c0.2-0.1,0.3-0.4,0.3-0.6c0-1.2,0-2.4,0-3.6
		c0-1.7,0.3-3.4,0.9-5.1c0.6-1.9,1.6-3.6,3-5c1.5-1.6,3.5-2.7,5.6-3.3c1.7-0.5,3.5-0.7,5.2-0.6c2,0.1,4,0.4,5.9,1l0.2,0.1
		c0.1,0,0.2,0.2,0.2,0.3c0,0,0,0,0,0c-0.1,0.4-0.1,0.9-0.1,1.3c-0.1,0.7-0.2,1.4-0.2,2.2c-0.1,0.7-0.2,1.5-0.2,2.3
		c0,0.3-0.1,0.6-0.1,0.9C139.5,177.1,139.5,177.3,139.4,177.5z"/>
	<path class="st1" d="M105.4,197.5c0,0-0.1-0.1-0.1-0.1c-0.4-1-1.2-1.7-2.2-2.2c-0.9-0.4-1.8-0.6-2.8-0.6c-1.6,0.1-3,1.2-3.3,2.8
		c-0.2,0.9,0.1,1.9,0.9,2.4c0.8,0.7,1.8,1.1,2.9,1.2c2.5,0.3,4.9,0.9,7.2,1.9c1.6,0.6,3.1,1.6,4.3,2.8c1.3,1.3,2.2,3.1,2.5,4.9
		c0.1,0.7,0.2,1.3,0.2,2c0,2.3-0.8,4.6-2.2,6.4c-1.4,1.8-3.2,3.2-5.2,4.1c-1.4,0.7-2.9,1.1-4.5,1.3c-0.6,0.1-1.1,0.1-1.7,0.2
		c-0.3,0-0.7,0.1-1,0.1c-3.3,0-6.5-0.9-9.3-2.7c-1.5-0.9-2.7-2.1-3.7-3.5c-0.3-0.5-0.5-0.9-0.7-1.4c-0.2-0.3-0.1-0.3,0.2-0.5
		l5.6-2.7c0.4-0.2,0.8-0.4,1.3-0.6l0.2-0.1l0.2,0.2c1.1,1.5,2.8,2.5,4.6,2.6c1,0.1,2,0.1,3-0.1c1.3-0.3,2.4-1.1,2.9-2.3
		c0.1-0.2,0.2-0.5,0.2-0.7c0.1-0.6-0.1-1.2-0.6-1.6c-0.4-0.4-0.9-0.7-1.4-0.9c-0.8-0.4-1.7-0.7-2.7-0.9c-0.2,0-0.5,0-0.7-0.1
		c-0.7-0.1-1.5-0.2-2.2-0.4c-1.6-0.4-3.2-0.9-4.6-1.7c-1.8-0.9-3.3-2.3-4.3-4c-0.5-0.8-0.9-1.7-1.1-2.7c0-0.3-0.1-0.5-0.1-0.8
		c0-0.8-0.1-1.7-0.1-2.6c0-1.3,0.4-2.6,0.9-3.8c1.1-2.4,3-4.5,5.4-5.7c1.3-0.8,2.8-1.3,4.3-1.6c1.3-0.2,2.6-0.3,3.8-0.2
		c2,0.2,4,0.8,5.8,1.8c2.3,1.2,4.2,3.2,5.4,5.5c0.2,0.4,0.4,0.9,0.5,1.3c0,0.1,0.1,0.2,0.1,0.3L105.4,197.5z"/>
	<path class="st1" d="M165.3,211.7l6.3,6.2c-0.1,0.1-0.1,0.2-0.2,0.3c-2.6,3-6.1,5.1-10,6.1c-1,0.3-2.1,0.4-3.1,0.4
		c-0.4,0-0.8,0.1-1.2,0.1c-3,0-5.9-0.7-8.6-2c-3.6-1.8-6.5-4.7-8.4-8.2c-0.9-1.7-1.6-3.6-2-5.5c-0.2-0.8-0.3-1.7-0.3-2.6
		c-0.1-0.9-0.1-1.8,0-2.7c0.1-1.9,0.6-3.7,1.3-5.5c1.3-3.4,3.6-6.4,6.5-8.6c8.1-6,19.5-4.7,26,3c0.1,0.1,0.2,0.2,0.3,0.4
		c-0.2,0.2-6.5,5.2-7,5.5l-0.3-0.2c-0.9-0.8-1.8-1.5-2.8-2.1c-1-0.6-2.2-1-3.4-1.1c-0.7-0.1-1.4-0.1-2.2,0c-1.1,0.1-2.2,0.5-3.1,1.1
		c-1.8,1.1-3.2,2.7-4.1,4.7c-0.5,1-0.8,2.1-0.9,3.2c-0.4,2.4,0,4.8,1.1,7c1.2,2.4,3.4,4.1,6.1,4.6c1.7,0.4,3.5,0.2,5.2-0.4
		c1.8-0.6,3.4-1.8,4.7-3.2C165.2,211.9,165.3,211.8,165.3,211.7z"/>
	<path class="st2" d="M135.6,237.1H135c0-0.1,0-0.3,0-0.4c0-0.5,0-0.9,0-1.4c0-0.2-0.1-0.4-0.3-0.5c-0.2-0.1-0.4,0-0.5,0.1
		c-0.1,0.1-0.2,0.2-0.1,0.4c0,0.5,0,1,0,1.4c0,0.1,0,0.2,0,0.3h-0.6v-2.7c0.5,0,0.4-0.1,0.6,0.2c0.6-0.4,1-0.4,1.4,0.2l0.1-0.1
		c0.3-0.3,0.7-0.4,1.1-0.3c0.4,0.1,0.6,0.4,0.6,0.8c0,0.3,0,0.7,0,1c0,0.3,0,0.6,0,0.9h-0.6c0-0.2,0-0.3,0-0.5c0-0.5,0-0.9,0-1.4
		c0-0.2-0.2-0.4-0.4-0.4c0,0,0,0,0,0c-0.2,0-0.4,0.1-0.5,0.4c0,0.1,0,0.2,0,0.3c0,0.4,0,0.8,0,1.2
		C135.6,236.8,135.6,236.9,135.6,237.1z"/>
	<path class="st2" d="M123,229.1v-1.4h0.6c0.1,0.2,0.1,3.4,0,3.9c-0.4,0.1-0.5,0.1-0.6-0.3l-0.3,0.2c-0.4,0.3-1,0.2-1.3-0.2
		c-0.1-0.1-0.1-0.2-0.1-0.3c-0.2-0.5-0.2-1,0-1.4c0.2-0.6,0.8-0.9,1.4-0.7c0.1,0,0.2,0.1,0.3,0.1L123,229.1z M123,230.3
		c0-0.1,0-0.2,0-0.4c0-0.3-0.1-0.4-0.4-0.5c-0.3-0.1-0.6,0.1-0.7,0.4c-0.1,0.3-0.1,0.7,0,1c0.1,0.3,0.3,0.4,0.6,0.4c0,0,0,0,0,0
		c0.3,0,0.5-0.3,0.5-0.6C123,230.5,123,230.4,123,230.3z"/>
	<path class="st2" d="M138.2,233.1h0.6v1.5l0.3-0.2c0.4-0.3,1.1-0.2,1.3,0.3c0,0.1,0.1,0.1,0.1,0.2c0.2,0.5,0.2,1,0,1.4
		c-0.2,0.6-0.8,0.9-1.3,0.7c-0.1,0-0.3-0.1-0.4-0.2c-0.1,0.4-0.4,0.2-0.6,0.2V233.1z M140.1,235.7c0-0.2-0.1-0.4-0.1-0.6
		c-0.1-0.2-0.4-0.4-0.6-0.3c-0.3,0-0.5,0.3-0.5,0.5c0,0.3,0,0.6,0,0.9c0,0.1,0.1,0.3,0.2,0.3c0.3,0.2,0.7,0.1,0.9-0.2
		c0,0,0-0.1,0.1-0.1C140,236.1,140.1,235.9,140.1,235.7z"/>
	<path class="st2" d="M98.3,229c0.4-0.1,0.4-0.1,0.6,0.3l0.3-0.2c0.4-0.3,1-0.2,1.3,0.2c0,0.1,0.1,0.1,0.1,0.2c0.2,0.5,0.2,1,0,1.4
		c-0.2,0.6-0.8,0.9-1.4,0.7c-0.1,0-0.1-0.1-0.2-0.1l-0.2-0.1v1.1h-0.6L98.3,229z M98.9,230.4L98.9,230.4c0,0.2,0,0.3,0,0.5
		c0,0.1,0.1,0.3,0.2,0.3c0.3,0.2,0.7,0.1,0.8-0.2c0,0,0-0.1,0.1-0.1c0.1-0.3,0.1-0.7,0-1c-0.1-0.3-0.3-0.4-0.6-0.4c0,0,0,0,0,0
		c-0.3,0-0.5,0.3-0.5,0.6C98.9,230.1,98.9,230.3,98.9,230.4L98.9,230.4z"/>
	<path class="st2" d="M115.7,237c-0.4,0.1-0.4,0.1-0.6-0.3c-0.2,0.1-0.4,0.2-0.6,0.3c-0.4,0.2-0.9,0-1.1-0.4c-0.3-0.5-0.3-1.2,0-1.7
		c0.3-0.5,0.9-0.7,1.4-0.5c0,0,0,0,0.1,0l0.2,0.1c0.1-0.5,0-0.9,0-1.4h0.6C115.7,234.4,115.8,235.7,115.7,237z M115.1,235.7
		c0-0.1,0-0.3,0-0.4c0-0.2-0.1-0.4-0.4-0.5c0,0,0,0,0,0c-0.3-0.1-0.7,0.1-0.8,0.4c0,0,0,0,0,0c-0.1,0.3-0.1,0.7,0,1
		c0.1,0.3,0.3,0.5,0.6,0.4c0,0,0,0,0,0c0.3,0,0.5-0.3,0.5-0.6C115.1,235.9,115.1,235.8,115.1,235.7L115.1,235.7z"/>
	<path class="st2" d="M91.4,231.3C91.4,231.2,91.4,231.2,91.4,231.3c0.2-0.4,0.2-0.6,0.7-0.2c0.2,0.1,0.5,0.2,0.7,0.2
		c0.3,0,0.5-0.2,0.5-0.5c0-0.2-0.1-0.5-0.3-0.5c-0.1-0.1-0.2-0.1-0.4-0.1l-0.4-0.2c-0.4-0.1-0.6-0.5-0.6-0.9c0-0.4,0.1-0.8,0.5-1
		c0.6-0.4,1.4-0.3,1.9,0.2c0,0.1-0.1,0.1-0.1,0.2c-0.1,0.2-0.2,0.3-0.4,0.1c-0.2-0.1-0.5-0.2-0.8-0.2c-0.2,0-0.4,0.2-0.4,0.4
		c0,0.2,0.1,0.4,0.3,0.5c0.1,0.1,0.2,0.1,0.3,0.1l0.4,0.2c0.4,0.1,0.7,0.5,0.7,0.9c0,0.5-0.3,0.9-0.7,1.1
		C92.7,231.9,91.9,231.7,91.4,231.3z"/>
	<path class="st2" d="M124,233.7L124,233.7c-0.2,0.4-0.2,0.4-0.7,0.2c-0.6-0.3-1.3-0.1-1.6,0.4c-0.1,0.1-0.1,0.2-0.1,0.3
		c-0.1,0.3-0.1,0.7,0,1.1c0.2,0.6,0.9,1,1.5,0.7c0.1,0,0.1-0.1,0.2-0.1l0.1-0.1c0.2-0.1,0.2-0.1,0.4,0.1c0.1,0.1,0.1,0.1,0.2,0.2
		c-0.1,0.2-0.4,0.4-0.6,0.5c-0.9,0.4-2,0-2.5-0.9c-0.1-0.2-0.2-0.4-0.2-0.7c0-0.3,0-0.6,0.1-0.9c0.3-1,1.3-1.6,2.3-1.3
		c0.2,0.1,0.5,0.2,0.7,0.3C124,233.6,124,233.6,124,233.7z"/>
	<path class="st2" d="M140.1,227.9h2.4v0.5h-1.7v1.2h1.4v0.6h-1.4v1.6H140L140.1,227.9z"/>
	<path class="st2" d="M132.5,235.7c0.1,0.7-0.5,1.4-1.2,1.4c-0.2,0-0.4,0-0.6-0.1c-0.6-0.1-1-0.6-1-1.2c-0.1-0.7,0.4-1.4,1.1-1.6
		c0.2,0,0.5,0,0.7,0.1C132.1,234.5,132.6,235.1,132.5,235.7z M131.8,235.7c0-0.1,0-0.3-0.1-0.4c0-0.3-0.3-0.5-0.6-0.5
		c-0.3,0-0.6,0.2-0.6,0.5c0,0.2,0,0.5,0,0.7c0,0.3,0.3,0.6,0.6,0.6c0,0,0,0,0,0c0.3,0,0.6-0.2,0.7-0.5c0,0,0,0,0,0
		C131.8,236,131.8,235.8,131.8,235.7L131.8,235.7z"/>
	<path class="st2" d="M127.4,235.7c0.1,0.7-0.5,1.4-1.2,1.4c-0.2,0-0.4,0-0.6-0.1h-0.1c-0.6-0.3-1-0.9-0.8-1.6
		c0-0.6,0.5-1.1,1.2-1.1c0.7-0.1,1.4,0.3,1.5,1C127.4,235.5,127.4,235.6,127.4,235.7z M126.7,235.7c0-0.1,0-0.3-0.1-0.4
		c-0.1-0.3-0.5-0.6-0.8-0.5c-0.2,0.1-0.4,0.2-0.4,0.4c-0.1,0.3-0.1,0.6,0,0.8c0.1,0.4,0.4,0.6,0.8,0.5c0.3-0.1,0.5-0.3,0.5-0.5
		C126.7,236,126.7,235.8,126.7,235.7L126.7,235.7z"/>
	<path class="st2" d="M97.2,231.7c-0.4,0.1-0.5,0.1-0.6-0.2c-0.1,0.1-0.2,0.1-0.3,0.2c-0.4,0.3-1,0.1-1.3-0.3
		c-0.1-0.1-0.1-0.3-0.1-0.4c-0.1-0.7,0-1.3,0-2h0.6c0,0.2,0,0.3,0,0.4c0,0.4,0,0.9,0,1.3c0,0.2,0.1,0.4,0.3,0.5
		c0.3,0.1,0.6-0.1,0.7-0.3c0-0.1,0-0.2,0-0.3c0-0.5,0-0.9,0-1.4c0-0.1,0-0.2,0-0.3h0.6C97.2,229.9,97.3,230.8,97.2,231.7z"/>
	<path class="st2" d="M111.3,231.7h-0.6c0-0.1,0-0.2,0-0.3c0-0.5,0-0.9,0-1.4c0-0.3-0.1-0.5-0.3-0.5c-0.3-0.1-0.6,0-0.7,0.3
		c0,0.1,0,0.2,0,0.3c0,0.5,0,0.9,0,1.4c0,0.1,0,0.2,0,0.4H109V229c0.4-0.1,0.5-0.1,0.6,0.2l0.2-0.2c0.4-0.3,1-0.3,1.3,0.1
		c0.1,0.2,0.2,0.4,0.2,0.6c0,0.4,0,0.8,0,1.2C111.3,231.3,111.3,231.5,111.3,231.7z"/>
	<path class="st2" d="M104,231.3c-0.4,0.4-0.9,0.5-1.4,0.4c-0.5-0.1-0.9-0.5-0.9-1c0-0.2,0-0.5,0-0.7c0.1-0.7,0.8-1.2,1.5-1.1
		c0.1,0,0.1,0,0.2,0c0.6,0.2,1,0.8,0.8,1.4c0,0,0,0,0,0.1h-1.8c-0.1,0.4,0.2,0.8,0.6,0.9c0.1,0,0.3,0,0.4,0c0.1,0,0.1-0.1,0.2-0.1
		C103.7,231,103.7,231,104,231.3z M102.2,230h1.2c0-0.4-0.2-0.6-0.5-0.6C102.6,229.4,102.3,229.5,102.2,230z"/>
	<path class="st2" d="M151.5,229c0.4-0.1,0.4-0.1,0.6,0.2c0.2-0.1,0.5-0.2,0.8-0.3c0.4-0.1,0.9,0.2,1,0.6c0,0,0,0.1,0,0.1
		c0,0.3,0,0.6,0,0.9c0,0.3,0,0.7,0,1c0,0,0,0.1,0,0.1h-0.6c0-0.1,0-0.2,0-0.3c0-0.5,0-0.9,0-1.4c0-0.2,0-0.5-0.3-0.6
		c-0.3-0.1-0.5,0-0.7,0.2c-0.1,0.1-0.1,0.2-0.1,0.3c0,0.5,0,0.9,0,1.4c0,0.1,0,0.2,0,0.4h-0.6L151.5,229z"/>
	<path class="st2" d="M115.1,230.4c0.1,0.7,0.5,1,1.2,0.7l0.1,0c0.3-0.2,0.3-0.2,0.6,0.2c-0.4,0.4-0.9,0.5-1.4,0.4
		c-0.5-0.1-0.9-0.5-0.9-0.9c-0.1-0.3-0.1-0.7,0.1-1.1c0.3-0.7,1.1-1,1.7-0.7c0.1,0,0.1,0.1,0.2,0.1c0.4,0.2,0.5,0.7,0.5,1.1
		c0,0.2-0.1,0.2-0.2,0.2L115.1,230.4L115.1,230.4z M116.4,230c0-0.5-0.2-0.6-0.7-0.6c-0.3,0-0.5,0.2-0.5,0.5c0,0,0,0,0,0.1H116.4z"
		/>
	<path class="st2" d="M117.3,235.8c0.1,0.7,0.5,1,1.2,0.7l0.1,0c0.3-0.2,0.3-0.2,0.5,0.2c-0.5,0.6-1.4,0.6-2,0.1
		c-0.2-0.1-0.3-0.3-0.4-0.5c-0.1-0.4-0.1-0.7,0-1.1c0.2-0.7,1-1.1,1.6-0.8c0.1,0,0.2,0.1,0.2,0.1c0.4,0.2,0.6,0.7,0.6,1.1
		c0,0.2-0.1,0.2-0.2,0.2L117.3,235.8L117.3,235.8z M117.3,235.4h1.2c0-0.4-0.2-0.6-0.6-0.6C117.6,234.7,117.4,235,117.3,235.4
		L117.3,235.4z"/>
	<path class="st2" d="M161.9,230.4h-1.8c-0.1,0.4,0.2,0.8,0.6,0.8c0.1,0,0.3,0,0.4-0.1c0.1,0,0.1-0.1,0.2-0.1
		c0.3-0.1,0.3-0.1,0.5,0.2c-0.1,0.1-0.1,0.1-0.2,0.2c-0.5,0.3-1,0.3-1.5,0.1c-0.5-0.2-0.7-0.7-0.7-1.2c0-0.3,0-0.6,0.2-0.8
		c0.3-0.5,0.9-0.8,1.5-0.6c0.5,0.2,0.9,0.7,0.8,1.2C161.9,230.3,161.9,230.3,161.9,230.4z M161.3,230c0-0.5-0.2-0.6-0.7-0.6
		c-0.3,0-0.5,0.2-0.5,0.5c0,0,0,0.1,0,0.1H161.3z"/>
	<path class="st2" d="M126.9,230.4h-1.8c0,0.7,0.5,1,1.1,0.7l0.1-0.1c0.3-0.2,0.3-0.2,0.6,0.2c-0.4,0.4-0.9,0.5-1.4,0.4
		c-0.5-0.1-0.9-0.5-1-1c-0.1-0.3-0.1-0.7,0.1-1c0.3-0.7,1-1,1.7-0.7c0.1,0,0.1,0.1,0.2,0.1C126.9,229.4,127.1,229.9,126.9,230.4z
		 M126.4,230c0-0.4-0.2-0.6-0.6-0.6c-0.3,0-0.6,0.2-0.6,0.5c0,0,0,0.1,0,0.1H126.4z"/>
	<path class="st2" d="M167.2,231.7c-0.3,0.1-0.5,0-0.6-0.3l-0.3,0.2c-0.3,0.2-0.6,0.2-0.9,0.2c-0.3,0-0.5-0.3-0.6-0.6
		c-0.1-0.3,0-0.6,0.3-0.7c0.2-0.1,0.4-0.2,0.6-0.2c0.2,0,0.5-0.1,0.7-0.1c0.1-0.2,0-0.4-0.1-0.6c-0.2-0.1-0.4-0.2-0.6-0.1
		c-0.1,0-0.2,0.1-0.2,0.1c-0.3,0.2-0.4,0.1-0.5-0.2c0.4-0.4,1.1-0.6,1.6-0.3c0.2,0.1,0.4,0.4,0.4,0.6c0,0.2,0,0.3,0,0.5
		c0,0.5,0,1,0,1.4C167.2,231.6,167.2,231.6,167.2,231.7z M166.5,230.5c-0.3,0.1-0.5,0.1-0.7,0.2c-0.2,0-0.3,0.2-0.2,0.4
		c0,0.2,0.1,0.2,0.3,0.3C166.4,231.3,166.6,231.1,166.5,230.5z"/>
	<path class="st2" d="M145.4,237c-0.4,0.1-0.4,0.1-0.6-0.2c-0.2,0.1-0.4,0.2-0.6,0.3c-0.2,0.1-0.4,0.1-0.6,0
		c-0.4-0.2-0.5-0.6-0.4-0.9c0-0.1,0.1-0.2,0.2-0.3c0.3-0.2,0.6-0.3,1-0.3h0.3c0.1-0.2,0-0.4-0.1-0.6c-0.2-0.1-0.4-0.2-0.6-0.1
		l-0.2,0.1c-0.3,0.2-0.4,0.1-0.5-0.2c0.4-0.4,1-0.6,1.6-0.3c0.3,0.1,0.4,0.4,0.5,0.6c0,0.2,0,0.4,0,0.5
		C145.4,236.1,145.4,236.5,145.4,237z M144.8,235.9c-0.3,0-0.6,0-0.8,0.1c-0.1,0.1-0.2,0.2-0.2,0.4c0,0.1,0.2,0.3,0.3,0.2
		c0.2,0,0.4,0,0.6-0.2C144.9,236.3,144.8,236.1,144.8,235.9L144.8,235.9z"/>
	<path class="st2" d="M135.9,229.3c0.4-0.4,0.9-0.5,1.4-0.4c0.3,0.1,0.6,0.3,0.6,0.6c0,0.1,0.1,0.2,0.1,0.3c0,0.6,0,1.2,0,1.8
		c-0.4,0.1-0.4,0.1-0.6-0.2l-0.2,0.2c-0.3,0.2-0.6,0.2-0.9,0.1c-0.3-0.1-0.5-0.3-0.5-0.5c-0.1-0.3,0-0.6,0.3-0.7
		c0.3-0.2,0.7-0.3,1-0.3h0.3c0.1-0.2,0-0.4-0.1-0.6c-0.2-0.1-0.4-0.2-0.6-0.1l-0.2,0.1C136.1,229.7,136.1,229.7,135.9,229.3z
		 M137.4,230.6c-0.3,0-0.6,0-0.9,0.1c-0.2,0.1-0.2,0.2-0.2,0.4c0,0.1,0.2,0.2,0.3,0.2c0.2,0,0.5,0,0.6-0.2
		C137.3,230.9,137.4,230.7,137.4,230.6z"/>
	<path class="st2" d="M130.2,231.7h-0.6c0-0.1,0-0.2,0-0.3c0-0.4,0-0.8,0-1.2c0-0.1,0-0.2,0-0.2c0-0.2,0-0.4-0.2-0.6
		c-0.2-0.1-0.5-0.1-0.7,0.1c-0.1,0.1-0.2,0.2-0.2,0.4c0,0.5,0,0.9,0,1.4c0,0.1,0,0.2,0,0.4h-0.6V229c0.4-0.1,0.4-0.1,0.6,0.2
		c0.2-0.2,0.5-0.3,0.8-0.3c0.4,0,0.8,0.3,0.9,0.8c0,0.1,0,0.3,0,0.4C130.3,230.6,130.2,231.1,130.2,231.7z"/>
	<path class="st2" d="M148.4,229.3c0.4-0.3,0.9-0.5,1.4-0.4c0.4,0.1,0.7,0.4,0.7,0.8c0,0.6,0,1.3,0,1.9c-0.4,0.1-0.4,0.1-0.6-0.2
		l-0.3,0.2c-0.2,0.1-0.5,0.2-0.7,0.2c-0.3,0-0.6-0.2-0.7-0.5c-0.1-0.3,0.1-0.6,0.4-0.8c0.3-0.2,0.6-0.2,0.9-0.3h0.3
		c0.1-0.2,0-0.4-0.1-0.6c-0.2-0.1-0.4-0.2-0.6-0.1c-0.1,0-0.2,0.1-0.2,0.1C148.6,229.7,148.5,229.7,148.4,229.3z M149.9,230.6
		c-0.3,0-0.5,0-0.8,0.1c-0.2,0.1-0.2,0.2-0.2,0.4c0,0.2,0.2,0.2,0.3,0.2C149.7,231.3,149.9,231.1,149.9,230.6L149.9,230.6z"/>
	<path class="st2" d="M120.2,231.7h-0.6c0-0.1,0-0.2,0-0.3c0-0.4,0-0.8,0-1.2c0-0.1,0-0.2,0-0.2c0-0.2,0-0.5-0.3-0.6
		c-0.3-0.1-0.5,0-0.7,0.2c-0.1,0.1-0.1,0.2-0.1,0.3c0,0.4,0,0.9,0,1.3c0,0.1,0,0.2,0,0.4h-0.6V229c0.4-0.1,0.4-0.1,0.6,0.2
		c0.2-0.2,0.5-0.3,0.8-0.3c0.4,0,0.8,0.3,0.8,0.7C120.2,230.3,120.2,231,120.2,231.7C120.2,231.7,120.2,231.7,120.2,231.7z"/>
	<path class="st2" d="M147.4,231.7h-0.6c0-0.1,0-0.2,0-0.3c0-0.4,0-0.8,0-1.2c0-0.1,0-0.2,0-0.2c0-0.2,0-0.4-0.2-0.6
		c-0.2-0.1-0.5-0.1-0.7,0.1c-0.1,0.1-0.2,0.2-0.2,0.3c0,0.5,0,0.9,0,1.4c0,0.1,0,0.2,0,0.4h-0.6V229c0.5-0.1,0.4-0.1,0.6,0.3
		l0.3-0.2c0.4-0.3,1-0.2,1.3,0.2c0.1,0.2,0.2,0.3,0.2,0.5C147.4,230.4,147.4,231.1,147.4,231.7z"/>
	<path class="st2" d="M113.8,229v0.4l-0.7,0c0,0.5,0,1,0,1.5c0,0.2,0.1,0.3,0.3,0.2c0.1,0,0.1,0,0.2-0.1l0.3,0.4
		c-0.2,0.1-0.3,0.1-0.5,0.2c-0.4,0.1-0.8-0.1-0.9-0.5c0-0.1,0-0.2,0-0.2c0-0.4,0-0.8,0-1.2c0-0.1,0-0.2,0-0.3
		c-0.4-0.1-0.4-0.1-0.4-0.4l0.4-0.1l0.2-0.8h0.4v0.8L113.8,229z"/>
	<path class="st2" d="M133.4,229.3l-0.1,0.2c0,0.1-0.2,0.1-0.3,0.1c0,0,0,0-0.1,0h-0.1c-0.3-0.2-0.8-0.1-1,0.3
		c-0.1,0.1-0.1,0.2-0.1,0.3c0,0.2,0,0.4,0.1,0.7c0.1,0.3,0.4,0.6,0.8,0.5c0.1,0,0.1,0,0.2-0.1h0.1c0.3-0.2,0.3-0.2,0.5,0.2
		c-0.4,0.4-0.9,0.5-1.4,0.4c-0.5-0.1-0.8-0.6-0.9-1.1c0-0.2,0-0.4,0-0.5c0-0.5,0.3-1,0.8-1.1C132.4,228.8,133,228.9,133.4,229.3z"/>
	<path class="st2" d="M157,231.3c-0.3,0.4-0.9,0.5-1.4,0.4c-0.5-0.1-0.8-0.5-0.9-1c-0.1-0.3-0.1-0.7,0.1-1.1c0.3-0.7,1-1,1.7-0.7
		c0.2,0.1,0.3,0.2,0.5,0.3l-0.1,0.2c0,0.1-0.2,0.1-0.3,0.1c0,0,0,0,0,0l0,0c-0.7-0.3-1.1,0-1.1,0.7c0,0.2,0,0.4,0.1,0.5
		c0.1,0.4,0.4,0.6,0.8,0.5c0.1,0,0.1,0,0.2-0.1h0.1C156.8,231,156.8,231,157,231.3z"/>
	<path class="st2" d="M104.9,229c0.5-0.1,0.4-0.1,0.6,0.3c0.3-0.3,0.5-0.6,1-0.3l0,0.6h-0.3c-0.3,0-0.6,0.2-0.7,0.5c0,0,0,0.1,0,0.1
		c0,0.4,0,0.8,0,1.2c0,0.1,0,0.2,0,0.3H105C104.9,230.8,104.9,229.9,104.9,229z"/>
	<path class="st2" d="M128.9,237.1h-0.6c-0.1-1.3-0.1-2.6,0-3.9h0.6L128.9,237.1z"/>
	<path class="st2" d="M164.4,229.5h-0.3c-0.3,0-0.6,0.2-0.7,0.5c0,0,0,0.1,0,0.1c0,0.4,0,0.8,0,1.3c0,0.1,0,0.1,0,0.2h-0.6V229
		c0.4-0.1,0.5-0.1,0.6,0.3c0.2-0.3,0.5-0.6,0.9-0.4L164.4,229.5z"/>
	<path class="st2" d="M141.7,234.3h0.6c0.1,0.9,0.1,1.8,0,2.7h-0.6L141.7,234.3z"/>
	<path class="st2" d="M107.9,231.7h-0.6V229h0.6L107.9,231.7z"/>
	<path class="st2" d="M144,229v2.7h-0.6V229H144z"/>
	<path class="st2" d="M134.8,231.7h-0.6V229h0.6C134.9,229.9,134.8,230.8,134.8,231.7z"/>
	<path class="st2" d="M158.5,231.7h-0.6V229h0.6C158.5,229.9,158.5,230.8,158.5,231.7z"/>
	<path class="st2" d="M158.2,228.6c-0.2,0-0.4-0.2-0.4-0.4c0-0.2,0.2-0.4,0.4-0.4c0,0,0,0,0,0c0.2,0,0.4,0.2,0.4,0.4
		C158.6,228.4,158.4,228.6,158.2,228.6C158.2,228.6,158.2,228.6,158.2,228.6z"/>
	<path class="st2" d="M143.7,228.6c-0.2,0-0.4-0.2-0.4-0.4c0-0.2,0.2-0.4,0.4-0.4c0,0,0,0,0,0c0.2,0,0.4,0.2,0.4,0.4
		C144.1,228.4,143.9,228.6,143.7,228.6z"/>
	<path class="st2" d="M142.4,233.5c0,0.2-0.2,0.4-0.4,0.4c0,0,0,0,0,0c-0.2,0-0.4-0.1-0.4-0.4c0,0,0,0,0,0c0-0.2,0.1-0.4,0.4-0.4
		c0,0,0,0,0,0C142.2,233.1,142.4,233.3,142.4,233.5L142.4,233.5z"/>
	<path class="st2" d="M108,228.2c0,0.2-0.2,0.4-0.4,0.4c0,0,0,0,0,0c-0.2,0-0.4-0.2-0.4-0.4c0,0,0,0,0,0c0-0.2,0.2-0.4,0.4-0.4
		c0,0,0,0,0,0C107.8,227.8,108,227.9,108,228.2z"/>
	<path class="st2" d="M134.5,227.7c0.2,0,0.4,0.2,0.4,0.4c0,0.2-0.1,0.4-0.4,0.5c-0.2,0-0.4-0.1-0.5-0.4c0,0,0-0.1,0-0.1
		C134.1,227.9,134.3,227.7,134.5,227.7z"/>
	<path id="_Path_14" class="st10" d="M206.5,37.2c-1.1-0.9-2-2-2.6-3.3c-0.7-1.4-1.1-3-1.2-4.6c0-0.4,0-0.9-0.1-1.4s0-0.8,0-1.2
		l0.5-0.1c0.6-0.1,1.3-0.2,1.9-0.4c1-0.3,2-0.7,2.9-1.2c0.1,0,0.2,0,0.2-0.1v13.2l-0.2,0C207.4,37.9,206.9,37.6,206.5,37.2z"/>
	<path id="_Path_14-2" class="st11" d="M209.8,37.2c1.1-0.9,2-2,2.6-3.3c0.7-1.4,1.1-3,1.2-4.6c0-0.4,0-0.9,0.1-1.4s0-0.8,0-1.2
		l-0.5-0.1c-0.6-0.1-1.3-0.2-1.9-0.4c-1-0.3-2-0.7-2.9-1.2c-0.1,0-0.2,0-0.2-0.1v13.2l0.2,0C208.9,37.9,209.4,37.6,209.8,37.2z"/>
	<path id="_Path_11" class="st12" d="M208,25.1c-0.9,0.5-1.9,0.9-2.9,1.2c-0.6,0.2-1.3,0.2-1.9,0.4l-0.5,0.1c0,0.4,0,0.8,0,1.2
		s0,0.9,0.1,1.4c0,1.6,0.4,3.2,1.2,4.6c0.6,1.3,1.5,2.4,2.6,3.3c0.4,0.4,0.9,0.7,1.4,0.9h0.2v0.4H208c-0.2-0.1-0.3-0.1-0.5-0.2
		c-0.7-0.4-1.3-0.9-1.8-1.4c-1-1-1.9-2.2-2.5-3.5c-0.4-1-0.7-2-0.9-3.1c-0.1-0.4-0.1-0.9-0.1-1.3c0-0.8-0.1-1.7-0.1-2.6
		c0-0.1,0-0.1,0.1-0.1l0.9-0.1c0.7-0.1,1.4-0.2,2-0.4c1-0.3,1.9-0.7,2.8-1.2c0.1,0,0.2,0,0.2,0v0.3C208.1,25.1,208,25.1,208,25.1z"
		/>
	<path id="_Path_11-2" class="st13" d="M208.3,25.1c0.9,0.5,1.9,0.9,2.9,1.2c0.6,0.2,1.3,0.2,1.9,0.4l0.5,0.1c0,0.4,0,0.8,0,1.2
		c0,0.4,0,0.9-0.1,1.4c0,1.6-0.4,3.2-1.2,4.6c-0.6,1.3-1.5,2.4-2.6,3.3c-0.4,0.4-0.9,0.7-1.4,0.9h-0.2v0.4h0.1
		c0.2-0.1,0.3-0.1,0.5-0.2c0.7-0.4,1.3-0.9,1.8-1.4c1-1,1.9-2.2,2.5-3.5c0.4-1,0.7-2,0.9-3.1c0.1-0.4,0.1-0.9,0.1-1.3
		c0-0.8,0.1-1.7,0.1-2.6c0-0.1,0-0.1-0.1-0.1l-0.9-0.1c-0.7-0.1-1.3-0.2-2-0.4c-1-0.3-1.9-0.7-2.8-1.2c-0.1,0-0.2,0-0.2,0v0.4
		C208.2,25.1,208.3,25.1,208.3,25.1z"/>
</g>
</svg>
