<svg xmlns="http://www.w3.org/2000/svg" width="24" height="23" viewBox="0 0 24 23"><defs><style>.a{fill:#c4f6dc;}.b{fill:#50c9a0;}.c{fill:#004b40;}.d{fill:#003336;}.e{fill:#607d8b;}.f{fill:#546d79;}.g{fill:#1eeb00;}</style></defs><g transform="translate(0 -1)"><path class="a" d="M5.75,17H2.25A1.252,1.252,0,0,0,1,18.25v5a.75.75,0,0,0,.75.75h4.5A.75.75,0,0,0,7,23.25v-5A1.252,1.252,0,0,0,5.75,17Z"/><path class="b" d="M13.75,11h-3.5A1.252,1.252,0,0,0,9,12.25v11a.75.75,0,0,0,.75.75h4.5a.75.75,0,0,0,.75-.75v-11A1.252,1.252,0,0,0,13.75,11Z"/><path class="c" d="M21.75,13h-3.5A1.252,1.252,0,0,0,17,14.25v9a.75.75,0,0,0,.75.75h4.5a.75.75,0,0,0,.75-.75v-9A1.252,1.252,0,0,0,21.75,13Z"/><path class="b" d="M4,17H2.25A1.252,1.252,0,0,0,1,18.25v5a.75.75,0,0,0,.75.75H4Z"/><path class="c" d="M12,11H10.25A1.252,1.252,0,0,0,9,12.25v11a.75.75,0,0,0,.75.75H12Z"/><path class="d" d="M20,13H18.25A1.252,1.252,0,0,0,17,14.25v9a.75.75,0,0,0,.75.75H20Z"/><path class="e" d="M23.25,24H.75a.75.75,0,0,1,0-1.5h22.5a.75.75,0,0,1,0,1.5Z"/><path class="f" d="M24,23.25H0A.75.75,0,0,0,.75,24h22.5A.75.75,0,0,0,24,23.25Z"/><path class="g" d="M3,11a1,1,0,0,1-.664-1.747l4.5-4a1,1,0,0,1,.784-.245l7.783.943,4.409-4.177a1,1,0,0,1,1.375,1.453l-4.75,4.5a1,1,0,0,1-.808.267l-7.8-.947-4.163,3.7A1,1,0,0,1,3,11Z"/><path class="g" d="M21.25,6a.746.746,0,0,1-.53-.22l-3.5-3.5A.75.75,0,0,1,17.75,1h3.5a.75.75,0,0,1,.75.75v3.5a.75.75,0,0,1-.75.75Z"/><path class="g" d="M18.849,3.909,15.5,7,7.725,6.028a.5.5,0,0,0-.394.123L2.253,10.665l.047.049a1,1,0,0,0,1.364.034l4.163-3.7,7.8.946A.961.961,0,0,0,15.749,8a1,1,0,0,0,.688-.274l3.2-3.03Z"/><path class="g" d="M21.771,1.211l-2.923,2.7.787.787L20.72,5.78a.746.746,0,0,0,.53.22A.75.75,0,0,0,22,5.25V1.75a.748.748,0,0,0-.229-.539Z"/></g></svg>