<svg xmlns="http://www.w3.org/2000/svg" width="24" height="23" viewBox="0 0 24 23"><defs><style>.a{fill:#c4f6dc;}.b{fill:#50c9a0;}.c{fill:#004b40;}.d{fill:#003336;}.e{fill:#f44336;}.f{fill:#607d8b;}.g{fill:#546d79;}</style></defs><g transform="translate(0 -1)"><g transform="translate(17)"><path class="a" d="M5.75,17H2.25A1.252,1.252,0,0,0,1,18.25v5a.75.75,0,0,0,.75.75h4.5A.75.75,0,0,0,7,23.25v-5A1.252,1.252,0,0,0,5.75,17Z"/><path class="b" d="M4,17H2.25A1.252,1.252,0,0,0,1,18.25v5a.75.75,0,0,0,.75.75H4Z"/></g><g transform="translate(-8)"><path class="c" d="M21.75,13h-3.5A1.252,1.252,0,0,0,17,14.25v9a.75.75,0,0,0,.75.75h4.5a.75.75,0,0,0,.75-.75v-9A1.252,1.252,0,0,0,21.75,13Z"/><path class="d" d="M20,13H18.25A1.252,1.252,0,0,0,17,14.25v9a.75.75,0,0,0,.75.75H20Z"/></g><g transform="translate(2 1)"><g transform="translate(0 0)"><path class="e" d="M21.771,6,18.848,3.3l.787-.787L20.72,1.431a.746.746,0,0,1,.53-.22.75.75,0,0,1,.75.75v3.5A.748.748,0,0,1,21.771,6Z" transform="translate(-2 3.789)"/><path class="e" d="M3,1.5a1,1,0,0,0-.664,1.747l4.5,4a1,1,0,0,0,.784.245L15.4,6.55l4.409,4.177a1,1,0,0,0,1.375-1.453l-4.75-4.5a1,1,0,0,0-.808-.267l-7.8.947-4.163-3.7A1,1,0,0,0,3,1.5Z" transform="translate(-2 -1.501)"/></g><g transform="translate(0.253)"><path class="e" d="M21.25,1a.746.746,0,0,0-.53.22l-3.5,3.5A.75.75,0,0,0,17.75,6h3.5A.75.75,0,0,0,22,5.25V1.75A.75.75,0,0,0,21.25,1Z" transform="translate(-2.253 4)"/><path class="e" d="M18.849,11,15.5,7.909l-7.775.972a.5.5,0,0,1-.394-.123L2.253,4.244,2.3,4.2a1,1,0,0,1,1.364-.034l4.163,3.7,7.8-.946a.961.961,0,0,1,.119-.007,1,1,0,0,1,.688.274l3.2,3.03Z" transform="translate(-2.253 -3.909)"/></g></g><g transform="translate(-340 -171)"><path class="b" d="M13.75,11h-3.5A1.252,1.252,0,0,0,9,12.25v11a.75.75,0,0,0,.75.75h4.5a.75.75,0,0,0,.75-.75v-11A1.252,1.252,0,0,0,13.75,11Z" transform="translate(331 171)"/><path class="c" d="M12,11H10.25A1.252,1.252,0,0,0,9,12.25v11a.75.75,0,0,0,.75.75H12Z" transform="translate(331 171)"/></g><path class="f" d="M23.25,24H.75a.75.75,0,0,1,0-1.5h22.5a.75.75,0,0,1,0,1.5Z"/><path class="g" d="M24,23.25H0A.75.75,0,0,0,.75,24h22.5A.75.75,0,0,0,24,23.25Z"/></g></svg>