<svg xmlns="http://www.w3.org/2000/svg" width="14" height="14" viewBox="0 0 14 14"><defs><style>.a{fill:#1eeb00;}.b{isolation:isolate;}.c{fill:#004b40;}</style></defs><g transform="translate(-989.063 -440.407)"><circle class="a" cx="7" cy="7" r="7" transform="translate(989.063 440.407)"/><g class="b" transform="translate(992.787 443.04)"><g class="b"><path class="c" d="M1013.211,462.837a5.339,5.339,0,0,1,.8-.872,4.667,4.667,0,0,0,.564-.587.874.874,0,0,0,.18-.541.8.8,0,0,0-.343-.68,1.516,1.516,0,0,0-.913-.25,2.027,2.027,0,0,0-.971.227,2.07,2.07,0,0,0-.715.634l-1.406-.825a3.256,3.256,0,0,1,1.319-1.151,4.437,4.437,0,0,1,1.971-.407,3.653,3.653,0,0,1,2.145.57,1.828,1.828,0,0,1,.808,1.581,2.082,2.082,0,0,1-.157.837,2.215,2.215,0,0,1-.384.61q-.227.25-.587.576a4.881,4.881,0,0,0-.628.645,1.021,1.021,0,0,0-.2.634h-1.755A1.719,1.719,0,0,1,1013.211,462.837Zm-.186,3.61a1,1,0,0,1-.32-.75.974.974,0,0,1,.314-.738,1.234,1.234,0,0,1,1.6,0,.974.974,0,0,1,.314.738,1,1,0,0,1-.319.75,1.184,1.184,0,0,1-1.593,0Z" transform="translate(-1010.403 -458.384)"/></g></g></g></svg>