<svg xmlns="http://www.w3.org/2000/svg" width="36.588" height="28.86" viewBox="0 0 36.588 28.86"><defs><style>.a{fill:#e1fecb;}</style></defs><path class="a" d="M36.009,33.331H.58a.58.58,0,0,0-.58.58v27.7a.58.58,0,0,0,.58.58H36.009a.58.58,0,0,0,.58-.58v-27.7A.58.58,0,0,0,36.009,33.331Zm-2.9,24.238-7.973-8.257a.237.237,0,0,0-.327-.013l-5.53,4.867-7.068-8.7a.233.233,0,0,0-.189-.088.237.237,0,0,0-.185.1L3.478,56.689V36.809H33.11v20.76Z" transform="translate(0 -33.331)"/><path class="a" d="M188.375,92.18a2.844,2.844,0,1,0-2.844-2.844A2.845,2.845,0,0,0,188.375,92.18Z" transform="translate(-164.02 -80.328)"/></svg>