<svg xmlns="http://www.w3.org/2000/svg" width="18" height="18.484" viewBox="0 0 18 18.484"><defs><style>.a{fill:#455a64;}</style></defs><path class="a" d="M24.391,11.268l-1.7-1.329a6.182,6.182,0,0,0,0-1.4l1.7-1.329a.833.833,0,0,0,.2-1.062L22.826,3.1A.836.836,0,0,0,21.8,2.729l-2,.806a6.86,6.86,0,0,0-1.2-.7L18.291.709A.819.819,0,0,0,17.473,0H13.93a.816.816,0,0,0-.813.7l-.308,2.133a7.114,7.114,0,0,0-1.2.7L9.6,2.728a.819.819,0,0,0-1.014.361L6.816,6.15a.827.827,0,0,0,.2,1.067l1.7,1.329a6.124,6.124,0,0,0,0,1.4l-1.7,1.329a.833.833,0,0,0-.2,1.062l1.767,3.056a.835.835,0,0,0,1.022.368l2-.806a6.891,6.891,0,0,0,1.2.7l.308,2.126a.817.817,0,0,0,.813.709h3.543a.817.817,0,0,0,.816-.7l.308-2.133a7.128,7.128,0,0,0,1.2-.7l2.01.808a.819.819,0,0,0,1.014-.361L24.6,12.323A.831.831,0,0,0,24.391,11.268ZM15.7,13.093a3.851,3.851,0,1,1,3.851-3.851A3.851,3.851,0,0,1,15.7,13.093Z" transform="translate(-6.703 0)"/></svg>