<svg xmlns="http://www.w3.org/2000/svg" width="95.932" height="22" viewBox="0 0 95.932 22"><defs><style>.a{fill:#1eeb00;}</style></defs><g transform="translate(47.966 11)"><g transform="translate(-47.966 -11)"><path class="a" d="M157.75,21.73h-7.7l-6.27-10.34h-.11V21.73H137.4V2.7h6.27V9.19h.11l6.05-6.49h7.59l-7.26,7.37Z" transform="translate(-61.818 -1.215)"/><path class="a" d="M108.485,21.279v-10.4c0-2.09-.55-4.015-2.8-4.015s-3.355,1.925-3.355,4.07v10.34H96V2.249h6.05v1.76a7.7,7.7,0,0,1,5.665-2.31c5.115,0,6.93,3.96,6.93,7.81v11.77Z" transform="translate(-43.188 -0.764)"/><path class="a" d="M77.9,19.69V2.31L83.9,0V22Z" transform="translate(-35.043)"/><g transform="translate(0 0.88)"><path class="a" d="M44.6,21.84c-5.72,0-10.505-3.96-10.505-10.175S38.885,1.6,44.6,1.6,55.22,5.4,55.22,11.665,50.38,21.84,44.6,21.84Zm0-15.015c-2.915,0-4.455,2.42-4.455,4.84s1.54,4.95,4.51,4.95,4.51-2.475,4.51-4.95-1.6-4.9-4.565-4.9Z" transform="translate(-15.333 -1.6)"/><path class="a" d="M13.8,14.965a4.95,4.95,0,1,1,0-6.435L17.26,4.57a10.12,10.12,0,1,0,0,14.3Z" transform="translate(0.022 -1.6)"/></g></g></g></svg>