<svg xmlns="http://www.w3.org/2000/svg" width="15" height="18.24" viewBox="0 0 15 18.24"><defs><style>.a{fill:#feb137;}.b{fill:#ffd15b;}.c{fill:#ffc344;}</style></defs><path class="a" d="M219.7,377.218v3.509a1.293,1.293,0,0,0,2.586,0v-3.509Z" transform="translate(-213.497 -363.78)"/><path class="b" d="M223.179,0a1.212,1.212,0,0,0-1.212,1.212V3.321h2.425V1.212A1.212,1.212,0,0,0,223.179,0Z" transform="translate(-215.679)"/><path class="c" d="M244.735,0a1.21,1.21,0,0,0-.416.073,1.213,1.213,0,0,1,.8,1.139V3.321h.832V1.212A1.212,1.212,0,0,0,244.735,0Z" transform="translate(-237.235)"/><path class="c" d="M94.317,62.013a8.379,8.379,0,0,0-.854-2.977,5.172,5.172,0,0,0-9.256,0,8.507,8.507,0,0,0-.854,2.977c-.781,8.087-.69,6.912-.69,7.887H95.087C94.974,68.854,95.092,70.043,94.317,62.013Z" transform="translate(-81.335 -54.171)"/><path class="a" d="M244.585,61.986a8.379,8.379,0,0,0-.854-2.977,5.163,5.163,0,0,0-5.252-2.826,5.171,5.171,0,0,1,4,2.826,8.38,8.38,0,0,1,.854,2.977l.69,7.155h1.248Z" transform="translate(-231.603 -54.145)"/><path class="b" d="M59.743,420.948a.732.732,0,1,1,0,1.464H46.207a.732.732,0,1,1,0-1.464Z" transform="translate(-45.475 -405.952)"/><path class="c" d="M412.187,420.948h-1.248a.732.732,0,1,1,0,1.464h1.248a.732.732,0,1,0,0-1.464Z" transform="translate(-397.919 -405.952)"/></svg>